G04*
G04 #@! TF.GenerationSoftware,Altium Limited,Altium Designer,20.1.11 (218)*
G04*
G04 Layer_Physical_Order=6*
G04 Layer_Color=16737819*
%FSAX42Y42*%
%MOMM*%
G71*
G04*
G04 #@! TF.SameCoordinates,7236F677-8011-49D1-9462-8A3D937FB474*
G04*
G04*
G04 #@! TF.FilePolarity,Positive*
G04*
G01*
G75*
%ADD10C,0.25*%
%ADD14C,0.40*%
%ADD15C,0.20*%
%ADD21C,0.30*%
%ADD85C,0.60*%
%ADD86C,1.00*%
%ADD91C,1.20*%
%ADD92C,1.50*%
%ADD93C,1.30*%
%ADD98R,1.27X0.89*%
G04:AMPARAMS|DCode=102|XSize=0.7mm|YSize=0.5mm|CornerRadius=0.13mm|HoleSize=0mm|Usage=FLASHONLY|Rotation=90.000|XOffset=0mm|YOffset=0mm|HoleType=Round|Shape=RoundedRectangle|*
%AMROUNDEDRECTD102*
21,1,0.70,0.25,0,0,90.0*
21,1,0.45,0.50,0,0,90.0*
1,1,0.25,0.13,0.23*
1,1,0.25,0.13,-0.23*
1,1,0.25,-0.13,-0.23*
1,1,0.25,-0.13,0.23*
%
%ADD102ROUNDEDRECTD102*%
%ADD103R,0.50X0.70*%
%ADD106R,1.02X0.81*%
%ADD107R,0.81X1.02*%
%ADD117R,2.54X2.03*%
G04:AMPARAMS|DCode=118|XSize=0.3mm|YSize=1.45mm|CornerRadius=0.08mm|HoleSize=0mm|Usage=FLASHONLY|Rotation=0.000|XOffset=0mm|YOffset=0mm|HoleType=Round|Shape=RoundedRectangle|*
%AMROUNDEDRECTD118*
21,1,0.30,1.30,0,0,0.0*
21,1,0.15,1.45,0,0,0.0*
1,1,0.15,0.08,-0.65*
1,1,0.15,-0.08,-0.65*
1,1,0.15,-0.08,0.65*
1,1,0.15,0.08,0.65*
%
%ADD118ROUNDEDRECTD118*%
%ADD119R,0.30X1.45*%
G04:AMPARAMS|DCode=121|XSize=0.9mm|YSize=0.95mm|CornerRadius=0.23mm|HoleSize=0mm|Usage=FLASHONLY|Rotation=90.000|XOffset=0mm|YOffset=0mm|HoleType=Round|Shape=RoundedRectangle|*
%AMROUNDEDRECTD121*
21,1,0.90,0.50,0,0,90.0*
21,1,0.45,0.95,0,0,90.0*
1,1,0.45,0.25,0.23*
1,1,0.45,0.25,-0.23*
1,1,0.45,-0.25,-0.23*
1,1,0.45,-0.25,0.23*
%
%ADD121ROUNDEDRECTD121*%
%ADD122R,0.95X0.90*%
%ADD123R,0.95X0.90*%
%ADD129R,1.95X0.60*%
%ADD130O,1.95X0.60*%
%ADD131O,2.30X0.60*%
%ADD147C,0.50*%
%ADD149C,0.24*%
%ADD151O,1.30X1.50*%
G04:AMPARAMS|DCode=152|XSize=1.52mm|YSize=1.52mm|CornerRadius=0.38mm|HoleSize=0mm|Usage=FLASHONLY|Rotation=90.000|XOffset=0mm|YOffset=0mm|HoleType=Round|Shape=RoundedRectangle|*
%AMROUNDEDRECTD152*
21,1,1.52,0.76,0,0,90.0*
21,1,0.76,1.52,0,0,90.0*
1,1,0.76,0.38,0.38*
1,1,0.76,0.38,-0.38*
1,1,0.76,-0.38,-0.38*
1,1,0.76,-0.38,0.38*
%
%ADD152ROUNDEDRECTD152*%
%ADD153C,1.52*%
%ADD154C,0.50*%
%ADD155R,1.50X1.50*%
%ADD156R,1.50X1.50*%
%ADD157C,0.40*%
%ADD158C,0.80*%
%ADD159R,1.20X1.20*%
%ADD160C,6.35*%
%ADD161C,0.70*%
%ADD162C,1.10*%
%ADD163C,4.50*%
%ADD182R,0.70X0.50*%
G04:AMPARAMS|DCode=183|XSize=0.7mm|YSize=0.5mm|CornerRadius=0.13mm|HoleSize=0mm|Usage=FLASHONLY|Rotation=180.000|XOffset=0mm|YOffset=0mm|HoleType=Round|Shape=RoundedRectangle|*
%AMROUNDEDRECTD183*
21,1,0.70,0.25,0,0,180.0*
21,1,0.45,0.50,0,0,180.0*
1,1,0.25,-0.23,0.13*
1,1,0.25,0.23,0.13*
1,1,0.25,0.23,-0.13*
1,1,0.25,-0.23,-0.13*
%
%ADD183ROUNDEDRECTD183*%
%ADD184O,0.60X2.30*%
%ADD185R,0.60X1.78*%
%ADD186O,0.64X1.78*%
%ADD187R,0.89X1.27*%
%ADD188R,2.00X2.00*%
G04:AMPARAMS|DCode=189|XSize=2mm|YSize=2mm|CornerRadius=0.5mm|HoleSize=0mm|Usage=FLASHONLY|Rotation=180.000|XOffset=0mm|YOffset=0mm|HoleType=Round|Shape=RoundedRectangle|*
%AMROUNDEDRECTD189*
21,1,2.00,1.00,0,0,180.0*
21,1,1.00,2.00,0,0,180.0*
1,1,1.00,-0.50,0.50*
1,1,1.00,0.50,0.50*
1,1,1.00,0.50,-0.50*
1,1,1.00,-0.50,-0.50*
%
%ADD189ROUNDEDRECTD189*%
%ADD190O,0.25X1.27*%
%ADD191R,0.25X1.27*%
G36*
X003868Y005662D02*
X003865Y005643D01*
X003868Y005619D01*
X003878Y005597D01*
X003892Y005577D01*
X003912Y005563D01*
X003934Y005553D01*
X003958Y005550D01*
X003977Y005553D01*
X004030Y005500D01*
X004001Y005471D01*
X003982Y005479D01*
X003958Y005482D01*
X003934Y005479D01*
X003912Y005469D01*
X003892Y005455D01*
X003878Y005435D01*
X003868Y005413D01*
X003865Y005389D01*
X003868Y005365D01*
X003878Y005343D01*
X003892Y005323D01*
X003912Y005309D01*
X003934Y005299D01*
X003958Y005296D01*
X003982Y005299D01*
X004004Y005309D01*
X004024Y005323D01*
X004038Y005343D01*
X004048Y005365D01*
X004051Y005389D01*
X004048Y005413D01*
X004040Y005432D01*
X004068Y005460D01*
X004077Y005452D01*
Y005293D01*
X004001Y005217D01*
X003982Y005225D01*
X003958Y005228D01*
X003934Y005225D01*
X003912Y005215D01*
X003892Y005201D01*
X003878Y005181D01*
X003868Y005159D01*
X003865Y005135D01*
X003868Y005111D01*
X003878Y005089D01*
X003892Y005069D01*
X003912Y005055D01*
X003934Y005045D01*
X003958Y005042D01*
X003982Y005045D01*
X004004Y005055D01*
X004024Y005069D01*
X004038Y005089D01*
X004048Y005111D01*
X004051Y005135D01*
X004048Y005159D01*
X004040Y005178D01*
X004100Y005238D01*
X004112Y005232D01*
Y005148D01*
X004212D01*
Y005135D01*
X004225D01*
Y005035D01*
X004312D01*
X004315Y005029D01*
X004321Y005021D01*
X004426Y004916D01*
X004434Y004910D01*
X004445Y004907D01*
X004623D01*
X004895Y004635D01*
X004888Y004614D01*
X004885Y004578D01*
X005135D01*
Y004565D01*
X005148D01*
Y004315D01*
X005148D01*
X006184D01*
X006185Y004313D01*
Y003765D01*
X004435D01*
X003924Y004276D01*
X003930Y004287D01*
X003958Y004285D01*
X004010Y004289D01*
X004062Y004301D01*
X004110Y004322D01*
X004155Y004349D01*
X004195Y004383D01*
X004229Y004423D01*
X004257Y004468D01*
X004277Y004517D01*
X004289Y004568D01*
X004294Y004621D01*
X004289Y004673D01*
X004277Y004724D01*
X004257Y004773D01*
X004229Y004818D01*
X004195Y004858D01*
X004155Y004892D01*
X004110Y004919D01*
X004062Y004940D01*
X004010Y004952D01*
X003958Y004956D01*
X003906Y004952D01*
X003854Y004940D01*
X003806Y004919D01*
X003761Y004892D01*
X003721Y004858D01*
X003687Y004818D01*
X003659Y004773D01*
X003639Y004724D01*
X003627Y004673D01*
X003622Y004621D01*
X003625Y004592D01*
X003613Y004587D01*
X003495Y004705D01*
Y005694D01*
X003836D01*
X003868Y005662D01*
D02*
G37*
G36*
X004545Y012574D02*
X004532Y012572D01*
X004530Y012578D01*
X004516Y012596D01*
X004498Y012610D01*
X004477Y012618D01*
X004468Y012619D01*
Y012535D01*
Y012451D01*
X004477Y012452D01*
X004498Y012460D01*
X004516Y012474D01*
X004530Y012492D01*
X004532Y012498D01*
X004545Y012496D01*
Y012187D01*
X004536Y012174D01*
X004532Y012154D01*
X004536Y012133D01*
X004545Y012120D01*
Y011703D01*
X004247D01*
X004247Y011703D01*
X004237Y011700D01*
X004228Y011694D01*
X004228Y011694D01*
X004194Y011660D01*
X004129D01*
X004119Y011658D01*
X004110Y011652D01*
X004110Y011652D01*
X004046Y011588D01*
X004040Y011579D01*
X004037Y011568D01*
Y011567D01*
X004025Y011560D01*
X004009Y011573D01*
X003984Y011583D01*
X003971Y011585D01*
Y011485D01*
X003958D01*
Y011472D01*
X003858D01*
X003860Y011459D01*
X003870Y011434D01*
X003886Y011413D01*
X003907Y011397D01*
X003932Y011387D01*
X003950Y011385D01*
X003954Y011371D01*
X003939Y011355D01*
X003933Y011347D01*
X003931Y011336D01*
Y011319D01*
X003912Y011311D01*
X003892Y011297D01*
X003878Y011277D01*
X003868Y011255D01*
X003865Y011231D01*
X003868Y011207D01*
X003878Y011185D01*
X003892Y011165D01*
X003912Y011151D01*
X003934Y011141D01*
X003958Y011138D01*
X003982Y011141D01*
X004004Y011151D01*
X004024Y011165D01*
X004026Y011168D01*
X004039Y011164D01*
Y011044D01*
X004026Y011040D01*
X004024Y011043D01*
X004004Y011057D01*
X003982Y011067D01*
X003958Y011070D01*
X003934Y011067D01*
X003912Y011057D01*
X003892Y011043D01*
X003878Y011023D01*
X003868Y011001D01*
X003865Y010977D01*
X003868Y010953D01*
X003878Y010931D01*
X003892Y010911D01*
X003912Y010897D01*
X003923Y010892D01*
X003927Y010879D01*
X003833Y010764D01*
X003485Y010766D01*
X003485Y011892D01*
X003613Y012020D01*
X003625Y012015D01*
X003622Y011986D01*
X003627Y011934D01*
X003639Y011883D01*
X003659Y011834D01*
X003687Y011789D01*
X003721Y011749D01*
X003761Y011715D01*
X003806Y011688D01*
X003854Y011667D01*
X003906Y011655D01*
X003958Y011651D01*
X004010Y011655D01*
X004062Y011667D01*
X004110Y011688D01*
X004155Y011715D01*
X004195Y011749D01*
X004229Y011789D01*
X004257Y011834D01*
X004277Y011883D01*
X004289Y011934D01*
X004294Y011986D01*
X004289Y012039D01*
X004277Y012090D01*
X004257Y012139D01*
X004229Y012184D01*
X004195Y012224D01*
X004155Y012258D01*
X004110Y012285D01*
X004062Y012306D01*
X004010Y012318D01*
X003958Y012322D01*
X003930Y012320D01*
X003924Y012331D01*
X004308Y012715D01*
X004545D01*
Y012574D01*
D02*
G37*
G36*
X013025Y004305D02*
X013020D01*
X012867Y004152D01*
X012856Y004158D01*
X012862Y004187D01*
X012867Y004240D01*
X012862Y004292D01*
X012850Y004343D01*
X012830Y004392D01*
X012802Y004437D01*
X012768Y004477D01*
X012728Y004511D01*
X012683Y004538D01*
X012635Y004559D01*
X012583Y004571D01*
X012531Y004575D01*
X012479Y004571D01*
X012427Y004559D01*
X012379Y004538D01*
X012334Y004511D01*
X012294Y004477D01*
X012260Y004437D01*
X012232Y004392D01*
X012212Y004343D01*
X012200Y004292D01*
X012195Y004240D01*
X012200Y004187D01*
X012212Y004136D01*
X012232Y004087D01*
X012260Y004042D01*
X012294Y004002D01*
X012334Y003968D01*
X012379Y003941D01*
X012427Y003920D01*
X012479Y003908D01*
X012531Y003904D01*
X012583Y003908D01*
X012612Y003915D01*
X012619Y003903D01*
X012460Y003745D01*
X011887D01*
X011885Y003746D01*
X011884Y003746D01*
X011882Y003747D01*
X011869Y003749D01*
X011868D01*
X011866Y003749D01*
X011860Y003749D01*
X011835D01*
X011835Y004025D01*
X011835Y004025D01*
X011835Y004025D01*
X011836Y004037D01*
X011838Y004044D01*
X011843Y004057D01*
X011850Y004068D01*
X011855Y004072D01*
X012584Y004802D01*
X012595Y004797D01*
Y004797D01*
X012710D01*
Y004876D01*
X012727Y004893D01*
X012739Y004889D01*
Y004878D01*
X012805D01*
Y004852D01*
X012739D01*
Y004789D01*
X012760D01*
X012762Y004777D01*
X012772Y004762D01*
X012787Y004752D01*
X012792Y004751D01*
Y004795D01*
X012818D01*
Y004751D01*
X012823Y004752D01*
X012838Y004762D01*
X012848Y004777D01*
X012850Y004789D01*
X012871D01*
X012875Y004786D01*
X012876Y004786D01*
X012894Y004773D01*
X012903Y004772D01*
Y004826D01*
Y004879D01*
X012894Y004878D01*
X012884Y004871D01*
X012871Y004878D01*
Y004935D01*
X013025D01*
Y004305D01*
D02*
G37*
G36*
X012465Y012730D02*
X012619Y012577D01*
X012612Y012565D01*
X012583Y012572D01*
X012531Y012576D01*
X012479Y012572D01*
X012427Y012560D01*
X012379Y012539D01*
X012334Y012512D01*
X012294Y012478D01*
X012260Y012438D01*
X012232Y012393D01*
X012212Y012344D01*
X012200Y012293D01*
X012195Y012240D01*
X012200Y012188D01*
X012212Y012137D01*
X012232Y012088D01*
X012260Y012043D01*
X012294Y012003D01*
X012334Y011969D01*
X012379Y011942D01*
X012427Y011921D01*
X012479Y011909D01*
X012531Y011905D01*
X012583Y011909D01*
X012635Y011921D01*
X012683Y011942D01*
X012728Y011969D01*
X012768Y012003D01*
X012802Y012043D01*
X012830Y012088D01*
X012850Y012137D01*
X012862Y012188D01*
X012867Y012240D01*
X012862Y012293D01*
X012856Y012322D01*
X012867Y012328D01*
X013026Y012170D01*
Y011544D01*
X012808Y011544D01*
Y011558D01*
X012809Y011562D01*
X012721D01*
X012720Y011561D01*
X012711Y011555D01*
X012709Y011555D01*
X012703Y011560D01*
X012698Y011564D01*
X012025Y012237D01*
Y012591D01*
X012038Y012595D01*
X012045Y012585D01*
X012063Y012573D01*
X012072Y012571D01*
Y012625D01*
Y012679D01*
X012063Y012677D01*
X012045Y012665D01*
X012038Y012655D01*
X012025Y012659D01*
Y012735D01*
X012465D01*
Y012730D01*
D02*
G37*
%LPC*%
G36*
X003639Y005579D02*
Y005538D01*
X003681D01*
X003679Y005547D01*
X003667Y005565D01*
X003648Y005577D01*
X003639Y005579D01*
D02*
G37*
G36*
X003614D02*
X003605Y005577D01*
X003587Y005565D01*
X003574Y005547D01*
X003573Y005538D01*
X003614D01*
Y005579D01*
D02*
G37*
G36*
X003681Y005512D02*
X003639D01*
Y005471D01*
X003648Y005473D01*
X003667Y005485D01*
X003679Y005503D01*
X003681Y005512D01*
D02*
G37*
G36*
X003614D02*
X003573D01*
X003574Y005503D01*
X003587Y005485D01*
X003605Y005473D01*
X003614Y005471D01*
Y005512D01*
D02*
G37*
G36*
X003639Y005382D02*
Y005341D01*
X003681D01*
X003679Y005350D01*
X003667Y005368D01*
X003648Y005381D01*
X003639Y005382D01*
D02*
G37*
G36*
X003614D02*
X003605Y005381D01*
X003587Y005368D01*
X003574Y005350D01*
X003573Y005341D01*
X003614D01*
Y005382D01*
D02*
G37*
G36*
X003681Y005316D02*
X003639D01*
Y005274D01*
X003648Y005276D01*
X003667Y005288D01*
X003679Y005307D01*
X003681Y005316D01*
D02*
G37*
G36*
X003614D02*
X003573D01*
X003574Y005307D01*
X003587Y005288D01*
X003605Y005276D01*
X003614Y005274D01*
Y005316D01*
D02*
G37*
G36*
X003639Y005186D02*
Y005144D01*
X003681D01*
X003679Y005153D01*
X003667Y005172D01*
X003648Y005184D01*
X003639Y005186D01*
D02*
G37*
G36*
X003614D02*
X003605Y005184D01*
X003587Y005172D01*
X003574Y005153D01*
X003573Y005144D01*
X003614D01*
Y005186D01*
D02*
G37*
G36*
X003681Y005119D02*
X003639D01*
Y005078D01*
X003648Y005079D01*
X003667Y005092D01*
X003679Y005110D01*
X003681Y005119D01*
D02*
G37*
G36*
X003614D02*
X003573D01*
X003574Y005110D01*
X003587Y005092D01*
X003605Y005079D01*
X003614Y005078D01*
Y005119D01*
D02*
G37*
G36*
X004199Y005122D02*
X004112D01*
Y005035D01*
X004199D01*
Y005122D01*
D02*
G37*
G36*
X003639Y004989D02*
Y004948D01*
X003681D01*
X003679Y004957D01*
X003667Y004975D01*
X003648Y004987D01*
X003639Y004989D01*
D02*
G37*
G36*
X003614D02*
X003605Y004987D01*
X003587Y004975D01*
X003574Y004957D01*
X003573Y004948D01*
X003614D01*
Y004989D01*
D02*
G37*
G36*
X003681Y004922D02*
X003639D01*
Y004881D01*
X003648Y004883D01*
X003667Y004895D01*
X003679Y004913D01*
X003681Y004922D01*
D02*
G37*
G36*
X003614D02*
X003573D01*
X003574Y004913D01*
X003587Y004895D01*
X003605Y004883D01*
X003614Y004881D01*
Y004922D01*
D02*
G37*
G36*
X005122Y004552D02*
X004885D01*
X004888Y004516D01*
X004903Y004469D01*
X004926Y004425D01*
X004957Y004387D01*
X004995Y004356D01*
X005039Y004333D01*
X005086Y004318D01*
X005122Y004315D01*
Y004552D01*
D02*
G37*
G36*
X004875Y004343D02*
Y004302D01*
X004916D01*
X004915Y004311D01*
X004902Y004329D01*
X004884Y004341D01*
X004875Y004343D01*
D02*
G37*
G36*
X004850D02*
X004841Y004341D01*
X004823Y004329D01*
X004810Y004311D01*
X004809Y004302D01*
X004850D01*
Y004343D01*
D02*
G37*
G36*
X004679D02*
Y004302D01*
X004720D01*
X004718Y004311D01*
X004706Y004329D01*
X004687Y004341D01*
X004679Y004343D01*
D02*
G37*
G36*
X004653D02*
X004644Y004341D01*
X004626Y004329D01*
X004614Y004311D01*
X004612Y004302D01*
X004653D01*
Y004343D01*
D02*
G37*
G36*
X004482D02*
Y004302D01*
X004523D01*
X004521Y004311D01*
X004509Y004329D01*
X004491Y004341D01*
X004482Y004343D01*
D02*
G37*
G36*
X004456D02*
X004448Y004341D01*
X004429Y004329D01*
X004417Y004311D01*
X004415Y004302D01*
X004456D01*
Y004343D01*
D02*
G37*
G36*
X004285D02*
Y004302D01*
X004326D01*
X004325Y004311D01*
X004312Y004329D01*
X004294Y004341D01*
X004285Y004343D01*
D02*
G37*
G36*
X004260D02*
X004251Y004341D01*
X004233Y004329D01*
X004220Y004311D01*
X004219Y004302D01*
X004260D01*
Y004343D01*
D02*
G37*
G36*
X004916Y004276D02*
X004875D01*
Y004235D01*
X004884Y004237D01*
X004902Y004249D01*
X004915Y004267D01*
X004916Y004276D01*
D02*
G37*
G36*
X004850D02*
X004809D01*
X004810Y004267D01*
X004823Y004249D01*
X004841Y004237D01*
X004850Y004235D01*
Y004276D01*
D02*
G37*
G36*
X004720D02*
X004679D01*
Y004235D01*
X004687Y004237D01*
X004706Y004249D01*
X004718Y004267D01*
X004720Y004276D01*
D02*
G37*
G36*
X004653D02*
X004612D01*
X004614Y004267D01*
X004626Y004249D01*
X004644Y004237D01*
X004653Y004235D01*
Y004276D01*
D02*
G37*
G36*
X004523D02*
X004482D01*
Y004235D01*
X004491Y004237D01*
X004509Y004249D01*
X004521Y004267D01*
X004523Y004276D01*
D02*
G37*
G36*
X004456D02*
X004415D01*
X004417Y004267D01*
X004429Y004249D01*
X004448Y004237D01*
X004456Y004235D01*
Y004276D01*
D02*
G37*
G36*
X004326D02*
X004285D01*
Y004235D01*
X004294Y004237D01*
X004312Y004249D01*
X004325Y004267D01*
X004326Y004276D01*
D02*
G37*
G36*
X004260D02*
X004219D01*
X004220Y004267D01*
X004233Y004249D01*
X004251Y004237D01*
X004260Y004235D01*
Y004276D01*
D02*
G37*
G36*
X004442Y012619D02*
X004433Y012618D01*
X004412Y012610D01*
X004394Y012596D01*
X004380Y012578D01*
X004372Y012557D01*
X004371Y012548D01*
X004442D01*
Y012619D01*
D02*
G37*
G36*
Y012522D02*
X004371D01*
X004372Y012513D01*
X004380Y012492D01*
X004394Y012474D01*
X004412Y012460D01*
X004433Y012452D01*
X004442Y012451D01*
Y012522D01*
D02*
G37*
G36*
X004482Y012372D02*
Y012331D01*
X004523D01*
X004521Y012340D01*
X004509Y012358D01*
X004491Y012370D01*
X004482Y012372D01*
D02*
G37*
G36*
X004456D02*
X004448Y012370D01*
X004429Y012358D01*
X004417Y012340D01*
X004415Y012331D01*
X004456D01*
Y012372D01*
D02*
G37*
G36*
X004285D02*
Y012331D01*
X004326D01*
X004325Y012340D01*
X004312Y012358D01*
X004294Y012370D01*
X004285Y012372D01*
D02*
G37*
G36*
X004260D02*
X004251Y012370D01*
X004233Y012358D01*
X004220Y012340D01*
X004219Y012331D01*
X004260D01*
Y012372D01*
D02*
G37*
G36*
X004523Y012305D02*
X004482D01*
Y012264D01*
X004491Y012266D01*
X004509Y012278D01*
X004521Y012296D01*
X004523Y012305D01*
D02*
G37*
G36*
X004456D02*
X004415D01*
X004417Y012296D01*
X004429Y012278D01*
X004448Y012266D01*
X004456Y012264D01*
Y012305D01*
D02*
G37*
G36*
X004326D02*
X004285D01*
Y012264D01*
X004294Y012266D01*
X004312Y012278D01*
X004325Y012296D01*
X004326Y012305D01*
D02*
G37*
G36*
X004260D02*
X004219D01*
X004220Y012296D01*
X004233Y012278D01*
X004251Y012266D01*
X004260Y012264D01*
Y012305D01*
D02*
G37*
G36*
X003639Y011726D02*
Y011685D01*
X003681D01*
X003679Y011694D01*
X003667Y011712D01*
X003648Y011724D01*
X003639Y011726D01*
D02*
G37*
G36*
X003614D02*
X003605Y011724D01*
X003587Y011712D01*
X003574Y011694D01*
X003573Y011685D01*
X003614D01*
Y011726D01*
D02*
G37*
G36*
X003681Y011659D02*
X003639D01*
Y011618D01*
X003648Y011620D01*
X003667Y011632D01*
X003679Y011650D01*
X003681Y011659D01*
D02*
G37*
G36*
X003614D02*
X003573D01*
X003574Y011650D01*
X003587Y011632D01*
X003605Y011620D01*
X003614Y011618D01*
Y011659D01*
D02*
G37*
G36*
X003945Y011585D02*
X003932Y011583D01*
X003907Y011573D01*
X003886Y011557D01*
X003870Y011536D01*
X003860Y011511D01*
X003858Y011498D01*
X003945D01*
Y011585D01*
D02*
G37*
G36*
X003639Y011529D02*
Y011488D01*
X003681D01*
X003679Y011497D01*
X003667Y011515D01*
X003648Y011528D01*
X003639Y011529D01*
D02*
G37*
G36*
X003614D02*
X003605Y011528D01*
X003587Y011515D01*
X003574Y011497D01*
X003573Y011488D01*
X003614D01*
Y011529D01*
D02*
G37*
G36*
X003681Y011463D02*
X003639D01*
Y011421D01*
X003648Y011423D01*
X003667Y011435D01*
X003679Y011454D01*
X003681Y011463D01*
D02*
G37*
G36*
X003614D02*
X003573D01*
X003574Y011454D01*
X003587Y011435D01*
X003605Y011423D01*
X003614Y011421D01*
Y011463D01*
D02*
G37*
G36*
X003639Y011333D02*
Y011291D01*
X003681D01*
X003679Y011300D01*
X003667Y011319D01*
X003648Y011331D01*
X003639Y011333D01*
D02*
G37*
G36*
X003614D02*
X003605Y011331D01*
X003587Y011319D01*
X003574Y011300D01*
X003573Y011291D01*
X003614D01*
Y011333D01*
D02*
G37*
G36*
X003681Y011266D02*
X003639D01*
Y011225D01*
X003648Y011226D01*
X003667Y011239D01*
X003679Y011257D01*
X003681Y011266D01*
D02*
G37*
G36*
X003614D02*
X003573D01*
X003574Y011257D01*
X003587Y011239D01*
X003605Y011226D01*
X003614Y011225D01*
Y011266D01*
D02*
G37*
G36*
X003639Y011136D02*
Y011095D01*
X003681D01*
X003679Y011104D01*
X003667Y011122D01*
X003648Y011134D01*
X003639Y011136D01*
D02*
G37*
G36*
X003614D02*
X003605Y011134D01*
X003587Y011122D01*
X003574Y011104D01*
X003573Y011095D01*
X003614D01*
Y011136D01*
D02*
G37*
G36*
X003681Y011069D02*
X003639D01*
Y011028D01*
X003648Y011030D01*
X003667Y011042D01*
X003679Y011060D01*
X003681Y011069D01*
D02*
G37*
G36*
X003614D02*
X003573D01*
X003574Y011060D01*
X003587Y011042D01*
X003605Y011030D01*
X003614Y011028D01*
Y011069D01*
D02*
G37*
G36*
X012928Y004879D02*
Y004838D01*
X012969D01*
X012968Y004847D01*
X012955Y004865D01*
X012937Y004878D01*
X012928Y004879D01*
D02*
G37*
G36*
X012969Y004813D02*
X012928D01*
Y004772D01*
X012937Y004773D01*
X012955Y004786D01*
X012968Y004804D01*
X012969Y004813D01*
D02*
G37*
G36*
X012928Y004740D02*
Y004699D01*
X012969D01*
X012968Y004708D01*
X012955Y004726D01*
X012937Y004738D01*
X012928Y004740D01*
D02*
G37*
G36*
X012903D02*
X012894Y004738D01*
X012876Y004726D01*
X012863Y004708D01*
X012862Y004699D01*
X012903D01*
Y004740D01*
D02*
G37*
G36*
X012969Y004673D02*
X012928D01*
Y004632D01*
X012937Y004634D01*
X012955Y004646D01*
X012968Y004664D01*
X012969Y004673D01*
D02*
G37*
G36*
X012903D02*
X012862D01*
X012863Y004664D01*
X012876Y004646D01*
X012894Y004634D01*
X012903Y004632D01*
Y004673D01*
D02*
G37*
G36*
X012928Y004601D02*
Y004559D01*
X012969D01*
X012968Y004568D01*
X012955Y004586D01*
X012937Y004599D01*
X012928Y004601D01*
D02*
G37*
G36*
X012903D02*
X012894Y004599D01*
X012876Y004586D01*
X012863Y004568D01*
X012862Y004559D01*
X012903D01*
Y004601D01*
D02*
G37*
G36*
X012969Y004534D02*
X012928D01*
Y004493D01*
X012937Y004494D01*
X012955Y004507D01*
X012968Y004525D01*
X012969Y004534D01*
D02*
G37*
G36*
X012903D02*
X012862D01*
X012863Y004525D01*
X012876Y004507D01*
X012894Y004494D01*
X012903Y004493D01*
Y004534D01*
D02*
G37*
G36*
X012222Y004001D02*
Y003960D01*
X012263D01*
X012261Y003969D01*
X012249Y003987D01*
X012231Y004000D01*
X012222Y004001D01*
D02*
G37*
G36*
X012196D02*
X012187Y004000D01*
X012169Y003987D01*
X012157Y003969D01*
X012155Y003960D01*
X012196D01*
Y004001D01*
D02*
G37*
G36*
X012082D02*
Y003960D01*
X012123D01*
X012122Y003969D01*
X012109Y003987D01*
X012091Y004000D01*
X012082Y004001D01*
D02*
G37*
G36*
X012057D02*
X012048Y004000D01*
X012030Y003987D01*
X012017Y003969D01*
X012016Y003960D01*
X012057D01*
Y004001D01*
D02*
G37*
G36*
X011943D02*
Y003960D01*
X011984D01*
X011982Y003969D01*
X011970Y003987D01*
X011952Y004000D01*
X011943Y004001D01*
D02*
G37*
G36*
X011917D02*
X011908Y004000D01*
X011890Y003987D01*
X011878Y003969D01*
X011876Y003960D01*
X011917D01*
Y004001D01*
D02*
G37*
G36*
X012263Y003935D02*
X012222D01*
Y003894D01*
X012231Y003895D01*
X012249Y003908D01*
X012261Y003926D01*
X012263Y003935D01*
D02*
G37*
G36*
X012196D02*
X012155D01*
X012157Y003926D01*
X012169Y003908D01*
X012187Y003895D01*
X012196Y003894D01*
Y003935D01*
D02*
G37*
G36*
X012123D02*
X012082D01*
Y003894D01*
X012091Y003895D01*
X012109Y003908D01*
X012122Y003926D01*
X012123Y003935D01*
D02*
G37*
G36*
X012057D02*
X012016D01*
X012017Y003926D01*
X012030Y003908D01*
X012048Y003895D01*
X012057Y003894D01*
Y003935D01*
D02*
G37*
G36*
X011984D02*
X011943D01*
Y003894D01*
X011952Y003895D01*
X011970Y003908D01*
X011982Y003926D01*
X011984Y003935D01*
D02*
G37*
G36*
X011917D02*
X011876D01*
X011878Y003926D01*
X011890Y003908D01*
X011908Y003895D01*
X011917Y003894D01*
Y003935D01*
D02*
G37*
G36*
X012237Y012679D02*
Y012638D01*
X012278D01*
X012276Y012647D01*
X012264Y012665D01*
X012246Y012677D01*
X012237Y012679D01*
D02*
G37*
G36*
X012211D02*
X012202Y012677D01*
X012184Y012665D01*
X012172Y012647D01*
X012170Y012638D01*
X012211D01*
Y012679D01*
D02*
G37*
G36*
X012097D02*
Y012638D01*
X012138D01*
X012137Y012647D01*
X012124Y012665D01*
X012106Y012677D01*
X012097Y012679D01*
D02*
G37*
G36*
X012278Y012612D02*
X012237D01*
Y012571D01*
X012246Y012573D01*
X012264Y012585D01*
X012276Y012603D01*
X012278Y012612D01*
D02*
G37*
G36*
X012211D02*
X012170D01*
X012172Y012603D01*
X012184Y012585D01*
X012202Y012573D01*
X012211Y012571D01*
Y012612D01*
D02*
G37*
G36*
X012138D02*
X012097D01*
Y012571D01*
X012106Y012573D01*
X012124Y012585D01*
X012137Y012603D01*
X012138Y012612D01*
D02*
G37*
G36*
X012928Y011987D02*
Y011946D01*
X012969D01*
X012968Y011955D01*
X012955Y011973D01*
X012937Y011986D01*
X012928Y011987D01*
D02*
G37*
G36*
X012903D02*
X012894Y011986D01*
X012876Y011973D01*
X012863Y011955D01*
X012862Y011946D01*
X012903D01*
Y011987D01*
D02*
G37*
G36*
X012969Y011921D02*
X012928D01*
Y011879D01*
X012937Y011881D01*
X012955Y011894D01*
X012968Y011912D01*
X012969Y011921D01*
D02*
G37*
G36*
X012903D02*
X012862D01*
X012863Y011912D01*
X012876Y011894D01*
X012894Y011881D01*
X012903Y011879D01*
Y011921D01*
D02*
G37*
G36*
X012928Y011848D02*
Y011807D01*
X012969D01*
X012968Y011816D01*
X012955Y011834D01*
X012937Y011846D01*
X012928Y011848D01*
D02*
G37*
G36*
X012903D02*
X012894Y011846D01*
X012876Y011834D01*
X012863Y011816D01*
X012862Y011807D01*
X012903D01*
Y011848D01*
D02*
G37*
G36*
X012969Y011781D02*
X012928D01*
Y011740D01*
X012937Y011742D01*
X012955Y011754D01*
X012968Y011772D01*
X012969Y011781D01*
D02*
G37*
G36*
X012903D02*
X012862D01*
X012863Y011772D01*
X012876Y011754D01*
X012894Y011742D01*
X012903Y011740D01*
Y011781D01*
D02*
G37*
G36*
X012928Y011708D02*
Y011667D01*
X012969D01*
X012968Y011676D01*
X012955Y011694D01*
X012937Y011707D01*
X012928Y011708D01*
D02*
G37*
G36*
X012903D02*
X012894Y011707D01*
X012876Y011694D01*
X012863Y011676D01*
X012862Y011667D01*
X012903D01*
Y011708D01*
D02*
G37*
G36*
X012969Y011642D02*
X012928D01*
Y011601D01*
X012937Y011602D01*
X012955Y011615D01*
X012968Y011633D01*
X012969Y011642D01*
D02*
G37*
G36*
X012903D02*
X012862D01*
X012863Y011633D01*
X012876Y011615D01*
X012894Y011602D01*
X012903Y011601D01*
Y011642D01*
D02*
G37*
G36*
X012778Y011619D02*
Y011588D01*
X012809D01*
X012808Y011593D01*
X012798Y011608D01*
X012783Y011618D01*
X012778Y011619D01*
D02*
G37*
G36*
X012752D02*
X012747Y011618D01*
X012732Y011608D01*
X012722Y011593D01*
X012721Y011588D01*
X012752D01*
Y011619D01*
D02*
G37*
%LPD*%
D10*
X009819Y009825D02*
X009975D01*
X009769Y009775D02*
X009819Y009825D01*
X009715Y009775D02*
X009769D01*
X009407Y009772D02*
X009559D01*
D14*
X010218Y012265D02*
X010303D01*
X010439Y008057D02*
Y008073D01*
X010328Y007946D02*
X010439Y008057D01*
X010328Y007936D02*
Y007946D01*
X010439Y008073D02*
X010460Y008094D01*
X010308Y007916D02*
X010328Y007936D01*
X010308Y007905D02*
Y007916D01*
X009969Y007680D02*
Y007696D01*
X009858Y007569D02*
X009969Y007680D01*
X009858Y007559D02*
Y007569D01*
X009838Y007528D02*
Y007538D01*
X009858Y007559D01*
X009969Y007696D02*
X009990Y007717D01*
X011669Y011955D02*
X011763D01*
X011575D02*
X011669D01*
X011680Y011966D01*
Y012025D01*
X011705Y012050D01*
Y012065D01*
X011763Y011955D02*
X011763Y011955D01*
X011345Y004895D02*
Y005025D01*
Y007645D02*
Y007775D01*
X006433Y005358D02*
Y005408D01*
X006405Y005436D02*
X006433Y005408D01*
X006405Y005436D02*
Y005524D01*
Y012056D02*
X006433Y012028D01*
X006405Y012056D02*
Y012144D01*
Y011436D02*
Y011524D01*
Y011436D02*
X006433Y011408D01*
X006405Y009056D02*
X006433Y009028D01*
X006405Y009056D02*
Y009144D01*
Y008436D02*
X006433Y008408D01*
X006405Y008436D02*
Y008524D01*
Y010556D02*
X006433Y010528D01*
X006405Y010556D02*
Y010644D01*
Y009936D02*
X006433Y009908D01*
X006405Y009936D02*
Y010024D01*
Y007556D02*
X006433Y007528D01*
X006405Y007556D02*
Y007644D01*
Y006936D02*
X006433Y006908D01*
X006405Y006936D02*
Y007024D01*
Y006056D02*
Y006144D01*
Y006056D02*
X006433Y006028D01*
D15*
X009049Y007479D02*
X009165Y007595D01*
X009005Y007410D02*
X009049Y007454D01*
Y007479D01*
X009087Y007457D02*
X009205Y007575D01*
X009087Y007374D02*
Y007457D01*
X009055Y007342D02*
X009087Y007374D01*
X007415Y011735D02*
X007535Y011855D01*
X007415Y008275D02*
X007535Y008395D01*
X006662Y006225D02*
X006695Y006192D01*
X006785D01*
X006680Y008267D02*
X006775Y008172D01*
X006680Y008267D02*
Y008470D01*
X006775D01*
X006857Y008355D02*
X006983D01*
X006775Y008318D02*
X006820D01*
X006857Y008355D01*
X006742Y006740D02*
X006775D01*
X006693Y006525D02*
Y006645D01*
X006727Y006679D01*
Y006725D02*
X006742Y006740D01*
X006727Y006679D02*
Y006725D01*
X006693Y006525D02*
X006775Y006442D01*
Y006290D02*
X006928D01*
X006838Y006588D02*
X006875Y006625D01*
X006775Y006588D02*
X006838D01*
X006875Y006625D02*
X006983D01*
X006775Y008020D02*
X006928D01*
X006693Y009985D02*
X006775Y009902D01*
X006693Y009985D02*
Y010185D01*
X006707Y010200D01*
X006775D01*
Y009750D02*
X006928D01*
X006838Y010047D02*
X006875Y010085D01*
X006775Y010047D02*
X006838D01*
X006875Y010085D02*
X006983D01*
X006875Y011815D02*
X006983D01*
X006775Y011778D02*
X006838D01*
X006875Y011815D01*
X006928Y011475D02*
X006985D01*
X006928Y011480D02*
X006930Y011478D01*
X006775Y011480D02*
X006928D01*
X006707Y011930D02*
X006775D01*
X006693Y011915D02*
X006707Y011930D01*
X006693Y011715D02*
Y011915D01*
Y011715D02*
X006775Y011632D01*
X008983Y010495D02*
Y010552D01*
X008950Y010585D02*
X008983Y010552D01*
X008950Y010585D02*
Y010635D01*
X008972Y010657D01*
X008863Y010817D02*
X008915D01*
X008993Y010740D01*
X008953Y010905D02*
X008993Y010865D01*
X008803Y010905D02*
X008953D01*
X008698Y010800D02*
X008803Y010905D01*
X008650Y010800D02*
X008698D01*
X008854Y010674D02*
X008863Y010665D01*
X008650Y010674D02*
X008854D01*
X008950Y008845D02*
Y008915D01*
X008965Y008930D02*
Y008932D01*
X008950Y008915D02*
X008965Y008930D01*
Y008932D02*
X008965Y008932D01*
X008966Y008782D02*
X008983Y008765D01*
X008966Y008782D02*
Y008829D01*
X008950Y008845D02*
X008966Y008829D01*
X008854Y008943D02*
X008863Y008935D01*
X008650Y008943D02*
X008854D01*
X008863Y009087D02*
X008913D01*
X008990Y009010D01*
X008993D01*
X008953Y009175D02*
X008993Y009135D01*
X008812Y009175D02*
X008953D01*
X008708Y009071D02*
X008812Y009175D01*
X008650Y009071D02*
X008708D01*
X008650Y007214D02*
X008854D01*
X008863Y007205D01*
Y007357D02*
X008928D01*
X008993Y007293D01*
X008996Y007401D02*
X009005Y007410D01*
X008650Y007340D02*
X008698D01*
X008796Y007438D01*
X008960D01*
X008993Y007405D01*
X008932Y007137D02*
X008950Y007155D01*
Y007182D02*
X008970Y007203D01*
X008950Y007155D02*
Y007182D01*
X008932Y007085D02*
Y007137D01*
Y007085D02*
X008983Y007035D01*
X008993Y007293D02*
X009005D01*
X009055Y007342D01*
X008982Y005297D02*
X009030D01*
X009042Y005310D02*
Y005451D01*
X009030Y005297D02*
X009042Y005310D01*
X008993Y005472D02*
X009020D01*
X009042Y005451D01*
X008950Y005717D02*
X008993Y005675D01*
X009042D01*
X008650Y005610D02*
X008700D01*
X008807Y005717D02*
X008950D01*
X008700Y005610D02*
X008807Y005717D01*
X008854Y005483D02*
X008863Y005475D01*
X008650Y005483D02*
X008854D01*
X008915Y005627D02*
X008993Y005550D01*
X008863Y005627D02*
X008915D01*
X004590Y005326D02*
Y005518D01*
X004553Y005555D02*
X004590Y005518D01*
Y005326D02*
X004671Y005245D01*
X004553Y005555D02*
Y005555D01*
X004671Y005512D02*
X004772D01*
X004590Y005594D02*
Y005733D01*
Y005594D02*
X004671Y005512D01*
X004466Y005642D02*
X004553Y005555D01*
X004905Y005345D02*
Y005379D01*
X004772Y005512D02*
X004905Y005379D01*
X004466Y005857D02*
X004590Y005733D01*
X004466Y005857D02*
Y005896D01*
X004340Y005262D02*
X004466Y005388D01*
X004340Y005040D02*
Y005262D01*
X004445Y004935D02*
X004905D01*
X004340Y005040D02*
X004445Y004935D01*
X004466Y005019D02*
Y005134D01*
X004510Y004975D02*
X004810D01*
X004466Y005019D02*
X004510Y004975D01*
X004810D02*
X004870Y005035D01*
X004905D01*
X010368Y007252D02*
X010455Y007165D01*
X010368Y007252D02*
Y007285D01*
X009760Y007365D02*
X009840Y007285D01*
X009165Y007595D02*
Y008965D01*
X009205Y007575D02*
Y008953D01*
X009125Y007438D02*
X009245Y007558D01*
X009125Y006295D02*
Y007438D01*
X009165Y007421D02*
X009285Y007541D01*
X009165Y006255D02*
Y007421D01*
X009205Y007405D02*
X009325Y007525D01*
X009205Y006215D02*
Y007405D01*
X009245Y007558D02*
Y008815D01*
X009285Y007541D02*
Y008789D01*
X009325Y007525D02*
Y008765D01*
X010880Y006060D02*
Y006189D01*
X010828Y006241D02*
X010880Y006189D01*
X010685Y006241D02*
X010828D01*
X010630Y006186D02*
X010685Y006241D01*
X010630Y006064D02*
Y006186D01*
X010626Y006060D02*
X010630Y006064D01*
X011295Y011577D02*
X011302Y011570D01*
X009819Y010713D02*
X010139D01*
X012785Y010323D02*
X012855D01*
X012660Y010447D02*
X012785Y010323D01*
X010287Y010982D02*
Y011173D01*
X010270Y012465D02*
X010337D01*
X010020Y012215D02*
X010270Y012465D01*
X009750Y012215D02*
X010020D01*
X010995Y007665D02*
X011145Y007815D01*
X010688Y007665D02*
X010995D01*
X010605Y007748D02*
X010688Y007665D01*
X010605Y007621D02*
X011011D01*
X011185Y007795D01*
X011145Y007815D02*
Y008288D01*
X011391Y008715D02*
X011401D01*
X011185Y007795D02*
Y008201D01*
X011145Y008288D02*
X011212Y008355D01*
X011185Y008201D02*
X011299Y008315D01*
X012465Y005249D02*
Y005515D01*
X005223Y012206D02*
X005298Y012281D01*
X005223Y012189D02*
Y012206D01*
X005270Y012049D02*
Y012172D01*
X005265Y012044D02*
X005270Y012049D01*
Y012172D02*
X005288Y012190D01*
X010295Y011685D02*
X010361D01*
X010295Y011625D02*
X010324D01*
X010474Y011475D01*
X010361Y011685D02*
X010531Y011515D01*
X009955Y011395D02*
X010715D01*
X009835Y011515D02*
X009955Y011395D01*
X009835Y011515D02*
Y011855D01*
X010325Y011435D02*
X010735D01*
X010235Y011525D02*
X010325Y011435D01*
X010235Y011525D02*
Y011855D01*
X010531Y011515D02*
X010964D01*
X010474Y011475D02*
X010948D01*
X010964Y011515D02*
X011084Y011395D01*
X010948Y011475D02*
X011068Y011355D01*
X011685D02*
X011945Y011095D01*
X011068Y011355D02*
X011685D01*
X011705Y011395D02*
X011985Y011115D01*
X011084Y011395D02*
X011705D01*
X011104Y011435D02*
X012195D01*
X010995Y011544D02*
X011104Y011435D01*
X010995Y011544D02*
Y012125D01*
X012195Y011435D02*
X012235Y011395D01*
X012075Y009916D02*
X012155Y009996D01*
X012075Y009568D02*
Y009916D01*
X011981Y009474D02*
X012075Y009568D01*
X012065Y010225D02*
Y010453D01*
X012035Y010195D02*
X012065Y010225D01*
X012035Y009585D02*
Y010195D01*
X011982Y009532D02*
X012035Y009585D01*
X012025Y010244D02*
Y010957D01*
X011995Y010214D02*
X012025Y010244D01*
X011995Y009605D02*
Y010214D01*
X011959Y009569D02*
X011995Y009605D01*
X011945Y010520D02*
Y011095D01*
X011985Y010447D02*
Y011115D01*
X011965Y010427D02*
X011985Y010447D01*
X011965Y010425D02*
Y010427D01*
X012065Y010453D02*
X012155Y010543D01*
X012025Y010957D02*
X012155Y011087D01*
X011895Y010470D02*
X011945Y010520D01*
X009465Y009275D02*
X009495D01*
X009503Y009267D01*
X009575D01*
X009465Y009275D02*
Y009298D01*
X009442Y009322D02*
X009465Y009298D01*
X011625Y008375D02*
Y008491D01*
X011401Y008715D02*
X011625Y008491D01*
X011585Y008395D02*
Y008465D01*
X011545Y008355D02*
X011585Y008395D01*
X011212Y008355D02*
X011545D01*
X011340Y008710D02*
X011585Y008465D01*
X011565Y008315D02*
X011625Y008375D01*
X011299Y008315D02*
X011565D01*
X011401Y008715D02*
X011504D01*
X011391Y008725D02*
X011401Y008715D01*
X011340Y008820D02*
Y008858D01*
Y008710D02*
Y008820D01*
X010590Y012200D02*
X010615Y012175D01*
X010591Y012304D02*
Y012465D01*
X010945Y012175D02*
X010995Y012125D01*
X010615Y012175D02*
X010945D01*
X011055Y012355D02*
Y012435D01*
X011034Y012334D02*
X011055Y012355D01*
X011034Y012272D02*
Y012334D01*
X011027Y012265D02*
X011034Y012272D01*
X011655Y012109D02*
Y012235D01*
X011635Y012089D02*
X011655Y012109D01*
X011635Y012088D02*
Y012089D01*
X011488Y012155D02*
Y012235D01*
Y012155D02*
X011555Y012088D01*
X011375Y009287D02*
X011465D01*
X011290D02*
X011375D01*
X009935Y011890D02*
X010025Y011800D01*
X009835Y012007D02*
X009913D01*
X009935Y011985D01*
Y011890D02*
Y011985D01*
X010335Y011890D02*
X010425Y011800D01*
X010235Y012007D02*
X010313D01*
X010335Y011985D01*
Y011890D02*
Y011985D01*
X010735Y011890D02*
Y011985D01*
X010713Y012007D02*
X010735Y011985D01*
X010635Y012007D02*
X010713D01*
X010735Y011890D02*
X010825Y011800D01*
X010735Y011435D02*
X010840Y011330D01*
Y011205D02*
Y011330D01*
X010715Y011395D02*
X010790Y011320D01*
Y011170D02*
Y011320D01*
X009595Y011995D02*
X009775Y012175D01*
X009595Y011145D02*
Y011995D01*
Y011145D02*
X009625Y011115D01*
X009555Y012020D02*
X009750Y012215D01*
X009555Y011105D02*
Y012020D01*
Y011105D02*
X009695Y010965D01*
Y010676D02*
Y010965D01*
Y010676D02*
X009746Y010625D01*
X010215D01*
X010295Y010705D01*
Y010974D01*
X010287Y010982D02*
X010295Y010974D01*
X010192Y010983D02*
X010245Y010930D01*
X010192Y010983D02*
Y011050D01*
X009775Y012175D02*
X010565D01*
X010590Y012200D01*
Y012265D01*
X010287Y011173D02*
X010290Y011170D01*
X010590Y012464D02*
X010591Y012465D01*
X010455Y012265D02*
X010590D01*
X009485Y007455D02*
Y008315D01*
X009392Y008896D02*
Y008934D01*
X009389Y008938D02*
X009392Y008934D01*
X009389Y008938D02*
Y008961D01*
X009385Y008965D02*
X009389Y008961D01*
X009565Y007440D02*
Y008235D01*
X009702Y007365D02*
X009760D01*
X009605Y007462D02*
X009702Y007365D01*
X009605Y007462D02*
Y008195D01*
X009865Y008455D01*
X009525Y007415D02*
Y008275D01*
X009565Y008235D02*
X009805Y008475D01*
X009525Y008275D02*
X009746Y008496D01*
X009485Y008315D02*
X009685Y008515D01*
X009535Y007285D02*
Y007405D01*
X009525Y007415D02*
X009535Y007405D01*
X009565Y007440D02*
X009720Y007285D01*
X009410Y007380D02*
X009485Y007455D01*
X009445Y007473D02*
Y008533D01*
X009325Y007353D02*
X009445Y007473D01*
X009405Y007495D02*
Y008551D01*
X009285Y007375D02*
X009405Y007495D01*
X009445Y008533D02*
X009625Y008713D01*
X009405Y008551D02*
X009565Y008711D01*
X009365Y008715D02*
X009565Y008915D01*
X009365Y007508D02*
Y008715D01*
X009245Y007388D02*
X009365Y007508D01*
X009325Y008765D02*
X009525Y008965D01*
X009245Y008815D02*
X009345Y008915D01*
X009205Y008953D02*
X009287Y009035D01*
X009285Y008789D02*
X009392Y008896D01*
X009625Y008713D02*
Y008755D01*
X009565Y008711D02*
Y008755D01*
X009865Y008455D02*
Y008565D01*
X009805Y008475D02*
Y008565D01*
X009746Y008496D02*
Y008565D01*
X009685Y008515D02*
Y008565D01*
X011440Y010565D02*
X011790D01*
X011735Y010635D02*
Y010707D01*
X011705Y010605D02*
X011735Y010635D01*
X011423Y010605D02*
X011705D01*
X011735Y010707D02*
X011749Y010721D01*
X011825D01*
X011825Y010520D02*
X011885Y010580D01*
Y010661D01*
X011825Y010721D02*
X011885Y010661D01*
X011720Y010770D02*
X011790D01*
X011652Y010702D02*
X011720Y010770D01*
X011345Y010527D02*
X011423Y010605D01*
X011385Y010510D02*
X011440Y010565D01*
X011665Y010455D02*
X011680Y010470D01*
X011763Y010420D02*
X011825D01*
X011652Y010309D02*
X011763Y010420D01*
X011652Y010295D02*
Y010309D01*
X011645Y010151D02*
X011688D01*
X011645Y009999D02*
X011742Y010096D01*
X011688Y010151D02*
X011759Y010222D01*
X011500Y010379D02*
Y010463D01*
Y010345D02*
Y010379D01*
X011742Y010096D02*
Y010122D01*
X011759Y010222D02*
X011893D01*
X011742Y010122D02*
X011790Y010170D01*
X011893Y010222D02*
X011895Y010220D01*
X011680Y010470D02*
X011895D01*
X011345Y009597D02*
Y010527D01*
X011385Y009580D02*
Y010510D01*
X010873Y009125D02*
X011345Y009597D01*
X010890Y009085D02*
X011385Y009580D01*
X010590Y009045D02*
X010790Y008845D01*
X009515Y009045D02*
X010590D01*
X009246Y009216D02*
X009464D01*
X009165Y009135D02*
X009246Y009216D01*
X008993Y009135D02*
X009165D01*
X009263Y009179D02*
X009441D01*
X009094Y009010D02*
X009263Y009179D01*
X009282Y009142D02*
X009418D01*
X009128Y008988D02*
X009282Y009142D01*
X009295Y009095D02*
X009385D01*
X009165Y008965D02*
X009295Y009095D01*
X009287Y009035D02*
X009345D01*
X008993Y009010D02*
X009094D01*
X009128Y007805D02*
Y008988D01*
X009555Y009125D02*
X010873D01*
X009464Y009216D02*
X009555Y009125D01*
X009535Y009085D02*
X010890D01*
X009441Y009179D02*
X009535Y009085D01*
X009418Y009142D02*
X009515Y009045D01*
X011825Y009420D02*
X011997D01*
X011865Y009470D02*
X011869Y009474D01*
X011981D01*
X012024Y009446D02*
X012155D01*
X011997Y009420D02*
X012024Y009446D01*
X011842Y009532D02*
X011982D01*
X011791Y009569D02*
X011959D01*
X011830Y009520D02*
X011842Y009532D01*
X011825Y009520D02*
X011830D01*
X011790Y009570D02*
X011791Y009569D01*
X012305Y008925D02*
Y009005D01*
X009454Y009419D02*
X009575D01*
X009407Y009372D02*
X009454Y009419D01*
X009685Y009455D02*
X009736D01*
X009649Y009419D02*
X009685Y009455D01*
X010065Y009419D02*
X010225D01*
X010029Y009455D02*
X010065Y009419D01*
X009960Y009455D02*
X010029D01*
X010790Y008785D02*
Y008845D01*
X009088Y007765D02*
X009128Y007805D01*
X008993Y007765D02*
X009088D01*
X009410Y007285D02*
Y007380D01*
X011960Y010425D02*
X011965D01*
X011955Y010420D02*
X011960Y010425D01*
X011825Y010420D02*
X011955D01*
X011455Y008475D02*
X011515Y008415D01*
X011325Y008475D02*
X011455D01*
X011305Y008455D02*
X011325Y008475D01*
X010805Y008455D02*
X011305D01*
X010640Y008620D02*
X010805Y008455D01*
X010640Y008620D02*
Y008715D01*
X010590Y008611D02*
Y008785D01*
Y008611D02*
X010785Y008416D01*
X011355D01*
X012660Y009350D02*
X012786Y009224D01*
X012853D01*
X012855Y009223D01*
X012660Y009900D02*
X012786Y009774D01*
X012853D01*
X012855Y009773D01*
X012786Y010865D02*
X012852D01*
X012855Y010863D01*
X012660Y010991D02*
X012786Y010865D01*
X012923Y009123D02*
X012965D01*
X012805Y009005D02*
X012923Y009123D01*
X012305Y009005D02*
X012805D01*
X012921Y009673D02*
X012965D01*
X012803Y009555D02*
X012921Y009673D01*
X012305Y009555D02*
X012803D01*
X012925Y010220D02*
X012965D01*
X012807Y010102D02*
X012925Y010220D01*
X012305Y010102D02*
X012807D01*
X012924Y010764D02*
X012965D01*
X012806Y010646D02*
X012924Y010764D01*
X012305Y010646D02*
X012806D01*
X012305Y010102D02*
Y010646D01*
Y009555D02*
Y010102D01*
Y009005D02*
Y009555D01*
X012255Y010416D02*
Y010946D01*
Y009866D02*
Y010416D01*
X012252Y010413D02*
X012255Y010416D01*
X012155Y010413D02*
X012252D01*
X012255Y009328D02*
Y009866D01*
X012155D02*
X012255D01*
X012155Y009316D02*
X012243D01*
X012255Y009328D01*
X012243Y010957D02*
X012255Y010946D01*
X012155Y010957D02*
X012243D01*
X011255Y010863D02*
X011335D01*
X011175D02*
X011255D01*
X009358Y009972D02*
X009407D01*
X009085Y010245D02*
X009358Y009972D01*
X009045Y010245D02*
X009085D01*
X009094Y010175D02*
X009348Y009922D01*
X009045Y010175D02*
X009094D01*
X009368Y010022D02*
X009442D01*
X009076Y010314D02*
X009368Y010022D01*
X009045Y010314D02*
X009076D01*
X009045Y010314D02*
X009045Y010314D01*
X009045Y010245D02*
X009045Y010245D01*
X009410Y009275D02*
X009465D01*
X009575Y009419D02*
X009649D01*
X009736Y009455D02*
X009746Y009445D01*
X010375Y009825D02*
X010377Y009823D01*
X010139Y010713D02*
X010139Y010713D01*
X009955Y011106D02*
X009990Y011141D01*
X009955Y010995D02*
Y011106D01*
X009990Y011141D02*
Y011170D01*
X009937Y011273D02*
X009939Y011275D01*
X009937Y011151D02*
Y011273D01*
X009819Y011032D02*
X009937Y011151D01*
X009819Y010865D02*
Y011032D01*
X009955Y010995D02*
X009979Y010971D01*
Y010865D02*
Y010971D01*
X010040Y011050D02*
Y011205D01*
X010090Y011170D02*
X010115Y011145D01*
Y010955D02*
Y011145D01*
Y010955D02*
X010139Y010931D01*
Y010865D02*
Y010931D01*
X010515Y011050D02*
Y011075D01*
X010440Y011150D02*
X010515Y011075D01*
X010440Y011150D02*
Y011275D01*
X010363Y011143D02*
X010390Y011170D01*
X010363Y011050D02*
Y011143D01*
X011175Y011015D02*
Y011082D01*
X011175Y011083D02*
X011175Y011082D01*
X011175Y011083D02*
X011201Y011108D01*
X011315D01*
X011340Y011133D01*
Y011205D01*
X011390Y011125D02*
Y011170D01*
X011335Y011070D02*
X011390Y011125D01*
X011335Y011015D02*
Y011070D01*
X010855Y011135D02*
X010890Y011170D01*
X010855Y011055D02*
Y011135D01*
X011007Y011055D02*
Y011083D01*
X010940Y011150D02*
X011007Y011083D01*
X010940Y011150D02*
Y011275D01*
X011790Y010870D02*
X011790Y010870D01*
X011652Y010870D02*
X011790D01*
X011500Y010702D02*
Y010870D01*
X010137Y009255D02*
X010225D01*
X010065D02*
X010137D01*
X011823Y009622D02*
X011825Y009620D01*
X011755Y009622D02*
X011823D01*
X011755Y009621D02*
Y009622D01*
X011652Y009518D02*
X011755Y009621D01*
X011652Y009670D02*
X011790D01*
X011764Y008943D02*
X011764Y008942D01*
X011687Y008943D02*
X011764D01*
X011535Y008830D02*
Y008943D01*
X011490Y008785D02*
X011535Y008830D01*
X011545Y009131D02*
X011605Y009071D01*
Y008816D02*
Y009071D01*
X011504Y008715D02*
X011605Y008816D01*
X011465Y009135D02*
X011469Y009131D01*
X011545D01*
X011175Y009075D02*
X011245Y009005D01*
Y008943D02*
Y009005D01*
X011290Y009055D02*
Y009135D01*
Y009055D02*
X011320Y009025D01*
Y008878D02*
Y009025D01*
Y008878D02*
X011340Y008858D01*
X011397Y008863D02*
X011440Y008820D01*
X011397Y008863D02*
Y008943D01*
X010835Y008896D02*
Y008945D01*
Y008896D02*
X010865Y008866D01*
X010894D01*
X010940Y008820D01*
X010987Y008945D02*
X010990Y008942D01*
Y008785D02*
Y008942D01*
X010430Y008820D02*
X010440D01*
X010363Y008887D02*
X010430Y008820D01*
X010363Y008887D02*
Y008943D01*
X010515Y008875D02*
Y008943D01*
X010490Y008850D02*
X010515Y008875D01*
X010490Y008785D02*
Y008850D01*
X009515Y010025D02*
X009575D01*
X009468Y010072D02*
X009515Y010025D01*
X009407Y010072D02*
X009468D01*
X009515Y010177D02*
X009575D01*
X009459Y010122D02*
X009515Y010177D01*
X009442Y010122D02*
X009459D01*
X010225Y009419D02*
X010308D01*
X010225Y009255D02*
X010310D01*
X009559Y009772D02*
X009563Y009775D01*
X010037Y009227D02*
X010065Y009255D01*
X009960Y009227D02*
X010037D01*
X010308Y009419D02*
X010310Y009417D01*
X009685Y009227D02*
X009760D01*
X009645Y009267D02*
X009685Y009227D01*
X009575Y009267D02*
X009645D01*
X009406Y009271D02*
X009410Y009275D01*
X009725Y008850D02*
Y008955D01*
Y008850D02*
X009790Y008785D01*
X009877Y008857D02*
Y008955D01*
X009840Y008820D02*
X009877Y008857D01*
X009285Y005918D02*
Y007375D01*
X009325Y005882D02*
Y007353D01*
X009042Y005675D02*
X009285Y005918D01*
X009105Y006275D02*
X009125Y006295D01*
X008993Y006275D02*
X009105D01*
Y006195D02*
X009165Y006255D01*
X008993Y006195D02*
X009105D01*
Y006115D02*
X009205Y006215D01*
X008993Y006115D02*
X009105D01*
X009245Y006175D02*
Y007388D01*
X009105Y006035D02*
X009245Y006175D01*
X008993Y006035D02*
X009105D01*
X008993Y005550D02*
X009325Y005882D01*
X006525Y012156D02*
X006543Y012139D01*
X006525Y010656D02*
X006543Y010639D01*
X006525Y009156D02*
X006543Y009139D01*
X006525Y007656D02*
X006543Y007639D01*
X006525Y006156D02*
X006543Y006139D01*
X006403Y012146D02*
X006405Y012144D01*
X006403Y010646D02*
X006405Y010644D01*
X006403Y009146D02*
X006405Y009144D01*
X006403Y007646D02*
X006405Y007644D01*
X006403Y006146D02*
X006405Y006144D01*
X004905Y007465D02*
Y007475D01*
X004895Y007675D02*
X004905Y007665D01*
X010880Y005695D02*
Y005725D01*
X010574Y005871D02*
X010690Y005755D01*
X010535Y005871D02*
X010574D01*
X010499Y005907D02*
X010535Y005871D01*
X010499Y005907D02*
Y006060D01*
X010690Y005755D02*
X010850D01*
X010880Y005725D01*
X012415Y007795D02*
X012435Y007815D01*
X012415Y007795D02*
X012415Y007795D01*
X012374D02*
X012415D01*
X012415Y007655D02*
Y007795D01*
X012365Y007786D02*
X012374Y007795D01*
X012365Y007655D02*
Y007786D01*
X012535Y007815D02*
X012555Y007795D01*
X012435Y007815D02*
X012535D01*
X012155Y006675D02*
X012555D01*
X012115Y006715D02*
X012155Y006675D01*
X012115Y006715D02*
Y006963D01*
X012349Y006421D02*
X012555D01*
X012075Y006695D02*
X012349Y006421D01*
X012075Y006695D02*
Y006839D01*
X011985Y006929D02*
X012075Y006839D01*
X012023Y007055D02*
X012115Y006963D01*
X011965Y007055D02*
X012003D01*
X012468Y004798D02*
Y004810D01*
X012465Y004795D02*
X012468Y004798D01*
X011615Y004835D02*
Y004895D01*
X011595Y004815D02*
X011615Y004835D01*
X011517Y004815D02*
X011595D01*
X011497Y004835D02*
Y004895D01*
Y004835D02*
X011517Y004815D01*
X011905Y004895D02*
X012028D01*
X012805Y004795D02*
Y004865D01*
X011343Y005180D02*
X011345Y005177D01*
X011643Y005475D02*
X011671Y005447D01*
X011615Y005479D02*
X011675D01*
X011575Y005439D02*
X011615Y005479D01*
X011495Y005308D02*
Y005475D01*
X011548Y005308D02*
X011575Y005335D01*
Y005439D01*
X011495Y005308D02*
X011548D01*
X011343Y005321D02*
X011417Y005395D01*
X011343Y005308D02*
Y005321D01*
Y005180D02*
Y005308D01*
X011843Y005185D02*
X011845Y005187D01*
Y004925D02*
Y005035D01*
X011815Y004895D02*
X011845Y004925D01*
X011767Y004895D02*
X011815D01*
X012156Y005477D02*
X012175D01*
X012063Y005385D02*
X012156Y005477D01*
X011995Y005475D02*
X011997Y005473D01*
Y005385D02*
Y005473D01*
Y005385D02*
X012063D01*
X011997Y005305D02*
Y005385D01*
X011845Y005187D02*
Y005305D01*
X012653Y005306D02*
Y005326D01*
X012465Y004795D02*
Y004905D01*
X012465Y005045D02*
X012555D01*
X012415Y004995D02*
X012465Y005045D01*
X012415D02*
X012465D01*
X012365Y004995D02*
X012415Y005045D01*
Y004905D02*
Y004995D01*
X012365Y004905D02*
Y004995D01*
X012555Y005485D02*
X012648D01*
X012653Y005481D01*
X012515Y005445D02*
X012555Y005485D01*
X012515Y005345D02*
Y005445D01*
Y005565D02*
X012555D01*
X012465Y005515D02*
X012515Y005565D01*
X012631Y005284D02*
X012653Y005306D01*
X012587Y005240D02*
X012631Y005284D01*
X012565Y005219D02*
X012587Y005240D01*
Y005240D01*
X012495Y005219D02*
X012565D01*
X012465Y005249D02*
X012495Y005219D01*
X012475Y005635D02*
X012653D01*
X012415Y005575D02*
X012475Y005635D01*
X012415Y005345D02*
Y005575D01*
X011815D02*
X012415D01*
X012404Y005166D02*
X012655D01*
X012365Y005205D02*
X012404Y005166D01*
X012365Y005205D02*
Y005345D01*
X012558Y005123D02*
X012655Y005026D01*
X012375Y005123D02*
X012558D01*
X012655Y005015D02*
Y005026D01*
X012315Y005345D02*
X012315Y005345D01*
Y005183D02*
X012375Y005123D01*
X012315Y005183D02*
Y005345D01*
X011297Y005475D02*
X011343D01*
X011255Y005433D02*
X011297Y005475D01*
X011255Y005335D02*
Y005433D01*
Y005195D02*
X011270Y005180D01*
X011343D01*
X011255Y005005D02*
Y005015D01*
Y004895D02*
Y005005D01*
Y004785D02*
Y004895D01*
X011345D01*
X011660Y005255D02*
Y005311D01*
X011675Y005326D01*
X011795Y005475D02*
X011843D01*
X011764Y005444D02*
X011795Y005475D01*
X011764Y005275D02*
Y005444D01*
X011823Y005205D02*
X011843Y005185D01*
X011765Y005205D02*
X011823D01*
X011764Y005035D02*
X011845D01*
X011765Y005046D02*
Y005096D01*
Y005035D02*
Y005046D01*
X011764Y005035D02*
X011765Y005035D01*
X011764Y004996D02*
Y005035D01*
X012175Y005255D02*
Y005325D01*
X012255Y005046D02*
Y005096D01*
Y004995D02*
Y005046D01*
Y004965D02*
Y004970D01*
Y004995D01*
Y004965D02*
X012315Y004905D01*
X012180Y004895D02*
X012255Y004970D01*
X012515Y008195D02*
X012555Y008235D01*
X012515Y008095D02*
Y008195D01*
X012555Y008235D02*
X012648D01*
X012515Y008315D02*
X012555D01*
X012465Y008265D02*
X012515Y008315D01*
X012465Y008095D02*
Y008265D01*
X012475Y008385D02*
X012653D01*
X012415Y008325D02*
X012475Y008385D01*
X012415Y008095D02*
Y008325D01*
X011815D02*
X012415D01*
X011997Y008135D02*
X012063D01*
X012156Y008227D01*
X012631Y008034D02*
X012653Y008056D01*
X012565Y007969D02*
X012587Y007990D01*
Y007990D01*
X012653Y008056D02*
Y008071D01*
X012587Y007990D02*
X012631Y008034D01*
X012653Y008071D02*
Y008076D01*
X012495Y007969D02*
X012565D01*
X012465Y007999D02*
X012495Y007969D01*
X012465Y007999D02*
Y008095D01*
X012653Y008071D02*
X012807Y007916D01*
X012404D02*
X012655D01*
X012365Y007955D02*
X012404Y007916D01*
X012365Y007955D02*
Y008095D01*
X012315D02*
X012315Y008095D01*
Y007933D02*
Y008095D01*
Y007933D02*
X012375Y007873D01*
X012558D01*
X012655Y007776D01*
Y007765D02*
Y007776D01*
X012648Y008235D02*
X012653Y008231D01*
X012805Y007545D02*
Y007615D01*
X012255Y007715D02*
Y007720D01*
Y007715D02*
X012315Y007655D01*
X012255Y007796D02*
Y007846D01*
Y007745D02*
Y007796D01*
Y007720D02*
Y007745D01*
X012180Y007645D02*
X012255Y007720D01*
X011764Y007785D02*
X011845D01*
X011765Y007796D02*
Y007846D01*
Y007786D02*
Y007796D01*
X011764Y007785D02*
X011765Y007786D01*
X011255Y007755D02*
Y007765D01*
Y007645D02*
Y007755D01*
Y007535D02*
Y007645D01*
X012175Y008005D02*
Y008075D01*
X011905Y007645D02*
X012028D01*
X011764Y008025D02*
Y008194D01*
X011765Y007955D02*
X011823D01*
X011843Y007935D01*
X012156Y008227D02*
X012175D01*
X011997Y008135D02*
Y008223D01*
Y008055D02*
Y008135D01*
X011995Y008225D02*
X011997Y008223D01*
X011660Y008005D02*
Y008061D01*
X011675Y008076D01*
X011795Y008225D02*
X011843D01*
X011764Y008194D02*
X011795Y008225D01*
X011643D02*
X011671Y008197D01*
X011615Y008229D02*
X011675D01*
X011575Y008189D02*
X011615Y008229D01*
X011575Y008085D02*
Y008189D01*
X011548Y008058D02*
X011575Y008085D01*
X011495Y008058D02*
X011548D01*
X011497Y007585D02*
Y007645D01*
Y007585D02*
X011517Y007565D01*
X011615Y007585D02*
Y007645D01*
X011595Y007565D02*
X011615Y007585D01*
X011764Y007746D02*
Y007785D01*
X011845Y007675D02*
Y007785D01*
X011815Y007645D02*
X011845Y007675D01*
X011767Y007645D02*
X011815D01*
X011843Y007935D02*
X011845Y007937D01*
Y008055D01*
X011495Y008058D02*
Y008225D01*
X011343Y008071D02*
X011417Y008145D01*
X011343Y008058D02*
Y008071D01*
X011297Y008225D02*
X011343D01*
X011255Y008183D02*
X011297Y008225D01*
X011255Y008085D02*
Y008183D01*
Y007645D02*
X011345D01*
X011517Y007565D02*
X011595D01*
X011270Y007930D02*
X011343D01*
X011255Y007945D02*
X011270Y007930D01*
X011343D02*
X011345Y007927D01*
X011343Y007930D02*
Y008058D01*
X006658Y006221D02*
X006662Y006225D01*
X006721Y007721D02*
X006785Y007785D01*
Y007855D01*
Y009255D02*
X006790D01*
X006751Y009221D02*
X006785Y009255D01*
X006765Y010721D02*
X006789Y010745D01*
X006658Y012221D02*
X006791D01*
X006658Y010721D02*
X006765D01*
X006658Y009221D02*
X006751D01*
X006658Y007721D02*
X006721D01*
X005279Y011878D02*
X005373D01*
X005265Y011892D02*
X005279Y011878D01*
X005472D02*
X005487Y011892D01*
X005373Y011878D02*
X005472D01*
X005279Y010378D02*
X005373D01*
X005265Y010392D02*
X005279Y010378D01*
X004880Y010320D02*
X004905Y010295D01*
X004877Y010357D02*
X004905Y010385D01*
X004875Y010575D02*
X004905Y010545D01*
X004875Y010615D02*
X004905Y010645D01*
X004875Y007055D02*
X004888Y007043D01*
X004875Y007055D02*
Y007235D01*
X004835Y006999D02*
X004895Y006939D01*
X004835Y006999D02*
Y007221D01*
X004875Y006765D02*
X004895Y006745D01*
X004883Y006853D02*
X004895D01*
X004838Y006808D02*
X004883Y006853D01*
X004662Y006808D02*
X004838D01*
X004860Y008291D02*
X004896Y008256D01*
X004651Y006765D02*
X004875D01*
X004865Y011635D02*
X004895Y011605D01*
X004835Y011595D02*
X004895Y011535D01*
X004865Y011085D02*
X004895Y011055D01*
X004866Y011126D02*
X004895Y011155D01*
X004654Y011126D02*
X004866D01*
X004615Y011165D02*
X004654Y011126D01*
X004615Y011165D02*
Y011302D01*
X004635Y011085D02*
X004865D01*
X004577Y011143D02*
X004635Y011085D01*
X004577Y011143D02*
Y011284D01*
X004615Y010645D02*
Y010995D01*
X004466Y011144D02*
X004615Y010995D01*
X004466Y011144D02*
Y011230D01*
X004535Y011382D02*
X004615Y011302D01*
X004515Y011345D02*
X004577Y011284D01*
X004196Y011382D02*
X004535D01*
X004105Y011291D02*
X004196Y011382D01*
X004105Y011084D02*
Y011291D01*
Y011084D02*
X004212Y010977D01*
X004300Y011345D02*
X004515D01*
X004212Y011257D02*
X004300Y011345D01*
X004105Y011429D02*
Y011538D01*
X004066Y011390D02*
X004105Y011429D01*
X004066Y010869D02*
Y011390D01*
X004065Y011443D02*
Y011568D01*
X003958Y011336D02*
X004065Y011443D01*
X003958Y011231D02*
Y011336D01*
X004065Y011568D02*
X004129Y011633D01*
X004205D01*
X004247Y011675D01*
X004895D01*
X004265Y011635D02*
X004865D01*
X004225Y011595D02*
X004265Y011635D01*
X004162Y011595D02*
X004225D01*
X004105Y011538D02*
X004162Y011595D01*
X004066Y010869D02*
X004212Y010723D01*
X004288Y011595D02*
X004835D01*
X004212Y011520D02*
X004288Y011595D01*
X004212Y011485D02*
Y011520D01*
Y011231D02*
Y011257D01*
X007047Y011333D02*
Y011413D01*
X006985Y011475D02*
X007047Y011413D01*
X006927Y009745D02*
X006983D01*
X007047Y009603D02*
Y009681D01*
X006983Y009745D02*
X007047Y009681D01*
X006927Y006285D02*
X006980D01*
X007047Y006143D02*
Y006218D01*
X006980Y006285D02*
X007047Y006218D01*
X006927Y008015D02*
X006975D01*
X007047Y007873D02*
Y007943D01*
X006975Y008015D02*
X007047Y007943D01*
X004645Y010615D02*
X004875D01*
X004615Y010645D02*
X004645Y010615D01*
X004627Y010575D02*
X004875D01*
X004577Y010625D02*
X004627Y010575D01*
X004577Y010625D02*
Y010865D01*
X004466Y010976D02*
X004577Y010865D01*
Y010357D02*
X004877D01*
X004466Y010468D02*
X004577Y010357D01*
X004450Y010320D02*
X004880D01*
X004354Y010416D02*
X004450Y010320D01*
X004354Y010416D02*
Y010610D01*
X004466Y010722D01*
X004896Y009605D02*
X004945D01*
X004896Y009679D02*
X004927D01*
X005035Y009572D01*
X004945Y009605D02*
X004995Y009555D01*
Y009125D02*
Y009555D01*
X004955Y009085D02*
X004995Y009125D01*
X004326Y009085D02*
X004955D01*
X005035Y009104D02*
Y009572D01*
X004766Y008835D02*
X005035Y009104D01*
X004322Y008835D02*
X004766D01*
X004212Y009199D02*
X004326Y009085D01*
X004212Y008945D02*
X004322Y008835D01*
X004104Y008605D02*
Y008777D01*
X004066Y008815D02*
X004104Y008777D01*
X004066Y008815D02*
Y009007D01*
X004065Y008585D02*
Y008753D01*
X003958Y008860D02*
X004065Y008753D01*
X003958Y008860D02*
Y008945D01*
Y009115D02*
X004066Y009007D01*
X004895Y009461D02*
Y009492D01*
X004784Y009603D02*
X004895Y009492D01*
X004377Y009603D02*
X004784D01*
X004835Y009438D02*
Y009493D01*
X004763Y009565D02*
X004835Y009493D01*
X004354Y009565D02*
X004763D01*
X004927Y009405D02*
X004952Y009380D01*
Y009203D02*
Y009380D01*
X004924Y009175D02*
X004952Y009203D01*
X004868Y009405D02*
X004927D01*
X004835Y009438D02*
X004868Y009405D01*
X004865Y009355D02*
X004895D01*
X004855Y009345D02*
X004865Y009355D01*
X004896Y009175D02*
X004924D01*
X004855Y009305D02*
X004895Y009265D01*
X004325Y009655D02*
Y009754D01*
X004258Y009821D02*
X004325Y009754D01*
X004072Y009821D02*
X004258D01*
X004325Y009655D02*
X004377Y009603D01*
X003958Y009707D02*
X004072Y009821D01*
X004212Y009707D02*
X004354Y009565D01*
X004365Y009345D02*
X004855D01*
X004257Y009453D02*
X004365Y009345D01*
X004345Y009305D02*
X004855D01*
X004305Y009345D02*
X004345Y009305D01*
X004212Y009453D02*
X004257D01*
X004066Y009345D02*
X004305D01*
X003958Y009453D02*
X004066Y009345D01*
X004952Y007972D02*
Y008048D01*
X004925Y007945D02*
X004952Y007972D01*
X004905Y007945D02*
X004925D01*
X004895Y008012D02*
X004905D01*
X004872Y008035D02*
X004895Y008012D01*
X004133Y008035D02*
X004872D01*
X004895Y007775D02*
X004905D01*
X004847Y007822D02*
X004895Y007775D01*
X004370Y007822D02*
X004847D01*
X004814Y007785D02*
X004895Y007704D01*
Y007675D02*
Y007704D01*
Y007565D02*
X004905D01*
X004855Y007525D02*
X004895Y007565D01*
X004415Y007525D02*
X004855D01*
X004915Y007615D02*
X004945Y007585D01*
Y007515D02*
Y007585D01*
X004905Y007475D02*
X004945Y007515D01*
X004863Y007615D02*
X004915D01*
X004813Y007565D02*
X004863Y007615D01*
X004395Y007565D02*
X004813D01*
X004860Y008330D02*
X004895Y008365D01*
X004389Y008291D02*
X004860D01*
X004405Y008330D02*
X004860D01*
X004316Y008364D02*
X004389Y008291D01*
X004355Y008380D02*
X004405Y008330D01*
X004316Y008364D02*
Y008509D01*
X004355Y008380D02*
Y008525D01*
X004279Y008546D02*
X004316Y008509D01*
X004295Y008585D02*
X004355Y008525D01*
X004924Y008076D02*
X004952Y008048D01*
X004156Y008076D02*
X004924D01*
X003958Y009115D02*
Y009199D01*
X004124Y008585D02*
X004295D01*
X004104Y008605D02*
X004124Y008585D01*
X004104Y008546D02*
X004279D01*
X004065Y008585D02*
X004104Y008546D01*
X004065Y008390D02*
Y008485D01*
X003958Y008592D02*
X004065Y008485D01*
X003958Y008592D02*
Y008691D01*
X004104Y008128D02*
Y008351D01*
X004065Y008390D02*
X004104Y008351D01*
X004065Y008103D02*
X004133Y008035D01*
X004065Y008103D02*
Y008330D01*
X004104Y008128D02*
X004156Y008076D01*
X003958Y008437D02*
X004065Y008330D01*
X005472Y007378D02*
X005487Y007392D01*
X005373Y007378D02*
X005472D01*
Y008878D02*
X005487Y008892D01*
X005373Y008878D02*
X005472D01*
X005346Y008936D02*
X005373D01*
X005302Y008892D02*
X005346Y008936D01*
X005265Y008892D02*
X005302D01*
X005265Y007463D02*
X005318D01*
X005158D02*
X005265D01*
X005265Y007463D02*
X005265Y007463D01*
X005265Y007392D02*
Y007463D01*
X004395Y007785D02*
X004814D01*
X004883Y006485D02*
X004895D01*
X004853Y006515D02*
X004883Y006485D01*
X004876Y006575D02*
X004895D01*
X004855Y006553D02*
X004876Y006575D01*
X004360Y006553D02*
X004855D01*
X004381Y006515D02*
X004853D01*
X004325Y006459D02*
X004381Y006515D01*
X004325Y006351D02*
Y006459D01*
X004262Y006288D02*
X004325Y006351D01*
X004075Y006288D02*
X004262D01*
X003958Y006405D02*
X004075Y006288D01*
X004212Y006405D02*
X004360Y006553D01*
X004123Y006004D02*
X004284D01*
X004104Y005985D02*
X004123Y006004D01*
X004104Y005885D02*
Y005985D01*
X004105Y006044D02*
X004263D01*
X004317Y006098D01*
Y006217D01*
X004401Y006301D01*
X004355Y006195D02*
X004422Y006262D01*
X004355Y006075D02*
Y006195D01*
X004284Y006004D02*
X004355Y006075D01*
X004422Y006262D02*
X004519D01*
X005472Y005878D02*
X005487Y005892D01*
X005373Y005878D02*
X005472D01*
X004905Y005853D02*
X004915D01*
X004891D02*
X004905D01*
Y006035D02*
X004915D01*
X004833D02*
X004905D01*
Y006145D02*
X004915D01*
X004875D02*
X004905D01*
X004952Y006201D02*
X004995Y006159D01*
Y005725D02*
Y006159D01*
X004855Y005585D02*
X004995Y005725D01*
X004969Y006240D02*
X005035Y006173D01*
Y005675D02*
Y006173D01*
X004915Y005555D02*
X005035Y005675D01*
X004905Y005755D02*
X004952Y005802D01*
Y005898D01*
X004925Y005925D02*
X004952Y005898D01*
X004879Y005483D02*
X004905D01*
X004855Y005508D02*
X004879Y005483D01*
X004855Y005508D02*
Y005585D01*
X004905Y005483D02*
X004915D01*
X004842Y006201D02*
X004952D01*
X004860Y006240D02*
X004969D01*
X004778Y006265D02*
X004842Y006201D01*
X004720Y006380D02*
X004860Y006240D01*
X004720Y006380D02*
Y006404D01*
X004804Y006006D02*
X004833Y006035D01*
X004774Y006044D02*
X004875Y006145D01*
X004790Y005751D02*
X004891Y005853D01*
X004635Y005751D02*
X004790D01*
X004577Y005809D02*
X004635Y005751D01*
X004874Y005925D02*
X004925D01*
X004835Y005886D02*
X004874Y005925D01*
X004835Y005853D02*
Y005886D01*
X004772Y005789D02*
X004835Y005853D01*
X004655Y005789D02*
X004772D01*
X004575Y006841D02*
Y007057D01*
X004466Y007166D02*
X004575Y007057D01*
Y006841D02*
X004651Y006765D01*
X004615Y006855D02*
X004662Y006808D01*
X004615Y006855D02*
Y007061D01*
X004720Y007166D01*
X004558Y006044D02*
X004615Y005987D01*
Y005829D02*
Y005987D01*
Y005829D02*
X004655Y005789D01*
X004384Y006044D02*
X004558D01*
X004315Y005975D02*
X004384Y006044D01*
X004577Y005809D02*
Y005966D01*
X004539Y006004D02*
X004577Y005966D01*
X004405Y006004D02*
X004539D01*
X004355Y005953D02*
X004405Y006004D01*
X004315Y005855D02*
Y005975D01*
X004355Y005839D02*
Y005953D01*
X004255Y005795D02*
X004315Y005855D01*
X004145Y005795D02*
X004255D01*
X004271Y005755D02*
X004355Y005839D01*
X004105Y005685D02*
X004175Y005755D01*
X004105Y005282D02*
Y005685D01*
X003958Y005135D02*
X004105Y005282D01*
X004067Y005717D02*
X004145Y005795D01*
X004067Y005498D02*
Y005717D01*
X003958Y005389D02*
X004067Y005498D01*
X004175Y005755D02*
X004271D01*
X003958Y005738D02*
X004104Y005885D01*
X003958Y005643D02*
Y005738D01*
X004659Y006006D02*
X004804D01*
X004675Y006044D02*
X004774D01*
X004577Y006089D02*
X004659Y006006D01*
X004615Y006104D02*
X004675Y006044D01*
X004577Y006089D02*
Y006204D01*
X004615Y006104D02*
Y006222D01*
X003958Y005897D02*
X004105Y006044D01*
X004401Y006301D02*
X004536D01*
X004519Y006262D02*
X004577Y006204D01*
X004536Y006301D02*
X004615Y006222D01*
X003958Y005897D02*
Y005958D01*
X004702Y006265D02*
X004778D01*
X004563Y006404D02*
X004702Y006265D01*
X004466Y006404D02*
X004563D01*
X004671Y005245D02*
X004905D01*
X004355Y007465D02*
X004415Y007525D01*
X004315Y007485D02*
X004395Y007565D01*
X004355Y007310D02*
Y007465D01*
X004315Y007325D02*
Y007485D01*
X004266Y007276D02*
X004315Y007325D01*
X004067Y007276D02*
X004266D01*
X003958Y007167D02*
X004067Y007276D01*
X004212Y007167D02*
X004355Y007310D01*
X004315Y007767D02*
X004370Y007822D01*
X004315Y007605D02*
Y007767D01*
X004259Y007549D02*
X004315Y007605D01*
X004086Y007549D02*
X004259D01*
X003958Y007421D02*
X004086Y007549D01*
X004355Y007745D02*
X004395Y007785D01*
X004355Y007585D02*
Y007745D01*
X004212Y007442D02*
X004355Y007585D01*
X004212Y007421D02*
Y007442D01*
X004720Y007390D02*
X004875Y007235D01*
X004720Y007390D02*
Y007420D01*
X004785Y007271D02*
X004835Y007221D01*
X004615Y007271D02*
X004785D01*
X004466Y007420D02*
X004615Y007271D01*
X006405Y012146D02*
X006415Y012156D01*
X005763Y011063D02*
X005766Y011066D01*
X006415Y012156D02*
X006525D01*
X006543Y011744D02*
X006618D01*
X006543Y011896D02*
Y012004D01*
X006651Y012461D02*
X006658D01*
X006641Y012451D02*
X006651Y012461D01*
X006631D02*
X006641Y012451D01*
X006583Y012413D02*
X006631Y012461D01*
X006361Y012413D02*
X006583D01*
X006341Y012433D02*
X006361Y012413D01*
X006611Y012381D02*
X006658D01*
X006601Y012371D02*
X006611Y012381D01*
X006328Y012371D02*
X006601D01*
X006148Y012433D02*
X006266D01*
X006328Y012371D01*
X006258Y012384D02*
X006310Y012331D01*
X006598D01*
X006658Y012301D02*
Y012307D01*
X006598Y012331D02*
X006628Y012301D01*
X006658D01*
X005948Y012433D02*
X006074D01*
X006123Y012384D01*
X006258D01*
X006415Y011536D02*
X006525D01*
X006543Y011269D02*
Y011386D01*
X005370Y011203D02*
X005373Y011205D01*
X005370Y011066D02*
Y011203D01*
X006403Y011776D02*
Y011786D01*
Y011686D02*
Y011776D01*
X006483Y011896D02*
X006543D01*
X006453Y011866D02*
X006483Y011896D01*
X006393Y011866D02*
X006453D01*
X006328Y011931D02*
Y012281D01*
Y011931D02*
X006393Y011866D01*
X006405Y012144D02*
Y012146D01*
X006383Y011076D02*
Y011186D01*
X006388Y011071D02*
X006393Y011066D01*
X006383Y011076D02*
X006388Y011071D01*
X006485Y011269D02*
X006543D01*
X006458Y011241D02*
X006485Y011269D01*
X006328Y011321D02*
Y011751D01*
X006408Y011241D02*
X006458D01*
X006328Y011321D02*
X006408Y011241D01*
X006046Y012281D02*
X006148D01*
X005978Y012213D02*
X006046Y012281D01*
X006308Y011771D02*
X006328Y011751D01*
X006032Y011771D02*
X006308D01*
X005978Y011825D02*
Y012213D01*
Y011825D02*
X006032Y011771D01*
X005892Y012281D02*
X005948D01*
X005818Y012208D02*
X005892Y012281D01*
X005818Y011778D02*
Y012208D01*
X005718Y011401D02*
X005768D01*
X005688Y011648D02*
X005818Y011778D01*
X005688Y011461D02*
Y011648D01*
Y011431D02*
Y011461D01*
Y011431D02*
X005718Y011401D01*
X005822Y011215D02*
X005848Y011241D01*
X005763Y011215D02*
X005822D01*
X005261Y011563D02*
Y011631D01*
X005228Y011531D02*
X005261Y011563D01*
X005168Y011531D02*
X005228D01*
X005348Y011993D02*
X005373D01*
X005318Y011963D02*
X005348Y011993D01*
X005158Y011963D02*
X005318D01*
X005564Y011101D02*
X005628D01*
X005547Y011084D02*
X005564Y011101D01*
X005526Y011063D02*
X005547Y011084D01*
X005523Y011066D02*
X005526Y011063D01*
X005766Y011066D02*
X005866Y011166D01*
X005298Y012281D02*
X005398D01*
X005359Y012190D02*
X005474D01*
X005487Y012177D01*
Y012044D02*
Y012177D01*
X005631Y012481D02*
X005678Y012433D01*
X005535Y012481D02*
X005631D01*
X005488Y012434D02*
X005535Y012481D01*
X005678Y012281D02*
X005778Y012181D01*
Y011797D02*
Y012181D01*
X005698Y011284D02*
Y011330D01*
X005668Y011360D02*
X005698Y011330D01*
X005668Y011254D02*
X005698Y011284D01*
X005668Y011360D02*
Y011381D01*
Y011226D02*
Y011254D01*
X005620Y011638D02*
X005778Y011797D01*
X005620Y011429D02*
Y011638D01*
Y011429D02*
X005668Y011381D01*
X005594Y011151D02*
X005668Y011226D01*
X005678Y012281D02*
X005762D01*
X006405Y009146D02*
X006415Y009156D01*
X005763Y008063D02*
X005766Y008066D01*
X006415Y009156D02*
X006525D01*
X006543Y008744D02*
X006618D01*
X006543Y008896D02*
Y009004D01*
X006651Y009461D02*
X006658D01*
X006641Y009451D02*
X006651Y009461D01*
X006631D02*
X006641Y009451D01*
X006583Y009413D02*
X006631Y009461D01*
X006361Y009413D02*
X006583D01*
X006341Y009433D02*
X006361Y009413D01*
X006611Y009381D02*
X006658D01*
X006601Y009371D02*
X006611Y009381D01*
X006328Y009371D02*
X006601D01*
X006148Y009433D02*
X006266D01*
X006328Y009371D01*
X006258Y009384D02*
X006310Y009331D01*
X006598D01*
X006658Y009301D02*
Y009307D01*
X006598Y009331D02*
X006628Y009301D01*
X006658D01*
X005948Y009433D02*
X006074D01*
X006123Y009384D01*
X006258D01*
X006415Y008536D02*
X006525D01*
X006543Y008269D02*
Y008386D01*
X005370Y008203D02*
X005373Y008205D01*
X005370Y008066D02*
Y008203D01*
X006403Y008776D02*
Y008786D01*
Y008686D02*
Y008776D01*
X006483Y008896D02*
X006543D01*
X006453Y008866D02*
X006483Y008896D01*
X006393Y008866D02*
X006453D01*
X006328Y008931D02*
Y009281D01*
Y008931D02*
X006393Y008866D01*
X006405Y009144D02*
Y009146D01*
X006383Y008076D02*
Y008186D01*
X006388Y008071D02*
X006393Y008066D01*
X006383Y008076D02*
X006388Y008071D01*
X006485Y008269D02*
X006543D01*
X006458Y008241D02*
X006485Y008269D01*
X006328Y008321D02*
Y008751D01*
X006408Y008241D02*
X006458D01*
X006328Y008321D02*
X006408Y008241D01*
X006046Y009281D02*
X006148D01*
X005978Y009213D02*
X006046Y009281D01*
X006308Y008771D02*
X006328Y008751D01*
X006032Y008771D02*
X006308D01*
X005978Y008825D02*
Y009213D01*
Y008825D02*
X006032Y008771D01*
X005892Y009281D02*
X005948D01*
X005818Y009208D02*
X005892Y009281D01*
X005818Y008778D02*
Y009208D01*
X005718Y008401D02*
X005768D01*
X005688Y008648D02*
X005818Y008778D01*
X005688Y008461D02*
Y008648D01*
Y008431D02*
Y008461D01*
Y008431D02*
X005718Y008401D01*
X005822Y008215D02*
X005848Y008241D01*
X005763Y008215D02*
X005822D01*
X005261Y008563D02*
Y008631D01*
X005228Y008531D02*
X005261Y008563D01*
X005168Y008531D02*
X005228D01*
X005348Y008993D02*
X005373D01*
X005318Y008963D02*
X005348Y008993D01*
X005158Y008963D02*
X005318D01*
X005223Y009251D02*
X005254Y009282D01*
X005223Y009189D02*
Y009251D01*
X005564Y008101D02*
X005628D01*
X005547Y008084D02*
X005564Y008101D01*
X005526Y008063D02*
X005547Y008084D01*
X005523Y008066D02*
X005526Y008063D01*
X005766Y008066D02*
X005866Y008166D01*
X005298Y009281D02*
X005398D01*
X005265Y009167D02*
X005288Y009190D01*
X005265Y009044D02*
Y009167D01*
X005359Y009190D02*
X005474D01*
X005487Y009177D01*
Y009044D02*
Y009177D01*
X005631Y009481D02*
X005678Y009433D01*
X005535Y009481D02*
X005631D01*
X005488Y009434D02*
X005535Y009481D01*
X005678Y009281D02*
X005778Y009181D01*
Y008797D02*
Y009181D01*
X005698Y008284D02*
Y008330D01*
X005668Y008360D02*
X005698Y008330D01*
X005668Y008254D02*
X005698Y008284D01*
X005668Y008360D02*
Y008381D01*
Y008226D02*
Y008254D01*
X005620Y008638D02*
X005778Y008797D01*
X005620Y008429D02*
Y008638D01*
Y008429D02*
X005668Y008381D01*
X005594Y008151D02*
X005668Y008226D01*
X005678Y009281D02*
X005762D01*
X006405Y010646D02*
X006415Y010656D01*
X005763Y009563D02*
X005766Y009566D01*
X006415Y010656D02*
X006525D01*
X006543Y010244D02*
X006618D01*
X006543Y010396D02*
Y010504D01*
X006651Y010961D02*
X006658D01*
X006641Y010951D02*
X006651Y010961D01*
X006631D02*
X006641Y010951D01*
X006583Y010913D02*
X006631Y010961D01*
X006361Y010913D02*
X006583D01*
X006341Y010933D02*
X006361Y010913D01*
X006611Y010881D02*
X006658D01*
X006601Y010871D02*
X006611Y010881D01*
X006328Y010871D02*
X006601D01*
X006148Y010933D02*
X006266D01*
X006328Y010871D01*
X006258Y010884D02*
X006310Y010831D01*
X006598D01*
X006658Y010801D02*
Y010807D01*
X006598Y010831D02*
X006628Y010801D01*
X006658D01*
X005948Y010933D02*
X006074D01*
X006123Y010884D01*
X006258D01*
X006415Y010036D02*
X006525D01*
X006543Y009769D02*
Y009886D01*
X005370Y009703D02*
X005373Y009705D01*
X005370Y009566D02*
Y009703D01*
X006403Y010276D02*
Y010286D01*
Y010186D02*
Y010276D01*
X006483Y010396D02*
X006543D01*
X006453Y010366D02*
X006483Y010396D01*
X006393Y010366D02*
X006453D01*
X006328Y010431D02*
Y010781D01*
Y010431D02*
X006393Y010366D01*
X006405Y010644D02*
Y010646D01*
X006383Y009576D02*
Y009686D01*
X006388Y009571D02*
X006393Y009566D01*
X006383Y009576D02*
X006388Y009571D01*
X006485Y009769D02*
X006543D01*
X006458Y009741D02*
X006485Y009769D01*
X006328Y009821D02*
Y010251D01*
X006408Y009741D02*
X006458D01*
X006328Y009821D02*
X006408Y009741D01*
X006046Y010781D02*
X006148D01*
X005978Y010713D02*
X006046Y010781D01*
X006308Y010271D02*
X006328Y010251D01*
X006032Y010271D02*
X006308D01*
X005978Y010325D02*
Y010713D01*
Y010325D02*
X006032Y010271D01*
X005892Y010781D02*
X005948D01*
X005818Y010708D02*
X005892Y010781D01*
X005818Y010278D02*
Y010708D01*
X005718Y009901D02*
X005768D01*
X005688Y010148D02*
X005818Y010278D01*
X005688Y009961D02*
Y010148D01*
Y009931D02*
Y009961D01*
Y009931D02*
X005718Y009901D01*
X005822Y009715D02*
X005848Y009741D01*
X005763Y009715D02*
X005822D01*
X005261Y010063D02*
Y010131D01*
X005228Y010031D02*
X005261Y010063D01*
X005168Y010031D02*
X005228D01*
X005348Y010493D02*
X005373D01*
X005318Y010463D02*
X005348Y010493D01*
X005158Y010463D02*
X005318D01*
X005223Y010751D02*
X005254Y010782D01*
X005223Y010689D02*
Y010751D01*
X005564Y009601D02*
X005628D01*
X005547Y009584D02*
X005564Y009601D01*
X005526Y009563D02*
X005547Y009584D01*
X005523Y009566D02*
X005526Y009563D01*
X005766Y009566D02*
X005866Y009666D01*
X005298Y010781D02*
X005398D01*
X005265Y010667D02*
X005288Y010690D01*
X005265Y010544D02*
Y010667D01*
X005359Y010690D02*
X005474D01*
X005487Y010677D01*
Y010544D02*
Y010677D01*
X005631Y010981D02*
X005678Y010933D01*
X005535Y010981D02*
X005631D01*
X005488Y010934D02*
X005535Y010981D01*
X005678Y010781D02*
X005778Y010681D01*
Y010297D02*
Y010681D01*
X005698Y009784D02*
Y009830D01*
X005668Y009860D02*
X005698Y009830D01*
X005668Y009754D02*
X005698Y009784D01*
X005668Y009860D02*
Y009881D01*
Y009726D02*
Y009754D01*
X005620Y010138D02*
X005778Y010297D01*
X005620Y009929D02*
Y010138D01*
Y009929D02*
X005668Y009881D01*
X005594Y009651D02*
X005668Y009726D01*
X005678Y010781D02*
X005762D01*
X006405Y007646D02*
X006415Y007656D01*
X005763Y006563D02*
X005766Y006566D01*
X006415Y007656D02*
X006525D01*
X006543Y007244D02*
X006618D01*
X006543Y007396D02*
Y007504D01*
X006651Y007961D02*
X006658D01*
X006641Y007951D02*
X006651Y007961D01*
X006631D02*
X006641Y007951D01*
X006583Y007913D02*
X006631Y007961D01*
X006361Y007913D02*
X006583D01*
X006341Y007933D02*
X006361Y007913D01*
X006611Y007881D02*
X006658D01*
X006601Y007871D02*
X006611Y007881D01*
X006328Y007871D02*
X006601D01*
X006148Y007933D02*
X006266D01*
X006328Y007871D01*
X006258Y007884D02*
X006310Y007831D01*
X006598D01*
X006658Y007801D02*
Y007807D01*
X006598Y007831D02*
X006628Y007801D01*
X006658D01*
X005948Y007933D02*
X006074D01*
X006123Y007884D01*
X006258D01*
X006415Y007036D02*
X006525D01*
X006543Y006769D02*
Y006886D01*
X005370Y006703D02*
X005373Y006705D01*
X005370Y006566D02*
Y006703D01*
X006403Y007276D02*
Y007286D01*
Y007186D02*
Y007276D01*
X006483Y007396D02*
X006543D01*
X006453Y007366D02*
X006483Y007396D01*
X006393Y007366D02*
X006453D01*
X006328Y007431D02*
Y007781D01*
Y007431D02*
X006393Y007366D01*
X006405Y007644D02*
Y007646D01*
X006383Y006576D02*
Y006686D01*
X006388Y006571D02*
X006393Y006566D01*
X006383Y006576D02*
X006388Y006571D01*
X006485Y006769D02*
X006543D01*
X006458Y006741D02*
X006485Y006769D01*
X006328Y006821D02*
Y007251D01*
X006408Y006741D02*
X006458D01*
X006328Y006821D02*
X006408Y006741D01*
X006046Y007781D02*
X006148D01*
X005978Y007713D02*
X006046Y007781D01*
X006308Y007271D02*
X006328Y007251D01*
X006032Y007271D02*
X006308D01*
X005978Y007325D02*
Y007713D01*
Y007325D02*
X006032Y007271D01*
X005892Y007781D02*
X005948D01*
X005818Y007708D02*
X005892Y007781D01*
X005818Y007278D02*
Y007708D01*
X005718Y006901D02*
X005768D01*
X005688Y007148D02*
X005818Y007278D01*
X005688Y006961D02*
Y007148D01*
Y006931D02*
Y006961D01*
Y006931D02*
X005718Y006901D01*
X005822Y006715D02*
X005848Y006741D01*
X005763Y006715D02*
X005822D01*
X005261Y007063D02*
Y007131D01*
X005228Y007031D02*
X005261Y007063D01*
X005168Y007031D02*
X005228D01*
X005348Y007493D02*
X005373D01*
X005318Y007463D02*
X005348Y007493D01*
X005223Y007751D02*
X005254Y007782D01*
X005223Y007689D02*
Y007751D01*
X005564Y006601D02*
X005628D01*
X005547Y006584D02*
X005564Y006601D01*
X005526Y006563D02*
X005547Y006584D01*
X005523Y006566D02*
X005526Y006563D01*
X005766Y006566D02*
X005866Y006666D01*
X005298Y007781D02*
X005398D01*
X005265Y007667D02*
X005288Y007690D01*
X005265Y007544D02*
Y007667D01*
X005359Y007690D02*
X005474D01*
X005487Y007677D01*
Y007544D02*
Y007677D01*
X005631Y007981D02*
X005678Y007933D01*
X005535Y007981D02*
X005631D01*
X005488Y007934D02*
X005535Y007981D01*
X005678Y007781D02*
X005778Y007681D01*
Y007297D02*
Y007681D01*
X005698Y006784D02*
Y006830D01*
X005668Y006860D02*
X005698Y006830D01*
X005668Y006754D02*
X005698Y006784D01*
X005668Y006860D02*
Y006881D01*
Y006726D02*
Y006754D01*
X005620Y007138D02*
X005778Y007297D01*
X005620Y006929D02*
Y007138D01*
Y006929D02*
X005668Y006881D01*
X005594Y006651D02*
X005668Y006726D01*
X005678Y007781D02*
X005762D01*
X005158Y005963D02*
X005318D01*
X005348Y005993D01*
X005373D01*
X005487Y006044D02*
Y006177D01*
X005474Y006190D02*
X005487Y006177D01*
X005359Y006190D02*
X005474D01*
X005265Y006167D02*
X005288Y006190D01*
X005265Y006044D02*
Y006167D01*
X005892Y006281D02*
X005948D01*
X005818Y006208D02*
X005892Y006281D01*
X005978Y006213D02*
X006046Y006281D01*
X005978Y005825D02*
Y006213D01*
X005818Y005778D02*
Y006208D01*
X005564Y005101D02*
X005628D01*
X005547Y005084D02*
X005564Y005101D01*
X005668Y005226D02*
Y005254D01*
X005594Y005151D02*
X005668Y005226D01*
X005526Y005063D02*
X005547Y005084D01*
X006543Y005744D02*
X006618D01*
X006258Y006384D02*
X006310Y006331D01*
X006123Y006384D02*
X006258D01*
X006074Y006433D02*
X006123Y006384D01*
X006310Y006331D02*
X006598D01*
X006328Y006371D02*
X006601D01*
X006266Y006433D02*
X006328Y006371D01*
X006148Y006433D02*
X006266D01*
X005948D02*
X006074D01*
X006611Y006381D02*
X006658D01*
X006628Y006301D02*
X006658D01*
Y006307D01*
X006651Y006461D02*
X006658D01*
X006641Y006451D02*
X006651Y006461D01*
X006631D02*
X006641Y006451D01*
X006328Y005931D02*
X006393Y005866D01*
X006328Y005931D02*
Y006281D01*
X006046D02*
X006148D01*
X005978Y005825D02*
X006032Y005771D01*
X006308D01*
X006328Y005751D01*
Y005321D02*
Y005751D01*
X006598Y006331D02*
X006628Y006301D01*
X006601Y006371D02*
X006611Y006381D01*
X006583Y006413D02*
X006631Y006461D01*
X006361Y006413D02*
X006583D01*
X006341Y006433D02*
X006361Y006413D01*
X005688Y005648D02*
X005818Y005778D01*
X005688Y005461D02*
Y005648D01*
X005678Y006281D02*
X005778Y006181D01*
Y005797D02*
Y006181D01*
X005620Y005638D02*
X005778Y005797D01*
X005678Y006281D02*
X005762D01*
X005620Y005429D02*
Y005638D01*
X005698Y005284D02*
Y005330D01*
X005668Y005360D02*
X005698Y005330D01*
X005668Y005360D02*
Y005381D01*
X005620Y005429D02*
X005668Y005381D01*
Y005254D02*
X005698Y005284D01*
X005631Y006481D02*
X005678Y006433D01*
X005535Y006481D02*
X005631D01*
X005488Y006434D02*
X005535Y006481D01*
X005298Y006281D02*
X005398D01*
X005223Y006251D02*
X005254Y006282D01*
X005223Y006189D02*
Y006251D01*
X005261Y005563D02*
Y005631D01*
X005228Y005531D02*
X005261Y005563D01*
X005168Y005531D02*
X005228D01*
X005718Y005401D02*
X005768D01*
X005688Y005431D02*
X005718Y005401D01*
X005688Y005431D02*
Y005461D01*
X006415Y005536D02*
X006525D01*
X006328Y005321D02*
X006408Y005241D01*
X006458D01*
X006383Y005076D02*
Y005186D01*
Y005076D02*
X006388Y005071D01*
X006393Y005066D01*
X005763Y005215D02*
X005822D01*
X005848Y005241D01*
X005370Y005066D02*
Y005203D01*
X005373Y005205D01*
X006485Y005269D02*
X006543D01*
X006458Y005241D02*
X006485Y005269D01*
X006543D02*
Y005386D01*
X006483Y005896D02*
X006543D01*
X006453Y005866D02*
X006483Y005896D01*
X006393Y005866D02*
X006453D01*
X006543Y005896D02*
Y006004D01*
X005763Y005063D02*
X005766Y005066D01*
X006403Y005776D02*
Y005786D01*
Y005686D02*
Y005776D01*
X006415Y006156D02*
X006525D01*
X006405Y006146D02*
X006415Y006156D01*
X006405Y006144D02*
Y006146D01*
X005766Y005066D02*
X005866Y005166D01*
X005523Y005066D02*
X005526Y005063D01*
X007660Y006219D02*
X007661D01*
X007670Y006211D01*
X007549Y006219D02*
X007660D01*
X007463Y006133D02*
X007549Y006219D01*
X007463Y006007D02*
Y006133D01*
X007343Y005887D02*
X007463Y006007D01*
X006885Y005957D02*
X006949D01*
X007019Y005887D02*
X007343D01*
X006949Y005957D02*
X007019Y005887D01*
X007554Y006338D02*
X007670D01*
X007533Y006317D02*
X007554Y006338D01*
X007533Y006263D02*
Y006317D01*
X007423Y006153D02*
X007533Y006263D01*
X007423Y006027D02*
Y006153D01*
X007323Y005927D02*
X007423Y006027D01*
X006885Y006036D02*
X006927D01*
X007036Y005927D02*
X007323D01*
X006927Y006036D02*
X007036Y005927D01*
X007543Y006474D02*
X007660D01*
X007493Y006423D02*
X007543Y006474D01*
X007493Y006282D02*
Y006423D01*
X007383Y006172D02*
X007493Y006282D01*
X007383Y006045D02*
Y006172D01*
X007303Y005965D02*
X007383Y006045D01*
X007053Y005965D02*
X007303D01*
X006925Y006115D02*
X006963Y006077D01*
Y006055D02*
Y006077D01*
X006913Y006115D02*
X006925D01*
X006963Y006055D02*
X007053Y005965D01*
X007544Y006600D02*
X007660D01*
X007453Y006510D02*
X007544Y006600D01*
X007453Y006297D02*
Y006510D01*
X007343Y006187D02*
X007453Y006297D01*
X007343Y006065D02*
Y006187D01*
X007283Y006005D02*
X007343Y006065D01*
X007073Y006005D02*
X007283D01*
X006957Y006195D02*
X007003Y006149D01*
Y006075D02*
Y006149D01*
X006913Y006195D02*
X006957D01*
X007003Y006075D02*
X007073Y006005D01*
X007535Y006665D02*
X007807D01*
X007415Y006545D02*
X007535Y006665D01*
X007807D02*
X007835Y006637D01*
X007377Y006545D02*
X007415D01*
X007355Y006285D02*
Y006285D01*
X007835Y006219D02*
Y006637D01*
X007315Y006483D02*
X007377Y006545D01*
X007315Y006325D02*
X007355Y006285D01*
X007315Y006325D02*
Y006483D01*
X007028Y006758D02*
X007096D01*
X006985Y006715D02*
X007028Y006758D01*
X006885Y006715D02*
X006985D01*
X007098Y006625D02*
Y006756D01*
X007173Y006835D02*
X007200Y006808D01*
Y006625D02*
Y006808D01*
X006993Y006795D02*
X007033Y006835D01*
X007173D01*
X006966Y006795D02*
X006993D01*
X007325Y006575D02*
Y006585D01*
X007275Y006525D02*
X007325Y006575D01*
X007303Y006085D02*
Y006237D01*
X007263Y006045D02*
X007303Y006085D01*
X007275Y006265D02*
Y006525D01*
Y006265D02*
X007303Y006237D01*
X007149Y006069D02*
X007173Y006045D01*
X007263D01*
X007149Y006069D02*
Y006143D01*
X007235Y006245D02*
Y006310D01*
Y006245D02*
X007251Y006229D01*
X007200Y006345D02*
X007235Y006310D01*
X007251Y006143D02*
Y006229D01*
X007200Y006143D02*
Y006345D01*
X007163D02*
X007200D01*
X007149Y006359D02*
Y006625D01*
X007200Y006143D02*
X007200Y006143D01*
X007149Y006359D02*
X007163Y006345D01*
X007283Y006725D02*
X007333D01*
X007251Y006693D02*
X007283Y006725D01*
X007251Y006625D02*
Y006693D01*
X007047Y006625D02*
X007047Y006625D01*
X006983Y006625D02*
X007047D01*
X007098Y006143D02*
Y006240D01*
X006953Y006385D02*
X007098Y006240D01*
X008993Y010740D02*
X009010D01*
X007660Y011410D02*
X007661D01*
X007670Y011401D01*
X007549Y011410D02*
X007660D01*
X007463Y011323D02*
X007549Y011410D01*
X007463Y011197D02*
Y011323D01*
X007343Y011077D02*
X007463Y011197D01*
X006885Y011147D02*
X006949D01*
X007019Y011077D02*
X007343D01*
X006949Y011147D02*
X007019Y011077D01*
X007554Y011528D02*
X007670D01*
X007533Y011507D02*
X007554Y011528D01*
X007533Y011453D02*
Y011507D01*
X007423Y011343D02*
X007533Y011453D01*
X007423Y011217D02*
Y011343D01*
X007323Y011117D02*
X007423Y011217D01*
X006885Y011226D02*
X006927D01*
X007036Y011117D02*
X007323D01*
X006927Y011226D02*
X007036Y011117D01*
X007543Y011664D02*
X007660D01*
X007493Y011613D02*
X007543Y011664D01*
X007493Y011472D02*
Y011613D01*
X007383Y011362D02*
X007493Y011472D01*
X007383Y011235D02*
Y011362D01*
X007303Y011155D02*
X007383Y011235D01*
X007053Y011155D02*
X007303D01*
X006925Y011305D02*
X006963Y011267D01*
Y011245D02*
Y011267D01*
X006913Y011305D02*
X006925D01*
X006963Y011245D02*
X007053Y011155D01*
X007544Y011790D02*
X007660D01*
X007453Y011700D02*
X007544Y011790D01*
X007453Y011487D02*
Y011700D01*
X007343Y011377D02*
X007453Y011487D01*
X007343Y011255D02*
Y011377D01*
X007283Y011195D02*
X007343Y011255D01*
X007073Y011195D02*
X007283D01*
X006957Y011385D02*
X007003Y011339D01*
Y011265D02*
Y011339D01*
X006913Y011385D02*
X006957D01*
X007003Y011265D02*
X007073Y011195D01*
X007535Y011855D02*
X007807D01*
X007835Y011827D01*
X007377Y011735D02*
X007415D01*
X007355Y011475D02*
Y011475D01*
X007835Y011410D02*
Y011827D01*
X007315Y011673D02*
X007377Y011735D01*
X007315Y011515D02*
X007355Y011475D01*
X007315Y011515D02*
Y011673D01*
X007028Y011948D02*
X007096D01*
X006985Y011905D02*
X007028Y011948D01*
X006885Y011905D02*
X006985D01*
X007098Y011815D02*
Y011946D01*
X007173Y012025D02*
X007200Y011998D01*
Y011815D02*
Y011998D01*
X006993Y011985D02*
X007033Y012025D01*
X007173D01*
X006966Y011985D02*
X006993D01*
X007325Y011765D02*
Y011775D01*
X007275Y011715D02*
X007325Y011765D01*
X007303Y011275D02*
Y011427D01*
X007263Y011235D02*
X007303Y011275D01*
X007275Y011455D02*
Y011715D01*
Y011455D02*
X007303Y011427D01*
X007149Y011259D02*
X007173Y011235D01*
X007263D01*
X007149Y011259D02*
Y011333D01*
X007235Y011435D02*
Y011500D01*
Y011435D02*
X007251Y011419D01*
X007200Y011535D02*
X007235Y011500D01*
X007251Y011333D02*
Y011419D01*
X007200Y011333D02*
Y011535D01*
X007163D02*
X007200D01*
X007149Y011549D02*
Y011815D01*
X007200Y011333D02*
X007200Y011333D01*
X007149Y011549D02*
X007163Y011535D01*
X007283Y011915D02*
X007333D01*
X007251Y011883D02*
X007283Y011915D01*
X007251Y011815D02*
Y011883D01*
X007047Y011815D02*
X007047Y011815D01*
X006983Y011815D02*
X007047D01*
X007098Y011333D02*
Y011430D01*
X006953Y011575D02*
X007098Y011430D01*
X007660Y007950D02*
X007661D01*
X007670Y007941D01*
X007549Y007950D02*
X007660D01*
X007463Y007863D02*
X007549Y007950D01*
X007463Y007737D02*
Y007863D01*
X007343Y007617D02*
X007463Y007737D01*
X006885Y007687D02*
X006949D01*
X007019Y007617D02*
X007343D01*
X006949Y007687D02*
X007019Y007617D01*
X007554Y008068D02*
X007670D01*
X007533Y008047D02*
X007554Y008068D01*
X007533Y007993D02*
Y008047D01*
X007423Y007883D02*
X007533Y007993D01*
X007423Y007757D02*
Y007883D01*
X007323Y007657D02*
X007423Y007757D01*
X006885Y007766D02*
X006927D01*
X007036Y007657D02*
X007323D01*
X006927Y007766D02*
X007036Y007657D01*
X007543Y008204D02*
X007660D01*
X007493Y008153D02*
X007543Y008204D01*
X007493Y008012D02*
Y008153D01*
X007383Y007902D02*
X007493Y008012D01*
X007383Y007775D02*
Y007902D01*
X007303Y007695D02*
X007383Y007775D01*
X007053Y007695D02*
X007303D01*
X006925Y007845D02*
X006963Y007807D01*
Y007785D02*
Y007807D01*
X006913Y007845D02*
X006925D01*
X006963Y007785D02*
X007053Y007695D01*
X007544Y008331D02*
X007660D01*
X007453Y008240D02*
X007544Y008331D01*
X007453Y008027D02*
Y008240D01*
X007343Y007917D02*
X007453Y008027D01*
X007343Y007795D02*
Y007917D01*
X007283Y007735D02*
X007343Y007795D01*
X007073Y007735D02*
X007283D01*
X006957Y007925D02*
X007003Y007879D01*
Y007805D02*
Y007879D01*
X006913Y007925D02*
X006957D01*
X007003Y007805D02*
X007073Y007735D01*
X007535Y008395D02*
X007807D01*
X007835Y008367D01*
X007377Y008275D02*
X007415D01*
X007355Y008015D02*
Y008015D01*
X007835Y007950D02*
Y008367D01*
X007315Y008213D02*
X007377Y008275D01*
X007315Y008055D02*
X007355Y008015D01*
X007315Y008055D02*
Y008213D01*
X007028Y008488D02*
X007096D01*
X006985Y008445D02*
X007028Y008488D01*
X006885Y008445D02*
X006985D01*
X007098Y008355D02*
Y008486D01*
X007173Y008565D02*
X007200Y008538D01*
Y008355D02*
Y008538D01*
X006993Y008525D02*
X007033Y008565D01*
X007173D01*
X006966Y008525D02*
X006993D01*
X007325Y008305D02*
Y008315D01*
X007275Y008255D02*
X007325Y008305D01*
X007303Y007815D02*
Y007967D01*
X007263Y007775D02*
X007303Y007815D01*
X007275Y007995D02*
Y008255D01*
Y007995D02*
X007303Y007967D01*
X007149Y007799D02*
X007173Y007775D01*
X007263D01*
X007149Y007799D02*
Y007873D01*
X007235Y007975D02*
Y008040D01*
Y007975D02*
X007251Y007959D01*
X007200Y008075D02*
X007235Y008040D01*
X007251Y007873D02*
Y007959D01*
X007200Y007873D02*
Y008075D01*
X007163D02*
X007200D01*
X007149Y008089D02*
Y008355D01*
X007200Y007873D02*
X007200Y007873D01*
X007149Y008089D02*
X007163Y008075D01*
X007283Y008455D02*
X007333D01*
X007251Y008423D02*
X007283Y008455D01*
X007251Y008355D02*
Y008423D01*
X007047Y008355D02*
X007047Y008355D01*
X006983Y008355D02*
X007047D01*
X007098Y007873D02*
Y007970D01*
X006953Y008115D02*
X007098Y007970D01*
X006966Y010255D02*
X006993D01*
X006885Y010175D02*
X006985D01*
X006993Y010255D02*
X007033Y010295D01*
X007173D01*
X007028Y010218D02*
X007096D01*
X006985Y010175D02*
X007028Y010218D01*
X007660Y009679D02*
X007661D01*
X007670Y009671D01*
X007549Y009679D02*
X007660D01*
X007463Y009593D02*
X007549Y009679D01*
X007463Y009467D02*
Y009593D01*
X007343Y009347D02*
X007463Y009467D01*
X006885Y009417D02*
X006949D01*
X007019Y009347D02*
X007343D01*
X006949Y009417D02*
X007019Y009347D01*
X007554Y009798D02*
X007670D01*
X007533Y009777D02*
X007554Y009798D01*
X007533Y009723D02*
Y009777D01*
X007423Y009613D02*
X007533Y009723D01*
X007423Y009487D02*
Y009613D01*
X007323Y009387D02*
X007423Y009487D01*
X006885Y009496D02*
X006927D01*
X007036Y009387D02*
X007323D01*
X006927Y009496D02*
X007036Y009387D01*
X007543Y009933D02*
X007660D01*
X007493Y009883D02*
X007543Y009933D01*
X007493Y009742D02*
Y009883D01*
X007383Y009632D02*
X007493Y009742D01*
X007383Y009505D02*
Y009632D01*
X007303Y009425D02*
X007383Y009505D01*
X006925Y009575D02*
X006963Y009537D01*
X006913Y009575D02*
X006925D01*
X006963Y009515D02*
X007053Y009425D01*
X007303D01*
X006963Y009515D02*
Y009537D01*
X007544Y010061D02*
X007660D01*
X007453Y009970D02*
X007544Y010061D01*
X007453Y009757D02*
Y009970D01*
X007343Y009647D02*
X007453Y009757D01*
X007343Y009525D02*
Y009647D01*
X007283Y009465D02*
X007343Y009525D01*
X007073Y009465D02*
X007283D01*
X006957Y009655D02*
X007003Y009609D01*
Y009535D02*
Y009609D01*
X006913Y009655D02*
X006957D01*
X007003Y009535D02*
X007073Y009465D01*
X007535Y010125D02*
X007807D01*
X007415Y010005D02*
X007535Y010125D01*
X007807D02*
X007835Y010097D01*
X007377Y010005D02*
X007415D01*
X007355Y009745D02*
Y009745D01*
X007835Y009679D02*
Y010097D01*
X007315Y009943D02*
X007377Y010005D01*
X007315Y009785D02*
X007355Y009745D01*
X007315Y009785D02*
Y009943D01*
X007098Y010086D02*
Y010216D01*
X007173Y010295D02*
X007200Y010268D01*
Y010086D02*
Y010268D01*
X007325Y010035D02*
Y010045D01*
X007275Y009985D02*
X007325Y010035D01*
X007303Y009545D02*
Y009697D01*
X007263Y009505D02*
X007303Y009545D01*
X007275Y009725D02*
Y009985D01*
Y009725D02*
X007303Y009697D01*
X007149Y009529D02*
X007173Y009505D01*
X007263D01*
X007149Y009529D02*
Y009603D01*
X007235Y009705D02*
Y009770D01*
Y009705D02*
X007251Y009689D01*
X007200Y009805D02*
X007235Y009770D01*
X007251Y009603D02*
Y009689D01*
X007200Y009603D02*
Y009805D01*
X007163D02*
X007200D01*
X007149Y009819D02*
Y010086D01*
X007200Y009603D02*
X007200Y009603D01*
X007149Y009819D02*
X007163Y009805D01*
X007283Y010185D02*
X007333D01*
X007251Y010153D02*
X007283Y010185D01*
X007251Y010086D02*
Y010153D01*
X007047Y010085D02*
X007047Y010086D01*
X006983Y010085D02*
X007047D01*
X007098Y009603D02*
Y009700D01*
X006953Y009845D02*
X007098Y009700D01*
D21*
X008864Y011808D02*
X008903Y011847D01*
X008864Y011807D02*
Y011808D01*
X008828Y011771D02*
X008864Y011807D01*
X008777Y011771D02*
X008828D01*
X008757Y011790D02*
X008777Y011771D01*
X008593Y011790D02*
X008757D01*
X008803Y011832D02*
Y011932D01*
X008805Y011935D01*
X008864Y010078D02*
X008903Y010117D01*
X008864Y010077D02*
Y010078D01*
X008828Y010040D02*
X008864Y010077D01*
X008777Y010040D02*
X008828D01*
X008757Y010061D02*
X008777Y010040D01*
X008593Y010061D02*
X008757D01*
X008803Y010103D02*
Y010203D01*
X008805Y010205D01*
X008860Y008343D02*
X008903Y008387D01*
X008860Y008342D02*
Y008343D01*
X008823Y008306D02*
X008860Y008342D01*
X008772Y008306D02*
X008823D01*
X008747Y008331D02*
X008772Y008306D01*
X008593Y008331D02*
X008747D01*
X008797Y008368D02*
Y008468D01*
X008805Y008475D01*
X008846Y006600D02*
X008847D01*
X008831Y006586D02*
X008846Y006600D01*
X008779Y006586D02*
X008831D01*
X008764Y006600D02*
X008779Y006586D01*
X008593Y006600D02*
X008764D01*
X008805Y006647D02*
Y006745D01*
X008847Y006600D02*
X008903Y006657D01*
X007425Y006645D02*
Y006717D01*
X007453Y006745D01*
X007425Y011835D02*
Y011907D01*
X007453Y011935D01*
X007430Y010107D02*
Y010182D01*
X007453Y010205D01*
X007435Y008378D02*
Y008457D01*
X007453Y008475D01*
X007363Y005483D02*
X007597D01*
X007180Y005445D02*
X007325D01*
X007367Y005613D02*
X007600D01*
X007265Y005655D02*
X007325D01*
X006885Y005350D02*
X006906D01*
X010499Y007117D02*
X010595Y007212D01*
X010499Y006975D02*
Y007117D01*
X010595Y007212D02*
Y007285D01*
X012555Y007056D02*
X012735D01*
X012805Y005017D02*
Y005326D01*
X008767Y011005D02*
X008835D01*
X008747Y012085D02*
X008965D01*
X008650Y010930D02*
X008692D01*
X008745Y010464D02*
X008830D01*
X008747Y010355D02*
X008965D01*
X005303Y012434D02*
X005488D01*
X005303Y010934D02*
X005488D01*
X005303Y009434D02*
X005488D01*
X008767Y009275D02*
X008835D01*
X008747Y008625D02*
X008965D01*
X008745Y008734D02*
X008830D01*
X008767Y007545D02*
X008835D01*
X008762Y005815D02*
X008835D01*
X008745Y007004D02*
X008830D01*
X008747Y006895D02*
X008965D01*
X008745Y005274D02*
X008830D01*
X008650Y009200D02*
X008692D01*
X005303Y007934D02*
X005488D01*
X008650Y007470D02*
X008692D01*
X005303Y006434D02*
X005488D01*
X008650Y005740D02*
X008687D01*
X005158Y012218D02*
X005205Y012265D01*
X009755Y005740D02*
X009920D01*
X010633Y007323D02*
Y007415D01*
X010595Y007285D02*
X010633Y007323D01*
X010875Y012265D02*
Y012345D01*
X010860Y012360D02*
X010875Y012345D01*
X010860Y012360D02*
Y012450D01*
X010635Y011665D02*
Y011855D01*
X010875Y012265D02*
X010875Y012265D01*
X010845Y012465D02*
X010860Y012450D01*
X010742Y012265D02*
X010875D01*
X010720Y007293D02*
X010735Y007308D01*
X010720Y007285D02*
Y007293D01*
X010735Y007308D02*
Y007415D01*
X012965Y009253D02*
Y009373D01*
Y009803D02*
Y009923D01*
Y010350D02*
Y010470D01*
Y010894D02*
Y011014D01*
X011007Y005915D02*
Y006060D01*
Y005837D02*
Y005915D01*
X009535Y007272D02*
Y007285D01*
X009525Y007262D02*
X009535Y007272D01*
X009872Y006990D02*
Y007165D01*
X009410Y007194D02*
X009491Y007113D01*
Y006990D02*
Y007113D01*
X009525Y007262D02*
X009594Y007194D01*
X007303Y005203D02*
X009605D01*
X007035Y004935D02*
X007303Y005203D01*
X005740Y004935D02*
X007035D01*
X005835Y004465D02*
Y004799D01*
X007335Y005155D02*
X009644D01*
X007065Y004885D02*
X007335Y005155D01*
X005921Y004885D02*
X007065D01*
X007365Y005105D02*
X009685D01*
X007095Y004835D02*
X007365Y005105D01*
X006105Y004835D02*
X007095D01*
X007473Y005005D02*
X009765D01*
X007235Y004767D02*
X007473Y005005D01*
X007235Y004665D02*
Y004767D01*
X007505Y004955D02*
X009800D01*
X007435Y004885D02*
X007505Y004955D01*
X007435Y004665D02*
Y004885D01*
X012805Y005017D02*
X012807Y005015D01*
X007663Y006077D02*
X007670Y006084D01*
X007653Y006087D02*
X007663Y006077D01*
X007525Y006038D02*
X007574Y006087D01*
X007500Y005740D02*
X007600D01*
X007663Y007807D02*
X007670Y007814D01*
X007653Y007817D02*
X007663Y007807D01*
X007525Y007768D02*
X007574Y007817D01*
X007500Y007470D02*
X007600D01*
X007363Y007213D02*
X007597D01*
X007180Y007175D02*
X007325D01*
X007265Y007385D02*
X007325D01*
X007367Y007343D02*
X007600D01*
X006885Y007080D02*
X006906D01*
X010685Y005135D02*
Y005265D01*
X010795Y005135D02*
Y005265D01*
X010655Y004995D02*
X010795Y005135D01*
X010594Y005045D02*
X010685Y005135D01*
X009805Y005045D02*
X010594D01*
X009800Y004955D02*
X009840Y004995D01*
X010655D01*
X009765Y005005D02*
X009805Y005045D01*
X007435Y004465D02*
Y004665D01*
X007235Y004465D02*
Y004665D01*
X006235Y004465D02*
Y004715D01*
X010535Y005095D02*
X010622Y005182D01*
X009762Y005095D02*
X010535D01*
X009722Y005055D02*
X009762Y005095D01*
X007385Y005055D02*
X009722D01*
X010011Y005145D02*
X010135Y005269D01*
X009725Y005145D02*
X010011D01*
X009685Y005105D02*
X009725Y005145D01*
X009973Y005203D02*
X010035Y005265D01*
X009692Y005203D02*
X009973D01*
X009644Y005155D02*
X009692Y005203D01*
X007115Y004785D02*
X007385Y005055D01*
X009605Y005203D02*
X009667Y005265D01*
X009935D01*
X009745Y006155D02*
Y006355D01*
X009615Y006352D02*
X009618Y006355D01*
X009615Y006155D02*
Y006352D01*
X010135Y005670D02*
X010190Y005725D01*
X010135Y005269D02*
Y005670D01*
X009440Y005725D02*
X009575Y005590D01*
Y005269D02*
Y005590D01*
X009491Y006069D02*
Y006131D01*
Y006069D02*
X009522Y006038D01*
X009603D01*
X009491Y006131D02*
Y006355D01*
X009755Y006038D02*
X009809D01*
X009872Y006101D01*
Y006155D01*
Y006355D01*
X010622Y005182D02*
Y005735D01*
X006035Y004665D02*
Y004765D01*
Y004465D02*
Y004665D01*
X005635Y004830D02*
X005740Y004935D01*
X005635Y004465D02*
Y004665D01*
Y004830D01*
X006035Y004765D02*
X006105Y004835D01*
X005835Y004799D02*
X005921Y004885D01*
X006235Y004715D02*
X006305Y004785D01*
X007115D01*
X011105Y005705D02*
Y005735D01*
X011085Y005685D02*
X011105Y005705D01*
X011007Y005685D02*
X011085D01*
X009633Y007194D02*
X009745Y007082D01*
X009594Y007194D02*
X009633D01*
X009745Y006990D02*
Y007082D01*
X009410Y007281D02*
X009618Y007073D01*
Y006990D02*
Y007073D01*
X010245Y005956D02*
Y006060D01*
X010160Y005871D02*
X010245Y005956D01*
X010070Y005871D02*
X010118Y005919D01*
Y006060D01*
X010753Y005906D02*
Y006060D01*
Y005837D02*
Y005906D01*
X010497Y005735D02*
X010622D01*
X010495Y005733D02*
X010497Y005735D01*
X010492D02*
X010495Y005733D01*
X010753Y005585D02*
Y005685D01*
X009450Y005735D02*
X009603D01*
X009440Y005725D02*
X009450Y005735D01*
X010328D02*
X010340D01*
X010200D02*
X010328D01*
X010190Y005725D02*
X010200Y005735D01*
X010880Y005837D02*
Y006060D01*
X010753Y006975D02*
Y007202D01*
X010720Y007235D02*
X010753Y007202D01*
X010720Y007235D02*
Y007285D01*
X011007Y007121D02*
X011050Y007165D01*
X011007Y006975D02*
Y007121D01*
X010880Y006975D02*
Y007165D01*
X010310D02*
X010372Y007103D01*
Y006975D02*
Y007103D01*
X010245Y006975D02*
Y007115D01*
X010195Y007165D02*
X010245Y007115D01*
X009872Y007165D02*
X010195D01*
X010010Y007035D02*
X010058D01*
X010118Y006975D01*
X012465Y007655D02*
Y007755D01*
X012475Y007765D01*
X012735Y006325D02*
X012835D01*
X012735Y006125D02*
X012835D01*
X011374Y006325D02*
X011455D01*
X011374Y006125D02*
X011455D01*
Y006325D02*
X011475D01*
X011455Y006125D02*
X011475D01*
X011365Y006475D02*
Y006675D01*
Y006475D02*
X011419Y006421D01*
X011460Y006929D02*
X011640D01*
X011460Y007056D02*
X011640D01*
X011455Y006675D02*
X011640D01*
X011419Y006421D02*
X011640D01*
X011462Y006548D02*
X011640D01*
X011475Y006325D02*
X011506Y006294D01*
X011640D01*
X011475Y006125D02*
X011517Y006167D01*
X011640D01*
X012725Y006125D02*
X012735D01*
X012805Y008315D02*
Y008385D01*
Y008231D02*
Y008315D01*
Y005565D02*
Y005635D01*
Y005481D02*
Y005565D01*
X012683Y006167D02*
X012725Y006125D01*
X012555Y006167D02*
X012683D01*
X012704Y006294D02*
X012735Y006325D01*
X012555Y006294D02*
X012704D01*
X012555Y006802D02*
X012735D01*
X012555Y006929D02*
X012735D01*
X012805Y005326D02*
Y005481D01*
X012803Y005015D02*
X012807D01*
X012653Y004865D02*
X012803Y005015D01*
X012605Y004865D02*
X012653D01*
X012515Y004905D02*
X012515Y004905D01*
X012565D02*
X012605Y004865D01*
X012515Y004905D02*
X012565D01*
X012805Y008076D02*
Y008231D01*
X012803Y007765D02*
X012807D01*
X012653Y007615D02*
X012803Y007765D01*
X012515Y007655D02*
X012515Y007655D01*
X012565D01*
X012605Y007615D01*
X012653D01*
X005415Y010320D02*
X005487Y010392D01*
X005373Y010320D02*
X005415D01*
X007265Y010845D02*
X007325D01*
X007367Y010803D02*
X007600D01*
X006885Y010540D02*
X006906D01*
X007363Y010673D02*
X007597D01*
X007180Y010635D02*
X007325D01*
X007663Y011267D02*
X007670Y011274D01*
X007653Y011277D02*
X007663Y011267D01*
X007525Y011228D02*
X007574Y011277D01*
X007500Y010930D02*
X007600D01*
X007663Y009537D02*
X007670Y009544D01*
X007653Y009547D02*
X007663Y009537D01*
X007525Y009498D02*
X007574Y009547D01*
X007500Y009200D02*
X007600D01*
X007265Y009115D02*
X007325D01*
X007367Y009073D02*
X007600D01*
X006885Y008810D02*
X006906D01*
X007363Y008943D02*
X007597D01*
X007180Y008905D02*
X007325D01*
X005065Y004885D02*
X005098Y004918D01*
X005158Y004912D02*
X005185Y004885D01*
X005158Y010701D02*
Y011070D01*
Y009201D02*
Y009570D01*
Y007701D02*
Y008070D01*
Y006201D02*
Y006570D01*
X005265Y005892D02*
X005337Y005820D01*
X005373D01*
X006579Y006555D02*
X006585D01*
X006578Y006553D02*
X006579Y006555D01*
X006556Y009599D02*
X006586Y009569D01*
X006233Y012166D02*
X006253Y012146D01*
X006228Y012161D02*
X006233Y012166D01*
X006153Y012161D02*
X006228D01*
X006075D02*
X006153D01*
X006070Y012166D02*
X006075Y012161D01*
X006235Y011546D02*
X006253Y011529D01*
X006232Y011543D02*
X006235Y011546D01*
X006153Y011543D02*
X006232D01*
X006070D02*
X006153D01*
X006153Y011686D02*
X006250D01*
X006071D02*
X006153D01*
X006543Y011089D02*
X006578Y011053D01*
X006578D01*
X006210Y011036D02*
X006240Y011066D01*
X006148Y011036D02*
X006210D01*
X006097D02*
X006148D01*
X006071Y011063D02*
X006097Y011036D01*
X005108Y011551D02*
Y011631D01*
X005088Y011531D02*
X005108Y011551D01*
X005405Y011390D02*
Y011633D01*
X005246Y011231D02*
X005405Y011390D01*
X005322Y011716D02*
X005405Y011633D01*
X005173Y011716D02*
X005322D01*
X005098Y011084D02*
X005246Y011231D01*
X005098Y011791D02*
X005173Y011716D01*
X005098Y010993D02*
Y011084D01*
X005098Y011963D02*
Y012201D01*
Y011791D02*
Y011892D01*
Y011961D01*
X005356Y011763D02*
X005458Y011661D01*
Y011370D02*
Y011661D01*
X005220Y011763D02*
X005356D01*
X005158Y011070D02*
X005458Y011370D01*
X005158Y011825D02*
X005220Y011763D01*
X005158Y011963D02*
Y012218D01*
Y011825D02*
Y011963D01*
X006228Y009161D02*
X006233Y009166D01*
X006253Y009146D01*
X006153Y009161D02*
X006228D01*
X006075D02*
X006153D01*
X006070Y009166D02*
X006075Y009161D01*
X006235Y008546D02*
X006253Y008529D01*
X006232Y008543D02*
X006235Y008546D01*
X006153Y008543D02*
X006232D01*
X006070D02*
X006153D01*
X006153Y008686D02*
X006250D01*
X006071D02*
X006153D01*
X006543Y008089D02*
X006578Y008053D01*
X006578D01*
X006210Y008036D02*
X006240Y008066D01*
X006148Y008036D02*
X006210D01*
X006097D02*
X006148D01*
X006071Y008063D02*
X006097Y008036D01*
X005108Y008551D02*
Y008631D01*
X005088Y008531D02*
X005108Y008551D01*
X005405Y008390D02*
Y008633D01*
X005246Y008231D02*
X005405Y008390D01*
X005322Y008716D02*
X005405Y008633D01*
X005173Y008716D02*
X005322D01*
X005098Y008084D02*
X005246Y008231D01*
X005098Y008791D02*
X005173Y008716D01*
X005098Y007993D02*
Y008084D01*
X005098Y009201D02*
Y009492D01*
Y008963D02*
Y009201D01*
Y008791D02*
Y008892D01*
Y008961D01*
X005356Y008763D02*
X005458Y008661D01*
Y008370D02*
Y008661D01*
X005220Y008763D02*
X005356D01*
X005158Y008825D02*
X005220Y008763D01*
X005158Y008070D02*
X005458Y008370D01*
X005158Y008963D02*
Y009201D01*
Y008825D02*
Y008963D01*
X006228Y010661D02*
X006233Y010666D01*
X006253Y010646D01*
X006153Y010661D02*
X006228D01*
X006075D02*
X006153D01*
X006070Y010666D02*
X006075Y010661D01*
X006235Y010046D02*
X006253Y010029D01*
X006232Y010043D02*
X006235Y010046D01*
X006153Y010043D02*
X006232D01*
X006070D02*
X006153D01*
X006153Y010186D02*
X006250D01*
X006071D02*
X006153D01*
X006210Y009536D02*
X006240Y009566D01*
X006148Y009536D02*
X006210D01*
X006097D02*
X006148D01*
X006071Y009563D02*
X006097Y009536D01*
X005108Y010051D02*
Y010131D01*
X005088Y010031D02*
X005108Y010051D01*
X005405Y009890D02*
Y010133D01*
X005246Y009731D02*
X005405Y009890D01*
X005322Y010216D02*
X005405Y010133D01*
X005173Y010216D02*
X005322D01*
X005098Y009584D02*
X005246Y009731D01*
X005098Y010291D02*
X005173Y010216D01*
X005098Y009493D02*
Y009584D01*
X005098Y010701D02*
Y010992D01*
Y010463D02*
Y010701D01*
Y010291D02*
Y010392D01*
Y010461D01*
X005356Y010263D02*
X005458Y010161D01*
Y009870D02*
Y010161D01*
X005220Y010263D02*
X005356D01*
X005158Y010325D02*
X005220Y010263D01*
X005158Y009570D02*
X005458Y009870D01*
X005158Y010463D02*
Y010701D01*
Y010325D02*
Y010463D01*
X006228Y007661D02*
X006233Y007666D01*
X006253Y007646D01*
X006153Y007661D02*
X006228D01*
X006075D02*
X006153D01*
X006070Y007666D02*
X006075Y007661D01*
X006235Y007046D02*
X006253Y007029D01*
X006232Y007043D02*
X006235Y007046D01*
X006153Y007043D02*
X006232D01*
X006070D02*
X006153D01*
X006153Y007186D02*
X006250D01*
X006071D02*
X006153D01*
X006543Y006589D02*
X006578Y006553D01*
X006210Y006536D02*
X006240Y006566D01*
X006148Y006536D02*
X006210D01*
X006097D02*
X006148D01*
X006071Y006563D02*
X006097Y006536D01*
X005108Y007051D02*
Y007131D01*
X005088Y007031D02*
X005108Y007051D01*
X005405Y006890D02*
Y007133D01*
X005246Y006731D02*
X005405Y006890D01*
X005322Y007216D02*
X005405Y007133D01*
X005173Y007216D02*
X005322D01*
X005098Y006584D02*
X005246Y006731D01*
X005098Y007291D02*
X005173Y007216D01*
X005098Y006493D02*
Y006584D01*
X005098Y007701D02*
Y007992D01*
Y007463D02*
Y007701D01*
Y007291D02*
Y007392D01*
Y007461D01*
X005356Y007263D02*
X005458Y007161D01*
Y006870D02*
Y007161D01*
X005220Y007263D02*
X005356D01*
X005158Y007325D02*
X005220Y007263D01*
X005158Y006570D02*
X005458Y006870D01*
X005158Y007463D02*
Y007701D01*
Y007325D02*
Y007463D01*
X007573Y011147D02*
X007670D01*
X007595Y010544D02*
X007600Y010549D01*
X007573Y009417D02*
X007670D01*
X007595Y008814D02*
X007600Y008819D01*
X007573Y007687D02*
X007670D01*
X007595Y007084D02*
X007600Y007089D01*
X007573Y005957D02*
X007670D01*
X007595Y005354D02*
X007600Y005359D01*
X008835Y005279D02*
Y005305D01*
X008830Y005274D02*
X008835Y005279D01*
X008687Y005740D02*
X008762Y005815D01*
X006578Y005053D02*
X006578D01*
X006543Y005089D02*
X006578Y005053D01*
X005098Y005892D02*
Y005961D01*
Y005791D02*
Y005892D01*
X005158Y005963D02*
Y006201D01*
Y005825D02*
Y005963D01*
X005458Y005370D02*
Y005661D01*
X005356Y005763D02*
X005458Y005661D01*
X005220Y005763D02*
X005356D01*
X005158Y005825D02*
X005220Y005763D01*
X005322Y005716D02*
X005405Y005633D01*
X005173Y005716D02*
X005322D01*
X005098Y005791D02*
X005173Y005716D01*
X005158Y005070D02*
X005458Y005370D01*
X005158Y004912D02*
Y005070D01*
X005098Y005084D02*
X005246Y005231D01*
X005098Y004918D02*
Y005084D01*
X005405Y005390D02*
Y005633D01*
X005246Y005231D02*
X005405Y005390D01*
X006148Y005036D02*
X006210D01*
X006097D02*
X006148D01*
X006071Y005063D02*
X006097Y005036D01*
X006153Y006161D02*
X006228D01*
X006233Y006166D01*
X006075Y006161D02*
X006153D01*
X006070Y006166D02*
X006075Y006161D01*
X008987Y011005D02*
Y011111D01*
X008987Y009275D02*
Y009381D01*
X008789Y011935D02*
X008805Y011919D01*
X008735Y011157D02*
X008745Y011147D01*
X008789Y010205D02*
X008805Y010189D01*
X008735Y009427D02*
X008745Y009417D01*
X008789Y008475D02*
X008805Y008459D01*
X008987Y007545D02*
Y007651D01*
X008735Y007697D02*
X008745Y007687D01*
X008789Y006745D02*
X008805Y006729D01*
X008735Y005967D02*
X008745Y005957D01*
X008987Y005815D02*
Y005921D01*
X006232Y005543D02*
X006235Y005546D01*
X005098Y006201D02*
Y006492D01*
Y005963D02*
Y006201D01*
X005108Y005551D02*
Y005631D01*
X005088Y005531D02*
X005108Y005551D01*
X006210Y005036D02*
X006240Y005066D01*
X006153Y005686D02*
X006250D01*
X006071D02*
X006153D01*
X006233Y006166D02*
X006253Y006146D01*
X006235Y005546D02*
X006253Y005529D01*
X006153Y005543D02*
X006232D01*
X006070D02*
X006153D01*
X008985Y005918D02*
X008987Y005921D01*
X008985Y005915D02*
Y005918D01*
X007183Y005735D02*
X007253Y005805D01*
X007143Y005735D02*
X007183D01*
X008805Y006745D02*
X008805Y006745D01*
X007018Y006910D02*
X007096D01*
X007003Y006895D02*
X007018Y006910D01*
X008650Y005356D02*
Y005359D01*
Y005274D02*
Y005356D01*
X007435Y005805D02*
X007500Y005740D01*
X007405Y005805D02*
X007435D01*
X007595Y005265D02*
Y005354D01*
X007563Y005967D02*
X007573Y005957D01*
X007507Y006745D02*
X007524Y006728D01*
X007660D01*
X007453Y006745D02*
X007507D01*
X007528Y006854D02*
X007660D01*
X007485Y006897D02*
X007528Y006854D01*
X007453Y006897D02*
X007485D01*
X008966Y006416D02*
X008993D01*
X008965Y006417D02*
X008966Y006416D01*
X008768Y006219D02*
X008965Y006417D01*
X008593Y006219D02*
X008768D01*
X008585Y006211D02*
X008593Y006219D01*
X008887Y006497D02*
X008993D01*
X008736Y006347D02*
X008887Y006497D01*
X008593Y006347D02*
X008736D01*
X008585Y006338D02*
X008593Y006347D01*
X008895Y006577D02*
X008993D01*
X008793Y006475D02*
X008895Y006577D01*
X008595Y006475D02*
X008793D01*
X008585Y006465D02*
X008595Y006475D01*
X008903Y006657D02*
X008993D01*
X008585Y006592D02*
X008593Y006600D01*
X008731Y006745D02*
X008789D01*
X008713Y006728D02*
X008731Y006745D01*
X008575Y006728D02*
X008713D01*
X008707Y006854D02*
X008747Y006895D01*
X008575Y006854D02*
X008707D01*
X008595Y005967D02*
X008735D01*
X008585Y005957D02*
X008595Y005967D01*
X008753Y006092D02*
X008755Y006094D01*
X008825Y005821D02*
Y005915D01*
X008823Y005819D02*
X008825Y005821D01*
X008575Y006092D02*
X008753D01*
X007523Y005967D02*
X007563D01*
X007574Y006087D02*
X007653D01*
X007450Y006895D02*
X007453Y006897D01*
X007363Y006895D02*
X007450D01*
X007525Y006038D02*
Y006047D01*
X007523Y006036D02*
X007525Y006038D01*
X007405Y005857D02*
X007443Y005895D01*
X007405Y005805D02*
Y005857D01*
X007325Y005655D02*
X007367Y005613D01*
X007233Y005645D02*
X007265D01*
X007183Y005595D02*
X007233Y005645D01*
X007183Y005523D02*
Y005595D01*
X007118Y005458D02*
X007183Y005523D01*
X006906Y005350D02*
X007013Y005458D01*
X007118D01*
X007325Y005445D02*
X007363Y005483D01*
X007139Y005404D02*
X007180Y005445D01*
X006905Y005275D02*
X007034Y005404D01*
X007139D01*
X006885Y005275D02*
X006905D01*
X007015Y005550D02*
X007095D01*
X008985Y011108D02*
X008987Y011111D01*
X008985Y011105D02*
Y011108D01*
X007183Y010925D02*
X007253Y010995D01*
X007143Y010925D02*
X007183D01*
X008805Y011935D02*
X008805Y011935D01*
X007018Y012100D02*
X007096D01*
X007003Y012085D02*
X007018Y012100D01*
X008692Y010930D02*
X008767Y011005D01*
X008650Y010546D02*
Y010549D01*
Y010464D02*
Y010546D01*
X007435Y010995D02*
X007500Y010930D01*
X007405Y010995D02*
X007435D01*
X007595Y010455D02*
Y010544D01*
X007563Y011157D02*
X007573Y011147D01*
X007507Y011935D02*
X007524Y011918D01*
X007453Y011935D02*
X007507D01*
X007524Y011918D02*
X007660D01*
X007528Y012044D02*
X007660D01*
X007485Y012087D02*
X007528Y012044D01*
X007453Y012087D02*
X007485D01*
X008966Y011606D02*
X008993D01*
X008965Y011607D02*
X008966Y011606D01*
X008768Y011410D02*
X008965Y011607D01*
X008593Y011410D02*
X008768D01*
X008585Y011401D02*
X008593Y011410D01*
X008887Y011687D02*
X008993D01*
X008736Y011536D02*
X008887Y011687D01*
X008593Y011536D02*
X008736D01*
X008585Y011528D02*
X008593Y011536D01*
X008895Y011767D02*
X008993D01*
X008793Y011665D02*
X008895Y011767D01*
X008595Y011665D02*
X008793D01*
X008585Y011655D02*
X008595Y011665D01*
X008903Y011847D02*
X008993D01*
X008585Y011782D02*
X008593Y011790D01*
X008713Y011918D02*
X008731Y011935D01*
X008789D01*
X008575Y011918D02*
X008713D01*
X008707Y012044D02*
X008747Y012085D01*
X008575Y012044D02*
X008707D01*
X008595Y011157D02*
X008735D01*
X008585Y011147D02*
X008595Y011157D01*
X008835Y010469D02*
Y010495D01*
X008753Y011282D02*
X008755Y011284D01*
X008830Y010464D02*
X008835Y010469D01*
X008825Y011011D02*
Y011105D01*
X008823Y011009D02*
X008825Y011011D01*
X008575Y011282D02*
X008753D01*
X007523Y011157D02*
X007563D01*
X007574Y011277D02*
X007653D01*
X007450Y012085D02*
X007453Y012087D01*
X007363Y012085D02*
X007450D01*
X007525Y011228D02*
Y011237D01*
X007523Y011226D02*
X007525Y011228D01*
X007405Y011047D02*
X007443Y011085D01*
X007405Y010995D02*
Y011047D01*
X007325Y010845D02*
X007367Y010803D01*
X007233Y010835D02*
X007265D01*
X007183Y010785D02*
X007233Y010835D01*
X007183Y010713D02*
Y010785D01*
X007118Y010648D02*
X007183Y010713D01*
X006906Y010540D02*
X007013Y010648D01*
X007118D01*
X007325Y010635D02*
X007363Y010673D01*
X007139Y010594D02*
X007180Y010635D01*
X006905Y010465D02*
X007034Y010594D01*
X007139D01*
X006885Y010465D02*
X006905D01*
X007015Y010740D02*
X007095D01*
X008985Y007648D02*
X008987Y007651D01*
X008985Y007645D02*
Y007648D01*
X007183Y007465D02*
X007253Y007535D01*
X007143Y007465D02*
X007183D01*
X008805Y008475D02*
X008805Y008475D01*
X007018Y008640D02*
X007096D01*
X007003Y008625D02*
X007018Y008640D01*
X008692Y007470D02*
X008767Y007545D01*
X008650Y007086D02*
Y007089D01*
Y007004D02*
Y007086D01*
X007435Y007535D02*
X007500Y007470D01*
X007405Y007535D02*
X007435D01*
X007595Y006995D02*
Y007084D01*
X007563Y007697D02*
X007573Y007687D01*
X007507Y008475D02*
X007524Y008457D01*
X007660D01*
X007453Y008475D02*
X007507D01*
X007528Y008585D02*
X007660D01*
X007485Y008627D02*
X007528Y008585D01*
X007453Y008627D02*
X007485D01*
X008966Y008146D02*
X008993D01*
X008965Y008147D02*
X008966Y008146D01*
X008768Y007950D02*
X008965Y008147D01*
X008593Y007950D02*
X008768D01*
X008585Y007941D02*
X008593Y007950D01*
X008887Y008227D02*
X008993D01*
X008736Y008076D02*
X008887Y008227D01*
X008593Y008076D02*
X008736D01*
X008585Y008068D02*
X008593Y008076D01*
X008895Y008307D02*
X008993D01*
X008793Y008205D02*
X008895Y008307D01*
X008595Y008205D02*
X008793D01*
X008585Y008195D02*
X008595Y008205D01*
X008903Y008387D02*
X008993D01*
X008585Y008322D02*
X008593Y008331D01*
X008731Y008475D02*
X008789D01*
X008713Y008457D02*
X008731Y008475D01*
X008575Y008457D02*
X008713D01*
X008707Y008585D02*
X008747Y008625D01*
X008575Y008585D02*
X008707D01*
X008595Y007697D02*
X008735D01*
X008585Y007687D02*
X008595Y007697D01*
X008835Y007009D02*
Y007035D01*
X008753Y007822D02*
X008755Y007824D01*
X008830Y007004D02*
X008835Y007009D01*
X008825Y007551D02*
Y007645D01*
X008823Y007549D02*
X008825Y007551D01*
X008575Y007822D02*
X008753D01*
X007523Y007697D02*
X007563D01*
X007574Y007817D02*
X007653D01*
X007450Y008625D02*
X007453Y008627D01*
X007363Y008625D02*
X007450D01*
X007525Y007768D02*
Y007777D01*
X007523Y007766D02*
X007525Y007768D01*
X007405Y007587D02*
X007443Y007625D01*
X007405Y007535D02*
Y007587D01*
X007325Y007385D02*
X007367Y007343D01*
X007233Y007375D02*
X007265D01*
X007183Y007325D02*
X007233Y007375D01*
X007183Y007253D02*
Y007325D01*
X007118Y007188D02*
X007183Y007253D01*
X006906Y007080D02*
X007013Y007188D01*
X007118D01*
X007325Y007175D02*
X007363Y007213D01*
X007139Y007134D02*
X007180Y007175D01*
X006905Y007005D02*
X007034Y007134D01*
X007139D01*
X006885Y007005D02*
X006905D01*
X007015Y007280D02*
X007095D01*
X007018Y010370D02*
X007096D01*
X007003Y010355D02*
X007018Y010370D01*
X008985Y009375D02*
Y009378D01*
X008987Y009381D01*
X007183Y009195D02*
X007253Y009265D01*
X007143Y009195D02*
X007183D01*
X007405Y009265D02*
X007435D01*
X008805Y010205D02*
X008805Y010205D01*
X008692Y009200D02*
X008767Y009275D01*
X008650Y008817D02*
Y008819D01*
Y008734D02*
Y008817D01*
X007435Y009265D02*
X007500Y009200D01*
X007595Y008725D02*
Y008814D01*
X007563Y009427D02*
X007573Y009417D01*
X007524Y010188D02*
X007660D01*
X007507Y010205D02*
X007524Y010188D01*
X007453Y010205D02*
X007507D01*
X007528Y010314D02*
X007660D01*
X007485Y010357D02*
X007528Y010314D01*
X007453Y010357D02*
X007485D01*
X008966Y009876D02*
X008993D01*
X008965Y009877D02*
X008966Y009876D01*
X008768Y009679D02*
X008965Y009877D01*
X008593Y009679D02*
X008768D01*
X008585Y009671D02*
X008593Y009679D01*
X008887Y009957D02*
X008993D01*
X008736Y009807D02*
X008887Y009957D01*
X008593Y009807D02*
X008736D01*
X008585Y009798D02*
X008593Y009807D01*
X008895Y010037D02*
X008993D01*
X008793Y009935D02*
X008895Y010037D01*
X008595Y009935D02*
X008793D01*
X008585Y009925D02*
X008595Y009935D01*
X008903Y010117D02*
X008993D01*
X008585Y010052D02*
X008593Y010061D01*
X008731Y010205D02*
X008789D01*
X008713Y010188D02*
X008731Y010205D01*
X008575Y010188D02*
X008713D01*
X008707Y010314D02*
X008747Y010355D01*
X008575Y010314D02*
X008707D01*
X008595Y009427D02*
X008735D01*
X008585Y009417D02*
X008595Y009427D01*
X008835Y008739D02*
Y008765D01*
X008830Y008734D02*
X008835Y008739D01*
X008825Y009281D02*
Y009375D01*
X008753Y009553D02*
X008755Y009554D01*
X008823Y009279D02*
X008825Y009281D01*
X008575Y009553D02*
X008753D01*
X007523Y009427D02*
X007563D01*
X007574Y009547D02*
X007653D01*
X007450Y010355D02*
X007453Y010357D01*
X007525Y009498D02*
Y009507D01*
X007523Y009496D02*
X007525Y009498D01*
X007405Y009317D02*
X007443Y009355D01*
X007363Y010355D02*
X007450D01*
X007405Y009265D02*
Y009317D01*
X007325Y009115D02*
X007367Y009073D01*
X007233Y009105D02*
X007265D01*
X007183Y008983D02*
Y009055D01*
X007233Y009105D01*
X007118Y008918D02*
X007183Y008983D01*
X006906Y008810D02*
X007013Y008918D01*
X007118D01*
X007325Y008905D02*
X007363Y008943D01*
X007139Y008864D02*
X007180Y008905D01*
X007034Y008864D02*
X007139D01*
X006905Y008735D02*
X007034Y008864D01*
X006885Y008735D02*
X006905D01*
X007015Y009010D02*
X007095D01*
D85*
X008803Y011832D02*
D03*
Y010103D02*
D03*
X008797Y008368D02*
D03*
X008805Y006647D02*
D03*
X007425Y006645D02*
D03*
Y011835D02*
D03*
X007430Y010107D02*
D03*
X007435Y008378D02*
D03*
X012205Y012810D02*
D03*
X012103D02*
D03*
X012003D02*
D03*
X012307D02*
D03*
X004647Y012815D02*
D03*
X004545D02*
D03*
X004445D02*
D03*
X004750D02*
D03*
X012200Y003670D02*
D03*
X012097D02*
D03*
X011997D02*
D03*
X012302D02*
D03*
X004872D02*
D03*
X004567D02*
D03*
X004667D02*
D03*
X004770D02*
D03*
X009025Y010600D02*
D03*
X008972Y010657D02*
D03*
X008965Y008932D02*
D03*
X009012Y008868D02*
D03*
X008993Y007293D02*
D03*
X009007Y007135D02*
D03*
X008970Y007203D02*
D03*
X008983Y005395D02*
D03*
X008993Y005472D02*
D03*
X008993Y005675D02*
D03*
X010455Y007165D02*
D03*
X009840Y007285D02*
D03*
X010582Y004445D02*
D03*
X012915Y011654D02*
D03*
Y011794D02*
D03*
Y011933D02*
D03*
X012224Y012625D02*
D03*
X012084D02*
D03*
X012915Y004826D02*
D03*
Y004686D02*
D03*
Y004547D02*
D03*
X012209Y003947D02*
D03*
X012069D02*
D03*
X011930D02*
D03*
X003627Y011672D02*
D03*
Y011475D02*
D03*
Y011279D02*
D03*
Y011082D02*
D03*
X004469Y012318D02*
D03*
X004272D02*
D03*
Y004289D02*
D03*
X004469D02*
D03*
X004666D02*
D03*
X004862D02*
D03*
X003627Y005525D02*
D03*
Y005328D02*
D03*
Y005132D02*
D03*
Y004935D02*
D03*
X012735Y007059D02*
D03*
X012128Y011605D02*
D03*
X011355Y008416D02*
D03*
X010595Y007285D02*
D03*
X009535D02*
D03*
X006885Y008285D02*
D03*
X009515Y004875D02*
D03*
X009655D02*
D03*
X009585D02*
D03*
X009655Y004255D02*
D03*
X009585D02*
D03*
X009515D02*
D03*
X009445D02*
D03*
Y004875D02*
D03*
X010685Y005265D02*
D03*
X009385Y005269D02*
D03*
X009485D02*
D03*
X010135Y005269D02*
D03*
X010035Y005265D02*
D03*
X009935D02*
D03*
X009575Y005269D02*
D03*
X010795Y005265D02*
D03*
X009720Y007285D02*
D03*
X009410D02*
D03*
X010622Y005735D02*
D03*
X009440Y005725D02*
D03*
X009920Y005740D02*
D03*
X010190Y005725D02*
D03*
X010720Y007285D02*
D03*
X010495D02*
D03*
X010368D02*
D03*
X011985Y006415D02*
D03*
Y006550D02*
D03*
Y006675D02*
D03*
Y006800D02*
D03*
X012735Y006325D02*
D03*
Y006125D02*
D03*
X011455Y006325D02*
D03*
Y006125D02*
D03*
X011365Y006675D02*
D03*
X011455Y006929D02*
D03*
Y007053D02*
D03*
Y006675D02*
D03*
Y006548D02*
D03*
X012735Y006805D02*
D03*
Y006929D02*
D03*
X011985Y007055D02*
D03*
Y006929D02*
D03*
X012255Y005666D02*
D03*
X012345D02*
D03*
X012175D02*
D03*
X011325Y005665D02*
D03*
X011515D02*
D03*
X011997Y005385D02*
D03*
X011705Y005665D02*
D03*
X011905D02*
D03*
X012015D02*
D03*
X012345Y008416D02*
D03*
X012260Y008415D02*
D03*
X012175Y008416D02*
D03*
X012015Y008415D02*
D03*
X011905D02*
D03*
X011997Y008135D02*
D03*
X011705Y008415D02*
D03*
X011515D02*
D03*
X004985Y011255D02*
D03*
X004935Y007184D02*
D03*
X006658Y012461D02*
D03*
Y012381D02*
D03*
Y012301D02*
D03*
X006403Y011786D02*
D03*
X006393Y011866D02*
D03*
X006658Y012131D02*
D03*
Y012221D02*
D03*
Y009461D02*
D03*
Y009381D02*
D03*
Y009301D02*
D03*
X006403Y008786D02*
D03*
X006393Y008866D02*
D03*
X006658Y009131D02*
D03*
Y009221D02*
D03*
Y010961D02*
D03*
Y010881D02*
D03*
Y010801D02*
D03*
X006403Y010286D02*
D03*
X006393Y010366D02*
D03*
X006658Y010631D02*
D03*
Y010721D02*
D03*
Y007961D02*
D03*
Y007881D02*
D03*
Y007801D02*
D03*
X006403Y007286D02*
D03*
X006393Y007366D02*
D03*
X006658Y007631D02*
D03*
Y007721D02*
D03*
X008745Y005274D02*
D03*
X007145Y005285D02*
D03*
X007493Y005265D02*
D03*
X006658Y006221D02*
D03*
Y006301D02*
D03*
Y006381D02*
D03*
Y006461D02*
D03*
Y006131D02*
D03*
X006393Y005866D02*
D03*
X006403Y005786D02*
D03*
X008985Y005915D02*
D03*
X007143Y005735D02*
D03*
X006885Y005865D02*
D03*
Y006535D02*
D03*
X006985Y006875D02*
D03*
X008993Y005550D02*
D03*
X008650Y005274D02*
D03*
X007595Y005265D02*
D03*
X008650Y005825D02*
D03*
X007600D02*
D03*
X006885Y005957D02*
D03*
Y006037D02*
D03*
Y006115D02*
D03*
Y006195D02*
D03*
X008993Y006416D02*
D03*
Y006497D02*
D03*
Y006577D02*
D03*
Y006657D02*
D03*
X008745Y005967D02*
D03*
X008825Y005915D02*
D03*
X008755Y006094D02*
D03*
X008993Y006035D02*
D03*
Y006115D02*
D03*
Y006195D02*
D03*
Y006275D02*
D03*
X007523Y005967D02*
D03*
X007835Y006219D02*
D03*
X007355Y006285D02*
D03*
X006885Y005625D02*
D03*
Y005705D02*
D03*
X006885Y005785D02*
D03*
X007525Y006047D02*
D03*
X007443Y005895D02*
D03*
X007363Y006895D02*
D03*
X007393Y006355D02*
D03*
X006966Y006795D02*
D03*
X007325Y006585D02*
D03*
X007333Y006725D02*
D03*
X006983Y006625D02*
D03*
X006953Y006385D02*
D03*
X007395Y006465D02*
D03*
X006930Y006288D02*
D03*
X006885Y005355D02*
D03*
Y005275D02*
D03*
X006885Y005445D02*
D03*
X006885Y005525D02*
D03*
X007095Y005550D02*
D03*
X008985Y011105D02*
D03*
X007143Y010925D02*
D03*
X007145Y010475D02*
D03*
X006885Y011055D02*
D03*
Y011725D02*
D03*
X006985Y012065D02*
D03*
X008993Y010740D02*
D03*
X008650Y010464D02*
D03*
X007595Y010455D02*
D03*
X008993Y010865D02*
D03*
X008650Y011015D02*
D03*
X007600D02*
D03*
X006885Y011147D02*
D03*
Y011227D02*
D03*
Y011305D02*
D03*
Y011385D02*
D03*
X008993Y011606D02*
D03*
Y011687D02*
D03*
Y011767D02*
D03*
Y011847D02*
D03*
X008745Y011157D02*
D03*
X008825Y011105D02*
D03*
X008755Y011284D02*
D03*
X008745Y010464D02*
D03*
X008993Y011225D02*
D03*
Y011305D02*
D03*
Y011385D02*
D03*
Y011465D02*
D03*
X007523Y011157D02*
D03*
X007835Y011410D02*
D03*
X007355Y011475D02*
D03*
X006885Y010815D02*
D03*
Y010895D02*
D03*
X006885Y010975D02*
D03*
X007525Y011237D02*
D03*
X007493Y010455D02*
D03*
X007443Y011085D02*
D03*
X007363Y012085D02*
D03*
X007393Y011545D02*
D03*
X006966Y011985D02*
D03*
X007325Y011775D02*
D03*
X007333Y011915D02*
D03*
X006983Y011815D02*
D03*
X006953Y011575D02*
D03*
X007395Y011655D02*
D03*
X006930Y011478D02*
D03*
X006885Y010545D02*
D03*
Y010465D02*
D03*
X006885Y010635D02*
D03*
X006885Y010715D02*
D03*
X007095Y010740D02*
D03*
X008985Y007645D02*
D03*
X007143Y007465D02*
D03*
X007145Y007015D02*
D03*
X006885Y007595D02*
D03*
X006985Y008605D02*
D03*
X008650Y007004D02*
D03*
X007595Y006995D02*
D03*
X008993Y007405D02*
D03*
X008650Y007555D02*
D03*
X007600D02*
D03*
X006885Y007687D02*
D03*
Y007767D02*
D03*
Y007845D02*
D03*
Y007925D02*
D03*
X008993Y008146D02*
D03*
Y008227D02*
D03*
Y008307D02*
D03*
Y008387D02*
D03*
X008745Y007697D02*
D03*
X008825Y007645D02*
D03*
X008755Y007824D02*
D03*
X008745Y007004D02*
D03*
X008993Y007765D02*
D03*
Y007845D02*
D03*
Y007925D02*
D03*
Y008005D02*
D03*
X007523Y007697D02*
D03*
X007835Y007950D02*
D03*
X007355Y008015D02*
D03*
X006885Y007355D02*
D03*
Y007435D02*
D03*
X006885Y007515D02*
D03*
X007525Y007777D02*
D03*
X007493Y006995D02*
D03*
X007443Y007625D02*
D03*
X007363Y008625D02*
D03*
X007393Y008085D02*
D03*
X006966Y008525D02*
D03*
X007325Y008315D02*
D03*
X007333Y008455D02*
D03*
X006983Y008355D02*
D03*
X006953Y008115D02*
D03*
X007395Y008195D02*
D03*
X006930Y008018D02*
D03*
X006885Y007085D02*
D03*
Y007005D02*
D03*
X006885Y007175D02*
D03*
X006885Y007255D02*
D03*
X007095Y007280D02*
D03*
X006966Y010255D02*
D03*
X006985Y010335D02*
D03*
X008985Y009375D02*
D03*
X007143Y009195D02*
D03*
X007145Y008745D02*
D03*
X006885Y009325D02*
D03*
Y009995D02*
D03*
X008993Y009010D02*
D03*
X008650Y008734D02*
D03*
X007595Y008725D02*
D03*
X008993Y009135D02*
D03*
X008650Y009285D02*
D03*
X007600D02*
D03*
X006885Y009417D02*
D03*
Y009497D02*
D03*
Y009575D02*
D03*
Y009655D02*
D03*
X008993Y009876D02*
D03*
Y009957D02*
D03*
Y010037D02*
D03*
Y010117D02*
D03*
X008745Y009427D02*
D03*
X008825Y009375D02*
D03*
X008755Y009554D02*
D03*
X008745Y008734D02*
D03*
X008993Y009495D02*
D03*
Y009575D02*
D03*
Y009655D02*
D03*
Y009735D02*
D03*
X007523Y009427D02*
D03*
X007835Y009679D02*
D03*
X007355Y009745D02*
D03*
X006885Y009085D02*
D03*
Y009165D02*
D03*
X006885Y009245D02*
D03*
X007525Y009507D02*
D03*
X007493Y008725D02*
D03*
X007363Y010355D02*
D03*
X007443Y009355D02*
D03*
X007393Y009815D02*
D03*
X007325Y010045D02*
D03*
X007333Y010185D02*
D03*
X006983Y010085D02*
D03*
X006953Y009845D02*
D03*
X007395Y009925D02*
D03*
X006930Y009748D02*
D03*
X006885Y008815D02*
D03*
Y008735D02*
D03*
X006885Y008905D02*
D03*
X006885Y008985D02*
D03*
X007095Y009010D02*
D03*
D86*
X011203Y003960D02*
D03*
X004810Y012490D02*
D03*
X006432Y004162D02*
D03*
X011345Y004235D02*
D03*
X010818Y003843D02*
D03*
D91*
X011512Y007846D02*
D03*
X012012Y007845D02*
D03*
X011512Y005096D02*
D03*
X012012Y005095D02*
D03*
X006153Y007428D02*
D03*
Y006808D02*
D03*
Y011308D02*
D03*
Y011928D02*
D03*
Y008928D02*
D03*
Y008308D02*
D03*
Y005928D02*
D03*
Y005308D02*
D03*
Y010428D02*
D03*
Y009808D02*
D03*
X009435Y004665D02*
D03*
Y004465D02*
D03*
X009235D02*
D03*
X009035D02*
D03*
X008835D02*
D03*
X008635D02*
D03*
X008435D02*
D03*
X008235D02*
D03*
X008035D02*
D03*
X007835D02*
D03*
X007635D02*
D03*
X007435D02*
D03*
X007235D02*
D03*
X007035D02*
D03*
X006835D02*
D03*
X006635D02*
D03*
X006435D02*
D03*
X006235D02*
D03*
X006035D02*
D03*
X005835D02*
D03*
X009235Y004665D02*
D03*
X009035D02*
D03*
X008835D02*
D03*
X008635D02*
D03*
X008435D02*
D03*
X008235D02*
D03*
X008035D02*
D03*
X007835D02*
D03*
X007635D02*
D03*
X007435D02*
D03*
X007235D02*
D03*
X007035D02*
D03*
X006835D02*
D03*
X006635D02*
D03*
X006435D02*
D03*
X006235D02*
D03*
X006035D02*
D03*
X005835D02*
D03*
X005635D02*
D03*
X004455Y012535D02*
D03*
D92*
X011847Y012515D02*
D03*
X011303D02*
D03*
X004466Y005134D02*
D03*
X004720Y005388D02*
D03*
X004466D02*
D03*
X004720Y005642D02*
D03*
X004466D02*
D03*
X004720Y005896D02*
D03*
X004466D02*
D03*
X004720Y006150D02*
D03*
X004466D02*
D03*
X004720Y006404D02*
D03*
X004466D02*
D03*
X004720Y006658D02*
D03*
X004466D02*
D03*
X004720Y006912D02*
D03*
X004466D02*
D03*
X004720Y007166D02*
D03*
X004466D02*
D03*
X004720Y007420D02*
D03*
X004466D02*
D03*
X004720Y007674D02*
D03*
X004466D02*
D03*
X004720Y007928D02*
D03*
X004466D02*
D03*
X004720Y008182D02*
D03*
X004466D02*
D03*
X004720Y008436D02*
D03*
X004466D02*
D03*
X004720Y008690D02*
D03*
X004466D02*
D03*
X004720Y008944D02*
D03*
X004466D02*
D03*
X004720Y009198D02*
D03*
X004466D02*
D03*
X004720Y009452D02*
D03*
X004466D02*
D03*
X004720Y009706D02*
D03*
X004466D02*
D03*
X004720Y009960D02*
D03*
X004466D02*
D03*
X004720Y010214D02*
D03*
X004466D02*
D03*
X004720Y010468D02*
D03*
X004466D02*
D03*
X004720Y010722D02*
D03*
X004466D02*
D03*
X004720Y010976D02*
D03*
X004466D02*
D03*
X004720Y011230D02*
D03*
X004466D02*
D03*
X004720Y011484D02*
D03*
X004466D02*
D03*
X003958Y011485D02*
D03*
X004212D02*
D03*
X003958Y011231D02*
D03*
X004212D02*
D03*
X003958Y010977D02*
D03*
X004212D02*
D03*
X003958Y010723D02*
D03*
X004212D02*
D03*
X003958Y010469D02*
D03*
X004212D02*
D03*
X003958Y010215D02*
D03*
X004212D02*
D03*
X003958Y009961D02*
D03*
X004212D02*
D03*
X003958Y009707D02*
D03*
X004212D02*
D03*
X003958Y009453D02*
D03*
X004212D02*
D03*
X003958Y009199D02*
D03*
X004212D02*
D03*
X003958Y008945D02*
D03*
X004212D02*
D03*
X003958Y008691D02*
D03*
X004212D02*
D03*
X003958Y008437D02*
D03*
X004212D02*
D03*
X003958Y008183D02*
D03*
X004212D02*
D03*
X003958Y007929D02*
D03*
X004212D02*
D03*
X003958Y007675D02*
D03*
X004212D02*
D03*
X003958Y007421D02*
D03*
X004212D02*
D03*
X003958Y007167D02*
D03*
X004212D02*
D03*
X003958Y006913D02*
D03*
X004212D02*
D03*
X003958Y006659D02*
D03*
X004212D02*
D03*
X003958Y006405D02*
D03*
X004212D02*
D03*
X003958Y006151D02*
D03*
X004212D02*
D03*
X003958Y005897D02*
D03*
X004212D02*
D03*
X003958Y005643D02*
D03*
X004212D02*
D03*
X003958Y005389D02*
D03*
X004212D02*
D03*
X003958Y005135D02*
D03*
X009829Y012465D02*
D03*
X010083D02*
D03*
X010337D02*
D03*
X010591D02*
D03*
X010845D02*
D03*
X012560Y009220D02*
D03*
Y009770D02*
D03*
Y010317D02*
D03*
Y010861D02*
D03*
D93*
X010785Y007808D02*
D03*
X006771Y005065D02*
D03*
X012405Y008749D02*
D03*
X011498Y007275D02*
D03*
D98*
X011575Y011955D02*
D03*
Y011755D02*
D03*
X012862Y006325D02*
D03*
Y006125D02*
D03*
X011325Y006325D02*
D03*
Y006125D02*
D03*
X011055Y012635D02*
D03*
Y012435D02*
D03*
D102*
X011655Y012235D02*
D03*
X011488D02*
D03*
D103*
X011655Y012455D02*
D03*
X011488D02*
D03*
D106*
X006789Y009909D02*
D03*
Y009757D02*
D03*
X006785Y010205D02*
D03*
Y010053D02*
D03*
X006775Y008175D02*
D03*
Y008023D02*
D03*
X006778Y008470D02*
D03*
Y008318D02*
D03*
X006775Y006740D02*
D03*
Y006588D02*
D03*
X006778Y006442D02*
D03*
Y006290D02*
D03*
X006775Y011632D02*
D03*
Y011480D02*
D03*
Y011930D02*
D03*
Y011778D02*
D03*
X012855Y011015D02*
D03*
Y010863D02*
D03*
Y010475D02*
D03*
Y010323D02*
D03*
Y009925D02*
D03*
Y009773D02*
D03*
Y009375D02*
D03*
Y009223D02*
D03*
X012765Y011315D02*
D03*
Y011467D02*
D03*
X010753Y005685D02*
D03*
Y005837D02*
D03*
X011675Y005479D02*
D03*
Y005326D02*
D03*
X012175Y005477D02*
D03*
Y005325D02*
D03*
Y008227D02*
D03*
Y008075D02*
D03*
X011675Y008229D02*
D03*
Y008076D02*
D03*
X011345Y007927D02*
D03*
Y007775D02*
D03*
X005766Y008066D02*
D03*
Y008219D02*
D03*
X005487Y008892D02*
D03*
Y009044D02*
D03*
X005265Y008892D02*
D03*
Y009044D02*
D03*
X005298Y009281D02*
D03*
Y009433D02*
D03*
X005678Y009281D02*
D03*
Y009433D02*
D03*
X006543Y009156D02*
D03*
Y009004D02*
D03*
Y008896D02*
D03*
Y008744D02*
D03*
X005768Y008401D02*
D03*
Y008553D02*
D03*
X006543Y008539D02*
D03*
Y008386D02*
D03*
Y008269D02*
D03*
Y008116D02*
D03*
X005766Y011066D02*
D03*
Y011219D02*
D03*
X005487Y011892D02*
D03*
Y012044D02*
D03*
X005265Y011892D02*
D03*
Y012044D02*
D03*
X005298Y012281D02*
D03*
Y012433D02*
D03*
X005678Y012281D02*
D03*
Y012433D02*
D03*
X006543Y012156D02*
D03*
Y012004D02*
D03*
Y011896D02*
D03*
Y011744D02*
D03*
X005768Y011401D02*
D03*
Y011553D02*
D03*
X006543Y011539D02*
D03*
Y011386D02*
D03*
Y011269D02*
D03*
Y011116D02*
D03*
X005678Y010781D02*
D03*
Y010933D02*
D03*
X006543Y010656D02*
D03*
Y010504D02*
D03*
X005768Y009901D02*
D03*
Y010053D02*
D03*
X005766Y006719D02*
D03*
Y006566D02*
D03*
X006543Y007504D02*
D03*
Y007656D02*
D03*
Y007244D02*
D03*
Y007396D02*
D03*
Y006886D02*
D03*
Y007039D02*
D03*
Y006616D02*
D03*
Y006769D02*
D03*
X005768Y007053D02*
D03*
Y006901D02*
D03*
X005298Y007933D02*
D03*
Y007781D02*
D03*
X005265Y007544D02*
D03*
Y007392D02*
D03*
X005487Y007544D02*
D03*
Y007392D02*
D03*
X005678Y007933D02*
D03*
Y007781D02*
D03*
X005766Y009719D02*
D03*
Y009566D02*
D03*
X005487Y010544D02*
D03*
Y010392D02*
D03*
X005265Y010544D02*
D03*
Y010392D02*
D03*
X005298Y010933D02*
D03*
Y010781D02*
D03*
X006543Y010244D02*
D03*
Y010396D02*
D03*
Y009886D02*
D03*
Y010039D02*
D03*
Y009616D02*
D03*
Y009769D02*
D03*
X005298Y006433D02*
D03*
Y006281D02*
D03*
X005487Y006044D02*
D03*
Y005892D02*
D03*
X005265Y006044D02*
D03*
Y005892D02*
D03*
X007405Y010663D02*
D03*
Y010815D02*
D03*
X007405Y008933D02*
D03*
Y009085D02*
D03*
Y007203D02*
D03*
Y007355D02*
D03*
Y005625D02*
D03*
Y005473D02*
D03*
X009819Y010865D02*
D03*
Y010713D02*
D03*
X011175Y011015D02*
D03*
Y010863D02*
D03*
X011335Y011015D02*
D03*
Y010863D02*
D03*
X011465Y009135D02*
D03*
Y009287D02*
D03*
X011290Y009135D02*
D03*
Y009287D02*
D03*
X010139Y010865D02*
D03*
Y010713D02*
D03*
X009979Y010865D02*
D03*
Y010713D02*
D03*
X010635Y012007D02*
D03*
Y011855D02*
D03*
X010235Y012007D02*
D03*
Y011855D02*
D03*
X009835Y012007D02*
D03*
Y011855D02*
D03*
X010703Y009975D02*
D03*
Y009823D02*
D03*
X009575Y009267D02*
D03*
Y009419D02*
D03*
X010310Y009255D02*
D03*
Y009407D02*
D03*
X010137Y009255D02*
D03*
Y009407D02*
D03*
X009575Y010025D02*
D03*
Y010177D02*
D03*
X011652Y009670D02*
D03*
Y009518D02*
D03*
X011645Y010151D02*
D03*
Y009999D02*
D03*
X011007Y005837D02*
D03*
Y005685D02*
D03*
X011845Y007785D02*
D03*
Y007937D02*
D03*
Y005187D02*
D03*
Y005035D02*
D03*
X011345Y005177D02*
D03*
Y005025D02*
D03*
X005678Y006281D02*
D03*
Y006433D02*
D03*
X005768Y005401D02*
D03*
Y005553D02*
D03*
X005766Y005066D02*
D03*
Y005219D02*
D03*
X006543Y006004D02*
D03*
Y006156D02*
D03*
Y005896D02*
D03*
Y005744D02*
D03*
Y005539D02*
D03*
Y005386D02*
D03*
Y005269D02*
D03*
Y005116D02*
D03*
X007453Y012087D02*
D03*
Y011935D02*
D03*
X008805Y012087D02*
D03*
Y011935D02*
D03*
X007096Y011948D02*
D03*
Y012100D02*
D03*
X008863Y010665D02*
D03*
Y010817D02*
D03*
X007453Y010357D02*
D03*
Y010205D02*
D03*
X008805Y010357D02*
D03*
Y010205D02*
D03*
X007096Y010218D02*
D03*
Y010370D02*
D03*
X008863Y008935D02*
D03*
Y009087D02*
D03*
X007453Y008627D02*
D03*
Y008475D02*
D03*
X008805Y008627D02*
D03*
Y008475D02*
D03*
X007096Y008488D02*
D03*
Y008640D02*
D03*
X008863Y007205D02*
D03*
Y007357D02*
D03*
X007453Y006745D02*
D03*
Y006897D02*
D03*
X008805Y006745D02*
D03*
Y006897D02*
D03*
X007096Y006910D02*
D03*
Y006758D02*
D03*
X008863Y005627D02*
D03*
Y005475D02*
D03*
D107*
X010460Y007905D02*
D03*
X010308D02*
D03*
X009990Y008094D02*
D03*
X009838D02*
D03*
X010460D02*
D03*
X010308D02*
D03*
X010460Y007717D02*
D03*
X010308D02*
D03*
X010460Y007528D02*
D03*
X010308D02*
D03*
X009990D02*
D03*
X009838D02*
D03*
X009990Y007717D02*
D03*
X009838D02*
D03*
X009990Y007905D02*
D03*
X009838D02*
D03*
X010590Y012265D02*
D03*
X010742D02*
D03*
X011027D02*
D03*
X010875D02*
D03*
X005900Y005066D02*
D03*
X006053D02*
D03*
X010328Y005735D02*
D03*
X010480D02*
D03*
X009610D02*
D03*
X009762D02*
D03*
X011495Y005475D02*
D03*
X011343D02*
D03*
X011995D02*
D03*
X011843D02*
D03*
X012807Y005166D02*
D03*
X012655D02*
D03*
X012807Y005015D02*
D03*
X012655D02*
D03*
X012653Y008076D02*
D03*
X012805D02*
D03*
X012653Y008231D02*
D03*
X012805D02*
D03*
X012807Y007765D02*
D03*
X012655D02*
D03*
X012807Y007916D02*
D03*
X012655D02*
D03*
X011615Y007645D02*
D03*
X011767D02*
D03*
X011497D02*
D03*
X011345D02*
D03*
X011995Y008225D02*
D03*
X011843D02*
D03*
X012028Y007645D02*
D03*
X012180D02*
D03*
X011495Y008225D02*
D03*
X011343D02*
D03*
X011495Y008058D02*
D03*
X011343D02*
D03*
X006253Y009146D02*
D03*
X006405D02*
D03*
X006053D02*
D03*
X005900D02*
D03*
X006250Y008686D02*
D03*
X006403D02*
D03*
X005261Y008631D02*
D03*
X005108D02*
D03*
X006253Y008529D02*
D03*
X006405D02*
D03*
X006053Y008528D02*
D03*
X005900D02*
D03*
X006240Y008066D02*
D03*
X006393D02*
D03*
X006053Y008686D02*
D03*
X005900D02*
D03*
X006053Y008066D02*
D03*
X005900D02*
D03*
X005523D02*
D03*
X005370D02*
D03*
X006253Y012146D02*
D03*
X006405D02*
D03*
X006053D02*
D03*
X005900D02*
D03*
X006250Y011686D02*
D03*
X006403D02*
D03*
X005261Y011631D02*
D03*
X005108D02*
D03*
X006253Y011529D02*
D03*
X006405D02*
D03*
X006053Y011528D02*
D03*
X005900D02*
D03*
X006240Y011066D02*
D03*
X006393D02*
D03*
X006053Y011686D02*
D03*
X005900D02*
D03*
X006053Y011066D02*
D03*
X005900D02*
D03*
X005523D02*
D03*
X005370D02*
D03*
X006053Y010028D02*
D03*
X005900D02*
D03*
X006053Y010186D02*
D03*
X005900D02*
D03*
X005523Y009566D02*
D03*
X005370D02*
D03*
X006405Y007029D02*
D03*
X006253D02*
D03*
X006405Y007646D02*
D03*
X006253D02*
D03*
X005900D02*
D03*
X006053D02*
D03*
X006403Y007186D02*
D03*
X006250D02*
D03*
X005900Y007028D02*
D03*
X006053D02*
D03*
X006393Y006566D02*
D03*
X006240D02*
D03*
X005108Y007131D02*
D03*
X005261D02*
D03*
X005900Y007186D02*
D03*
X006053D02*
D03*
X005900Y006566D02*
D03*
X006053D02*
D03*
X005370D02*
D03*
X005523D02*
D03*
X006405Y010646D02*
D03*
X006253D02*
D03*
X005900D02*
D03*
X006053D02*
D03*
X006403Y010186D02*
D03*
X006250D02*
D03*
X005108Y010131D02*
D03*
X005261D02*
D03*
X006405Y010029D02*
D03*
X006253D02*
D03*
X006393Y009566D02*
D03*
X006240D02*
D03*
X005900D02*
D03*
X006053D02*
D03*
X010455Y012265D02*
D03*
X010303D02*
D03*
X011652Y010463D02*
D03*
X011500D02*
D03*
X011652Y010295D02*
D03*
X011500D02*
D03*
X010040Y011050D02*
D03*
X010192D02*
D03*
X011397Y008943D02*
D03*
X011245D02*
D03*
X011652Y010702D02*
D03*
X011500D02*
D03*
X009715Y009775D02*
D03*
X009563D02*
D03*
X009877Y008955D02*
D03*
X009725D02*
D03*
X010515Y008943D02*
D03*
X010363D02*
D03*
Y011050D02*
D03*
X010515D02*
D03*
X010855Y011055D02*
D03*
X011007D02*
D03*
X010987Y008945D02*
D03*
X010835D02*
D03*
X011535Y008943D02*
D03*
X011687D02*
D03*
X011652Y010870D02*
D03*
X011500D02*
D03*
X011763Y011755D02*
D03*
X011915D02*
D03*
X011763Y011955D02*
D03*
X011915D02*
D03*
X009755Y006038D02*
D03*
X009603D02*
D03*
X012653Y007615D02*
D03*
X012805D02*
D03*
X011845Y008055D02*
D03*
X011997D02*
D03*
X012805Y008385D02*
D03*
X012653D02*
D03*
Y005635D02*
D03*
X012805D02*
D03*
X012653Y005326D02*
D03*
X012805D02*
D03*
X012653Y005481D02*
D03*
X012805D02*
D03*
Y004865D02*
D03*
X012653D02*
D03*
X012028Y004895D02*
D03*
X012180D02*
D03*
X011997Y005305D02*
D03*
X011845D02*
D03*
X011495Y005308D02*
D03*
X011343D02*
D03*
X011497Y004895D02*
D03*
X011345D02*
D03*
X011615D02*
D03*
X011767D02*
D03*
X006253Y005529D02*
D03*
X006405D02*
D03*
X006253Y006146D02*
D03*
X006405D02*
D03*
X006053D02*
D03*
X005900D02*
D03*
X006250Y005686D02*
D03*
X006403D02*
D03*
X006053Y005528D02*
D03*
X005900D02*
D03*
X006240Y005066D02*
D03*
X006393D02*
D03*
X005261Y005631D02*
D03*
X005108D02*
D03*
X006053Y005686D02*
D03*
X005900D02*
D03*
X005523Y005066D02*
D03*
X005370D02*
D03*
X008823Y010997D02*
D03*
X008975D02*
D03*
X007405Y010995D02*
D03*
X007253D02*
D03*
X008983Y010495D02*
D03*
X008830D02*
D03*
X008823Y009265D02*
D03*
X008975D02*
D03*
X007405D02*
D03*
X007253D02*
D03*
X008983Y008765D02*
D03*
X008830D02*
D03*
X008822Y007530D02*
D03*
X008975D02*
D03*
X007405Y007535D02*
D03*
X007253D02*
D03*
X008983Y007035D02*
D03*
X008830D02*
D03*
X008975Y005803D02*
D03*
X008822D02*
D03*
X007253Y005805D02*
D03*
X007405D02*
D03*
X008830Y005297D02*
D03*
X008982D02*
D03*
D117*
X011295Y011577D02*
D03*
Y011945D02*
D03*
D118*
X012315Y008095D02*
D03*
X012315Y005345D02*
D03*
D119*
X012365Y008095D02*
D03*
X012415D02*
D03*
X012465D02*
D03*
X012515D02*
D03*
X012315Y007655D02*
D03*
X012365D02*
D03*
X012415D02*
D03*
X012465D02*
D03*
X012515D02*
D03*
X012515Y004905D02*
D03*
X012465D02*
D03*
X012415D02*
D03*
X012365D02*
D03*
X012315D02*
D03*
X012515Y005345D02*
D03*
X012465D02*
D03*
X012415D02*
D03*
X012365D02*
D03*
D121*
X007265Y010835D02*
D03*
X007265Y009105D02*
D03*
Y007375D02*
D03*
Y005645D02*
D03*
D122*
Y010645D02*
D03*
X007265Y008915D02*
D03*
Y007185D02*
D03*
Y005455D02*
D03*
D123*
X007015Y010740D02*
D03*
X007015Y009010D02*
D03*
Y007280D02*
D03*
Y005550D02*
D03*
D129*
X007600Y010546D02*
D03*
Y010674D02*
D03*
Y010800D02*
D03*
Y010928D02*
D03*
X008650Y010546D02*
D03*
Y010674D02*
D03*
Y010800D02*
D03*
X007600Y008817D02*
D03*
Y008943D02*
D03*
Y009071D02*
D03*
Y009197D02*
D03*
X008650Y008817D02*
D03*
Y008943D02*
D03*
Y009071D02*
D03*
X007600Y007086D02*
D03*
Y007214D02*
D03*
Y007340D02*
D03*
Y007468D02*
D03*
X008650Y007086D02*
D03*
Y007214D02*
D03*
Y007340D02*
D03*
X007600Y005356D02*
D03*
Y005483D02*
D03*
Y005610D02*
D03*
Y005738D02*
D03*
X008650Y005356D02*
D03*
Y005483D02*
D03*
Y005610D02*
D03*
D130*
X008650Y010928D02*
D03*
X008650Y009197D02*
D03*
Y007468D02*
D03*
Y005738D02*
D03*
D131*
X012555Y007056D02*
D03*
Y006929D02*
D03*
Y006802D02*
D03*
Y006675D02*
D03*
Y006548D02*
D03*
Y006421D02*
D03*
Y006294D02*
D03*
Y006167D02*
D03*
X011640Y007056D02*
D03*
Y006929D02*
D03*
Y006802D02*
D03*
Y006675D02*
D03*
Y006548D02*
D03*
Y006421D02*
D03*
Y006294D02*
D03*
Y006167D02*
D03*
X008575Y012044D02*
D03*
Y011918D02*
D03*
Y011790D02*
D03*
Y011664D02*
D03*
Y011536D02*
D03*
Y011410D02*
D03*
Y011282D02*
D03*
Y011156D02*
D03*
X007660Y012044D02*
D03*
Y011918D02*
D03*
Y011790D02*
D03*
Y011664D02*
D03*
Y011536D02*
D03*
Y011410D02*
D03*
Y011282D02*
D03*
Y011156D02*
D03*
X008575Y010314D02*
D03*
Y010188D02*
D03*
Y010061D02*
D03*
Y009933D02*
D03*
Y009807D02*
D03*
Y009679D02*
D03*
Y009553D02*
D03*
Y009425D02*
D03*
X007660Y010314D02*
D03*
Y010188D02*
D03*
Y010061D02*
D03*
Y009933D02*
D03*
Y009807D02*
D03*
Y009679D02*
D03*
Y009553D02*
D03*
Y009425D02*
D03*
X008575Y008585D02*
D03*
Y008457D02*
D03*
Y008331D02*
D03*
Y008204D02*
D03*
Y008076D02*
D03*
Y007950D02*
D03*
Y007822D02*
D03*
Y007696D02*
D03*
X007660Y008585D02*
D03*
Y008457D02*
D03*
Y008331D02*
D03*
Y008204D02*
D03*
Y008076D02*
D03*
Y007950D02*
D03*
Y007822D02*
D03*
Y007696D02*
D03*
X008575Y006854D02*
D03*
Y006728D02*
D03*
Y006600D02*
D03*
Y006474D02*
D03*
Y006347D02*
D03*
Y006219D02*
D03*
Y006092D02*
D03*
Y005965D02*
D03*
X007660Y006854D02*
D03*
Y006728D02*
D03*
Y006600D02*
D03*
Y006474D02*
D03*
Y006347D02*
D03*
Y006219D02*
D03*
Y006092D02*
D03*
Y005965D02*
D03*
D147*
X010645Y009975D02*
X010645D01*
X010015Y010086D02*
X010535D01*
X010645Y009975D01*
X006775Y006740D02*
X006860D01*
X006885Y006715D01*
X006775Y008470D02*
X006860D01*
X006885Y008445D01*
X006775Y010200D02*
X006860D01*
X006885Y010175D01*
X006860Y011930D02*
X006885Y011905D01*
X006775Y011930D02*
X006860D01*
X011440Y011570D02*
X011505Y011505D01*
X011302Y011570D02*
X011440D01*
X010140Y008094D02*
X010308D01*
X009990D02*
X010140D01*
X009990Y007528D02*
X010140D01*
X009990Y007717D02*
X010308D01*
Y007528D02*
Y007717D01*
X010460Y008094D02*
X010571D01*
X010605Y008128D01*
X010575Y007905D02*
X010605Y007875D01*
X010460Y007905D02*
X010575D01*
X010574Y007717D02*
X010605Y007748D01*
X010460Y007717D02*
X010574D01*
X010535Y007551D02*
X010605Y007621D01*
X010476Y007551D02*
X010535D01*
X010460Y007535D02*
X010476Y007551D01*
X010460Y007528D02*
Y007535D01*
X009772Y008094D02*
X009838D01*
X009680Y008002D02*
X009772Y008094D01*
X009710Y007905D02*
X009838D01*
X009680Y007875D02*
X009710Y007905D01*
X009711Y007717D02*
X009838D01*
X009680Y007748D02*
X009711Y007717D01*
X009773Y007528D02*
X009838D01*
X009680Y007621D02*
X009773Y007528D01*
X009990Y007905D02*
Y008094D01*
Y007717D02*
Y007905D01*
X012765Y011467D02*
Y011575D01*
X012831Y011331D02*
X012895Y011395D01*
X012781Y011331D02*
X012831D01*
X012765Y011315D02*
X012781Y011331D01*
X011055Y012635D02*
X011182D01*
X011303Y012515D01*
X011795Y011585D02*
X011997D01*
X011485Y011755D02*
X011575D01*
X011397Y011843D02*
X011485Y011755D01*
X011397Y011843D02*
Y011868D01*
X011320Y011945D02*
X011397Y011868D01*
X011295Y011945D02*
X011320D01*
X011915Y011855D02*
Y011955D01*
Y011755D02*
Y011855D01*
X012085D02*
X012085Y011855D01*
X011915Y011855D02*
X012085D01*
X011575Y011585D02*
Y011755D01*
X011763D01*
X011240Y012370D02*
X011360D01*
X011175Y012435D02*
X011240Y012370D01*
X011055Y012435D02*
X011175D01*
X011445Y012455D02*
X011655D01*
X011360Y012370D02*
X011445Y012455D01*
X012856Y010470D02*
X012965D01*
X012964Y009375D02*
X012965Y009373D01*
X012855Y009375D02*
X012964D01*
Y009925D02*
X012965Y009923D01*
X012855Y009925D02*
X012964D01*
X012965Y011015D02*
X012965Y011014D01*
X012855Y011015D02*
X012965D01*
X010377Y009823D02*
X010645D01*
X009975Y010125D02*
X010015Y010086D01*
X009975Y010125D02*
Y010333D01*
X010375D02*
Y010463D01*
X010323Y010515D02*
X010375Y010463D01*
X009975Y010515D02*
X010323D01*
X009975Y010333D02*
Y010515D01*
D149*
X005823Y011553D02*
X005848Y011528D01*
X005900D01*
X005768Y011553D02*
X005823D01*
X005928Y011767D02*
Y011786D01*
X005900Y011686D02*
Y011740D01*
X005928Y011767D01*
X005900Y012056D02*
Y012146D01*
X005874Y012029D02*
X005900Y012056D01*
X005928Y011154D02*
X005928Y011154D01*
X005928Y011154D02*
Y011166D01*
X005900Y011126D02*
X005928Y011154D01*
X005900Y011066D02*
Y011126D01*
Y011436D02*
Y011528D01*
X005874Y011409D02*
X005900Y011436D01*
X005823Y008553D02*
X005848Y008528D01*
X005900D01*
X005768Y008553D02*
X005823D01*
X005928Y008767D02*
Y008786D01*
X005900Y008686D02*
Y008740D01*
X005928Y008767D01*
X005900Y009056D02*
Y009146D01*
X005874Y009029D02*
X005900Y009056D01*
X005928Y008154D02*
X005928Y008154D01*
X005928Y008154D02*
Y008166D01*
X005900Y008126D02*
X005928Y008154D01*
X005900Y008066D02*
Y008126D01*
Y008436D02*
Y008528D01*
X005874Y008409D02*
X005900Y008436D01*
X005823Y010053D02*
X005848Y010028D01*
X005900D01*
X005768Y010053D02*
X005823D01*
X005928Y010267D02*
Y010286D01*
X005900Y010186D02*
Y010240D01*
X005928Y010267D01*
X005900Y010556D02*
Y010646D01*
X005874Y010529D02*
X005900Y010556D01*
X005928Y009654D02*
X005928Y009654D01*
X005928Y009654D02*
Y009666D01*
X005900Y009626D02*
X005928Y009654D01*
X005900Y009566D02*
Y009626D01*
Y009936D02*
Y010028D01*
X005874Y009909D02*
X005900Y009936D01*
X005823Y007053D02*
X005848Y007028D01*
X005900D01*
X005768Y007053D02*
X005823D01*
X005928Y007267D02*
Y007286D01*
X005900Y007186D02*
Y007240D01*
X005928Y007267D01*
X005900Y007556D02*
Y007646D01*
X005874Y007529D02*
X005900Y007556D01*
X005928Y006654D02*
X005928Y006654D01*
X005928Y006654D02*
Y006666D01*
X005900Y006626D02*
X005928Y006654D01*
X005900Y006566D02*
Y006626D01*
Y006936D02*
Y007028D01*
X005874Y006909D02*
X005900Y006936D01*
X005848Y005528D02*
X005900D01*
X005823Y005553D02*
X005848Y005528D01*
X005768Y005553D02*
X005823D01*
X005928Y005767D02*
Y005786D01*
X005900Y005740D02*
X005928Y005767D01*
X005900Y005686D02*
Y005740D01*
X005928Y005154D02*
Y005166D01*
Y005154D02*
X005928Y005154D01*
X005900Y005126D02*
X005928Y005154D01*
X005900Y005066D02*
Y005126D01*
Y005436D02*
Y005528D01*
X005874Y005409D02*
X005900Y005436D01*
Y006056D02*
Y006146D01*
X005874Y006029D02*
X005900Y006056D01*
D151*
X011820Y012222D02*
D03*
X011330Y012220D02*
D03*
D152*
X010825Y011800D02*
D03*
X010425D02*
D03*
X010025D02*
D03*
D153*
X010825Y012054D02*
D03*
X010425D02*
D03*
X010025D02*
D03*
D154*
X011462Y007946D02*
D03*
X011563D02*
D03*
Y007746D02*
D03*
X011462D02*
D03*
X011962Y007945D02*
D03*
X012063D02*
D03*
Y007745D02*
D03*
X011962D02*
D03*
X011462Y005196D02*
D03*
X011563D02*
D03*
Y004996D02*
D03*
X011462D02*
D03*
X011962Y005195D02*
D03*
X012063D02*
D03*
Y004995D02*
D03*
X011962D02*
D03*
X006204Y007328D02*
D03*
X006102D02*
D03*
Y007528D02*
D03*
X006204D02*
D03*
Y006708D02*
D03*
X006102D02*
D03*
Y006908D02*
D03*
X006204D02*
D03*
Y011208D02*
D03*
X006102D02*
D03*
Y011408D02*
D03*
X006204D02*
D03*
Y012028D02*
D03*
X006102D02*
D03*
Y011828D02*
D03*
X006204D02*
D03*
Y008828D02*
D03*
X006102D02*
D03*
Y009028D02*
D03*
X006204D02*
D03*
Y008408D02*
D03*
X006102D02*
D03*
Y008208D02*
D03*
X006204D02*
D03*
Y005828D02*
D03*
X006102D02*
D03*
Y006028D02*
D03*
X006204D02*
D03*
Y005208D02*
D03*
X006102D02*
D03*
Y005408D02*
D03*
X006204D02*
D03*
Y010328D02*
D03*
X006102D02*
D03*
Y010528D02*
D03*
X006204D02*
D03*
Y009908D02*
D03*
X006102D02*
D03*
Y009708D02*
D03*
X006204D02*
D03*
X011728Y004600D02*
D03*
X011443Y004455D02*
D03*
X005479Y006808D02*
D03*
X005644D02*
D03*
Y005308D02*
D03*
X005479D02*
D03*
Y009808D02*
D03*
X005644D02*
D03*
X005479Y008308D02*
D03*
X005644D02*
D03*
Y011308D02*
D03*
X005479D02*
D03*
D155*
X004720Y005134D02*
D03*
X004212Y005135D02*
D03*
D156*
X009575Y012465D02*
D03*
D157*
X012565Y011485D02*
D03*
Y011305D02*
D03*
X011790Y010370D02*
D03*
X006785Y006192D02*
D03*
X010880Y005837D02*
D03*
Y005695D02*
D03*
X011585Y003899D02*
D03*
X011505Y011505D02*
D03*
X012085Y006176D02*
D03*
X012295Y007303D02*
D03*
X012085Y006301D02*
D03*
X012295Y005920D02*
D03*
X010218Y012265D02*
D03*
X005205D02*
D03*
X009375Y012235D02*
D03*
X009435Y012205D02*
D03*
X009315Y012275D02*
D03*
X010295Y011685D02*
D03*
Y011625D02*
D03*
X010385Y007435D02*
D03*
X010140Y007528D02*
D03*
Y008094D02*
D03*
X010605Y008128D02*
D03*
Y007621D02*
D03*
Y007748D02*
D03*
Y007875D02*
D03*
Y008002D02*
D03*
X009680Y007621D02*
D03*
Y007748D02*
D03*
Y007875D02*
D03*
Y008002D02*
D03*
X012235Y011395D02*
D03*
X012765Y011575D02*
D03*
X012895Y011395D02*
D03*
X011875Y011585D02*
D03*
X011935D02*
D03*
X011997D02*
D03*
X012085Y011855D02*
D03*
X011055Y012355D02*
D03*
X011705Y012065D02*
D03*
X011465D02*
D03*
X011635Y012088D02*
D03*
X011555Y012088D02*
D03*
X012043Y011987D02*
D03*
X011115D02*
D03*
X010245Y010930D02*
D03*
X009625Y011115D02*
D03*
X010475Y007435D02*
D03*
X010985D02*
D03*
X010880D02*
D03*
X010735D02*
D03*
X010623D02*
D03*
X011391Y008725D02*
D03*
X009565Y008755D02*
D03*
X009625D02*
D03*
X009465Y010955D02*
D03*
X009415Y010895D02*
D03*
X010140Y008690D02*
D03*
X009865Y008565D02*
D03*
X009805D02*
D03*
X009746D02*
D03*
X009685D02*
D03*
X011375Y009287D02*
D03*
X011895Y010220D02*
D03*
X011790Y010170D02*
D03*
X011895Y010470D02*
D03*
X011825Y010420D02*
D03*
X009385Y009095D02*
D03*
X009345Y009035D02*
D03*
X011815Y009420D02*
D03*
X011845Y009220D02*
D03*
Y009470D02*
D03*
Y009720D02*
D03*
X012865Y008875D02*
D03*
X012305Y008925D02*
D03*
X009565Y008915D02*
D03*
X009525Y008965D02*
D03*
X009345Y008915D02*
D03*
X009385Y008965D02*
D03*
X011945Y010272D02*
D03*
X011965Y010425D02*
D03*
X012965Y009373D02*
D03*
Y009253D02*
D03*
Y009123D02*
D03*
Y008993D02*
D03*
Y009923D02*
D03*
Y009803D02*
D03*
Y009673D02*
D03*
Y009543D02*
D03*
Y010470D02*
D03*
Y010350D02*
D03*
Y010220D02*
D03*
Y010090D02*
D03*
Y011014D02*
D03*
Y010894D02*
D03*
Y010764D02*
D03*
Y010634D02*
D03*
X012155Y010707D02*
D03*
Y010827D02*
D03*
Y010957D02*
D03*
Y011087D02*
D03*
Y010163D02*
D03*
Y010283D02*
D03*
Y010413D02*
D03*
Y010543D02*
D03*
Y009616D02*
D03*
Y009736D02*
D03*
Y009866D02*
D03*
Y009996D02*
D03*
Y009446D02*
D03*
Y009316D02*
D03*
Y009186D02*
D03*
Y009066D02*
D03*
X011007Y005915D02*
D03*
X010055Y010715D02*
D03*
X011255Y010863D02*
D03*
X011500Y010379D02*
D03*
Y010786D02*
D03*
X011175Y009075D02*
D03*
X011764Y008943D02*
D03*
X011490Y008785D02*
D03*
X009407Y010072D02*
D03*
X010225Y009419D02*
D03*
Y009255D02*
D03*
X009375Y010672D02*
D03*
Y010422D02*
D03*
X009407Y010772D02*
D03*
X009442Y010722D02*
D03*
Y010622D02*
D03*
X009407Y010572D02*
D03*
X009442Y010522D02*
D03*
X009407Y010472D02*
D03*
Y010372D02*
D03*
X009442Y010322D02*
D03*
X009407Y010272D02*
D03*
X009442Y010222D02*
D03*
Y010122D02*
D03*
Y010022D02*
D03*
X009407Y009972D02*
D03*
Y009772D02*
D03*
X009442Y009722D02*
D03*
Y009622D02*
D03*
X009407Y009572D02*
D03*
X009442Y009522D02*
D03*
X009407Y009472D02*
D03*
X009375Y010172D02*
D03*
X009348Y009422D02*
D03*
Y009672D02*
D03*
X009375Y009922D02*
D03*
X009442Y009822D02*
D03*
X009407Y009872D02*
D03*
X009442Y009322D02*
D03*
X009407Y009372D02*
D03*
X009406Y009271D02*
D03*
X009740Y011205D02*
D03*
X009790Y011170D02*
D03*
X009840Y011205D02*
D03*
X009890Y011170D02*
D03*
X009990D02*
D03*
X010040Y011205D02*
D03*
X010090Y011170D02*
D03*
X010140Y011205D02*
D03*
X010240D02*
D03*
X010290Y011170D02*
D03*
X010340Y011205D02*
D03*
X010390Y011170D02*
D03*
X010490D02*
D03*
X010540Y011205D02*
D03*
X010590Y011170D02*
D03*
X010640Y011205D02*
D03*
X010740D02*
D03*
X010790Y011170D02*
D03*
X010840Y011205D02*
D03*
X010890Y011170D02*
D03*
X010990D02*
D03*
X011040Y011205D02*
D03*
X011090Y011170D02*
D03*
X011140Y011205D02*
D03*
X011240D02*
D03*
X011290Y011170D02*
D03*
X011340Y011205D02*
D03*
X011390Y011170D02*
D03*
X011490D02*
D03*
X010190Y011275D02*
D03*
X010440D02*
D03*
X010690D02*
D03*
X010940D02*
D03*
X011190D02*
D03*
X011440D02*
D03*
X009939D02*
D03*
X011790Y010870D02*
D03*
X011895Y010721D02*
D03*
Y009970D02*
D03*
X011825Y009120D02*
D03*
X011790Y009170D02*
D03*
Y009270D02*
D03*
X011825Y009320D02*
D03*
X011785Y009370D02*
D03*
X011815Y009520D02*
D03*
X011785Y009570D02*
D03*
X011825Y009620D02*
D03*
X011790Y009670D02*
D03*
Y009770D02*
D03*
X011825Y009820D02*
D03*
X011790Y009870D02*
D03*
X011825Y009920D02*
D03*
Y010020D02*
D03*
X011790Y010070D02*
D03*
X011825Y010120D02*
D03*
X011790Y010270D02*
D03*
X011825Y010320D02*
D03*
Y010520D02*
D03*
X011790Y010570D02*
D03*
X011825Y010620D02*
D03*
X011790Y010670D02*
D03*
Y010770D02*
D03*
X011825Y010820D02*
D03*
X009035Y010314D02*
D03*
X009890Y008715D02*
D03*
X010390D02*
D03*
X010640D02*
D03*
X010890D02*
D03*
X011140Y008725D02*
D03*
X009790Y008785D02*
D03*
X009840Y008820D02*
D03*
X009940D02*
D03*
X009990Y008785D02*
D03*
X010040Y008820D02*
D03*
X010090Y008785D02*
D03*
X010190D02*
D03*
X010240Y008820D02*
D03*
X010290Y008785D02*
D03*
X010340Y008820D02*
D03*
X010440D02*
D03*
X010490Y008785D02*
D03*
X010540Y008820D02*
D03*
X010590Y008785D02*
D03*
X010690D02*
D03*
X010740Y008820D02*
D03*
X010790Y008785D02*
D03*
X010840Y008820D02*
D03*
X010940D02*
D03*
X010990Y008785D02*
D03*
X011040Y008820D02*
D03*
X011090Y008785D02*
D03*
X011190D02*
D03*
X011240Y008820D02*
D03*
X011290Y008785D02*
D03*
X011340Y008820D02*
D03*
X011440D02*
D03*
X009045Y006715D02*
D03*
Y006855D02*
D03*
Y006785D02*
D03*
X008755Y012365D02*
D03*
X009195Y012315D02*
D03*
X009255D02*
D03*
X009135D02*
D03*
X009045Y008585D02*
D03*
Y008515D02*
D03*
Y008445D02*
D03*
X009035Y010175D02*
D03*
Y010245D02*
D03*
X009087Y012248D02*
D03*
X009085Y012105D02*
D03*
X009087Y012175D02*
D03*
X008835Y012365D02*
D03*
X008915D02*
D03*
X008995D02*
D03*
X006660Y007520D02*
D03*
X006890Y012325D02*
D03*
Y012248D02*
D03*
X006341Y006433D02*
D03*
X006328Y006281D02*
D03*
X006433Y005358D02*
D03*
Y005307D02*
D03*
X009491Y006131D02*
D03*
X009872Y006155D02*
D03*
X009745D02*
D03*
X009615D02*
D03*
X011105Y005735D02*
D03*
X010160Y005871D02*
D03*
X010070D02*
D03*
X010622Y007165D02*
D03*
X011090Y006785D02*
D03*
X010753Y005906D02*
D03*
Y005585D02*
D03*
X011050Y007165D02*
D03*
X010880D02*
D03*
X010310D02*
D03*
X009872D02*
D03*
X010010Y007035D02*
D03*
X009410Y007194D02*
D03*
X012475Y007765D02*
D03*
X012468Y004810D02*
D03*
X011555Y004815D02*
D03*
X011905Y004895D02*
D03*
X012805Y004795D02*
D03*
X011575Y005335D02*
D03*
X011417Y005395D02*
D03*
X012805Y005565D02*
D03*
X012565Y004905D02*
D03*
X012555Y005045D02*
D03*
Y005485D02*
D03*
Y005565D02*
D03*
X011815Y005575D02*
D03*
X011255Y005335D02*
D03*
Y005195D02*
D03*
Y005005D02*
D03*
Y004895D02*
D03*
Y004785D02*
D03*
X011660Y005255D02*
D03*
X011764Y005275D02*
D03*
X011765Y005205D02*
D03*
X011765Y005096D02*
D03*
Y005046D02*
D03*
X011764Y004996D02*
D03*
X012175Y005255D02*
D03*
X012255Y005096D02*
D03*
Y005046D02*
D03*
Y004995D02*
D03*
X012555Y007795D02*
D03*
Y008235D02*
D03*
Y008315D02*
D03*
X011815Y008325D02*
D03*
X012565Y007655D02*
D03*
X012805Y008315D02*
D03*
Y007545D02*
D03*
X012255Y007745D02*
D03*
X011765Y007846D02*
D03*
Y007796D02*
D03*
X012255Y007846D02*
D03*
Y007796D02*
D03*
X012175Y008005D02*
D03*
X011905Y007645D02*
D03*
X011764Y008025D02*
D03*
X011765Y007955D02*
D03*
X011660Y008005D02*
D03*
X011575Y008085D02*
D03*
X011555Y007565D02*
D03*
X011764Y007746D02*
D03*
X011417Y008145D02*
D03*
X011255Y007645D02*
D03*
Y007535D02*
D03*
Y007755D02*
D03*
Y008085D02*
D03*
Y007945D02*
D03*
X006785Y007855D02*
D03*
X006790Y009255D02*
D03*
X006789Y010745D02*
D03*
X006791Y012221D02*
D03*
X005288Y012190D02*
D03*
X004905Y010645D02*
D03*
X004895Y011055D02*
D03*
Y011155D02*
D03*
Y011535D02*
D03*
Y011605D02*
D03*
Y011675D02*
D03*
X004905Y010295D02*
D03*
Y010385D02*
D03*
Y010545D02*
D03*
X006586Y009569D02*
D03*
X004896Y009679D02*
D03*
Y009605D02*
D03*
X004895Y009461D02*
D03*
Y009355D02*
D03*
X004896Y009175D02*
D03*
X004895Y009265D02*
D03*
Y008255D02*
D03*
Y008365D02*
D03*
Y007945D02*
D03*
Y008012D02*
D03*
Y007775D02*
D03*
Y007465D02*
D03*
Y007665D02*
D03*
Y007565D02*
D03*
Y006485D02*
D03*
Y006575D02*
D03*
X005185Y004885D02*
D03*
X005065D02*
D03*
X006585Y006555D02*
D03*
X004905Y005483D02*
D03*
Y005555D02*
D03*
Y006145D02*
D03*
X004895Y007035D02*
D03*
Y006939D02*
D03*
Y006853D02*
D03*
Y006745D02*
D03*
X004905Y005035D02*
D03*
Y004935D02*
D03*
Y006035D02*
D03*
Y005853D02*
D03*
Y005755D02*
D03*
Y005245D02*
D03*
Y005345D02*
D03*
X006563Y012461D02*
D03*
X006513D02*
D03*
X006463D02*
D03*
X006528Y011641D02*
D03*
X006488Y011661D02*
D03*
Y011611D02*
D03*
X006568Y011661D02*
D03*
X006413Y012461D02*
D03*
X005373Y011878D02*
D03*
X006568Y011613D02*
D03*
X006153Y012161D02*
D03*
X006153Y011543D02*
D03*
X005728Y012091D02*
D03*
X006618Y011744D02*
D03*
X006153Y011686D02*
D03*
X006341Y012433D02*
D03*
X006148D02*
D03*
X005948D02*
D03*
X006578Y011053D02*
D03*
X006148Y011036D02*
D03*
X005248Y011331D02*
D03*
X005210Y011291D02*
D03*
X005168Y011331D02*
D03*
X005128Y011291D02*
D03*
X005088Y011331D02*
D03*
X005168Y011251D02*
D03*
X005088D02*
D03*
X005370Y011203D02*
D03*
X006328Y012281D02*
D03*
X006433Y012028D02*
D03*
Y011978D02*
D03*
Y011928D02*
D03*
X005874Y011928D02*
D03*
X005908Y011861D02*
D03*
X005928Y011786D02*
D03*
X005874Y012029D02*
D03*
Y011978D02*
D03*
X006383Y011186D02*
D03*
X006408Y011241D02*
D03*
X006148Y012281D02*
D03*
X006433Y011307D02*
D03*
Y011358D02*
D03*
Y011408D02*
D03*
X005874Y011308D02*
D03*
X005908Y011241D02*
D03*
X005928Y011166D02*
D03*
X005874Y011409D02*
D03*
Y011358D02*
D03*
X005948Y012281D02*
D03*
X005688Y011461D02*
D03*
X005848Y011241D02*
D03*
X005529Y011496D02*
D03*
X005373Y011820D02*
D03*
X005088Y011531D02*
D03*
X005168D02*
D03*
X005373Y011936D02*
D03*
X005098Y012201D02*
D03*
Y011892D02*
D03*
X005373Y011993D02*
D03*
X005158Y011963D02*
D03*
X005398Y012433D02*
D03*
X005223Y012189D02*
D03*
X005628Y011101D02*
D03*
X005866Y011166D02*
D03*
X005398Y012281D02*
D03*
X005578Y012433D02*
D03*
X005359Y012190D02*
D03*
X005594Y011151D02*
D03*
X005762Y012281D02*
D03*
X005768Y012433D02*
D03*
X006563Y009461D02*
D03*
X006513D02*
D03*
X006463D02*
D03*
X006528Y008641D02*
D03*
X006488Y008661D02*
D03*
Y008611D02*
D03*
X006568Y008661D02*
D03*
X006413Y009461D02*
D03*
X005373Y008878D02*
D03*
X006568Y008613D02*
D03*
X006153Y009161D02*
D03*
X006153Y008543D02*
D03*
X005728Y009091D02*
D03*
X006618Y008744D02*
D03*
X006153Y008686D02*
D03*
X006341Y009433D02*
D03*
X006148D02*
D03*
X005948D02*
D03*
X006578Y008053D02*
D03*
X006148Y008036D02*
D03*
X005248Y008331D02*
D03*
X005210Y008291D02*
D03*
X005168Y008331D02*
D03*
X005128Y008291D02*
D03*
X005088Y008331D02*
D03*
X005168Y008251D02*
D03*
X005088D02*
D03*
X005370Y008203D02*
D03*
X006328Y009281D02*
D03*
X006433Y009028D02*
D03*
Y008978D02*
D03*
Y008928D02*
D03*
X005874Y008928D02*
D03*
X005908Y008861D02*
D03*
X005928Y008786D02*
D03*
X005874Y009029D02*
D03*
Y008978D02*
D03*
X006383Y008186D02*
D03*
X006408Y008241D02*
D03*
X006148Y009281D02*
D03*
X006433Y008408D02*
D03*
Y008307D02*
D03*
Y008358D02*
D03*
X005874Y008308D02*
D03*
X005908Y008241D02*
D03*
X005928Y008166D02*
D03*
X005874Y008409D02*
D03*
Y008358D02*
D03*
X005948Y009281D02*
D03*
X005688Y008461D02*
D03*
X005848Y008241D02*
D03*
X005529Y008496D02*
D03*
X005373Y008820D02*
D03*
X005088Y008531D02*
D03*
X005168D02*
D03*
X005373Y008936D02*
D03*
X005098Y009201D02*
D03*
Y008892D02*
D03*
X005373Y008993D02*
D03*
X005158Y009201D02*
D03*
Y008963D02*
D03*
X005398Y009433D02*
D03*
X005223Y009189D02*
D03*
X005628Y008101D02*
D03*
X005866Y008166D02*
D03*
X005398Y009281D02*
D03*
X005578Y009433D02*
D03*
X005288Y009190D02*
D03*
X005359Y009190D02*
D03*
X005594Y008151D02*
D03*
X005762Y009281D02*
D03*
X005768Y009433D02*
D03*
X006563Y010961D02*
D03*
X006513D02*
D03*
X006463D02*
D03*
X006528Y010141D02*
D03*
X006488Y010161D02*
D03*
Y010111D02*
D03*
X006568Y010161D02*
D03*
X006413Y010961D02*
D03*
X005373Y010378D02*
D03*
X006568Y010113D02*
D03*
X006153Y010661D02*
D03*
X006153Y010043D02*
D03*
X005728Y010591D02*
D03*
X006618Y010244D02*
D03*
X006153Y010186D02*
D03*
X006341Y010933D02*
D03*
X006148D02*
D03*
X005948D02*
D03*
X006148Y009536D02*
D03*
X005248Y009831D02*
D03*
X005210Y009791D02*
D03*
X005168Y009831D02*
D03*
X005128Y009791D02*
D03*
X005088Y009831D02*
D03*
X005168Y009751D02*
D03*
X005088D02*
D03*
X005370Y009703D02*
D03*
X006328Y010781D02*
D03*
X006433Y010528D02*
D03*
Y010478D02*
D03*
Y010428D02*
D03*
X005874Y010428D02*
D03*
X005908Y010361D02*
D03*
X005928Y010286D02*
D03*
X005874Y010529D02*
D03*
Y010478D02*
D03*
X006383Y009686D02*
D03*
X006408Y009741D02*
D03*
X006148Y010781D02*
D03*
X006433Y009908D02*
D03*
Y009807D02*
D03*
Y009858D02*
D03*
X005874Y009808D02*
D03*
X005908Y009741D02*
D03*
X005928Y009666D02*
D03*
X005874Y009909D02*
D03*
Y009858D02*
D03*
X005948Y010781D02*
D03*
X005688Y009961D02*
D03*
X005848Y009741D02*
D03*
X005529Y009996D02*
D03*
X005373Y010320D02*
D03*
X005088Y010031D02*
D03*
X005168D02*
D03*
X005373Y010436D02*
D03*
X005098Y010701D02*
D03*
Y010392D02*
D03*
X005373Y010493D02*
D03*
X005158Y010701D02*
D03*
Y010463D02*
D03*
X005398Y010933D02*
D03*
X005223Y010689D02*
D03*
X005628Y009601D02*
D03*
X005866Y009666D02*
D03*
X005398Y010781D02*
D03*
X005578Y010933D02*
D03*
X005288Y010690D02*
D03*
X005359Y010690D02*
D03*
X005594Y009651D02*
D03*
X005762Y010781D02*
D03*
X005768Y010933D02*
D03*
X006563Y007961D02*
D03*
X006513D02*
D03*
X006463D02*
D03*
X006528Y007141D02*
D03*
X006488Y007161D02*
D03*
Y007111D02*
D03*
X006568Y007161D02*
D03*
X006413Y007961D02*
D03*
X005373Y007378D02*
D03*
X006568Y007113D02*
D03*
X006153Y007661D02*
D03*
X006153Y007043D02*
D03*
X005728Y007591D02*
D03*
X006618Y007244D02*
D03*
X006153Y007186D02*
D03*
X006341Y007933D02*
D03*
X006148D02*
D03*
X005948D02*
D03*
X006148Y006536D02*
D03*
X005248Y006831D02*
D03*
X005210Y006791D02*
D03*
X005168Y006831D02*
D03*
X005128Y006791D02*
D03*
X005088Y006831D02*
D03*
X005168Y006751D02*
D03*
X005088D02*
D03*
X005370Y006703D02*
D03*
X006328Y007781D02*
D03*
X006433Y007528D02*
D03*
Y007478D02*
D03*
Y007428D02*
D03*
X005874Y007428D02*
D03*
X005908Y007361D02*
D03*
X005928Y007286D02*
D03*
X005874Y007529D02*
D03*
Y007478D02*
D03*
X006383Y006686D02*
D03*
X006408Y006741D02*
D03*
X006148Y007781D02*
D03*
X006433Y006908D02*
D03*
Y006807D02*
D03*
Y006858D02*
D03*
X005874Y006808D02*
D03*
X005908Y006741D02*
D03*
X005928Y006666D02*
D03*
X005874Y006909D02*
D03*
Y006858D02*
D03*
X005948Y007781D02*
D03*
X005688Y006961D02*
D03*
X005848Y006741D02*
D03*
X005529Y006996D02*
D03*
X005373Y007320D02*
D03*
X005088Y007031D02*
D03*
X005168D02*
D03*
X005373Y007436D02*
D03*
X005098Y007701D02*
D03*
Y007392D02*
D03*
X005373Y007493D02*
D03*
X005158Y007701D02*
D03*
Y007463D02*
D03*
X005398Y007933D02*
D03*
X005223Y007689D02*
D03*
X005628Y006601D02*
D03*
X005866Y006666D02*
D03*
X005398Y007781D02*
D03*
X005578Y007933D02*
D03*
X005288Y007690D02*
D03*
X005359Y007690D02*
D03*
X005594Y006651D02*
D03*
X005762Y007781D02*
D03*
X005768Y007933D02*
D03*
X006578Y005053D02*
D03*
X005098Y005892D02*
D03*
X005158Y005963D02*
D03*
X005373Y005993D02*
D03*
Y005878D02*
D03*
Y005820D02*
D03*
Y005936D02*
D03*
X005359Y006190D02*
D03*
X005288Y006190D02*
D03*
X005088Y005251D02*
D03*
X005128Y005291D02*
D03*
X005210D02*
D03*
X005168Y005251D02*
D03*
X005248Y005331D02*
D03*
X005168D02*
D03*
X005088D02*
D03*
X006148Y005036D02*
D03*
X005628Y005101D02*
D03*
X005594Y005151D02*
D03*
X006528Y005641D02*
D03*
X006488Y005611D02*
D03*
Y005661D02*
D03*
X006568D02*
D03*
Y005613D02*
D03*
X006618Y005744D02*
D03*
X006153Y006161D02*
D03*
X005728Y006091D02*
D03*
X005762Y006281D02*
D03*
X005948D02*
D03*
X006148D02*
D03*
X005948Y006433D02*
D03*
X005768D02*
D03*
X005398D02*
D03*
X005578D02*
D03*
X005223Y006189D02*
D03*
X005398Y006281D02*
D03*
X005098Y006201D02*
D03*
X005158D02*
D03*
X005088Y005531D02*
D03*
X005168D02*
D03*
X006148Y006433D02*
D03*
X005688Y005461D02*
D03*
X006383Y005186D02*
D03*
X006408Y005241D02*
D03*
X005928Y005786D02*
D03*
X005908Y005861D02*
D03*
Y005241D02*
D03*
X005848D02*
D03*
X005928Y005166D02*
D03*
X006563Y006461D02*
D03*
X006463D02*
D03*
X006513D02*
D03*
X006413D02*
D03*
X005529Y005496D02*
D03*
X005874Y005308D02*
D03*
Y005409D02*
D03*
Y005358D02*
D03*
Y005978D02*
D03*
Y006029D02*
D03*
Y005928D02*
D03*
X005370Y005203D02*
D03*
X006153Y005686D02*
D03*
X006433Y005978D02*
D03*
Y005928D02*
D03*
Y006028D02*
D03*
X006153Y005543D02*
D03*
X005866Y005166D02*
D03*
D158*
X012660Y009090D02*
D03*
X012460D02*
D03*
Y009350D02*
D03*
X012660D02*
D03*
Y009640D02*
D03*
X012460D02*
D03*
Y009900D02*
D03*
X012660D02*
D03*
Y010187D02*
D03*
X012460D02*
D03*
Y010447D02*
D03*
X012660D02*
D03*
Y010731D02*
D03*
X012460D02*
D03*
Y010991D02*
D03*
X012660D02*
D03*
D159*
X005635Y004465D02*
D03*
D160*
X003958Y004621D02*
D03*
Y011986D02*
D03*
X012531Y012240D02*
D03*
Y004240D02*
D03*
D161*
X010560Y009822D02*
D03*
X010635Y011665D02*
D03*
X009975Y010515D02*
D03*
X004685Y012222D02*
D03*
X004905D02*
D03*
X004585Y012154D02*
D03*
X004785D02*
D03*
X006665Y006705D02*
D03*
X006885Y006715D02*
D03*
X006655Y011245D02*
D03*
X006665Y009765D02*
D03*
X006655Y008125D02*
D03*
X008965Y006895D02*
D03*
X007025Y005285D02*
D03*
X008965Y012085D02*
D03*
X006885Y011905D02*
D03*
X007025Y010475D02*
D03*
X008965Y008625D02*
D03*
X006885Y008445D02*
D03*
X007025Y007015D02*
D03*
X006885Y010175D02*
D03*
X008965Y010355D02*
D03*
X007025Y008745D02*
D03*
D162*
X005561Y006808D02*
D03*
Y005308D02*
D03*
Y009808D02*
D03*
Y008308D02*
D03*
Y011308D02*
D03*
D163*
X009935Y004565D02*
D03*
X005135D02*
D03*
D182*
X011575Y011585D02*
D03*
D183*
X011795D02*
D03*
D184*
X010118Y006975D02*
D03*
X010245D02*
D03*
X010372D02*
D03*
X010499D02*
D03*
X010626D02*
D03*
X010753D02*
D03*
X010880D02*
D03*
X011007D02*
D03*
X010118Y006060D02*
D03*
X010245D02*
D03*
X010372D02*
D03*
X010499D02*
D03*
X010626D02*
D03*
X010753D02*
D03*
X010880D02*
D03*
X011007D02*
D03*
D185*
X009872Y006355D02*
D03*
D186*
X009491Y006990D02*
D03*
X009618D02*
D03*
X009745D02*
D03*
X009872D02*
D03*
X009491Y006355D02*
D03*
X009618D02*
D03*
X009745D02*
D03*
D187*
X009760Y009455D02*
D03*
X009960D02*
D03*
Y009227D02*
D03*
X009760D02*
D03*
D188*
X009975Y009825D02*
D03*
X010375D02*
D03*
X009975Y010333D02*
D03*
D189*
X010375D02*
D03*
D190*
X007047Y011333D02*
D03*
X007098D02*
D03*
X007251Y011815D02*
D03*
Y011333D02*
D03*
X007200D02*
D03*
X007149D02*
D03*
X007200Y011815D02*
D03*
X007149D02*
D03*
X007098D02*
D03*
X007047Y009603D02*
D03*
X007098D02*
D03*
X007251Y010086D02*
D03*
Y009603D02*
D03*
X007200D02*
D03*
X007149D02*
D03*
X007200Y010086D02*
D03*
X007149D02*
D03*
X007098D02*
D03*
X007047Y007873D02*
D03*
X007098D02*
D03*
X007251Y008355D02*
D03*
Y007873D02*
D03*
X007200D02*
D03*
X007149D02*
D03*
X007200Y008355D02*
D03*
X007149D02*
D03*
X007098D02*
D03*
X007047Y006143D02*
D03*
X007098D02*
D03*
X007251Y006625D02*
D03*
Y006143D02*
D03*
X007200D02*
D03*
X007149D02*
D03*
X007200Y006625D02*
D03*
X007149D02*
D03*
X007098D02*
D03*
D191*
X007047Y011815D02*
D03*
X007047Y010086D02*
D03*
Y008355D02*
D03*
Y006625D02*
D03*
M02*
