G04*
G04 #@! TF.GenerationSoftware,Altium Limited,Altium Designer,20.1.11 (218)*
G04*
G04 Layer_Color=8388736*
%FSAX42Y42*%
%MOMM*%
G71*
G04*
G04 #@! TF.SameCoordinates,F3C0A85A-D470-4F3B-B7C9-65F3AFEF91C2*
G04*
G04*
G04 #@! TF.FilePolarity,Negative*
G04*
G01*
G75*
%ADD24R,1.30X2.20*%
%ADD25R,2.60X3.20*%
%ADD26R,0.60X1.95*%
%ADD27C,3.00*%
G04:AMPARAMS|DCode=28|XSize=1.09mm|YSize=1.47mm|CornerRadius=0mm|HoleSize=0mm|Usage=FLASHONLY|Rotation=225.000|XOffset=0mm|YOffset=0mm|HoleType=Round|Shape=Rectangle|*
%AMROTATEDRECTD28*
4,1,4,-0.13,0.90,0.90,-0.13,0.13,-0.90,-0.90,0.13,-0.13,0.90,0.0*
%
%ADD28ROTATEDRECTD28*%

%ADD29R,1.47X1.09*%
G04:AMPARAMS|DCode=30|XSize=1.1mm|YSize=1.15mm|CornerRadius=0.33mm|HoleSize=0mm|Usage=FLASHONLY|Rotation=180.000|XOffset=0mm|YOffset=0mm|HoleType=Round|Shape=RoundedRectangle|*
%AMROUNDEDRECTD30*
21,1,1.10,0.50,0,0,180.0*
21,1,0.45,1.15,0,0,180.0*
1,1,0.65,-0.23,0.25*
1,1,0.65,0.23,0.25*
1,1,0.65,0.23,-0.25*
1,1,0.65,-0.23,-0.25*
%
%ADD30ROUNDEDRECTD30*%
%ADD31R,1.10X1.15*%
%ADD32R,1.10X1.15*%
G04:AMPARAMS|DCode=33|XSize=0.9mm|YSize=0.7mm|CornerRadius=0.23mm|HoleSize=0mm|Usage=FLASHONLY|Rotation=90.000|XOffset=0mm|YOffset=0mm|HoleType=Round|Shape=RoundedRectangle|*
%AMROUNDEDRECTD33*
21,1,0.90,0.25,0,0,90.0*
21,1,0.45,0.70,0,0,90.0*
1,1,0.45,0.13,0.23*
1,1,0.45,0.13,-0.23*
1,1,0.45,-0.13,-0.23*
1,1,0.45,-0.13,0.23*
%
%ADD33ROUNDEDRECTD33*%
%ADD34R,0.70X0.90*%
G04:AMPARAMS|DCode=35|XSize=0.9mm|YSize=1.1mm|CornerRadius=0.28mm|HoleSize=0mm|Usage=FLASHONLY|Rotation=180.000|XOffset=0mm|YOffset=0mm|HoleType=Round|Shape=RoundedRectangle|*
%AMROUNDEDRECTD35*
21,1,0.90,0.55,0,0,180.0*
21,1,0.35,1.10,0,0,180.0*
1,1,0.55,-0.18,0.28*
1,1,0.55,0.18,0.28*
1,1,0.55,0.18,-0.28*
1,1,0.55,-0.18,-0.28*
%
%ADD35ROUNDEDRECTD35*%
%ADD36R,0.90X1.10*%
%ADD37R,1.22X1.01*%
%ADD38R,1.01X1.22*%
%ADD39R,0.80X2.15*%
%ADD40O,0.80X2.15*%
%ADD41R,1.85X2.90*%
%ADD42R,0.45X0.80*%
%ADD43R,0.80X0.45*%
G04:AMPARAMS|DCode=44|XSize=0.6mm|YSize=0.7mm|CornerRadius=0.2mm|HoleSize=0mm|Usage=FLASHONLY|Rotation=0.000|XOffset=0mm|YOffset=0mm|HoleType=Round|Shape=RoundedRectangle|*
%AMROUNDEDRECTD44*
21,1,0.60,0.30,0,0,0.0*
21,1,0.20,0.70,0,0,0.0*
1,1,0.40,0.10,-0.15*
1,1,0.40,-0.10,-0.15*
1,1,0.40,-0.10,0.15*
1,1,0.40,0.10,0.15*
%
%ADD44ROUNDEDRECTD44*%
%ADD45R,0.60X0.70*%
%ADD46R,2.10X1.30*%
%ADD47R,2.00X1.47*%
%ADD48R,2.74X2.23*%
G04:AMPARAMS|DCode=49|XSize=0.5mm|YSize=1.65mm|CornerRadius=0.18mm|HoleSize=0mm|Usage=FLASHONLY|Rotation=0.000|XOffset=0mm|YOffset=0mm|HoleType=Round|Shape=RoundedRectangle|*
%AMROUNDEDRECTD49*
21,1,0.50,1.30,0,0,0.0*
21,1,0.15,1.65,0,0,0.0*
1,1,0.35,0.08,-0.65*
1,1,0.35,-0.08,-0.65*
1,1,0.35,-0.08,0.65*
1,1,0.35,0.08,0.65*
%
%ADD49ROUNDEDRECTD49*%
%ADD50R,0.50X1.65*%
%ADD51R,1.47X2.00*%
G04:AMPARAMS|DCode=52|XSize=1.1mm|YSize=1.15mm|CornerRadius=0.33mm|HoleSize=0mm|Usage=FLASHONLY|Rotation=90.000|XOffset=0mm|YOffset=0mm|HoleType=Round|Shape=RoundedRectangle|*
%AMROUNDEDRECTD52*
21,1,1.10,0.50,0,0,90.0*
21,1,0.45,1.15,0,0,90.0*
1,1,0.65,0.25,0.23*
1,1,0.65,0.25,-0.23*
1,1,0.65,-0.25,-0.23*
1,1,0.65,-0.25,0.23*
%
%ADD52ROUNDEDRECTD52*%
%ADD53R,1.15X1.10*%
%ADD54R,1.15X1.10*%
%ADD55O,1.98X0.84*%
%ADD56R,1.98X0.80*%
G04:AMPARAMS|DCode=57|XSize=1.1mm|YSize=0.8mm|CornerRadius=0.25mm|HoleSize=0mm|Usage=FLASHONLY|Rotation=270.000|XOffset=0mm|YOffset=0mm|HoleType=Round|Shape=RoundedRectangle|*
%AMROUNDEDRECTD57*
21,1,1.10,0.30,0,0,270.0*
21,1,0.60,0.80,0,0,270.0*
1,1,0.50,-0.15,-0.30*
1,1,0.50,-0.15,0.30*
1,1,0.50,0.15,0.30*
1,1,0.50,0.15,-0.30*
%
%ADD57ROUNDEDRECTD57*%
%ADD58R,0.80X1.10*%
%ADD59R,2.23X2.74*%
%ADD60R,2.15X0.80*%
%ADD61O,2.15X0.80*%
%ADD62O,2.50X0.80*%
%ADD63O,1.05X0.60*%
%ADD64R,1.05X0.60*%
%ADD65R,0.55X1.80*%
%ADD66R,1.80X0.55*%
%ADD67O,1.80X0.55*%
G04:AMPARAMS|DCode=68|XSize=2.3mm|YSize=3.2mm|CornerRadius=0.31mm|HoleSize=0mm|Usage=FLASHONLY|Rotation=90.000|XOffset=0mm|YOffset=0mm|HoleType=Round|Shape=RoundedRectangle|*
%AMROUNDEDRECTD68*
21,1,2.30,2.58,0,0,90.0*
21,1,1.68,3.20,0,0,90.0*
1,1,0.62,1.29,0.84*
1,1,0.62,1.29,-0.84*
1,1,0.62,-1.29,-0.84*
1,1,0.62,-1.29,0.84*
%
%ADD68ROUNDEDRECTD68*%
%ADD69R,1.80X1.00*%
G04:AMPARAMS|DCode=70|XSize=1mm|YSize=1.8mm|CornerRadius=0.18mm|HoleSize=0mm|Usage=FLASHONLY|Rotation=90.000|XOffset=0mm|YOffset=0mm|HoleType=Round|Shape=RoundedRectangle|*
%AMROUNDEDRECTD70*
21,1,1.00,1.44,0,0,90.0*
21,1,0.64,1.80,0,0,90.0*
1,1,0.36,0.72,0.32*
1,1,0.36,0.72,-0.32*
1,1,0.36,-0.72,-0.32*
1,1,0.36,-0.72,0.32*
%
%ADD70ROUNDEDRECTD70*%
%ADD71O,1.25X2.20*%
%ADD72R,1.25X2.20*%
%ADD73R,1.72X0.84*%
%ADD74O,1.72X0.84*%
%ADD75R,3.25X4.26*%
%ADD76O,1.50X1.70*%
%ADD77C,2.10*%
G04:AMPARAMS|DCode=78|XSize=1.72mm|YSize=1.72mm|CornerRadius=0.48mm|HoleSize=0mm|Usage=FLASHONLY|Rotation=90.000|XOffset=0mm|YOffset=0mm|HoleType=Round|Shape=RoundedRectangle|*
%AMROUNDEDRECTD78*
21,1,1.72,0.76,0,0,90.0*
21,1,0.76,1.72,0,0,90.0*
1,1,0.96,0.38,0.38*
1,1,0.96,0.38,-0.38*
1,1,0.96,-0.38,-0.38*
1,1,0.96,-0.38,0.38*
%
%ADD78ROUNDEDRECTD78*%
%ADD79C,1.72*%
%ADD80C,1.40*%
%ADD81C,0.70*%
%ADD82R,1.70X1.70*%
%ADD83C,1.70*%
%ADD84R,1.70X1.70*%
%ADD85C,0.60*%
%ADD86C,1.00*%
%ADD87R,1.40X1.40*%
%ADD88C,6.55*%
%ADD89C,0.80*%
%ADD90C,0.90*%
%ADD91C,1.20*%
%ADD92C,1.50*%
%ADD93C,1.30*%
%ADD94C,4.70*%
D24*
X011810Y012225D02*
D03*
X011340Y012225D02*
D03*
D25*
X011575Y012538D02*
D03*
X011872D02*
D03*
X011278D02*
D03*
D26*
X011705Y012225D02*
D03*
X011640D02*
D03*
X011575D02*
D03*
X011510D02*
D03*
X011445D02*
D03*
D27*
X011997Y011315D02*
D03*
X012080Y004583D02*
D03*
X006434Y004162D02*
D03*
D28*
X012322Y011796D02*
D03*
X012181Y011655D02*
D03*
D29*
X010635Y012028D02*
D03*
Y011825D02*
D03*
X010235D02*
D03*
Y012028D02*
D03*
X009835D02*
D03*
Y011825D02*
D03*
D30*
X011025Y005580D02*
D03*
X009780Y005575D02*
D03*
X010460Y005580D02*
D03*
D31*
X010835Y005580D02*
D03*
X009590Y005575D02*
D03*
X010270Y005580D02*
D03*
D32*
X010930Y005330D02*
D03*
X009685Y005325D02*
D03*
X010365Y005330D02*
D03*
D33*
X010970Y006115D02*
D03*
D34*
Y006335D02*
D03*
D35*
X010905Y006545D02*
D03*
D36*
X011035D02*
D03*
X010970Y006735D02*
D03*
D37*
X010940Y007070D02*
D03*
Y006918D02*
D03*
X010775Y007070D02*
D03*
Y006918D02*
D03*
X006238Y007933D02*
D03*
Y007781D02*
D03*
X006050Y007933D02*
D03*
Y007781D02*
D03*
X005862Y007933D02*
D03*
Y007781D02*
D03*
X005297Y007933D02*
D03*
Y007781D02*
D03*
X005108Y007933D02*
D03*
Y007781D02*
D03*
X005487D02*
D03*
Y007933D02*
D03*
X005675Y007781D02*
D03*
Y007933D02*
D03*
X005108Y012281D02*
D03*
Y012433D02*
D03*
X005297D02*
D03*
Y012281D02*
D03*
X005108Y009433D02*
D03*
Y009281D02*
D03*
X005297Y009433D02*
D03*
Y009281D02*
D03*
X005108Y010933D02*
D03*
Y010781D02*
D03*
X005297Y010933D02*
D03*
Y010781D02*
D03*
Y006433D02*
D03*
Y006281D02*
D03*
X005108Y006433D02*
D03*
Y006281D02*
D03*
X007405Y010815D02*
D03*
Y010663D02*
D03*
X007405Y009085D02*
D03*
Y008933D02*
D03*
Y007355D02*
D03*
Y007203D02*
D03*
X007453Y006895D02*
D03*
Y006743D02*
D03*
X007405Y005473D02*
D03*
Y005625D02*
D03*
X011365Y011987D02*
D03*
Y011835D02*
D03*
X011795Y011987D02*
D03*
Y011835D02*
D03*
X011955D02*
D03*
Y011987D02*
D03*
X011205Y011835D02*
D03*
Y011987D02*
D03*
X011515Y008327D02*
D03*
Y008175D02*
D03*
X011325Y008327D02*
D03*
Y008175D02*
D03*
X011705D02*
D03*
Y008327D02*
D03*
Y005425D02*
D03*
Y005577D02*
D03*
X011515D02*
D03*
Y005425D02*
D03*
X011325Y005577D02*
D03*
Y005425D02*
D03*
X006238Y009433D02*
D03*
Y009281D02*
D03*
X005862Y009433D02*
D03*
Y009281D02*
D03*
Y012281D02*
D03*
Y012433D02*
D03*
X006238Y012281D02*
D03*
Y012433D02*
D03*
Y006281D02*
D03*
Y006433D02*
D03*
X005675D02*
D03*
Y006281D02*
D03*
X006050D02*
D03*
Y006433D02*
D03*
X005862Y006281D02*
D03*
Y006433D02*
D03*
X005487D02*
D03*
Y006281D02*
D03*
X006238Y010933D02*
D03*
Y010781D02*
D03*
X006050Y010933D02*
D03*
Y010781D02*
D03*
X005862Y010933D02*
D03*
Y010781D02*
D03*
X005487D02*
D03*
Y010933D02*
D03*
X005675Y010781D02*
D03*
Y010933D02*
D03*
X005487Y009281D02*
D03*
Y009433D02*
D03*
X005675Y009281D02*
D03*
Y009433D02*
D03*
X005487Y012281D02*
D03*
Y012433D02*
D03*
X005675Y012281D02*
D03*
Y012433D02*
D03*
X006050Y009433D02*
D03*
Y009281D02*
D03*
Y012433D02*
D03*
Y012281D02*
D03*
X008863Y010815D02*
D03*
Y010663D02*
D03*
X007453Y012085D02*
D03*
Y011933D02*
D03*
X008805Y012087D02*
D03*
Y011935D02*
D03*
X008863Y009085D02*
D03*
Y008933D02*
D03*
X007453Y010355D02*
D03*
Y010203D02*
D03*
X008805Y010357D02*
D03*
Y010205D02*
D03*
X008863Y007355D02*
D03*
Y007203D02*
D03*
X007453Y008625D02*
D03*
Y008473D02*
D03*
X008805Y008627D02*
D03*
Y008475D02*
D03*
Y006745D02*
D03*
Y006897D02*
D03*
X008863Y005473D02*
D03*
Y005625D02*
D03*
D38*
X009603Y005730D02*
D03*
X009755D02*
D03*
X005370Y006564D02*
D03*
X005523D02*
D03*
X005703D02*
D03*
X005855D02*
D03*
X008983Y007035D02*
D03*
X008830D02*
D03*
X008983Y008765D02*
D03*
X008830D02*
D03*
X009980Y007165D02*
D03*
X010132D02*
D03*
X010480Y005735D02*
D03*
X010328D02*
D03*
X005370Y008064D02*
D03*
X005523D02*
D03*
Y011064D02*
D03*
X005370D02*
D03*
X005855Y005064D02*
D03*
X005703D02*
D03*
X005523D02*
D03*
X005370D02*
D03*
Y009564D02*
D03*
X005523D02*
D03*
X005703D02*
D03*
X005855D02*
D03*
X005703Y008064D02*
D03*
X005855D02*
D03*
X005703Y011064D02*
D03*
X005855D02*
D03*
X007405Y010505D02*
D03*
X007253D02*
D03*
X008830Y010495D02*
D03*
X008983D02*
D03*
X007210Y011157D02*
D03*
X007058D02*
D03*
X007210Y011305D02*
D03*
X007058D02*
D03*
X007077Y011743D02*
D03*
X007230D02*
D03*
X007080Y011925D02*
D03*
X007233D02*
D03*
X007235Y012075D02*
D03*
X007083D02*
D03*
X007405Y008775D02*
D03*
X007253D02*
D03*
X007210Y009427D02*
D03*
X007058D02*
D03*
X007210Y009575D02*
D03*
X007058D02*
D03*
X007077Y010013D02*
D03*
X007230D02*
D03*
X007080Y010195D02*
D03*
X007233D02*
D03*
X007235Y010345D02*
D03*
X007083D02*
D03*
X007405Y007045D02*
D03*
X007253D02*
D03*
X007210Y007697D02*
D03*
X007058D02*
D03*
X007210Y007845D02*
D03*
X007058D02*
D03*
X007077Y008283D02*
D03*
X007230D02*
D03*
X007080Y008465D02*
D03*
X007233D02*
D03*
X007235Y008615D02*
D03*
X007083D02*
D03*
X008982Y005297D02*
D03*
X008830D02*
D03*
X007253Y005315D02*
D03*
X007405D02*
D03*
X007058Y005967D02*
D03*
X007210D02*
D03*
X007058Y006115D02*
D03*
X007210D02*
D03*
X007230Y006553D02*
D03*
X007077D02*
D03*
X007233Y006735D02*
D03*
X007080D02*
D03*
X007083Y006885D02*
D03*
X007235D02*
D03*
D39*
X009491Y005940D02*
D03*
X009618D02*
D03*
X009745D02*
D03*
X009872D02*
D03*
X009491Y006990D02*
D03*
X009618D02*
D03*
X009745D02*
D03*
X010495D02*
D03*
X010368D02*
D03*
X010241D02*
D03*
X010622Y005940D02*
D03*
X010495D02*
D03*
X010368D02*
D03*
X010241D02*
D03*
D40*
X009872Y006990D02*
D03*
X010622D02*
D03*
D41*
X011512Y007846D02*
D03*
X012012Y007845D02*
D03*
X011512Y005096D02*
D03*
X012012Y005095D02*
D03*
X006153Y007428D02*
D03*
Y006808D02*
D03*
Y011308D02*
D03*
Y011928D02*
D03*
Y008928D02*
D03*
Y008308D02*
D03*
Y005928D02*
D03*
Y005308D02*
D03*
Y010428D02*
D03*
Y009808D02*
D03*
D42*
X011488Y008009D02*
D03*
X011538D02*
D03*
Y007684D02*
D03*
X011488D02*
D03*
X011988Y008007D02*
D03*
X012038D02*
D03*
Y007682D02*
D03*
X011988D02*
D03*
X011488Y005259D02*
D03*
X011538D02*
D03*
Y004934D02*
D03*
X011488D02*
D03*
X011988Y005258D02*
D03*
X012037D02*
D03*
Y004933D02*
D03*
X011988D02*
D03*
X006178Y007266D02*
D03*
X006128D02*
D03*
Y007591D02*
D03*
X006178D02*
D03*
Y006646D02*
D03*
X006128D02*
D03*
Y006971D02*
D03*
X006178D02*
D03*
Y011146D02*
D03*
X006128D02*
D03*
Y011471D02*
D03*
X006178D02*
D03*
Y012091D02*
D03*
X006128D02*
D03*
Y011766D02*
D03*
X006178D02*
D03*
Y008766D02*
D03*
X006128D02*
D03*
Y009091D02*
D03*
X006178D02*
D03*
Y008471D02*
D03*
X006128D02*
D03*
Y008146D02*
D03*
X006178D02*
D03*
Y005766D02*
D03*
X006128D02*
D03*
Y006091D02*
D03*
X006178D02*
D03*
Y005146D02*
D03*
X006128D02*
D03*
Y005471D02*
D03*
X006178D02*
D03*
Y010266D02*
D03*
X006128D02*
D03*
Y010591D02*
D03*
X006178D02*
D03*
Y009971D02*
D03*
X006128D02*
D03*
Y009646D02*
D03*
X006178D02*
D03*
D43*
X011680Y007796D02*
D03*
Y007746D02*
D03*
X011680Y007946D02*
D03*
X011680Y007896D02*
D03*
Y007846D02*
D03*
X011345Y007746D02*
D03*
Y007796D02*
D03*
Y007846D02*
D03*
Y007896D02*
D03*
Y007946D02*
D03*
X012180Y007795D02*
D03*
Y007745D02*
D03*
X012180Y007945D02*
D03*
X012180Y007895D02*
D03*
Y007845D02*
D03*
X011845Y007745D02*
D03*
Y007795D02*
D03*
Y007845D02*
D03*
Y007895D02*
D03*
Y007945D02*
D03*
X011680Y005046D02*
D03*
Y004996D02*
D03*
X011680Y005196D02*
D03*
X011680Y005146D02*
D03*
Y005096D02*
D03*
X011345Y004996D02*
D03*
Y005046D02*
D03*
Y005096D02*
D03*
Y005146D02*
D03*
Y005196D02*
D03*
X012180Y005045D02*
D03*
Y004995D02*
D03*
X012180Y005195D02*
D03*
X012180Y005145D02*
D03*
Y005095D02*
D03*
X011845Y004995D02*
D03*
Y005045D02*
D03*
Y005095D02*
D03*
Y005145D02*
D03*
Y005195D02*
D03*
X005986Y007478D02*
D03*
Y007528D02*
D03*
X005986Y007328D02*
D03*
X005986Y007378D02*
D03*
Y007428D02*
D03*
X006321Y007528D02*
D03*
Y007478D02*
D03*
Y007428D02*
D03*
Y007378D02*
D03*
Y007328D02*
D03*
X005986Y006858D02*
D03*
Y006908D02*
D03*
X005986Y006708D02*
D03*
X005986Y006758D02*
D03*
Y006808D02*
D03*
X006321Y006908D02*
D03*
Y006858D02*
D03*
Y006808D02*
D03*
Y006758D02*
D03*
Y006708D02*
D03*
X005986Y011358D02*
D03*
Y011408D02*
D03*
X005986Y011208D02*
D03*
X005986Y011258D02*
D03*
Y011308D02*
D03*
X006321Y011408D02*
D03*
Y011358D02*
D03*
Y011308D02*
D03*
Y011258D02*
D03*
Y011208D02*
D03*
Y011828D02*
D03*
Y011878D02*
D03*
Y011928D02*
D03*
Y011978D02*
D03*
Y012028D02*
D03*
X005986Y011928D02*
D03*
Y011878D02*
D03*
X005986Y011828D02*
D03*
X005986Y012028D02*
D03*
Y011978D02*
D03*
Y008978D02*
D03*
Y009028D02*
D03*
X005986Y008828D02*
D03*
X005986Y008878D02*
D03*
Y008928D02*
D03*
X006321Y009028D02*
D03*
Y008978D02*
D03*
Y008928D02*
D03*
Y008878D02*
D03*
Y008828D02*
D03*
Y008208D02*
D03*
Y008258D02*
D03*
Y008308D02*
D03*
Y008358D02*
D03*
Y008408D02*
D03*
X005986Y008308D02*
D03*
Y008258D02*
D03*
X005986Y008208D02*
D03*
X005986Y008408D02*
D03*
Y008358D02*
D03*
Y005978D02*
D03*
Y006028D02*
D03*
X005986Y005828D02*
D03*
X005986Y005878D02*
D03*
Y005928D02*
D03*
X006321Y006028D02*
D03*
Y005978D02*
D03*
Y005928D02*
D03*
Y005878D02*
D03*
Y005828D02*
D03*
X005986Y005358D02*
D03*
Y005408D02*
D03*
X005986Y005208D02*
D03*
X005986Y005258D02*
D03*
Y005308D02*
D03*
X006321Y005408D02*
D03*
Y005358D02*
D03*
Y005308D02*
D03*
Y005258D02*
D03*
Y005208D02*
D03*
X005986Y010478D02*
D03*
Y010528D02*
D03*
X005986Y010328D02*
D03*
X005986Y010378D02*
D03*
Y010428D02*
D03*
X006321Y010528D02*
D03*
Y010478D02*
D03*
Y010428D02*
D03*
Y010378D02*
D03*
Y010328D02*
D03*
Y009708D02*
D03*
Y009758D02*
D03*
Y009808D02*
D03*
Y009858D02*
D03*
Y009908D02*
D03*
X005986Y009808D02*
D03*
Y009758D02*
D03*
X005986Y009708D02*
D03*
X005986Y009908D02*
D03*
Y009858D02*
D03*
D44*
X005659Y006913D02*
D03*
Y005413D02*
D03*
Y009913D02*
D03*
Y008413D02*
D03*
Y011413D02*
D03*
D45*
X005594Y006913D02*
D03*
X005529D02*
D03*
X005464D02*
D03*
X005659Y006703D02*
D03*
X005594D02*
D03*
X005529D02*
D03*
X005464D02*
D03*
Y005203D02*
D03*
X005529D02*
D03*
X005594D02*
D03*
X005659D02*
D03*
X005464Y005413D02*
D03*
X005529D02*
D03*
X005594D02*
D03*
Y009913D02*
D03*
X005529D02*
D03*
X005464D02*
D03*
X005659Y009703D02*
D03*
X005594D02*
D03*
X005529D02*
D03*
X005464D02*
D03*
X005594Y008413D02*
D03*
X005529D02*
D03*
X005464D02*
D03*
X005659Y008203D02*
D03*
X005594D02*
D03*
X005529D02*
D03*
X005464D02*
D03*
Y011203D02*
D03*
X005529D02*
D03*
X005594D02*
D03*
X005659D02*
D03*
X005464Y011413D02*
D03*
X005529D02*
D03*
X005594D02*
D03*
D46*
X005561Y006808D02*
D03*
Y005308D02*
D03*
Y009808D02*
D03*
Y008308D02*
D03*
Y011308D02*
D03*
D47*
X005158Y006921D02*
D03*
X005158Y006601D02*
D03*
Y008101D02*
D03*
X005158Y008421D02*
D03*
X005158Y011101D02*
D03*
X005158Y011421D02*
D03*
X005158Y005101D02*
D03*
X005158Y005421D02*
D03*
Y009921D02*
D03*
X005158Y009601D02*
D03*
D48*
X005563Y007554D02*
D03*
Y007186D02*
D03*
Y005686D02*
D03*
Y006054D02*
D03*
Y010554D02*
D03*
Y010186D02*
D03*
Y009054D02*
D03*
Y008686D02*
D03*
Y011686D02*
D03*
Y012054D02*
D03*
D49*
X005323Y007583D02*
D03*
Y006083D02*
D03*
Y010583D02*
D03*
Y009083D02*
D03*
Y012083D02*
D03*
D50*
X005273Y007583D02*
D03*
X005223D02*
D03*
X005173D02*
D03*
X005123D02*
D03*
X005323Y007143D02*
D03*
X005273D02*
D03*
X005223D02*
D03*
X005173D02*
D03*
X005123D02*
D03*
X005273Y006083D02*
D03*
X005223D02*
D03*
X005173D02*
D03*
X005123D02*
D03*
X005323Y005643D02*
D03*
X005273D02*
D03*
X005223D02*
D03*
X005173D02*
D03*
X005123D02*
D03*
X005273Y010583D02*
D03*
X005223D02*
D03*
X005173D02*
D03*
X005123D02*
D03*
X005323Y010143D02*
D03*
X005273D02*
D03*
X005223D02*
D03*
X005173D02*
D03*
X005123D02*
D03*
X005273Y009083D02*
D03*
X005223D02*
D03*
X005173D02*
D03*
X005123D02*
D03*
X005323Y008643D02*
D03*
X005273D02*
D03*
X005223D02*
D03*
X005173D02*
D03*
X005123D02*
D03*
Y011643D02*
D03*
X005173D02*
D03*
X005223D02*
D03*
X005273D02*
D03*
X005323D02*
D03*
X005123Y012083D02*
D03*
X005173D02*
D03*
X005223D02*
D03*
X005273D02*
D03*
D51*
X009035Y004225D02*
D03*
X009355Y004225D02*
D03*
X009035Y004905D02*
D03*
X009355Y004905D02*
D03*
X007315Y012285D02*
D03*
X006995Y012285D02*
D03*
X012685Y007725D02*
D03*
X012365Y007725D02*
D03*
X012685Y004975D02*
D03*
X012365Y004975D02*
D03*
D52*
X007265Y010645D02*
D03*
X007265Y008915D02*
D03*
Y007185D02*
D03*
Y005455D02*
D03*
D53*
Y010835D02*
D03*
X007265Y009105D02*
D03*
Y007375D02*
D03*
Y005645D02*
D03*
D54*
X007015Y010740D02*
D03*
X007015Y009010D02*
D03*
Y007280D02*
D03*
Y005550D02*
D03*
D55*
X010460Y007748D02*
D03*
Y007875D02*
D03*
Y008002D02*
D03*
X009825Y007621D02*
D03*
Y007748D02*
D03*
Y007875D02*
D03*
Y008002D02*
D03*
D56*
X010460Y007621D02*
D03*
D57*
X011635Y011995D02*
D03*
D58*
X011535D02*
D03*
Y011825D02*
D03*
X011635D02*
D03*
D59*
X012365Y008036D02*
D03*
X012733D02*
D03*
X012365Y005286D02*
D03*
X012733D02*
D03*
D60*
X007600Y010930D02*
D03*
Y010803D02*
D03*
Y010676D02*
D03*
Y010549D02*
D03*
X008650Y010930D02*
D03*
Y010803D02*
D03*
Y010676D02*
D03*
X007600Y009200D02*
D03*
Y009073D02*
D03*
Y008946D02*
D03*
Y008819D02*
D03*
X008650Y009200D02*
D03*
Y009073D02*
D03*
Y008946D02*
D03*
X007600Y007470D02*
D03*
Y007343D02*
D03*
Y007216D02*
D03*
Y007089D02*
D03*
X008650Y007470D02*
D03*
Y007343D02*
D03*
Y007216D02*
D03*
X007600Y005740D02*
D03*
Y005613D02*
D03*
Y005486D02*
D03*
Y005359D02*
D03*
X008650Y005740D02*
D03*
Y005613D02*
D03*
Y005486D02*
D03*
D61*
X008650Y010549D02*
D03*
X008650Y008819D02*
D03*
Y007089D02*
D03*
Y005359D02*
D03*
D62*
X007660Y012044D02*
D03*
Y011918D02*
D03*
Y011790D02*
D03*
Y011664D02*
D03*
Y011536D02*
D03*
Y011410D02*
D03*
Y011282D02*
D03*
Y011156D02*
D03*
X008575Y012044D02*
D03*
Y011918D02*
D03*
Y011790D02*
D03*
Y011664D02*
D03*
Y011536D02*
D03*
Y011410D02*
D03*
Y011282D02*
D03*
Y011156D02*
D03*
X007660Y010314D02*
D03*
Y010188D02*
D03*
Y010061D02*
D03*
Y009933D02*
D03*
Y009807D02*
D03*
Y009679D02*
D03*
Y009553D02*
D03*
Y009425D02*
D03*
X008575Y010314D02*
D03*
Y010188D02*
D03*
Y010061D02*
D03*
Y009933D02*
D03*
Y009807D02*
D03*
Y009679D02*
D03*
Y009553D02*
D03*
Y009425D02*
D03*
X007660Y008585D02*
D03*
Y008457D02*
D03*
Y008331D02*
D03*
Y008204D02*
D03*
Y008076D02*
D03*
Y007950D02*
D03*
Y007822D02*
D03*
Y007696D02*
D03*
X008575Y008585D02*
D03*
Y008457D02*
D03*
Y008331D02*
D03*
Y008204D02*
D03*
Y008076D02*
D03*
Y007950D02*
D03*
Y007822D02*
D03*
Y007696D02*
D03*
X007660Y006854D02*
D03*
Y006728D02*
D03*
Y006600D02*
D03*
Y006474D02*
D03*
Y006347D02*
D03*
Y006219D02*
D03*
Y006092D02*
D03*
Y005965D02*
D03*
X008575Y006854D02*
D03*
Y006728D02*
D03*
Y006600D02*
D03*
Y006474D02*
D03*
Y006347D02*
D03*
Y006219D02*
D03*
Y006092D02*
D03*
Y005965D02*
D03*
D63*
X007043Y011610D02*
D03*
X007043Y009880D02*
D03*
Y008150D02*
D03*
Y006420D02*
D03*
D64*
X007043Y011545D02*
D03*
Y011480D02*
D03*
X007263D02*
D03*
Y011545D02*
D03*
Y011610D02*
D03*
X007043Y009815D02*
D03*
Y009750D02*
D03*
X007263D02*
D03*
Y009815D02*
D03*
Y009880D02*
D03*
X007043Y008085D02*
D03*
Y008020D02*
D03*
X007263D02*
D03*
Y008085D02*
D03*
Y008150D02*
D03*
X007043Y006355D02*
D03*
Y006290D02*
D03*
X007263D02*
D03*
Y006355D02*
D03*
Y006420D02*
D03*
D65*
X009740Y011057D02*
D03*
X009790D02*
D03*
X009840D02*
D03*
X009890D02*
D03*
X009940D02*
D03*
X009990D02*
D03*
X010040D02*
D03*
X010090D02*
D03*
X010140D02*
D03*
X010190D02*
D03*
X010240D02*
D03*
X010290D02*
D03*
X010340D02*
D03*
X010390D02*
D03*
X010440D02*
D03*
X010490D02*
D03*
X010540D02*
D03*
X010590D02*
D03*
X010640D02*
D03*
X010690D02*
D03*
X010740D02*
D03*
X010790D02*
D03*
X010840D02*
D03*
X010890D02*
D03*
X010940D02*
D03*
X010990D02*
D03*
X011040D02*
D03*
X011090D02*
D03*
X011140D02*
D03*
X011190D02*
D03*
X011240D02*
D03*
X011290D02*
D03*
X011340D02*
D03*
X011390D02*
D03*
X011440D02*
D03*
X011490D02*
D03*
Y008932D02*
D03*
X011440D02*
D03*
X011390D02*
D03*
X011340D02*
D03*
X011290D02*
D03*
X011240D02*
D03*
X011190D02*
D03*
X011140D02*
D03*
X011090D02*
D03*
X011040D02*
D03*
X010990D02*
D03*
X010940D02*
D03*
X010890D02*
D03*
X010840D02*
D03*
X010790D02*
D03*
X010740D02*
D03*
X010690D02*
D03*
X010640D02*
D03*
X010590D02*
D03*
X010540D02*
D03*
X010490D02*
D03*
X010440D02*
D03*
X010390D02*
D03*
X010340D02*
D03*
X010290D02*
D03*
X010240D02*
D03*
X010190D02*
D03*
X010140D02*
D03*
X010090D02*
D03*
X010040D02*
D03*
X009990D02*
D03*
X009940D02*
D03*
X009890D02*
D03*
X009840D02*
D03*
X009790D02*
D03*
X009740D02*
D03*
D66*
X011678Y010870D02*
D03*
Y010820D02*
D03*
Y010770D02*
D03*
Y010720D02*
D03*
Y010670D02*
D03*
Y010620D02*
D03*
Y010570D02*
D03*
Y010520D02*
D03*
Y010470D02*
D03*
Y010420D02*
D03*
Y010370D02*
D03*
Y010320D02*
D03*
Y010270D02*
D03*
Y010220D02*
D03*
Y010170D02*
D03*
Y010120D02*
D03*
Y010070D02*
D03*
Y010020D02*
D03*
Y009970D02*
D03*
Y009920D02*
D03*
Y009870D02*
D03*
Y009820D02*
D03*
Y009770D02*
D03*
Y009720D02*
D03*
Y009670D02*
D03*
Y009620D02*
D03*
Y009570D02*
D03*
Y009520D02*
D03*
Y009470D02*
D03*
Y009420D02*
D03*
Y009370D02*
D03*
Y009320D02*
D03*
Y009270D02*
D03*
Y009220D02*
D03*
Y009170D02*
D03*
Y009120D02*
D03*
X009553D02*
D03*
Y009170D02*
D03*
Y009220D02*
D03*
Y009270D02*
D03*
Y009320D02*
D03*
Y009370D02*
D03*
Y009420D02*
D03*
Y009470D02*
D03*
Y009520D02*
D03*
Y009570D02*
D03*
Y009620D02*
D03*
Y009670D02*
D03*
Y009720D02*
D03*
Y009770D02*
D03*
Y009820D02*
D03*
Y009870D02*
D03*
Y009920D02*
D03*
Y009970D02*
D03*
Y010020D02*
D03*
Y010070D02*
D03*
Y010120D02*
D03*
Y010170D02*
D03*
Y010220D02*
D03*
Y010270D02*
D03*
Y010320D02*
D03*
Y010370D02*
D03*
Y010420D02*
D03*
Y010470D02*
D03*
Y010520D02*
D03*
Y010570D02*
D03*
Y010620D02*
D03*
Y010670D02*
D03*
Y010720D02*
D03*
Y010770D02*
D03*
Y010820D02*
D03*
D67*
Y010870D02*
D03*
D68*
X012515Y005920D02*
D03*
Y007305D02*
D03*
D69*
X012225Y006300D02*
D03*
Y006425D02*
D03*
Y006550D02*
D03*
Y006675D02*
D03*
Y007050D02*
D03*
Y006925D02*
D03*
Y006800D02*
D03*
D70*
Y006175D02*
D03*
D71*
X012343Y011395D02*
D03*
D72*
X012788D02*
D03*
D73*
X012255Y009410D02*
D03*
Y009960D02*
D03*
Y010507D02*
D03*
Y011051D02*
D03*
D74*
Y009283D02*
D03*
Y009156D02*
D03*
Y009029D02*
D03*
X012865Y009410D02*
D03*
Y009283D02*
D03*
Y009156D02*
D03*
Y009029D02*
D03*
X012255Y009833D02*
D03*
Y009706D02*
D03*
Y009579D02*
D03*
X012865Y009960D02*
D03*
Y009833D02*
D03*
Y009706D02*
D03*
Y009579D02*
D03*
X012255Y010380D02*
D03*
Y010253D02*
D03*
Y010126D02*
D03*
X012865Y010507D02*
D03*
Y010380D02*
D03*
Y010253D02*
D03*
Y010126D02*
D03*
X012255Y010924D02*
D03*
Y010797D02*
D03*
Y010670D02*
D03*
X012865Y011051D02*
D03*
Y010924D02*
D03*
Y010797D02*
D03*
Y010670D02*
D03*
D75*
X012560Y009220D02*
D03*
Y009770D02*
D03*
Y010317D02*
D03*
Y010861D02*
D03*
D76*
X011820Y012222D02*
D03*
X011330Y012220D02*
D03*
D77*
X011847Y012515D02*
D03*
X011303D02*
D03*
D78*
X010825Y011800D02*
D03*
X010425D02*
D03*
X010025D02*
D03*
D79*
X010825Y012054D02*
D03*
X010425D02*
D03*
X010025D02*
D03*
D80*
X011512Y007846D02*
D03*
X012012Y007845D02*
D03*
X011512Y005096D02*
D03*
X012012Y005095D02*
D03*
X006153Y007428D02*
D03*
Y006808D02*
D03*
Y011308D02*
D03*
Y011928D02*
D03*
Y008928D02*
D03*
Y008308D02*
D03*
Y005928D02*
D03*
Y005308D02*
D03*
Y010428D02*
D03*
Y009808D02*
D03*
X009435Y004665D02*
D03*
Y004465D02*
D03*
X009235D02*
D03*
X009035D02*
D03*
X008835D02*
D03*
X008635D02*
D03*
X008435D02*
D03*
X008235D02*
D03*
X008035D02*
D03*
X007835D02*
D03*
X007635D02*
D03*
X007435D02*
D03*
X007235D02*
D03*
X007035D02*
D03*
X006835D02*
D03*
X006635D02*
D03*
X006435D02*
D03*
X006235D02*
D03*
X006035D02*
D03*
X005835D02*
D03*
X009235Y004665D02*
D03*
X009035D02*
D03*
X008835D02*
D03*
X008635D02*
D03*
X008435D02*
D03*
X008235D02*
D03*
X008035D02*
D03*
X007835D02*
D03*
X007635D02*
D03*
X007435D02*
D03*
X007235D02*
D03*
X007035D02*
D03*
X006835D02*
D03*
X006635D02*
D03*
X006435D02*
D03*
X006235D02*
D03*
X006035D02*
D03*
X005835D02*
D03*
X005635D02*
D03*
X004455Y012535D02*
D03*
D81*
X011462Y007946D02*
D03*
X011563D02*
D03*
Y007746D02*
D03*
X011462D02*
D03*
X011962Y007945D02*
D03*
X012063D02*
D03*
Y007745D02*
D03*
X011962D02*
D03*
X011462Y005196D02*
D03*
X011563D02*
D03*
Y004996D02*
D03*
X011462D02*
D03*
X011962Y005195D02*
D03*
X012063D02*
D03*
Y004995D02*
D03*
X011962D02*
D03*
X006204Y007328D02*
D03*
X006102D02*
D03*
Y007528D02*
D03*
X006204D02*
D03*
Y006708D02*
D03*
X006102D02*
D03*
Y006908D02*
D03*
X006204D02*
D03*
Y011208D02*
D03*
X006102D02*
D03*
Y011408D02*
D03*
X006204D02*
D03*
Y012028D02*
D03*
X006102D02*
D03*
Y011828D02*
D03*
X006204D02*
D03*
Y008828D02*
D03*
X006102D02*
D03*
Y009028D02*
D03*
X006204D02*
D03*
Y008408D02*
D03*
X006102D02*
D03*
Y008208D02*
D03*
X006204D02*
D03*
Y005828D02*
D03*
X006102D02*
D03*
Y006028D02*
D03*
X006204D02*
D03*
Y005208D02*
D03*
X006102D02*
D03*
Y005408D02*
D03*
X006204D02*
D03*
Y010328D02*
D03*
X006102D02*
D03*
Y010528D02*
D03*
X006204D02*
D03*
Y009908D02*
D03*
X006102D02*
D03*
Y009708D02*
D03*
X006204D02*
D03*
X011728Y004600D02*
D03*
X011443Y004455D02*
D03*
X005479Y006808D02*
D03*
X005644D02*
D03*
Y005308D02*
D03*
X005479D02*
D03*
Y009808D02*
D03*
X005644D02*
D03*
X005479Y008308D02*
D03*
X005644D02*
D03*
Y011308D02*
D03*
X005479D02*
D03*
D82*
X004720Y005134D02*
D03*
X004212Y005135D02*
D03*
D83*
X004466Y005134D02*
D03*
X004720Y005388D02*
D03*
X004466D02*
D03*
X004720Y005642D02*
D03*
X004466D02*
D03*
X004720Y005896D02*
D03*
X004466D02*
D03*
X004720Y006150D02*
D03*
X004466D02*
D03*
X004720Y006404D02*
D03*
X004466D02*
D03*
X004720Y006658D02*
D03*
X004466D02*
D03*
X004720Y006912D02*
D03*
X004466D02*
D03*
X004720Y007166D02*
D03*
X004466D02*
D03*
X004720Y007420D02*
D03*
X004466D02*
D03*
X004720Y007674D02*
D03*
X004466D02*
D03*
X004720Y007928D02*
D03*
X004466D02*
D03*
X004720Y008182D02*
D03*
X004466D02*
D03*
X004720Y008436D02*
D03*
X004466D02*
D03*
X004720Y008690D02*
D03*
X004466D02*
D03*
X004720Y008944D02*
D03*
X004466D02*
D03*
X004720Y009198D02*
D03*
X004466D02*
D03*
X004720Y009452D02*
D03*
X004466D02*
D03*
X004720Y009706D02*
D03*
X004466D02*
D03*
X004720Y009960D02*
D03*
X004466D02*
D03*
X004720Y010214D02*
D03*
X004466D02*
D03*
X004720Y010468D02*
D03*
X004466D02*
D03*
X004720Y010722D02*
D03*
X004466D02*
D03*
X004720Y010976D02*
D03*
X004466D02*
D03*
X004720Y011230D02*
D03*
X004466D02*
D03*
X004720Y011484D02*
D03*
X004466D02*
D03*
X003958Y011485D02*
D03*
X004212D02*
D03*
X003958Y011231D02*
D03*
X004212D02*
D03*
X003958Y010977D02*
D03*
X004212D02*
D03*
X003958Y010723D02*
D03*
X004212D02*
D03*
X003958Y010469D02*
D03*
X004212D02*
D03*
X003958Y010215D02*
D03*
X004212D02*
D03*
X003958Y009961D02*
D03*
X004212D02*
D03*
X003958Y009707D02*
D03*
X004212D02*
D03*
X003958Y009453D02*
D03*
X004212D02*
D03*
X003958Y009199D02*
D03*
X004212D02*
D03*
X003958Y008945D02*
D03*
X004212D02*
D03*
X003958Y008691D02*
D03*
X004212D02*
D03*
X003958Y008437D02*
D03*
X004212D02*
D03*
X003958Y008183D02*
D03*
X004212D02*
D03*
X003958Y007929D02*
D03*
X004212D02*
D03*
X003958Y007675D02*
D03*
X004212D02*
D03*
X003958Y007421D02*
D03*
X004212D02*
D03*
X003958Y007167D02*
D03*
X004212D02*
D03*
X003958Y006913D02*
D03*
X004212D02*
D03*
X003958Y006659D02*
D03*
X004212D02*
D03*
X003958Y006405D02*
D03*
X004212D02*
D03*
X003958Y006151D02*
D03*
X004212D02*
D03*
X003958Y005897D02*
D03*
X004212D02*
D03*
X003958Y005643D02*
D03*
X004212D02*
D03*
X003958Y005389D02*
D03*
X004212D02*
D03*
X003958Y005135D02*
D03*
X009829Y012465D02*
D03*
X010083D02*
D03*
X010337D02*
D03*
X010591D02*
D03*
X010845D02*
D03*
X012560Y009220D02*
D03*
Y009770D02*
D03*
Y010317D02*
D03*
Y010861D02*
D03*
D84*
X009575Y012465D02*
D03*
D85*
X012565Y011485D02*
D03*
Y011305D02*
D03*
D86*
X012660Y009090D02*
D03*
X012460D02*
D03*
Y009350D02*
D03*
X012660D02*
D03*
Y009640D02*
D03*
X012460D02*
D03*
Y009900D02*
D03*
X012660D02*
D03*
Y010187D02*
D03*
X012460D02*
D03*
Y010447D02*
D03*
X012660D02*
D03*
Y010731D02*
D03*
X012460D02*
D03*
Y010991D02*
D03*
X012660D02*
D03*
D87*
X005635Y004465D02*
D03*
D88*
X003958Y004621D02*
D03*
Y011986D02*
D03*
X012531Y012240D02*
D03*
Y004240D02*
D03*
D89*
X008803Y011832D02*
D03*
Y010103D02*
D03*
X008797Y008368D02*
D03*
X008805Y006647D02*
D03*
X007425Y006645D02*
D03*
Y011835D02*
D03*
X007430Y010107D02*
D03*
X007435Y008378D02*
D03*
X012205Y012810D02*
D03*
X012103D02*
D03*
X012003D02*
D03*
X012307D02*
D03*
X004647Y012815D02*
D03*
X004545D02*
D03*
X004445D02*
D03*
X004750D02*
D03*
X012200Y003670D02*
D03*
X012097D02*
D03*
X011997D02*
D03*
X012302D02*
D03*
X004872D02*
D03*
X004567D02*
D03*
X004667D02*
D03*
X004770D02*
D03*
X009025Y010600D02*
D03*
X008972Y010657D02*
D03*
X008965Y008932D02*
D03*
X009012Y008868D02*
D03*
X008993Y007293D02*
D03*
X009007Y007135D02*
D03*
X008970Y007203D02*
D03*
X008983Y005395D02*
D03*
X008993Y005472D02*
D03*
X008993Y005675D02*
D03*
X010455Y007165D02*
D03*
X009840Y007285D02*
D03*
X010582Y004445D02*
D03*
X012915Y011654D02*
D03*
Y011794D02*
D03*
Y011933D02*
D03*
X012224Y012625D02*
D03*
X012084D02*
D03*
X012915Y004826D02*
D03*
Y004686D02*
D03*
Y004547D02*
D03*
X012209Y003947D02*
D03*
X012069D02*
D03*
X011930D02*
D03*
X003627Y011672D02*
D03*
Y011475D02*
D03*
Y011279D02*
D03*
Y011082D02*
D03*
X004469Y012318D02*
D03*
X004272D02*
D03*
Y004289D02*
D03*
X004469D02*
D03*
X004666D02*
D03*
X004862D02*
D03*
X003627Y005525D02*
D03*
Y005328D02*
D03*
Y005132D02*
D03*
Y004935D02*
D03*
X012735Y007059D02*
D03*
X012128Y011605D02*
D03*
X011355Y008416D02*
D03*
X010595Y007285D02*
D03*
X009535D02*
D03*
X006885Y008285D02*
D03*
X009515Y004875D02*
D03*
X009655D02*
D03*
X009585D02*
D03*
X009655Y004255D02*
D03*
X009585D02*
D03*
X009515D02*
D03*
X009445D02*
D03*
Y004875D02*
D03*
X010685Y005265D02*
D03*
X009385Y005269D02*
D03*
X009485D02*
D03*
X010135Y005269D02*
D03*
X010035Y005265D02*
D03*
X009935D02*
D03*
X009575Y005269D02*
D03*
X010795Y005265D02*
D03*
X009720Y007285D02*
D03*
X009410D02*
D03*
X010622Y005735D02*
D03*
X009440Y005725D02*
D03*
X009920Y005740D02*
D03*
X010190Y005725D02*
D03*
X010720Y007285D02*
D03*
X010495D02*
D03*
X010368D02*
D03*
X011985Y006415D02*
D03*
Y006550D02*
D03*
Y006675D02*
D03*
Y006800D02*
D03*
X012735Y006325D02*
D03*
Y006125D02*
D03*
X011455Y006325D02*
D03*
Y006125D02*
D03*
X011365Y006675D02*
D03*
X011455Y006929D02*
D03*
Y007053D02*
D03*
Y006675D02*
D03*
Y006548D02*
D03*
X012735Y006805D02*
D03*
Y006929D02*
D03*
X011985Y007055D02*
D03*
Y006929D02*
D03*
X012255Y005666D02*
D03*
X012345D02*
D03*
X012175D02*
D03*
X011325Y005665D02*
D03*
X011515D02*
D03*
X011997Y005385D02*
D03*
X011705Y005665D02*
D03*
X011905D02*
D03*
X012015D02*
D03*
X012345Y008416D02*
D03*
X012260Y008415D02*
D03*
X012175Y008416D02*
D03*
X012015Y008415D02*
D03*
X011905D02*
D03*
X011997Y008135D02*
D03*
X011705Y008415D02*
D03*
X011515D02*
D03*
X004985Y011255D02*
D03*
X004935Y007184D02*
D03*
X006658Y012461D02*
D03*
Y012381D02*
D03*
Y012301D02*
D03*
X006403Y011786D02*
D03*
X006393Y011866D02*
D03*
X006658Y012131D02*
D03*
Y012221D02*
D03*
Y009461D02*
D03*
Y009381D02*
D03*
Y009301D02*
D03*
X006403Y008786D02*
D03*
X006393Y008866D02*
D03*
X006658Y009131D02*
D03*
Y009221D02*
D03*
Y010961D02*
D03*
Y010881D02*
D03*
Y010801D02*
D03*
X006403Y010286D02*
D03*
X006393Y010366D02*
D03*
X006658Y010631D02*
D03*
Y010721D02*
D03*
Y007961D02*
D03*
Y007881D02*
D03*
Y007801D02*
D03*
X006403Y007286D02*
D03*
X006393Y007366D02*
D03*
X006658Y007631D02*
D03*
Y007721D02*
D03*
X008745Y005274D02*
D03*
X007145Y005285D02*
D03*
X007493Y005265D02*
D03*
X006658Y006221D02*
D03*
Y006301D02*
D03*
Y006381D02*
D03*
Y006461D02*
D03*
Y006131D02*
D03*
X006393Y005866D02*
D03*
X006403Y005786D02*
D03*
X008985Y005915D02*
D03*
X007143Y005735D02*
D03*
X006885Y005865D02*
D03*
Y006535D02*
D03*
X006985Y006875D02*
D03*
X008993Y005550D02*
D03*
X008650Y005274D02*
D03*
X007595Y005265D02*
D03*
X008650Y005825D02*
D03*
X007600D02*
D03*
X006885Y005957D02*
D03*
Y006037D02*
D03*
Y006115D02*
D03*
Y006195D02*
D03*
X008993Y006416D02*
D03*
Y006497D02*
D03*
Y006577D02*
D03*
Y006657D02*
D03*
X008745Y005967D02*
D03*
X008825Y005915D02*
D03*
X008755Y006094D02*
D03*
X008993Y006035D02*
D03*
Y006115D02*
D03*
Y006195D02*
D03*
Y006275D02*
D03*
X007523Y005967D02*
D03*
X007835Y006219D02*
D03*
X007355Y006285D02*
D03*
X006885Y005625D02*
D03*
Y005705D02*
D03*
X006885Y005785D02*
D03*
X007525Y006047D02*
D03*
X007443Y005895D02*
D03*
X007363Y006895D02*
D03*
X007393Y006355D02*
D03*
X006966Y006795D02*
D03*
X007325Y006585D02*
D03*
X007333Y006725D02*
D03*
X006983Y006625D02*
D03*
X006953Y006385D02*
D03*
X007395Y006465D02*
D03*
X006930Y006288D02*
D03*
X006885Y005355D02*
D03*
Y005275D02*
D03*
X006885Y005445D02*
D03*
X006885Y005525D02*
D03*
X007095Y005550D02*
D03*
X008985Y011105D02*
D03*
X007143Y010925D02*
D03*
X007145Y010475D02*
D03*
X006885Y011055D02*
D03*
Y011725D02*
D03*
X006985Y012065D02*
D03*
X008993Y010740D02*
D03*
X008650Y010464D02*
D03*
X007595Y010455D02*
D03*
X008993Y010865D02*
D03*
X008650Y011015D02*
D03*
X007600D02*
D03*
X006885Y011147D02*
D03*
Y011227D02*
D03*
Y011305D02*
D03*
Y011385D02*
D03*
X008993Y011606D02*
D03*
Y011687D02*
D03*
Y011767D02*
D03*
Y011847D02*
D03*
X008745Y011157D02*
D03*
X008825Y011105D02*
D03*
X008755Y011284D02*
D03*
X008745Y010464D02*
D03*
X008993Y011225D02*
D03*
Y011305D02*
D03*
Y011385D02*
D03*
Y011465D02*
D03*
X007523Y011157D02*
D03*
X007835Y011410D02*
D03*
X007355Y011475D02*
D03*
X006885Y010815D02*
D03*
Y010895D02*
D03*
X006885Y010975D02*
D03*
X007525Y011237D02*
D03*
X007493Y010455D02*
D03*
X007443Y011085D02*
D03*
X007363Y012085D02*
D03*
X007393Y011545D02*
D03*
X006966Y011985D02*
D03*
X007325Y011775D02*
D03*
X007333Y011915D02*
D03*
X006983Y011815D02*
D03*
X006953Y011575D02*
D03*
X007395Y011655D02*
D03*
X006930Y011478D02*
D03*
X006885Y010545D02*
D03*
Y010465D02*
D03*
X006885Y010635D02*
D03*
X006885Y010715D02*
D03*
X007095Y010740D02*
D03*
X008985Y007645D02*
D03*
X007143Y007465D02*
D03*
X007145Y007015D02*
D03*
X006885Y007595D02*
D03*
X006985Y008605D02*
D03*
X008650Y007004D02*
D03*
X007595Y006995D02*
D03*
X008993Y007405D02*
D03*
X008650Y007555D02*
D03*
X007600D02*
D03*
X006885Y007687D02*
D03*
Y007767D02*
D03*
Y007845D02*
D03*
Y007925D02*
D03*
X008993Y008146D02*
D03*
Y008227D02*
D03*
Y008307D02*
D03*
Y008387D02*
D03*
X008745Y007697D02*
D03*
X008825Y007645D02*
D03*
X008755Y007824D02*
D03*
X008745Y007004D02*
D03*
X008993Y007765D02*
D03*
Y007845D02*
D03*
Y007925D02*
D03*
Y008005D02*
D03*
X007523Y007697D02*
D03*
X007835Y007950D02*
D03*
X007355Y008015D02*
D03*
X006885Y007355D02*
D03*
Y007435D02*
D03*
X006885Y007515D02*
D03*
X007525Y007777D02*
D03*
X007493Y006995D02*
D03*
X007443Y007625D02*
D03*
X007363Y008625D02*
D03*
X007393Y008085D02*
D03*
X006966Y008525D02*
D03*
X007325Y008315D02*
D03*
X007333Y008455D02*
D03*
X006983Y008355D02*
D03*
X006953Y008115D02*
D03*
X007395Y008195D02*
D03*
X006930Y008018D02*
D03*
X006885Y007085D02*
D03*
Y007005D02*
D03*
X006885Y007175D02*
D03*
X006885Y007255D02*
D03*
X007095Y007280D02*
D03*
X006966Y010255D02*
D03*
X006985Y010335D02*
D03*
X008985Y009375D02*
D03*
X007143Y009195D02*
D03*
X007145Y008745D02*
D03*
X006885Y009325D02*
D03*
Y009995D02*
D03*
X008993Y009010D02*
D03*
X008650Y008734D02*
D03*
X007595Y008725D02*
D03*
X008993Y009135D02*
D03*
X008650Y009285D02*
D03*
X007600D02*
D03*
X006885Y009417D02*
D03*
Y009497D02*
D03*
Y009575D02*
D03*
Y009655D02*
D03*
X008993Y009876D02*
D03*
Y009957D02*
D03*
Y010037D02*
D03*
Y010117D02*
D03*
X008745Y009427D02*
D03*
X008825Y009375D02*
D03*
X008755Y009554D02*
D03*
X008745Y008734D02*
D03*
X008993Y009495D02*
D03*
Y009575D02*
D03*
Y009655D02*
D03*
Y009735D02*
D03*
X007523Y009427D02*
D03*
X007835Y009679D02*
D03*
X007355Y009745D02*
D03*
X006885Y009085D02*
D03*
Y009165D02*
D03*
X006885Y009245D02*
D03*
X007525Y009507D02*
D03*
X007493Y008725D02*
D03*
X007363Y010355D02*
D03*
X007443Y009355D02*
D03*
X007393Y009815D02*
D03*
X007325Y010045D02*
D03*
X007333Y010185D02*
D03*
X006983Y010085D02*
D03*
X006953Y009845D02*
D03*
X007395Y009925D02*
D03*
X006930Y009748D02*
D03*
X006885Y008815D02*
D03*
Y008735D02*
D03*
X006885Y008905D02*
D03*
X006885Y008985D02*
D03*
X007095Y009010D02*
D03*
D90*
X010560Y009822D02*
D03*
X010635Y011665D02*
D03*
X009975Y010515D02*
D03*
X004685Y012222D02*
D03*
X004905D02*
D03*
X004585Y012154D02*
D03*
X004785D02*
D03*
X006665Y006705D02*
D03*
X006885Y006715D02*
D03*
X006655Y011245D02*
D03*
X006665Y009765D02*
D03*
X006655Y008125D02*
D03*
X008965Y006895D02*
D03*
X007025Y005285D02*
D03*
X008965Y012085D02*
D03*
X006885Y011905D02*
D03*
X007025Y010475D02*
D03*
X008965Y008625D02*
D03*
X006885Y008445D02*
D03*
X007025Y007015D02*
D03*
X006885Y010175D02*
D03*
X008965Y010355D02*
D03*
X007025Y008745D02*
D03*
D91*
X011345Y004235D02*
D03*
X010818Y003843D02*
D03*
D92*
X010785Y007808D02*
D03*
X006771Y005065D02*
D03*
X012405Y008749D02*
D03*
X011498Y007275D02*
D03*
D93*
X005561Y006808D02*
D03*
Y005308D02*
D03*
Y009808D02*
D03*
Y008308D02*
D03*
Y011308D02*
D03*
D94*
X009935Y004565D02*
D03*
X005135D02*
D03*
M02*
