G04*
G04 #@! TF.GenerationSoftware,Altium Limited,Altium Designer,20.1.11 (218)*
G04*
G04 Layer_Physical_Order=1*
G04 Layer_Color=5064179*
%FSAX42Y42*%
%MOMM*%
G71*
G04*
G04 #@! TF.SameCoordinates,7236F677-8011-49D1-9462-8A3D937FB474*
G04*
G04*
G04 #@! TF.FilePolarity,Positive*
G04*
G01*
G75*
%ADD10C,0.25*%
%ADD11C,0.25*%
%ADD13C,0.60*%
%ADD14C,0.40*%
%ADD15C,0.20*%
%ADD21C,0.30*%
%ADD85C,0.60*%
%ADD86C,1.00*%
%ADD91C,1.20*%
%ADD92C,1.50*%
%ADD93C,1.30*%
%ADD95R,2.40X3.00*%
%ADD96R,0.40X1.75*%
G04:AMPARAMS|DCode=97|XSize=0.89mm|YSize=1.27mm|CornerRadius=0mm|HoleSize=0mm|Usage=FLASHONLY|Rotation=225.000|XOffset=0mm|YOffset=0mm|HoleType=Round|Shape=Rectangle|*
%AMROTATEDRECTD97*
4,1,4,-0.13,0.76,0.76,-0.13,0.13,-0.76,-0.76,0.13,-0.13,0.76,0.0*
%
%ADD97ROTATEDRECTD97*%

%ADD98R,1.27X0.89*%
G04:AMPARAMS|DCode=99|XSize=0.9mm|YSize=0.95mm|CornerRadius=0.23mm|HoleSize=0mm|Usage=FLASHONLY|Rotation=180.000|XOffset=0mm|YOffset=0mm|HoleType=Round|Shape=RoundedRectangle|*
%AMROUNDEDRECTD99*
21,1,0.90,0.50,0,0,180.0*
21,1,0.45,0.95,0,0,180.0*
1,1,0.45,-0.23,0.25*
1,1,0.45,0.23,0.25*
1,1,0.45,0.23,-0.25*
1,1,0.45,-0.23,-0.25*
%
%ADD99ROUNDEDRECTD99*%
%ADD100R,0.90X0.95*%
%ADD101R,0.90X0.95*%
G04:AMPARAMS|DCode=102|XSize=0.7mm|YSize=0.5mm|CornerRadius=0.13mm|HoleSize=0mm|Usage=FLASHONLY|Rotation=90.000|XOffset=0mm|YOffset=0mm|HoleType=Round|Shape=RoundedRectangle|*
%AMROUNDEDRECTD102*
21,1,0.70,0.25,0,0,90.0*
21,1,0.45,0.50,0,0,90.0*
1,1,0.25,0.13,0.23*
1,1,0.25,0.13,-0.23*
1,1,0.25,-0.13,-0.23*
1,1,0.25,-0.13,0.23*
%
%ADD102ROUNDEDRECTD102*%
%ADD103R,0.50X0.70*%
G04:AMPARAMS|DCode=104|XSize=0.7mm|YSize=0.9mm|CornerRadius=0.18mm|HoleSize=0mm|Usage=FLASHONLY|Rotation=180.000|XOffset=0mm|YOffset=0mm|HoleType=Round|Shape=RoundedRectangle|*
%AMROUNDEDRECTD104*
21,1,0.70,0.55,0,0,180.0*
21,1,0.35,0.90,0,0,180.0*
1,1,0.35,-0.18,0.28*
1,1,0.35,0.18,0.28*
1,1,0.35,0.18,-0.28*
1,1,0.35,-0.18,-0.28*
%
%ADD104ROUNDEDRECTD104*%
%ADD105R,0.70X0.90*%
%ADD106R,1.02X0.81*%
%ADD107R,0.81X1.02*%
%ADD108R,0.60X1.95*%
%ADD109O,0.60X1.95*%
%ADD110R,1.65X2.70*%
%ADD111R,0.25X0.60*%
%ADD112R,0.60X0.25*%
G04:AMPARAMS|DCode=113|XSize=0.4mm|YSize=0.5mm|CornerRadius=0.1mm|HoleSize=0mm|Usage=FLASHONLY|Rotation=0.000|XOffset=0mm|YOffset=0mm|HoleType=Round|Shape=RoundedRectangle|*
%AMROUNDEDRECTD113*
21,1,0.40,0.30,0,0,0.0*
21,1,0.20,0.50,0,0,0.0*
1,1,0.20,0.10,-0.15*
1,1,0.20,-0.10,-0.15*
1,1,0.20,-0.10,0.15*
1,1,0.20,0.10,0.15*
%
%ADD113ROUNDEDRECTD113*%
%ADD114R,0.40X0.50*%
%ADD115R,1.90X1.10*%
%ADD116R,1.80X1.27*%
%ADD117R,2.54X2.03*%
G04:AMPARAMS|DCode=118|XSize=0.3mm|YSize=1.45mm|CornerRadius=0.08mm|HoleSize=0mm|Usage=FLASHONLY|Rotation=0.000|XOffset=0mm|YOffset=0mm|HoleType=Round|Shape=RoundedRectangle|*
%AMROUNDEDRECTD118*
21,1,0.30,1.30,0,0,0.0*
21,1,0.15,1.45,0,0,0.0*
1,1,0.15,0.08,-0.65*
1,1,0.15,-0.08,-0.65*
1,1,0.15,-0.08,0.65*
1,1,0.15,0.08,0.65*
%
%ADD118ROUNDEDRECTD118*%
%ADD119R,0.30X1.45*%
%ADD120R,1.27X1.80*%
G04:AMPARAMS|DCode=121|XSize=0.9mm|YSize=0.95mm|CornerRadius=0.23mm|HoleSize=0mm|Usage=FLASHONLY|Rotation=90.000|XOffset=0mm|YOffset=0mm|HoleType=Round|Shape=RoundedRectangle|*
%AMROUNDEDRECTD121*
21,1,0.90,0.50,0,0,90.0*
21,1,0.45,0.95,0,0,90.0*
1,1,0.45,0.25,0.23*
1,1,0.45,0.25,-0.23*
1,1,0.45,-0.25,-0.23*
1,1,0.45,-0.25,0.23*
%
%ADD121ROUNDEDRECTD121*%
%ADD122R,0.95X0.90*%
%ADD123R,0.95X0.90*%
%ADD124O,1.78X0.64*%
%ADD125R,1.78X0.60*%
G04:AMPARAMS|DCode=126|XSize=0.9mm|YSize=0.6mm|CornerRadius=0.15mm|HoleSize=0mm|Usage=FLASHONLY|Rotation=270.000|XOffset=0mm|YOffset=0mm|HoleType=Round|Shape=RoundedRectangle|*
%AMROUNDEDRECTD126*
21,1,0.90,0.30,0,0,270.0*
21,1,0.60,0.60,0,0,270.0*
1,1,0.30,-0.15,-0.30*
1,1,0.30,-0.15,0.30*
1,1,0.30,0.15,0.30*
1,1,0.30,0.15,-0.30*
%
%ADD126ROUNDEDRECTD126*%
%ADD127R,0.60X0.90*%
%ADD128R,2.03X2.54*%
%ADD129R,1.95X0.60*%
%ADD130O,1.95X0.60*%
%ADD131O,2.30X0.60*%
%ADD132O,0.85X0.40*%
%ADD133R,0.85X0.40*%
%ADD134R,0.35X1.60*%
%ADD135R,1.60X0.35*%
%ADD136O,1.60X0.35*%
G04:AMPARAMS|DCode=137|XSize=2.1mm|YSize=3mm|CornerRadius=0.21mm|HoleSize=0mm|Usage=FLASHONLY|Rotation=90.000|XOffset=0mm|YOffset=0mm|HoleType=Round|Shape=RoundedRectangle|*
%AMROUNDEDRECTD137*
21,1,2.10,2.58,0,0,90.0*
21,1,1.68,3.00,0,0,90.0*
1,1,0.42,1.29,0.84*
1,1,0.42,1.29,-0.84*
1,1,0.42,-1.29,-0.84*
1,1,0.42,-1.29,0.84*
%
%ADD137ROUNDEDRECTD137*%
%ADD138R,1.60X0.80*%
G04:AMPARAMS|DCode=139|XSize=0.8mm|YSize=1.6mm|CornerRadius=0.08mm|HoleSize=0mm|Usage=FLASHONLY|Rotation=90.000|XOffset=0mm|YOffset=0mm|HoleType=Round|Shape=RoundedRectangle|*
%AMROUNDEDRECTD139*
21,1,0.80,1.44,0,0,90.0*
21,1,0.64,1.60,0,0,90.0*
1,1,0.16,0.72,0.32*
1,1,0.16,0.72,-0.32*
1,1,0.16,-0.72,-0.32*
1,1,0.16,-0.72,0.32*
%
%ADD139ROUNDEDRECTD139*%
%ADD140O,1.05X2.00*%
%ADD141R,1.05X2.00*%
%ADD142R,1.52X0.64*%
%ADD143O,1.52X0.64*%
%ADD144R,3.05X4.06*%
%ADD145C,0.80*%
%ADD146C,1.00*%
%ADD147C,0.50*%
%ADD148C,1.20*%
%ADD149C,0.24*%
%ADD150C,0.56*%
%ADD151O,1.30X1.50*%
G04:AMPARAMS|DCode=152|XSize=1.52mm|YSize=1.52mm|CornerRadius=0.38mm|HoleSize=0mm|Usage=FLASHONLY|Rotation=90.000|XOffset=0mm|YOffset=0mm|HoleType=Round|Shape=RoundedRectangle|*
%AMROUNDEDRECTD152*
21,1,1.52,0.76,0,0,90.0*
21,1,0.76,1.52,0,0,90.0*
1,1,0.76,0.38,0.38*
1,1,0.76,0.38,-0.38*
1,1,0.76,-0.38,-0.38*
1,1,0.76,-0.38,0.38*
%
%ADD152ROUNDEDRECTD152*%
%ADD153C,1.52*%
%ADD154C,0.50*%
%ADD155R,1.50X1.50*%
%ADD156R,1.50X1.50*%
%ADD157C,0.40*%
%ADD158C,0.80*%
%ADD159R,1.20X1.20*%
%ADD160C,6.35*%
%ADD161C,0.70*%
%ADD162C,1.10*%
%ADD163C,4.50*%
G36*
X004545Y012574D02*
X004532Y012572D01*
X004530Y012578D01*
X004516Y012596D01*
X004498Y012610D01*
X004477Y012618D01*
X004468Y012619D01*
Y012535D01*
Y012451D01*
X004477Y012452D01*
X004498Y012460D01*
X004516Y012474D01*
X004530Y012492D01*
X004532Y012498D01*
X004545Y012496D01*
Y012187D01*
X004536Y012174D01*
X004532Y012154D01*
X004536Y012133D01*
X004545Y012120D01*
Y011867D01*
X004409Y011731D01*
X004373D01*
X004359Y011728D01*
X004346Y011720D01*
X004346Y011720D01*
X004267Y011640D01*
X004166D01*
X004166Y011640D01*
X004152Y011637D01*
X004140Y011629D01*
X004058Y011548D01*
X004056Y011544D01*
X004040Y011543D01*
X004030Y011557D01*
X004009Y011573D01*
X003984Y011583D01*
X003971Y011585D01*
Y011485D01*
Y011385D01*
X003984Y011387D01*
X004009Y011397D01*
X004030Y011413D01*
X004035Y011420D01*
X004047Y011416D01*
Y011287D01*
X004035Y011282D01*
X004024Y011297D01*
X004004Y011311D01*
X003982Y011321D01*
X003958Y011324D01*
X003934Y011321D01*
X003912Y011311D01*
X003892Y011297D01*
X003878Y011277D01*
X003868Y011255D01*
X003865Y011231D01*
X003868Y011207D01*
X003878Y011185D01*
X003892Y011165D01*
X003912Y011151D01*
X003934Y011141D01*
X003958Y011138D01*
X003982Y011141D01*
X004004Y011151D01*
X004024Y011165D01*
X004035Y011180D01*
X004047Y011175D01*
Y011038D01*
X004036Y011030D01*
X004033Y011030D01*
X004024Y011043D01*
X004004Y011057D01*
X003982Y011067D01*
X003958Y011070D01*
X003934Y011067D01*
X003912Y011057D01*
X003892Y011043D01*
X003878Y011023D01*
X003868Y011001D01*
X003865Y010977D01*
X003868Y010953D01*
X003878Y010931D01*
X003892Y010911D01*
X003912Y010897D01*
X003923Y010892D01*
X003927Y010879D01*
X003833Y010764D01*
X003485Y010766D01*
X003485Y011892D01*
X003613Y012020D01*
X003625Y012015D01*
X003622Y011986D01*
X003627Y011934D01*
X003639Y011883D01*
X003659Y011834D01*
X003687Y011789D01*
X003721Y011749D01*
X003761Y011715D01*
X003806Y011688D01*
X003854Y011667D01*
X003906Y011655D01*
X003958Y011651D01*
X004010Y011655D01*
X004062Y011667D01*
X004110Y011688D01*
X004155Y011715D01*
X004195Y011749D01*
X004229Y011789D01*
X004257Y011834D01*
X004277Y011883D01*
X004289Y011934D01*
X004294Y011986D01*
X004289Y012039D01*
X004277Y012090D01*
X004257Y012139D01*
X004229Y012184D01*
X004195Y012224D01*
X004155Y012258D01*
X004110Y012285D01*
X004062Y012306D01*
X004010Y012318D01*
X003958Y012322D01*
X003930Y012320D01*
X003924Y012331D01*
X004308Y012715D01*
X004545D01*
Y012574D01*
D02*
G37*
G36*
X005468Y011380D02*
X005449D01*
Y011339D01*
X005448Y011338D01*
X005439Y011325D01*
X005436Y011308D01*
X005439Y011292D01*
X005448Y011278D01*
X005449Y011277D01*
Y011236D01*
X005468D01*
Y011132D01*
X005465D01*
Y011070D01*
X005416Y011021D01*
X005068Y011021D01*
Y011193D01*
X005264Y011193D01*
X005313Y011242D01*
X005312Y011722D01*
X005372Y011782D01*
X005373Y011782D01*
X005387Y011785D01*
X005389Y011786D01*
X005468D01*
X005468Y011380D01*
D02*
G37*
G36*
X004307Y011441D02*
Y011348D01*
X004270Y011302D01*
X004258Y011311D01*
X004236Y011321D01*
X004212Y011324D01*
X004188Y011321D01*
X004166Y011311D01*
X004146Y011297D01*
X004135Y011282D01*
X004123Y011287D01*
Y011429D01*
X004135Y011434D01*
X004146Y011419D01*
X004166Y011405D01*
X004188Y011395D01*
X004212Y011392D01*
X004236Y011395D01*
X004258Y011405D01*
X004278Y011419D01*
X004292Y011439D01*
X004295Y011444D01*
X004307Y011441D01*
D02*
G37*
G36*
X005898Y012053D02*
Y011897D01*
X005894Y011896D01*
X005882Y011888D01*
X005873Y011875D01*
X005870Y011861D01*
X005873Y011847D01*
X005882Y011834D01*
X005894Y011826D01*
X005898Y011825D01*
Y011808D01*
X005893Y011801D01*
X005890Y011786D01*
X005893Y011772D01*
X005898Y011764D01*
X005898Y011281D01*
X005743Y011281D01*
X005743Y011455D01*
X005737Y011461D01*
X005726D01*
X005726Y011461D01*
X005723Y011475D01*
X005715Y011488D01*
X005703Y011496D01*
X005688Y011499D01*
X005674Y011496D01*
X005662Y011488D01*
X005653Y011475D01*
X005651Y011463D01*
X005649Y011461D01*
X005573D01*
X005573Y011516D01*
X005618Y011561D01*
X005701D01*
X005743Y011602D01*
X005743Y012053D01*
X005898Y012053D01*
D02*
G37*
G36*
X005289Y011260D02*
X005254Y011225D01*
X005040Y011225D01*
X005040Y011488D01*
X005289Y011488D01*
X005289Y011260D01*
D02*
G37*
G36*
X005468Y009880D02*
X005449D01*
Y009839D01*
X005448Y009838D01*
X005439Y009825D01*
X005436Y009808D01*
X005439Y009792D01*
X005448Y009778D01*
X005449Y009777D01*
Y009736D01*
X005468D01*
Y009632D01*
X005465D01*
Y009570D01*
X005416Y009521D01*
X005068Y009521D01*
Y009693D01*
X005264Y009693D01*
X005313Y009742D01*
X005312Y010222D01*
X005372Y010282D01*
X005373Y010282D01*
X005387Y010285D01*
X005389Y010286D01*
X005468D01*
X005468Y009880D01*
D02*
G37*
G36*
X005898Y010553D02*
Y010397D01*
X005894Y010396D01*
X005882Y010388D01*
X005873Y010375D01*
X005870Y010361D01*
X005873Y010347D01*
X005882Y010334D01*
X005894Y010326D01*
X005898Y010325D01*
Y010308D01*
X005893Y010301D01*
X005890Y010286D01*
X005893Y010272D01*
X005898Y010264D01*
X005898Y009781D01*
X005743Y009781D01*
X005743Y009955D01*
X005737Y009961D01*
X005726D01*
X005726Y009961D01*
X005723Y009975D01*
X005715Y009988D01*
X005703Y009996D01*
X005688Y009999D01*
X005674Y009996D01*
X005662Y009988D01*
X005653Y009975D01*
X005651Y009963D01*
X005649Y009961D01*
X005573D01*
X005573Y010016D01*
X005618Y010061D01*
X005701D01*
X005743Y010102D01*
X005743Y010553D01*
X005898Y010553D01*
D02*
G37*
G36*
X005289Y009760D02*
X005254Y009725D01*
X005040Y009725D01*
X005040Y009988D01*
X005289Y009988D01*
X005289Y009760D01*
D02*
G37*
G36*
X005468Y008380D02*
X005449D01*
Y008339D01*
X005448Y008338D01*
X005439Y008325D01*
X005436Y008308D01*
X005439Y008292D01*
X005448Y008278D01*
X005449Y008277D01*
Y008236D01*
X005468D01*
Y008132D01*
X005465D01*
Y008070D01*
X005416Y008021D01*
X005068Y008021D01*
Y008193D01*
X005264Y008193D01*
X005313Y008242D01*
X005312Y008722D01*
X005372Y008782D01*
X005373Y008782D01*
X005387Y008785D01*
X005389Y008786D01*
X005468D01*
X005468Y008380D01*
D02*
G37*
G36*
X005898Y009053D02*
Y008897D01*
X005894Y008896D01*
X005882Y008888D01*
X005873Y008875D01*
X005870Y008861D01*
X005873Y008847D01*
X005882Y008834D01*
X005894Y008826D01*
X005898Y008825D01*
Y008808D01*
X005893Y008801D01*
X005890Y008786D01*
X005893Y008772D01*
X005898Y008764D01*
X005898Y008281D01*
X005743Y008281D01*
X005743Y008455D01*
X005737Y008461D01*
X005726D01*
X005726Y008461D01*
X005723Y008475D01*
X005715Y008488D01*
X005703Y008496D01*
X005688Y008499D01*
X005674Y008496D01*
X005662Y008488D01*
X005653Y008475D01*
X005651Y008463D01*
X005649Y008461D01*
X005573D01*
X005573Y008516D01*
X005618Y008561D01*
X005701D01*
X005743Y008602D01*
X005743Y009053D01*
X005898Y009053D01*
D02*
G37*
G36*
X005289Y008260D02*
X005254Y008225D01*
X005040Y008225D01*
X005040Y008488D01*
X005289Y008488D01*
X005289Y008260D01*
D02*
G37*
G36*
X005468Y006880D02*
X005449D01*
Y006839D01*
X005448Y006838D01*
X005439Y006825D01*
X005436Y006808D01*
X005439Y006792D01*
X005448Y006778D01*
X005449Y006777D01*
Y006736D01*
X005468D01*
Y006632D01*
X005465D01*
Y006570D01*
X005416Y006521D01*
X005068Y006521D01*
Y006693D01*
X005264Y006693D01*
X005313Y006742D01*
X005312Y007222D01*
X005372Y007282D01*
X005373Y007282D01*
X005387Y007285D01*
X005389Y007286D01*
X005468D01*
X005468Y006880D01*
D02*
G37*
G36*
X005898Y007553D02*
Y007397D01*
X005894Y007396D01*
X005882Y007388D01*
X005873Y007375D01*
X005870Y007361D01*
X005873Y007347D01*
X005882Y007334D01*
X005894Y007326D01*
X005898Y007325D01*
Y007308D01*
X005893Y007301D01*
X005890Y007286D01*
X005893Y007272D01*
X005898Y007264D01*
X005898Y006781D01*
X005743Y006781D01*
X005743Y006955D01*
X005737Y006961D01*
X005726D01*
X005726Y006961D01*
X005723Y006975D01*
X005715Y006988D01*
X005703Y006996D01*
X005688Y006999D01*
X005674Y006996D01*
X005662Y006988D01*
X005653Y006975D01*
X005651Y006963D01*
X005649Y006961D01*
X005573D01*
X005573Y007016D01*
X005618Y007061D01*
X005701D01*
X005743Y007102D01*
X005743Y007553D01*
X005898Y007553D01*
D02*
G37*
G36*
X005289Y006760D02*
X005254Y006725D01*
X005040Y006725D01*
X005040Y006988D01*
X005289Y006988D01*
X005289Y006760D01*
D02*
G37*
G36*
X005468Y005380D02*
X005449D01*
Y005339D01*
X005448Y005338D01*
X005439Y005325D01*
X005436Y005308D01*
X005439Y005292D01*
X005448Y005278D01*
X005449Y005277D01*
Y005236D01*
X005468D01*
Y005132D01*
X005465D01*
Y005070D01*
X005416Y005021D01*
X005068Y005021D01*
Y005193D01*
X005264Y005193D01*
X005313Y005242D01*
X005312Y005722D01*
X005372Y005782D01*
X005373Y005782D01*
X005387Y005785D01*
X005389Y005786D01*
X005468D01*
X005468Y005380D01*
D02*
G37*
G36*
X005898Y006053D02*
Y005897D01*
X005894Y005896D01*
X005882Y005888D01*
X005873Y005875D01*
X005870Y005861D01*
X005873Y005847D01*
X005882Y005834D01*
X005894Y005826D01*
X005898Y005825D01*
Y005808D01*
X005893Y005801D01*
X005890Y005786D01*
X005893Y005772D01*
X005898Y005764D01*
X005898Y005281D01*
X005743Y005281D01*
X005743Y005455D01*
X005737Y005461D01*
X005726D01*
X005726Y005461D01*
X005723Y005475D01*
X005715Y005488D01*
X005703Y005496D01*
X005688Y005499D01*
X005674Y005496D01*
X005662Y005488D01*
X005653Y005475D01*
X005651Y005463D01*
X005649Y005461D01*
X005573D01*
X005573Y005516D01*
X005618Y005561D01*
X005701D01*
X005743Y005602D01*
X005743Y006053D01*
X005898Y006053D01*
D02*
G37*
G36*
X005289Y005260D02*
X005254Y005225D01*
X005040Y005225D01*
X005040Y005488D01*
X005289Y005488D01*
X005289Y005260D01*
D02*
G37*
G36*
X003868Y005662D02*
X003865Y005643D01*
X003868Y005619D01*
X003878Y005597D01*
X003892Y005577D01*
X003912Y005563D01*
X003934Y005553D01*
X003958Y005550D01*
X003977Y005553D01*
X004114Y005416D01*
X004114Y005415D01*
X004112Y005402D01*
X004212D01*
Y005389D01*
X004225D01*
Y005289D01*
X004238Y005291D01*
X004239Y005291D01*
X004283Y005247D01*
X004278Y005235D01*
X004225D01*
Y005148D01*
X004312D01*
Y005201D01*
X004324Y005206D01*
X004376Y005154D01*
X004373Y005134D01*
X004376Y005110D01*
X004386Y005088D01*
X004400Y005068D01*
X004420Y005054D01*
X004442Y005044D01*
X004466Y005041D01*
X004486Y005044D01*
X004895Y004635D01*
X004888Y004614D01*
X004885Y004578D01*
X005135D01*
Y004565D01*
X005148D01*
Y004315D01*
X005148D01*
X006184D01*
X006185Y004313D01*
Y003765D01*
X004435D01*
X003924Y004276D01*
X003930Y004287D01*
X003958Y004285D01*
X004010Y004289D01*
X004062Y004301D01*
X004110Y004322D01*
X004155Y004349D01*
X004195Y004383D01*
X004229Y004423D01*
X004257Y004468D01*
X004277Y004517D01*
X004289Y004568D01*
X004294Y004621D01*
X004289Y004673D01*
X004277Y004724D01*
X004257Y004773D01*
X004229Y004818D01*
X004195Y004858D01*
X004155Y004892D01*
X004110Y004919D01*
X004062Y004940D01*
X004010Y004952D01*
X003958Y004956D01*
X003906Y004952D01*
X003854Y004940D01*
X003806Y004919D01*
X003761Y004892D01*
X003721Y004858D01*
X003687Y004818D01*
X003659Y004773D01*
X003639Y004724D01*
X003627Y004673D01*
X003622Y004621D01*
X003625Y004592D01*
X003613Y004587D01*
X003495Y004705D01*
Y005694D01*
X003835Y005695D01*
X003868Y005662D01*
D02*
G37*
G36*
X006593Y009416D02*
X006388Y009416D01*
X006377Y009429D01*
X006378Y009433D01*
X006376Y009448D01*
X006367Y009460D01*
X006358Y009466D01*
Y009493D01*
X006593Y009493D01*
Y009416D01*
D02*
G37*
G36*
X006593Y008771D02*
X006592Y008770D01*
X006583Y008758D01*
X006580Y008744D01*
X006583Y008729D01*
X006592Y008717D01*
X006593Y008716D01*
X006593Y008101D01*
X006580Y008091D01*
X006578Y008091D01*
X006564Y008088D01*
X006552Y008080D01*
X006543Y008068D01*
X006540Y008053D01*
X006543Y008039D01*
X006552Y008027D01*
X006564Y008019D01*
X006576Y008016D01*
X006575Y008003D01*
X006353Y008003D01*
X006353Y008147D01*
X006366Y008153D01*
X006368Y008152D01*
X006383Y008149D01*
X006397Y008152D01*
X006410Y008160D01*
X006418Y008172D01*
X006421Y008186D01*
X006419Y008193D01*
X006422Y008205D01*
X006427Y008209D01*
X006435Y008214D01*
X006443Y008227D01*
X006446Y008241D01*
X006443Y008255D01*
X006435Y008268D01*
X006423Y008276D01*
X006409Y008279D01*
X006401Y008284D01*
X006391Y008286D01*
X006368D01*
Y008288D01*
X006353D01*
X006353Y008754D01*
X006366Y008757D01*
X006369Y008752D01*
X006384Y008742D01*
X006403Y008738D01*
X006421Y008742D01*
X006437Y008752D01*
X006447Y008768D01*
X006451Y008786D01*
X006447Y008804D01*
X006437Y008820D01*
X006427Y008827D01*
Y008832D01*
X006437Y008848D01*
X006441Y008866D01*
X006437Y008884D01*
X006427Y008900D01*
X006411Y008910D01*
X006393Y008914D01*
X006374Y008910D01*
X006368Y008908D01*
X006368Y008908D01*
X006368Y008908D01*
X006353D01*
X006353Y009064D01*
X006593D01*
X006593Y008771D01*
D02*
G37*
G36*
X006593Y007916D02*
X006388Y007916D01*
X006377Y007929D01*
X006378Y007933D01*
X006376Y007948D01*
X006367Y007960D01*
X006358Y007966D01*
Y007993D01*
X006593Y007993D01*
Y007916D01*
D02*
G37*
G36*
X011295Y007725D02*
X011295Y007504D01*
X011276Y007485D01*
X011235Y007485D01*
X011210Y007510D01*
Y007831D01*
X011244Y007865D01*
X011295Y007865D01*
X011295Y007725D01*
D02*
G37*
G36*
X006593Y007271D02*
X006592Y007270D01*
X006583Y007258D01*
X006580Y007244D01*
X006583Y007229D01*
X006592Y007217D01*
X006593Y007216D01*
X006593Y006599D01*
X006585Y006593D01*
X006571Y006590D01*
X006558Y006582D01*
X006550Y006569D01*
X006547Y006555D01*
X006550Y006541D01*
X006558Y006528D01*
X006571Y006520D01*
X006574Y006519D01*
X006582Y006505D01*
X006582Y006503D01*
X006353Y006503D01*
X006353Y006647D01*
X006366Y006653D01*
X006368Y006652D01*
X006383Y006649D01*
X006397Y006652D01*
X006410Y006660D01*
X006418Y006672D01*
X006421Y006686D01*
X006419Y006693D01*
X006422Y006705D01*
X006427Y006709D01*
X006435Y006714D01*
X006443Y006727D01*
X006446Y006741D01*
X006443Y006755D01*
X006435Y006768D01*
X006423Y006776D01*
X006409Y006779D01*
X006401Y006784D01*
X006391Y006786D01*
X006368D01*
Y006788D01*
X006353D01*
X006353Y007254D01*
X006366Y007257D01*
X006369Y007252D01*
X006384Y007242D01*
X006403Y007238D01*
X006421Y007242D01*
X006437Y007252D01*
X006447Y007268D01*
X006451Y007286D01*
X006447Y007304D01*
X006437Y007320D01*
X006433Y007322D01*
X006431Y007339D01*
X006437Y007348D01*
X006441Y007366D01*
X006437Y007384D01*
X006427Y007400D01*
X006411Y007410D01*
X006393Y007414D01*
X006374Y007410D01*
X006368Y007408D01*
X006368Y007408D01*
X006368Y007408D01*
X006353D01*
X006353Y007564D01*
X006593D01*
X006593Y007271D01*
D02*
G37*
G36*
X006593Y006416D02*
X006388Y006416D01*
X006377Y006429D01*
X006378Y006433D01*
X006376Y006448D01*
X006367Y006460D01*
X006358Y006466D01*
Y006493D01*
X006593Y006493D01*
Y006416D01*
D02*
G37*
G36*
X006593Y005771D02*
X006592Y005770D01*
X006583Y005758D01*
X006580Y005744D01*
X006583Y005729D01*
X006592Y005717D01*
X006593Y005716D01*
X006593Y005101D01*
X006580Y005091D01*
X006578Y005091D01*
X006564Y005088D01*
X006552Y005080D01*
X006543Y005068D01*
X006540Y005053D01*
X006543Y005039D01*
X006552Y005027D01*
X006564Y005019D01*
X006576Y005016D01*
X006575Y005003D01*
X006353Y005003D01*
X006353Y005147D01*
X006366Y005153D01*
X006368Y005152D01*
X006383Y005149D01*
X006397Y005152D01*
X006410Y005160D01*
X006418Y005172D01*
X006421Y005186D01*
X006419Y005193D01*
X006422Y005205D01*
X006427Y005209D01*
X006435Y005214D01*
X006443Y005227D01*
X006446Y005241D01*
X006443Y005255D01*
X006435Y005268D01*
X006423Y005276D01*
X006409Y005279D01*
X006401Y005284D01*
X006391Y005286D01*
X006368D01*
Y005288D01*
X006353D01*
X006353Y005754D01*
X006366Y005757D01*
X006369Y005752D01*
X006384Y005742D01*
X006403Y005738D01*
X006421Y005742D01*
X006437Y005752D01*
X006447Y005768D01*
X006451Y005786D01*
X006447Y005804D01*
X006437Y005820D01*
X006433Y005822D01*
X006431Y005839D01*
X006437Y005848D01*
X006441Y005866D01*
X006437Y005884D01*
X006427Y005900D01*
X006411Y005910D01*
X006393Y005914D01*
X006374Y005910D01*
X006368Y005908D01*
X006368Y005908D01*
X006368Y005908D01*
X006353D01*
X006353Y006064D01*
X006593D01*
X006593Y005771D01*
D02*
G37*
G36*
X013025Y004305D02*
X013020D01*
X012867Y004152D01*
X012856Y004158D01*
X012862Y004187D01*
X012867Y004240D01*
X012862Y004292D01*
X012850Y004343D01*
X012830Y004392D01*
X012802Y004437D01*
X012768Y004477D01*
X012728Y004511D01*
X012683Y004538D01*
X012635Y004559D01*
X012583Y004571D01*
X012531Y004575D01*
X012479Y004571D01*
X012427Y004559D01*
X012379Y004538D01*
X012334Y004511D01*
X012294Y004477D01*
X012260Y004437D01*
X012232Y004392D01*
X012212Y004343D01*
X012200Y004292D01*
X012195Y004240D01*
X012200Y004187D01*
X012212Y004136D01*
X012232Y004087D01*
X012260Y004042D01*
X012294Y004002D01*
X012334Y003968D01*
X012379Y003941D01*
X012427Y003920D01*
X012479Y003908D01*
X012531Y003904D01*
X012583Y003908D01*
X012612Y003915D01*
X012619Y003903D01*
X012460Y003745D01*
X011887D01*
X011885Y003746D01*
X011884Y003746D01*
X011882Y003747D01*
X011869Y003749D01*
X011868D01*
X011866Y003749D01*
X011860Y003749D01*
X011835D01*
Y004025D01*
X011835Y004031D01*
X011838Y004044D01*
X011843Y004057D01*
X011850Y004068D01*
X011855Y004072D01*
X012637Y004855D01*
X012854Y004855D01*
X012862Y004842D01*
X012862Y004838D01*
X012969D01*
X012969Y004842D01*
X012977Y004855D01*
X013025D01*
X013025Y004305D01*
D02*
G37*
G36*
X011295Y005106D02*
X011295Y004975D01*
Y004945D01*
X011295Y004755D01*
X011275Y004735D01*
X011235Y004735D01*
X011210Y004760D01*
X011210Y005086D01*
X011239Y005115D01*
X011286Y005115D01*
X011295Y005106D01*
D02*
G37*
G36*
X010796Y004747D02*
X011198D01*
X011223Y004723D01*
X011228Y004719D01*
X011235Y004718D01*
X011275Y004718D01*
X011282Y004719D01*
X011287Y004723D01*
X011307Y004743D01*
X011310Y004747D01*
X011880D01*
X011880Y004350D01*
X011880D01*
X011880Y004341D01*
X011877Y004324D01*
X011872Y004307D01*
X011864Y004291D01*
X011854Y004277D01*
X011841Y004264D01*
X011827Y004254D01*
X011811Y004245D01*
X011803Y004243D01*
X011803Y004243D01*
X011791Y004238D01*
X011769Y004227D01*
X011749Y004212D01*
X011732Y004194D01*
X011717Y004174D01*
X011706Y004152D01*
X011698Y004128D01*
X011695Y004104D01*
X011694Y004091D01*
X011694Y003887D01*
Y003873D01*
X011689Y003846D01*
X011678Y003821D01*
X011663Y003798D01*
X011643Y003778D01*
X011620Y003763D01*
X011595Y003752D01*
X011580Y003749D01*
X010741Y003749D01*
X010695Y003756D01*
X010632Y003772D01*
X010571Y003797D01*
X010515Y003830D01*
X010463Y003870D01*
X010417Y003916D01*
X010377Y003968D01*
X010345Y004024D01*
X010320Y004085D01*
X010303Y004148D01*
X010294Y004212D01*
X010294Y004245D01*
X010294Y004278D01*
X010303Y004343D01*
X010320Y004407D01*
X010345Y004468D01*
X010378Y004524D01*
X010418Y004577D01*
X010464Y004623D01*
X010517Y004663D01*
X010574Y004696D01*
X010634Y004721D01*
X010698Y004738D01*
X010763Y004747D01*
X010796Y004747D01*
D02*
G37*
G36*
X006593Y010271D02*
X006592Y010270D01*
X006583Y010258D01*
X006580Y010244D01*
X006583Y010229D01*
X006592Y010217D01*
X006593Y010216D01*
X006593Y009612D01*
X006586Y009606D01*
X006572Y009603D01*
X006559Y009595D01*
X006551Y009583D01*
X006548Y009569D01*
X006551Y009554D01*
X006559Y009542D01*
X006572Y009534D01*
X006586Y009531D01*
X006593Y009525D01*
Y009503D01*
X006353Y009503D01*
X006353Y009647D01*
X006366Y009653D01*
X006368Y009652D01*
X006383Y009649D01*
X006397Y009652D01*
X006410Y009660D01*
X006418Y009672D01*
X006421Y009686D01*
X006419Y009693D01*
X006422Y009705D01*
X006427Y009709D01*
X006435Y009714D01*
X006443Y009727D01*
X006446Y009741D01*
X006443Y009755D01*
X006435Y009768D01*
X006423Y009776D01*
X006409Y009779D01*
X006401Y009784D01*
X006391Y009786D01*
X006368D01*
Y009788D01*
X006353D01*
X006353Y010254D01*
X006366Y010257D01*
X006369Y010252D01*
X006384Y010242D01*
X006403Y010238D01*
X006421Y010242D01*
X006437Y010252D01*
X006447Y010268D01*
X006451Y010286D01*
X006447Y010304D01*
X006437Y010320D01*
X006427Y010327D01*
Y010332D01*
X006437Y010348D01*
X006441Y010366D01*
X006437Y010384D01*
X006427Y010400D01*
X006411Y010410D01*
X006393Y010414D01*
X006374Y010410D01*
X006368Y010408D01*
X006368Y010408D01*
X006368Y010408D01*
X006353D01*
X006353Y010564D01*
X006593D01*
X006593Y010271D01*
D02*
G37*
G36*
X006593Y010916D02*
X006388Y010916D01*
X006377Y010929D01*
X006378Y010933D01*
X006376Y010948D01*
X006367Y010960D01*
X006358Y010966D01*
Y010993D01*
X006593Y010993D01*
Y010916D01*
D02*
G37*
G36*
X006593Y011771D02*
X006592Y011770D01*
X006583Y011758D01*
X006580Y011744D01*
X006583Y011729D01*
X006592Y011717D01*
X006593Y011716D01*
X006593Y011101D01*
X006580Y011091D01*
X006578Y011091D01*
X006564Y011088D01*
X006552Y011080D01*
X006543Y011068D01*
X006540Y011053D01*
X006543Y011039D01*
X006552Y011027D01*
X006564Y011019D01*
X006576Y011016D01*
X006575Y011003D01*
X006353Y011003D01*
X006353Y011147D01*
X006366Y011153D01*
X006368Y011152D01*
X006383Y011149D01*
X006397Y011152D01*
X006410Y011160D01*
X006418Y011172D01*
X006421Y011186D01*
X006419Y011193D01*
X006422Y011205D01*
X006427Y011209D01*
X006435Y011214D01*
X006443Y011227D01*
X006446Y011241D01*
X006443Y011255D01*
X006435Y011268D01*
X006423Y011276D01*
X006409Y011279D01*
X006401Y011284D01*
X006391Y011286D01*
X006368D01*
Y011288D01*
X006353D01*
X006353Y011754D01*
X006366Y011757D01*
X006369Y011752D01*
X006384Y011742D01*
X006403Y011738D01*
X006421Y011742D01*
X006437Y011752D01*
X006447Y011768D01*
X006451Y011786D01*
X006447Y011804D01*
X006437Y011820D01*
X006427Y011827D01*
Y011832D01*
X006437Y011848D01*
X006441Y011866D01*
X006437Y011884D01*
X006427Y011900D01*
X006411Y011910D01*
X006393Y011914D01*
X006374Y011910D01*
X006368Y011908D01*
X006368Y011908D01*
X006368Y011908D01*
X006353D01*
X006353Y012064D01*
X006593D01*
X006593Y011771D01*
D02*
G37*
G36*
X006593Y012416D02*
X006388Y012416D01*
X006377Y012429D01*
X006378Y012433D01*
X006376Y012448D01*
X006367Y012460D01*
X006358Y012466D01*
Y012493D01*
X006593Y012493D01*
Y012416D01*
D02*
G37*
G36*
X011195Y012125D02*
Y012325D01*
X011395D01*
Y012125D01*
X011195D01*
D02*
G37*
G36*
X011755D02*
Y012325D01*
X011955D01*
Y012125D01*
X011755D01*
D02*
G37*
G36*
X011805Y012425D02*
D01*
D02*
G37*
G36*
X012465Y012730D02*
X012619Y012577D01*
X012612Y012565D01*
X012583Y012572D01*
X012531Y012576D01*
X012479Y012572D01*
X012427Y012560D01*
X012379Y012539D01*
X012334Y012512D01*
X012294Y012478D01*
X012260Y012438D01*
X012232Y012393D01*
X012212Y012344D01*
X012200Y012293D01*
X012195Y012240D01*
X012200Y012188D01*
X012212Y012137D01*
X012232Y012088D01*
X012260Y012043D01*
X012294Y012003D01*
X012334Y011969D01*
X012371Y011947D01*
Y011927D01*
X012353Y011909D01*
X012025Y012237D01*
Y012591D01*
X012038Y012595D01*
X012045Y012585D01*
X012063Y012573D01*
X012072Y012571D01*
Y012625D01*
Y012679D01*
X012063Y012677D01*
X012045Y012665D01*
X012038Y012655D01*
X012025Y012659D01*
Y012735D01*
X012465D01*
Y012730D01*
D02*
G37*
G36*
X013026Y012170D02*
Y011544D01*
X012813Y011544D01*
X012807Y011556D01*
X012808Y011557D01*
X012809Y011562D01*
X012721D01*
X012720Y011561D01*
X012710Y011555D01*
X012703Y011560D01*
X012435Y011827D01*
X012470Y011862D01*
X012470Y011862D01*
X012482Y011880D01*
X012487Y011903D01*
X012493Y011908D01*
X012531Y011905D01*
X012583Y011909D01*
X012635Y011921D01*
X012683Y011942D01*
X012728Y011969D01*
X012768Y012003D01*
X012802Y012043D01*
X012830Y012088D01*
X012850Y012137D01*
X012862Y012188D01*
X012867Y012240D01*
X012862Y012293D01*
X012856Y012322D01*
X012867Y012328D01*
X013026Y012170D01*
D02*
G37*
%LPC*%
G36*
X004442Y012619D02*
X004433Y012618D01*
X004412Y012610D01*
X004394Y012596D01*
X004380Y012578D01*
X004372Y012557D01*
X004371Y012548D01*
X004442D01*
Y012619D01*
D02*
G37*
G36*
Y012522D02*
X004371D01*
X004372Y012513D01*
X004380Y012492D01*
X004394Y012474D01*
X004412Y012460D01*
X004433Y012452D01*
X004442Y012451D01*
Y012522D01*
D02*
G37*
G36*
X004482Y012372D02*
Y012331D01*
X004523D01*
X004521Y012340D01*
X004509Y012358D01*
X004491Y012370D01*
X004482Y012372D01*
D02*
G37*
G36*
X004456D02*
X004448Y012370D01*
X004429Y012358D01*
X004417Y012340D01*
X004415Y012331D01*
X004456D01*
Y012372D01*
D02*
G37*
G36*
X004285D02*
Y012331D01*
X004326D01*
X004325Y012340D01*
X004312Y012358D01*
X004294Y012370D01*
X004285Y012372D01*
D02*
G37*
G36*
X004260D02*
X004251Y012370D01*
X004233Y012358D01*
X004220Y012340D01*
X004219Y012331D01*
X004260D01*
Y012372D01*
D02*
G37*
G36*
X004523Y012305D02*
X004482D01*
Y012264D01*
X004491Y012266D01*
X004509Y012278D01*
X004521Y012296D01*
X004523Y012305D01*
D02*
G37*
G36*
X004456D02*
X004415D01*
X004417Y012296D01*
X004429Y012278D01*
X004448Y012266D01*
X004456Y012264D01*
Y012305D01*
D02*
G37*
G36*
X004326D02*
X004285D01*
Y012264D01*
X004294Y012266D01*
X004312Y012278D01*
X004325Y012296D01*
X004326Y012305D01*
D02*
G37*
G36*
X004260D02*
X004219D01*
X004220Y012296D01*
X004233Y012278D01*
X004251Y012266D01*
X004260Y012264D01*
Y012305D01*
D02*
G37*
G36*
X003639Y011726D02*
Y011685D01*
X003681D01*
X003679Y011694D01*
X003667Y011712D01*
X003648Y011724D01*
X003639Y011726D01*
D02*
G37*
G36*
X003614D02*
X003605Y011724D01*
X003587Y011712D01*
X003574Y011694D01*
X003573Y011685D01*
X003614D01*
Y011726D01*
D02*
G37*
G36*
X003681Y011659D02*
X003639D01*
Y011618D01*
X003648Y011620D01*
X003667Y011632D01*
X003679Y011650D01*
X003681Y011659D01*
D02*
G37*
G36*
X003614D02*
X003573D01*
X003574Y011650D01*
X003587Y011632D01*
X003605Y011620D01*
X003614Y011618D01*
Y011659D01*
D02*
G37*
G36*
X003945Y011585D02*
X003932Y011583D01*
X003907Y011573D01*
X003886Y011557D01*
X003870Y011536D01*
X003860Y011511D01*
X003858Y011498D01*
X003945D01*
Y011585D01*
D02*
G37*
G36*
X003639Y011529D02*
Y011488D01*
X003681D01*
X003679Y011497D01*
X003667Y011515D01*
X003648Y011528D01*
X003639Y011529D01*
D02*
G37*
G36*
X003614D02*
X003605Y011528D01*
X003587Y011515D01*
X003574Y011497D01*
X003573Y011488D01*
X003614D01*
Y011529D01*
D02*
G37*
G36*
X003681Y011463D02*
X003639D01*
Y011421D01*
X003648Y011423D01*
X003667Y011435D01*
X003679Y011454D01*
X003681Y011463D01*
D02*
G37*
G36*
X003614D02*
X003573D01*
X003574Y011454D01*
X003587Y011435D01*
X003605Y011423D01*
X003614Y011421D01*
Y011463D01*
D02*
G37*
G36*
X003945Y011472D02*
X003858D01*
X003860Y011459D01*
X003870Y011434D01*
X003886Y011413D01*
X003907Y011397D01*
X003932Y011387D01*
X003945Y011385D01*
Y011472D01*
D02*
G37*
G36*
X003639Y011333D02*
Y011291D01*
X003681D01*
X003679Y011300D01*
X003667Y011319D01*
X003648Y011331D01*
X003639Y011333D01*
D02*
G37*
G36*
X003614D02*
X003605Y011331D01*
X003587Y011319D01*
X003574Y011300D01*
X003573Y011291D01*
X003614D01*
Y011333D01*
D02*
G37*
G36*
X003681Y011266D02*
X003639D01*
Y011225D01*
X003648Y011226D01*
X003667Y011239D01*
X003679Y011257D01*
X003681Y011266D01*
D02*
G37*
G36*
X003614D02*
X003573D01*
X003574Y011257D01*
X003587Y011239D01*
X003605Y011226D01*
X003614Y011225D01*
Y011266D01*
D02*
G37*
G36*
X003639Y011136D02*
Y011095D01*
X003681D01*
X003679Y011104D01*
X003667Y011122D01*
X003648Y011134D01*
X003639Y011136D01*
D02*
G37*
G36*
X003614D02*
X003605Y011134D01*
X003587Y011122D01*
X003574Y011104D01*
X003573Y011095D01*
X003614D01*
Y011136D01*
D02*
G37*
G36*
X003681Y011069D02*
X003639D01*
Y011028D01*
X003648Y011030D01*
X003667Y011042D01*
X003679Y011060D01*
X003681Y011069D01*
D02*
G37*
G36*
X003614D02*
X003573D01*
X003574Y011060D01*
X003587Y011042D01*
X003605Y011030D01*
X003614Y011028D01*
Y011069D01*
D02*
G37*
G36*
X003639Y005579D02*
Y005538D01*
X003681D01*
X003679Y005547D01*
X003667Y005565D01*
X003648Y005577D01*
X003639Y005579D01*
D02*
G37*
G36*
X003614D02*
X003605Y005577D01*
X003587Y005565D01*
X003574Y005547D01*
X003573Y005538D01*
X003614D01*
Y005579D01*
D02*
G37*
G36*
X003681Y005512D02*
X003639D01*
Y005471D01*
X003648Y005473D01*
X003667Y005485D01*
X003679Y005503D01*
X003681Y005512D01*
D02*
G37*
G36*
X003614D02*
X003573D01*
X003574Y005503D01*
X003587Y005485D01*
X003605Y005473D01*
X003614Y005471D01*
Y005512D01*
D02*
G37*
G36*
X003639Y005382D02*
Y005341D01*
X003681D01*
X003679Y005350D01*
X003667Y005368D01*
X003648Y005381D01*
X003639Y005382D01*
D02*
G37*
G36*
X003614D02*
X003605Y005381D01*
X003587Y005368D01*
X003574Y005350D01*
X003573Y005341D01*
X003614D01*
Y005382D01*
D02*
G37*
G36*
X003958Y005482D02*
X003934Y005479D01*
X003912Y005469D01*
X003892Y005455D01*
X003878Y005435D01*
X003868Y005413D01*
X003865Y005389D01*
X003868Y005365D01*
X003878Y005343D01*
X003892Y005323D01*
X003912Y005309D01*
X003934Y005299D01*
X003958Y005296D01*
X003982Y005299D01*
X004004Y005309D01*
X004024Y005323D01*
X004038Y005343D01*
X004048Y005365D01*
X004051Y005389D01*
X004048Y005413D01*
X004038Y005435D01*
X004024Y005455D01*
X004004Y005469D01*
X003982Y005479D01*
X003958Y005482D01*
D02*
G37*
G36*
X004199Y005376D02*
X004112D01*
X004114Y005363D01*
X004124Y005338D01*
X004140Y005317D01*
X004161Y005301D01*
X004186Y005291D01*
X004199Y005289D01*
Y005376D01*
D02*
G37*
G36*
X003681Y005316D02*
X003639D01*
Y005274D01*
X003648Y005276D01*
X003667Y005288D01*
X003679Y005307D01*
X003681Y005316D01*
D02*
G37*
G36*
X003614D02*
X003573D01*
X003574Y005307D01*
X003587Y005288D01*
X003605Y005276D01*
X003614Y005274D01*
Y005316D01*
D02*
G37*
G36*
X004199Y005235D02*
X004112D01*
Y005148D01*
X004199D01*
Y005235D01*
D02*
G37*
G36*
X003639Y005186D02*
Y005144D01*
X003681D01*
X003679Y005153D01*
X003667Y005172D01*
X003648Y005184D01*
X003639Y005186D01*
D02*
G37*
G36*
X003614D02*
X003605Y005184D01*
X003587Y005172D01*
X003574Y005153D01*
X003573Y005144D01*
X003614D01*
Y005186D01*
D02*
G37*
G36*
X003681Y005119D02*
X003639D01*
Y005078D01*
X003648Y005079D01*
X003667Y005092D01*
X003679Y005110D01*
X003681Y005119D01*
D02*
G37*
G36*
X003614D02*
X003573D01*
X003574Y005110D01*
X003587Y005092D01*
X003605Y005079D01*
X003614Y005078D01*
Y005119D01*
D02*
G37*
G36*
X003958Y005228D02*
X003934Y005225D01*
X003912Y005215D01*
X003892Y005201D01*
X003878Y005181D01*
X003868Y005159D01*
X003865Y005135D01*
X003868Y005111D01*
X003878Y005089D01*
X003892Y005069D01*
X003912Y005055D01*
X003934Y005045D01*
X003958Y005042D01*
X003982Y005045D01*
X004004Y005055D01*
X004024Y005069D01*
X004038Y005089D01*
X004048Y005111D01*
X004051Y005135D01*
X004048Y005159D01*
X004038Y005181D01*
X004024Y005201D01*
X004004Y005215D01*
X003982Y005225D01*
X003958Y005228D01*
D02*
G37*
G36*
X004312Y005122D02*
X004225D01*
Y005035D01*
X004312D01*
Y005122D01*
D02*
G37*
G36*
X004199D02*
X004112D01*
Y005035D01*
X004199D01*
Y005122D01*
D02*
G37*
G36*
X003639Y004989D02*
Y004948D01*
X003681D01*
X003679Y004957D01*
X003667Y004975D01*
X003648Y004987D01*
X003639Y004989D01*
D02*
G37*
G36*
X003614D02*
X003605Y004987D01*
X003587Y004975D01*
X003574Y004957D01*
X003573Y004948D01*
X003614D01*
Y004989D01*
D02*
G37*
G36*
X003681Y004922D02*
X003639D01*
Y004881D01*
X003648Y004883D01*
X003667Y004895D01*
X003679Y004913D01*
X003681Y004922D01*
D02*
G37*
G36*
X003614D02*
X003573D01*
X003574Y004913D01*
X003587Y004895D01*
X003605Y004883D01*
X003614Y004881D01*
Y004922D01*
D02*
G37*
G36*
X005122Y004552D02*
X004885D01*
X004888Y004516D01*
X004903Y004469D01*
X004926Y004425D01*
X004957Y004387D01*
X004995Y004356D01*
X005039Y004333D01*
X005086Y004318D01*
X005122Y004315D01*
Y004552D01*
D02*
G37*
G36*
X004875Y004343D02*
Y004302D01*
X004916D01*
X004915Y004311D01*
X004902Y004329D01*
X004884Y004341D01*
X004875Y004343D01*
D02*
G37*
G36*
X004850D02*
X004841Y004341D01*
X004823Y004329D01*
X004810Y004311D01*
X004809Y004302D01*
X004850D01*
Y004343D01*
D02*
G37*
G36*
X004679D02*
Y004302D01*
X004720D01*
X004718Y004311D01*
X004706Y004329D01*
X004687Y004341D01*
X004679Y004343D01*
D02*
G37*
G36*
X004653D02*
X004644Y004341D01*
X004626Y004329D01*
X004614Y004311D01*
X004612Y004302D01*
X004653D01*
Y004343D01*
D02*
G37*
G36*
X004482D02*
Y004302D01*
X004523D01*
X004521Y004311D01*
X004509Y004329D01*
X004491Y004341D01*
X004482Y004343D01*
D02*
G37*
G36*
X004456D02*
X004448Y004341D01*
X004429Y004329D01*
X004417Y004311D01*
X004415Y004302D01*
X004456D01*
Y004343D01*
D02*
G37*
G36*
X004285D02*
Y004302D01*
X004326D01*
X004325Y004311D01*
X004312Y004329D01*
X004294Y004341D01*
X004285Y004343D01*
D02*
G37*
G36*
X004260D02*
X004251Y004341D01*
X004233Y004329D01*
X004220Y004311D01*
X004219Y004302D01*
X004260D01*
Y004343D01*
D02*
G37*
G36*
X004916Y004276D02*
X004875D01*
Y004235D01*
X004884Y004237D01*
X004902Y004249D01*
X004915Y004267D01*
X004916Y004276D01*
D02*
G37*
G36*
X004850D02*
X004809D01*
X004810Y004267D01*
X004823Y004249D01*
X004841Y004237D01*
X004850Y004235D01*
Y004276D01*
D02*
G37*
G36*
X004720D02*
X004679D01*
Y004235D01*
X004687Y004237D01*
X004706Y004249D01*
X004718Y004267D01*
X004720Y004276D01*
D02*
G37*
G36*
X004653D02*
X004612D01*
X004614Y004267D01*
X004626Y004249D01*
X004644Y004237D01*
X004653Y004235D01*
Y004276D01*
D02*
G37*
G36*
X004523D02*
X004482D01*
Y004235D01*
X004491Y004237D01*
X004509Y004249D01*
X004521Y004267D01*
X004523Y004276D01*
D02*
G37*
G36*
X004456D02*
X004415D01*
X004417Y004267D01*
X004429Y004249D01*
X004448Y004237D01*
X004456Y004235D01*
Y004276D01*
D02*
G37*
G36*
X004326D02*
X004285D01*
Y004235D01*
X004294Y004237D01*
X004312Y004249D01*
X004325Y004267D01*
X004326Y004276D01*
D02*
G37*
G36*
X004260D02*
X004219D01*
X004220Y004267D01*
X004233Y004249D01*
X004251Y004237D01*
X004260Y004235D01*
Y004276D01*
D02*
G37*
G36*
X012818Y004839D02*
Y004808D01*
X012849D01*
X012848Y004813D01*
X012838Y004828D01*
X012823Y004838D01*
X012818Y004839D01*
D02*
G37*
G36*
X012792D02*
X012787Y004838D01*
X012772Y004828D01*
X012762Y004813D01*
X012761Y004808D01*
X012792D01*
Y004839D01*
D02*
G37*
G36*
X012969Y004813D02*
X012928D01*
Y004772D01*
X012937Y004773D01*
X012955Y004786D01*
X012968Y004804D01*
X012969Y004813D01*
D02*
G37*
G36*
X012903D02*
X012862D01*
X012863Y004804D01*
X012876Y004786D01*
X012894Y004773D01*
X012903Y004772D01*
Y004813D01*
D02*
G37*
G36*
X012849Y004782D02*
X012818D01*
Y004751D01*
X012823Y004752D01*
X012838Y004762D01*
X012848Y004777D01*
X012849Y004782D01*
D02*
G37*
G36*
X012792D02*
X012761D01*
X012762Y004777D01*
X012772Y004762D01*
X012787Y004752D01*
X012792Y004751D01*
Y004782D01*
D02*
G37*
G36*
X012928Y004740D02*
Y004699D01*
X012969D01*
X012968Y004708D01*
X012955Y004726D01*
X012937Y004738D01*
X012928Y004740D01*
D02*
G37*
G36*
X012903D02*
X012894Y004738D01*
X012876Y004726D01*
X012863Y004708D01*
X012862Y004699D01*
X012903D01*
Y004740D01*
D02*
G37*
G36*
X012969Y004673D02*
X012928D01*
Y004632D01*
X012937Y004634D01*
X012955Y004646D01*
X012968Y004664D01*
X012969Y004673D01*
D02*
G37*
G36*
X012903D02*
X012862D01*
X012863Y004664D01*
X012876Y004646D01*
X012894Y004634D01*
X012903Y004632D01*
Y004673D01*
D02*
G37*
G36*
X012928Y004601D02*
Y004559D01*
X012969D01*
X012968Y004568D01*
X012955Y004586D01*
X012937Y004599D01*
X012928Y004601D01*
D02*
G37*
G36*
X012903D02*
X012894Y004599D01*
X012876Y004586D01*
X012863Y004568D01*
X012862Y004559D01*
X012903D01*
Y004601D01*
D02*
G37*
G36*
X012969Y004534D02*
X012928D01*
Y004493D01*
X012937Y004494D01*
X012955Y004507D01*
X012968Y004525D01*
X012969Y004534D01*
D02*
G37*
G36*
X012903D02*
X012862D01*
X012863Y004525D01*
X012876Y004507D01*
X012894Y004494D01*
X012903Y004493D01*
Y004534D01*
D02*
G37*
G36*
X012222Y004001D02*
Y003960D01*
X012263D01*
X012261Y003969D01*
X012249Y003987D01*
X012231Y004000D01*
X012222Y004001D01*
D02*
G37*
G36*
X012196D02*
X012187Y004000D01*
X012169Y003987D01*
X012157Y003969D01*
X012155Y003960D01*
X012196D01*
Y004001D01*
D02*
G37*
G36*
X012082D02*
Y003960D01*
X012123D01*
X012122Y003969D01*
X012109Y003987D01*
X012091Y004000D01*
X012082Y004001D01*
D02*
G37*
G36*
X012057D02*
X012048Y004000D01*
X012030Y003987D01*
X012017Y003969D01*
X012016Y003960D01*
X012057D01*
Y004001D01*
D02*
G37*
G36*
X011943D02*
Y003960D01*
X011984D01*
X011982Y003969D01*
X011970Y003987D01*
X011952Y004000D01*
X011943Y004001D01*
D02*
G37*
G36*
X011917D02*
X011908Y004000D01*
X011890Y003987D01*
X011878Y003969D01*
X011876Y003960D01*
X011917D01*
Y004001D01*
D02*
G37*
G36*
X012263Y003935D02*
X012222D01*
Y003894D01*
X012231Y003895D01*
X012249Y003908D01*
X012261Y003926D01*
X012263Y003935D01*
D02*
G37*
G36*
X012196D02*
X012155D01*
X012157Y003926D01*
X012169Y003908D01*
X012187Y003895D01*
X012196Y003894D01*
Y003935D01*
D02*
G37*
G36*
X012123D02*
X012082D01*
Y003894D01*
X012091Y003895D01*
X012109Y003908D01*
X012122Y003926D01*
X012123Y003935D01*
D02*
G37*
G36*
X012057D02*
X012016D01*
X012017Y003926D01*
X012030Y003908D01*
X012048Y003895D01*
X012057Y003894D01*
Y003935D01*
D02*
G37*
G36*
X011984D02*
X011943D01*
Y003894D01*
X011952Y003895D01*
X011970Y003908D01*
X011982Y003926D01*
X011984Y003935D01*
D02*
G37*
G36*
X011917D02*
X011876D01*
X011878Y003926D01*
X011890Y003908D01*
X011908Y003895D01*
X011917Y003894D01*
Y003935D01*
D02*
G37*
G36*
X011740Y004649D02*
Y004613D01*
X011776D01*
X011775Y004620D01*
X011764Y004637D01*
X011747Y004648D01*
X011740Y004649D01*
D02*
G37*
G36*
X011715D02*
X011708Y004648D01*
X011691Y004637D01*
X011680Y004620D01*
X011679Y004613D01*
X011715D01*
Y004649D01*
D02*
G37*
G36*
X011776Y004588D02*
X011740D01*
Y004551D01*
X011747Y004553D01*
X011764Y004564D01*
X011775Y004581D01*
X011776Y004588D01*
D02*
G37*
G36*
X011715D02*
X011679D01*
X011680Y004581D01*
X011691Y004564D01*
X011708Y004553D01*
X011715Y004551D01*
Y004588D01*
D02*
G37*
G36*
X011456Y004504D02*
Y004468D01*
X011492D01*
X011491Y004475D01*
X011479Y004491D01*
X011463Y004502D01*
X011456Y004504D01*
D02*
G37*
G36*
X011430D02*
X011423Y004502D01*
X011407Y004491D01*
X011396Y004475D01*
X011394Y004468D01*
X011430D01*
Y004504D01*
D02*
G37*
G36*
X010595Y004499D02*
Y004458D01*
X010636D01*
X010634Y004467D01*
X010622Y004485D01*
X010604Y004497D01*
X010595Y004499D01*
D02*
G37*
G36*
X010569D02*
X010560Y004497D01*
X010542Y004485D01*
X010530Y004467D01*
X010528Y004458D01*
X010569D01*
Y004499D01*
D02*
G37*
G36*
X011492Y004442D02*
X011456D01*
Y004406D01*
X011463Y004408D01*
X011479Y004419D01*
X011491Y004435D01*
X011492Y004442D01*
D02*
G37*
G36*
X011430D02*
X011394D01*
X011396Y004435D01*
X011407Y004419D01*
X011423Y004408D01*
X011430Y004406D01*
Y004442D01*
D02*
G37*
G36*
X010636Y004433D02*
X010595D01*
Y004391D01*
X010604Y004393D01*
X010622Y004405D01*
X010634Y004424D01*
X010636Y004433D01*
D02*
G37*
G36*
X010569D02*
X010528D01*
X010530Y004424D01*
X010542Y004405D01*
X010560Y004393D01*
X010569Y004391D01*
Y004433D01*
D02*
G37*
G36*
X011358Y004309D02*
Y004248D01*
X011419D01*
X011418Y004255D01*
X011411Y004273D01*
X011399Y004289D01*
X011383Y004301D01*
X011365Y004308D01*
X011358Y004309D01*
D02*
G37*
G36*
X011332D02*
X011325Y004308D01*
X011307Y004301D01*
X011291Y004289D01*
X011279Y004273D01*
X011272Y004255D01*
X011271Y004248D01*
X011332D01*
Y004309D01*
D02*
G37*
G36*
X011419Y004222D02*
X011358D01*
Y004161D01*
X011365Y004162D01*
X011383Y004169D01*
X011399Y004181D01*
X011411Y004197D01*
X011418Y004215D01*
X011419Y004222D01*
D02*
G37*
G36*
X011332D02*
X011271D01*
X011272Y004215D01*
X011279Y004197D01*
X011291Y004181D01*
X011307Y004169D01*
X011325Y004162D01*
X011332Y004161D01*
Y004222D01*
D02*
G37*
G36*
X011598Y003943D02*
Y003912D01*
X011629D01*
X011628Y003917D01*
X011618Y003932D01*
X011603Y003942D01*
X011598Y003943D01*
D02*
G37*
G36*
X011572D02*
X011567Y003942D01*
X011552Y003932D01*
X011542Y003917D01*
X011541Y003912D01*
X011572D01*
Y003943D01*
D02*
G37*
G36*
X010831Y003918D02*
Y003856D01*
X010893D01*
X010892Y003863D01*
X010884Y003881D01*
X010872Y003897D01*
X010856Y003909D01*
X010838Y003917D01*
X010831Y003918D01*
D02*
G37*
G36*
X010806D02*
X010799Y003917D01*
X010780Y003909D01*
X010764Y003897D01*
X010752Y003881D01*
X010745Y003863D01*
X010744Y003856D01*
X010806D01*
Y003918D01*
D02*
G37*
G36*
X011629Y003886D02*
X011598D01*
Y003855D01*
X011603Y003856D01*
X011618Y003866D01*
X011628Y003881D01*
X011629Y003886D01*
D02*
G37*
G36*
X011572D02*
X011541D01*
X011542Y003881D01*
X011552Y003866D01*
X011567Y003856D01*
X011572Y003855D01*
Y003886D01*
D02*
G37*
G36*
X010893Y003831D02*
X010831D01*
Y003769D01*
X010838Y003770D01*
X010856Y003777D01*
X010872Y003790D01*
X010884Y003805D01*
X010892Y003824D01*
X010893Y003831D01*
D02*
G37*
G36*
X010806D02*
X010744D01*
X010745Y003824D01*
X010752Y003805D01*
X010764Y003790D01*
X010780Y003777D01*
X010799Y003770D01*
X010806Y003769D01*
Y003831D01*
D02*
G37*
G36*
X012237Y012679D02*
Y012638D01*
X012278D01*
X012276Y012647D01*
X012264Y012665D01*
X012246Y012677D01*
X012237Y012679D01*
D02*
G37*
G36*
X012211D02*
X012202Y012677D01*
X012184Y012665D01*
X012172Y012647D01*
X012170Y012638D01*
X012211D01*
Y012679D01*
D02*
G37*
G36*
X012097D02*
Y012638D01*
X012138D01*
X012137Y012647D01*
X012124Y012665D01*
X012106Y012677D01*
X012097Y012679D01*
D02*
G37*
G36*
X012278Y012612D02*
X012237D01*
Y012571D01*
X012246Y012573D01*
X012264Y012585D01*
X012276Y012603D01*
X012278Y012612D01*
D02*
G37*
G36*
X012211D02*
X012170D01*
X012172Y012603D01*
X012184Y012585D01*
X012202Y012573D01*
X012211Y012571D01*
Y012612D01*
D02*
G37*
G36*
X012138D02*
X012097D01*
Y012571D01*
X012106Y012573D01*
X012124Y012585D01*
X012137Y012603D01*
X012138Y012612D01*
D02*
G37*
G36*
X012928Y011987D02*
Y011946D01*
X012969D01*
X012968Y011955D01*
X012955Y011973D01*
X012937Y011986D01*
X012928Y011987D01*
D02*
G37*
G36*
X012903D02*
X012894Y011986D01*
X012876Y011973D01*
X012863Y011955D01*
X012862Y011946D01*
X012903D01*
Y011987D01*
D02*
G37*
G36*
X012969Y011921D02*
X012928D01*
Y011879D01*
X012937Y011881D01*
X012955Y011894D01*
X012968Y011912D01*
X012969Y011921D01*
D02*
G37*
G36*
X012903D02*
X012862D01*
X012863Y011912D01*
X012876Y011894D01*
X012894Y011881D01*
X012903Y011879D01*
Y011921D01*
D02*
G37*
G36*
X012928Y011848D02*
Y011807D01*
X012969D01*
X012968Y011816D01*
X012955Y011834D01*
X012937Y011846D01*
X012928Y011848D01*
D02*
G37*
G36*
X012903D02*
X012894Y011846D01*
X012876Y011834D01*
X012863Y011816D01*
X012862Y011807D01*
X012903D01*
Y011848D01*
D02*
G37*
G36*
X012969Y011781D02*
X012928D01*
Y011740D01*
X012937Y011742D01*
X012955Y011754D01*
X012968Y011772D01*
X012969Y011781D01*
D02*
G37*
G36*
X012903D02*
X012862D01*
X012863Y011772D01*
X012876Y011754D01*
X012894Y011742D01*
X012903Y011740D01*
Y011781D01*
D02*
G37*
G36*
X012928Y011708D02*
Y011667D01*
X012969D01*
X012968Y011676D01*
X012955Y011694D01*
X012937Y011707D01*
X012928Y011708D01*
D02*
G37*
G36*
X012903D02*
X012894Y011707D01*
X012876Y011694D01*
X012863Y011676D01*
X012862Y011667D01*
X012903D01*
Y011708D01*
D02*
G37*
G36*
X012969Y011642D02*
X012928D01*
Y011601D01*
X012937Y011602D01*
X012955Y011615D01*
X012968Y011633D01*
X012969Y011642D01*
D02*
G37*
G36*
X012903D02*
X012862D01*
X012863Y011633D01*
X012876Y011615D01*
X012894Y011602D01*
X012903Y011601D01*
Y011642D01*
D02*
G37*
G36*
X012778Y011619D02*
Y011588D01*
X012809D01*
X012808Y011593D01*
X012798Y011608D01*
X012783Y011618D01*
X012778Y011619D01*
D02*
G37*
G36*
X012752D02*
X012747Y011618D01*
X012732Y011608D01*
X012722Y011593D01*
X012721Y011588D01*
X012752D01*
Y011619D01*
D02*
G37*
%LPD*%
D10*
X011252Y005096D02*
X011345D01*
X011255Y005046D02*
X011255Y005046D01*
X011345D01*
X011264Y004996D02*
X011345D01*
X011255Y005005D02*
X011264Y004996D01*
X011765Y005046D02*
X011844D01*
X011765Y005096D02*
X011844D01*
X011680D02*
X011765D01*
X011680Y005046D02*
X011764D01*
Y004996D02*
X011844D01*
X011680D02*
X011764D01*
X012315Y005095D02*
X012365Y005045D01*
X012255D02*
X012365D01*
X012255Y005095D02*
X012315D01*
X012255Y004995D02*
X012315D01*
X012180Y005095D02*
X012255D01*
X012180Y005045D02*
X012255D01*
X012180Y004995D02*
X012255D01*
X012315Y007845D02*
X012365Y007795D01*
X012255Y007845D02*
X012315D01*
X012255Y007795D02*
X012365D01*
X012180D02*
X012255D01*
X012180Y007845D02*
X012255D01*
Y007745D02*
X012315D01*
X012180D02*
X012255D01*
X011765Y007796D02*
X011844D01*
X011680D02*
X011764D01*
X011765Y007846D02*
X011844D01*
X011680D02*
X011765D01*
X011764Y007746D02*
X011844D01*
X011680D02*
X011764D01*
X011252Y007846D02*
X011345D01*
X011255Y007796D02*
X011255Y007796D01*
X011345D01*
X011255Y007755D02*
X011264Y007746D01*
X011345D01*
X006361Y010995D02*
X006592D01*
X006361Y007995D02*
X006592D01*
X006361Y009495D02*
X006592D01*
X006361Y006495D02*
X006592D01*
X006361Y004995D02*
X006592D01*
D11*
X010635Y011825D02*
X010800D01*
X010635Y012028D02*
X010800D01*
X010235D02*
X010400D01*
X010235Y011825D02*
X010400D01*
X009835D02*
X010000D01*
X009835Y012028D02*
X010000D01*
D13*
X004985Y011255D02*
X005088D01*
X004985Y005533D02*
Y007234D01*
X004985Y011732D02*
X004985Y011255D01*
X004905Y011812D02*
X004985Y011732D01*
X004905Y011812D02*
Y012222D01*
X006955Y012325D02*
X006995Y012285D01*
X006958Y012248D02*
X006995Y012285D01*
X011995Y006425D02*
X012225D01*
X011985Y006415D02*
X011995Y006425D01*
X004985Y011255D02*
X004985Y007234D01*
X004935Y007184D02*
X004985Y007234D01*
X004935Y007181D02*
Y007184D01*
X004790Y007036D02*
X004935Y007181D01*
X004670Y007036D02*
X004790D01*
X004595Y006855D02*
Y006961D01*
X004466Y006726D02*
X004595Y006855D01*
X004466Y006658D02*
Y006726D01*
X004595Y006961D02*
X004670Y007036D01*
D14*
X009375Y012235D02*
Y012465D01*
X009435Y012205D02*
Y012490D01*
X009315Y012275D02*
Y012440D01*
X011705Y012065D02*
Y012225D01*
X009195Y012645D02*
X009375Y012465D01*
X004585Y012368D02*
X004585Y012154D01*
X004585Y011854D01*
X009170Y012585D02*
X009315Y012440D01*
X009220Y012705D02*
X009435Y012490D01*
X004785Y012154D02*
Y012342D01*
Y012154D02*
X004785Y011803D01*
X005028Y012585D02*
X009170D01*
X004785Y012342D02*
X005028Y012585D01*
X004685Y012222D02*
Y012355D01*
Y012222D02*
X004685Y011825D01*
X004975Y012645D02*
X009195D01*
X004685Y012355D02*
X004975Y012645D01*
X004466Y011484D02*
X004785Y011803D01*
X004471Y011611D02*
X004685Y011825D01*
X004424Y011693D02*
X004585Y011854D01*
X004585Y012368D02*
X004922Y012705D01*
X009220D01*
X006433Y005308D02*
Y005358D01*
X004987Y011531D02*
X005088D01*
X004373Y011693D02*
X004424D01*
X004282Y011602D02*
X004373Y011693D01*
X004411Y011611D02*
X004471D01*
X004345Y011545D02*
X004411Y011611D01*
X004166Y011602D02*
X004282D01*
X004085Y011521D02*
X004166Y011602D01*
X004345Y011545D02*
X004345Y006792D01*
X004212Y006659D02*
X004345Y006792D01*
X004085Y006786D02*
Y011521D01*
X003958Y006659D02*
X004085Y006786D01*
X006433Y005358D02*
Y005408D01*
Y011978D02*
Y012028D01*
Y011928D02*
Y011978D01*
Y011308D02*
Y011358D01*
Y011408D01*
X005594Y011413D02*
Y011494D01*
X006433Y008978D02*
Y009028D01*
Y008928D02*
Y008978D01*
Y008308D02*
Y008358D01*
Y008408D01*
X005594Y008413D02*
Y008494D01*
X006433Y010478D02*
Y010528D01*
Y010428D02*
Y010478D01*
Y009808D02*
Y009858D01*
Y009908D01*
X005594Y009913D02*
Y009994D01*
X006433Y007478D02*
Y007528D01*
Y007428D02*
Y007478D01*
Y006808D02*
Y006858D01*
Y006908D01*
X005594Y006913D02*
Y006994D01*
Y005413D02*
Y005494D01*
X006433Y005978D02*
Y006028D01*
Y005928D02*
Y005978D01*
D15*
X009490Y010870D02*
X009553D01*
X009465Y010895D02*
Y010955D01*
Y010895D02*
X009490Y010870D01*
X011943Y010270D02*
X011945Y010272D01*
X011790Y010270D02*
X011943D01*
X011678Y010370D02*
X011790D01*
X005767Y012433D02*
X005768Y012432D01*
X005767Y010933D02*
X005768Y010932D01*
X005767Y009433D02*
X005768Y009432D01*
X005767Y007933D02*
X005768Y007932D01*
X005767Y006433D02*
X005768Y006432D01*
X007123Y006424D02*
Y006451D01*
Y006314D02*
Y006424D01*
X007119Y006420D02*
X007123Y006424D01*
X007043Y006420D02*
X007119D01*
X007123Y008149D02*
Y008181D01*
Y008044D02*
Y008149D01*
X007122Y008150D02*
X007123Y008149D01*
X007043Y008150D02*
X007122D01*
X007123Y009880D02*
Y009911D01*
Y009774D02*
Y009880D01*
X007043D02*
X007123D01*
X007123Y011610D02*
Y011641D01*
Y011504D02*
Y011610D01*
X007043D02*
X007123D01*
X008863Y010663D02*
X008868Y010657D01*
X008972D01*
X008863Y010815D02*
X008913Y010865D01*
X008993D01*
X008650Y010803D02*
X008732D01*
X008795Y010740D01*
X008993D01*
X008863Y008933D02*
X008863Y008932D01*
X008965D01*
X008650Y009073D02*
X008732D01*
X008794Y009010D01*
X008993D01*
X008863Y009085D02*
X008913Y009135D01*
X008993D01*
X008980Y007280D02*
X008993Y007293D01*
X008785Y007280D02*
X008980D01*
X008722Y007343D02*
X008785Y007280D01*
X008863Y007355D02*
X008913Y007405D01*
X008993D01*
X008913Y005675D02*
X008993D01*
X008650Y005613D02*
X008722D01*
X008785Y005550D02*
X008993D01*
X008722Y005613D02*
X008785Y005550D01*
X008863Y005625D02*
X008913Y005675D01*
X009442Y010622D02*
X009558D01*
X009407Y010072D02*
X009554D01*
X009348Y009422D02*
X009554D01*
X005168Y011402D02*
X005183Y011416D01*
X005208Y011291D02*
X005248Y011331D01*
X012085Y006176D02*
X012224D01*
X012295Y005920D02*
X012515D01*
X012224Y006301D02*
X012225Y006300D01*
X012085Y006301D02*
X012224D01*
X012512Y007303D02*
X012515Y007305D01*
X012295Y007303D02*
X012512D01*
X010384Y012245D02*
X010955D01*
X010215Y012414D02*
X010384Y012245D01*
X010215Y012414D02*
Y012552D01*
X010112Y012201D02*
X010942D01*
X010083Y012230D02*
X010112Y012201D01*
X010083Y012230D02*
Y012465D01*
X005201Y012261D02*
X005212Y012272D01*
X005201Y012233D02*
Y012261D01*
X005173Y012205D02*
X005201Y012233D01*
X005212Y012272D02*
X005313D01*
X005230Y010772D02*
X005313D01*
X005230Y009272D02*
X005313D01*
X005230Y007772D02*
X005313D01*
X005230Y006272D02*
X005313D01*
X005108Y012231D02*
Y012281D01*
X005098Y012221D02*
X005108Y012231D01*
X005487Y012281D02*
X005488D01*
X005398D02*
X005487D01*
X005173Y012083D02*
Y012205D01*
X010545Y011555D02*
X010725Y011375D01*
X009608Y011555D02*
X010545D01*
X009195Y011968D02*
X009608Y011555D01*
X010525Y011515D02*
X010705Y011335D01*
X009595Y011515D02*
X010525D01*
X009135Y011975D02*
X009595Y011515D01*
X010473Y011475D02*
X010590Y011358D01*
X009579Y011475D02*
X010473D01*
X009207Y011847D02*
X009579Y011475D01*
X010455Y011435D02*
X010540Y011350D01*
X009565Y011435D02*
X010455D01*
X009233Y011767D02*
X009565Y011435D01*
X010435Y011395D02*
X010490Y011340D01*
X009549Y011395D02*
X010435D01*
X009257Y011687D02*
X009549Y011395D01*
X010340Y011205D02*
Y011290D01*
X010272Y011358D02*
X010340Y011290D01*
X009527Y011358D02*
X010272D01*
X009279Y011606D02*
X009527Y011358D01*
X011097Y011413D02*
X011374D01*
X011015Y011495D02*
X011097Y011413D01*
X011015Y011495D02*
Y012128D01*
X009348Y009672D02*
X009554D01*
X011815Y009520D02*
X011825D01*
X011678D02*
X011815D01*
X011785Y009570D02*
X011790D01*
X011678D02*
X011785D01*
X009442Y009322D02*
X009554D01*
X009406Y009271D02*
X009554D01*
X011391Y008725D02*
Y008931D01*
Y008715D02*
Y008725D01*
X009442Y009522D02*
X009554D01*
X009407Y009572D02*
X009554D01*
X010447Y007525D02*
X011015D01*
X010385Y007463D02*
X010447Y007525D01*
X010385Y007445D02*
Y007463D01*
X010500Y007485D02*
X011001D01*
X010475Y007460D02*
X010500Y007485D01*
X010475Y007435D02*
Y007460D01*
X011015Y007525D02*
X011222Y007318D01*
X011001Y007485D02*
X011185Y007301D01*
X010468Y007385D02*
X010855D01*
X010368Y007285D02*
X010468Y007385D01*
X010855D02*
X010880Y007410D01*
Y007435D01*
X010515Y007345D02*
X010895D01*
X010495Y007325D02*
X010515Y007345D01*
X010895D02*
X010985Y007435D01*
X011325Y005665D02*
Y005845D01*
Y005577D02*
Y005665D01*
X011515D02*
Y005712D01*
Y005577D02*
Y005665D01*
X011140Y008725D02*
Y008932D01*
Y008715D02*
Y008725D01*
X011555Y012088D02*
X011575Y012108D01*
X011535Y012068D02*
X011555Y012088D01*
X011465Y012065D02*
Y012067D01*
X011445Y012087D02*
X011465Y012067D01*
X011445Y012087D02*
Y012225D01*
X011955Y011987D02*
X012043D01*
X010955Y012245D02*
X011055Y012145D01*
Y011511D02*
Y012145D01*
Y011511D02*
X011115Y011451D01*
X010942Y012201D02*
X011015Y012128D01*
X011195Y011987D02*
X011205D01*
X011115D02*
X011195D01*
X011164Y012018D02*
X011195Y011987D01*
X011205Y011835D02*
X011365D01*
X011635Y011995D02*
Y012088D01*
X011640Y012093D01*
Y012225D01*
X011535Y012005D02*
X011545Y011995D01*
X011535Y012005D02*
Y012068D01*
X011645Y011825D02*
Y011860D01*
X011670D01*
X011525D02*
X011545Y011840D01*
X011503Y011860D02*
X011525D01*
X011398Y011965D02*
X011503Y011860D01*
X011398Y011965D02*
Y011987D01*
X011365D02*
X011398D01*
X011545Y011825D02*
Y011840D01*
X011755Y011945D02*
Y011957D01*
X011786Y011987D01*
X011795D01*
X011670Y011860D02*
X011755Y011945D01*
X011795Y011835D02*
X011955D01*
X011575Y012108D02*
Y012225D01*
X011595Y011645D02*
X011785Y011835D01*
X011595Y011364D02*
Y011645D01*
Y011364D02*
X012025Y010935D01*
X011405Y011795D02*
X011555Y011645D01*
Y011345D02*
Y011645D01*
Y011345D02*
X011985Y010915D01*
X011405Y011795D02*
Y011825D01*
X011825Y010620D02*
X011938D01*
X012025Y010707D02*
Y010935D01*
X011938Y010620D02*
X012025Y010707D01*
X011985Y010737D02*
Y010915D01*
X011918Y010670D02*
X011985Y010737D01*
X011790Y010670D02*
X011918D01*
X011389Y011451D02*
X011945Y010895D01*
Y010771D02*
Y010895D01*
X011895Y010721D02*
X011945Y010771D01*
X011115Y011451D02*
X011389D01*
X011490Y011170D02*
Y011297D01*
X011374Y011413D02*
X011490Y011297D01*
X011678Y010620D02*
X011825D01*
X011678Y010670D02*
X011790D01*
X011785Y011835D02*
X011795D01*
X010152Y012615D02*
X010215Y012552D01*
X009888Y012615D02*
X010152D01*
X009829Y012556D02*
X009888Y012615D01*
X009829Y012465D02*
Y012556D01*
X009407Y010272D02*
X009554D01*
X009442Y010222D02*
X009554D01*
X009375Y010172D02*
X009554D01*
X009469Y009060D02*
Y009120D01*
X009550Y010825D02*
X009554Y010822D01*
X009481Y008465D02*
X010531D01*
X009375Y008359D02*
X009481Y008465D01*
X009415Y008335D02*
X009505Y008425D01*
X010514Y008505D02*
X010690Y008681D01*
X009459Y008505D02*
X010514D01*
X010531Y008465D02*
X010740Y008674D01*
X010548Y008425D02*
X010678Y008555D01*
X009505Y008425D02*
X010548D01*
X010564Y008385D02*
X010694Y008515D01*
X009527Y008385D02*
X010564D01*
X009455Y008313D02*
X009527Y008385D01*
X009335Y008381D02*
X009459Y008505D01*
X009455Y007695D02*
Y008313D01*
X009415Y007715D02*
Y008335D01*
X009375Y007740D02*
Y008359D01*
X009325Y007565D02*
X009455Y007695D01*
X009285Y007585D02*
X009415Y007715D01*
X009245Y007610D02*
X009375Y007740D01*
X009335Y007765D02*
Y008381D01*
X009205Y007635D02*
X009335Y007765D01*
X009295Y007787D02*
Y010290D01*
X009167Y007659D02*
X009295Y007787D01*
X009255Y007806D02*
Y010313D01*
X009125Y007676D02*
X009255Y007806D01*
X009215Y007823D02*
Y010328D01*
X009085Y007693D02*
X009215Y007823D01*
X009295Y010290D02*
X009326Y010322D01*
X009255Y010313D02*
X009314Y010372D01*
X009215Y010328D02*
X009308Y010422D01*
X011222Y006005D02*
Y007318D01*
X011125Y007474D02*
X011315Y007284D01*
X011125Y007474D02*
Y008445D01*
X011315Y006785D02*
Y007284D01*
X011185Y005985D02*
Y007301D01*
X010495Y007285D02*
Y007325D01*
X011390Y008932D02*
X011391Y008931D01*
X011125Y008445D02*
X011215Y008535D01*
X011165Y008425D02*
X011236Y008496D01*
X011165Y007493D02*
Y008425D01*
Y007493D02*
X011355Y007303D01*
X009740Y008780D02*
Y008932D01*
X009715Y008755D02*
X009740Y008780D01*
X009625Y008755D02*
X009715D01*
X009464D02*
X009565D01*
X009440Y008779D02*
X009464Y008755D01*
X009440Y008779D02*
Y009031D01*
X009442Y009622D02*
X009554D01*
X009415Y010875D02*
X009464Y010825D01*
X009415Y010875D02*
Y010895D01*
X009464Y010825D02*
X009550D01*
X009407Y010772D02*
X009554D01*
X009095Y010565D02*
X009302Y010772D01*
X009095Y008048D02*
Y010565D01*
X009052Y008005D02*
X009095Y008048D01*
X009375Y009922D02*
X009554D01*
X009442Y009822D02*
X009554D01*
X009407Y009872D02*
X009554D01*
X009442Y010022D02*
X009554D01*
X011785Y009370D02*
X011790D01*
X011678D02*
X011785D01*
X009363Y009048D02*
X009404D01*
X009350Y009035D02*
X009363Y009048D01*
X009345Y009035D02*
X009350D01*
X009385Y009157D02*
X009442Y009214D01*
X009432Y009076D02*
Y009152D01*
X009450Y009170D01*
X009469Y009120D02*
X009553D01*
X009440Y009031D02*
X009469Y009060D01*
X009404Y009048D02*
X009432Y009076D01*
X009385Y009095D02*
Y009157D01*
X009547Y009214D02*
X009553Y009220D01*
X009442Y009214D02*
X009547D01*
X009450Y009170D02*
X009553D01*
X011678Y009420D02*
X011825D01*
X011895Y008992D02*
Y009775D01*
X011850Y009820D02*
X011895Y009775D01*
X011825Y009820D02*
X011850D01*
X011867Y009870D02*
X011935Y009802D01*
X011790Y009870D02*
X011867D01*
X011935Y008975D02*
Y009802D01*
X011678Y009220D02*
X011845D01*
X011678Y009470D02*
X011845D01*
X011974Y008954D02*
Y010243D01*
X012015Y008936D02*
Y010285D01*
X012055Y008915D02*
Y010316D01*
X012095Y008878D02*
Y010347D01*
X011518Y008615D02*
X011895Y008992D01*
X011535Y008575D02*
X011935Y008975D01*
X011555Y008535D02*
X011974Y008954D01*
X011945Y010272D02*
X011974Y010243D01*
X011575Y008496D02*
X012015Y008936D01*
X011980Y010320D02*
X012015Y010285D01*
X011905Y008765D02*
X012055Y008915D01*
X011996Y010375D02*
X012055Y010316D01*
X012015Y008798D02*
X012095Y008878D01*
X012018Y010425D02*
X012095Y010347D01*
X011825Y010320D02*
X011980D01*
X011944Y010375D02*
X011996D01*
X011895Y010425D02*
X011944Y010375D01*
X011965Y010425D02*
X012018D01*
X011895Y010425D02*
Y010470D01*
X011175Y008615D02*
X011518D01*
X011115Y008555D02*
X011175Y008615D01*
X010678Y008555D02*
X011115D01*
X011195Y008575D02*
X011535D01*
X011135Y008515D02*
X011195Y008575D01*
X010694Y008515D02*
X011135D01*
X011215Y008535D02*
X011555D01*
X011236Y008496D02*
X011575D01*
X010740Y008674D02*
Y008820D01*
X010690Y008681D02*
Y008785D01*
X011325Y008327D02*
Y008386D01*
X011355Y008416D01*
X012865Y009156D02*
X012902D01*
X012865Y009029D02*
X012909D01*
X012931Y009008D01*
Y009003D02*
Y009008D01*
X012865Y009283D02*
X012909D01*
X012865Y009410D02*
X012902D01*
X012939Y009373D01*
X012965D01*
X012909Y009283D02*
X012939Y009253D01*
X012965D01*
X012902Y009156D02*
X012935Y009123D01*
X012965D01*
X012931Y009003D02*
X012940Y008993D01*
X012965D01*
X012865Y009706D02*
X012902D01*
X012865Y009579D02*
X012909D01*
X012931Y009558D01*
Y009553D02*
Y009558D01*
X012865Y009833D02*
X012909D01*
X012865Y009960D02*
X012902D01*
X012939Y009923D01*
X012965D01*
X012909Y009833D02*
X012939Y009803D01*
X012965D01*
X012902Y009706D02*
X012935Y009673D01*
X012965D01*
X012931Y009553D02*
X012940Y009543D01*
X012965D01*
X012865Y010253D02*
X012902D01*
X012865Y010126D02*
X012909D01*
X012931Y010105D01*
Y010100D02*
Y010105D01*
X012865Y010380D02*
X012909D01*
X012865Y010507D02*
X012902D01*
X012939Y010470D01*
X012965D01*
X012909Y010380D02*
X012939Y010350D01*
X012965D01*
X012902Y010253D02*
X012935Y010220D01*
X012965D01*
X012931Y010100D02*
X012940Y010090D01*
X012965D01*
X012865Y010797D02*
X012902D01*
X012865Y010670D02*
X012909D01*
X012931Y010649D01*
Y010644D02*
Y010649D01*
X012865Y010924D02*
X012909D01*
X012865Y011051D02*
X012902D01*
X012939Y011014D01*
X012965D01*
X012909Y010924D02*
X012939Y010894D01*
X012965D01*
X012902Y010797D02*
X012935Y010764D01*
X012965D01*
X012931Y010644D02*
X012940Y010634D01*
X012965D01*
X012218Y010924D02*
X012255D01*
X012211Y011051D02*
X012255D01*
X012189Y011073D02*
X012211Y011051D01*
X012189Y011073D02*
Y011078D01*
X012211Y010797D02*
X012255D01*
X012218Y010670D02*
X012255D01*
X012181Y010707D02*
X012218Y010670D01*
X012155Y010707D02*
X012181D01*
X012181Y010827D02*
X012211Y010797D01*
X012155Y010827D02*
X012181D01*
X012185Y010957D02*
X012218Y010924D01*
X012155Y010957D02*
X012185D01*
X012180Y011087D02*
X012189Y011078D01*
X012155Y011087D02*
X012180D01*
X012218Y010380D02*
X012255D01*
X012211Y010507D02*
X012255D01*
X012189Y010529D02*
X012211Y010507D01*
X012189Y010529D02*
Y010534D01*
X012211Y010253D02*
X012255D01*
X012218Y010126D02*
X012255D01*
X012181Y010163D02*
X012218Y010126D01*
X012155Y010163D02*
X012181D01*
X012181Y010283D02*
X012211Y010253D01*
X012155Y010283D02*
X012181D01*
X012185Y010413D02*
X012218Y010380D01*
X012155Y010413D02*
X012185D01*
X012180Y010543D02*
X012189Y010534D01*
X012155Y010543D02*
X012180D01*
X012218Y009833D02*
X012255D01*
X012211Y009960D02*
X012255D01*
X012189Y009982D02*
X012211Y009960D01*
X012189Y009982D02*
Y009987D01*
X012211Y009706D02*
X012255D01*
X012218Y009579D02*
X012255D01*
X012181Y009616D02*
X012218Y009579D01*
X012155Y009616D02*
X012181D01*
X012181Y009736D02*
X012211Y009706D01*
X012155Y009736D02*
X012181D01*
X012185Y009866D02*
X012218Y009833D01*
X012155Y009866D02*
X012185D01*
X012180Y009996D02*
X012189Y009987D01*
X012155Y009996D02*
X012180D01*
X012155Y009446D02*
X012180D01*
X012189Y009437D01*
X012155Y009316D02*
X012185D01*
X012218Y009283D01*
X012155Y009186D02*
X012181D01*
X012211Y009156D01*
X012155Y009066D02*
X012181D01*
X012218Y009029D01*
X012255D01*
X012211Y009156D02*
X012255D01*
X012189Y009432D02*
Y009437D01*
Y009432D02*
X012211Y009410D01*
X012255D01*
X012218Y009283D02*
X012255D01*
X012015Y008415D02*
Y008798D01*
X011905Y008415D02*
Y008765D01*
X011355Y006801D02*
Y007303D01*
Y006801D02*
X011455Y006701D01*
Y006675D02*
Y006701D01*
X011315Y006785D02*
X011365Y006735D01*
Y006675D02*
Y006735D01*
X009407Y009972D02*
X009554D01*
X011222Y006005D02*
X011515Y005712D01*
X011185Y005985D02*
X011325Y005845D01*
X009407Y009372D02*
X009554D01*
X009442Y010122D02*
X009554D01*
X009407Y009772D02*
X009554D01*
X011390Y011170D02*
Y011276D01*
X011291Y011375D02*
X011390Y011276D01*
X010725Y011375D02*
X011291D01*
X009195Y011968D02*
Y012315D01*
X011210Y011335D02*
X011340Y011205D01*
X010705Y011335D02*
X011210D01*
X009135Y011975D02*
Y012315D01*
X010490Y011170D02*
Y011340D01*
X010540Y011205D02*
Y011350D01*
X010590Y011170D02*
Y011358D01*
X009347Y010672D02*
X009558D01*
X009322D02*
X009347D01*
X009175Y010525D02*
X009322Y010672D01*
X009175Y007965D02*
Y010525D01*
X009442Y010722D02*
X009558D01*
X009312D02*
X009442D01*
X009135Y010545D02*
X009312Y010722D01*
X009135Y008006D02*
Y010545D01*
X009302Y010772D02*
X009407D01*
X009442Y010322D02*
X009554D01*
X009326D02*
X009442D01*
X009407Y010372D02*
X009554D01*
X009314D02*
X009407D01*
X009308Y010422D02*
X009554D01*
X009558Y010622D02*
X009559Y010623D01*
X009558Y010672D02*
X009559Y010673D01*
X009558Y010722D02*
X009559Y010723D01*
X009559Y009922D02*
X009559Y009923D01*
X009407Y010572D02*
X009554D01*
X009442Y010522D02*
X009554D01*
X009407Y010472D02*
X009554D01*
X009442Y009722D02*
X009554D01*
X009407Y009472D02*
X009554D01*
X009740Y011057D02*
Y011205D01*
X009790Y011057D02*
Y011170D01*
X009840Y011057D02*
Y011205D01*
X009890Y011057D02*
Y011170D01*
X009990Y011057D02*
Y011170D01*
X010040Y011057D02*
Y011205D01*
X010090Y011057D02*
Y011170D01*
X010140Y011057D02*
Y011205D01*
X010240Y011057D02*
Y011205D01*
X010290Y011057D02*
Y011170D01*
X010340Y011057D02*
Y011205D01*
X010390Y011057D02*
Y011170D01*
X010490Y011057D02*
Y011170D01*
X010540Y011057D02*
Y011205D01*
X010590Y011057D02*
Y011170D01*
X010640Y011057D02*
Y011205D01*
X010740Y011057D02*
Y011205D01*
X010790Y011057D02*
Y011170D01*
X010840Y011057D02*
Y011205D01*
X010890Y011057D02*
Y011170D01*
X010990Y011057D02*
Y011170D01*
X011040Y011057D02*
Y011205D01*
X011090Y011057D02*
Y011170D01*
X011140Y011057D02*
Y011205D01*
X011190Y011057D02*
Y011275D01*
X011240Y011057D02*
Y011205D01*
X011290Y011057D02*
Y011170D01*
X011340Y011057D02*
Y011205D01*
X011390Y011057D02*
Y011170D01*
X011440Y011057D02*
Y011275D01*
X011490Y011057D02*
Y011170D01*
X010190Y011057D02*
Y011275D01*
X010440Y011057D02*
Y011275D01*
X010690Y011057D02*
Y011275D01*
X010940Y011057D02*
Y011275D01*
X009939Y011059D02*
X009940Y011057D01*
X009939Y011059D02*
Y011275D01*
X011678Y010870D02*
X011790D01*
X011679Y010721D02*
X011895D01*
X011678Y010720D02*
X011679Y010721D01*
X011678Y009720D02*
X011845D01*
X011678Y009970D02*
X011895D01*
X011678Y010220D02*
X011895D01*
X011678Y010470D02*
X011895D01*
X011678Y009120D02*
X011825D01*
X011678Y009170D02*
X011790D01*
X011678Y009270D02*
X011790D01*
X011678Y009320D02*
X011825D01*
X011678Y009620D02*
X011825D01*
X011678Y009670D02*
X011790D01*
X011678Y009770D02*
X011790D01*
X011678Y009820D02*
X011825D01*
X011678Y009870D02*
X011790D01*
X011678Y009920D02*
X011825D01*
X011678Y010020D02*
X011825D01*
X011678Y010070D02*
X011790D01*
X011678Y010120D02*
X011825D01*
X011678Y010170D02*
X011790D01*
X011678Y010270D02*
X011790D01*
X011678Y010320D02*
X011825D01*
X011678Y010420D02*
X011825D01*
X011678Y010520D02*
X011825D01*
X011678Y010570D02*
X011790D01*
X011678Y010770D02*
X011790D01*
X011678Y010820D02*
X011825D01*
X009055Y007845D02*
X009175Y007965D01*
X009054Y007925D02*
X009135Y008006D01*
X008993Y007925D02*
X009054D01*
X008993Y008005D02*
X009052D01*
X010390Y008715D02*
Y008932D01*
X010640Y008715D02*
Y008932D01*
X010890Y008715D02*
Y008932D01*
X009790Y008785D02*
Y008932D01*
X009840Y008820D02*
Y008932D01*
X009890Y008715D02*
Y008932D01*
X009940Y008820D02*
Y008932D01*
X009990Y008785D02*
Y008932D01*
X010040Y008820D02*
Y008932D01*
X010090Y008785D02*
Y008932D01*
X010140Y008690D02*
Y008932D01*
X010190Y008785D02*
Y008932D01*
X010240Y008820D02*
Y008932D01*
X010290Y008785D02*
Y008932D01*
X010340Y008820D02*
Y008932D01*
X010440Y008820D02*
Y008932D01*
X010490Y008785D02*
Y008932D01*
X010540Y008820D02*
Y008932D01*
X010590Y008785D02*
Y008932D01*
X010690Y008785D02*
Y008932D01*
X010740Y008820D02*
Y008932D01*
X010790Y008785D02*
Y008932D01*
X010840Y008820D02*
Y008932D01*
X010940Y008820D02*
Y008932D01*
X010990Y008785D02*
Y008932D01*
X011040Y008820D02*
Y008932D01*
X011090Y008785D02*
Y008932D01*
X011190Y008785D02*
Y008932D01*
X011240Y008820D02*
Y008932D01*
X011290Y008785D02*
Y008932D01*
X011340Y008820D02*
Y008932D01*
X011440Y008820D02*
Y008932D01*
X011490Y008785D02*
Y008932D01*
X008993Y007845D02*
X009055D01*
X009245Y006652D02*
Y007610D01*
X009325Y006545D02*
Y007565D01*
X009285Y006595D02*
Y007585D01*
X009205Y006705D02*
Y007635D01*
X008993Y011606D02*
X009279D01*
X008993Y011687D02*
X009257D01*
X008993Y011767D02*
X009233D01*
X008993Y011847D02*
X009207D01*
X009196Y006416D02*
X009325Y006545D01*
X008993Y006416D02*
X009196D01*
X009187Y006497D02*
X009285Y006595D01*
X008993Y006497D02*
X009187D01*
X009170Y006577D02*
X009245Y006652D01*
X008993Y006577D02*
X009170D01*
X009157Y006657D02*
X009205Y006705D01*
X008993Y006657D02*
X009157D01*
X009085Y006868D02*
Y007693D01*
X009072Y006855D02*
X009085Y006868D01*
X009045Y006855D02*
X009072D01*
X009125Y006815D02*
Y007676D01*
X009095Y006785D02*
X009125Y006815D01*
X009045Y006785D02*
X009095D01*
X009167Y006758D02*
Y007659D01*
X009124Y006715D02*
X009167Y006758D01*
X009045Y006715D02*
X009124D01*
X009145Y012535D02*
X009255Y012425D01*
Y012315D02*
Y012425D01*
X009135Y012315D02*
Y012423D01*
X009195Y012315D02*
Y012425D01*
X006885Y008285D02*
X006895D01*
X006915Y008265D01*
X009104Y012455D02*
X009135Y012423D01*
X006907Y012455D02*
X009104D01*
X009125Y012495D02*
X009195Y012425D01*
X006881Y012495D02*
X009125D01*
X006862Y012535D02*
X009145D01*
X006815Y012363D02*
X006907Y012455D01*
X006775Y012389D02*
X006881Y012495D01*
X006731Y012404D02*
X006862Y012535D01*
X006731Y012321D02*
Y012404D01*
X006775Y012275D02*
Y012389D01*
X006711Y012301D02*
X006731Y012321D01*
X006658Y012301D02*
X006711D01*
X006735Y012135D02*
Y012235D01*
X006775Y012275D01*
X006791Y012221D02*
Y012221D01*
X006815Y012245D01*
Y012363D01*
X005168Y005402D02*
X005183Y005416D01*
X005208Y005291D02*
X005248Y005331D01*
X006238Y006433D02*
X006341D01*
X006238Y006281D02*
X006328D01*
X005168Y006902D02*
X005183Y006916D01*
X005208Y006791D02*
X005248Y006831D01*
X007658Y008078D02*
X007670Y008066D01*
X007658Y008205D02*
X007670Y008193D01*
X010910Y005695D02*
X011025Y005580D01*
X010880Y005695D02*
X010910D01*
X011391Y005425D02*
X011417Y005399D01*
Y005395D02*
Y005399D01*
X011325Y005425D02*
X011391D01*
X011705Y005577D02*
Y005665D01*
X012615Y005045D02*
X012685Y004975D01*
X012555Y005045D02*
X012615D01*
X011905Y005606D02*
Y005665D01*
Y005606D02*
X012026Y005485D01*
X012555D01*
X012046Y005565D02*
X012555D01*
X012015Y005596D02*
X012046Y005565D01*
X012015Y005596D02*
Y005665D01*
X011815Y005473D02*
Y005575D01*
X011767Y005425D02*
X011815Y005473D01*
X011705Y005425D02*
X011767D01*
X011255Y005325D02*
X011265Y005335D01*
X011255Y005286D02*
Y005325D01*
Y005286D02*
X011345Y005196D01*
X011305Y005146D02*
X011345D01*
X011265Y005186D02*
X011305Y005146D01*
X011660Y005255D02*
X011680Y005235D01*
X011680Y005196D02*
X011680Y005196D01*
Y005235D01*
X011562Y005146D02*
X011680D01*
X011512Y005096D02*
X011562Y005146D01*
X011764Y005275D02*
X011845Y005195D01*
X011784Y005166D02*
Y005186D01*
Y005166D02*
X011805Y005145D01*
X011845D01*
X011559Y005425D02*
X011715Y005269D01*
Y005255D02*
Y005269D01*
X011515Y005425D02*
X011559D01*
X011715Y005255D02*
X011765Y005205D01*
X011784Y005186D01*
X011844Y005096D02*
X011845Y005095D01*
X011844Y005046D02*
X011845Y005045D01*
X011764Y005096D02*
X011765Y005096D01*
X011764Y005046D02*
X011765D01*
X011844Y004996D02*
X011845Y004995D01*
X012175Y005255D02*
X012180Y005250D01*
Y005195D02*
Y005250D01*
X012315Y004995D02*
X012365Y005045D01*
X012062Y005145D02*
X012180D01*
X012012Y005095D02*
X012062Y005145D01*
X012015Y008346D02*
Y008415D01*
X011905Y008356D02*
Y008415D01*
Y008356D02*
X012026Y008235D01*
X012015Y008346D02*
X012046Y008315D01*
X012026Y008235D02*
X012555D01*
X012046Y008315D02*
X012555D01*
X012175Y008005D02*
X012180Y008000D01*
Y007945D02*
Y008000D01*
X012615Y007795D02*
X012685Y007725D01*
X012315Y007745D02*
X012365Y007795D01*
X011815Y008223D02*
Y008325D01*
X011767Y008175D02*
X011815Y008223D01*
X011705Y008175D02*
X011767D01*
X012555Y007795D02*
X012615D01*
X011764Y007796D02*
X011765D01*
X011764Y007846D02*
X011765Y007846D01*
X011844Y007746D02*
X011845Y007745D01*
X011844Y007796D02*
X011845Y007795D01*
X011844Y007846D02*
X011845Y007845D01*
X012012D02*
X012062Y007895D01*
X012180D01*
X011512Y007846D02*
X011562Y007896D01*
X011680D01*
X011764Y008025D02*
X011845Y007945D01*
X011765Y007955D02*
X011784Y007936D01*
X011715Y008005D02*
X011765Y007955D01*
X011784Y007916D02*
Y007936D01*
Y007916D02*
X011805Y007895D01*
X011845D01*
X011715Y008005D02*
Y008019D01*
X011559Y008175D02*
X011715Y008019D01*
X011515Y008175D02*
X011559D01*
X011660Y008005D02*
X011680Y007985D01*
X011705Y008327D02*
Y008415D01*
X011515Y008327D02*
Y008415D01*
X011680Y007946D02*
Y007985D01*
X011680Y007946D02*
X011680Y007946D01*
X011417Y008145D02*
Y008149D01*
X011391Y008175D02*
X011417Y008149D01*
X011325Y008175D02*
X011391D01*
X011255Y008075D02*
X011265Y008085D01*
X011255Y008036D02*
Y008075D01*
Y008036D02*
X011345Y007946D01*
X011265Y007936D02*
X011305Y007896D01*
X011345D01*
X006785Y006192D02*
Y007855D01*
Y009250D01*
X006790Y009255D01*
X006789Y009271D02*
Y010745D01*
Y010753D01*
X006791Y010755D01*
Y012221D01*
X006735Y010635D02*
Y012135D01*
X006731Y012131D02*
X006735Y012135D01*
X006658Y012131D02*
X006731D01*
X006735Y009135D02*
Y010635D01*
X006731Y010631D02*
X006735Y010635D01*
X006658Y010631D02*
X006731D01*
X006735Y007635D02*
Y009135D01*
X006731Y009131D02*
X006735Y009135D01*
X006658Y009131D02*
X006731D01*
X006735Y006161D02*
Y007635D01*
X006705Y006131D02*
X006735Y006161D01*
X006658Y006131D02*
X006705D01*
X006731Y007631D02*
X006735Y007635D01*
X006658Y007631D02*
X006731D01*
X007658Y010062D02*
X007670Y010050D01*
X005168Y009902D02*
X005183Y009916D01*
X005208Y009791D02*
X005248Y009831D01*
X005168Y008402D02*
X005183Y008416D01*
X005208Y008291D02*
X005248Y008331D01*
X007658Y006475D02*
X007670Y006463D01*
X006948Y005865D02*
X007054Y005971D01*
X007658Y006348D02*
X007670Y006336D01*
X007658Y006602D02*
X007670Y006590D01*
X007658Y008332D02*
X007670Y008320D01*
X006948Y007595D02*
X007054Y007701D01*
X007658Y011792D02*
X007670Y011780D01*
X007658Y011665D02*
X007670Y011653D01*
X007658Y011538D02*
X007670Y011526D01*
X006948Y009325D02*
X007054Y009431D01*
X007658Y009808D02*
X007670Y009796D01*
X007658Y009935D02*
X007670Y009923D01*
X005614Y012106D02*
X005651Y012143D01*
X005614Y012091D02*
X005728D01*
X005614D02*
Y012106D01*
Y011953D02*
Y012091D01*
X005599D02*
X005614D01*
X005599D02*
X005614Y012106D01*
X005563Y012054D02*
X005599Y012091D01*
X006238Y012433D02*
X006341D01*
X006050D02*
X006148D01*
X005873D02*
X005948D01*
X005868D02*
X005871Y012431D01*
X005873Y012433D01*
X005168Y011331D02*
X005248D01*
X005168D02*
Y011402D01*
X005128Y011291D02*
X005208D01*
X005088Y011331D02*
X005168D01*
X005088Y011251D02*
X005168D01*
X005088D02*
X005128Y011291D01*
X005373Y011203D02*
X005373Y011203D01*
X005373Y011076D02*
Y011203D01*
X006383Y011786D02*
X006403D01*
X006321Y011828D02*
X006341D01*
X006383Y011786D01*
X006381Y011878D02*
X006393Y011866D01*
X006238Y012281D02*
X006328D01*
X006321Y011878D02*
X006381D01*
X005945Y011878D02*
X005986D01*
X005908Y011861D02*
X005928D01*
X005945Y011878D01*
X006361Y011208D02*
X006383Y011186D01*
X006321Y011208D02*
X006361D01*
X006321Y011258D02*
X006391D01*
X006408Y011241D01*
X006050Y012281D02*
X006148D01*
X005945Y011258D02*
X005986D01*
X005908Y011241D02*
X005928D01*
X005945Y011258D01*
X005862Y012281D02*
X005948D01*
X005657Y011430D02*
X005688Y011461D01*
X005657Y011415D02*
Y011430D01*
X005848Y011226D02*
Y011241D01*
X005826Y011203D02*
X005848Y011226D01*
X005659Y011203D02*
X005826D01*
X005529Y011080D02*
Y011203D01*
X005512Y011063D02*
X005533Y011084D01*
X005512Y011063D02*
X005529Y011080D01*
X005173Y011536D02*
Y011643D01*
X005168Y011531D02*
X005173Y011536D01*
X005328Y011936D02*
X005373D01*
X005285Y011892D02*
X005328Y011936D01*
X005123Y012083D02*
Y012164D01*
X005098Y012189D02*
X005123Y012164D01*
X005098Y011892D02*
X005285D01*
X005098Y012201D02*
Y012221D01*
Y012189D02*
Y012201D01*
X005297Y012433D02*
X005398D01*
X005108D02*
X005297D01*
X005223Y012083D02*
Y012189D01*
X005628Y011101D02*
X005651D01*
X005669Y011084D01*
X005550Y011101D02*
X005628D01*
X005690Y011063D02*
X005703Y011076D01*
X005669Y011084D02*
X005690Y011063D01*
X005533Y011084D02*
X005550Y011101D01*
X006391Y012131D02*
X006658D01*
X005603Y012211D02*
X006311D01*
X006391Y012131D01*
X005578Y012236D02*
X005603Y012211D01*
X005518Y012433D02*
X005578D01*
Y012236D02*
Y012433D01*
X005488D02*
X005518D01*
X005273Y012175D02*
X005288Y012190D01*
X005273Y012083D02*
Y012175D01*
X005358Y012186D02*
Y012189D01*
X005359Y012190D01*
X005323Y012154D02*
X005358Y012189D01*
X005323Y012083D02*
Y012154D01*
X005594Y011151D02*
Y011203D01*
X005675Y012281D02*
X005762D01*
X006465Y012221D02*
X006658D01*
X006328Y012358D02*
X006465Y012221D01*
X005801Y012358D02*
X006328D01*
X005768Y012432D02*
X005769Y012431D01*
X005768Y012391D02*
X005801Y012358D01*
X005768Y012432D02*
Y012433D01*
Y012391D02*
Y012432D01*
X005678Y012433D02*
X005767D01*
X005614Y009106D02*
X005651Y009143D01*
X005614Y009091D02*
X005728D01*
X005614D02*
Y009106D01*
Y008953D02*
Y009091D01*
X005599D02*
X005614D01*
X005599D02*
X005614Y009106D01*
X005563Y009054D02*
X005599Y009091D01*
X006238Y009433D02*
X006341D01*
X006050D02*
X006148D01*
X005873D02*
X005948D01*
X005868D02*
X005871Y009431D01*
X005873Y009433D01*
X005168Y008331D02*
X005248D01*
X005168D02*
Y008402D01*
X005128Y008291D02*
X005208D01*
X005088Y008331D02*
X005168D01*
X005088Y008251D02*
X005168D01*
X005088D02*
X005128Y008291D01*
X005373Y008203D02*
X005373Y008203D01*
X005373Y008076D02*
Y008203D01*
X006383Y008786D02*
X006403D01*
X006321Y008828D02*
X006341D01*
X006383Y008786D01*
X006381Y008878D02*
X006393Y008866D01*
X006238Y009281D02*
X006328D01*
X006321Y008878D02*
X006381D01*
X005945Y008878D02*
X005986D01*
X005908Y008861D02*
X005928D01*
X005945Y008878D01*
X006361Y008208D02*
X006383Y008186D01*
X006321Y008208D02*
X006361D01*
X006321Y008258D02*
X006391D01*
X006408Y008241D01*
X006050Y009281D02*
X006148D01*
X005945Y008258D02*
X005986D01*
X005928Y008241D02*
X005945Y008258D01*
X005908Y008241D02*
X005928D01*
X005862Y009281D02*
X005948D01*
X005657Y008430D02*
X005688Y008461D01*
X005657Y008415D02*
Y008430D01*
X005848Y008226D02*
Y008241D01*
X005826Y008203D02*
X005848Y008226D01*
X005659Y008203D02*
X005826D01*
X005529Y008080D02*
Y008203D01*
X005512Y008063D02*
X005533Y008084D01*
X005512Y008063D02*
X005529Y008080D01*
X005173Y008536D02*
Y008643D01*
X005168Y008531D02*
X005173Y008536D01*
X005328Y008936D02*
X005373D01*
X005285Y008892D02*
X005328Y008936D01*
X005123Y009083D02*
Y009164D01*
X005098Y009189D02*
X005123Y009164D01*
X005098Y008892D02*
X005285D01*
X005108Y009231D02*
Y009281D01*
X005098Y009221D02*
X005108Y009231D01*
X005098Y009189D02*
Y009201D01*
Y009221D01*
X005158Y009201D02*
X005230Y009272D01*
X005173Y009083D02*
Y009186D01*
X005158Y009201D02*
X005173Y009186D01*
X005297Y009433D02*
X005398D01*
X005108D02*
X005297D01*
X005223Y009083D02*
Y009189D01*
X005628Y008101D02*
X005651D01*
X005669Y008084D01*
X005550Y008101D02*
X005628D01*
X005690Y008063D02*
X005703Y008076D01*
X005669Y008084D02*
X005690Y008063D01*
X005533Y008084D02*
X005550Y008101D01*
X005398Y009281D02*
X005488D01*
X006391Y009131D02*
X006658D01*
X005603Y009211D02*
X006311D01*
X006391Y009131D01*
X005578Y009236D02*
Y009433D01*
Y009236D02*
X005603Y009211D01*
X005518Y009433D02*
X005578D01*
X005488D02*
X005518D01*
X005273Y009175D02*
X005288Y009190D01*
X005273Y009083D02*
Y009175D01*
X005358Y009186D02*
Y009189D01*
X005359Y009190D01*
X005323Y009154D02*
X005358Y009189D01*
X005323Y009083D02*
Y009154D01*
X005594Y008151D02*
Y008203D01*
X005675Y009281D02*
X005762D01*
X006465Y009221D02*
X006658D01*
X006328Y009358D02*
X006465Y009221D01*
X005801Y009358D02*
X006328D01*
X005768Y009432D02*
X005769Y009431D01*
X005768Y009391D02*
X005801Y009358D01*
X005768Y009432D02*
Y009433D01*
Y009391D02*
Y009432D01*
X005678Y009433D02*
X005767D01*
X005614Y010606D02*
X005651Y010643D01*
X005614Y010591D02*
X005728D01*
X005614D02*
Y010606D01*
Y010453D02*
Y010591D01*
X005599D02*
X005614D01*
X005599D02*
X005614Y010606D01*
X005563Y010554D02*
X005599Y010591D01*
X006238Y010933D02*
X006341D01*
X006050D02*
X006148D01*
X005873D02*
X005948D01*
X005868D02*
X005871Y010931D01*
X005873Y010933D01*
X005168Y009831D02*
X005248D01*
X005168D02*
Y009902D01*
X005128Y009791D02*
X005208D01*
X005088Y009831D02*
X005168D01*
X005088Y009751D02*
X005168D01*
X005088D02*
X005128Y009791D01*
X005373Y009703D02*
X005373Y009703D01*
X005373Y009576D02*
Y009703D01*
X006383Y010286D02*
X006403D01*
X006321Y010328D02*
X006341D01*
X006383Y010286D01*
X006381Y010378D02*
X006393Y010366D01*
X006238Y010781D02*
X006328D01*
X006321Y010378D02*
X006381D01*
X005945Y010378D02*
X005986D01*
X005908Y010361D02*
X005928D01*
X005945Y010378D01*
X006361Y009708D02*
X006383Y009686D01*
X006321Y009708D02*
X006361D01*
X006321Y009758D02*
X006391D01*
X006408Y009741D01*
X006050Y010781D02*
X006148D01*
X005945Y009758D02*
X005986D01*
X005928Y009741D02*
X005945Y009758D01*
X005908Y009741D02*
X005928D01*
X005862Y010781D02*
X005948D01*
X005657Y009930D02*
X005688Y009961D01*
X005657Y009915D02*
Y009930D01*
X005848Y009726D02*
Y009741D01*
X005826Y009703D02*
X005848Y009726D01*
X005659Y009703D02*
X005826D01*
X005529Y009580D02*
Y009703D01*
X005512Y009563D02*
X005533Y009584D01*
X005512Y009563D02*
X005529Y009580D01*
X005173Y010036D02*
Y010143D01*
X005168Y010031D02*
X005173Y010036D01*
X005328Y010436D02*
X005373D01*
X005285Y010392D02*
X005328Y010436D01*
X005123Y010583D02*
Y010664D01*
X005098Y010689D02*
X005123Y010664D01*
X005098Y010392D02*
X005285D01*
X005108Y010731D02*
Y010781D01*
X005098Y010721D02*
X005108Y010731D01*
X005098Y010689D02*
Y010701D01*
Y010721D01*
X005158Y010701D02*
X005230Y010772D01*
X005173Y010583D02*
Y010686D01*
X005158Y010701D02*
X005173Y010686D01*
X005297Y010933D02*
X005398D01*
X005108D02*
X005297D01*
X005223Y010583D02*
Y010689D01*
X005628Y009601D02*
X005651D01*
X005669Y009584D01*
X005550Y009601D02*
X005628D01*
X005690Y009563D02*
X005703Y009576D01*
X005669Y009584D02*
X005690Y009563D01*
X005533Y009584D02*
X005550Y009601D01*
X005398Y010781D02*
X005488D01*
X006391Y010631D02*
X006658D01*
X005603Y010711D02*
X006311D01*
X006391Y010631D01*
X005578Y010736D02*
Y010933D01*
Y010736D02*
X005603Y010711D01*
X005518Y010933D02*
X005578D01*
X005488D02*
X005518D01*
X005273Y010675D02*
X005288Y010690D01*
X005273Y010583D02*
Y010675D01*
X005358Y010686D02*
Y010689D01*
X005359Y010690D01*
X005323Y010654D02*
X005358Y010689D01*
X005323Y010583D02*
Y010654D01*
X005594Y009651D02*
Y009703D01*
X005675Y010781D02*
X005762D01*
X006465Y010721D02*
X006658D01*
X006328Y010858D02*
X006465Y010721D01*
X005801Y010858D02*
X006328D01*
X005768Y010932D02*
X005769Y010931D01*
X005768Y010891D02*
X005801Y010858D01*
X005768Y010932D02*
Y010933D01*
Y010891D02*
Y010932D01*
X005678Y010933D02*
X005767D01*
X005614Y007606D02*
X005651Y007643D01*
X005614Y007591D02*
X005728D01*
X005614D02*
Y007606D01*
Y007453D02*
Y007591D01*
X005599D02*
X005614D01*
X005599D02*
X005614Y007606D01*
X005563Y007554D02*
X005599Y007591D01*
X006238Y007933D02*
X006341D01*
X006050D02*
X006148D01*
X005873D02*
X005948D01*
X005868D02*
X005871Y007931D01*
X005873Y007933D01*
X005168Y006831D02*
X005248D01*
X005168D02*
Y006902D01*
X005128Y006791D02*
X005208D01*
X005088Y006831D02*
X005168D01*
X005088Y006751D02*
X005168D01*
X005088D02*
X005128Y006791D01*
X005373Y006703D02*
X005373Y006703D01*
X005373Y006576D02*
Y006703D01*
X006383Y007286D02*
X006403D01*
X006321Y007328D02*
X006341D01*
X006383Y007286D01*
X006381Y007378D02*
X006393Y007366D01*
X006238Y007781D02*
X006328D01*
X006321Y007378D02*
X006381D01*
X005945Y007378D02*
X005986D01*
X005908Y007361D02*
X005928D01*
X005945Y007378D01*
X006361Y006708D02*
X006383Y006686D01*
X006321Y006708D02*
X006361D01*
X006321Y006758D02*
X006391D01*
X006408Y006741D01*
X006050Y007781D02*
X006148D01*
X005945Y006758D02*
X005986D01*
X005928Y006741D02*
X005945Y006758D01*
X005908Y006741D02*
X005928D01*
X005862Y007781D02*
X005948D01*
X005657Y006930D02*
X005688Y006961D01*
X005657Y006915D02*
Y006930D01*
X005848Y006726D02*
Y006741D01*
X005826Y006703D02*
X005848Y006726D01*
X005659Y006703D02*
X005826D01*
X005529Y006580D02*
Y006703D01*
X005512Y006563D02*
X005533Y006584D01*
X005512Y006563D02*
X005529Y006580D01*
X005173Y007036D02*
Y007143D01*
X005168Y007031D02*
X005173Y007036D01*
X005328Y007436D02*
X005373D01*
X005285Y007392D02*
X005328Y007436D01*
X005123Y007583D02*
Y007664D01*
X005098Y007689D02*
X005123Y007664D01*
X005098Y007392D02*
X005285D01*
X005108Y007731D02*
Y007781D01*
X005098Y007721D02*
X005108Y007731D01*
X005098Y007689D02*
Y007701D01*
Y007721D01*
X005158Y007701D02*
X005230Y007772D01*
X005173Y007583D02*
Y007686D01*
X005158Y007701D02*
X005173Y007686D01*
X005297Y007933D02*
X005398D01*
X005108D02*
X005297D01*
X005223Y007583D02*
Y007689D01*
X005628Y006601D02*
X005651D01*
X005669Y006584D01*
X005550Y006601D02*
X005628D01*
X005690Y006563D02*
X005703Y006576D01*
X005669Y006584D02*
X005690Y006563D01*
X005533Y006584D02*
X005550Y006601D01*
X005398Y007781D02*
X005488D01*
X006391Y007631D02*
X006658D01*
X005603Y007711D02*
X006311D01*
X006391Y007631D01*
X005578Y007736D02*
Y007933D01*
Y007736D02*
X005603Y007711D01*
X005518Y007933D02*
X005578D01*
X005488D02*
X005518D01*
X005273Y007675D02*
X005288Y007690D01*
X005273Y007583D02*
Y007675D01*
X005358Y007686D02*
Y007689D01*
X005359Y007690D01*
X005323Y007654D02*
X005358Y007689D01*
X005323Y007583D02*
Y007654D01*
X005594Y006651D02*
Y006703D01*
X005675Y007781D02*
X005762D01*
X006465Y007721D02*
X006658D01*
X006328Y007858D02*
X006465Y007721D01*
X005801Y007858D02*
X006328D01*
X005768Y007932D02*
X005769Y007931D01*
X005768Y007891D02*
X005801Y007858D01*
X005768Y007932D02*
Y007933D01*
Y007891D02*
Y007932D01*
X005678Y007933D02*
X005767D01*
X005168Y005331D02*
Y005402D01*
Y005331D02*
X005248D01*
X005088D02*
X005168D01*
X005088Y005251D02*
X005168D01*
X005088D02*
X005128Y005291D01*
X005208D01*
X005297Y006433D02*
X005398D01*
X005108D02*
X005297D01*
X005614Y006091D02*
Y006106D01*
Y006091D02*
X005728D01*
X005614Y006106D02*
X005651Y006143D01*
X005328Y005936D02*
X005373D01*
X005285Y005892D02*
X005328Y005936D01*
X005098Y005892D02*
X005285D01*
X005614Y005953D02*
Y006091D01*
X005358Y006189D02*
X005359Y006190D01*
X005323Y006154D02*
X005358Y006189D01*
Y006186D02*
Y006189D01*
X005373Y005076D02*
Y005203D01*
X005550Y005101D02*
X005628D01*
X005533Y005084D02*
X005550Y005101D01*
X005628D02*
X005651D01*
X005669Y005084D01*
X005594Y005151D02*
Y005203D01*
X005669Y005084D02*
X005690Y005063D01*
X005512D02*
X005533Y005084D01*
X006465Y006221D02*
X006658D01*
X006328Y006358D02*
X006465Y006221D01*
X006391Y006131D02*
X006658D01*
X006311Y006211D02*
X006391Y006131D01*
X005603Y006211D02*
X006311D01*
X005801Y006358D02*
X006328D01*
X005578Y006236D02*
X005603Y006211D01*
X005578Y006236D02*
Y006433D01*
X005768Y006391D02*
X005801Y006358D01*
X005768Y006391D02*
Y006432D01*
X005769Y006431D01*
X005768Y006432D02*
Y006433D01*
X005563Y006054D02*
X005599Y006091D01*
X005614Y006106D01*
X005599Y006091D02*
X005614D01*
X005675Y006281D02*
X005762D01*
X005862D02*
X005948D01*
X006050D02*
X006148D01*
X006050Y006433D02*
X006148D01*
X005873D02*
X005948D01*
X005871Y006431D02*
X005873Y006433D01*
X005868D02*
X005871Y006431D01*
X005678Y006433D02*
X005767D01*
X005518D02*
X005578D01*
X005488D02*
X005518D01*
X005398Y006281D02*
X005488D01*
X005323Y006083D02*
Y006154D01*
X005108Y006231D02*
Y006281D01*
X005098Y006221D02*
X005108Y006231D01*
X005098Y006201D02*
Y006221D01*
X005158Y006201D02*
X005230Y006272D01*
X005158Y006201D02*
X005173Y006186D01*
Y006083D02*
Y006186D01*
X005098Y006189D02*
Y006201D01*
Y006189D02*
X005123Y006164D01*
Y006083D02*
Y006164D01*
X005273Y006175D02*
X005288Y006190D01*
X005273Y006083D02*
Y006175D01*
X005223Y006083D02*
Y006189D01*
X005173Y005536D02*
Y005643D01*
X005168Y005531D02*
X005173Y005536D01*
X005657Y005430D02*
X005688Y005461D01*
X005657Y005415D02*
Y005430D01*
X006361Y005208D02*
X006383Y005186D01*
X006321Y005208D02*
X006361D01*
X006391Y005258D02*
X006408Y005241D01*
X005908Y005861D02*
X005928D01*
X005945Y005878D02*
X005986D01*
X005928Y005861D02*
X005945Y005878D01*
X005928Y005241D02*
X005945Y005258D01*
X005908Y005241D02*
X005928D01*
X005945Y005258D02*
X005986D01*
X005848Y005226D02*
Y005241D01*
X005826Y005203D02*
X005848Y005226D01*
X005373Y005203D02*
X005373Y005203D01*
X005529Y005080D02*
Y005203D01*
X005512Y005063D02*
X005529Y005080D01*
X006321Y005258D02*
X006391D01*
X006321Y005878D02*
X006381D01*
X006393Y005866D01*
X005659Y005203D02*
X005826D01*
X006383Y005786D02*
X006403D01*
X006321Y005828D02*
X006341D01*
X006383Y005786D01*
X005690Y005063D02*
X005703Y005076D01*
X006913Y005865D02*
X006948D01*
X007210Y005967D02*
Y006115D01*
X007043Y006535D02*
X007061Y006553D01*
X006913Y006535D02*
X007043D01*
X007080Y006720D02*
X007093Y006707D01*
X007127D01*
X007230Y006604D01*
Y006553D02*
Y006604D01*
X007080Y006720D02*
Y006735D01*
X007233D02*
Y006882D01*
X007230Y006885D02*
X007233Y006882D01*
X007660Y006219D02*
X007835D01*
X007355Y006175D02*
Y006285D01*
X007295Y006115D02*
X007355Y006175D01*
X007210Y006115D02*
X007295D01*
X007533Y006317D02*
X007564Y006348D01*
X007658D01*
X007533Y006280D02*
Y006317D01*
X007515Y006262D02*
X007533Y006280D01*
X007515Y006127D02*
Y006262D01*
X007365Y005977D02*
X007515Y006127D01*
X007365Y005845D02*
Y005977D01*
X007315Y005795D02*
X007365Y005845D01*
X007103Y005795D02*
X007315D01*
X006933Y005625D02*
X007103Y005795D01*
X006885Y005625D02*
X006933D01*
X007493Y006435D02*
X007533Y006475D01*
X007658D01*
X007493Y006303D02*
Y006435D01*
X007475Y006285D02*
X007493Y006303D01*
X007475Y006147D02*
Y006285D01*
X007325Y005997D02*
X007475Y006147D01*
X007325Y005867D02*
Y005997D01*
X007293Y005835D02*
X007325Y005867D01*
X007063Y005835D02*
X007293D01*
X006933Y005705D02*
X007063Y005835D01*
X006885Y005705D02*
X006933D01*
X007453Y006540D02*
X007515Y006602D01*
X007658D01*
X007453Y006325D02*
Y006540D01*
X007435Y006307D02*
X007453Y006325D01*
X007435Y006165D02*
Y006307D01*
X007286Y006016D02*
X007435Y006165D01*
X007286Y005888D02*
Y006016D01*
X007273Y005875D02*
X007286Y005888D01*
X007038Y005875D02*
X007273D01*
X006948Y005785D02*
X007038Y005875D01*
X006913Y005785D02*
X006948D01*
X007263Y006215D02*
Y006290D01*
X007243Y006195D02*
X007263Y006215D01*
X007093Y006195D02*
X007243D01*
X007058Y006160D02*
X007093Y006195D01*
X007058Y006115D02*
Y006160D01*
X007026Y006735D02*
X007080D01*
X006966Y006795D02*
X007026Y006735D01*
X007323Y006585D02*
Y006615D01*
X007233Y006705D02*
X007323Y006615D01*
X007233Y006705D02*
Y006735D01*
X007153Y006481D02*
Y006615D01*
X007123Y006451D02*
X007153Y006481D01*
X007133Y006635D02*
X007153Y006615D01*
X007099Y006290D02*
X007123Y006314D01*
X007083Y006290D02*
X007099D01*
X007003Y006635D02*
X007133D01*
X006993Y006625D02*
X007003Y006635D01*
X006983Y006625D02*
X006993D01*
X007393Y006445D02*
Y006465D01*
X007195D02*
X007393D01*
X007183Y006453D02*
X007195Y006465D01*
X007368Y006420D02*
X007393Y006445D01*
X007303Y006420D02*
X007368D01*
X007183Y006290D02*
Y006453D01*
X007128Y006235D02*
X007183Y006290D01*
X006983Y006235D02*
X007128D01*
X006930Y006288D02*
X006983Y006235D01*
X006948Y011055D02*
X007054Y011161D01*
X006913Y011055D02*
X006948D01*
X007210Y011157D02*
Y011305D01*
X007043Y011725D02*
X007061Y011743D01*
X006913Y011725D02*
X007043D01*
X007080Y011910D02*
X007093Y011897D01*
X007127D01*
X007230Y011794D01*
Y011743D02*
Y011794D01*
X007080Y011910D02*
Y011925D01*
X007233D02*
Y012072D01*
X007230Y012075D02*
X007233Y012072D01*
X007660Y011410D02*
X007835D01*
X007355Y011365D02*
Y011475D01*
X007295Y011305D02*
X007355Y011365D01*
X007210Y011305D02*
X007295D01*
X007533Y011507D02*
X007564Y011538D01*
X007658D01*
X007533Y011470D02*
Y011507D01*
X007515Y011452D02*
X007533Y011470D01*
X007515Y011317D02*
Y011452D01*
X007365Y011167D02*
X007515Y011317D01*
X007365Y011035D02*
Y011167D01*
X007315Y010985D02*
X007365Y011035D01*
X007103Y010985D02*
X007315D01*
X006933Y010815D02*
X007103Y010985D01*
X006885Y010815D02*
X006933D01*
X007493Y011625D02*
X007533Y011665D01*
X007658D01*
X007493Y011493D02*
Y011625D01*
X007475Y011475D02*
X007493Y011493D01*
X007475Y011337D02*
Y011475D01*
X007325Y011187D02*
X007475Y011337D01*
X007325Y011057D02*
Y011187D01*
X007293Y011025D02*
X007325Y011057D01*
X007063Y011025D02*
X007293D01*
X006933Y010895D02*
X007063Y011025D01*
X006885Y010895D02*
X006933D01*
X007453Y011730D02*
X007515Y011792D01*
X007658D01*
X007453Y011515D02*
Y011730D01*
X007435Y011497D02*
X007453Y011515D01*
X007435Y011355D02*
Y011497D01*
X007286Y011206D02*
X007435Y011355D01*
X007286Y011078D02*
Y011206D01*
X007273Y011065D02*
X007286Y011078D01*
X007038Y011065D02*
X007273D01*
X006948Y010975D02*
X007038Y011065D01*
X006913Y010975D02*
X006948D01*
X007263Y011405D02*
Y011480D01*
X007243Y011385D02*
X007263Y011405D01*
X007093Y011385D02*
X007243D01*
X007058Y011350D02*
X007093Y011385D01*
X007058Y011305D02*
Y011350D01*
X007026Y011925D02*
X007080D01*
X006966Y011985D02*
X007026Y011925D01*
X007323Y011775D02*
Y011805D01*
X007233Y011895D02*
X007323Y011805D01*
X007233Y011895D02*
Y011925D01*
X007153Y011671D02*
Y011805D01*
X007123Y011641D02*
X007153Y011671D01*
X007133Y011825D02*
X007153Y011805D01*
X007099Y011480D02*
X007123Y011504D01*
X007083Y011480D02*
X007099D01*
X007003Y011825D02*
X007133D01*
X006993Y011815D02*
X007003Y011825D01*
X006983Y011815D02*
X006993D01*
X007393Y011635D02*
Y011655D01*
X007195D02*
X007393D01*
X007183Y011643D02*
X007195Y011655D01*
X007368Y011610D02*
X007393Y011635D01*
X007303Y011610D02*
X007368D01*
X007183Y011480D02*
Y011643D01*
X007128Y011425D02*
X007183Y011480D01*
X006983Y011425D02*
X007128D01*
X006930Y011478D02*
X006983Y011425D01*
X006913Y007595D02*
X006948D01*
X007210Y007697D02*
Y007845D01*
X007043Y008265D02*
X007061Y008283D01*
X006915Y008265D02*
X007043D01*
X007080Y008450D02*
X007093Y008437D01*
X007127D01*
X007230Y008334D01*
Y008283D02*
Y008334D01*
X007080Y008450D02*
Y008465D01*
X007233D02*
Y008612D01*
X007230Y008615D02*
X007233Y008612D01*
X007660Y007950D02*
X007835D01*
X007355Y007905D02*
Y008015D01*
X007295Y007845D02*
X007355Y007905D01*
X007210Y007845D02*
X007295D01*
X007533Y008047D02*
X007564Y008078D01*
X007658D01*
X007533Y008010D02*
Y008047D01*
X007515Y007992D02*
X007533Y008010D01*
X007515Y007857D02*
Y007992D01*
X007365Y007707D02*
X007515Y007857D01*
X007365Y007575D02*
Y007707D01*
X007315Y007525D02*
X007365Y007575D01*
X007103Y007525D02*
X007315D01*
X006933Y007355D02*
X007103Y007525D01*
X006885Y007355D02*
X006933D01*
X007493Y008165D02*
X007533Y008205D01*
X007658D01*
X007493Y008033D02*
Y008165D01*
X007475Y008015D02*
X007493Y008033D01*
X007475Y007877D02*
Y008015D01*
X007325Y007727D02*
X007475Y007877D01*
X007325Y007597D02*
Y007727D01*
X007293Y007565D02*
X007325Y007597D01*
X007063Y007565D02*
X007293D01*
X006933Y007435D02*
X007063Y007565D01*
X006885Y007435D02*
X006933D01*
X007453Y008270D02*
X007515Y008332D01*
X007658D01*
X007453Y008055D02*
Y008270D01*
X007435Y008037D02*
X007453Y008055D01*
X007435Y007895D02*
Y008037D01*
X007286Y007746D02*
X007435Y007895D01*
X007286Y007618D02*
Y007746D01*
X007273Y007605D02*
X007286Y007618D01*
X007038Y007605D02*
X007273D01*
X006948Y007515D02*
X007038Y007605D01*
X006913Y007515D02*
X006948D01*
X007263Y007945D02*
Y008020D01*
X007243Y007925D02*
X007263Y007945D01*
X007093Y007925D02*
X007243D01*
X007058Y007890D02*
X007093Y007925D01*
X007058Y007845D02*
Y007890D01*
X007026Y008465D02*
X007080D01*
X006966Y008525D02*
X007026Y008465D01*
X007323Y008315D02*
Y008345D01*
X007233Y008435D02*
X007323Y008345D01*
X007233Y008435D02*
Y008465D01*
X007153Y008211D02*
Y008345D01*
X007123Y008181D02*
X007153Y008211D01*
X007133Y008365D02*
X007153Y008345D01*
X007099Y008020D02*
X007123Y008044D01*
X007083Y008020D02*
X007099D01*
X007003Y008365D02*
X007133D01*
X006993Y008355D02*
X007003Y008365D01*
X006983Y008355D02*
X006993D01*
X007393Y008175D02*
Y008195D01*
X007195D02*
X007393D01*
X007183Y008183D02*
X007195Y008195D01*
X007368Y008150D02*
X007393Y008175D01*
X007303Y008150D02*
X007368D01*
X007183Y008020D02*
Y008183D01*
X007128Y007965D02*
X007183Y008020D01*
X006983Y007965D02*
X007128D01*
X006930Y008018D02*
X006983Y007965D01*
X006966Y010255D02*
X007026Y010195D01*
X007080D01*
X006913Y009325D02*
X006948D01*
X007210Y009427D02*
Y009575D01*
X007043Y009995D02*
X007061Y010013D01*
X006913Y009995D02*
X007043D01*
X007080Y010180D02*
Y010195D01*
X007093Y010167D02*
X007127D01*
X007230Y010064D01*
Y010013D02*
Y010064D01*
X007080Y010180D02*
X007093Y010167D01*
X007233Y010195D02*
Y010342D01*
X007230Y010345D02*
X007233Y010342D01*
X007660Y009679D02*
X007835D01*
X007355Y009635D02*
Y009745D01*
X007295Y009575D02*
X007355Y009635D01*
X007210Y009575D02*
X007295D01*
X007533Y009777D02*
X007564Y009808D01*
X007658D01*
X007533Y009740D02*
Y009777D01*
X007515Y009722D02*
X007533Y009740D01*
X007515Y009587D02*
Y009722D01*
X007365Y009437D02*
X007515Y009587D01*
X007365Y009305D02*
Y009437D01*
X007315Y009255D02*
X007365Y009305D01*
X007103Y009255D02*
X007315D01*
X006933Y009085D02*
X007103Y009255D01*
X006885Y009085D02*
X006933D01*
X007493Y009895D02*
X007533Y009935D01*
X007658D01*
X007493Y009763D02*
Y009895D01*
X007475Y009745D02*
X007493Y009763D01*
X007475Y009607D02*
Y009745D01*
X007325Y009457D02*
X007475Y009607D01*
X007325Y009327D02*
Y009457D01*
X007293Y009295D02*
X007325Y009327D01*
X007063Y009295D02*
X007293D01*
X006933Y009165D02*
X007063Y009295D01*
X006885Y009165D02*
X006933D01*
X007453Y010000D02*
X007515Y010062D01*
X007658D01*
X007453Y009785D02*
Y010000D01*
X007435Y009767D02*
X007453Y009785D01*
X007435Y009625D02*
Y009767D01*
X007286Y009476D02*
X007435Y009625D01*
X007286Y009348D02*
Y009476D01*
X007273Y009335D02*
X007286Y009348D01*
X007038Y009335D02*
X007273D01*
X006948Y009245D02*
X007038Y009335D01*
X006913Y009245D02*
X006948D01*
X007263Y009675D02*
Y009750D01*
X007243Y009655D02*
X007263Y009675D01*
X007093Y009655D02*
X007243D01*
X007058Y009620D02*
X007093Y009655D01*
X007058Y009575D02*
Y009620D01*
X007323Y010045D02*
Y010075D01*
X007233Y010165D02*
X007323Y010075D01*
X007233Y010165D02*
Y010195D01*
X007153Y009941D02*
Y010075D01*
X007123Y009911D02*
X007153Y009941D01*
X007133Y010095D02*
X007153Y010075D01*
X007099Y009750D02*
X007123Y009774D01*
X007083Y009750D02*
X007099D01*
X007003Y010095D02*
X007133D01*
X006993Y010085D02*
X007003Y010095D01*
X006983Y010085D02*
X006993D01*
X007393Y009905D02*
Y009925D01*
X007195D02*
X007393D01*
X007183Y009913D02*
X007195Y009925D01*
X007368Y009880D02*
X007393Y009905D01*
X007303Y009880D02*
X007368D01*
X007183Y009750D02*
Y009913D01*
X007128Y009695D02*
X007183Y009750D01*
X006983Y009695D02*
X007128D01*
X006930Y009748D02*
X006983Y009695D01*
D21*
X008803Y011832D02*
Y011932D01*
X008805Y011935D01*
X008803Y010103D02*
Y010203D01*
X008805Y010205D01*
X008797Y008368D02*
Y008468D01*
X008805Y008475D01*
Y006647D02*
Y006745D01*
X007425Y006645D02*
Y006715D01*
X007453Y006743D01*
X007425Y011835D02*
Y011905D01*
X007453Y011933D01*
X007430Y010107D02*
Y010180D01*
X007453Y010203D01*
X007435Y008378D02*
Y008455D01*
X007453Y008473D01*
X008650Y010676D02*
X008863D01*
X008985Y010497D02*
Y010560D01*
X009025Y010600D01*
X008650Y008946D02*
X008863D01*
X008983Y008765D02*
X009003Y008785D01*
Y008857D01*
X008650Y007216D02*
X008863D01*
X008863Y007203D02*
X008970D01*
X008863Y007203D02*
X008863Y007203D01*
X008985Y007111D02*
X009007Y007134D01*
X008982Y005297D02*
X008983Y005298D01*
X008983Y005395D02*
X008983Y005395D01*
X008983Y005390D02*
X008983Y005395D01*
X008983Y005298D02*
Y005390D01*
X008650Y005486D02*
X008863D01*
X008992Y005473D02*
X008993Y005472D01*
X008863Y005473D02*
X008992D01*
X007363Y005483D02*
X007597D01*
X007265Y005465D02*
X007285Y005445D01*
X010368Y006990D02*
Y007186D01*
X010468Y007285D02*
X010495D01*
X010368Y007186D02*
X010468Y007285D01*
X010455Y007160D02*
X010495Y007120D01*
Y006990D02*
Y007120D01*
X009682Y007350D02*
X009775D01*
X009840Y007285D02*
X009840D01*
X009775Y007350D02*
X009840Y007285D01*
X009618Y007286D02*
X009682Y007350D01*
X009618Y006990D02*
Y007286D01*
X009720Y007285D02*
X009745Y007260D01*
Y006990D02*
Y007260D01*
X010035Y005269D02*
Y005335D01*
X009935Y005269D02*
Y005385D01*
X010035Y005335D02*
X010145Y005445D01*
X009935Y005385D02*
X010130Y005580D01*
X010270D01*
X010145Y005445D02*
X010325D01*
X010460Y005580D01*
X010970Y006725D02*
Y006735D01*
X010838Y006593D02*
X010970Y006725D01*
X010838Y006593D02*
Y006593D01*
X010753Y006508D02*
X010838Y006593D01*
X010753Y005906D02*
Y006508D01*
X008585Y011282D02*
X008755D01*
X008790Y010495D02*
X008835D01*
X008585Y009552D02*
X008755D01*
X005183Y011416D02*
Y011454D01*
X008790Y008765D02*
X008835D01*
X008585Y007822D02*
X008755D01*
X008790Y007035D02*
X008835D01*
X008790Y005305D02*
X008835D01*
X008585Y006092D02*
X008755D01*
X004987Y008533D02*
X005088D01*
X007035Y004465D02*
Y004715D01*
X009765Y005580D02*
X009780Y005595D01*
X008585Y011399D02*
X008597Y011411D01*
X008585Y011526D02*
X008597Y011538D01*
X008585Y011780D02*
X008597Y011792D01*
X008585Y011653D02*
X008597Y011665D01*
X008585Y006463D02*
X008597Y006475D01*
X008585Y006209D02*
X008597Y006221D01*
X008585Y006336D02*
X008597Y006348D01*
X008585Y006590D02*
X008597Y006602D01*
X010720Y007285D02*
Y007293D01*
X008585Y009669D02*
X008597Y009681D01*
X008585Y009796D02*
X008597Y009808D01*
X008585Y009923D02*
X008597Y009935D01*
X008585Y010050D02*
X008597Y010062D01*
X008585Y008320D02*
X008597Y008332D01*
X008585Y007939D02*
X008597Y007951D01*
X010685Y005591D02*
X010841Y005747D01*
X010685Y005265D02*
Y005591D01*
X010970Y005952D02*
Y006115D01*
X010932Y005914D02*
X010970Y005952D01*
X010932Y005816D02*
Y005914D01*
X010863Y005747D02*
X010932Y005816D01*
X010841Y005747D02*
X010863D01*
X008585Y008066D02*
X008597Y008078D01*
X008585Y008193D02*
X008597Y008205D01*
X011090Y006785D02*
Y006838D01*
Y006600D02*
Y006785D01*
X007428Y006897D02*
X007488D01*
X007659Y006855D02*
X007670Y006844D01*
X007562Y006082D02*
X007670D01*
X007525Y006045D02*
X007562Y006082D01*
X005183Y005416D02*
Y005454D01*
X007428Y008627D02*
X007488D01*
X007659Y008585D02*
X007670Y008574D01*
X007562Y007812D02*
X007670D01*
X007525Y007775D02*
X007562Y007812D01*
X005183Y006916D02*
Y006954D01*
X007363Y007213D02*
X007597D01*
X007265Y007195D02*
X007285Y007175D01*
X007367Y007343D02*
X007600D01*
X006885Y007250D02*
X006898D01*
X007194Y004935D02*
X007455Y005196D01*
X006540Y004935D02*
X007194D01*
X007455Y005196D02*
X009356D01*
X007214Y004885D02*
X007476Y005146D01*
X006721Y004885D02*
X007214D01*
X007476Y005146D02*
X009406D01*
X007235Y004835D02*
X007496Y005096D01*
X006905Y004835D02*
X007235D01*
X007496Y005096D02*
X009426D01*
X007256Y004785D02*
X007517Y005046D01*
X007105Y004785D02*
X007256D01*
X007517Y005046D02*
X009447D01*
X007035Y004715D02*
X007105Y004785D01*
X009385Y005225D02*
Y005269D01*
X009356Y005196D02*
X009385Y005225D01*
X009650Y005445D02*
X009780Y005575D01*
X009555Y005445D02*
X009650D01*
X009485Y005375D02*
X009555Y005445D01*
X009485Y005269D02*
Y005375D01*
X009523Y005575D02*
X009590D01*
X009385Y005437D02*
X009523Y005575D01*
X009385Y005269D02*
Y005437D01*
X010795Y005265D02*
Y005308D01*
X010817Y005330D01*
X010930D01*
X009725Y005168D02*
X009872Y005315D01*
X009569Y005168D02*
X009725D01*
X009447Y005046D02*
X009569Y005168D01*
X009872Y005315D02*
Y005692D01*
X009920Y005740D01*
X009605Y005325D02*
X009685D01*
X009575Y005295D02*
X009605Y005325D01*
X009575Y005269D02*
Y005295D01*
Y005245D02*
Y005269D01*
X009485Y005226D02*
Y005269D01*
X010160Y005330D02*
X010365D01*
X010135Y005305D02*
X010160Y005330D01*
X010135Y005269D02*
Y005305D01*
X009406Y005146D02*
X009485Y005226D01*
X009426Y005096D02*
X009575Y005245D01*
X006635Y004665D02*
Y004799D01*
Y004465D02*
Y004665D01*
X006835Y004465D02*
Y004665D01*
X006435Y004465D02*
Y004665D01*
Y004830D01*
X006540Y004935D01*
X006635Y004799D02*
X006721Y004885D01*
X006835Y004765D02*
X006905Y004835D01*
X006835Y004665D02*
Y004765D01*
X009935Y005269D02*
X009935Y005269D01*
X010622Y006990D02*
Y007165D01*
X010940Y006918D02*
X011010D01*
X011090Y006838D01*
X011035Y006545D02*
X011090Y006600D01*
X010970Y006335D02*
Y006395D01*
X010905Y006460D02*
X010970Y006395D01*
X010905Y006460D02*
Y006545D01*
X010830Y005585D02*
X010835Y005580D01*
X010753Y005585D02*
X010830D01*
X010857Y007070D02*
X010940D01*
X010775D02*
X010857D01*
Y007143D02*
X010880Y007165D01*
X010857Y007070D02*
Y007143D01*
X010694Y006918D02*
X010775D01*
X010622Y006990D02*
X010694Y006918D01*
X010775D02*
X010940D01*
X010132Y007165D02*
X010210D01*
X010241Y007134D01*
Y006990D02*
Y007134D01*
X010132Y007085D02*
Y007165D01*
X010082Y007035D02*
X010132Y007085D01*
X010010Y007035D02*
X010082D01*
X009872Y006990D02*
Y007165D01*
X009980D01*
X009410Y007194D02*
X009491Y007113D01*
Y006990D02*
Y007113D01*
X010241Y005774D02*
Y005940D01*
X010200Y005733D02*
X010241Y005774D01*
X010622Y005735D02*
Y005940D01*
X009872Y005788D02*
X009920Y005740D01*
X009872Y005788D02*
Y005940D01*
X009450Y005733D02*
X009491Y005774D01*
Y005940D01*
X010460Y005580D02*
Y005665D01*
X010480Y005685D01*
Y005735D01*
Y005813D01*
X010495Y005828D01*
Y005940D01*
X010270Y005580D02*
X010280Y005590D01*
Y005645D01*
X010328Y005693D01*
Y005735D01*
Y005803D01*
X010368Y005843D01*
Y005940D01*
X009780Y005595D02*
Y005651D01*
X009755Y005676D02*
X009780Y005651D01*
X009755Y005676D02*
Y005730D01*
X009765Y005740D01*
Y005815D01*
X009745Y005835D02*
X009765Y005815D01*
X009745Y005835D02*
Y005940D01*
X009575Y005580D02*
Y005645D01*
X009603Y005673D01*
Y005730D01*
X009600Y005733D02*
X009603Y005730D01*
X009600Y005733D02*
Y005805D01*
X009618Y005823D01*
Y005940D01*
X011985Y006675D02*
X012225D01*
X011985Y006800D02*
X012225D01*
X011970Y006929D02*
X011974Y006925D01*
X011989D02*
X012225D01*
X011985Y007055D02*
X012220D01*
X012225Y007050D01*
X005123Y005566D02*
Y005643D01*
X005088Y005531D02*
X005123Y005566D01*
X007367Y010803D02*
X007600D01*
X006885Y010710D02*
X006898D01*
X007363Y010673D02*
X007597D01*
X007265Y010655D02*
X007285Y010635D01*
X004987Y010031D02*
X005088D01*
X004987Y007031D02*
X005088D01*
X004985Y005533D02*
X004987Y005531D01*
X005088D01*
X007428Y012087D02*
X007488D01*
X007659Y012045D02*
X007670Y012034D01*
X007562Y011272D02*
X007670D01*
X007525Y011235D02*
X007562Y011272D01*
X005183Y009916D02*
Y009954D01*
X007659Y010315D02*
X007670Y010304D01*
X007428Y010357D02*
X007488D01*
X007562Y009542D02*
X007670D01*
X007525Y009505D02*
X007562Y009542D01*
X005183Y008416D02*
Y008454D01*
X007367Y009073D02*
X007600D01*
X006885Y008980D02*
X006898D01*
X007363Y008943D02*
X007597D01*
X007265Y008925D02*
X007285Y008905D01*
X007367Y005613D02*
X007600D01*
X006885Y005520D02*
X006898D01*
X005183Y011416D02*
X005223Y011456D01*
X005529Y011413D02*
Y011496D01*
X005123Y011568D02*
Y011643D01*
X005088Y011533D02*
X005123Y011568D01*
X005088Y011531D02*
Y011533D01*
X005273Y011526D02*
X005273Y011526D01*
X005223Y011643D02*
X005223Y011643D01*
X005273Y011526D02*
Y011643D01*
X005223Y011526D02*
Y011643D01*
Y011526D02*
X005273D01*
X005223Y011494D02*
Y011526D01*
X005183Y011454D02*
X005223Y011494D01*
X005855Y011155D02*
X005866Y011166D01*
X005855Y011064D02*
Y011155D01*
X005509Y012424D02*
X005518Y012433D01*
X005183Y008416D02*
X005223Y008456D01*
X005529Y008413D02*
Y008496D01*
X005123Y008568D02*
Y008643D01*
X005088Y008533D02*
X005123Y008568D01*
X005088Y008531D02*
Y008533D01*
X005273Y008526D02*
X005273Y008526D01*
X005223Y008643D02*
X005223Y008643D01*
X005273Y008526D02*
Y008643D01*
X005223Y008526D02*
Y008643D01*
Y008526D02*
X005273D01*
X005223Y008494D02*
Y008526D01*
X005183Y008454D02*
X005223Y008494D01*
X005855Y008155D02*
X005866Y008166D01*
X005855Y008064D02*
Y008155D01*
X005509Y009424D02*
X005518Y009433D01*
X005183Y009916D02*
X005223Y009956D01*
X005529Y009913D02*
Y009996D01*
X005123Y010068D02*
Y010143D01*
X005088Y010033D02*
X005123Y010068D01*
X005088Y010031D02*
Y010033D01*
X005273Y010026D02*
X005273Y010026D01*
X005223Y010143D02*
X005223Y010143D01*
X005273Y010026D02*
Y010143D01*
X005223Y010026D02*
Y010143D01*
Y010026D02*
X005273D01*
X005223Y009994D02*
Y010026D01*
X005183Y009954D02*
X005223Y009994D01*
X005855Y009655D02*
X005866Y009666D01*
X005855Y009564D02*
Y009655D01*
X005509Y010924D02*
X005518Y010933D01*
X005183Y006916D02*
X005223Y006956D01*
X005529Y006913D02*
Y006996D01*
X005123Y007068D02*
Y007143D01*
X005088Y007033D02*
X005123Y007068D01*
X005088Y007031D02*
Y007033D01*
X005273Y007026D02*
X005273Y007026D01*
X005223Y007143D02*
X005223Y007143D01*
X005273Y007026D02*
Y007143D01*
X005223Y007026D02*
Y007143D01*
Y007026D02*
X005273D01*
X005223Y006994D02*
Y007026D01*
X005183Y006954D02*
X005223Y006994D01*
X005855Y006655D02*
X005866Y006666D01*
X005855Y006564D02*
Y006655D01*
X005509Y007924D02*
X005518Y007933D01*
X008776Y005305D02*
X008790D01*
X008745Y005274D02*
X008776Y005305D01*
X008650Y005359D02*
X008736D01*
X008790Y005305D01*
X007658Y011919D02*
X007670Y011907D01*
X007573Y011145D02*
X007670D01*
X007523Y011155D02*
X007563D01*
X007658Y010189D02*
X007670Y010177D01*
X007573Y009415D02*
X007670D01*
X007523Y009425D02*
X007563D01*
X007453Y011935D02*
X007510D01*
X007453Y010205D02*
X007510D01*
X007453Y008475D02*
X007510D01*
X007658Y008459D02*
X007670Y008447D01*
X007573Y007685D02*
X007670D01*
X007658Y006729D02*
X007670Y006717D01*
X007573Y005955D02*
X007670D01*
X007523Y007695D02*
X007563D01*
X007453Y006745D02*
X007510D01*
X007523Y005965D02*
X007563D01*
X007175Y005315D02*
X007253D01*
X007145Y005285D02*
X007175Y005315D01*
X007145Y005285D02*
X007145D01*
X007443Y005315D02*
X007493Y005265D01*
X007405Y005315D02*
X007443D01*
X005183Y005416D02*
X005223Y005456D01*
X008585Y011907D02*
X008597Y011919D01*
X008585Y011145D02*
X008597Y011157D01*
X008585Y010177D02*
X008597Y010189D01*
X008585Y009415D02*
X008597Y009427D01*
X008585Y008447D02*
X008597Y008459D01*
X008585Y007685D02*
X008597Y007697D01*
X008985Y007037D02*
X008987Y007035D01*
X008585Y006717D02*
X008597Y006729D01*
X008585Y005955D02*
X008597Y005967D01*
X005509Y006424D02*
X005518Y006433D01*
X005273Y005526D02*
Y005643D01*
X005273Y005526D02*
X005273Y005526D01*
X005223Y005526D02*
X005273D01*
X005223D02*
Y005643D01*
X005223Y005643D01*
X005223Y005494D02*
Y005526D01*
X005183Y005454D02*
X005223Y005494D01*
X005529Y005413D02*
Y005496D01*
X005855Y005155D02*
X005866Y005166D01*
X005855Y005064D02*
Y005155D01*
X007443Y005315D02*
X007445D01*
X008805Y006745D02*
X008805Y006745D01*
X008840Y006895D02*
X008840Y006895D01*
X007425Y006895D02*
X007428Y006897D01*
X007061Y006553D02*
X007077D01*
X007070Y006897D02*
X007083Y006885D01*
X007005D02*
X007083D01*
X006995Y006875D02*
X007005Y006885D01*
X006985Y006875D02*
X006995D01*
X008650Y005740D02*
Y005825D01*
X007489Y005359D02*
X007600D01*
X007445Y005315D02*
X007489Y005359D01*
X007597Y005483D02*
X007600Y005486D01*
Y005740D02*
Y005825D01*
X008597Y005967D02*
X008745D01*
X008840Y006895D02*
X008965D01*
X008805Y006897D02*
X008827D01*
X008799Y006221D02*
X008985Y006035D01*
X008597Y006221D02*
X008799D01*
X008752Y006348D02*
X008985Y006115D01*
X008597Y006348D02*
X008752D01*
X008703Y006475D02*
X008983Y006195D01*
X008597Y006475D02*
X008703D01*
X008775Y006485D02*
Y006543D01*
Y006485D02*
X008985Y006275D01*
X008597Y006602D02*
X008716D01*
X008775Y006543D01*
X008711Y006729D02*
X008727Y006745D01*
X008805D01*
X008597Y006729D02*
X008711D01*
X008750Y006897D02*
X008805D01*
X008708Y006855D02*
X008750Y006897D01*
X008596Y006855D02*
X008708D01*
X007563Y005965D02*
X007573Y005955D01*
X007510Y006745D02*
X007526Y006729D01*
X007658D01*
X007453Y006743D02*
Y006745D01*
X007530Y006855D02*
X007659D01*
X007488Y006897D02*
X007530Y006855D01*
X007363Y006895D02*
X007425D01*
X007303Y006355D02*
X007393D01*
X006996D02*
X007043D01*
X006963Y006388D02*
X006996Y006355D01*
X007325Y005445D02*
X007363Y005483D01*
X007222Y005455D02*
X007265D01*
X007285Y005445D02*
X007325D01*
X006885Y005440D02*
X006890Y005435D01*
X006885Y005440D02*
Y005445D01*
X006890Y005435D02*
X006908D01*
X007142Y005375D02*
X007222Y005455D01*
X006968Y005375D02*
X007142D01*
X006908Y005435D02*
X006968Y005375D01*
X007325Y005655D02*
X007367Y005613D01*
X007265Y005655D02*
X007325D01*
X007215Y005645D02*
X007265D01*
X007175Y005605D02*
X007215Y005645D01*
X007175Y005517D02*
Y005605D01*
X006880Y005515D02*
X006885Y005520D01*
X007112Y005454D02*
X007175Y005517D01*
X006964Y005454D02*
X007112D01*
X006898Y005520D02*
X006964Y005454D01*
X007015Y005550D02*
X007095D01*
X007243Y010515D02*
X007253Y010505D01*
X007185Y010515D02*
X007243D01*
X007145Y010475D02*
X007185Y010515D01*
X007145Y010475D02*
X007145D01*
X007443Y010505D02*
X007445D01*
X008840Y012085D02*
X008840Y012085D01*
X007453Y011933D02*
Y011935D01*
X007425Y012085D02*
X007428Y012087D01*
X008805Y011935D02*
X008805Y011935D01*
X007061Y011743D02*
X007077D01*
X007070Y012087D02*
X007083Y012075D01*
X007005D02*
X007083D01*
X006995Y012065D02*
X007005Y012075D01*
X006985Y012065D02*
X006995D01*
X008650Y010930D02*
Y011015D01*
X007489Y010549D02*
X007600D01*
X007445Y010505D02*
X007489Y010549D01*
X007597Y010673D02*
X007600Y010676D01*
Y010930D02*
Y011015D01*
X008597Y011157D02*
X008745D01*
X008840Y012085D02*
X008965D01*
X008805Y012087D02*
X008827D01*
X008776Y010495D02*
X008790D01*
X008736Y010549D02*
X008790Y010495D01*
X008745Y010464D02*
X008776Y010495D01*
X008650Y010549D02*
X008736D01*
X008799Y011411D02*
X008985Y011225D01*
X008597Y011411D02*
X008799D01*
X008752Y011538D02*
X008985Y011305D01*
X008597Y011538D02*
X008752D01*
X008703Y011665D02*
X008983Y011385D01*
X008597Y011665D02*
X008703D01*
X008775Y011675D02*
Y011733D01*
Y011675D02*
X008985Y011465D01*
X008597Y011792D02*
X008716D01*
X008775Y011733D01*
X008727Y011935D02*
X008805D01*
X008711Y011919D02*
X008727Y011935D01*
X008597Y011919D02*
X008711D01*
X008750Y012087D02*
X008805D01*
X008708Y012045D02*
X008750Y012087D01*
X008596Y012045D02*
X008708D01*
X007563Y011155D02*
X007573Y011145D01*
X007510Y011935D02*
X007526Y011919D01*
X007658D01*
X007530Y012045D02*
X007659D01*
X007488Y012087D02*
X007530Y012045D01*
X007443Y010505D02*
X007493Y010455D01*
X007405Y010505D02*
X007443D01*
X007363Y012085D02*
X007425D01*
X007303Y011545D02*
X007393D01*
X006996D02*
X007043D01*
X006963Y011578D02*
X006996Y011545D01*
X007325Y010635D02*
X007363Y010673D01*
X007222Y010645D02*
X007265D01*
X007285Y010635D02*
X007325D01*
X006885Y010630D02*
X006890Y010625D01*
X006885Y010630D02*
Y010635D01*
X006890Y010625D02*
X006908D01*
X007142Y010565D02*
X007222Y010645D01*
X006968Y010565D02*
X007142D01*
X006908Y010625D02*
X006968Y010565D01*
X007325Y010845D02*
X007367Y010803D01*
X007265Y010845D02*
X007325D01*
X007215Y010835D02*
X007265D01*
X007175Y010795D02*
X007215Y010835D01*
X007175Y010707D02*
Y010795D01*
X006880Y010705D02*
X006885Y010710D01*
X007112Y010644D02*
X007175Y010707D01*
X006964Y010644D02*
X007112D01*
X006898Y010710D02*
X006964Y010644D01*
X007015Y010740D02*
X007095D01*
X008985Y007037D02*
Y007111D01*
X007243Y007055D02*
X007253Y007045D01*
X007185Y007055D02*
X007243D01*
X007145Y007015D02*
X007145D01*
X007185Y007055D01*
X007443Y007045D02*
X007445D01*
X008840Y008625D02*
X008840Y008625D01*
X007453Y008473D02*
Y008475D01*
X007425Y008625D02*
X007428Y008627D01*
X008805Y008475D02*
X008805Y008475D01*
X007061Y008283D02*
X007077D01*
X007070Y008627D02*
X007083Y008615D01*
X007005D02*
X007083D01*
X006995Y008605D02*
X007005Y008615D01*
X006985Y008605D02*
X006995D01*
X008650Y007470D02*
Y007555D01*
X007489Y007089D02*
X007600D01*
X007445Y007045D02*
X007489Y007089D01*
X007597Y007213D02*
X007600Y007216D01*
Y007470D02*
Y007555D01*
X008597Y007697D02*
X008745D01*
X008840Y008625D02*
X008965D01*
X008805Y008627D02*
X008827D01*
X008776Y007035D02*
X008790D01*
X008736Y007089D02*
X008790Y007035D01*
X008745Y007004D02*
X008776Y007035D01*
X008650Y007089D02*
X008736D01*
X008799Y007951D02*
X008985Y007765D01*
X008597Y007951D02*
X008799D01*
X008752Y008078D02*
X008985Y007845D01*
X008597Y008078D02*
X008752D01*
X008703Y008205D02*
X008983Y007925D01*
X008597Y008205D02*
X008703D01*
X008775Y008215D02*
Y008273D01*
Y008215D02*
X008985Y008005D01*
X008597Y008332D02*
X008716D01*
X008775Y008273D01*
X008711Y008459D02*
X008727Y008475D01*
X008805D01*
X008597Y008459D02*
X008711D01*
X008750Y008627D02*
X008805D01*
X008708Y008585D02*
X008750Y008627D01*
X008596Y008585D02*
X008708D01*
X007563Y007695D02*
X007573Y007685D01*
X007510Y008475D02*
X007526Y008459D01*
X007658D01*
X007530Y008585D02*
X007659D01*
X007488Y008627D02*
X007530Y008585D01*
X007443Y007045D02*
X007493Y006995D01*
X007405Y007045D02*
X007443D01*
X007363Y008625D02*
X007425D01*
X007303Y008085D02*
X007393D01*
X006996D02*
X007043D01*
X006963Y008118D02*
X006996Y008085D01*
X007325Y007175D02*
X007363Y007213D01*
X007222Y007185D02*
X007265D01*
X007285Y007175D02*
X007325D01*
X006885Y007170D02*
X006890Y007165D01*
X006885Y007170D02*
Y007175D01*
X006890Y007165D02*
X006908D01*
X007142Y007105D02*
X007222Y007185D01*
X006968Y007105D02*
X007142D01*
X006908Y007165D02*
X006968Y007105D01*
X007325Y007385D02*
X007367Y007343D01*
X007265Y007385D02*
X007325D01*
X007215Y007375D02*
X007265D01*
X007175Y007335D02*
X007215Y007375D01*
X007175Y007247D02*
Y007335D01*
X006880Y007245D02*
X006885Y007250D01*
X007112Y007184D02*
X007175Y007247D01*
X006964Y007184D02*
X007112D01*
X006898Y007250D02*
X006964Y007184D01*
X007015Y007280D02*
X007095D01*
X006985Y010335D02*
X006995D01*
X007005Y010345D01*
X007083D01*
X007243Y008785D02*
X007253Y008775D01*
X007185Y008785D02*
X007243D01*
X007145Y008745D02*
X007145D01*
X007185Y008785D01*
X007443Y008775D02*
X007445D01*
X008805Y010205D02*
X008805Y010205D01*
X008840Y010355D02*
X008840Y010355D01*
X007453Y010203D02*
Y010205D01*
X007425Y010355D02*
X007428Y010357D01*
X007061Y010013D02*
X007077D01*
X007070Y010357D02*
X007083Y010345D01*
X008650Y009200D02*
Y009285D01*
X007489Y008819D02*
X007600D01*
X007445Y008775D02*
X007489Y008819D01*
X007597Y008943D02*
X007600Y008946D01*
Y009200D02*
Y009285D01*
X008597Y009427D02*
X008745D01*
X008840Y010355D02*
X008965D01*
X008805Y010357D02*
X008827D01*
X008776Y008765D02*
X008790D01*
X008736Y008819D02*
X008790Y008765D01*
X008745Y008734D02*
X008776Y008765D01*
X008650Y008819D02*
X008736D01*
X008799Y009681D02*
X008985Y009495D01*
X008597Y009681D02*
X008799D01*
X008752Y009808D02*
X008985Y009575D01*
X008597Y009808D02*
X008752D01*
X008703Y009935D02*
X008983Y009655D01*
X008597Y009935D02*
X008703D01*
X008775Y009945D02*
X008985Y009735D01*
X008775Y009945D02*
Y010003D01*
X008597Y010062D02*
X008716D01*
X008775Y010003D01*
X008727Y010205D02*
X008805D01*
X008711Y010189D02*
X008727Y010205D01*
X008597Y010189D02*
X008711D01*
X008750Y010357D02*
X008805D01*
X008708Y010315D02*
X008750Y010357D01*
X008596Y010315D02*
X008708D01*
X007563Y009425D02*
X007573Y009415D01*
X007526Y010189D02*
X007658D01*
X007510Y010205D02*
X007526Y010189D01*
X007530Y010315D02*
X007659D01*
X007488Y010357D02*
X007530Y010315D01*
X007443Y008775D02*
X007493Y008725D01*
X007363Y010355D02*
X007425D01*
X007303Y009815D02*
X007393D01*
X007405Y008775D02*
X007443D01*
X006963Y009848D02*
X006996Y009815D01*
X007043D01*
X007325Y008905D02*
X007363Y008943D01*
X007222Y008915D02*
X007265D01*
X007285Y008905D02*
X007325D01*
X006885Y008900D02*
X006890Y008895D01*
X006885Y008900D02*
Y008905D01*
X006890Y008895D02*
X006908D01*
X007142Y008835D02*
X007222Y008915D01*
X006968Y008835D02*
X007142D01*
X006908Y008895D02*
X006968Y008835D01*
X007325Y009115D02*
X007367Y009073D01*
X007265Y009115D02*
X007325D01*
X007215Y009105D02*
X007265D01*
X007175Y009065D02*
X007215Y009105D01*
X007175Y008977D02*
Y009065D01*
X006880Y008975D02*
X006885Y008980D01*
X007112Y008914D02*
X007175Y008977D01*
X006964Y008914D02*
X007112D01*
X006898Y008980D02*
X006964Y008914D01*
X007015Y009010D02*
X007095D01*
D85*
X008803Y011832D02*
D03*
Y010103D02*
D03*
X008797Y008368D02*
D03*
X008805Y006647D02*
D03*
X007425Y006645D02*
D03*
Y011835D02*
D03*
X007430Y010107D02*
D03*
X007435Y008378D02*
D03*
X012205Y012810D02*
D03*
X012103D02*
D03*
X012003D02*
D03*
X012307D02*
D03*
X004647Y012815D02*
D03*
X004545D02*
D03*
X004445D02*
D03*
X004750D02*
D03*
X012200Y003670D02*
D03*
X012097D02*
D03*
X011997D02*
D03*
X012302D02*
D03*
X004872D02*
D03*
X004567D02*
D03*
X004667D02*
D03*
X004770D02*
D03*
X009025Y010600D02*
D03*
X008972Y010657D02*
D03*
X008965Y008932D02*
D03*
X009012Y008868D02*
D03*
X008993Y007293D02*
D03*
X009007Y007135D02*
D03*
X008970Y007203D02*
D03*
X008983Y005395D02*
D03*
X008993Y005472D02*
D03*
X008993Y005675D02*
D03*
X010455Y007165D02*
D03*
X009840Y007285D02*
D03*
X010582Y004445D02*
D03*
X012915Y011654D02*
D03*
Y011794D02*
D03*
Y011933D02*
D03*
X012224Y012625D02*
D03*
X012084D02*
D03*
X012915Y004826D02*
D03*
Y004686D02*
D03*
Y004547D02*
D03*
X012209Y003947D02*
D03*
X012069D02*
D03*
X011930D02*
D03*
X003627Y011672D02*
D03*
Y011475D02*
D03*
Y011279D02*
D03*
Y011082D02*
D03*
X004469Y012318D02*
D03*
X004272D02*
D03*
Y004289D02*
D03*
X004469D02*
D03*
X004666D02*
D03*
X004862D02*
D03*
X003627Y005525D02*
D03*
Y005328D02*
D03*
Y005132D02*
D03*
Y004935D02*
D03*
X012735Y007059D02*
D03*
X012128Y011605D02*
D03*
X011355Y008416D02*
D03*
X010595Y007285D02*
D03*
X009535D02*
D03*
X006885Y008285D02*
D03*
X009515Y004875D02*
D03*
X009655D02*
D03*
X009585D02*
D03*
X009655Y004255D02*
D03*
X009585D02*
D03*
X009515D02*
D03*
X009445D02*
D03*
Y004875D02*
D03*
X010685Y005265D02*
D03*
X009385Y005269D02*
D03*
X009485D02*
D03*
X010135Y005269D02*
D03*
X010035Y005265D02*
D03*
X009935D02*
D03*
X009575Y005269D02*
D03*
X010795Y005265D02*
D03*
X009720Y007285D02*
D03*
X009410D02*
D03*
X010622Y005735D02*
D03*
X009440Y005725D02*
D03*
X009920Y005740D02*
D03*
X010190Y005725D02*
D03*
X010720Y007285D02*
D03*
X010495D02*
D03*
X010368D02*
D03*
X011985Y006415D02*
D03*
Y006550D02*
D03*
Y006675D02*
D03*
Y006800D02*
D03*
X012735Y006325D02*
D03*
Y006125D02*
D03*
X011455Y006325D02*
D03*
Y006125D02*
D03*
X011365Y006675D02*
D03*
X011455Y006929D02*
D03*
Y007053D02*
D03*
Y006675D02*
D03*
Y006548D02*
D03*
X012735Y006805D02*
D03*
Y006929D02*
D03*
X011985Y007055D02*
D03*
Y006929D02*
D03*
X012255Y005666D02*
D03*
X012345D02*
D03*
X012175D02*
D03*
X011325Y005665D02*
D03*
X011515D02*
D03*
X011997Y005385D02*
D03*
X011705Y005665D02*
D03*
X011905D02*
D03*
X012015D02*
D03*
X012345Y008416D02*
D03*
X012260Y008415D02*
D03*
X012175Y008416D02*
D03*
X012015Y008415D02*
D03*
X011905D02*
D03*
X011997Y008135D02*
D03*
X011705Y008415D02*
D03*
X011515D02*
D03*
X004985Y011255D02*
D03*
X004935Y007184D02*
D03*
X006658Y012461D02*
D03*
Y012381D02*
D03*
Y012301D02*
D03*
X006403Y011786D02*
D03*
X006393Y011866D02*
D03*
X006658Y012131D02*
D03*
Y012221D02*
D03*
Y009461D02*
D03*
Y009381D02*
D03*
Y009301D02*
D03*
X006403Y008786D02*
D03*
X006393Y008866D02*
D03*
X006658Y009131D02*
D03*
Y009221D02*
D03*
Y010961D02*
D03*
Y010881D02*
D03*
Y010801D02*
D03*
X006403Y010286D02*
D03*
X006393Y010366D02*
D03*
X006658Y010631D02*
D03*
Y010721D02*
D03*
Y007961D02*
D03*
Y007881D02*
D03*
Y007801D02*
D03*
X006403Y007286D02*
D03*
X006393Y007366D02*
D03*
X006658Y007631D02*
D03*
Y007721D02*
D03*
X008745Y005274D02*
D03*
X007145Y005285D02*
D03*
X007493Y005265D02*
D03*
X006658Y006221D02*
D03*
Y006301D02*
D03*
Y006381D02*
D03*
Y006461D02*
D03*
Y006131D02*
D03*
X006393Y005866D02*
D03*
X006403Y005786D02*
D03*
X008985Y005915D02*
D03*
X007143Y005735D02*
D03*
X006885Y005865D02*
D03*
Y006535D02*
D03*
X006985Y006875D02*
D03*
X008993Y005550D02*
D03*
X008650Y005274D02*
D03*
X007595Y005265D02*
D03*
X008650Y005825D02*
D03*
X007600D02*
D03*
X006885Y005957D02*
D03*
Y006037D02*
D03*
Y006115D02*
D03*
Y006195D02*
D03*
X008993Y006416D02*
D03*
Y006497D02*
D03*
Y006577D02*
D03*
Y006657D02*
D03*
X008745Y005967D02*
D03*
X008825Y005915D02*
D03*
X008755Y006094D02*
D03*
X008993Y006035D02*
D03*
Y006115D02*
D03*
Y006195D02*
D03*
Y006275D02*
D03*
X007523Y005967D02*
D03*
X007835Y006219D02*
D03*
X007355Y006285D02*
D03*
X006885Y005625D02*
D03*
Y005705D02*
D03*
X006885Y005785D02*
D03*
X007525Y006047D02*
D03*
X007443Y005895D02*
D03*
X007363Y006895D02*
D03*
X007393Y006355D02*
D03*
X006966Y006795D02*
D03*
X007325Y006585D02*
D03*
X007333Y006725D02*
D03*
X006983Y006625D02*
D03*
X006953Y006385D02*
D03*
X007395Y006465D02*
D03*
X006930Y006288D02*
D03*
X006885Y005355D02*
D03*
Y005275D02*
D03*
X006885Y005445D02*
D03*
X006885Y005525D02*
D03*
X007095Y005550D02*
D03*
X008985Y011105D02*
D03*
X007143Y010925D02*
D03*
X007145Y010475D02*
D03*
X006885Y011055D02*
D03*
Y011725D02*
D03*
X006985Y012065D02*
D03*
X008993Y010740D02*
D03*
X008650Y010464D02*
D03*
X007595Y010455D02*
D03*
X008993Y010865D02*
D03*
X008650Y011015D02*
D03*
X007600D02*
D03*
X006885Y011147D02*
D03*
Y011227D02*
D03*
Y011305D02*
D03*
Y011385D02*
D03*
X008993Y011606D02*
D03*
Y011687D02*
D03*
Y011767D02*
D03*
Y011847D02*
D03*
X008745Y011157D02*
D03*
X008825Y011105D02*
D03*
X008755Y011284D02*
D03*
X008745Y010464D02*
D03*
X008993Y011225D02*
D03*
Y011305D02*
D03*
Y011385D02*
D03*
Y011465D02*
D03*
X007523Y011157D02*
D03*
X007835Y011410D02*
D03*
X007355Y011475D02*
D03*
X006885Y010815D02*
D03*
Y010895D02*
D03*
X006885Y010975D02*
D03*
X007525Y011237D02*
D03*
X007493Y010455D02*
D03*
X007443Y011085D02*
D03*
X007363Y012085D02*
D03*
X007393Y011545D02*
D03*
X006966Y011985D02*
D03*
X007325Y011775D02*
D03*
X007333Y011915D02*
D03*
X006983Y011815D02*
D03*
X006953Y011575D02*
D03*
X007395Y011655D02*
D03*
X006930Y011478D02*
D03*
X006885Y010545D02*
D03*
Y010465D02*
D03*
X006885Y010635D02*
D03*
X006885Y010715D02*
D03*
X007095Y010740D02*
D03*
X008985Y007645D02*
D03*
X007143Y007465D02*
D03*
X007145Y007015D02*
D03*
X006885Y007595D02*
D03*
X006985Y008605D02*
D03*
X008650Y007004D02*
D03*
X007595Y006995D02*
D03*
X008993Y007405D02*
D03*
X008650Y007555D02*
D03*
X007600D02*
D03*
X006885Y007687D02*
D03*
Y007767D02*
D03*
Y007845D02*
D03*
Y007925D02*
D03*
X008993Y008146D02*
D03*
Y008227D02*
D03*
Y008307D02*
D03*
Y008387D02*
D03*
X008745Y007697D02*
D03*
X008825Y007645D02*
D03*
X008755Y007824D02*
D03*
X008745Y007004D02*
D03*
X008993Y007765D02*
D03*
Y007845D02*
D03*
Y007925D02*
D03*
Y008005D02*
D03*
X007523Y007697D02*
D03*
X007835Y007950D02*
D03*
X007355Y008015D02*
D03*
X006885Y007355D02*
D03*
Y007435D02*
D03*
X006885Y007515D02*
D03*
X007525Y007777D02*
D03*
X007493Y006995D02*
D03*
X007443Y007625D02*
D03*
X007363Y008625D02*
D03*
X007393Y008085D02*
D03*
X006966Y008525D02*
D03*
X007325Y008315D02*
D03*
X007333Y008455D02*
D03*
X006983Y008355D02*
D03*
X006953Y008115D02*
D03*
X007395Y008195D02*
D03*
X006930Y008018D02*
D03*
X006885Y007085D02*
D03*
Y007005D02*
D03*
X006885Y007175D02*
D03*
X006885Y007255D02*
D03*
X007095Y007280D02*
D03*
X006966Y010255D02*
D03*
X006985Y010335D02*
D03*
X008985Y009375D02*
D03*
X007143Y009195D02*
D03*
X007145Y008745D02*
D03*
X006885Y009325D02*
D03*
Y009995D02*
D03*
X008993Y009010D02*
D03*
X008650Y008734D02*
D03*
X007595Y008725D02*
D03*
X008993Y009135D02*
D03*
X008650Y009285D02*
D03*
X007600D02*
D03*
X006885Y009417D02*
D03*
Y009497D02*
D03*
Y009575D02*
D03*
Y009655D02*
D03*
X008993Y009876D02*
D03*
Y009957D02*
D03*
Y010037D02*
D03*
Y010117D02*
D03*
X008745Y009427D02*
D03*
X008825Y009375D02*
D03*
X008755Y009554D02*
D03*
X008745Y008734D02*
D03*
X008993Y009495D02*
D03*
Y009575D02*
D03*
Y009655D02*
D03*
Y009735D02*
D03*
X007523Y009427D02*
D03*
X007835Y009679D02*
D03*
X007355Y009745D02*
D03*
X006885Y009085D02*
D03*
Y009165D02*
D03*
X006885Y009245D02*
D03*
X007525Y009507D02*
D03*
X007493Y008725D02*
D03*
X007363Y010355D02*
D03*
X007443Y009355D02*
D03*
X007393Y009815D02*
D03*
X007325Y010045D02*
D03*
X007333Y010185D02*
D03*
X006983Y010085D02*
D03*
X006953Y009845D02*
D03*
X007395Y009925D02*
D03*
X006930Y009748D02*
D03*
X006885Y008815D02*
D03*
Y008735D02*
D03*
X006885Y008905D02*
D03*
X006885Y008985D02*
D03*
X007095Y009010D02*
D03*
D86*
X011997Y011315D02*
D03*
X012080Y004583D02*
D03*
X006434Y004162D02*
D03*
X011345Y004235D02*
D03*
X010818Y003843D02*
D03*
D91*
X011512Y007846D02*
D03*
X012012Y007845D02*
D03*
X011512Y005096D02*
D03*
X012012Y005095D02*
D03*
X006153Y007428D02*
D03*
Y006808D02*
D03*
Y011308D02*
D03*
Y011928D02*
D03*
Y008928D02*
D03*
Y008308D02*
D03*
Y005928D02*
D03*
Y005308D02*
D03*
Y010428D02*
D03*
Y009808D02*
D03*
X009435Y004665D02*
D03*
Y004465D02*
D03*
X009235D02*
D03*
X009035D02*
D03*
X008835D02*
D03*
X008635D02*
D03*
X008435D02*
D03*
X008235D02*
D03*
X008035D02*
D03*
X007835D02*
D03*
X007635D02*
D03*
X007435D02*
D03*
X007235D02*
D03*
X007035D02*
D03*
X006835D02*
D03*
X006635D02*
D03*
X006435D02*
D03*
X006235D02*
D03*
X006035D02*
D03*
X005835D02*
D03*
X009235Y004665D02*
D03*
X009035D02*
D03*
X008835D02*
D03*
X008635D02*
D03*
X008435D02*
D03*
X008235D02*
D03*
X008035D02*
D03*
X007835D02*
D03*
X007635D02*
D03*
X007435D02*
D03*
X007235D02*
D03*
X007035D02*
D03*
X006835D02*
D03*
X006635D02*
D03*
X006435D02*
D03*
X006235D02*
D03*
X006035D02*
D03*
X005835D02*
D03*
X005635D02*
D03*
X004455Y012535D02*
D03*
D92*
X011847Y012515D02*
D03*
X011303D02*
D03*
X004466Y005134D02*
D03*
X004720Y005388D02*
D03*
X004466D02*
D03*
X004720Y005642D02*
D03*
X004466D02*
D03*
X004720Y005896D02*
D03*
X004466D02*
D03*
X004720Y006150D02*
D03*
X004466D02*
D03*
X004720Y006404D02*
D03*
X004466D02*
D03*
X004720Y006658D02*
D03*
X004466D02*
D03*
X004720Y006912D02*
D03*
X004466D02*
D03*
X004720Y007166D02*
D03*
X004466D02*
D03*
X004720Y007420D02*
D03*
X004466D02*
D03*
X004720Y007674D02*
D03*
X004466D02*
D03*
X004720Y007928D02*
D03*
X004466D02*
D03*
X004720Y008182D02*
D03*
X004466D02*
D03*
X004720Y008436D02*
D03*
X004466D02*
D03*
X004720Y008690D02*
D03*
X004466D02*
D03*
X004720Y008944D02*
D03*
X004466D02*
D03*
X004720Y009198D02*
D03*
X004466D02*
D03*
X004720Y009452D02*
D03*
X004466D02*
D03*
X004720Y009706D02*
D03*
X004466D02*
D03*
X004720Y009960D02*
D03*
X004466D02*
D03*
X004720Y010214D02*
D03*
X004466D02*
D03*
X004720Y010468D02*
D03*
X004466D02*
D03*
X004720Y010722D02*
D03*
X004466D02*
D03*
X004720Y010976D02*
D03*
X004466D02*
D03*
X004720Y011230D02*
D03*
X004466D02*
D03*
X004720Y011484D02*
D03*
X004466D02*
D03*
X003958Y011485D02*
D03*
X004212D02*
D03*
X003958Y011231D02*
D03*
X004212D02*
D03*
X003958Y010977D02*
D03*
X004212D02*
D03*
X003958Y010723D02*
D03*
X004212D02*
D03*
X003958Y010469D02*
D03*
X004212D02*
D03*
X003958Y010215D02*
D03*
X004212D02*
D03*
X003958Y009961D02*
D03*
X004212D02*
D03*
X003958Y009707D02*
D03*
X004212D02*
D03*
X003958Y009453D02*
D03*
X004212D02*
D03*
X003958Y009199D02*
D03*
X004212D02*
D03*
X003958Y008945D02*
D03*
X004212D02*
D03*
X003958Y008691D02*
D03*
X004212D02*
D03*
X003958Y008437D02*
D03*
X004212D02*
D03*
X003958Y008183D02*
D03*
X004212D02*
D03*
X003958Y007929D02*
D03*
X004212D02*
D03*
X003958Y007675D02*
D03*
X004212D02*
D03*
X003958Y007421D02*
D03*
X004212D02*
D03*
X003958Y007167D02*
D03*
X004212D02*
D03*
X003958Y006913D02*
D03*
X004212D02*
D03*
X003958Y006659D02*
D03*
X004212D02*
D03*
X003958Y006405D02*
D03*
X004212D02*
D03*
X003958Y006151D02*
D03*
X004212D02*
D03*
X003958Y005897D02*
D03*
X004212D02*
D03*
X003958Y005643D02*
D03*
X004212D02*
D03*
X003958Y005389D02*
D03*
X004212D02*
D03*
X003958Y005135D02*
D03*
X009829Y012465D02*
D03*
X010083D02*
D03*
X010337D02*
D03*
X010591D02*
D03*
X010845D02*
D03*
X012560Y009220D02*
D03*
Y009770D02*
D03*
Y010317D02*
D03*
Y010861D02*
D03*
D93*
X010785Y007808D02*
D03*
X006771Y005065D02*
D03*
X012405Y008749D02*
D03*
X011498Y007275D02*
D03*
D95*
X011575Y012538D02*
D03*
X011872D02*
D03*
X011278D02*
D03*
D96*
X011705Y012225D02*
D03*
X011640D02*
D03*
X011575D02*
D03*
X011510D02*
D03*
X011445D02*
D03*
D97*
X012322Y011796D02*
D03*
X012181Y011655D02*
D03*
D98*
X010635Y012028D02*
D03*
Y011825D02*
D03*
X010235D02*
D03*
Y012028D02*
D03*
X009835D02*
D03*
Y011825D02*
D03*
D99*
X011025Y005580D02*
D03*
X009780Y005575D02*
D03*
X010460Y005580D02*
D03*
D100*
X010835Y005580D02*
D03*
X009590Y005575D02*
D03*
X010270Y005580D02*
D03*
D101*
X010930Y005330D02*
D03*
X009685Y005325D02*
D03*
X010365Y005330D02*
D03*
D102*
X010970Y006115D02*
D03*
D103*
Y006335D02*
D03*
D104*
X010905Y006545D02*
D03*
D105*
X011035D02*
D03*
X010970Y006735D02*
D03*
D106*
X010940Y007070D02*
D03*
Y006918D02*
D03*
X010775Y007070D02*
D03*
Y006918D02*
D03*
X006238Y007933D02*
D03*
Y007781D02*
D03*
X006050Y007933D02*
D03*
Y007781D02*
D03*
X005862Y007933D02*
D03*
Y007781D02*
D03*
X005297Y007933D02*
D03*
Y007781D02*
D03*
X005108Y007933D02*
D03*
Y007781D02*
D03*
X005487D02*
D03*
Y007933D02*
D03*
X005675Y007781D02*
D03*
Y007933D02*
D03*
X005108Y012281D02*
D03*
Y012433D02*
D03*
X005297D02*
D03*
Y012281D02*
D03*
X005108Y009433D02*
D03*
Y009281D02*
D03*
X005297Y009433D02*
D03*
Y009281D02*
D03*
X005108Y010933D02*
D03*
Y010781D02*
D03*
X005297Y010933D02*
D03*
Y010781D02*
D03*
Y006433D02*
D03*
Y006281D02*
D03*
X005108Y006433D02*
D03*
Y006281D02*
D03*
X007405Y010815D02*
D03*
Y010663D02*
D03*
X007405Y009085D02*
D03*
Y008933D02*
D03*
Y007355D02*
D03*
Y007203D02*
D03*
X007453Y006895D02*
D03*
Y006743D02*
D03*
X007405Y005473D02*
D03*
Y005625D02*
D03*
X011365Y011987D02*
D03*
Y011835D02*
D03*
X011795Y011987D02*
D03*
Y011835D02*
D03*
X011955D02*
D03*
Y011987D02*
D03*
X011205Y011835D02*
D03*
Y011987D02*
D03*
X011515Y008327D02*
D03*
Y008175D02*
D03*
X011325Y008327D02*
D03*
Y008175D02*
D03*
X011705D02*
D03*
Y008327D02*
D03*
Y005425D02*
D03*
Y005577D02*
D03*
X011515D02*
D03*
Y005425D02*
D03*
X011325Y005577D02*
D03*
Y005425D02*
D03*
X006238Y009433D02*
D03*
Y009281D02*
D03*
X005862Y009433D02*
D03*
Y009281D02*
D03*
Y012281D02*
D03*
Y012433D02*
D03*
X006238Y012281D02*
D03*
Y012433D02*
D03*
Y006281D02*
D03*
Y006433D02*
D03*
X005675D02*
D03*
Y006281D02*
D03*
X006050D02*
D03*
Y006433D02*
D03*
X005862Y006281D02*
D03*
Y006433D02*
D03*
X005487D02*
D03*
Y006281D02*
D03*
X006238Y010933D02*
D03*
Y010781D02*
D03*
X006050Y010933D02*
D03*
Y010781D02*
D03*
X005862Y010933D02*
D03*
Y010781D02*
D03*
X005487D02*
D03*
Y010933D02*
D03*
X005675Y010781D02*
D03*
Y010933D02*
D03*
X005487Y009281D02*
D03*
Y009433D02*
D03*
X005675Y009281D02*
D03*
Y009433D02*
D03*
X005487Y012281D02*
D03*
Y012433D02*
D03*
X005675Y012281D02*
D03*
Y012433D02*
D03*
X006050Y009433D02*
D03*
Y009281D02*
D03*
Y012433D02*
D03*
Y012281D02*
D03*
X008863Y010815D02*
D03*
Y010663D02*
D03*
X007453Y012085D02*
D03*
Y011933D02*
D03*
X008805Y012087D02*
D03*
Y011935D02*
D03*
X008863Y009085D02*
D03*
Y008933D02*
D03*
X007453Y010355D02*
D03*
Y010203D02*
D03*
X008805Y010357D02*
D03*
Y010205D02*
D03*
X008863Y007355D02*
D03*
Y007203D02*
D03*
X007453Y008625D02*
D03*
Y008473D02*
D03*
X008805Y008627D02*
D03*
Y008475D02*
D03*
Y006745D02*
D03*
Y006897D02*
D03*
X008863Y005473D02*
D03*
Y005625D02*
D03*
D107*
X009603Y005730D02*
D03*
X009755D02*
D03*
X005370Y006564D02*
D03*
X005523D02*
D03*
X005703D02*
D03*
X005855D02*
D03*
X008983Y007035D02*
D03*
X008830D02*
D03*
X008983Y008765D02*
D03*
X008830D02*
D03*
X009980Y007165D02*
D03*
X010132D02*
D03*
X010480Y005735D02*
D03*
X010328D02*
D03*
X005370Y008064D02*
D03*
X005523D02*
D03*
Y011064D02*
D03*
X005370D02*
D03*
X005855Y005064D02*
D03*
X005703D02*
D03*
X005523D02*
D03*
X005370D02*
D03*
Y009564D02*
D03*
X005523D02*
D03*
X005703D02*
D03*
X005855D02*
D03*
X005703Y008064D02*
D03*
X005855D02*
D03*
X005703Y011064D02*
D03*
X005855D02*
D03*
X007405Y010505D02*
D03*
X007253D02*
D03*
X008830Y010495D02*
D03*
X008983D02*
D03*
X007210Y011157D02*
D03*
X007058D02*
D03*
X007210Y011305D02*
D03*
X007058D02*
D03*
X007077Y011743D02*
D03*
X007230D02*
D03*
X007080Y011925D02*
D03*
X007233D02*
D03*
X007235Y012075D02*
D03*
X007083D02*
D03*
X007405Y008775D02*
D03*
X007253D02*
D03*
X007210Y009427D02*
D03*
X007058D02*
D03*
X007210Y009575D02*
D03*
X007058D02*
D03*
X007077Y010013D02*
D03*
X007230D02*
D03*
X007080Y010195D02*
D03*
X007233D02*
D03*
X007235Y010345D02*
D03*
X007083D02*
D03*
X007405Y007045D02*
D03*
X007253D02*
D03*
X007210Y007697D02*
D03*
X007058D02*
D03*
X007210Y007845D02*
D03*
X007058D02*
D03*
X007077Y008283D02*
D03*
X007230D02*
D03*
X007080Y008465D02*
D03*
X007233D02*
D03*
X007235Y008615D02*
D03*
X007083D02*
D03*
X008982Y005297D02*
D03*
X008830D02*
D03*
X007253Y005315D02*
D03*
X007405D02*
D03*
X007058Y005967D02*
D03*
X007210D02*
D03*
X007058Y006115D02*
D03*
X007210D02*
D03*
X007230Y006553D02*
D03*
X007077D02*
D03*
X007233Y006735D02*
D03*
X007080D02*
D03*
X007083Y006885D02*
D03*
X007235D02*
D03*
D108*
X009491Y005940D02*
D03*
X009618D02*
D03*
X009745D02*
D03*
X009872D02*
D03*
X009491Y006990D02*
D03*
X009618D02*
D03*
X009745D02*
D03*
X010495D02*
D03*
X010368D02*
D03*
X010241D02*
D03*
X010622Y005940D02*
D03*
X010495D02*
D03*
X010368D02*
D03*
X010241D02*
D03*
D109*
X009872Y006990D02*
D03*
X010622D02*
D03*
D110*
X011512Y007846D02*
D03*
X012012Y007845D02*
D03*
X011512Y005096D02*
D03*
X012012Y005095D02*
D03*
X006153Y007428D02*
D03*
Y006808D02*
D03*
Y011308D02*
D03*
Y011928D02*
D03*
Y008928D02*
D03*
Y008308D02*
D03*
Y005928D02*
D03*
Y005308D02*
D03*
Y010428D02*
D03*
Y009808D02*
D03*
D111*
X011488Y008009D02*
D03*
X011538D02*
D03*
Y007684D02*
D03*
X011488D02*
D03*
X011988Y008007D02*
D03*
X012038D02*
D03*
Y007682D02*
D03*
X011988D02*
D03*
X011488Y005259D02*
D03*
X011538D02*
D03*
Y004934D02*
D03*
X011488D02*
D03*
X011988Y005258D02*
D03*
X012037D02*
D03*
Y004933D02*
D03*
X011988D02*
D03*
X006178Y007266D02*
D03*
X006128D02*
D03*
Y007591D02*
D03*
X006178D02*
D03*
Y006646D02*
D03*
X006128D02*
D03*
Y006971D02*
D03*
X006178D02*
D03*
Y011146D02*
D03*
X006128D02*
D03*
Y011471D02*
D03*
X006178D02*
D03*
Y012091D02*
D03*
X006128D02*
D03*
Y011766D02*
D03*
X006178D02*
D03*
Y008766D02*
D03*
X006128D02*
D03*
Y009091D02*
D03*
X006178D02*
D03*
Y008471D02*
D03*
X006128D02*
D03*
Y008146D02*
D03*
X006178D02*
D03*
Y005766D02*
D03*
X006128D02*
D03*
Y006091D02*
D03*
X006178D02*
D03*
Y005146D02*
D03*
X006128D02*
D03*
Y005471D02*
D03*
X006178D02*
D03*
Y010266D02*
D03*
X006128D02*
D03*
Y010591D02*
D03*
X006178D02*
D03*
Y009971D02*
D03*
X006128D02*
D03*
Y009646D02*
D03*
X006178D02*
D03*
D112*
X011680Y007796D02*
D03*
Y007746D02*
D03*
X011680Y007946D02*
D03*
X011680Y007896D02*
D03*
Y007846D02*
D03*
X011345Y007746D02*
D03*
Y007796D02*
D03*
Y007846D02*
D03*
Y007896D02*
D03*
Y007946D02*
D03*
X012180Y007795D02*
D03*
Y007745D02*
D03*
X012180Y007945D02*
D03*
X012180Y007895D02*
D03*
Y007845D02*
D03*
X011845Y007745D02*
D03*
Y007795D02*
D03*
Y007845D02*
D03*
Y007895D02*
D03*
Y007945D02*
D03*
X011680Y005046D02*
D03*
Y004996D02*
D03*
X011680Y005196D02*
D03*
X011680Y005146D02*
D03*
Y005096D02*
D03*
X011345Y004996D02*
D03*
Y005046D02*
D03*
Y005096D02*
D03*
Y005146D02*
D03*
Y005196D02*
D03*
X012180Y005045D02*
D03*
Y004995D02*
D03*
X012180Y005195D02*
D03*
X012180Y005145D02*
D03*
Y005095D02*
D03*
X011845Y004995D02*
D03*
Y005045D02*
D03*
Y005095D02*
D03*
Y005145D02*
D03*
Y005195D02*
D03*
X005986Y007478D02*
D03*
Y007528D02*
D03*
X005986Y007328D02*
D03*
X005986Y007378D02*
D03*
Y007428D02*
D03*
X006321Y007528D02*
D03*
Y007478D02*
D03*
Y007428D02*
D03*
Y007378D02*
D03*
Y007328D02*
D03*
X005986Y006858D02*
D03*
Y006908D02*
D03*
X005986Y006708D02*
D03*
X005986Y006758D02*
D03*
Y006808D02*
D03*
X006321Y006908D02*
D03*
Y006858D02*
D03*
Y006808D02*
D03*
Y006758D02*
D03*
Y006708D02*
D03*
X005986Y011358D02*
D03*
Y011408D02*
D03*
X005986Y011208D02*
D03*
X005986Y011258D02*
D03*
Y011308D02*
D03*
X006321Y011408D02*
D03*
Y011358D02*
D03*
Y011308D02*
D03*
Y011258D02*
D03*
Y011208D02*
D03*
Y011828D02*
D03*
Y011878D02*
D03*
Y011928D02*
D03*
Y011978D02*
D03*
Y012028D02*
D03*
X005986Y011928D02*
D03*
Y011878D02*
D03*
X005986Y011828D02*
D03*
X005986Y012028D02*
D03*
Y011978D02*
D03*
Y008978D02*
D03*
Y009028D02*
D03*
X005986Y008828D02*
D03*
X005986Y008878D02*
D03*
Y008928D02*
D03*
X006321Y009028D02*
D03*
Y008978D02*
D03*
Y008928D02*
D03*
Y008878D02*
D03*
Y008828D02*
D03*
Y008208D02*
D03*
Y008258D02*
D03*
Y008308D02*
D03*
Y008358D02*
D03*
Y008408D02*
D03*
X005986Y008308D02*
D03*
Y008258D02*
D03*
X005986Y008208D02*
D03*
X005986Y008408D02*
D03*
Y008358D02*
D03*
Y005978D02*
D03*
Y006028D02*
D03*
X005986Y005828D02*
D03*
X005986Y005878D02*
D03*
Y005928D02*
D03*
X006321Y006028D02*
D03*
Y005978D02*
D03*
Y005928D02*
D03*
Y005878D02*
D03*
Y005828D02*
D03*
X005986Y005358D02*
D03*
Y005408D02*
D03*
X005986Y005208D02*
D03*
X005986Y005258D02*
D03*
Y005308D02*
D03*
X006321Y005408D02*
D03*
Y005358D02*
D03*
Y005308D02*
D03*
Y005258D02*
D03*
Y005208D02*
D03*
X005986Y010478D02*
D03*
Y010528D02*
D03*
X005986Y010328D02*
D03*
X005986Y010378D02*
D03*
Y010428D02*
D03*
X006321Y010528D02*
D03*
Y010478D02*
D03*
Y010428D02*
D03*
Y010378D02*
D03*
Y010328D02*
D03*
Y009708D02*
D03*
Y009758D02*
D03*
Y009808D02*
D03*
Y009858D02*
D03*
Y009908D02*
D03*
X005986Y009808D02*
D03*
Y009758D02*
D03*
X005986Y009708D02*
D03*
X005986Y009908D02*
D03*
Y009858D02*
D03*
D113*
X005659Y006913D02*
D03*
Y005413D02*
D03*
Y009913D02*
D03*
Y008413D02*
D03*
Y011413D02*
D03*
D114*
X005594Y006913D02*
D03*
X005529D02*
D03*
X005464D02*
D03*
X005659Y006703D02*
D03*
X005594D02*
D03*
X005529D02*
D03*
X005464D02*
D03*
Y005203D02*
D03*
X005529D02*
D03*
X005594D02*
D03*
X005659D02*
D03*
X005464Y005413D02*
D03*
X005529D02*
D03*
X005594D02*
D03*
Y009913D02*
D03*
X005529D02*
D03*
X005464D02*
D03*
X005659Y009703D02*
D03*
X005594D02*
D03*
X005529D02*
D03*
X005464D02*
D03*
X005594Y008413D02*
D03*
X005529D02*
D03*
X005464D02*
D03*
X005659Y008203D02*
D03*
X005594D02*
D03*
X005529D02*
D03*
X005464D02*
D03*
Y011203D02*
D03*
X005529D02*
D03*
X005594D02*
D03*
X005659D02*
D03*
X005464Y011413D02*
D03*
X005529D02*
D03*
X005594D02*
D03*
D115*
X005561Y006808D02*
D03*
Y005308D02*
D03*
Y009808D02*
D03*
Y008308D02*
D03*
Y011308D02*
D03*
D116*
X005158Y006921D02*
D03*
X005158Y006601D02*
D03*
Y008101D02*
D03*
X005158Y008421D02*
D03*
X005158Y011101D02*
D03*
X005158Y011421D02*
D03*
X005158Y005101D02*
D03*
X005158Y005421D02*
D03*
Y009921D02*
D03*
X005158Y009601D02*
D03*
D117*
X005563Y007554D02*
D03*
Y007186D02*
D03*
Y005686D02*
D03*
Y006054D02*
D03*
Y010554D02*
D03*
Y010186D02*
D03*
Y009054D02*
D03*
Y008686D02*
D03*
Y011686D02*
D03*
Y012054D02*
D03*
D118*
X005323Y007583D02*
D03*
Y006083D02*
D03*
Y010583D02*
D03*
Y009083D02*
D03*
Y012083D02*
D03*
D119*
X005273Y007583D02*
D03*
X005223D02*
D03*
X005173D02*
D03*
X005123D02*
D03*
X005323Y007143D02*
D03*
X005273D02*
D03*
X005223D02*
D03*
X005173D02*
D03*
X005123D02*
D03*
X005273Y006083D02*
D03*
X005223D02*
D03*
X005173D02*
D03*
X005123D02*
D03*
X005323Y005643D02*
D03*
X005273D02*
D03*
X005223D02*
D03*
X005173D02*
D03*
X005123D02*
D03*
X005273Y010583D02*
D03*
X005223D02*
D03*
X005173D02*
D03*
X005123D02*
D03*
X005323Y010143D02*
D03*
X005273D02*
D03*
X005223D02*
D03*
X005173D02*
D03*
X005123D02*
D03*
X005273Y009083D02*
D03*
X005223D02*
D03*
X005173D02*
D03*
X005123D02*
D03*
X005323Y008643D02*
D03*
X005273D02*
D03*
X005223D02*
D03*
X005173D02*
D03*
X005123D02*
D03*
Y011643D02*
D03*
X005173D02*
D03*
X005223D02*
D03*
X005273D02*
D03*
X005323D02*
D03*
X005123Y012083D02*
D03*
X005173D02*
D03*
X005223D02*
D03*
X005273D02*
D03*
D120*
X009035Y004225D02*
D03*
X009355Y004225D02*
D03*
X009035Y004905D02*
D03*
X009355Y004905D02*
D03*
X007315Y012285D02*
D03*
X006995Y012285D02*
D03*
X012685Y007725D02*
D03*
X012365Y007725D02*
D03*
X012685Y004975D02*
D03*
X012365Y004975D02*
D03*
D121*
X007265Y010645D02*
D03*
X007265Y008915D02*
D03*
Y007185D02*
D03*
Y005455D02*
D03*
D122*
Y010835D02*
D03*
X007265Y009105D02*
D03*
Y007375D02*
D03*
Y005645D02*
D03*
D123*
X007015Y010740D02*
D03*
X007015Y009010D02*
D03*
Y007280D02*
D03*
Y005550D02*
D03*
D124*
X010460Y007748D02*
D03*
Y007875D02*
D03*
Y008002D02*
D03*
X009825Y007621D02*
D03*
Y007748D02*
D03*
Y007875D02*
D03*
Y008002D02*
D03*
D125*
X010460Y007621D02*
D03*
D126*
X011635Y011995D02*
D03*
D127*
X011535D02*
D03*
Y011825D02*
D03*
X011635D02*
D03*
D128*
X012365Y008036D02*
D03*
X012733D02*
D03*
X012365Y005286D02*
D03*
X012733D02*
D03*
D129*
X007600Y010930D02*
D03*
Y010803D02*
D03*
Y010676D02*
D03*
Y010549D02*
D03*
X008650Y010930D02*
D03*
Y010803D02*
D03*
Y010676D02*
D03*
X007600Y009200D02*
D03*
Y009073D02*
D03*
Y008946D02*
D03*
Y008819D02*
D03*
X008650Y009200D02*
D03*
Y009073D02*
D03*
Y008946D02*
D03*
X007600Y007470D02*
D03*
Y007343D02*
D03*
Y007216D02*
D03*
Y007089D02*
D03*
X008650Y007470D02*
D03*
Y007343D02*
D03*
Y007216D02*
D03*
X007600Y005740D02*
D03*
Y005613D02*
D03*
Y005486D02*
D03*
Y005359D02*
D03*
X008650Y005740D02*
D03*
Y005613D02*
D03*
Y005486D02*
D03*
D130*
X008650Y010549D02*
D03*
X008650Y008819D02*
D03*
Y007089D02*
D03*
Y005359D02*
D03*
D131*
X007660Y012044D02*
D03*
Y011918D02*
D03*
Y011790D02*
D03*
Y011664D02*
D03*
Y011536D02*
D03*
Y011410D02*
D03*
Y011282D02*
D03*
Y011156D02*
D03*
X008575Y012044D02*
D03*
Y011918D02*
D03*
Y011790D02*
D03*
Y011664D02*
D03*
Y011536D02*
D03*
Y011410D02*
D03*
Y011282D02*
D03*
Y011156D02*
D03*
X007660Y010314D02*
D03*
Y010188D02*
D03*
Y010061D02*
D03*
Y009933D02*
D03*
Y009807D02*
D03*
Y009679D02*
D03*
Y009553D02*
D03*
Y009425D02*
D03*
X008575Y010314D02*
D03*
Y010188D02*
D03*
Y010061D02*
D03*
Y009933D02*
D03*
Y009807D02*
D03*
Y009679D02*
D03*
Y009553D02*
D03*
Y009425D02*
D03*
X007660Y008585D02*
D03*
Y008457D02*
D03*
Y008331D02*
D03*
Y008204D02*
D03*
Y008076D02*
D03*
Y007950D02*
D03*
Y007822D02*
D03*
Y007696D02*
D03*
X008575Y008585D02*
D03*
Y008457D02*
D03*
Y008331D02*
D03*
Y008204D02*
D03*
Y008076D02*
D03*
Y007950D02*
D03*
Y007822D02*
D03*
Y007696D02*
D03*
X007660Y006854D02*
D03*
Y006728D02*
D03*
Y006600D02*
D03*
Y006474D02*
D03*
Y006347D02*
D03*
Y006219D02*
D03*
Y006092D02*
D03*
Y005965D02*
D03*
X008575Y006854D02*
D03*
Y006728D02*
D03*
Y006600D02*
D03*
Y006474D02*
D03*
Y006347D02*
D03*
Y006219D02*
D03*
Y006092D02*
D03*
Y005965D02*
D03*
D132*
X007043Y011610D02*
D03*
X007043Y009880D02*
D03*
Y008150D02*
D03*
Y006420D02*
D03*
D133*
X007043Y011545D02*
D03*
Y011480D02*
D03*
X007263D02*
D03*
Y011545D02*
D03*
Y011610D02*
D03*
X007043Y009815D02*
D03*
Y009750D02*
D03*
X007263D02*
D03*
Y009815D02*
D03*
Y009880D02*
D03*
X007043Y008085D02*
D03*
Y008020D02*
D03*
X007263D02*
D03*
Y008085D02*
D03*
Y008150D02*
D03*
X007043Y006355D02*
D03*
Y006290D02*
D03*
X007263D02*
D03*
Y006355D02*
D03*
Y006420D02*
D03*
D134*
X009740Y011057D02*
D03*
X009790D02*
D03*
X009840D02*
D03*
X009890D02*
D03*
X009940D02*
D03*
X009990D02*
D03*
X010040D02*
D03*
X010090D02*
D03*
X010140D02*
D03*
X010190D02*
D03*
X010240D02*
D03*
X010290D02*
D03*
X010340D02*
D03*
X010390D02*
D03*
X010440D02*
D03*
X010490D02*
D03*
X010540D02*
D03*
X010590D02*
D03*
X010640D02*
D03*
X010690D02*
D03*
X010740D02*
D03*
X010790D02*
D03*
X010840D02*
D03*
X010890D02*
D03*
X010940D02*
D03*
X010990D02*
D03*
X011040D02*
D03*
X011090D02*
D03*
X011140D02*
D03*
X011190D02*
D03*
X011240D02*
D03*
X011290D02*
D03*
X011340D02*
D03*
X011390D02*
D03*
X011440D02*
D03*
X011490D02*
D03*
Y008932D02*
D03*
X011440D02*
D03*
X011390D02*
D03*
X011340D02*
D03*
X011290D02*
D03*
X011240D02*
D03*
X011190D02*
D03*
X011140D02*
D03*
X011090D02*
D03*
X011040D02*
D03*
X010990D02*
D03*
X010940D02*
D03*
X010890D02*
D03*
X010840D02*
D03*
X010790D02*
D03*
X010740D02*
D03*
X010690D02*
D03*
X010640D02*
D03*
X010590D02*
D03*
X010540D02*
D03*
X010490D02*
D03*
X010440D02*
D03*
X010390D02*
D03*
X010340D02*
D03*
X010290D02*
D03*
X010240D02*
D03*
X010190D02*
D03*
X010140D02*
D03*
X010090D02*
D03*
X010040D02*
D03*
X009990D02*
D03*
X009940D02*
D03*
X009890D02*
D03*
X009840D02*
D03*
X009790D02*
D03*
X009740D02*
D03*
D135*
X011678Y010870D02*
D03*
Y010820D02*
D03*
Y010770D02*
D03*
Y010720D02*
D03*
Y010670D02*
D03*
Y010620D02*
D03*
Y010570D02*
D03*
Y010520D02*
D03*
Y010470D02*
D03*
Y010420D02*
D03*
Y010370D02*
D03*
Y010320D02*
D03*
Y010270D02*
D03*
Y010220D02*
D03*
Y010170D02*
D03*
Y010120D02*
D03*
Y010070D02*
D03*
Y010020D02*
D03*
Y009970D02*
D03*
Y009920D02*
D03*
Y009870D02*
D03*
Y009820D02*
D03*
Y009770D02*
D03*
Y009720D02*
D03*
Y009670D02*
D03*
Y009620D02*
D03*
Y009570D02*
D03*
Y009520D02*
D03*
Y009470D02*
D03*
Y009420D02*
D03*
Y009370D02*
D03*
Y009320D02*
D03*
Y009270D02*
D03*
Y009220D02*
D03*
Y009170D02*
D03*
Y009120D02*
D03*
X009553D02*
D03*
Y009170D02*
D03*
Y009220D02*
D03*
Y009270D02*
D03*
Y009320D02*
D03*
Y009370D02*
D03*
Y009420D02*
D03*
Y009470D02*
D03*
Y009520D02*
D03*
Y009570D02*
D03*
Y009620D02*
D03*
Y009670D02*
D03*
Y009720D02*
D03*
Y009770D02*
D03*
Y009820D02*
D03*
Y009870D02*
D03*
Y009920D02*
D03*
Y009970D02*
D03*
Y010020D02*
D03*
Y010070D02*
D03*
Y010120D02*
D03*
Y010170D02*
D03*
Y010220D02*
D03*
Y010270D02*
D03*
Y010320D02*
D03*
Y010370D02*
D03*
Y010420D02*
D03*
Y010470D02*
D03*
Y010520D02*
D03*
Y010570D02*
D03*
Y010620D02*
D03*
Y010670D02*
D03*
Y010720D02*
D03*
Y010770D02*
D03*
Y010820D02*
D03*
D136*
Y010870D02*
D03*
D137*
X012515Y005920D02*
D03*
Y007305D02*
D03*
D138*
X012225Y006300D02*
D03*
Y006425D02*
D03*
Y006550D02*
D03*
Y006675D02*
D03*
Y007050D02*
D03*
Y006925D02*
D03*
Y006800D02*
D03*
D139*
Y006175D02*
D03*
D140*
X012343Y011395D02*
D03*
D141*
X012788D02*
D03*
D142*
X012255Y009410D02*
D03*
Y009960D02*
D03*
Y010507D02*
D03*
Y011051D02*
D03*
D143*
Y009283D02*
D03*
Y009156D02*
D03*
Y009029D02*
D03*
X012865Y009410D02*
D03*
Y009283D02*
D03*
Y009156D02*
D03*
Y009029D02*
D03*
X012255Y009833D02*
D03*
Y009706D02*
D03*
Y009579D02*
D03*
X012865Y009960D02*
D03*
Y009833D02*
D03*
Y009706D02*
D03*
Y009579D02*
D03*
X012255Y010380D02*
D03*
Y010253D02*
D03*
Y010126D02*
D03*
X012865Y010507D02*
D03*
Y010380D02*
D03*
Y010253D02*
D03*
Y010126D02*
D03*
X012255Y010924D02*
D03*
Y010797D02*
D03*
Y010670D02*
D03*
X012865Y011051D02*
D03*
Y010924D02*
D03*
Y010797D02*
D03*
Y010670D02*
D03*
D144*
X012560Y009220D02*
D03*
Y009770D02*
D03*
Y010317D02*
D03*
Y010861D02*
D03*
D145*
X012172Y005395D02*
X012285Y005282D01*
X012143Y005395D02*
X012172D01*
X012133Y005385D02*
X012143Y005395D01*
X012335Y005282D02*
X012365Y005312D01*
X012285Y005282D02*
X012335D01*
X011997Y005385D02*
X012133D01*
X012208Y008135D02*
X012323Y008020D01*
X011997Y008135D02*
X012208D01*
X012323Y008020D02*
X012365Y008062D01*
Y008036D02*
Y008062D01*
Y005286D02*
Y005312D01*
X012128Y011605D02*
X012178Y011655D01*
X012181D01*
X012429Y011903D02*
Y012138D01*
X012322Y011796D02*
X012429Y011903D01*
X006890Y012325D02*
X006955D01*
X006890Y012248D02*
Y012325D01*
Y012248D02*
X006958D01*
D146*
X012429Y012138D02*
X012531Y012240D01*
X011915Y006415D02*
X011985D01*
X011865Y006365D02*
X011915Y006415D01*
X011865Y005976D02*
Y006365D01*
X009035Y004465D02*
X009035Y004465D01*
X009035Y004905D02*
X009035Y004905D01*
X008835Y004665D02*
X009035D01*
X008835Y004465D02*
X009035D01*
X011865Y005976D02*
X012175Y005666D01*
Y008416D02*
X012345D01*
X011865Y006600D02*
Y007245D01*
X012175Y007555D01*
X012615D01*
X012685Y007625D01*
Y007725D01*
X011865Y006600D02*
X011915Y006550D01*
X011985D01*
X012255Y005666D02*
X012345D01*
X012175D02*
X012255D01*
X012733Y005286D02*
Y005467D01*
X012681Y005519D02*
X012733Y005467D01*
X012725Y005278D02*
X012733Y005286D01*
X012681Y005519D02*
Y005594D01*
X012609Y005666D02*
X012681Y005594D01*
X012345Y005666D02*
X012609D01*
X012725Y005125D02*
Y005278D01*
X012685Y004975D02*
Y005085D01*
X012725Y005125D01*
X012609Y008416D02*
X012681Y008344D01*
Y008269D02*
Y008344D01*
Y008269D02*
X012733Y008217D01*
X012345Y008416D02*
X012609D01*
X012733Y008036D02*
Y008217D01*
X012725Y008028D02*
X012733Y008036D01*
X012725Y007875D02*
Y008028D01*
X012685Y007835D02*
X012725Y007875D01*
X012685Y007725D02*
Y007835D01*
D147*
X010460Y007621D02*
X010605D01*
X010460Y007748D02*
X010605D01*
X010460Y007875D02*
X010605D01*
X010460Y008002D02*
X010605D01*
X009680Y007621D02*
X009825D01*
X009680Y007748D02*
X009825D01*
X009680Y007875D02*
X009825D01*
X009680Y008002D02*
X009825D01*
X012235Y011395D02*
X012235Y011395D01*
X012343D01*
X012788Y011395D02*
X012895D01*
X012788Y011395D02*
X012788Y011395D01*
X011575Y012538D02*
X011872D01*
X011278D02*
X011575D01*
X011764Y005046D02*
Y005096D01*
Y004996D02*
Y005046D01*
Y007796D02*
Y007846D01*
Y007746D02*
Y007796D01*
D148*
X008915Y012365D02*
X008995D01*
X008835D02*
X008915D01*
X008755D02*
X008835D01*
X007549D02*
X008755D01*
X007469Y012285D02*
X007549Y012365D01*
X007325Y012285D02*
X007469D01*
X009585Y004875D02*
X009655D01*
X009515D02*
X009585D01*
X009445D02*
X009515D01*
X009355D02*
X009445D01*
X009585Y004255D02*
X009651D01*
X009515D02*
X009585D01*
X009445D02*
X009515D01*
X009356D02*
X009445D01*
X009035Y004195D02*
Y004465D01*
X009035Y004665D02*
Y004905D01*
D149*
X006321Y011308D02*
X006433D01*
X006321Y009808D02*
X006433D01*
X006321Y008308D02*
X006433D01*
X006321Y005308D02*
X006433D01*
X006321Y006808D02*
X006433D01*
X006321Y005408D02*
X006433D01*
X006321Y012028D02*
X006433D01*
X006321Y011978D02*
X006433D01*
X006321Y011928D02*
X006433Y011928D01*
X005874Y011928D02*
X005986D01*
X005928Y011800D02*
X005956Y011828D01*
X005874Y012028D02*
X005986D01*
X005874Y011978D02*
X005986D01*
X006321Y011408D02*
X006433D01*
X006321Y011358D02*
X006433D01*
X005874Y011308D02*
X005986D01*
X005956Y011208D02*
X005986D01*
X005928Y011166D02*
Y011180D01*
X005956Y011208D01*
X005874Y011408D02*
X005986D01*
X005874Y011358D02*
X005986D01*
X006321Y009028D02*
X006433D01*
X006321Y008978D02*
X006433D01*
X006321Y008928D02*
X006433Y008928D01*
X005874Y008928D02*
X005986D01*
X005928Y008800D02*
X005956Y008828D01*
X005874Y009028D02*
X005986D01*
X005874Y008978D02*
X005986D01*
X006321Y008408D02*
X006433D01*
X006321Y008358D02*
X006433D01*
X005874Y008308D02*
X005986D01*
X005956Y008208D02*
X005986D01*
X005928Y008166D02*
Y008180D01*
X005956Y008208D01*
X005874Y008408D02*
X005986D01*
X005874Y008358D02*
X005986D01*
X006321Y010528D02*
X006433D01*
X006321Y010478D02*
X006433D01*
X006321Y010428D02*
X006433Y010428D01*
X005874Y010428D02*
X005986D01*
X005928Y010300D02*
X005956Y010328D01*
X005874Y010528D02*
X005986D01*
X005874Y010478D02*
X005986D01*
X006321Y009908D02*
X006433D01*
X006321Y009858D02*
X006433D01*
X005874Y009808D02*
X005986D01*
X005956Y009708D02*
X005986D01*
X005928Y009666D02*
Y009680D01*
X005956Y009708D01*
X005874Y009908D02*
X005986D01*
X005874Y009858D02*
X005986D01*
X006321Y007528D02*
X006433D01*
X006321Y007478D02*
X006433D01*
X006321Y007428D02*
X006433Y007428D01*
X005874Y007428D02*
X005986D01*
X005928Y007300D02*
X005956Y007328D01*
X005874Y007528D02*
X005986D01*
X005874Y007478D02*
X005986D01*
X006321Y006908D02*
X006433D01*
X006321Y006858D02*
X006433D01*
X005874Y006808D02*
X005986D01*
X005956Y006708D02*
X005986D01*
X005928Y006666D02*
Y006680D01*
X005956Y006708D01*
X005874Y006908D02*
X005986D01*
X005874Y006858D02*
X005986D01*
X005928Y005800D02*
X005956Y005828D01*
Y005208D02*
X005986D01*
X005928Y005180D02*
X005956Y005208D01*
X005928Y005166D02*
Y005180D01*
X005874Y005408D02*
X005986D01*
X005874Y006028D02*
X005986D01*
X006321Y005358D02*
X006433D01*
X005874Y005308D02*
X005986D01*
X005874Y005358D02*
X005986D01*
X005874Y005978D02*
X005986D01*
X005874Y005928D02*
X005986D01*
X006321Y006028D02*
X006433D01*
X006321Y005928D02*
X006433Y005928D01*
X006321Y005978D02*
X006433D01*
D150*
X011983Y006548D02*
X011985Y006550D01*
X011987D02*
X012225D01*
D151*
X011820Y012222D02*
D03*
X011330Y012220D02*
D03*
D152*
X010825Y011800D02*
D03*
X010425D02*
D03*
X010025D02*
D03*
D153*
X010825Y012054D02*
D03*
X010425D02*
D03*
X010025D02*
D03*
D154*
X011462Y007946D02*
D03*
X011563D02*
D03*
Y007746D02*
D03*
X011462D02*
D03*
X011962Y007945D02*
D03*
X012063D02*
D03*
Y007745D02*
D03*
X011962D02*
D03*
X011462Y005196D02*
D03*
X011563D02*
D03*
Y004996D02*
D03*
X011462D02*
D03*
X011962Y005195D02*
D03*
X012063D02*
D03*
Y004995D02*
D03*
X011962D02*
D03*
X006204Y007328D02*
D03*
X006102D02*
D03*
Y007528D02*
D03*
X006204D02*
D03*
Y006708D02*
D03*
X006102D02*
D03*
Y006908D02*
D03*
X006204D02*
D03*
Y011208D02*
D03*
X006102D02*
D03*
Y011408D02*
D03*
X006204D02*
D03*
Y012028D02*
D03*
X006102D02*
D03*
Y011828D02*
D03*
X006204D02*
D03*
Y008828D02*
D03*
X006102D02*
D03*
Y009028D02*
D03*
X006204D02*
D03*
Y008408D02*
D03*
X006102D02*
D03*
Y008208D02*
D03*
X006204D02*
D03*
Y005828D02*
D03*
X006102D02*
D03*
Y006028D02*
D03*
X006204D02*
D03*
Y005208D02*
D03*
X006102D02*
D03*
Y005408D02*
D03*
X006204D02*
D03*
Y010328D02*
D03*
X006102D02*
D03*
Y010528D02*
D03*
X006204D02*
D03*
Y009908D02*
D03*
X006102D02*
D03*
Y009708D02*
D03*
X006204D02*
D03*
X011728Y004600D02*
D03*
X011443Y004455D02*
D03*
X005479Y006808D02*
D03*
X005644D02*
D03*
Y005308D02*
D03*
X005479D02*
D03*
Y009808D02*
D03*
X005644D02*
D03*
X005479Y008308D02*
D03*
X005644D02*
D03*
Y011308D02*
D03*
X005479D02*
D03*
D155*
X004720Y005134D02*
D03*
X004212Y005135D02*
D03*
D156*
X009575Y012465D02*
D03*
D157*
X012565Y011485D02*
D03*
Y011305D02*
D03*
X011790Y010370D02*
D03*
X006785Y006192D02*
D03*
X010880Y005837D02*
D03*
Y005695D02*
D03*
X011585Y003899D02*
D03*
X011505Y011505D02*
D03*
X012085Y006176D02*
D03*
X012295Y007303D02*
D03*
X012085Y006301D02*
D03*
X012295Y005920D02*
D03*
X010218Y012265D02*
D03*
X005205D02*
D03*
X009375Y012235D02*
D03*
X009435Y012205D02*
D03*
X009315Y012275D02*
D03*
X010295Y011685D02*
D03*
Y011625D02*
D03*
X010385Y007435D02*
D03*
X010140Y007528D02*
D03*
Y008094D02*
D03*
X010605Y008128D02*
D03*
Y007621D02*
D03*
Y007748D02*
D03*
Y007875D02*
D03*
Y008002D02*
D03*
X009680Y007621D02*
D03*
Y007748D02*
D03*
Y007875D02*
D03*
Y008002D02*
D03*
X012235Y011395D02*
D03*
X012765Y011575D02*
D03*
X012895Y011395D02*
D03*
X011875Y011585D02*
D03*
X011935D02*
D03*
X011997D02*
D03*
X012085Y011855D02*
D03*
X011055Y012355D02*
D03*
X011705Y012065D02*
D03*
X011465D02*
D03*
X011635Y012088D02*
D03*
X011555Y012088D02*
D03*
X012043Y011987D02*
D03*
X011115D02*
D03*
X010245Y010930D02*
D03*
X009625Y011115D02*
D03*
X010475Y007435D02*
D03*
X010985D02*
D03*
X010880D02*
D03*
X010735D02*
D03*
X010623D02*
D03*
X011391Y008725D02*
D03*
X009565Y008755D02*
D03*
X009625D02*
D03*
X009465Y010955D02*
D03*
X009415Y010895D02*
D03*
X010140Y008690D02*
D03*
X009865Y008565D02*
D03*
X009805D02*
D03*
X009746D02*
D03*
X009685D02*
D03*
X011375Y009287D02*
D03*
X011895Y010220D02*
D03*
X011790Y010170D02*
D03*
X011895Y010470D02*
D03*
X011825Y010420D02*
D03*
X009385Y009095D02*
D03*
X009345Y009035D02*
D03*
X011815Y009420D02*
D03*
X011845Y009220D02*
D03*
Y009470D02*
D03*
Y009720D02*
D03*
X012865Y008875D02*
D03*
X012305Y008925D02*
D03*
X009565Y008915D02*
D03*
X009525Y008965D02*
D03*
X009345Y008915D02*
D03*
X009385Y008965D02*
D03*
X011945Y010272D02*
D03*
X011965Y010425D02*
D03*
X012965Y009373D02*
D03*
Y009253D02*
D03*
Y009123D02*
D03*
Y008993D02*
D03*
Y009923D02*
D03*
Y009803D02*
D03*
Y009673D02*
D03*
Y009543D02*
D03*
Y010470D02*
D03*
Y010350D02*
D03*
Y010220D02*
D03*
Y010090D02*
D03*
Y011014D02*
D03*
Y010894D02*
D03*
Y010764D02*
D03*
Y010634D02*
D03*
X012155Y010707D02*
D03*
Y010827D02*
D03*
Y010957D02*
D03*
Y011087D02*
D03*
Y010163D02*
D03*
Y010283D02*
D03*
Y010413D02*
D03*
Y010543D02*
D03*
Y009616D02*
D03*
Y009736D02*
D03*
Y009866D02*
D03*
Y009996D02*
D03*
Y009446D02*
D03*
Y009316D02*
D03*
Y009186D02*
D03*
Y009066D02*
D03*
X011007Y005915D02*
D03*
X010055Y010715D02*
D03*
X011255Y010863D02*
D03*
X011500Y010379D02*
D03*
Y010786D02*
D03*
X011175Y009075D02*
D03*
X011764Y008943D02*
D03*
X011490Y008785D02*
D03*
X009407Y010072D02*
D03*
X010225Y009419D02*
D03*
Y009255D02*
D03*
X009375Y010672D02*
D03*
Y010422D02*
D03*
X009407Y010772D02*
D03*
X009442Y010722D02*
D03*
Y010622D02*
D03*
X009407Y010572D02*
D03*
X009442Y010522D02*
D03*
X009407Y010472D02*
D03*
Y010372D02*
D03*
X009442Y010322D02*
D03*
X009407Y010272D02*
D03*
X009442Y010222D02*
D03*
Y010122D02*
D03*
Y010022D02*
D03*
X009407Y009972D02*
D03*
Y009772D02*
D03*
X009442Y009722D02*
D03*
Y009622D02*
D03*
X009407Y009572D02*
D03*
X009442Y009522D02*
D03*
X009407Y009472D02*
D03*
X009375Y010172D02*
D03*
X009348Y009422D02*
D03*
Y009672D02*
D03*
X009375Y009922D02*
D03*
X009442Y009822D02*
D03*
X009407Y009872D02*
D03*
X009442Y009322D02*
D03*
X009407Y009372D02*
D03*
X009406Y009271D02*
D03*
X009740Y011205D02*
D03*
X009790Y011170D02*
D03*
X009840Y011205D02*
D03*
X009890Y011170D02*
D03*
X009990D02*
D03*
X010040Y011205D02*
D03*
X010090Y011170D02*
D03*
X010140Y011205D02*
D03*
X010240D02*
D03*
X010290Y011170D02*
D03*
X010340Y011205D02*
D03*
X010390Y011170D02*
D03*
X010490D02*
D03*
X010540Y011205D02*
D03*
X010590Y011170D02*
D03*
X010640Y011205D02*
D03*
X010740D02*
D03*
X010790Y011170D02*
D03*
X010840Y011205D02*
D03*
X010890Y011170D02*
D03*
X010990D02*
D03*
X011040Y011205D02*
D03*
X011090Y011170D02*
D03*
X011140Y011205D02*
D03*
X011240D02*
D03*
X011290Y011170D02*
D03*
X011340Y011205D02*
D03*
X011390Y011170D02*
D03*
X011490D02*
D03*
X010190Y011275D02*
D03*
X010440D02*
D03*
X010690D02*
D03*
X010940D02*
D03*
X011190D02*
D03*
X011440D02*
D03*
X009939D02*
D03*
X011790Y010870D02*
D03*
X011895Y010721D02*
D03*
Y009970D02*
D03*
X011825Y009120D02*
D03*
X011790Y009170D02*
D03*
Y009270D02*
D03*
X011825Y009320D02*
D03*
X011785Y009370D02*
D03*
X011815Y009520D02*
D03*
X011785Y009570D02*
D03*
X011825Y009620D02*
D03*
X011790Y009670D02*
D03*
Y009770D02*
D03*
X011825Y009820D02*
D03*
X011790Y009870D02*
D03*
X011825Y009920D02*
D03*
Y010020D02*
D03*
X011790Y010070D02*
D03*
X011825Y010120D02*
D03*
X011790Y010270D02*
D03*
X011825Y010320D02*
D03*
Y010520D02*
D03*
X011790Y010570D02*
D03*
X011825Y010620D02*
D03*
X011790Y010670D02*
D03*
Y010770D02*
D03*
X011825Y010820D02*
D03*
X009035Y010314D02*
D03*
X009890Y008715D02*
D03*
X010390D02*
D03*
X010640D02*
D03*
X010890D02*
D03*
X011140Y008725D02*
D03*
X009790Y008785D02*
D03*
X009840Y008820D02*
D03*
X009940D02*
D03*
X009990Y008785D02*
D03*
X010040Y008820D02*
D03*
X010090Y008785D02*
D03*
X010190D02*
D03*
X010240Y008820D02*
D03*
X010290Y008785D02*
D03*
X010340Y008820D02*
D03*
X010440D02*
D03*
X010490Y008785D02*
D03*
X010540Y008820D02*
D03*
X010590Y008785D02*
D03*
X010690D02*
D03*
X010740Y008820D02*
D03*
X010790Y008785D02*
D03*
X010840Y008820D02*
D03*
X010940D02*
D03*
X010990Y008785D02*
D03*
X011040Y008820D02*
D03*
X011090Y008785D02*
D03*
X011190D02*
D03*
X011240Y008820D02*
D03*
X011290Y008785D02*
D03*
X011340Y008820D02*
D03*
X011440D02*
D03*
X009045Y006715D02*
D03*
Y006855D02*
D03*
Y006785D02*
D03*
X008755Y012365D02*
D03*
X009195Y012315D02*
D03*
X009255D02*
D03*
X009135D02*
D03*
X009045Y008585D02*
D03*
Y008515D02*
D03*
Y008445D02*
D03*
X009035Y010175D02*
D03*
Y010245D02*
D03*
X009087Y012248D02*
D03*
X009085Y012105D02*
D03*
X009087Y012175D02*
D03*
X008835Y012365D02*
D03*
X008915D02*
D03*
X008995D02*
D03*
X006660Y007520D02*
D03*
X006890Y012325D02*
D03*
Y012248D02*
D03*
X006341Y006433D02*
D03*
X006328Y006281D02*
D03*
X006433Y005358D02*
D03*
Y005307D02*
D03*
X009491Y006131D02*
D03*
X009872Y006155D02*
D03*
X009745D02*
D03*
X009615D02*
D03*
X011105Y005735D02*
D03*
X010160Y005871D02*
D03*
X010070D02*
D03*
X010622Y007165D02*
D03*
X011090Y006785D02*
D03*
X010753Y005906D02*
D03*
Y005585D02*
D03*
X011050Y007165D02*
D03*
X010880D02*
D03*
X010310D02*
D03*
X009872D02*
D03*
X010010Y007035D02*
D03*
X009410Y007194D02*
D03*
X012475Y007765D02*
D03*
X012468Y004810D02*
D03*
X011555Y004815D02*
D03*
X011905Y004895D02*
D03*
X012805Y004795D02*
D03*
X011575Y005335D02*
D03*
X011417Y005395D02*
D03*
X012805Y005565D02*
D03*
X012565Y004905D02*
D03*
X012555Y005045D02*
D03*
Y005485D02*
D03*
Y005565D02*
D03*
X011815Y005575D02*
D03*
X011255Y005335D02*
D03*
Y005195D02*
D03*
Y005005D02*
D03*
Y004895D02*
D03*
Y004785D02*
D03*
X011660Y005255D02*
D03*
X011764Y005275D02*
D03*
X011765Y005205D02*
D03*
X011765Y005096D02*
D03*
Y005046D02*
D03*
X011764Y004996D02*
D03*
X012175Y005255D02*
D03*
X012255Y005096D02*
D03*
Y005046D02*
D03*
Y004995D02*
D03*
X012555Y007795D02*
D03*
Y008235D02*
D03*
Y008315D02*
D03*
X011815Y008325D02*
D03*
X012565Y007655D02*
D03*
X012805Y008315D02*
D03*
Y007545D02*
D03*
X012255Y007745D02*
D03*
X011765Y007846D02*
D03*
Y007796D02*
D03*
X012255Y007846D02*
D03*
Y007796D02*
D03*
X012175Y008005D02*
D03*
X011905Y007645D02*
D03*
X011764Y008025D02*
D03*
X011765Y007955D02*
D03*
X011660Y008005D02*
D03*
X011575Y008085D02*
D03*
X011555Y007565D02*
D03*
X011764Y007746D02*
D03*
X011417Y008145D02*
D03*
X011255Y007645D02*
D03*
Y007535D02*
D03*
Y007755D02*
D03*
Y008085D02*
D03*
Y007945D02*
D03*
X006785Y007855D02*
D03*
X006790Y009255D02*
D03*
X006789Y010745D02*
D03*
X006791Y012221D02*
D03*
X005288Y012190D02*
D03*
X004905Y010645D02*
D03*
X004895Y011055D02*
D03*
Y011155D02*
D03*
Y011535D02*
D03*
Y011605D02*
D03*
Y011675D02*
D03*
X004905Y010295D02*
D03*
Y010385D02*
D03*
Y010545D02*
D03*
X006586Y009569D02*
D03*
X004896Y009679D02*
D03*
Y009605D02*
D03*
X004895Y009461D02*
D03*
Y009355D02*
D03*
X004896Y009175D02*
D03*
X004895Y009265D02*
D03*
Y008255D02*
D03*
Y008365D02*
D03*
Y007945D02*
D03*
Y008012D02*
D03*
Y007775D02*
D03*
Y007465D02*
D03*
Y007665D02*
D03*
Y007565D02*
D03*
Y006485D02*
D03*
Y006575D02*
D03*
X005185Y004885D02*
D03*
X005065D02*
D03*
X006585Y006555D02*
D03*
X004905Y005483D02*
D03*
Y005555D02*
D03*
Y006145D02*
D03*
X004895Y007035D02*
D03*
Y006939D02*
D03*
Y006853D02*
D03*
Y006745D02*
D03*
X004905Y005035D02*
D03*
Y004935D02*
D03*
Y006035D02*
D03*
Y005853D02*
D03*
Y005755D02*
D03*
Y005245D02*
D03*
Y005345D02*
D03*
X006563Y012461D02*
D03*
X006513D02*
D03*
X006463D02*
D03*
X006528Y011641D02*
D03*
X006488Y011661D02*
D03*
Y011611D02*
D03*
X006568Y011661D02*
D03*
X006413Y012461D02*
D03*
X005373Y011878D02*
D03*
X006568Y011613D02*
D03*
X006153Y012161D02*
D03*
X006153Y011543D02*
D03*
X005728Y012091D02*
D03*
X006618Y011744D02*
D03*
X006153Y011686D02*
D03*
X006341Y012433D02*
D03*
X006148D02*
D03*
X005948D02*
D03*
X006578Y011053D02*
D03*
X006148Y011036D02*
D03*
X005248Y011331D02*
D03*
X005210Y011291D02*
D03*
X005168Y011331D02*
D03*
X005128Y011291D02*
D03*
X005088Y011331D02*
D03*
X005168Y011251D02*
D03*
X005088D02*
D03*
X005370Y011203D02*
D03*
X006328Y012281D02*
D03*
X006433Y012028D02*
D03*
Y011978D02*
D03*
Y011928D02*
D03*
X005874Y011928D02*
D03*
X005908Y011861D02*
D03*
X005928Y011786D02*
D03*
X005874Y012029D02*
D03*
Y011978D02*
D03*
X006383Y011186D02*
D03*
X006408Y011241D02*
D03*
X006148Y012281D02*
D03*
X006433Y011307D02*
D03*
Y011358D02*
D03*
Y011408D02*
D03*
X005874Y011308D02*
D03*
X005908Y011241D02*
D03*
X005928Y011166D02*
D03*
X005874Y011409D02*
D03*
Y011358D02*
D03*
X005948Y012281D02*
D03*
X005688Y011461D02*
D03*
X005848Y011241D02*
D03*
X005529Y011496D02*
D03*
X005373Y011820D02*
D03*
X005088Y011531D02*
D03*
X005168D02*
D03*
X005373Y011936D02*
D03*
X005098Y012201D02*
D03*
Y011892D02*
D03*
X005373Y011993D02*
D03*
X005158Y011963D02*
D03*
X005398Y012433D02*
D03*
X005223Y012189D02*
D03*
X005628Y011101D02*
D03*
X005866Y011166D02*
D03*
X005398Y012281D02*
D03*
X005578Y012433D02*
D03*
X005359Y012190D02*
D03*
X005594Y011151D02*
D03*
X005762Y012281D02*
D03*
X005768Y012433D02*
D03*
X006563Y009461D02*
D03*
X006513D02*
D03*
X006463D02*
D03*
X006528Y008641D02*
D03*
X006488Y008661D02*
D03*
Y008611D02*
D03*
X006568Y008661D02*
D03*
X006413Y009461D02*
D03*
X005373Y008878D02*
D03*
X006568Y008613D02*
D03*
X006153Y009161D02*
D03*
X006153Y008543D02*
D03*
X005728Y009091D02*
D03*
X006618Y008744D02*
D03*
X006153Y008686D02*
D03*
X006341Y009433D02*
D03*
X006148D02*
D03*
X005948D02*
D03*
X006578Y008053D02*
D03*
X006148Y008036D02*
D03*
X005248Y008331D02*
D03*
X005210Y008291D02*
D03*
X005168Y008331D02*
D03*
X005128Y008291D02*
D03*
X005088Y008331D02*
D03*
X005168Y008251D02*
D03*
X005088D02*
D03*
X005370Y008203D02*
D03*
X006328Y009281D02*
D03*
X006433Y009028D02*
D03*
Y008978D02*
D03*
Y008928D02*
D03*
X005874Y008928D02*
D03*
X005908Y008861D02*
D03*
X005928Y008786D02*
D03*
X005874Y009029D02*
D03*
Y008978D02*
D03*
X006383Y008186D02*
D03*
X006408Y008241D02*
D03*
X006148Y009281D02*
D03*
X006433Y008408D02*
D03*
Y008307D02*
D03*
Y008358D02*
D03*
X005874Y008308D02*
D03*
X005908Y008241D02*
D03*
X005928Y008166D02*
D03*
X005874Y008409D02*
D03*
Y008358D02*
D03*
X005948Y009281D02*
D03*
X005688Y008461D02*
D03*
X005848Y008241D02*
D03*
X005529Y008496D02*
D03*
X005373Y008820D02*
D03*
X005088Y008531D02*
D03*
X005168D02*
D03*
X005373Y008936D02*
D03*
X005098Y009201D02*
D03*
Y008892D02*
D03*
X005373Y008993D02*
D03*
X005158Y009201D02*
D03*
Y008963D02*
D03*
X005398Y009433D02*
D03*
X005223Y009189D02*
D03*
X005628Y008101D02*
D03*
X005866Y008166D02*
D03*
X005398Y009281D02*
D03*
X005578Y009433D02*
D03*
X005288Y009190D02*
D03*
X005359Y009190D02*
D03*
X005594Y008151D02*
D03*
X005762Y009281D02*
D03*
X005768Y009433D02*
D03*
X006563Y010961D02*
D03*
X006513D02*
D03*
X006463D02*
D03*
X006528Y010141D02*
D03*
X006488Y010161D02*
D03*
Y010111D02*
D03*
X006568Y010161D02*
D03*
X006413Y010961D02*
D03*
X005373Y010378D02*
D03*
X006568Y010113D02*
D03*
X006153Y010661D02*
D03*
X006153Y010043D02*
D03*
X005728Y010591D02*
D03*
X006618Y010244D02*
D03*
X006153Y010186D02*
D03*
X006341Y010933D02*
D03*
X006148D02*
D03*
X005948D02*
D03*
X006148Y009536D02*
D03*
X005248Y009831D02*
D03*
X005210Y009791D02*
D03*
X005168Y009831D02*
D03*
X005128Y009791D02*
D03*
X005088Y009831D02*
D03*
X005168Y009751D02*
D03*
X005088D02*
D03*
X005370Y009703D02*
D03*
X006328Y010781D02*
D03*
X006433Y010528D02*
D03*
Y010478D02*
D03*
Y010428D02*
D03*
X005874Y010428D02*
D03*
X005908Y010361D02*
D03*
X005928Y010286D02*
D03*
X005874Y010529D02*
D03*
Y010478D02*
D03*
X006383Y009686D02*
D03*
X006408Y009741D02*
D03*
X006148Y010781D02*
D03*
X006433Y009908D02*
D03*
Y009807D02*
D03*
Y009858D02*
D03*
X005874Y009808D02*
D03*
X005908Y009741D02*
D03*
X005928Y009666D02*
D03*
X005874Y009909D02*
D03*
Y009858D02*
D03*
X005948Y010781D02*
D03*
X005688Y009961D02*
D03*
X005848Y009741D02*
D03*
X005529Y009996D02*
D03*
X005373Y010320D02*
D03*
X005088Y010031D02*
D03*
X005168D02*
D03*
X005373Y010436D02*
D03*
X005098Y010701D02*
D03*
Y010392D02*
D03*
X005373Y010493D02*
D03*
X005158Y010701D02*
D03*
Y010463D02*
D03*
X005398Y010933D02*
D03*
X005223Y010689D02*
D03*
X005628Y009601D02*
D03*
X005866Y009666D02*
D03*
X005398Y010781D02*
D03*
X005578Y010933D02*
D03*
X005288Y010690D02*
D03*
X005359Y010690D02*
D03*
X005594Y009651D02*
D03*
X005762Y010781D02*
D03*
X005768Y010933D02*
D03*
X006563Y007961D02*
D03*
X006513D02*
D03*
X006463D02*
D03*
X006528Y007141D02*
D03*
X006488Y007161D02*
D03*
Y007111D02*
D03*
X006568Y007161D02*
D03*
X006413Y007961D02*
D03*
X005373Y007378D02*
D03*
X006568Y007113D02*
D03*
X006153Y007661D02*
D03*
X006153Y007043D02*
D03*
X005728Y007591D02*
D03*
X006618Y007244D02*
D03*
X006153Y007186D02*
D03*
X006341Y007933D02*
D03*
X006148D02*
D03*
X005948D02*
D03*
X006148Y006536D02*
D03*
X005248Y006831D02*
D03*
X005210Y006791D02*
D03*
X005168Y006831D02*
D03*
X005128Y006791D02*
D03*
X005088Y006831D02*
D03*
X005168Y006751D02*
D03*
X005088D02*
D03*
X005370Y006703D02*
D03*
X006328Y007781D02*
D03*
X006433Y007528D02*
D03*
Y007478D02*
D03*
Y007428D02*
D03*
X005874Y007428D02*
D03*
X005908Y007361D02*
D03*
X005928Y007286D02*
D03*
X005874Y007529D02*
D03*
Y007478D02*
D03*
X006383Y006686D02*
D03*
X006408Y006741D02*
D03*
X006148Y007781D02*
D03*
X006433Y006908D02*
D03*
Y006807D02*
D03*
Y006858D02*
D03*
X005874Y006808D02*
D03*
X005908Y006741D02*
D03*
X005928Y006666D02*
D03*
X005874Y006909D02*
D03*
Y006858D02*
D03*
X005948Y007781D02*
D03*
X005688Y006961D02*
D03*
X005848Y006741D02*
D03*
X005529Y006996D02*
D03*
X005373Y007320D02*
D03*
X005088Y007031D02*
D03*
X005168D02*
D03*
X005373Y007436D02*
D03*
X005098Y007701D02*
D03*
Y007392D02*
D03*
X005373Y007493D02*
D03*
X005158Y007701D02*
D03*
Y007463D02*
D03*
X005398Y007933D02*
D03*
X005223Y007689D02*
D03*
X005628Y006601D02*
D03*
X005866Y006666D02*
D03*
X005398Y007781D02*
D03*
X005578Y007933D02*
D03*
X005288Y007690D02*
D03*
X005359Y007690D02*
D03*
X005594Y006651D02*
D03*
X005762Y007781D02*
D03*
X005768Y007933D02*
D03*
X006578Y005053D02*
D03*
X005098Y005892D02*
D03*
X005158Y005963D02*
D03*
X005373Y005993D02*
D03*
Y005878D02*
D03*
Y005820D02*
D03*
Y005936D02*
D03*
X005359Y006190D02*
D03*
X005288Y006190D02*
D03*
X005088Y005251D02*
D03*
X005128Y005291D02*
D03*
X005210D02*
D03*
X005168Y005251D02*
D03*
X005248Y005331D02*
D03*
X005168D02*
D03*
X005088D02*
D03*
X006148Y005036D02*
D03*
X005628Y005101D02*
D03*
X005594Y005151D02*
D03*
X006528Y005641D02*
D03*
X006488Y005611D02*
D03*
Y005661D02*
D03*
X006568D02*
D03*
Y005613D02*
D03*
X006618Y005744D02*
D03*
X006153Y006161D02*
D03*
X005728Y006091D02*
D03*
X005762Y006281D02*
D03*
X005948D02*
D03*
X006148D02*
D03*
X005948Y006433D02*
D03*
X005768D02*
D03*
X005398D02*
D03*
X005578D02*
D03*
X005223Y006189D02*
D03*
X005398Y006281D02*
D03*
X005098Y006201D02*
D03*
X005158D02*
D03*
X005088Y005531D02*
D03*
X005168D02*
D03*
X006148Y006433D02*
D03*
X005688Y005461D02*
D03*
X006383Y005186D02*
D03*
X006408Y005241D02*
D03*
X005928Y005786D02*
D03*
X005908Y005861D02*
D03*
Y005241D02*
D03*
X005848D02*
D03*
X005928Y005166D02*
D03*
X006563Y006461D02*
D03*
X006463D02*
D03*
X006513D02*
D03*
X006413D02*
D03*
X005529Y005496D02*
D03*
X005874Y005308D02*
D03*
Y005409D02*
D03*
Y005358D02*
D03*
Y005978D02*
D03*
Y006029D02*
D03*
Y005928D02*
D03*
X005370Y005203D02*
D03*
X006153Y005686D02*
D03*
X006433Y005978D02*
D03*
Y005928D02*
D03*
Y006028D02*
D03*
X006153Y005543D02*
D03*
X005866Y005166D02*
D03*
D158*
X012660Y009090D02*
D03*
X012460D02*
D03*
Y009350D02*
D03*
X012660D02*
D03*
Y009640D02*
D03*
X012460D02*
D03*
Y009900D02*
D03*
X012660D02*
D03*
Y010187D02*
D03*
X012460D02*
D03*
Y010447D02*
D03*
X012660D02*
D03*
Y010731D02*
D03*
X012460D02*
D03*
Y010991D02*
D03*
X012660D02*
D03*
D159*
X005635Y004465D02*
D03*
D160*
X003958Y004621D02*
D03*
Y011986D02*
D03*
X012531Y012240D02*
D03*
Y004240D02*
D03*
D161*
X010560Y009822D02*
D03*
X010635Y011665D02*
D03*
X009975Y010515D02*
D03*
X004685Y012222D02*
D03*
X004905D02*
D03*
X004585Y012154D02*
D03*
X004785D02*
D03*
X006665Y006705D02*
D03*
X006885Y006715D02*
D03*
X006655Y011245D02*
D03*
X006665Y009765D02*
D03*
X006655Y008125D02*
D03*
X008965Y006895D02*
D03*
X007025Y005285D02*
D03*
X008965Y012085D02*
D03*
X006885Y011905D02*
D03*
X007025Y010475D02*
D03*
X008965Y008625D02*
D03*
X006885Y008445D02*
D03*
X007025Y007015D02*
D03*
X006885Y010175D02*
D03*
X008965Y010355D02*
D03*
X007025Y008745D02*
D03*
D162*
X005561Y006808D02*
D03*
Y005308D02*
D03*
Y009808D02*
D03*
Y008308D02*
D03*
Y011308D02*
D03*
D163*
X009935Y004565D02*
D03*
X005135D02*
D03*
M02*
