M48
;Layer_Color=9474304
;FILE_FORMAT=4:2
METRIC
;TYPE=PLATED
T1F00S00C0.20
T2F00S00C0.30
T3F00S00C0.35
T4F00S00C0.40
T5F00S00C0.50
T6F00S00C0.60
T7F00S00C0.70
T8F00S00C0.80
T9F00S00C0.85
T10F00S00C0.90
T11F00S00C1.00
T12F00S00C1.02
T13F00S00C3.00
T14F00S00C3.18
;TYPE=NON_PLATED
T15F00S00C0.75
%
T01
X011585Y003899
X011962Y004995
X012063
X012255
Y005046
Y005096
X012175Y005255
X012063Y005195
X011962
X012555Y005045
X012565Y004905
X012468Y004810
X012805Y004795
Y005565
X012555
Y005485
X012295Y005920
X012085Y006176
Y006301
X012295Y007303
X012255Y007745
Y007796
Y007846
X012063Y007745
X011962
X012475Y007765
X012555Y007795
X012565Y007655
X012805Y007545
X011905Y007645
X011764Y007746
X011765Y007796
Y007846
X011563Y007746
X011462
X011255Y007755
Y007645
Y007535
X011555Y007565
X010985Y007435
X010880
X010735
X010623
X010475
X010385
X010140Y007528
X010310Y007165
X010622
X010880
X011050
X011090Y006785
X011007Y005915
X010880Y005837
Y005695
X010753Y005585
Y005906
X011105Y005735
X011255Y005335
Y005195
Y005005
Y004895
Y004785
X011555Y004815
X011563Y004996
X011462
Y005196
X011563
X011575Y005335
X011660Y005255
X011764Y005275
X011765Y005205
X011765Y005096
Y005046
X011764Y004996
X011905Y004895
X011815Y005575
X011417Y005395
X010160Y005871
X010070
X009872Y006155
X009745
X009615
X009491Y006131
X009045Y006715
Y006785
Y006855
X009410Y007194
X009872Y007165
X010010Y007035
X009680Y007621
Y007748
Y007875
X010605
Y007748
Y007621
X006660Y007520
X006433Y007528
Y007478
Y007428
X006488Y007161
Y007111
X006528Y007141
X006568Y007161
Y007113
X006618Y007244
X006204Y007328
X006102
X006153Y007186
X006153Y007043
X006102Y006908
X006204
Y006708
X006102
X005928Y006666
X005866
X005848Y006741
X005908
X005874Y006808
Y006858
Y006909
X005688Y006961
X005529Y006996
X005479Y006808
X005644
X005594Y006651
X005628Y006601
X005578Y006433
X005398
Y006281
X005359Y006190
X005288Y006190
X005223Y006189
X005158Y006201
X005098
X004905Y006145
Y006035
Y005853
Y005755
Y005555
Y005483
Y005345
Y005245
X005088Y005251
X005168
X005128Y005291
X005168Y005331
X005248
X005210Y005291
X005088Y005331
Y005531
X005168
X005529Y005496
X005688Y005461
X005644Y005308
X005479
X005370Y005203
X005594Y005151
X005628Y005101
X005866Y005166
X005928
X005908Y005241
X005848
X005874Y005308
Y005358
Y005409
X006102Y005408
X006204
X006153Y005543
X006153Y005686
X006204Y005828
X006102
Y006028
X006204
X006153Y006161
X006148Y006281
Y006433
Y006536
X006341Y006433
X006413Y006461
X006463
X006513
X006563
X006585Y006555
X006383Y006686
X006408Y006741
X006433Y006807
Y006858
Y006908
X006328Y006281
X006433Y006028
Y005978
Y005928
X006488Y005661
Y005611
X006528Y005641
X006568Y005661
Y005613
X006618Y005744
X006433Y005358
Y005307
X006408Y005241
X006383Y005186
X006204Y005208
X006102
X006148Y005036
X006578Y005053
X006785Y006192
X005948Y006281
Y006433
X005768
X005762Y006281
X005728Y006091
X005874Y006029
Y005978
Y005928
X005908Y005861
X005928Y005786
X005373Y005820
Y005878
Y005936
Y005993
X005158Y005963
X005098Y005892
X004895Y006485
Y006575
Y006745
Y006853
Y006939
Y007035
X005088Y007031
X005168
Y006831
X005128Y006791
X005088Y006831
Y006751
X005168
X005210Y006791
X005248Y006831
X005370Y006703
X005373Y007320
Y007378
Y007436
Y007493
X005359Y007690
X005288Y007690
X005223Y007689
X005158Y007701
X005098
X004895Y007665
Y007565
Y007465
X005158Y007463
X005098Y007392
X004895Y007775
X005398Y007781
Y007933
X005578
X005768
X005762Y007781
X005948
Y007933
X006148
Y007781
X006153Y007661
X006102Y007528
X006204
X005874Y007529
Y007478
Y007428
X005908Y007361
X005928Y007286
X005728Y007591
X006328Y007781
X006341Y007933
X006785Y007855
X005185Y004885
X005065
X004905Y004935
Y005035
X004895Y007945
Y008012
Y008255
Y008365
X005088Y008331
X005168
X005128Y008291
X005168Y008251
X005088
X005210Y008291
X005248Y008331
X005370Y008203
X005479Y008308
X005644
X005688Y008461
X005529Y008496
X005168Y008531
X005088
X005098Y008892
X005158Y008963
Y009201
X005098
X005223Y009189
X005288Y009190
X005359Y009190
X005398Y009281
Y009433
X005578
X005768
X005762Y009281
X005948
Y009433
X006148
Y009536
X006102Y009708
X006204
Y009908
X006102
X006153Y010043
X006153Y010186
X006204Y010328
X006102
Y010528
X006204
X006153Y010661
X006148Y010781
Y010933
Y011036
X006102Y011208
X006204
Y011408
X006102
X006153Y011543
X006153Y011686
X006102Y011828
X006204
X005928Y011786
X005908Y011861
X005874Y011409
Y011358
Y011308
X005848Y011241
X005908
X005928Y011166
X005866
X005594Y011151
X005628Y011101
X005578Y010933
X005398
Y010781
X005359Y010690
X005288Y010690
X005223Y010689
X005158Y010701
X005098
X004905Y010645
Y010545
Y010385
Y010295
X005098Y010392
X005158Y010463
X005373Y010436
Y010378
Y010320
Y010493
X005728Y010591
X005874Y010529
Y010478
Y010428
X005908Y010361
X005928Y010286
X005874Y009909
Y009858
Y009808
X005848Y009741
X005908
X005928Y009666
X005866
X005594Y009651
X005628Y009601
X005644Y009808
X005479
X005370Y009703
X005210Y009791
X005248Y009831
X005168
X005128Y009791
X005088Y009831
Y009751
X005168
Y010031
X005088
X005529Y009996
X005688Y009961
X006433Y009908
Y009858
Y009807
X006408Y009741
X006383Y009686
X006413Y009461
X006463
X006513
X006563
X006586Y009569
X006341Y009433
X006328Y009281
X006148
X006153Y009161
X006102Y009028
X006204
Y008828
X006102
X006153Y008686
X006153Y008543
X006102Y008408
X006204
Y008208
X006102
X005928Y008166
X005866
X005848Y008241
X005908
X005874Y008308
Y008358
Y008409
X005928Y008786
X005908Y008861
X005874Y008928
Y008978
Y009029
X005728Y009091
X005373Y008993
Y008936
Y008878
Y008820
X004896Y009175
X004895Y009265
Y009355
Y009461
X004896Y009605
Y009679
X004895Y011055
Y011155
X005088Y011251
Y011331
X005168
X005128Y011291
X005168Y011251
X005210Y011291
X005248Y011331
X005370Y011203
X005479Y011308
X005644
X005688Y011461
X005529Y011496
X005168Y011531
X005088
X004895Y011535
Y011605
Y011675
X005098Y011892
X005373Y011878
Y011820
X006488Y011661
Y011611
X006528Y011641
X006568Y011661
Y011613
X006618Y011744
X006433Y011408
Y011358
Y011307
X006408Y011241
X006383Y011186
X006413Y010961
X006463
X006513
X006563
X006578Y011053
X006341Y010933
X006328Y010781
X006433Y010528
Y010478
Y010428
X006488Y010161
Y010111
X006528Y010141
X006568Y010161
Y010113
X006618Y010244
X006789Y010745
X005948Y010781
Y010933
X005768
X005762Y010781
X006433Y009028
Y008978
Y008928
X006488Y008661
Y008611
X006528Y008641
X006568Y008661
Y008613
X006618Y008744
X006433Y008408
Y008358
Y008307
X006408Y008241
X006383Y008186
X006413Y007961
X006463
X006513
X006563
X006578Y008053
X006148Y008036
X005628Y008101
X005594Y008151
X006790Y009255
X009406Y009271
X009442Y009322
X009407Y009372
Y009472
X009442Y009522
X009407Y009572
X009442Y009622
Y009722
X009407Y009772
X009442Y009822
X009407Y009872
X009375Y009922
X009407Y009972
X009442Y010022
X009407Y010072
X009442Y010122
Y010222
X009407Y010272
X009442Y010322
X009407Y010372
X009375Y010422
X009407Y010472
X009442Y010522
X009407Y010572
X009442Y010622
Y010722
X009407Y010772
X009375Y010672
X009415Y010895
X009465Y010955
X009625Y011115
X009740Y011205
X009790Y011170
X009840Y011205
X009890Y011170
X009990
X010040Y011205
X010090Y011170
X010140Y011205
X010240
X010290Y011170
X010340Y011205
X010390Y011170
X010490
X010540Y011205
X010590Y011170
X010640Y011205
X010740
X010790Y011170
X010840Y011205
X010890Y011170
X010990
X011040Y011205
X011090Y011170
X011140Y011205
X011240
X011290Y011170
X011340Y011205
X011390Y011170
X011490
X011440Y011275
X011190
X010940
X010690
X010440
X010190
X009939
X010245Y010930
X010055Y010715
X010295Y011625
Y011685
X011505Y011505
X011875Y011585
X011790Y010870
X011825Y010820
X011790Y010770
Y010670
X011825Y010620
X011790Y010570
X011825Y010520
Y010420
X011790Y010370
X011825Y010320
X011790Y010270
Y010170
X011825Y010120
X011790Y010070
X011825Y010020
Y009920
X011790Y009870
X011825Y009820
X011790Y009770
Y009670
X011825Y009620
X011785Y009570
X011815Y009520
X011845Y009470
X011815Y009420
X011785Y009370
X011825Y009320
X011790Y009270
Y009170
X011825Y009120
X011845Y009220
X011764Y008943
X011490Y008785
X011440Y008820
X011340
X011290Y008785
X011240Y008820
X011190Y008785
X011090
X011040Y008820
X010990Y008785
X010940Y008820
X010840
X010790Y008785
X010740Y008820
X010690Y008785
X010590
X010540Y008820
X010490Y008785
X010440Y008820
X010340
X010290Y008785
X010240Y008820
X010190Y008785
X010090
X010040Y008820
X009990Y008785
X009940Y008820
X009840
X009790Y008785
X009890Y008715
X009865Y008565
X009805
X009746
X009685
X009625Y008755
X009565
Y008915
X009525Y008965
X009385
X009345Y008915
Y009035
X009385Y009095
X009348Y009422
Y009672
X009375Y010172
X009035Y010175
Y010245
Y010314
X009045Y008585
Y008515
Y008445
X009680Y008002
X010140Y008094
X010605Y008128
Y008002
X011255Y007945
Y008085
X011417Y008145
X011575Y008085
X011563Y007946
X011462
X011660Y008005
X011764Y008025
X011765Y007955
X011815Y008325
X011391Y008725
X011140
X010890Y008715
X010640
X010390
X010140Y008690
X010225Y009255
Y009419
X011375Y009287
X011175Y009075
X011845Y009720
X011895Y009970
Y010220
Y010470
Y010721
X011500Y010786
X011255Y010863
X011500Y010379
X011965Y010425
X011945Y010272
X012155Y010283
Y010163
Y009996
Y009866
Y009736
Y009616
Y009446
Y009316
Y009186
Y009066
X012305Y008925
X012865Y008875
X012965Y008993
Y009123
Y009253
Y009373
Y009543
Y009673
Y009803
Y009923
Y010090
Y010220
Y010350
Y010470
Y010634
Y010764
Y010894
Y011014
X012895Y011395
X012765Y011575
X012235Y011395
X012155Y011087
Y010957
Y010827
Y010707
Y010543
Y010413
X011997Y011585
X011935
X012085Y011855
X012063Y007945
X011962
X012175Y008005
X012555Y008235
Y008315
X012805
X012043Y011987
X011705Y012065
X011635Y012088
X011555Y012088
X011465Y012065
X011115Y011987
X011055Y012355
X010218Y012265
X009435Y012205
X009375Y012235
X009315Y012275
X009255Y012315
X009195
X009135
X009087Y012248
Y012175
X009085Y012105
X008995Y012365
X008915
X008835
X008755
X006890Y012325
Y012248
X006791Y012221
X006563Y012461
X006513
X006463
X006413
X006341Y012433
X006328Y012281
X006148
X006153Y012161
X006204Y012028
X006102
X005874Y012029
Y011978
Y011928
X005728Y012091
X005762Y012281
X005768Y012433
X005948
Y012281
X006148Y012433
X005578
X005398
Y012281
X005359Y012190
X005288Y012190
X005223Y012189
X005205Y012265
X005098Y012201
X005158Y011963
X005373Y011936
Y011993
X006433Y011978
Y011928
Y012028
T02
X011930Y003947
X012069
X012209
X012915Y004547
Y004686
Y004826
X012345Y005666
X012255
X012175
X012015Y005665
X011997Y005385
X011985Y006415
Y006550
Y006675
Y006800
Y006929
Y007055
X012735Y007059
Y006929
Y006805
Y006325
Y006125
X011455
Y006325
Y006548
Y006675
X011365
X011455Y006929
Y007053
X010720Y007285
X010595
X010495
X010368
X010455Y007165
X009840Y007285
X009720
X009535
X009410
X008993Y007293
X008970Y007203
X009007Y007135
X008993Y007405
X008985Y007645
X008993Y007765
Y007845
Y007925
X008755Y007824
X008745Y007697
X008825Y007645
X008650Y007555
Y007004
X008745
X008805Y006647
X008993Y006657
Y006577
Y006497
Y006416
Y006275
Y006195
Y006115
Y006035
X008985Y005915
X008825
X008745Y005967
X008755Y006094
X008650Y005825
X008993Y005675
Y005550
X008993Y005472
X008983Y005395
X008745Y005274
X008650
X009385Y005269
X009485
X009575Y005269
X009935Y005265
X010035
X010135Y005269
X010190Y005725
X009920Y005740
X009440Y005725
X009445Y004875
X009515
X009585
X009655
Y004255
X009585
X009515
X009445
X011443Y004455
X011728Y004600
X011705Y005665
X011515
X011325
X011905
X010622Y005735
X010685Y005265
X010795Y005265
X007595Y005265
X007493
X007145Y005285
X006885Y005275
Y005355
X006885Y005445
X006885Y005525
Y005625
Y005705
X006885Y005785
Y005865
Y005957
Y006037
Y006115
Y006195
X006930Y006288
X006953Y006385
X006885Y006535
X006983Y006625
X006966Y006795
X006985Y006875
X006885Y007005
Y007085
X006885Y007175
X006885Y007255
Y007355
Y007435
X006885Y007515
Y007595
Y007687
Y007767
Y007845
Y007925
X006658Y007881
Y007801
Y007721
Y007631
X006393Y007366
X006403Y007286
X007095Y007280
X007143Y007465
X007145Y007015
X007363Y006895
X007333Y006725
X007325Y006585
X007425Y006645
X007395Y006465
X007393Y006355
X007355Y006285
X007525Y006047
X007523Y005967
X007443Y005895
X007600Y005825
X007143Y005735
X007095Y005550
X006403Y005786
X006393Y005866
X006658Y006131
Y006221
Y006301
Y006381
Y006461
X007493Y006995
X007595
X007600Y007555
X007523Y007697
X007525Y007777
X007443Y007625
X007835Y006219
X004935Y007184
X004862Y004289
X004666
X004469
X004272
X003627Y004935
Y005132
Y005328
Y005525
Y011082
Y011279
Y011475
Y011672
X004985Y011255
X006885Y011227
Y011305
Y011385
X006930Y011478
X006953Y011575
X006885Y011725
X006983Y011815
X007325Y011775
X007425Y011835
X007395Y011655
X007393Y011545
X007355Y011475
X007525Y011237
X007523Y011157
X007443Y011085
X007600Y011015
X007143Y010925
X007095Y010740
X006885Y010715
X006885Y010635
X006885Y010545
Y010465
X006985Y010335
X006966Y010255
X006983Y010085
X006885Y009995
X006953Y009845
X006930Y009748
X006885Y009655
Y009575
Y009497
Y009417
Y009325
Y009245
X006885Y009165
Y009085
Y008985
X006885Y008905
X006885Y008815
Y008735
X006985Y008605
X006966Y008525
X006983Y008355
X006885Y008285
X006953Y008115
X006930Y008018
X006658Y007961
X007355Y008015
X007393Y008085
X007395Y008195
X007325Y008315
X007333Y008455
X007435Y008378
X007363Y008625
X007493Y008725
X007595
X007145Y008745
X007095Y009010
X007143Y009195
X007443Y009355
X007523Y009427
X007525Y009507
X007600Y009285
X007835Y009679
X007355Y009745
X007393Y009815
X007395Y009925
X007325Y010045
X007333Y010185
X007430Y010107
X007363Y010355
X007493Y010455
X007595
X007145Y010475
X006885Y010815
Y010895
X006885Y010975
Y011055
Y011147
X006658Y010961
Y010881
Y010801
Y010721
Y010631
X006393Y010366
X006403Y010286
X006658Y009461
Y009381
Y009301
Y009221
Y009131
X006393Y008866
X006403Y008786
X007835Y007950
X007835Y011410
X006403Y011786
X006393Y011866
X008803Y011832
X008993Y011847
Y011767
Y011687
Y011606
Y011465
Y011385
Y011305
Y011225
X008985Y011105
X008825
X008745Y011157
X008755Y011284
X008650Y011015
X008993Y010865
Y010740
X008972Y010657
X009025Y010600
X008745Y010464
X008650
X008803Y010103
X008993Y010117
Y010037
Y009957
Y009876
Y009735
Y009655
Y009575
Y009495
X008985Y009375
X008825
X008745Y009427
X008755Y009554
X008650Y009285
X008993Y009135
Y009010
X008965Y008932
X009012Y008868
X008745Y008734
X008650
X008797Y008368
X008993Y008387
Y008307
Y008227
Y008146
Y008005
X011355Y008416
X011515Y008415
X011705
X011905
X012015
X012175Y008416
X012260Y008415
X012345Y008416
X011997Y008135
X012128Y011605
X012915Y011654
Y011794
Y011933
X012224Y012625
X012084
X007363Y012085
X007333Y011915
X006966Y011985
X006985Y012065
X006658Y012131
Y012221
Y012301
Y012381
Y012461
X004469Y012318
X004272
T03
X010560Y009822
X009975Y010515
X010635Y011665
X004905Y012222
X004785Y012154
X004685Y012222
X004585Y012154
T04
X010582Y004445
X008965Y006895
X007025Y007015
X006885Y006715
X006665Y006705
X007025Y005285
X006655Y008125
X006885Y008445
X007025Y008745
X006665Y009765
X006885Y010175
X007025Y010475
X006655Y011245
X006885Y011905
X008965Y010355
Y008625
X008965Y012085
T05
X012460Y009090
X012660
Y009350
X012460
Y009640
X012660
Y009900
X012460
Y010187
X012660
Y010447
X012460
Y010731
X012660
Y010991
X012460
T06
X004567Y003670
X004667
X004770
X004872
X011997
X012097
X012200
X012302
X012307Y012810
X012205
X012103
X012003
X004750Y012815
X004647
X004545
X004445
T07
X010818Y003843
X011345Y004235
X011330Y012220
X011820Y012222
T08
X012012Y005095
X012012Y007845
X011512Y007846
Y005096
X009435Y004665
Y004465
X009235
X009035
X008835
X008635
X008435
X008235
X008035
X008035Y004665
X008235
X008435
X008635
X008835
X009035
X009235
X007835
Y004465
X007635
X007435
X007235
X007035
X006835
X006635
X006435
X006235
X006035
X005835
X005635
Y004665
X005835
X006035
X006235
X006435
X006635
X006835
X007035
X007235
X007435
X007635
X006153Y005308
X005561Y005308
X006153Y005928
Y006808
X005561Y006808
X006153Y007428
Y008308
X005561Y008308
X006153Y008928
Y009808
X005561Y009808
X006153Y010428
Y011308
X005561Y011308
X006153Y011928
X004455Y012535
T09
X010785Y007808
X011498Y007275
X006771Y005065
X012405Y008749
T10
X004212Y005135
Y005389
Y005643
Y005897
Y006151
Y006405
Y006659
Y006913
Y007167
Y007421
Y007675
Y007929
X004466Y007928
Y007674
Y007420
Y007166
Y006912
Y006658
Y006404
Y006150
Y005896
Y005642
Y005388
Y005134
X004720
Y005388
Y005642
Y005896
Y006150
Y006404
Y006658
Y006912
Y007166
Y007420
Y007674
Y007928
X003958Y007929
Y007675
Y007421
Y007167
Y006913
Y006659
Y006405
Y006151
Y005897
Y005643
Y005389
Y005135
Y008183
Y008437
Y008691
Y008945
Y009199
Y009453
Y009707
Y009961
Y010215
Y010469
Y010723
Y010977
Y011231
Y011485
X004212
Y011231
Y010977
Y010723
Y010469
Y010215
Y009961
Y009707
Y009453
Y009199
Y008945
Y008691
Y008437
Y008183
X004466Y008182
X004720
Y008436
X004466
Y008690
X004720
Y008944
X004466
Y009198
X004720
Y009452
X004466
Y009706
X004720
Y009960
X004466
Y010214
X004720
Y010468
X004466
Y010722
X004720
Y010976
X004466
Y011230
X004720
Y011484
X004466
X009575Y012465
X009829
X010083
X010337
X010591
X010845
T11
X012560Y009220
Y009770
Y010317
Y010861
X011847Y012515
X011303
T12
X010025Y011800
X010425
X010825
Y012054
X010425
X010025
T13
X009935Y004565
X005135
T14
X012531Y004240
X003958Y004621
X012531Y012240
X003958Y011986
T15
X012565Y011305
Y011485
M30
