G04*
G04 #@! TF.GenerationSoftware,Altium Limited,Altium Designer,20.1.11 (218)*
G04*
G04 Layer_Color=16711935*
%FSAX42Y42*%
%MOMM*%
G71*
G04*
G04 #@! TF.SameCoordinates,F3C0A85A-D470-4F3B-B7C9-65F3AFEF91C2*
G04*
G04*
G04 #@! TF.FilePolarity,Positive*
G04*
G01*
G75*
%ADD21C,0.30*%
D21*
X004371Y012812D02*
G03*
X004311Y012872I-000060J000000D01*
G01*
X012445D02*
G03*
X012385Y012812I000000J-000060D01*
G01*
X004883Y012867D02*
G03*
X004823Y012807I000000J-000060D01*
G01*
X011934D02*
G03*
X011874Y012867I-000060J000000D01*
G01*
X004311Y012747D02*
G03*
X004371Y012807I000000J000060D01*
G01*
X004823Y012807D02*
G03*
X004883Y012747I000060J000000D01*
G01*
X012385Y012807D02*
G03*
X012445Y012747I000060J000000D01*
G01*
X011874D02*
G03*
X011934Y012807I000000J000060D01*
G01*
X011924Y003670D02*
G03*
X011864Y003730I-000060J000000D01*
G01*
Y003605D02*
G03*
X011924Y003665I000000J000060D01*
G01*
X012436Y003730D02*
G03*
X012376Y003670I000000J-000060D01*
G01*
Y003665D02*
G03*
X012436Y003605I000060J000000D01*
G01*
X005006Y003730D02*
G03*
X004946Y003670I000000J-000060D01*
G01*
Y003665D02*
G03*
X005006Y003605I000060J000000D01*
G01*
X004434Y003605D02*
G03*
X004494Y003665I000000J000060D01*
G01*
Y003670D02*
G03*
X004434Y003730I-000060J000000D01*
G01*
X010244Y003810D02*
G03*
X010094Y003960I-000150J000000D01*
G01*
X006394D02*
G03*
X006244Y003810I000000J-000150D01*
G01*
X003670Y005738D02*
G03*
X003820Y005888I000000J000150D01*
G01*
Y010589D02*
G03*
X003670Y010739I-000150J000000D01*
G01*
X004883Y012747D02*
X004917D01*
X011707Y012747D02*
X011874D01*
X004917Y012747D02*
X006121D01*
X006120Y012747D02*
X011707D01*
X003435Y012872D02*
Y013372D01*
X013035Y012872D02*
Y013372D01*
X012445Y012872D02*
X013035D01*
X004882Y012867D02*
X011874D01*
X003435Y012872D02*
X004312D01*
X003435Y013372D02*
X013035D01*
X004277Y012747D02*
X004311D01*
X012447D02*
X012473D01*
X010245Y003730D02*
X011830D01*
X005040Y003730D02*
X006244D01*
X011830Y003730D02*
X011864D01*
X012436D02*
X012470D01*
X005006Y003730D02*
X005040D01*
X003435Y003105D02*
Y003605D01*
X013039Y003105D02*
Y003605D01*
X003435Y003105D02*
X013039D01*
X012435Y003605D02*
X013039D01*
X005005D02*
X011865D01*
X003435D02*
X004435D01*
X004400Y003730D02*
X004434D01*
X006244D02*
Y003810D01*
X003450Y010739D02*
Y011920D01*
X004277Y012747D01*
X012473D02*
X013039Y012181D01*
Y010739D02*
Y012181D01*
X013039Y010739D02*
X013039Y004299D01*
X012470Y003730D02*
X013039Y004299D01*
X010244Y003732D02*
X010244Y003730D01*
X006394Y003960D02*
X010094D01*
X003820Y005888D02*
X003820Y010589D01*
X003450Y005738D02*
X003670D01*
X003450Y010739D02*
X003670D01*
X010244Y003730D02*
Y003810D01*
X003450Y004680D02*
Y005738D01*
Y004680D02*
X004400Y003730D01*
M02*
