G04*
G04 #@! TF.GenerationSoftware,Altium Limited,Altium Designer,20.1.11 (218)*
G04*
G04 Layer_Color=3707366*
%FSAX42Y42*%
%MOMM*%
G71*
G04*
G04 #@! TF.SameCoordinates,F3C0A85A-D470-4F3B-B7C9-65F3AFEF91C2*
G04*
G04*
G04 #@! TF.FilePolarity,Positive*
G04*
G01*
G75*
%ADD10C,0.25*%
%ADD11C,0.25*%
%ADD13C,0.60*%
%ADD14C,0.40*%
%ADD15C,0.20*%
%ADD20C,0.15*%
%ADD21C,0.30*%
%ADD22C,0.15*%
%ADD23C,0.16*%
D10*
X011104Y006060D02*
G03*
X011104Y006060I-000012J000000D01*
G01*
X009884Y006507D02*
G03*
X009884Y006507I-000012J000000D01*
G01*
X007172Y010820D02*
G03*
X007172Y010820I-000012J000000D01*
G01*
X007172Y009090D02*
G03*
X007172Y009090I-000012J000000D01*
G01*
Y007360D02*
G03*
X007172Y007360I-000012J000000D01*
G01*
Y005630D02*
G03*
X007172Y005630I-000012J000000D01*
G01*
X011653Y006082D02*
G03*
X011653Y006082I-000012J000000D01*
G01*
X012257Y008095D02*
G03*
X012257Y008095I-000012J000000D01*
G01*
X012257Y005345D02*
G03*
X012257Y005345I-000012J000000D01*
G01*
X008662Y011012D02*
G03*
X008662Y011012I-000012J000000D01*
G01*
X008588Y012129D02*
G03*
X008588Y012129I-000012J000000D01*
G01*
X007073Y011682D02*
G03*
X007073Y011682I-000012J000000D01*
G01*
X008662Y009282D02*
G03*
X008662Y009282I-000012J000000D01*
G01*
X008588Y010400D02*
G03*
X008588Y010400I-000012J000000D01*
G01*
X007073Y009953D02*
G03*
X007073Y009953I-000012J000000D01*
G01*
X008662Y007553D02*
G03*
X008662Y007553I-000012J000000D01*
G01*
X008588Y008669D02*
G03*
X008588Y008669I-000012J000000D01*
G01*
X007073Y008222D02*
G03*
X007073Y008222I-000012J000000D01*
G01*
Y006493D02*
G03*
X007073Y006493I-000012J000000D01*
G01*
X008662Y005822D02*
G03*
X008662Y005822I-000012J000000D01*
G01*
X008588Y006939D02*
G03*
X008588Y006939I-000012J000000D01*
G01*
D11*
X011833Y011655D02*
G03*
X011833Y011655I-000006J000000D01*
G01*
X011731Y012203D02*
G03*
X011731Y012203I-000006J000000D01*
G01*
X011563D02*
G03*
X011563Y012203I-000006J000000D01*
G01*
X010243Y010363D02*
G03*
X010243Y010363I-000015J000000D01*
G01*
X011167Y011782D02*
X011243D01*
X011205Y011744D02*
Y011820D01*
X009903Y009948D02*
Y010211D01*
X010447Y009948D02*
Y010211D01*
X010040Y009700D02*
X010303D01*
X010040Y010456D02*
X010303D01*
D13*
X011018Y006315D02*
G03*
X011018Y006315I-000030J000000D01*
G01*
X011925Y006187D02*
G03*
X011925Y006187I-000030J000000D01*
G01*
X008443Y010937D02*
G03*
X008443Y010937I-000030J000000D01*
G01*
X008350Y012025D02*
G03*
X008350Y012025I-000030J000000D01*
G01*
X008442Y009207D02*
G03*
X008442Y009207I-000030J000000D01*
G01*
X008350Y010295D02*
G03*
X008350Y010295I-000030J000000D01*
G01*
X008442Y007477D02*
G03*
X008442Y007477I-000030J000000D01*
G01*
X008350Y008565D02*
G03*
X008350Y008565I-000030J000000D01*
G01*
X008442Y005747D02*
G03*
X008442Y005747I-000030J000000D01*
G01*
X008350Y006835D02*
G03*
X008350Y006835I-000030J000000D01*
G01*
D14*
X009977Y006375D02*
G03*
X009977Y006375I000000J-000020D01*
G01*
D15*
X009923Y006708D02*
G03*
X009923Y006634I000000J-000037D01*
G01*
X006997Y011536D02*
G03*
X006997Y011612I000000J000038D01*
G01*
X006997Y009806D02*
G03*
X006997Y009882I000000J000038D01*
G01*
Y008076D02*
G03*
X006997Y008152I000000J000038D01*
G01*
Y006346D02*
G03*
X006997Y006422I000000J000038D01*
G01*
X012885Y004765D02*
Y005225D01*
X012785Y004665D02*
X012885Y004765D01*
X012275Y004665D02*
X012785D01*
X012105Y004495D02*
X012275Y004665D01*
X012105Y004155D02*
Y004495D01*
X011595Y011515D02*
X011775D01*
X011595Y011655D02*
X011775D01*
X011503Y011820D02*
Y011890D01*
X011647Y011820D02*
Y011890D01*
X010038Y006215D02*
Y006820D01*
X011088Y006215D02*
Y006820D01*
X010038D02*
X011088D01*
X010038Y006215D02*
X011088D01*
X009923Y006457D02*
Y006634D01*
Y006711D02*
Y006888D01*
X009440Y006457D02*
Y006888D01*
Y006457D02*
X009923D01*
X009440Y006888D02*
X009923D01*
X012790Y006190D02*
Y006260D01*
X012935Y006190D02*
Y006260D01*
X011253Y006190D02*
Y006260D01*
X011397Y006190D02*
Y006260D01*
X007015Y010610D02*
Y010655D01*
Y010825D02*
Y010870D01*
X007178D01*
X007015Y010610D02*
X007178D01*
X007015Y008880D02*
Y008925D01*
Y009095D02*
Y009140D01*
X007178D01*
X007015Y008880D02*
X007178D01*
X007015Y007150D02*
Y007195D01*
Y007365D02*
Y007410D01*
X007178D01*
X007015Y007150D02*
X007178D01*
X007015Y005420D02*
Y005465D01*
Y005635D02*
Y005680D01*
X007178D01*
X007015Y005420D02*
X007178D01*
X009825Y009382D02*
X009894D01*
X009825Y009528D02*
X009894D01*
X009825Y009300D02*
X009894D01*
X009825Y009154D02*
X009894D01*
X011143Y011462D02*
Y012007D01*
X011198Y012062D01*
X011394D01*
X011447Y012008D01*
Y011462D02*
Y012008D01*
X011143Y011462D02*
X011447D01*
X011725Y012255D02*
Y012435D01*
X011585Y012255D02*
Y012435D01*
X011557Y012255D02*
Y012435D01*
X011417Y012255D02*
Y012435D01*
X010982Y012500D02*
Y012570D01*
X011128Y012500D02*
Y012570D01*
X011795Y007136D02*
X012400D01*
X011795Y006087D02*
X012400D01*
Y007136D01*
X011795Y006087D02*
Y007136D01*
X012260Y007990D02*
X012570D01*
X012260Y007760D02*
X012570D01*
X012260D02*
Y007990D01*
X012570Y007760D02*
Y007990D01*
X012570Y005010D02*
Y005240D01*
X012260Y005010D02*
Y005240D01*
Y005010D02*
X012570D01*
X012260Y005240D02*
X012570D01*
X007738Y010437D02*
X008512D01*
X007738Y011037D02*
X008512D01*
X007738Y010437D02*
Y011037D01*
X008512Y010437D02*
Y011037D01*
X008420Y011075D02*
Y012125D01*
X007815Y011075D02*
Y012125D01*
X008420D01*
X007815Y011075D02*
X008420D01*
X006997Y011409D02*
Y011536D01*
Y011409D02*
X007301D01*
X006997Y011739D02*
X007301D01*
X006997Y011612D02*
Y011739D01*
X007301Y011409D02*
Y011739D01*
X007737Y008707D02*
X008512D01*
X007737Y009307D02*
X008512D01*
X007737Y008707D02*
Y009307D01*
X008512Y008707D02*
Y009307D01*
X008420Y009345D02*
Y010395D01*
X007815Y009345D02*
Y010395D01*
X008420D01*
X007815Y009345D02*
X008420D01*
X006997Y009679D02*
Y009806D01*
Y009679D02*
X007301D01*
X006997Y010009D02*
X007301D01*
X006997Y009882D02*
Y010009D01*
X007301Y009679D02*
Y010009D01*
X007737Y006977D02*
X008512D01*
X007737Y007577D02*
X008512D01*
X007737Y006977D02*
Y007577D01*
X008512Y006977D02*
Y007577D01*
X008420Y007615D02*
Y008665D01*
X007815Y007615D02*
Y008665D01*
X008420D01*
X007815Y007615D02*
X008420D01*
X006997Y007949D02*
Y008076D01*
Y007949D02*
X007301D01*
X006997Y008279D02*
X007301D01*
X006997Y008152D02*
Y008279D01*
X007301Y007949D02*
Y008279D01*
X006997Y006219D02*
Y006346D01*
Y006219D02*
X007301D01*
X006997Y006549D02*
X007301D01*
X006997Y006422D02*
Y006549D01*
X007301Y006219D02*
Y006549D01*
X007737Y005247D02*
X008512D01*
X007737Y005847D02*
X008512D01*
X007737Y005247D02*
Y005847D01*
X008512Y005247D02*
Y005847D01*
X008420Y005885D02*
Y006935D01*
X007815Y005885D02*
Y006935D01*
X008420D01*
X007815Y005885D02*
X008420D01*
D20*
X006734Y009815D02*
Y009852D01*
X006842Y009815D02*
Y009852D01*
X006730Y010110D02*
Y010148D01*
X006838Y010110D02*
Y010148D01*
X006720Y008080D02*
Y008118D01*
X006828Y008080D02*
Y008118D01*
X006722Y008375D02*
Y008412D01*
X006830Y008375D02*
Y008412D01*
X006720Y006645D02*
Y006683D01*
X006828Y006645D02*
Y006683D01*
X006722Y006347D02*
Y006385D01*
X006830Y006347D02*
Y006385D01*
X006720Y011538D02*
Y011575D01*
X006828Y011538D02*
Y011575D01*
X006720Y011835D02*
Y011872D01*
X006828Y011835D02*
Y011872D01*
X010365Y007958D02*
X010403D01*
X010365Y007850D02*
X010403D01*
X009895Y008147D02*
X009932D01*
X009895Y008039D02*
X009932D01*
X010365Y008147D02*
X010403D01*
X010365Y008039D02*
X010403D01*
X010365Y007769D02*
X010403D01*
X010365Y007662D02*
X010403D01*
X010365Y007581D02*
X010403D01*
X010365Y007473D02*
X010403D01*
X009895Y007581D02*
X009932D01*
X009895Y007473D02*
X009932D01*
X009895Y007769D02*
X009932D01*
X009895Y007662D02*
X009932D01*
X009895Y007958D02*
X009932D01*
X009895Y007850D02*
X009932D01*
X012800Y010920D02*
Y010958D01*
X012907Y010920D02*
Y010958D01*
X012800Y010380D02*
Y010418D01*
X012907Y010380D02*
Y010418D01*
X012800Y009830D02*
Y009868D01*
X012907Y009830D02*
Y009868D01*
X012800Y009280D02*
Y009318D01*
X012907Y009280D02*
Y009318D01*
X012818Y011372D02*
Y011410D01*
X012710Y011372D02*
Y011410D01*
X010647Y012212D02*
X010685D01*
X010647Y012320D02*
X010685D01*
X010932Y012318D02*
X010970D01*
X010932Y012210D02*
X010970D01*
X005958Y005011D02*
X005995D01*
X005958Y005119D02*
X005995D01*
X010808Y005742D02*
Y005780D01*
X010700Y005742D02*
Y005780D01*
X010385Y005683D02*
X010423D01*
X010385Y005790D02*
X010423D01*
X009668Y005683D02*
X009705D01*
X009668Y005790D02*
X009705D01*
X011400Y005528D02*
X011438D01*
X011400Y005420D02*
X011438D01*
X011622Y005384D02*
Y005421D01*
X011730Y005384D02*
Y005421D01*
X011900Y005528D02*
X011938D01*
X011900Y005420D02*
X011938D01*
X012122Y005382D02*
Y005420D01*
X012230Y005382D02*
Y005420D01*
X012712Y005219D02*
X012750D01*
X012712Y005111D02*
X012750D01*
X012712Y005067D02*
X012750D01*
X012712Y004960D02*
X012750D01*
X012710Y008024D02*
X012748D01*
X012710Y008131D02*
X012748D01*
X012710Y008178D02*
X012748D01*
X012710Y008286D02*
X012748D01*
X012712Y007818D02*
X012750D01*
X012712Y007710D02*
X012750D01*
X012712Y007969D02*
X012750D01*
X012712Y007861D02*
X012750D01*
X012122Y008132D02*
Y008170D01*
X012230Y008132D02*
Y008170D01*
X011672Y007593D02*
X011710D01*
X011672Y007700D02*
X011710D01*
X011402Y007697D02*
X011440D01*
X011402Y007590D02*
X011440D01*
X011900Y008278D02*
X011938D01*
X011900Y008170D02*
X011938D01*
X012085Y007593D02*
X012123D01*
X012085Y007700D02*
X012123D01*
X011400Y008278D02*
X011438D01*
X011400Y008170D02*
X011438D01*
X011622Y008134D02*
Y008171D01*
X011730Y008134D02*
Y008171D01*
X011400Y008111D02*
X011438D01*
X011400Y008003D02*
X011438D01*
X011293Y007832D02*
Y007870D01*
X011400Y007832D02*
Y007870D01*
X006310Y009094D02*
X006348D01*
X006310Y009201D02*
X006348D01*
X005958Y009199D02*
X005995D01*
X005958Y009091D02*
X005995D01*
X006308Y008634D02*
X006345D01*
X006308Y008741D02*
X006345D01*
X005166Y008684D02*
X005203D01*
X005166Y008576D02*
X005203D01*
X006310Y008476D02*
X006348D01*
X006310Y008584D02*
X006348D01*
X005958Y008581D02*
X005995D01*
X005958Y008473D02*
X005995D01*
X006298Y008014D02*
X006335D01*
X006298Y008121D02*
X006335D01*
X005819Y008124D02*
Y008161D01*
X005711Y008124D02*
Y008161D01*
X005539Y008950D02*
Y008987D01*
X005432Y008950D02*
Y008987D01*
X005317Y008950D02*
Y008987D01*
X005210Y008950D02*
Y008987D01*
X005351Y009339D02*
Y009376D01*
X005243Y009339D02*
Y009376D01*
X005731Y009339D02*
Y009376D01*
X005623Y009339D02*
Y009376D01*
X006490Y009061D02*
Y009099D01*
X006598Y009061D02*
Y009099D01*
X006490Y008801D02*
Y008839D01*
X006598Y008801D02*
Y008839D01*
X005958Y008739D02*
X005995D01*
X005958Y008631D02*
X005995D01*
X005821Y008459D02*
Y008496D01*
X005713Y008459D02*
Y008496D01*
X006490Y008444D02*
Y008481D01*
X006598Y008444D02*
Y008481D01*
X006490Y008174D02*
Y008211D01*
X006598Y008174D02*
Y008211D01*
X005958Y008119D02*
X005995D01*
X005958Y008011D02*
X005995D01*
X005428Y008119D02*
X005465D01*
X005428Y008011D02*
X005465D01*
X006310Y012094D02*
X006348D01*
X006310Y012201D02*
X006348D01*
X005958Y012199D02*
X005995D01*
X005958Y012091D02*
X005995D01*
X006308Y011634D02*
X006345D01*
X006308Y011741D02*
X006345D01*
X005166Y011684D02*
X005203D01*
X005166Y011576D02*
X005203D01*
X006310Y011476D02*
X006348D01*
X006310Y011584D02*
X006348D01*
X005958Y011581D02*
X005995D01*
X005958Y011473D02*
X005995D01*
X006298Y011014D02*
X006335D01*
X006298Y011121D02*
X006335D01*
X005819Y011124D02*
Y011161D01*
X005711Y011124D02*
Y011161D01*
X005539Y011950D02*
Y011987D01*
X005432Y011950D02*
Y011987D01*
X005317Y011950D02*
Y011987D01*
X005210Y011950D02*
Y011987D01*
X005351Y012339D02*
Y012376D01*
X005243Y012339D02*
Y012376D01*
X005731Y012339D02*
Y012376D01*
X005623Y012339D02*
Y012376D01*
X006490Y012061D02*
Y012099D01*
X006598Y012061D02*
Y012099D01*
X006490Y011801D02*
Y011839D01*
X006598Y011801D02*
Y011839D01*
X005958Y011739D02*
X005995D01*
X005958Y011631D02*
X005995D01*
X005821Y011459D02*
Y011496D01*
X005713Y011459D02*
Y011496D01*
X006490Y011444D02*
Y011481D01*
X006598Y011444D02*
Y011481D01*
X006490Y011174D02*
Y011211D01*
X006598Y011174D02*
Y011211D01*
X005958Y011119D02*
X005995D01*
X005958Y011011D02*
X005995D01*
X005428Y011119D02*
X005465D01*
X005428Y011011D02*
X005465D01*
X005958Y010081D02*
X005995D01*
X005958Y009973D02*
X005995D01*
X005731Y010839D02*
Y010876D01*
X005623Y010839D02*
Y010876D01*
X006490Y010561D02*
Y010599D01*
X006598Y010561D02*
Y010599D01*
X005958Y010239D02*
X005995D01*
X005958Y010131D02*
X005995D01*
X005821Y009959D02*
Y009996D01*
X005713Y009959D02*
Y009996D01*
X005428Y009619D02*
X005465D01*
X005428Y009511D02*
X005465D01*
X006310Y007084D02*
X006348D01*
X006310Y006976D02*
X006348D01*
X006310Y007701D02*
X006348D01*
X006310Y007594D02*
X006348D01*
X005958Y007591D02*
X005995D01*
X005958Y007699D02*
X005995D01*
X006308Y007241D02*
X006345D01*
X006308Y007134D02*
X006345D01*
X005958Y006973D02*
X005995D01*
X005958Y007081D02*
X005995D01*
X006298Y006621D02*
X006335D01*
X006298Y006514D02*
X006335D01*
X005711Y006624D02*
Y006661D01*
X005819Y006624D02*
Y006661D01*
X005166Y007076D02*
X005203D01*
X005166Y007184D02*
X005203D01*
X006598Y007561D02*
Y007599D01*
X006490Y007561D02*
Y007599D01*
X006598Y007301D02*
Y007339D01*
X006490Y007301D02*
Y007339D01*
X005958Y007131D02*
X005995D01*
X005958Y007239D02*
X005995D01*
X006598Y006944D02*
Y006981D01*
X006490Y006944D02*
Y006981D01*
X006598Y006674D02*
Y006711D01*
X006490Y006674D02*
Y006711D01*
X005958Y006511D02*
X005995D01*
X005958Y006619D02*
X005995D01*
X005713Y006959D02*
Y006996D01*
X005821Y006959D02*
Y006996D01*
X005428Y006511D02*
X005465D01*
X005428Y006619D02*
X005465D01*
X005243Y007839D02*
Y007876D01*
X005351Y007839D02*
Y007876D01*
X005210Y007450D02*
Y007487D01*
X005317Y007450D02*
Y007487D01*
X005432Y007450D02*
Y007487D01*
X005539Y007450D02*
Y007487D01*
X005623Y007839D02*
Y007876D01*
X005731Y007839D02*
Y007876D01*
X006310Y010701D02*
X006348D01*
X006310Y010594D02*
X006348D01*
X005958Y010591D02*
X005995D01*
X005958Y010699D02*
X005995D01*
X006308Y010241D02*
X006345D01*
X006308Y010134D02*
X006345D01*
X005166Y010076D02*
X005203D01*
X005166Y010184D02*
X005203D01*
X006310Y010084D02*
X006348D01*
X006310Y009976D02*
X006348D01*
X006298Y009621D02*
X006335D01*
X006298Y009514D02*
X006335D01*
X005711Y009624D02*
Y009661D01*
X005819Y009624D02*
Y009661D01*
X005432Y010450D02*
Y010487D01*
X005539Y010450D02*
Y010487D01*
X005210Y010450D02*
Y010487D01*
X005317Y010450D02*
Y010487D01*
X005243Y010839D02*
Y010876D01*
X005351Y010839D02*
Y010876D01*
X006598Y010301D02*
Y010339D01*
X006490Y010301D02*
Y010339D01*
X006598Y009944D02*
Y009981D01*
X006490Y009944D02*
Y009981D01*
X006598Y009674D02*
Y009711D01*
X006490Y009674D02*
Y009711D01*
X005958Y009511D02*
X005995D01*
X005958Y009619D02*
X005995D01*
X005243Y006339D02*
Y006376D01*
X005351Y006339D02*
Y006376D01*
X005432Y005950D02*
Y005987D01*
X005539Y005950D02*
Y005987D01*
X005210Y005950D02*
Y005987D01*
X005317Y005950D02*
Y005987D01*
X007457Y010720D02*
Y010758D01*
X007350Y010720D02*
Y010758D01*
X007457Y008990D02*
Y009028D01*
X007350Y008990D02*
Y009028D01*
X007457Y007260D02*
Y007298D01*
X007350Y007260D02*
Y007298D01*
Y005530D02*
Y005568D01*
X007457Y005530D02*
Y005568D01*
X010360Y012320D02*
X010398D01*
X010360Y012212D02*
X010398D01*
X009764Y010770D02*
Y010808D01*
X009871Y010770D02*
Y010808D01*
X011120Y010920D02*
Y010958D01*
X011228Y010920D02*
Y010958D01*
X011280Y010920D02*
Y010958D01*
X011388Y010920D02*
Y010958D01*
X011520Y009192D02*
Y009230D01*
X011412Y009192D02*
Y009230D01*
X011345Y009192D02*
Y009230D01*
X011238Y009192D02*
Y009230D01*
X011557Y010518D02*
X011594D01*
X011557Y010411D02*
X011594D01*
X011557Y010350D02*
X011594D01*
X011557Y010243D02*
X011594D01*
X010084Y010770D02*
Y010808D01*
X010191Y010770D02*
Y010808D01*
X009924Y010770D02*
Y010808D01*
X010031Y010770D02*
Y010808D01*
X010097Y010995D02*
X010135D01*
X010097Y011103D02*
X010135D01*
X011303Y008998D02*
X011340D01*
X011303Y008890D02*
X011340D01*
X011557Y010757D02*
X011594D01*
X011557Y010649D02*
X011594D01*
X010580Y011912D02*
Y011950D01*
X010688Y011912D02*
Y011950D01*
X010180Y011912D02*
Y011950D01*
X010288Y011912D02*
Y011950D01*
X009780Y011912D02*
Y011950D01*
X009888Y011912D02*
Y011950D01*
X010647Y009880D02*
Y009918D01*
X010755Y009880D02*
Y009918D01*
X009620Y009830D02*
X009658D01*
X009620Y009722D02*
X009658D01*
X009630Y009324D02*
Y009362D01*
X009522Y009324D02*
Y009362D01*
X010365Y009312D02*
Y009350D01*
X010257Y009312D02*
Y009350D01*
X010192Y009312D02*
Y009350D01*
X010085Y009312D02*
Y009350D01*
X009782Y009010D02*
X009820D01*
X009782Y008903D02*
X009820D01*
X010420Y008998D02*
X010458D01*
X010420Y008890D02*
X010458D01*
X010420Y010995D02*
X010457D01*
X010420Y011103D02*
X010457D01*
X010912Y011000D02*
X010950D01*
X010912Y011107D02*
X010950D01*
X009630Y010082D02*
Y010120D01*
X009522Y010082D02*
Y010120D01*
X010893Y009000D02*
X010930D01*
X010893Y008893D02*
X010930D01*
X011592Y008888D02*
X011629D01*
X011592Y008995D02*
X011629D01*
X011597Y009575D02*
Y009613D01*
X011704Y009575D02*
Y009613D01*
X011590Y010056D02*
Y010094D01*
X011697Y010056D02*
Y010094D01*
X011557Y010925D02*
X011594D01*
X011557Y010817D02*
X011594D01*
X011820Y011700D02*
X011857D01*
X011820Y011807D02*
X011857D01*
X011820Y011900D02*
X011857D01*
X011820Y012007D02*
X011857D01*
X009660Y006093D02*
X009698D01*
X009660Y005986D02*
X009698D01*
X010952Y005742D02*
Y005780D01*
X011060Y005742D02*
Y005780D01*
X011900Y007842D02*
Y007880D01*
X011793Y007842D02*
Y007880D01*
X012710Y007560D02*
X012747D01*
X012710Y007668D02*
X012747D01*
X011902Y008000D02*
X011940D01*
X011902Y008107D02*
X011940D01*
X012710Y008440D02*
X012748D01*
X012710Y008332D02*
X012748D01*
X012710Y005583D02*
X012748D01*
X012710Y005690D02*
X012748D01*
X012710Y005274D02*
X012748D01*
X012710Y005381D02*
X012748D01*
X012710Y005428D02*
X012748D01*
X012710Y005536D02*
X012748D01*
X012710Y004917D02*
X012747D01*
X012710Y004810D02*
X012747D01*
X012085Y004842D02*
X012123D01*
X012085Y004950D02*
X012123D01*
X011793Y005092D02*
Y005130D01*
X011900Y005092D02*
Y005130D01*
X011902Y005358D02*
X011940D01*
X011902Y005250D02*
X011940D01*
X011400Y005361D02*
X011438D01*
X011400Y005253D02*
X011438D01*
X011293Y005082D02*
Y005120D01*
X011400Y005082D02*
Y005120D01*
X011402Y004947D02*
X011440D01*
X011402Y004840D02*
X011440D01*
X011672Y004842D02*
X011710D01*
X011672Y004950D02*
X011710D01*
X005731Y006339D02*
Y006376D01*
X005623Y006339D02*
Y006376D01*
X005821Y005459D02*
Y005496D01*
X005713Y005459D02*
Y005496D01*
X006310Y005476D02*
X006348D01*
X006310Y005584D02*
X006348D01*
X006310Y006094D02*
X006348D01*
X006310Y006201D02*
X006348D01*
X005958Y006199D02*
X005995D01*
X005958Y006091D02*
X005995D01*
X006308Y005634D02*
X006345D01*
X006308Y005741D02*
X006345D01*
X005958Y005581D02*
X005995D01*
X005958Y005473D02*
X005995D01*
X006298Y005014D02*
X006335D01*
X006298Y005121D02*
X006335D01*
X005819Y005124D02*
Y005161D01*
X005711Y005124D02*
Y005161D01*
X005166Y005684D02*
X005203D01*
X005166Y005576D02*
X005203D01*
X006598Y006061D02*
Y006099D01*
X006490Y006061D02*
Y006099D01*
Y005801D02*
Y005839D01*
X006598Y005801D02*
Y005839D01*
X005958Y005739D02*
X005995D01*
X005958Y005631D02*
X005995D01*
X006490Y005444D02*
Y005481D01*
X006598Y005444D02*
Y005481D01*
X006490Y005174D02*
Y005211D01*
X006598Y005174D02*
Y005211D01*
X005428Y005119D02*
X005465D01*
X005428Y005011D02*
X005465D01*
X008880Y010943D02*
X008918D01*
X008880Y011050D02*
X008918D01*
X007310Y011050D02*
X007348D01*
X007310Y010943D02*
X007348D01*
X007398Y011993D02*
Y012030D01*
X007505Y011993D02*
Y012030D01*
X008750Y011993D02*
Y012030D01*
X008857Y011993D02*
Y012030D01*
X007151Y012005D02*
Y012043D01*
X007043Y012005D02*
Y012043D01*
X008888Y010550D02*
X008925D01*
X008888Y010443D02*
X008925D01*
X008918Y010722D02*
Y010760D01*
X008810Y010722D02*
Y010760D01*
X008880Y009210D02*
X008918D01*
X008880Y009318D02*
X008918D01*
X007310Y009320D02*
X007348D01*
X007310Y009212D02*
X007348D01*
X007398Y010262D02*
Y010300D01*
X007505Y010262D02*
Y010300D01*
X008750Y010262D02*
Y010300D01*
X008857Y010262D02*
Y010300D01*
X007151Y010275D02*
Y010313D01*
X007043Y010275D02*
Y010313D01*
X008888Y008820D02*
X008925D01*
X008888Y008712D02*
X008925D01*
X008918Y008992D02*
Y009030D01*
X008810Y008992D02*
Y009030D01*
X008880Y007475D02*
X008917D01*
X008880Y007582D02*
X008917D01*
X007310Y007590D02*
X007348D01*
X007310Y007482D02*
X007348D01*
X007398Y008532D02*
Y008570D01*
X007505Y008532D02*
Y008570D01*
X008750Y008532D02*
Y008570D01*
X008857Y008532D02*
Y008570D01*
X007151Y008545D02*
Y008583D01*
X007043Y008545D02*
Y008583D01*
X008888Y007090D02*
X008925D01*
X008888Y006982D02*
X008925D01*
X008918Y007262D02*
Y007300D01*
X008810Y007262D02*
Y007300D01*
X008880Y005855D02*
X008917D01*
X008880Y005747D02*
X008917D01*
X007310Y005753D02*
X007348D01*
X007310Y005860D02*
X007348D01*
X007505Y006803D02*
Y006840D01*
X007398Y006803D02*
Y006840D01*
X008857Y006803D02*
Y006840D01*
X008750Y006803D02*
Y006840D01*
X007043Y006815D02*
Y006853D01*
X007151Y006815D02*
Y006853D01*
X008888Y005245D02*
X008925D01*
X008888Y005353D02*
X008925D01*
X008810Y005532D02*
Y005570D01*
X008918Y005532D02*
Y005570D01*
D21*
X006184Y003947D02*
Y004049D01*
X006107D01*
X006082Y004024D01*
Y003947D01*
X006006D02*
X005955D01*
X005930Y003973D01*
Y004024D01*
X005955Y004049D01*
X006006D01*
X006031Y004024D01*
Y003973D01*
X006006Y003947D01*
X005879Y004049D02*
Y003947D01*
Y003998D01*
X005854Y004024D01*
X005828Y004049D01*
X005803D01*
X005727Y004100D02*
Y003947D01*
X005650D01*
X005625Y003973D01*
Y003998D01*
Y004024D01*
X005650Y004049D01*
X005727D01*
X005574D02*
Y003973D01*
X005549Y003947D01*
X005473D01*
Y003922D01*
X005498Y003897D01*
X005523D01*
X005473Y003947D02*
Y004049D01*
X005422Y003922D02*
X005320D01*
X005270Y003947D02*
X005219D01*
X005244D01*
Y004100D01*
X005270D01*
X005143Y003947D02*
Y004049D01*
X005117D01*
X005092Y004024D01*
Y003947D01*
Y004024D01*
X005066Y004049D01*
X005041Y004024D01*
Y003947D01*
X004990Y003922D02*
X004889D01*
X004813Y003947D02*
Y004100D01*
X004762D02*
Y003947D01*
X004838Y004049D02*
X004762D01*
X004736D01*
X004838Y003998D02*
X004736D01*
X004686Y003947D02*
X004635D01*
X004660D01*
Y004100D01*
X004686Y004074D01*
X004559Y003947D02*
Y003973D01*
X004533D01*
Y003947D01*
X004559D01*
X004432D02*
X004381D01*
X004406D01*
Y004100D01*
X004432Y004074D01*
D22*
X006095Y004905D02*
Y004985D01*
X006055D01*
X006042Y004972D01*
Y004945D01*
X006055Y004932D01*
X006095D01*
X006068D02*
X006042Y004905D01*
X005962D02*
X006015D01*
X005962Y004958D01*
Y004972D01*
X005975Y004985D01*
X006002D01*
X006015Y004972D01*
X005935Y004918D02*
X005922Y004905D01*
X005895D01*
X005882Y004918D01*
Y004972D01*
X005895Y004985D01*
X005922D01*
X005935Y004972D01*
Y004958D01*
X005922Y004945D01*
X005882D01*
X005855Y004892D02*
X005802D01*
X005722Y004905D02*
X005775D01*
X005722Y004958D01*
Y004972D01*
X005735Y004985D01*
X005762D01*
X005775Y004972D01*
X010131Y008555D02*
Y008635D01*
X010091D01*
X010078Y008622D01*
Y008595D01*
X010091Y008582D01*
X010131D01*
X010104D02*
X010078Y008555D01*
X010011D02*
Y008635D01*
X010051Y008595D01*
X009998D01*
X009971Y008568D02*
X009958Y008555D01*
X009931D01*
X009918Y008568D01*
Y008622D01*
X009931Y008635D01*
X009958D01*
X009971Y008622D01*
Y008608D01*
X009958Y008595D01*
X009918D01*
X010131Y008438D02*
Y008518D01*
X010091D01*
X010078Y008505D01*
Y008478D01*
X010091Y008465D01*
X010131D01*
X010104D02*
X010078Y008438D01*
X010011D02*
Y008518D01*
X010051Y008478D01*
X009998D01*
X009971Y008505D02*
X009958Y008518D01*
X009931D01*
X009918Y008505D01*
Y008491D01*
X009931Y008478D01*
X009918Y008465D01*
Y008451D01*
X009931Y008438D01*
X009958D01*
X009971Y008451D01*
Y008465D01*
X009958Y008478D01*
X009971Y008491D01*
Y008505D01*
X009958Y008478D02*
X009931D01*
X010515Y008425D02*
Y008505D01*
X010475D01*
X010462Y008492D01*
Y008465D01*
X010475Y008452D01*
X010515D01*
X010488D02*
X010462Y008425D01*
X010395D02*
Y008505D01*
X010435Y008465D01*
X010382D01*
X010355Y008505D02*
X010302D01*
Y008492D01*
X010355Y008438D01*
Y008425D01*
X009999Y008328D02*
Y008408D01*
X009959D01*
X009946Y008395D01*
Y008368D01*
X009959Y008355D01*
X009999D01*
X009973D02*
X009946Y008328D01*
X009879D02*
Y008408D01*
X009919Y008368D01*
X009866D01*
X009786Y008408D02*
X009813Y008395D01*
X009839Y008368D01*
Y008341D01*
X009826Y008328D01*
X009799D01*
X009786Y008341D01*
Y008355D01*
X009799Y008368D01*
X009839D01*
X010515Y008535D02*
Y008615D01*
X010475D01*
X010462Y008602D01*
Y008575D01*
X010475Y008562D01*
X010515D01*
X010488D02*
X010462Y008535D01*
X010395D02*
Y008615D01*
X010435Y008575D01*
X010382D01*
X010302Y008615D02*
X010355D01*
Y008575D01*
X010328Y008588D01*
X010315D01*
X010302Y008575D01*
Y008548D01*
X010315Y008535D01*
X010342D01*
X010355Y008548D01*
X010515Y008305D02*
Y008385D01*
X010475D01*
X010462Y008372D01*
Y008345D01*
X010475Y008332D01*
X010515D01*
X010488D02*
X010462Y008305D01*
X010395D02*
Y008385D01*
X010435Y008345D01*
X010382D01*
X010315Y008305D02*
Y008385D01*
X010355Y008345D01*
X010302D01*
X010515Y008195D02*
Y008275D01*
X010475D01*
X010462Y008262D01*
Y008235D01*
X010475Y008222D01*
X010515D01*
X010488D02*
X010462Y008195D01*
X010395D02*
Y008275D01*
X010435Y008235D01*
X010382D01*
X010355Y008262D02*
X010342Y008275D01*
X010315D01*
X010302Y008262D01*
Y008248D01*
X010315Y008235D01*
X010328D01*
X010315D01*
X010302Y008222D01*
Y008208D01*
X010315Y008195D01*
X010342D01*
X010355Y008208D01*
X009948Y008265D02*
X009961Y008278D01*
X009988D01*
X010001Y008265D01*
Y008211D01*
X009988Y008198D01*
X009961D01*
X009948Y008211D01*
X009921Y008265D02*
X009908Y008278D01*
X009881D01*
X009868Y008265D01*
Y008251D01*
X009881Y008238D01*
X009894D01*
X009881D01*
X009868Y008225D01*
Y008211D01*
X009881Y008198D01*
X009908D01*
X009921Y008211D01*
X009841Y008265D02*
X009828Y008278D01*
X009801D01*
X009788Y008265D01*
Y008211D01*
X009801Y008198D01*
X009828D01*
X009841Y008211D01*
Y008265D01*
X005515Y007615D02*
X005595D01*
Y007655D01*
X005582Y007668D01*
X005555D01*
X005542Y007655D01*
Y007615D01*
Y007642D02*
X005515Y007668D01*
Y007735D02*
X005595D01*
X005555Y007695D01*
Y007748D01*
X005515Y007775D02*
Y007802D01*
Y007788D01*
X005595D01*
X005582Y007775D01*
X005502Y007842D02*
Y007895D01*
X005582Y007922D02*
X005595Y007935D01*
Y007962D01*
X005582Y007975D01*
X005568D01*
X005555Y007962D01*
Y007948D01*
Y007962D01*
X005542Y007975D01*
X005528D01*
X005515Y007962D01*
Y007935D01*
X005528Y007922D01*
X005337Y007255D02*
X005417D01*
Y007295D01*
X005404Y007308D01*
X005377D01*
X005364Y007295D01*
Y007255D01*
Y007282D02*
X005337Y007308D01*
Y007375D02*
X005417D01*
X005377Y007335D01*
Y007388D01*
X005404Y007415D02*
X005417Y007428D01*
Y007455D01*
X005404Y007468D01*
X005350D01*
X005337Y007455D01*
Y007428D01*
X005350Y007415D01*
X005404D01*
X005324Y007495D02*
Y007548D01*
X005404Y007575D02*
X005417Y007588D01*
Y007615D01*
X005404Y007628D01*
X005390D01*
X005377Y007615D01*
Y007602D01*
Y007615D01*
X005364Y007628D01*
X005350D01*
X005337Y007615D01*
Y007588D01*
X005350Y007575D01*
X005100Y007260D02*
X005180D01*
Y007300D01*
X005167Y007313D01*
X005140D01*
X005127Y007300D01*
Y007260D01*
Y007287D02*
X005100Y007313D01*
X005167Y007340D02*
X005180Y007353D01*
Y007380D01*
X005167Y007393D01*
X005154D01*
X005140Y007380D01*
Y007367D01*
Y007380D01*
X005127Y007393D01*
X005114D01*
X005100Y007380D01*
Y007353D01*
X005114Y007340D01*
Y007420D02*
X005100Y007433D01*
Y007460D01*
X005114Y007473D01*
X005167D01*
X005180Y007460D01*
Y007433D01*
X005167Y007420D01*
X005154D01*
X005140Y007433D01*
Y007473D01*
X005087Y007500D02*
Y007553D01*
X005167Y007580D02*
X005180Y007593D01*
Y007620D01*
X005167Y007633D01*
X005154D01*
X005140Y007620D01*
Y007607D01*
Y007620D01*
X005127Y007633D01*
X005114D01*
X005100Y007620D01*
Y007593D01*
X005114Y007580D01*
X005125Y007735D02*
X005205D01*
Y007775D01*
X005192Y007788D01*
X005165D01*
X005152Y007775D01*
Y007735D01*
Y007762D02*
X005125Y007788D01*
X005192Y007815D02*
X005205Y007828D01*
Y007855D01*
X005192Y007868D01*
X005178D01*
X005165Y007855D01*
Y007842D01*
Y007855D01*
X005152Y007868D01*
X005138D01*
X005125Y007855D01*
Y007828D01*
X005138Y007815D01*
X005205Y007948D02*
X005192Y007922D01*
X005165Y007895D01*
X005138D01*
X005125Y007908D01*
Y007935D01*
X005138Y007948D01*
X005152D01*
X005165Y007935D01*
Y007895D01*
X005112Y007975D02*
Y008028D01*
X005192Y008055D02*
X005205Y008068D01*
Y008095D01*
X005192Y008108D01*
X005178D01*
X005165Y008095D01*
Y008082D01*
Y008095D01*
X005152Y008108D01*
X005138D01*
X005125Y008095D01*
Y008068D01*
X005138Y008055D01*
X005556Y006645D02*
Y006725D01*
X005516D01*
X005503Y006712D01*
Y006685D01*
X005516Y006672D01*
X005556D01*
X005530D02*
X005503Y006645D01*
X005476Y006712D02*
X005463Y006725D01*
X005436D01*
X005423Y006712D01*
Y006698D01*
X005436Y006685D01*
X005450D01*
X005436D01*
X005423Y006672D01*
Y006658D01*
X005436Y006645D01*
X005463D01*
X005476Y006658D01*
X005396Y006712D02*
X005383Y006725D01*
X005356D01*
X005343Y006712D01*
Y006698D01*
X005356Y006685D01*
X005370D01*
X005356D01*
X005343Y006672D01*
Y006658D01*
X005356Y006645D01*
X005383D01*
X005396Y006658D01*
X005317Y006632D02*
X005263D01*
X005237Y006712D02*
X005223Y006725D01*
X005197D01*
X005183Y006712D01*
Y006698D01*
X005197Y006685D01*
X005210D01*
X005197D01*
X005183Y006672D01*
Y006658D01*
X005197Y006645D01*
X005223D01*
X005237Y006658D01*
X005605Y006905D02*
X005685D01*
Y006945D01*
X005672Y006958D01*
X005645D01*
X005632Y006945D01*
Y006905D01*
Y006932D02*
X005605Y006958D01*
X005672Y006985D02*
X005685Y006998D01*
Y007025D01*
X005672Y007038D01*
X005658D01*
X005645Y007025D01*
Y007012D01*
Y007025D01*
X005632Y007038D01*
X005618D01*
X005605Y007025D01*
Y006998D01*
X005618Y006985D01*
X005605Y007065D02*
Y007092D01*
Y007078D01*
X005685D01*
X005672Y007065D01*
X005592Y007132D02*
Y007185D01*
X005672Y007212D02*
X005685Y007225D01*
Y007252D01*
X005672Y007265D01*
X005658D01*
X005645Y007252D01*
Y007238D01*
Y007252D01*
X005632Y007265D01*
X005618D01*
X005605Y007252D01*
Y007225D01*
X005618Y007212D01*
X006095Y006645D02*
Y006725D01*
X006055D01*
X006042Y006712D01*
Y006685D01*
X006055Y006672D01*
X006095D01*
X006068D02*
X006042Y006645D01*
X005962D02*
X006015D01*
X005962Y006698D01*
Y006712D01*
X005975Y006725D01*
X006002D01*
X006015Y006712D01*
X005935Y006658D02*
X005922Y006645D01*
X005895D01*
X005882Y006658D01*
Y006712D01*
X005895Y006725D01*
X005922D01*
X005935Y006712D01*
Y006698D01*
X005922Y006685D01*
X005882D01*
X005855Y006632D02*
X005802D01*
X005775Y006712D02*
X005762Y006725D01*
X005735D01*
X005722Y006712D01*
Y006698D01*
X005735Y006685D01*
X005748D01*
X005735D01*
X005722Y006672D01*
Y006658D01*
X005735Y006645D01*
X005762D01*
X005775Y006658D01*
X006395Y006585D02*
X006475D01*
Y006625D01*
X006462Y006638D01*
X006435D01*
X006422Y006625D01*
Y006585D01*
Y006612D02*
X006395Y006638D01*
Y006718D02*
Y006665D01*
X006448Y006718D01*
X006462D01*
X006475Y006705D01*
Y006678D01*
X006462Y006665D01*
Y006745D02*
X006475Y006758D01*
Y006785D01*
X006462Y006798D01*
X006448D01*
X006435Y006785D01*
X006422Y006798D01*
X006408D01*
X006395Y006785D01*
Y006758D01*
X006408Y006745D01*
X006422D01*
X006435Y006758D01*
X006448Y006745D01*
X006462D01*
X006435Y006758D02*
Y006785D01*
X006382Y006825D02*
Y006878D01*
X006462Y006905D02*
X006475Y006918D01*
Y006945D01*
X006462Y006958D01*
X006448D01*
X006435Y006945D01*
Y006932D01*
Y006945D01*
X006422Y006958D01*
X006408D01*
X006395Y006945D01*
Y006918D01*
X006408Y006905D01*
X006624Y006855D02*
X006704D01*
Y006895D01*
X006690Y006908D01*
X006664D01*
X006650Y006895D01*
Y006855D01*
Y006882D02*
X006624Y006908D01*
Y006988D02*
Y006935D01*
X006677Y006988D01*
X006690D01*
X006704Y006975D01*
Y006948D01*
X006690Y006935D01*
X006704Y007015D02*
Y007068D01*
X006690D01*
X006637Y007015D01*
X006624D01*
X006610Y007095D02*
Y007148D01*
X006690Y007175D02*
X006704Y007188D01*
Y007215D01*
X006690Y007228D01*
X006677D01*
X006664Y007215D01*
Y007202D01*
Y007215D01*
X006650Y007228D01*
X006637D01*
X006624Y007215D01*
Y007188D01*
X006637Y007175D01*
X006095Y007385D02*
Y007465D01*
X006055D01*
X006042Y007452D01*
Y007425D01*
X006055Y007412D01*
X006095D01*
X006068D02*
X006042Y007385D01*
X005962D02*
X006015D01*
X005962Y007438D01*
Y007452D01*
X005975Y007465D01*
X006002D01*
X006015Y007452D01*
X005935D02*
X005922Y007465D01*
X005895D01*
X005882Y007452D01*
Y007438D01*
X005895Y007425D01*
X005908D01*
X005895D01*
X005882Y007412D01*
Y007398D01*
X005895Y007385D01*
X005922D01*
X005935Y007398D01*
X005855Y007372D02*
X005802D01*
X005775Y007452D02*
X005762Y007465D01*
X005735D01*
X005722Y007452D01*
Y007438D01*
X005735Y007425D01*
X005748D01*
X005735D01*
X005722Y007412D01*
Y007398D01*
X005735Y007385D01*
X005762D01*
X005775Y007398D01*
X006385Y007205D02*
X006465D01*
Y007245D01*
X006452Y007258D01*
X006425D01*
X006412Y007245D01*
Y007205D01*
Y007232D02*
X006385Y007258D01*
Y007338D02*
Y007285D01*
X006438Y007338D01*
X006452D01*
X006465Y007325D01*
Y007298D01*
X006452Y007285D01*
X006385Y007418D02*
Y007365D01*
X006438Y007418D01*
X006452D01*
X006465Y007405D01*
Y007378D01*
X006452Y007365D01*
X006372Y007445D02*
Y007498D01*
X006452Y007525D02*
X006465Y007538D01*
Y007565D01*
X006452Y007578D01*
X006438D01*
X006425Y007565D01*
Y007552D01*
Y007565D01*
X006412Y007578D01*
X006398D01*
X006385Y007565D01*
Y007538D01*
X006398Y007525D01*
X006615Y007465D02*
X006695D01*
Y007505D01*
X006682Y007518D01*
X006655D01*
X006642Y007505D01*
Y007465D01*
Y007492D02*
X006615Y007518D01*
Y007598D02*
Y007545D01*
X006668Y007598D01*
X006682D01*
X006695Y007585D01*
Y007558D01*
X006682Y007545D01*
X006615Y007625D02*
Y007652D01*
Y007638D01*
X006695D01*
X006682Y007625D01*
X006602Y007692D02*
Y007745D01*
X006682Y007772D02*
X006695Y007785D01*
Y007812D01*
X006682Y007825D01*
X006668D01*
X006655Y007812D01*
Y007798D01*
Y007812D01*
X006642Y007825D01*
X006628D01*
X006615Y007812D01*
Y007785D01*
X006628Y007772D01*
X005242Y007032D02*
X005255Y007045D01*
X005282D01*
X005295Y007032D01*
Y006978D01*
X005282Y006965D01*
X005255D01*
X005242Y006978D01*
X005162Y006965D02*
X005215D01*
X005162Y007018D01*
Y007032D01*
X005175Y007045D01*
X005202D01*
X005215Y007032D01*
X005135Y006978D02*
X005122Y006965D01*
X005095D01*
X005082Y006978D01*
Y007032D01*
X005095Y007045D01*
X005122D01*
X005135Y007032D01*
Y007018D01*
X005122Y007005D01*
X005082D01*
X005055Y006952D02*
X005002D01*
X004975Y007032D02*
X004962Y007045D01*
X004935D01*
X004922Y007032D01*
Y007018D01*
X004935Y007005D01*
X004948D01*
X004935D01*
X004922Y006992D01*
Y006978D01*
X004935Y006965D01*
X004962D01*
X004975Y006978D01*
X005672Y006564D02*
X005685Y006551D01*
Y006524D01*
X005672Y006511D01*
X005618D01*
X005605Y006524D01*
Y006551D01*
X005618Y006564D01*
X005605Y006644D02*
Y006591D01*
X005658Y006644D01*
X005672D01*
X005685Y006631D01*
Y006604D01*
X005672Y006591D01*
Y006671D02*
X005685Y006684D01*
Y006711D01*
X005672Y006724D01*
X005658D01*
X005645Y006711D01*
X005632Y006724D01*
X005618D01*
X005605Y006711D01*
Y006684D01*
X005618Y006671D01*
X005632D01*
X005645Y006684D01*
X005658Y006671D01*
X005672D01*
X005645Y006684D02*
Y006711D01*
X005592Y006751D02*
Y006804D01*
X005672Y006831D02*
X005685Y006844D01*
Y006871D01*
X005672Y006884D01*
X005658D01*
X005645Y006871D01*
Y006858D01*
Y006871D01*
X005632Y006884D01*
X005618D01*
X005605Y006871D01*
Y006844D01*
X005618Y006831D01*
X006292Y006472D02*
X006305Y006485D01*
X006332D01*
X006345Y006472D01*
Y006418D01*
X006332Y006405D01*
X006305D01*
X006292Y006418D01*
X006212Y006405D02*
X006265D01*
X006212Y006458D01*
Y006472D01*
X006225Y006485D01*
X006252D01*
X006265Y006472D01*
X006132Y006485D02*
X006159Y006472D01*
X006185Y006445D01*
Y006418D01*
X006172Y006405D01*
X006145D01*
X006132Y006418D01*
Y006432D01*
X006145Y006445D01*
X006185D01*
X006106Y006392D02*
X006052D01*
X006026Y006472D02*
X006012Y006485D01*
X005986D01*
X005972Y006472D01*
Y006458D01*
X005986Y006445D01*
X005999D01*
X005986D01*
X005972Y006432D01*
Y006418D01*
X005986Y006405D01*
X006012D01*
X006026Y006418D01*
X006042Y006827D02*
X006055Y006840D01*
X006082D01*
X006095Y006827D01*
Y006773D01*
X006082Y006760D01*
X006055D01*
X006042Y006773D01*
X005962Y006760D02*
X006015D01*
X005962Y006813D01*
Y006827D01*
X005975Y006840D01*
X006002D01*
X006015Y006827D01*
X005882Y006840D02*
X005935D01*
Y006800D01*
X005908Y006813D01*
X005895D01*
X005882Y006800D01*
Y006773D01*
X005895Y006760D01*
X005922D01*
X005935Y006773D01*
X005855Y006747D02*
X005802D01*
X005775Y006827D02*
X005762Y006840D01*
X005735D01*
X005722Y006827D01*
Y006813D01*
X005735Y006800D01*
X005748D01*
X005735D01*
X005722Y006787D01*
Y006773D01*
X005735Y006760D01*
X005762D01*
X005775Y006773D01*
X006292Y007338D02*
X006305Y007351D01*
X006332D01*
X006345Y007338D01*
Y007284D01*
X006332Y007271D01*
X006305D01*
X006292Y007284D01*
X006212Y007271D02*
X006265D01*
X006212Y007324D01*
Y007338D01*
X006225Y007351D01*
X006252D01*
X006265Y007338D01*
X006145Y007271D02*
Y007351D01*
X006185Y007311D01*
X006132D01*
X006106Y007258D02*
X006052D01*
X006026Y007338D02*
X006012Y007351D01*
X005986D01*
X005972Y007338D01*
Y007324D01*
X005986Y007311D01*
X005999D01*
X005986D01*
X005972Y007298D01*
Y007284D01*
X005986Y007271D01*
X006012D01*
X006026Y007284D01*
X006042Y007554D02*
X006055Y007567D01*
X006082D01*
X006095Y007554D01*
Y007500D01*
X006082Y007487D01*
X006055D01*
X006042Y007500D01*
X005962Y007487D02*
X006015D01*
X005962Y007540D01*
Y007554D01*
X005975Y007567D01*
X006002D01*
X006015Y007554D01*
X005935D02*
X005922Y007567D01*
X005895D01*
X005882Y007554D01*
Y007540D01*
X005895Y007527D01*
X005908D01*
X005895D01*
X005882Y007514D01*
Y007500D01*
X005895Y007487D01*
X005922D01*
X005935Y007500D01*
X005855Y007474D02*
X005802D01*
X005775Y007554D02*
X005762Y007567D01*
X005735D01*
X005722Y007554D01*
Y007540D01*
X005735Y007527D01*
X005748D01*
X005735D01*
X005722Y007514D01*
Y007500D01*
X005735Y007487D01*
X005762D01*
X005775Y007500D01*
X006302Y007792D02*
X006315Y007805D01*
X006342D01*
X006355Y007792D01*
Y007738D01*
X006342Y007725D01*
X006315D01*
X006302Y007738D01*
X006222Y007725D02*
X006275D01*
X006222Y007778D01*
Y007792D01*
X006235Y007805D01*
X006262D01*
X006275Y007792D01*
X006142Y007725D02*
X006195D01*
X006142Y007778D01*
Y007792D01*
X006155Y007805D01*
X006182D01*
X006195Y007792D01*
X006115Y007712D02*
X006062D01*
X006035Y007792D02*
X006022Y007805D01*
X005995D01*
X005982Y007792D01*
Y007778D01*
X005995Y007765D01*
X006008D01*
X005995D01*
X005982Y007752D01*
Y007738D01*
X005995Y007725D01*
X006022D01*
X006035Y007738D01*
X006292Y006925D02*
X006305Y006938D01*
X006332D01*
X006345Y006925D01*
Y006872D01*
X006332Y006858D01*
X006305D01*
X006292Y006872D01*
X006212Y006858D02*
X006265D01*
X006212Y006912D01*
Y006925D01*
X006225Y006938D01*
X006252D01*
X006265Y006925D01*
X006185Y006858D02*
X006158D01*
X006172D01*
Y006938D01*
X006185Y006925D01*
X006118Y006845D02*
X006065D01*
X006038Y006925D02*
X006025Y006938D01*
X005998D01*
X005985Y006925D01*
Y006912D01*
X005998Y006898D01*
X006012D01*
X005998D01*
X005985Y006885D01*
Y006872D01*
X005998Y006858D01*
X006025D01*
X006038Y006872D01*
X005181Y009588D02*
X005101D01*
Y009548D01*
X005115Y009535D01*
X005141D01*
X005155Y009548D01*
Y009588D01*
Y009562D02*
X005181Y009535D01*
X005115Y009508D02*
X005101Y009495D01*
Y009468D01*
X005115Y009455D01*
X005128D01*
X005141Y009468D01*
Y009482D01*
Y009468D01*
X005155Y009455D01*
X005168D01*
X005181Y009468D01*
Y009495D01*
X005168Y009508D01*
X005115Y009428D02*
X005101Y009415D01*
Y009388D01*
X005115Y009375D01*
X005128D01*
X005141Y009388D01*
Y009402D01*
Y009388D01*
X005155Y009375D01*
X005168D01*
X005181Y009388D01*
Y009415D01*
X005168Y009428D01*
X005195Y009348D02*
Y009295D01*
X005101Y009215D02*
Y009269D01*
X005141D01*
X005128Y009242D01*
Y009229D01*
X005141Y009215D01*
X005168D01*
X005181Y009229D01*
Y009255D01*
X005168Y009269D01*
X006195Y009645D02*
Y009725D01*
X006155D01*
X006142Y009712D01*
Y009685D01*
X006155Y009672D01*
X006195D01*
X006168D02*
X006142Y009645D01*
X006062D02*
X006115D01*
X006062Y009698D01*
Y009712D01*
X006075Y009725D01*
X006102D01*
X006115Y009712D01*
X006035Y009658D02*
X006022Y009645D01*
X005995D01*
X005982Y009658D01*
Y009712D01*
X005995Y009725D01*
X006022D01*
X006035Y009712D01*
Y009698D01*
X006022Y009685D01*
X005982D01*
X005955Y009632D02*
X005902D01*
X005822Y009725D02*
X005875D01*
Y009685D01*
X005848Y009698D01*
X005835D01*
X005822Y009685D01*
Y009658D01*
X005835Y009645D01*
X005862D01*
X005875Y009658D01*
X006375Y009569D02*
X006455D01*
Y009609D01*
X006442Y009623D01*
X006415D01*
X006402Y009609D01*
Y009569D01*
Y009596D02*
X006375Y009623D01*
Y009703D02*
Y009649D01*
X006428Y009703D01*
X006442D01*
X006455Y009689D01*
Y009663D01*
X006442Y009649D01*
Y009729D02*
X006455Y009743D01*
Y009769D01*
X006442Y009783D01*
X006428D01*
X006415Y009769D01*
X006402Y009783D01*
X006388D01*
X006375Y009769D01*
Y009743D01*
X006388Y009729D01*
X006402D01*
X006415Y009743D01*
X006428Y009729D01*
X006442D01*
X006415Y009743D02*
Y009769D01*
X006362Y009809D02*
Y009863D01*
X006455Y009943D02*
Y009889D01*
X006415D01*
X006428Y009916D01*
Y009929D01*
X006415Y009943D01*
X006388D01*
X006375Y009929D01*
Y009903D01*
X006388Y009889D01*
X006625Y009845D02*
X006705D01*
Y009885D01*
X006692Y009898D01*
X006665D01*
X006652Y009885D01*
Y009845D01*
Y009872D02*
X006625Y009898D01*
Y009978D02*
Y009925D01*
X006678Y009978D01*
X006692D01*
X006705Y009965D01*
Y009938D01*
X006692Y009925D01*
X006705Y010005D02*
Y010058D01*
X006692D01*
X006638Y010005D01*
X006625D01*
X006612Y010085D02*
Y010138D01*
X006705Y010218D02*
Y010165D01*
X006665D01*
X006678Y010192D01*
Y010205D01*
X006665Y010218D01*
X006638D01*
X006625Y010205D01*
Y010178D01*
X006638Y010165D01*
X005615Y009855D02*
X005695D01*
Y009895D01*
X005682Y009908D01*
X005655D01*
X005642Y009895D01*
Y009855D01*
Y009882D02*
X005615Y009908D01*
X005682Y009935D02*
X005695Y009948D01*
Y009975D01*
X005682Y009988D01*
X005668D01*
X005655Y009975D01*
Y009962D01*
Y009975D01*
X005642Y009988D01*
X005628D01*
X005615Y009975D01*
Y009948D01*
X005628Y009935D01*
X005615Y010015D02*
Y010042D01*
Y010028D01*
X005695D01*
X005682Y010015D01*
X005602Y010082D02*
Y010135D01*
X005695Y010215D02*
Y010162D01*
X005655D01*
X005668Y010188D01*
Y010202D01*
X005655Y010215D01*
X005628D01*
X005615Y010202D01*
Y010175D01*
X005628Y010162D01*
X006175Y010380D02*
Y010459D01*
X006135D01*
X006122Y010446D01*
Y010420D01*
X006135Y010406D01*
X006175D01*
X006148D02*
X006122Y010380D01*
X006042D02*
X006095D01*
X006042Y010433D01*
Y010446D01*
X006055Y010459D01*
X006082D01*
X006095Y010446D01*
X006015D02*
X006002Y010459D01*
X005975D01*
X005962Y010446D01*
Y010433D01*
X005975Y010420D01*
X005988D01*
X005975D01*
X005962Y010406D01*
Y010393D01*
X005975Y010380D01*
X006002D01*
X006015Y010393D01*
X005935Y010366D02*
X005882D01*
X005802Y010459D02*
X005855D01*
Y010420D01*
X005828Y010433D01*
X005815D01*
X005802Y010420D01*
Y010393D01*
X005815Y010380D01*
X005842D01*
X005855Y010393D01*
X006385Y010209D02*
X006465D01*
Y010249D01*
X006452Y010262D01*
X006425D01*
X006412Y010249D01*
Y010209D01*
Y010236D02*
X006385Y010262D01*
Y010342D02*
Y010289D01*
X006438Y010342D01*
X006452D01*
X006465Y010329D01*
Y010302D01*
X006452Y010289D01*
X006385Y010422D02*
Y010369D01*
X006438Y010422D01*
X006452D01*
X006465Y010409D01*
Y010382D01*
X006452Y010369D01*
X006372Y010449D02*
Y010502D01*
X006465Y010582D02*
Y010529D01*
X006425D01*
X006438Y010555D01*
Y010569D01*
X006425Y010582D01*
X006398D01*
X006385Y010569D01*
Y010542D01*
X006398Y010529D01*
X006625Y010475D02*
X006705D01*
Y010515D01*
X006692Y010528D01*
X006665D01*
X006652Y010515D01*
Y010475D01*
Y010502D02*
X006625Y010528D01*
Y010608D02*
Y010555D01*
X006678Y010608D01*
X006692D01*
X006705Y010595D01*
Y010568D01*
X006692Y010555D01*
X006625Y010635D02*
Y010662D01*
Y010648D01*
X006705D01*
X006692Y010635D01*
X006612Y010702D02*
Y010755D01*
X006705Y010835D02*
Y010782D01*
X006665D01*
X006678Y010808D01*
Y010822D01*
X006665Y010835D01*
X006638D01*
X006625Y010822D01*
Y010795D01*
X006638Y010782D01*
X005505Y010745D02*
X005585D01*
Y010785D01*
X005572Y010798D01*
X005545D01*
X005532Y010785D01*
Y010745D01*
Y010772D02*
X005505Y010798D01*
Y010865D02*
X005585D01*
X005545Y010825D01*
Y010878D01*
X005505Y010905D02*
Y010932D01*
Y010918D01*
X005585D01*
X005572Y010905D01*
X005492Y010972D02*
Y011025D01*
X005585Y011105D02*
Y011052D01*
X005545D01*
X005558Y011078D01*
Y011092D01*
X005545Y011105D01*
X005518D01*
X005505Y011092D01*
Y011065D01*
X005518Y011052D01*
X005215Y010815D02*
Y010895D01*
X005175D01*
X005162Y010882D01*
Y010855D01*
X005175Y010842D01*
X005215D01*
X005188D02*
X005162Y010815D01*
X005135Y010882D02*
X005122Y010895D01*
X005095D01*
X005082Y010882D01*
Y010868D01*
X005095Y010855D01*
X005108D01*
X005095D01*
X005082Y010842D01*
Y010828D01*
X005095Y010815D01*
X005122D01*
X005135Y010828D01*
X005002Y010895D02*
X005028Y010882D01*
X005055Y010855D01*
Y010828D01*
X005042Y010815D01*
X005015D01*
X005002Y010828D01*
Y010842D01*
X005015Y010855D01*
X005055D01*
X004975Y010802D02*
X004922D01*
X004842Y010895D02*
X004895D01*
Y010855D01*
X004868Y010868D01*
X004855D01*
X004842Y010855D01*
Y010828D01*
X004855Y010815D01*
X004882D01*
X004895Y010828D01*
X005556Y008152D02*
Y008232D01*
X005516D01*
X005503Y008219D01*
Y008192D01*
X005516Y008179D01*
X005556D01*
X005530D02*
X005503Y008152D01*
X005476Y008219D02*
X005463Y008232D01*
X005436D01*
X005423Y008219D01*
Y008206D01*
X005436Y008192D01*
X005450D01*
X005436D01*
X005423Y008179D01*
Y008166D01*
X005436Y008152D01*
X005463D01*
X005476Y008166D01*
X005396Y008219D02*
X005383Y008232D01*
X005356D01*
X005343Y008219D01*
Y008206D01*
X005356Y008192D01*
X005370D01*
X005356D01*
X005343Y008179D01*
Y008166D01*
X005356Y008152D01*
X005383D01*
X005396Y008166D01*
X005317Y008139D02*
X005263D01*
X005197Y008152D02*
Y008232D01*
X005237Y008192D01*
X005183D01*
X006085Y007905D02*
Y007985D01*
X006045D01*
X006032Y007972D01*
Y007945D01*
X006045Y007932D01*
X006085D01*
X006058D02*
X006032Y007905D01*
X005952D02*
X006005D01*
X005952Y007958D01*
Y007972D01*
X005965Y007985D01*
X005992D01*
X006005Y007972D01*
X005925Y007918D02*
X005912Y007905D01*
X005885D01*
X005872Y007918D01*
Y007972D01*
X005885Y007985D01*
X005912D01*
X005925Y007972D01*
Y007958D01*
X005912Y007945D01*
X005872D01*
X005845Y007892D02*
X005792D01*
X005725Y007905D02*
Y007985D01*
X005765Y007945D01*
X005712D01*
X006625Y008325D02*
X006705D01*
Y008365D01*
X006692Y008378D01*
X006665D01*
X006652Y008365D01*
Y008325D01*
Y008352D02*
X006625Y008378D01*
Y008458D02*
Y008405D01*
X006678Y008458D01*
X006692D01*
X006705Y008445D01*
Y008418D01*
X006692Y008405D01*
Y008485D02*
X006705Y008498D01*
Y008525D01*
X006692Y008538D01*
X006678D01*
X006665Y008525D01*
X006652Y008538D01*
X006638D01*
X006625Y008525D01*
Y008498D01*
X006638Y008485D01*
X006652D01*
X006665Y008498D01*
X006678Y008485D01*
X006692D01*
X006665Y008498D02*
Y008525D01*
X006612Y008565D02*
Y008618D01*
X006625Y008685D02*
X006705D01*
X006665Y008645D01*
Y008698D01*
X006385Y008015D02*
X006465D01*
Y008055D01*
X006452Y008068D01*
X006425D01*
X006412Y008055D01*
Y008015D01*
Y008042D02*
X006385Y008068D01*
Y008148D02*
Y008095D01*
X006438Y008148D01*
X006452D01*
X006465Y008135D01*
Y008108D01*
X006452Y008095D01*
X006465Y008175D02*
Y008228D01*
X006452D01*
X006398Y008175D01*
X006385D01*
X006372Y008255D02*
Y008308D01*
X006385Y008375D02*
X006465D01*
X006425Y008335D01*
Y008388D01*
X005688Y008515D02*
Y008595D01*
X005648D01*
X005635Y008582D01*
Y008555D01*
X005648Y008542D01*
X005688D01*
X005662D02*
X005635Y008515D01*
X005608Y008582D02*
X005595Y008595D01*
X005568D01*
X005555Y008582D01*
Y008568D01*
X005568Y008555D01*
X005582D01*
X005568D01*
X005555Y008542D01*
Y008528D01*
X005568Y008515D01*
X005595D01*
X005608Y008528D01*
X005528Y008515D02*
X005502D01*
X005515D01*
Y008595D01*
X005528Y008582D01*
X005462Y008502D02*
X005408D01*
X005342Y008515D02*
Y008595D01*
X005382Y008555D01*
X005328D01*
X005825Y008645D02*
Y008725D01*
X005785D01*
X005772Y008712D01*
Y008685D01*
X005785Y008672D01*
X005825D01*
X005798D02*
X005772Y008645D01*
X005692D02*
X005745D01*
X005692Y008698D01*
Y008712D01*
X005705Y008725D01*
X005732D01*
X005745Y008712D01*
X005665D02*
X005652Y008725D01*
X005625D01*
X005612Y008712D01*
Y008698D01*
X005625Y008685D01*
X005638D01*
X005625D01*
X005612Y008672D01*
Y008658D01*
X005625Y008645D01*
X005652D01*
X005665Y008658D01*
X005585Y008632D02*
X005532D01*
X005465Y008645D02*
Y008725D01*
X005505Y008685D01*
X005452D01*
X006395Y008722D02*
X006475D01*
Y008762D01*
X006462Y008776D01*
X006435D01*
X006422Y008762D01*
Y008722D01*
Y008749D02*
X006395Y008776D01*
Y008856D02*
Y008802D01*
X006448Y008856D01*
X006462D01*
X006475Y008842D01*
Y008816D01*
X006462Y008802D01*
X006395Y008936D02*
Y008882D01*
X006448Y008936D01*
X006462D01*
X006475Y008922D01*
Y008896D01*
X006462Y008882D01*
X006382Y008962D02*
Y009016D01*
X006395Y009082D02*
X006475D01*
X006435Y009042D01*
Y009095D01*
X006625Y008965D02*
X006705D01*
Y009005D01*
X006692Y009018D01*
X006665D01*
X006652Y009005D01*
Y008965D01*
Y008992D02*
X006625Y009018D01*
Y009098D02*
Y009045D01*
X006678Y009098D01*
X006692D01*
X006705Y009085D01*
Y009058D01*
X006692Y009045D01*
X006625Y009125D02*
Y009152D01*
Y009138D01*
X006705D01*
X006692Y009125D01*
X006612Y009192D02*
Y009245D01*
X006625Y009312D02*
X006705D01*
X006665Y009272D01*
Y009325D01*
X005505Y009215D02*
X005585D01*
Y009255D01*
X005572Y009268D01*
X005545D01*
X005532Y009255D01*
Y009215D01*
Y009242D02*
X005505Y009268D01*
Y009335D02*
X005585D01*
X005545Y009295D01*
Y009348D01*
X005505Y009375D02*
Y009402D01*
Y009388D01*
X005585D01*
X005572Y009375D01*
X005492Y009442D02*
Y009495D01*
X005505Y009562D02*
X005585D01*
X005545Y009522D01*
Y009575D01*
X005313Y009569D02*
Y009649D01*
X005273D01*
X005260Y009636D01*
Y009609D01*
X005273Y009596D01*
X005313D01*
X005287D02*
X005260Y009569D01*
X005233Y009636D02*
X005220Y009649D01*
X005193D01*
X005180Y009636D01*
Y009623D01*
X005193Y009609D01*
X005207D01*
X005193D01*
X005180Y009596D01*
Y009583D01*
X005193Y009569D01*
X005220D01*
X005233Y009583D01*
X005100Y009649D02*
X005127Y009636D01*
X005154Y009609D01*
Y009583D01*
X005140Y009569D01*
X005114D01*
X005100Y009583D01*
Y009596D01*
X005114Y009609D01*
X005154D01*
X005074Y009556D02*
X005020D01*
X004954Y009569D02*
Y009649D01*
X004994Y009609D01*
X004940D01*
X005305Y011025D02*
Y011105D01*
X005265D01*
X005252Y011092D01*
Y011065D01*
X005265Y011052D01*
X005305D01*
X005278D02*
X005252Y011025D01*
X005225Y011092D02*
X005212Y011105D01*
X005185D01*
X005172Y011092D01*
Y011078D01*
X005185Y011065D01*
X005198D01*
X005185D01*
X005172Y011052D01*
Y011038D01*
X005185Y011025D01*
X005212D01*
X005225Y011038D01*
X005145Y011092D02*
X005132Y011105D01*
X005105D01*
X005092Y011092D01*
Y011078D01*
X005105Y011065D01*
X005118D01*
X005105D01*
X005092Y011052D01*
Y011038D01*
X005105Y011025D01*
X005132D01*
X005145Y011038D01*
X005065Y011012D02*
X005012D01*
X004985Y011025D02*
X004958D01*
X004972D01*
Y011105D01*
X004985Y011092D01*
X006185Y011145D02*
Y011225D01*
X006145D01*
X006132Y011212D01*
Y011185D01*
X006145Y011172D01*
X006185D01*
X006158D02*
X006132Y011145D01*
X006052D02*
X006105D01*
X006052Y011198D01*
Y011212D01*
X006065Y011225D01*
X006092D01*
X006105Y011212D01*
X006025Y011158D02*
X006012Y011145D01*
X005985D01*
X005972Y011158D01*
Y011212D01*
X005985Y011225D01*
X006012D01*
X006025Y011212D01*
Y011198D01*
X006012Y011185D01*
X005972D01*
X005945Y011132D02*
X005892D01*
X005865Y011145D02*
X005838D01*
X005852D01*
Y011225D01*
X005865Y011212D01*
X006385Y011085D02*
X006465D01*
Y011125D01*
X006452Y011138D01*
X006425D01*
X006412Y011125D01*
Y011085D01*
Y011112D02*
X006385Y011138D01*
Y011218D02*
Y011165D01*
X006438Y011218D01*
X006452D01*
X006465Y011205D01*
Y011178D01*
X006452Y011165D01*
Y011245D02*
X006465Y011258D01*
Y011285D01*
X006452Y011298D01*
X006438D01*
X006425Y011285D01*
X006412Y011298D01*
X006398D01*
X006385Y011285D01*
Y011258D01*
X006398Y011245D01*
X006412D01*
X006425Y011258D01*
X006438Y011245D01*
X006452D01*
X006425Y011258D02*
Y011285D01*
X006372Y011325D02*
Y011378D01*
X006385Y011405D02*
Y011432D01*
Y011418D01*
X006465D01*
X006452Y011405D01*
X006615Y011345D02*
X006695D01*
Y011385D01*
X006682Y011398D01*
X006655D01*
X006642Y011385D01*
Y011345D01*
Y011372D02*
X006615Y011398D01*
Y011478D02*
Y011425D01*
X006668Y011478D01*
X006682D01*
X006695Y011465D01*
Y011438D01*
X006682Y011425D01*
X006695Y011505D02*
Y011558D01*
X006682D01*
X006628Y011505D01*
X006615D01*
X006602Y011585D02*
Y011638D01*
X006615Y011665D02*
Y011692D01*
Y011678D01*
X006695D01*
X006682Y011665D01*
X005618Y011305D02*
X005698D01*
Y011345D01*
X005685Y011358D01*
X005658D01*
X005645Y011345D01*
Y011305D01*
Y011332D02*
X005618Y011358D01*
X005685Y011385D02*
X005698Y011398D01*
Y011425D01*
X005685Y011438D01*
X005672D01*
X005658Y011425D01*
Y011412D01*
Y011425D01*
X005645Y011438D01*
X005632D01*
X005618Y011425D01*
Y011398D01*
X005632Y011385D01*
X005618Y011465D02*
Y011492D01*
Y011478D01*
X005698D01*
X005685Y011465D01*
X005605Y011532D02*
Y011585D01*
X005618Y011612D02*
Y011638D01*
Y011625D01*
X005698D01*
X005685Y011612D01*
X005825Y011655D02*
Y011735D01*
X005785D01*
X005772Y011722D01*
Y011695D01*
X005785Y011682D01*
X005825D01*
X005798D02*
X005772Y011655D01*
X005692D02*
X005745D01*
X005692Y011708D01*
Y011722D01*
X005705Y011735D01*
X005732D01*
X005745Y011722D01*
X005665D02*
X005652Y011735D01*
X005625D01*
X005612Y011722D01*
Y011708D01*
X005625Y011695D01*
X005638D01*
X005625D01*
X005612Y011682D01*
Y011668D01*
X005625Y011655D01*
X005652D01*
X005665Y011668D01*
X005585Y011642D02*
X005532D01*
X005505Y011655D02*
X005478D01*
X005492D01*
Y011735D01*
X005505Y011722D01*
X006385Y011705D02*
X006465D01*
Y011745D01*
X006452Y011758D01*
X006425D01*
X006412Y011745D01*
Y011705D01*
Y011732D02*
X006385Y011758D01*
Y011838D02*
Y011785D01*
X006439Y011838D01*
X006452D01*
X006465Y011825D01*
Y011798D01*
X006452Y011785D01*
X006385Y011918D02*
Y011865D01*
X006439Y011918D01*
X006452D01*
X006465Y011905D01*
Y011878D01*
X006452Y011865D01*
X006372Y011945D02*
Y011998D01*
X006385Y012025D02*
Y012052D01*
Y012038D01*
X006465D01*
X006452Y012025D01*
X006615Y011965D02*
X006695D01*
Y012005D01*
X006682Y012018D01*
X006655D01*
X006642Y012005D01*
Y011965D01*
Y011992D02*
X006615Y012018D01*
Y012098D02*
Y012045D01*
X006668Y012098D01*
X006682D01*
X006695Y012085D01*
Y012058D01*
X006682Y012045D01*
X006615Y012125D02*
Y012152D01*
Y012138D01*
X006695D01*
X006682Y012125D01*
X006602Y012192D02*
Y012245D01*
X006615Y012272D02*
Y012298D01*
Y012285D01*
X006695D01*
X006682Y012272D01*
X005515Y012245D02*
X005595D01*
Y012285D01*
X005582Y012298D01*
X005555D01*
X005542Y012285D01*
Y012245D01*
Y012272D02*
X005515Y012298D01*
Y012365D02*
X005595D01*
X005555Y012325D01*
Y012378D01*
X005515Y012405D02*
Y012432D01*
Y012418D01*
X005595D01*
X005582Y012405D01*
X005502Y012472D02*
Y012525D01*
X005515Y012552D02*
Y012578D01*
Y012565D01*
X005595D01*
X005582Y012552D01*
X005135Y012235D02*
X005215D01*
Y012275D01*
X005202Y012288D01*
X005175D01*
X005162Y012275D01*
Y012235D01*
Y012262D02*
X005135Y012288D01*
X005202Y012315D02*
X005215Y012328D01*
Y012355D01*
X005202Y012368D01*
X005188D01*
X005175Y012355D01*
Y012342D01*
Y012355D01*
X005162Y012368D01*
X005148D01*
X005135Y012355D01*
Y012328D01*
X005148Y012315D01*
X005215Y012448D02*
X005202Y012422D01*
X005175Y012395D01*
X005148D01*
X005135Y012408D01*
Y012435D01*
X005148Y012448D01*
X005162D01*
X005175Y012435D01*
Y012395D01*
X005122Y012475D02*
Y012528D01*
X005135Y012555D02*
Y012582D01*
Y012568D01*
X005215D01*
X005202Y012555D01*
X005115Y010225D02*
X005195D01*
Y010265D01*
X005182Y010278D01*
X005155D01*
X005142Y010265D01*
Y010225D01*
Y010252D02*
X005115Y010278D01*
X005182Y010305D02*
X005195Y010318D01*
Y010345D01*
X005182Y010358D01*
X005168D01*
X005155Y010345D01*
Y010332D01*
Y010345D01*
X005142Y010358D01*
X005128D01*
X005115Y010345D01*
Y010318D01*
X005128Y010305D01*
Y010385D02*
X005115Y010398D01*
Y010425D01*
X005128Y010438D01*
X005182D01*
X005195Y010425D01*
Y010398D01*
X005182Y010385D01*
X005168D01*
X005155Y010398D01*
Y010438D01*
X005102Y010465D02*
Y010518D01*
X005195Y010598D02*
Y010545D01*
X005155D01*
X005168Y010572D01*
Y010585D01*
X005155Y010598D01*
X005128D01*
X005115Y010585D01*
Y010558D01*
X005128Y010545D01*
X005335Y010215D02*
X005415D01*
Y010255D01*
X005402Y010268D01*
X005375D01*
X005362Y010255D01*
Y010215D01*
Y010242D02*
X005335Y010268D01*
Y010335D02*
X005415D01*
X005375Y010295D01*
Y010348D01*
X005402Y010375D02*
X005415Y010388D01*
Y010415D01*
X005402Y010428D01*
X005348D01*
X005335Y010415D01*
Y010388D01*
X005348Y010375D01*
X005402D01*
X005322Y010455D02*
Y010508D01*
X005415Y010588D02*
Y010535D01*
X005375D01*
X005388Y010562D01*
Y010575D01*
X005375Y010588D01*
X005348D01*
X005335Y010575D01*
Y010548D01*
X005348Y010535D01*
X005115Y008725D02*
X005195D01*
Y008765D01*
X005182Y008778D01*
X005155D01*
X005142Y008765D01*
Y008725D01*
Y008752D02*
X005115Y008778D01*
X005182Y008805D02*
X005195Y008818D01*
Y008845D01*
X005182Y008858D01*
X005168D01*
X005155Y008845D01*
Y008832D01*
Y008845D01*
X005142Y008858D01*
X005128D01*
X005115Y008845D01*
Y008818D01*
X005128Y008805D01*
Y008885D02*
X005115Y008898D01*
Y008925D01*
X005128Y008938D01*
X005182D01*
X005195Y008925D01*
Y008898D01*
X005182Y008885D01*
X005168D01*
X005155Y008898D01*
Y008938D01*
X005102Y008965D02*
Y009018D01*
X005115Y009085D02*
X005195D01*
X005155Y009045D01*
Y009098D01*
X005335Y008715D02*
X005415D01*
Y008755D01*
X005402Y008768D01*
X005375D01*
X005362Y008755D01*
Y008715D01*
Y008742D02*
X005335Y008768D01*
Y008835D02*
X005415D01*
X005375Y008795D01*
Y008848D01*
X005402Y008875D02*
X005415Y008888D01*
Y008915D01*
X005402Y008928D01*
X005348D01*
X005335Y008915D01*
Y008888D01*
X005348Y008875D01*
X005402D01*
X005322Y008955D02*
Y009008D01*
X005335Y009075D02*
X005415D01*
X005375Y009035D01*
Y009088D01*
X005114Y011775D02*
X005194D01*
Y011815D01*
X005181Y011828D01*
X005154D01*
X005141Y011815D01*
Y011775D01*
Y011802D02*
X005114Y011828D01*
X005181Y011855D02*
X005194Y011868D01*
Y011895D01*
X005181Y011908D01*
X005168D01*
X005154Y011895D01*
Y011882D01*
Y011895D01*
X005141Y011908D01*
X005128D01*
X005114Y011895D01*
Y011868D01*
X005128Y011855D01*
Y011935D02*
X005114Y011948D01*
Y011975D01*
X005128Y011988D01*
X005181D01*
X005194Y011975D01*
Y011948D01*
X005181Y011935D01*
X005168D01*
X005154Y011948D01*
Y011988D01*
X005101Y012015D02*
Y012068D01*
X005114Y012095D02*
Y012122D01*
Y012108D01*
X005194D01*
X005181Y012095D01*
X005335Y011763D02*
X005415D01*
Y011803D01*
X005402Y011817D01*
X005375D01*
X005362Y011803D01*
Y011763D01*
Y011790D02*
X005335Y011817D01*
Y011883D02*
X005415D01*
X005375Y011843D01*
Y011897D01*
X005402Y011923D02*
X005415Y011937D01*
Y011963D01*
X005402Y011977D01*
X005348D01*
X005335Y011963D01*
Y011937D01*
X005348Y011923D01*
X005402D01*
X005322Y012003D02*
Y012057D01*
X005335Y012083D02*
Y012110D01*
Y012097D01*
X005415D01*
X005402Y012083D01*
X005635Y009722D02*
X005648Y009735D01*
X005675D01*
X005688Y009722D01*
Y009668D01*
X005675Y009655D01*
X005648D01*
X005635Y009668D01*
X005555Y009655D02*
X005608D01*
X005555Y009708D01*
Y009722D01*
X005568Y009735D01*
X005595D01*
X005608Y009722D01*
X005528D02*
X005515Y009735D01*
X005488D01*
X005475Y009722D01*
Y009708D01*
X005488Y009695D01*
X005475Y009682D01*
Y009668D01*
X005488Y009655D01*
X005515D01*
X005528Y009668D01*
Y009682D01*
X005515Y009695D01*
X005528Y009708D01*
Y009722D01*
X005515Y009695D02*
X005488D01*
X005448Y009642D02*
X005395D01*
X005315Y009735D02*
X005368D01*
Y009695D01*
X005342Y009708D01*
X005328D01*
X005315Y009695D01*
Y009668D01*
X005328Y009655D01*
X005355D01*
X005368Y009668D01*
X006382Y009483D02*
X006395Y009496D01*
X006422D01*
X006435Y009483D01*
Y009429D01*
X006422Y009416D01*
X006395D01*
X006382Y009429D01*
X006302Y009416D02*
X006355D01*
X006302Y009469D01*
Y009483D01*
X006315Y009496D01*
X006342D01*
X006355Y009483D01*
X006222Y009496D02*
X006248Y009483D01*
X006275Y009456D01*
Y009429D01*
X006262Y009416D01*
X006235D01*
X006222Y009429D01*
Y009443D01*
X006235Y009456D01*
X006275D01*
X006195Y009403D02*
X006142D01*
X006062Y009496D02*
X006115D01*
Y009456D01*
X006088Y009469D01*
X006075D01*
X006062Y009456D01*
Y009429D01*
X006075Y009416D01*
X006102D01*
X006115Y009429D01*
X006142Y009822D02*
X006155Y009835D01*
X006182D01*
X006195Y009822D01*
Y009768D01*
X006182Y009755D01*
X006155D01*
X006142Y009768D01*
X006062Y009755D02*
X006115D01*
X006062Y009808D01*
Y009822D01*
X006075Y009835D01*
X006102D01*
X006115Y009822D01*
X005982Y009835D02*
X006035D01*
Y009795D01*
X006008Y009808D01*
X005995D01*
X005982Y009795D01*
Y009768D01*
X005995Y009755D01*
X006022D01*
X006035Y009768D01*
X005955Y009742D02*
X005902D01*
X005822Y009835D02*
X005875D01*
Y009795D01*
X005848Y009808D01*
X005835D01*
X005822Y009795D01*
Y009768D01*
X005835Y009755D01*
X005862D01*
X005875Y009768D01*
X006292Y009925D02*
X006305Y009938D01*
X006332D01*
X006345Y009925D01*
Y009872D01*
X006332Y009858D01*
X006305D01*
X006292Y009872D01*
X006212Y009858D02*
X006265D01*
X006212Y009912D01*
Y009925D01*
X006225Y009938D01*
X006252D01*
X006265Y009925D01*
X006185Y009858D02*
X006158D01*
X006172D01*
Y009938D01*
X006185Y009925D01*
X006118Y009845D02*
X006065D01*
X005985Y009938D02*
X006038D01*
Y009898D01*
X006012Y009912D01*
X005998D01*
X005985Y009898D01*
Y009872D01*
X005998Y009858D01*
X006025D01*
X006038Y009872D01*
X005236Y010040D02*
X005249Y010053D01*
X005276D01*
X005289Y010040D01*
Y009987D01*
X005276Y009973D01*
X005249D01*
X005236Y009987D01*
X005156Y009973D02*
X005209D01*
X005156Y010027D01*
Y010040D01*
X005169Y010053D01*
X005196D01*
X005209Y010040D01*
X005129Y009987D02*
X005116Y009973D01*
X005089D01*
X005076Y009987D01*
Y010040D01*
X005089Y010053D01*
X005116D01*
X005129Y010040D01*
Y010027D01*
X005116Y010013D01*
X005076D01*
X005049Y009960D02*
X004996D01*
X004916Y010053D02*
X004969D01*
Y010013D01*
X004942Y010027D01*
X004929D01*
X004916Y010013D01*
Y009987D01*
X004929Y009973D01*
X004956D01*
X004969Y009987D01*
X006302Y010332D02*
X006315Y010345D01*
X006342D01*
X006355Y010332D01*
Y010278D01*
X006342Y010265D01*
X006315D01*
X006302Y010278D01*
X006222Y010265D02*
X006275D01*
X006222Y010318D01*
Y010332D01*
X006235Y010345D01*
X006262D01*
X006275Y010332D01*
X006155Y010265D02*
Y010345D01*
X006195Y010305D01*
X006142D01*
X006115Y010252D02*
X006062D01*
X005982Y010345D02*
X006035D01*
Y010305D01*
X006008Y010318D01*
X005995D01*
X005982Y010305D01*
Y010278D01*
X005995Y010265D01*
X006022D01*
X006035Y010278D01*
X005765Y010672D02*
X005778Y010685D01*
X005805D01*
X005818Y010672D01*
Y010618D01*
X005805Y010605D01*
X005778D01*
X005765Y010618D01*
X005685Y010605D02*
X005738D01*
X005685Y010658D01*
Y010672D01*
X005698Y010685D01*
X005725D01*
X005738Y010672D01*
X005658D02*
X005645Y010685D01*
X005618D01*
X005605Y010672D01*
Y010658D01*
X005618Y010645D01*
X005632D01*
X005618D01*
X005605Y010632D01*
Y010618D01*
X005618Y010605D01*
X005645D01*
X005658Y010618D01*
X005578Y010592D02*
X005525D01*
X005445Y010685D02*
X005498D01*
Y010645D01*
X005472Y010658D01*
X005458D01*
X005445Y010645D01*
Y010618D01*
X005458Y010605D01*
X005485D01*
X005498Y010618D01*
X006305Y010789D02*
X006318Y010802D01*
X006345D01*
X006358Y010789D01*
Y010736D01*
X006345Y010722D01*
X006318D01*
X006305Y010736D01*
X006225Y010722D02*
X006278D01*
X006225Y010776D01*
Y010789D01*
X006238Y010802D01*
X006265D01*
X006278Y010789D01*
X006145Y010722D02*
X006198D01*
X006145Y010776D01*
Y010789D01*
X006158Y010802D01*
X006185D01*
X006198Y010789D01*
X006118Y010709D02*
X006065D01*
X005985Y010802D02*
X006038D01*
Y010762D01*
X006012Y010776D01*
X005998D01*
X005985Y010762D01*
Y010736D01*
X005998Y010722D01*
X006025D01*
X006038Y010736D01*
X005682Y008091D02*
X005695Y008077D01*
Y008051D01*
X005682Y008037D01*
X005628D01*
X005615Y008051D01*
Y008077D01*
X005628Y008091D01*
X005615Y008171D02*
Y008117D01*
X005668Y008171D01*
X005682D01*
X005695Y008157D01*
Y008131D01*
X005682Y008117D01*
Y008197D02*
X005695Y008211D01*
Y008237D01*
X005682Y008251D01*
X005668D01*
X005655Y008237D01*
X005642Y008251D01*
X005628D01*
X005615Y008237D01*
Y008211D01*
X005628Y008197D01*
X005642D01*
X005655Y008211D01*
X005668Y008197D01*
X005682D01*
X005655Y008211D02*
Y008237D01*
X005602Y008277D02*
Y008331D01*
X005615Y008397D02*
X005695D01*
X005655Y008357D01*
Y008411D01*
X006282Y008212D02*
X006295Y008225D01*
X006322D01*
X006335Y008212D01*
Y008158D01*
X006322Y008145D01*
X006295D01*
X006282Y008158D01*
X006202Y008145D02*
X006255D01*
X006202Y008198D01*
Y008212D01*
X006215Y008225D01*
X006242D01*
X006255Y008212D01*
X006122Y008225D02*
X006148Y008212D01*
X006175Y008185D01*
Y008158D01*
X006162Y008145D01*
X006135D01*
X006122Y008158D01*
Y008172D01*
X006135Y008185D01*
X006175D01*
X006095Y008132D02*
X006042D01*
X005975Y008145D02*
Y008225D01*
X006015Y008185D01*
X005962D01*
X006032Y008332D02*
X006045Y008345D01*
X006072D01*
X006085Y008332D01*
Y008278D01*
X006072Y008265D01*
X006045D01*
X006032Y008278D01*
X005952Y008265D02*
X006005D01*
X005952Y008318D01*
Y008332D01*
X005965Y008345D01*
X005992D01*
X006005Y008332D01*
X005872Y008345D02*
X005925D01*
Y008305D01*
X005898Y008318D01*
X005885D01*
X005872Y008305D01*
Y008278D01*
X005885Y008265D01*
X005912D01*
X005925Y008278D01*
X005845Y008252D02*
X005792D01*
X005725Y008265D02*
Y008345D01*
X005765Y008305D01*
X005712D01*
X006282Y008435D02*
X006295Y008448D01*
X006322D01*
X006335Y008435D01*
Y008382D01*
X006322Y008368D01*
X006295D01*
X006282Y008382D01*
X006202Y008368D02*
X006255D01*
X006202Y008422D01*
Y008435D01*
X006215Y008448D01*
X006242D01*
X006255Y008435D01*
X006175Y008368D02*
X006149D01*
X006162D01*
Y008448D01*
X006175Y008435D01*
X006109Y008355D02*
X006056D01*
X005989Y008368D02*
Y008448D01*
X006029Y008408D01*
X005976D01*
X005242Y008532D02*
X005255Y008545D01*
X005282D01*
X005295Y008532D01*
Y008478D01*
X005282Y008465D01*
X005255D01*
X005242Y008478D01*
X005162Y008465D02*
X005215D01*
X005162Y008518D01*
Y008532D01*
X005175Y008545D01*
X005202D01*
X005215Y008532D01*
X005135Y008478D02*
X005122Y008465D01*
X005095D01*
X005082Y008478D01*
Y008532D01*
X005095Y008545D01*
X005122D01*
X005135Y008532D01*
Y008518D01*
X005122Y008505D01*
X005082D01*
X005055Y008452D02*
X005002D01*
X004935Y008465D02*
Y008545D01*
X004975Y008505D01*
X004922D01*
X006305Y008828D02*
X006318Y008842D01*
X006345D01*
X006358Y008828D01*
Y008775D01*
X006345Y008762D01*
X006318D01*
X006305Y008775D01*
X006225Y008762D02*
X006278D01*
X006225Y008815D01*
Y008828D01*
X006238Y008842D01*
X006265D01*
X006278Y008828D01*
X006158Y008762D02*
Y008842D01*
X006198Y008802D01*
X006145D01*
X006118Y008748D02*
X006065D01*
X005998Y008762D02*
Y008842D01*
X006038Y008802D01*
X005985D01*
X006032Y009057D02*
X006045Y009070D01*
X006072D01*
X006085Y009057D01*
Y009003D01*
X006072Y008990D01*
X006045D01*
X006032Y009003D01*
X005952Y008990D02*
X006005D01*
X005952Y009043D01*
Y009057D01*
X005965Y009070D01*
X005992D01*
X006005Y009057D01*
X005925D02*
X005912Y009070D01*
X005885D01*
X005872Y009057D01*
Y009043D01*
X005885Y009030D01*
X005898D01*
X005885D01*
X005872Y009017D01*
Y009003D01*
X005885Y008990D01*
X005912D01*
X005925Y009003D01*
X005845Y008977D02*
X005792D01*
X005725Y008990D02*
Y009070D01*
X005765Y009030D01*
X005712D01*
X006392Y009292D02*
X006405Y009305D01*
X006432D01*
X006445Y009292D01*
Y009238D01*
X006432Y009225D01*
X006405D01*
X006392Y009238D01*
X006312Y009225D02*
X006365D01*
X006312Y009278D01*
Y009292D01*
X006325Y009305D01*
X006352D01*
X006365Y009292D01*
X006232Y009225D02*
X006285D01*
X006232Y009278D01*
Y009292D01*
X006245Y009305D01*
X006272D01*
X006285Y009292D01*
X006205Y009212D02*
X006152D01*
X006085Y009225D02*
Y009305D01*
X006125Y009265D01*
X006072D01*
X005685Y010978D02*
X005698Y010965D01*
Y010938D01*
X005685Y010925D01*
X005632D01*
X005618Y010938D01*
Y010965D01*
X005632Y010978D01*
X005618Y011058D02*
Y011005D01*
X005672Y011058D01*
X005685D01*
X005698Y011045D01*
Y011018D01*
X005685Y011005D01*
Y011085D02*
X005698Y011098D01*
Y011125D01*
X005685Y011138D01*
X005672D01*
X005658Y011125D01*
X005645Y011138D01*
X005632D01*
X005618Y011125D01*
Y011098D01*
X005632Y011085D01*
X005645D01*
X005658Y011098D01*
X005672Y011085D01*
X005685D01*
X005658Y011098D02*
Y011125D01*
X005605Y011165D02*
Y011218D01*
X005618Y011245D02*
Y011272D01*
Y011258D01*
X005698D01*
X005685Y011245D01*
X006372Y010983D02*
X006385Y010996D01*
X006412D01*
X006425Y010983D01*
Y010929D01*
X006412Y010916D01*
X006385D01*
X006372Y010929D01*
X006292Y010916D02*
X006345D01*
X006292Y010969D01*
Y010983D01*
X006305Y010996D01*
X006332D01*
X006345Y010983D01*
X006212Y010996D02*
X006238Y010983D01*
X006265Y010956D01*
Y010929D01*
X006252Y010916D01*
X006225D01*
X006212Y010929D01*
Y010943D01*
X006225Y010956D01*
X006265D01*
X006185Y010903D02*
X006132D01*
X006105Y010916D02*
X006078D01*
X006092D01*
Y010996D01*
X006105Y010983D01*
X006142Y011332D02*
X006155Y011345D01*
X006182D01*
X006195Y011332D01*
Y011278D01*
X006182Y011265D01*
X006155D01*
X006142Y011278D01*
X006062Y011265D02*
X006115D01*
X006062Y011318D01*
Y011332D01*
X006075Y011345D01*
X006102D01*
X006115Y011332D01*
X005982Y011345D02*
X006035D01*
Y011305D01*
X006008Y011318D01*
X005995D01*
X005982Y011305D01*
Y011278D01*
X005995Y011265D01*
X006022D01*
X006035Y011278D01*
X005955Y011252D02*
X005902D01*
X005875Y011265D02*
X005848D01*
X005862D01*
Y011345D01*
X005875Y011332D01*
X006295Y011435D02*
X006308Y011448D01*
X006335D01*
X006348Y011435D01*
Y011382D01*
X006335Y011368D01*
X006308D01*
X006295Y011382D01*
X006215Y011368D02*
X006268D01*
X006215Y011422D01*
Y011435D01*
X006228Y011448D01*
X006255D01*
X006268Y011435D01*
X006188Y011368D02*
X006161D01*
X006175D01*
Y011448D01*
X006188Y011435D01*
X006121Y011355D02*
X006068D01*
X006041Y011368D02*
X006015D01*
X006028D01*
Y011448D01*
X006041Y011435D01*
X005236Y011540D02*
X005249Y011553D01*
X005276D01*
X005289Y011540D01*
Y011487D01*
X005276Y011473D01*
X005249D01*
X005236Y011487D01*
X005156Y011473D02*
X005209D01*
X005156Y011527D01*
Y011540D01*
X005169Y011553D01*
X005196D01*
X005209Y011540D01*
X005129Y011487D02*
X005116Y011473D01*
X005089D01*
X005076Y011487D01*
Y011540D01*
X005089Y011553D01*
X005116D01*
X005129Y011540D01*
Y011527D01*
X005116Y011513D01*
X005076D01*
X005049Y011460D02*
X004996D01*
X004969Y011473D02*
X004942D01*
X004956D01*
Y011553D01*
X004969Y011540D01*
X006295Y011832D02*
X006308Y011845D01*
X006335D01*
X006348Y011832D01*
Y011778D01*
X006335Y011765D01*
X006308D01*
X006295Y011778D01*
X006215Y011765D02*
X006268D01*
X006215Y011818D01*
Y011832D01*
X006228Y011845D01*
X006255D01*
X006268Y011832D01*
X006148Y011765D02*
Y011845D01*
X006188Y011805D01*
X006135D01*
X006108Y011752D02*
X006055D01*
X006028Y011765D02*
X006001D01*
X006015D01*
Y011845D01*
X006028Y011832D01*
X005782Y012172D02*
X005795Y012185D01*
X005822D01*
X005835Y012172D01*
Y012118D01*
X005822Y012105D01*
X005795D01*
X005782Y012118D01*
X005702Y012105D02*
X005755D01*
X005702Y012158D01*
Y012172D01*
X005715Y012185D01*
X005742D01*
X005755Y012172D01*
X005675D02*
X005662Y012185D01*
X005635D01*
X005622Y012172D01*
Y012158D01*
X005635Y012145D01*
X005648D01*
X005635D01*
X005622Y012132D01*
Y012118D01*
X005635Y012105D01*
X005662D01*
X005675Y012118D01*
X005595Y012092D02*
X005542D01*
X005515Y012105D02*
X005488D01*
X005502D01*
Y012185D01*
X005515Y012172D01*
X006312Y012292D02*
X006325Y012305D01*
X006352D01*
X006365Y012292D01*
Y012238D01*
X006352Y012225D01*
X006325D01*
X006312Y012238D01*
X006232Y012225D02*
X006285D01*
X006232Y012278D01*
Y012292D01*
X006245Y012305D01*
X006272D01*
X006285Y012292D01*
X006152Y012225D02*
X006205D01*
X006152Y012278D01*
Y012292D01*
X006165Y012305D01*
X006192D01*
X006205Y012292D01*
X006125Y012212D02*
X006072D01*
X006045Y012225D02*
X006018D01*
X006032D01*
Y012305D01*
X006045Y012292D01*
X009655Y011835D02*
X009735D01*
Y011875D01*
X009722Y011888D01*
X009695D01*
X009682Y011875D01*
Y011835D01*
Y011862D02*
X009655Y011888D01*
Y011915D02*
Y011942D01*
Y011928D01*
X009735D01*
X009722Y011915D01*
Y011982D02*
X009735Y011995D01*
Y012022D01*
X009722Y012035D01*
X009708D01*
X009695Y012022D01*
X009682Y012035D01*
X009668D01*
X009655Y012022D01*
Y011995D01*
X009668Y011982D01*
X009682D01*
X009695Y011995D01*
X009708Y011982D01*
X009722D01*
X009695Y011995D02*
Y012022D01*
X010115Y011495D02*
X010195D01*
Y011535D01*
X010182Y011548D01*
X010155D01*
X010142Y011535D01*
Y011495D01*
Y011522D02*
X010115Y011548D01*
Y011575D02*
Y011602D01*
Y011588D01*
X010195D01*
X010182Y011575D01*
X010195Y011642D02*
Y011695D01*
X010182D01*
X010128Y011642D01*
X010115D01*
X010475Y011495D02*
X010555D01*
Y011535D01*
X010542Y011548D01*
X010515D01*
X010502Y011535D01*
Y011495D01*
Y011522D02*
X010475Y011548D01*
Y011575D02*
Y011602D01*
Y011588D01*
X010555D01*
X010542Y011575D01*
X010555Y011695D02*
X010542Y011668D01*
X010515Y011642D01*
X010488D01*
X010475Y011655D01*
Y011682D01*
X010488Y011695D01*
X010502D01*
X010515Y011682D01*
Y011642D01*
X010492Y009092D02*
X010505Y009105D01*
X010532D01*
X010545Y009092D01*
Y009038D01*
X010532Y009025D01*
X010505D01*
X010492Y009038D01*
X010465Y009025D02*
X010438D01*
X010452D01*
Y009105D01*
X010465Y009092D01*
X010398D02*
X010385Y009105D01*
X010358D01*
X010345Y009092D01*
Y009078D01*
X010358Y009065D01*
X010345Y009052D01*
Y009038D01*
X010358Y009025D01*
X010385D01*
X010398Y009038D01*
Y009052D01*
X010385Y009065D01*
X010398Y009078D01*
Y009092D01*
X010385Y009065D02*
X010358D01*
X010092Y008982D02*
X010105Y008995D01*
X010132D01*
X010145Y008982D01*
Y008928D01*
X010132Y008915D01*
X010105D01*
X010092Y008928D01*
X010065Y008915D02*
X010038D01*
X010052D01*
Y008995D01*
X010065Y008982D01*
X009998Y008995D02*
X009945D01*
Y008982D01*
X009998Y008928D01*
Y008915D01*
X011785Y011485D02*
Y011432D01*
X011758Y011405D01*
X011732Y011432D01*
Y011485D01*
X011705D02*
Y011405D01*
X011665D01*
X011652Y011418D01*
Y011472D01*
X011665Y011485D01*
X011705D01*
X011572Y011405D02*
X011625D01*
X011572Y011458D01*
Y011472D01*
X011585Y011485D01*
X011612D01*
X011625Y011472D01*
X010950Y012705D02*
Y012625D01*
X010897D01*
X010817Y012705D02*
X010870D01*
Y012665D01*
X010843Y012678D01*
X010830D01*
X010817Y012665D01*
Y012638D01*
X010830Y012625D01*
X010857D01*
X010870Y012638D01*
X011755Y011795D02*
X011675D01*
Y011848D01*
X011742Y011875D02*
X011755Y011888D01*
Y011915D01*
X011742Y011928D01*
X011728D01*
X011715Y011915D01*
Y011902D01*
Y011915D01*
X011702Y011928D01*
X011688D01*
X011675Y011915D01*
Y011888D01*
X011688Y011875D01*
X011695Y012525D02*
X011615D01*
Y012565D01*
X011628Y012578D01*
X011682D01*
X011695Y012565D01*
Y012525D01*
Y012658D02*
Y012605D01*
X011655D01*
X011668Y012632D01*
Y012645D01*
X011655Y012658D01*
X011628D01*
X011615Y012645D01*
Y012618D01*
X011628Y012605D01*
X011525Y012525D02*
X011445D01*
Y012565D01*
X011458Y012578D01*
X011512D01*
X011525Y012565D01*
Y012525D01*
X011445Y012645D02*
X011525D01*
X011485Y012605D01*
Y012658D01*
X012142Y011772D02*
X012155Y011785D01*
X012182D01*
X012195Y011772D01*
Y011718D01*
X012182Y011705D01*
X012155D01*
X012142Y011718D01*
X012062Y011785D02*
X012088Y011772D01*
X012115Y011745D01*
Y011718D01*
X012102Y011705D01*
X012075D01*
X012062Y011718D01*
Y011732D01*
X012075Y011745D01*
X012115D01*
X012035Y011772D02*
X012022Y011785D01*
X011995D01*
X011982Y011772D01*
Y011718D01*
X011995Y011705D01*
X012022D01*
X012035Y011718D01*
Y011772D01*
X011893Y012102D02*
X011907Y012115D01*
X011933D01*
X011947Y012102D01*
Y012048D01*
X011933Y012035D01*
X011907D01*
X011893Y012048D01*
X011813Y012115D02*
X011867D01*
Y012075D01*
X011840Y012088D01*
X011827D01*
X011813Y012075D01*
Y012048D01*
X011827Y012035D01*
X011853D01*
X011867Y012048D01*
X011787D02*
X011773Y012035D01*
X011747D01*
X011733Y012048D01*
Y012102D01*
X011747Y012115D01*
X011773D01*
X011787Y012102D01*
Y012088D01*
X011773Y012075D01*
X011733D01*
X011092Y011518D02*
X011105Y011505D01*
Y011478D01*
X011092Y011465D01*
X011038D01*
X011025Y011478D01*
Y011505D01*
X011038Y011518D01*
X011105Y011598D02*
Y011545D01*
X011065D01*
X011078Y011572D01*
Y011585D01*
X011065Y011598D01*
X011038D01*
X011025Y011585D01*
Y011558D01*
X011038Y011545D01*
X011092Y011625D02*
X011105Y011638D01*
Y011665D01*
X011092Y011678D01*
X011078D01*
X011065Y011665D01*
X011052Y011678D01*
X011038D01*
X011025Y011665D01*
Y011638D01*
X011038Y011625D01*
X011052D01*
X011065Y011638D01*
X011078Y011625D01*
X011092D01*
X011065Y011638D02*
Y011665D01*
X012605Y008285D02*
Y008218D01*
X012592Y008205D01*
X012565D01*
X012552Y008218D01*
Y008285D01*
X012525Y008205D02*
X012498D01*
X012512D01*
Y008285D01*
X012525Y008272D01*
X012405Y008205D02*
X012458D01*
X012405Y008258D01*
Y008272D01*
X012418Y008285D01*
X012445D01*
X012458Y008272D01*
X012378Y008192D02*
X012325D01*
X012245Y008205D02*
X012298D01*
X012245Y008258D01*
Y008272D01*
X012258Y008285D01*
X012285D01*
X012298Y008272D01*
X012925Y007275D02*
Y007355D01*
X012885D01*
X012872Y007342D01*
Y007315D01*
X012885Y007302D01*
X012925D01*
X012898D02*
X012872Y007275D01*
X012792Y007355D02*
X012818Y007342D01*
X012845Y007315D01*
Y007288D01*
X012832Y007275D01*
X012805D01*
X012792Y007288D01*
Y007302D01*
X012805Y007315D01*
X012845D01*
X012765Y007355D02*
X012712D01*
Y007342D01*
X012765Y007288D01*
Y007275D01*
X012685Y007262D02*
X012632D01*
X012552Y007275D02*
X012605D01*
X012552Y007328D01*
Y007342D01*
X012565Y007355D01*
X012592D01*
X012605Y007342D01*
X012925Y007380D02*
Y007460D01*
X012885D01*
X012872Y007447D01*
Y007420D01*
X012885Y007407D01*
X012925D01*
X012898D02*
X012872Y007380D01*
X012792Y007460D02*
X012818Y007447D01*
X012845Y007420D01*
Y007393D01*
X012832Y007380D01*
X012805D01*
X012792Y007393D01*
Y007407D01*
X012805Y007420D01*
X012845D01*
X012712Y007460D02*
X012738Y007447D01*
X012765Y007420D01*
Y007393D01*
X012752Y007380D01*
X012725D01*
X012712Y007393D01*
Y007407D01*
X012725Y007420D01*
X012765D01*
X012685Y007367D02*
X012632D01*
X012552Y007380D02*
X012605D01*
X012552Y007433D01*
Y007447D01*
X012565Y007460D01*
X012592D01*
X012605Y007447D01*
X012925Y008705D02*
Y008785D01*
X012885D01*
X012872Y008772D01*
Y008745D01*
X012885Y008732D01*
X012925D01*
X012898D02*
X012872Y008705D01*
X012792Y008785D02*
X012818Y008772D01*
X012845Y008745D01*
Y008718D01*
X012832Y008705D01*
X012805D01*
X012792Y008718D01*
Y008732D01*
X012805Y008745D01*
X012845D01*
X012725Y008705D02*
Y008785D01*
X012765Y008745D01*
X012712D01*
X012685Y008692D02*
X012632D01*
X012552Y008705D02*
X012605D01*
X012552Y008758D01*
Y008772D01*
X012565Y008785D01*
X012592D01*
X012605Y008772D01*
X012925Y008485D02*
Y008565D01*
X012885D01*
X012872Y008552D01*
Y008525D01*
X012885Y008512D01*
X012925D01*
X012898D02*
X012872Y008485D01*
X012792Y008565D02*
X012818Y008552D01*
X012845Y008525D01*
Y008498D01*
X012832Y008485D01*
X012805D01*
X012792Y008498D01*
Y008512D01*
X012805Y008525D01*
X012845D01*
X012765Y008552D02*
X012752Y008565D01*
X012725D01*
X012712Y008552D01*
Y008538D01*
X012725Y008525D01*
X012738D01*
X012725D01*
X012712Y008512D01*
Y008498D01*
X012725Y008485D01*
X012752D01*
X012765Y008498D01*
X012685Y008472D02*
X012632D01*
X012552Y008485D02*
X012605D01*
X012552Y008538D01*
Y008552D01*
X012565Y008565D01*
X012592D01*
X012605Y008552D01*
X012925Y008595D02*
Y008675D01*
X012885D01*
X012872Y008662D01*
Y008635D01*
X012885Y008622D01*
X012925D01*
X012898D02*
X012872Y008595D01*
X012792Y008675D02*
X012818Y008662D01*
X012845Y008635D01*
Y008608D01*
X012832Y008595D01*
X012805D01*
X012792Y008608D01*
Y008622D01*
X012805Y008635D01*
X012845D01*
X012712Y008595D02*
X012765D01*
X012712Y008648D01*
Y008662D01*
X012725Y008675D01*
X012752D01*
X012765Y008662D01*
X012685Y008582D02*
X012632D01*
X012552Y008595D02*
X012605D01*
X012552Y008648D01*
Y008662D01*
X012565Y008675D01*
X012592D01*
X012605Y008662D01*
X012115Y008555D02*
Y008635D01*
X012075D01*
X012062Y008622D01*
Y008595D01*
X012075Y008582D01*
X012115D01*
X012088D02*
X012062Y008555D01*
X011982Y008635D02*
X012008Y008622D01*
X012035Y008595D01*
Y008568D01*
X012022Y008555D01*
X011995D01*
X011982Y008568D01*
Y008582D01*
X011995Y008595D01*
X012035D01*
X011955Y008622D02*
X011942Y008635D01*
X011915D01*
X011902Y008622D01*
Y008568D01*
X011915Y008555D01*
X011942D01*
X011955Y008568D01*
Y008622D01*
X011875Y008542D02*
X011822D01*
X011742Y008555D02*
X011795D01*
X011742Y008608D01*
Y008622D01*
X011755Y008635D01*
X011782D01*
X011795Y008622D01*
X012175Y008505D02*
X012255D01*
Y008545D01*
X012242Y008558D01*
X012215D01*
X012202Y008545D01*
Y008505D01*
Y008532D02*
X012175Y008558D01*
X012255Y008638D02*
Y008585D01*
X012215D01*
X012228Y008612D01*
Y008625D01*
X012215Y008638D01*
X012188D01*
X012175Y008625D01*
Y008598D01*
X012188Y008585D01*
Y008665D02*
X012175Y008678D01*
Y008705D01*
X012188Y008718D01*
X012242D01*
X012255Y008705D01*
Y008678D01*
X012242Y008665D01*
X012228D01*
X012215Y008678D01*
Y008718D01*
X012162Y008745D02*
Y008798D01*
X012175Y008878D02*
Y008825D01*
X012228Y008878D01*
X012242D01*
X012255Y008865D01*
Y008838D01*
X012242Y008825D01*
X011805Y007225D02*
X011885D01*
Y007265D01*
X011872Y007278D01*
X011845D01*
X011832Y007265D01*
Y007225D01*
Y007252D02*
X011805Y007278D01*
X011885Y007358D02*
Y007305D01*
X011845D01*
X011858Y007332D01*
Y007345D01*
X011845Y007358D01*
X011818D01*
X011805Y007345D01*
Y007318D01*
X011818Y007305D01*
X011885Y007385D02*
Y007438D01*
X011872D01*
X011818Y007385D01*
X011805D01*
X011792Y007465D02*
Y007518D01*
X011805Y007598D02*
Y007545D01*
X011858Y007598D01*
X011872D01*
X011885Y007585D01*
Y007558D01*
X011872Y007545D01*
X011165Y008015D02*
Y008095D01*
X011125D01*
X011112Y008082D01*
Y008055D01*
X011125Y008042D01*
X011165D01*
X011138D02*
X011112Y008015D01*
X011032Y008095D02*
X011085D01*
Y008055D01*
X011058Y008068D01*
X011045D01*
X011032Y008055D01*
Y008028D01*
X011045Y008015D01*
X011072D01*
X011085Y008028D01*
X010952Y008095D02*
X010978Y008082D01*
X011005Y008055D01*
Y008028D01*
X010992Y008015D01*
X010965D01*
X010952Y008028D01*
Y008042D01*
X010965Y008055D01*
X011005D01*
X010925Y008002D02*
X010872D01*
X010792Y008015D02*
X010845D01*
X010792Y008068D01*
Y008082D01*
X010805Y008095D01*
X010832D01*
X010845Y008082D01*
X011615Y008495D02*
X011695D01*
Y008535D01*
X011682Y008548D01*
X011655D01*
X011642Y008535D01*
Y008495D01*
Y008522D02*
X011615Y008548D01*
X011695Y008628D02*
Y008575D01*
X011655D01*
X011668Y008602D01*
Y008615D01*
X011655Y008628D01*
X011628D01*
X011615Y008615D01*
Y008588D01*
X011628Y008575D01*
X011695Y008708D02*
Y008655D01*
X011655D01*
X011668Y008682D01*
Y008695D01*
X011655Y008708D01*
X011628D01*
X011615Y008695D01*
Y008668D01*
X011628Y008655D01*
X011602Y008735D02*
Y008788D01*
X011615Y008868D02*
Y008815D01*
X011668Y008868D01*
X011682D01*
X011695Y008855D01*
Y008828D01*
X011682Y008815D01*
X011165Y007875D02*
Y007955D01*
X011125D01*
X011112Y007942D01*
Y007915D01*
X011125Y007902D01*
X011165D01*
X011138D02*
X011112Y007875D01*
X011032Y007955D02*
X011085D01*
Y007915D01*
X011058Y007928D01*
X011045D01*
X011032Y007915D01*
Y007888D01*
X011045Y007875D01*
X011072D01*
X011085Y007888D01*
X011005Y007942D02*
X010992Y007955D01*
X010965D01*
X010952Y007942D01*
Y007928D01*
X010965Y007915D01*
X010978D01*
X010965D01*
X010952Y007902D01*
Y007888D01*
X010965Y007875D01*
X010992D01*
X011005Y007888D01*
X010925Y007862D02*
X010872D01*
X010792Y007875D02*
X010845D01*
X010792Y007928D01*
Y007942D01*
X010805Y007955D01*
X010832D01*
X010845Y007942D01*
X012872Y007232D02*
X012885Y007245D01*
X012912D01*
X012925Y007232D01*
Y007178D01*
X012912Y007165D01*
X012885D01*
X012872Y007178D01*
X012805Y007165D02*
Y007245D01*
X012845Y007205D01*
X012792D01*
X012725Y007165D02*
Y007245D01*
X012765Y007205D01*
X012712D01*
X012685Y007152D02*
X012632D01*
X012552Y007165D02*
X012605D01*
X012552Y007218D01*
Y007232D01*
X012565Y007245D01*
X012592D01*
X012605Y007232D01*
X012062Y008732D02*
X012075Y008745D01*
X012102D01*
X012115Y008732D01*
Y008678D01*
X012102Y008665D01*
X012075D01*
X012062Y008678D01*
X011995Y008665D02*
Y008745D01*
X012035Y008705D01*
X011982D01*
X011902Y008665D02*
X011955D01*
X011902Y008718D01*
Y008732D01*
X011915Y008745D01*
X011942D01*
X011955Y008732D01*
X011875Y008652D02*
X011822D01*
X011742Y008665D02*
X011795D01*
X011742Y008718D01*
Y008732D01*
X011755Y008745D01*
X011782D01*
X011795Y008732D01*
X012232Y007522D02*
X012245Y007535D01*
X012272D01*
X012285Y007522D01*
Y007468D01*
X012272Y007455D01*
X012245D01*
X012232Y007468D01*
X012165Y007455D02*
Y007535D01*
X012205Y007495D01*
X012152D01*
X012125Y007455D02*
X012098D01*
X012112D01*
Y007535D01*
X012125Y007522D01*
X012058Y007442D02*
X012005D01*
X011925Y007455D02*
X011978D01*
X011925Y007508D01*
Y007522D01*
X011938Y007535D01*
X011965D01*
X011978Y007522D01*
X011112Y008248D02*
X011125Y008261D01*
X011152D01*
X011165Y008248D01*
Y008194D01*
X011152Y008181D01*
X011125D01*
X011112Y008194D01*
X011045Y008181D02*
Y008261D01*
X011085Y008221D01*
X011032D01*
X011005Y008248D02*
X010992Y008261D01*
X010965D01*
X010952Y008248D01*
Y008194D01*
X010965Y008181D01*
X010992D01*
X011005Y008194D01*
Y008248D01*
X010925Y008168D02*
X010872D01*
X010792Y008181D02*
X010845D01*
X010792Y008234D01*
Y008248D01*
X010805Y008261D01*
X010832D01*
X010845Y008248D01*
X011677Y007522D02*
X011690Y007535D01*
X011717D01*
X011730Y007522D01*
Y007468D01*
X011717Y007455D01*
X011690D01*
X011677Y007468D01*
X011650Y007522D02*
X011637Y007535D01*
X011610D01*
X011597Y007522D01*
Y007508D01*
X011610Y007495D01*
X011623D01*
X011610D01*
X011597Y007482D01*
Y007468D01*
X011610Y007455D01*
X011637D01*
X011650Y007468D01*
X011570D02*
X011557Y007455D01*
X011530D01*
X011517Y007468D01*
Y007522D01*
X011530Y007535D01*
X011557D01*
X011570Y007522D01*
Y007508D01*
X011557Y007495D01*
X011517D01*
X011490Y007442D02*
X011437D01*
X011357Y007455D02*
X011410D01*
X011357Y007508D01*
Y007522D01*
X011370Y007535D01*
X011397D01*
X011410Y007522D01*
X011112Y007662D02*
X011125Y007675D01*
X011152D01*
X011165Y007662D01*
Y007608D01*
X011152Y007595D01*
X011125D01*
X011112Y007608D01*
X011085Y007662D02*
X011072Y007675D01*
X011045D01*
X011032Y007662D01*
Y007648D01*
X011045Y007635D01*
X011058D01*
X011045D01*
X011032Y007622D01*
Y007608D01*
X011045Y007595D01*
X011072D01*
X011085Y007608D01*
X011005Y007662D02*
X010992Y007675D01*
X010965D01*
X010952Y007662D01*
Y007648D01*
X010965Y007635D01*
X010952Y007622D01*
Y007608D01*
X010965Y007595D01*
X010992D01*
X011005Y007608D01*
Y007622D01*
X010992Y007635D01*
X011005Y007648D01*
Y007662D01*
X010992Y007635D02*
X010965D01*
X010925Y007582D02*
X010872D01*
X010792Y007595D02*
X010845D01*
X010792Y007648D01*
Y007662D01*
X010805Y007675D01*
X010832D01*
X010845Y007662D01*
X012075Y004265D02*
Y004345D01*
X012035D01*
X012022Y004332D01*
Y004305D01*
X012035Y004292D01*
X012075D01*
X012048D02*
X012022Y004265D01*
X011942Y004345D02*
X011968Y004332D01*
X011995Y004305D01*
Y004278D01*
X011982Y004265D01*
X011955D01*
X011942Y004278D01*
Y004292D01*
X011955Y004305D01*
X011995D01*
X011915Y004345D02*
X011862D01*
Y004332D01*
X011915Y004278D01*
Y004265D01*
X011835Y004252D02*
X011782D01*
X011755Y004265D02*
X011728D01*
X011742D01*
Y004345D01*
X011755Y004332D01*
X012075Y004375D02*
Y004455D01*
X012035D01*
X012022Y004442D01*
Y004415D01*
X012035Y004402D01*
X012075D01*
X012048D02*
X012022Y004375D01*
X011942Y004455D02*
X011968Y004442D01*
X011995Y004415D01*
Y004388D01*
X011982Y004375D01*
X011955D01*
X011942Y004388D01*
Y004402D01*
X011955Y004415D01*
X011995D01*
X011862Y004455D02*
X011888Y004442D01*
X011915Y004415D01*
Y004388D01*
X011902Y004375D01*
X011875D01*
X011862Y004388D01*
Y004402D01*
X011875Y004415D01*
X011915D01*
X011835Y004362D02*
X011782D01*
X011755Y004375D02*
X011728D01*
X011742D01*
Y004455D01*
X011755Y004442D01*
X012485Y005545D02*
Y005478D01*
X012472Y005465D01*
X012445D01*
X012432Y005478D01*
Y005545D01*
X012405Y005465D02*
X012378D01*
X012392D01*
Y005545D01*
X012405Y005532D01*
X012285Y005465D02*
X012338D01*
X012285Y005518D01*
Y005532D01*
X012298Y005545D01*
X012325D01*
X012338Y005532D01*
X012258Y005452D02*
X012205D01*
X012178Y005465D02*
X012152D01*
X012165D01*
Y005545D01*
X012178Y005532D01*
X012898Y005935D02*
Y006015D01*
X012858D01*
X012845Y006002D01*
Y005975D01*
X012858Y005962D01*
X012898D01*
X012872D02*
X012845Y005935D01*
X012765Y006015D02*
X012792Y006002D01*
X012818Y005975D01*
Y005948D01*
X012805Y005935D01*
X012778D01*
X012765Y005948D01*
Y005962D01*
X012778Y005975D01*
X012818D01*
X012698Y005935D02*
Y006015D01*
X012738Y005975D01*
X012685D01*
X012658Y005922D02*
X012605D01*
X012578Y005935D02*
X012552D01*
X012565D01*
Y006015D01*
X012578Y006002D01*
X012898Y005715D02*
Y005795D01*
X012858D01*
X012845Y005782D01*
Y005755D01*
X012858Y005742D01*
X012898D01*
X012872D02*
X012845Y005715D01*
X012765Y005795D02*
X012792Y005782D01*
X012818Y005755D01*
Y005728D01*
X012805Y005715D01*
X012778D01*
X012765Y005728D01*
Y005742D01*
X012778Y005755D01*
X012818D01*
X012738Y005782D02*
X012725Y005795D01*
X012698D01*
X012685Y005782D01*
Y005768D01*
X012698Y005755D01*
X012712D01*
X012698D01*
X012685Y005742D01*
Y005728D01*
X012698Y005715D01*
X012725D01*
X012738Y005728D01*
X012658Y005702D02*
X012605D01*
X012578Y005715D02*
X012552D01*
X012565D01*
Y005795D01*
X012578Y005782D01*
X012022Y004222D02*
X012035Y004235D01*
X012062D01*
X012075Y004222D01*
Y004168D01*
X012062Y004155D01*
X012035D01*
X012022Y004168D01*
X011955Y004155D02*
Y004235D01*
X011995Y004195D01*
X011942D01*
X011875Y004155D02*
Y004235D01*
X011915Y004195D01*
X011862D01*
X011835Y004142D02*
X011782D01*
X011755Y004155D02*
X011728D01*
X011742D01*
Y004235D01*
X011755Y004222D01*
X012110Y005765D02*
Y005845D01*
X012070D01*
X012057Y005832D01*
Y005805D01*
X012070Y005792D01*
X012110D01*
X012083D02*
X012057Y005765D01*
X011977Y005845D02*
X012003Y005832D01*
X012030Y005805D01*
Y005778D01*
X012017Y005765D01*
X011990D01*
X011977Y005778D01*
Y005792D01*
X011990Y005805D01*
X012030D01*
X011950Y005832D02*
X011937Y005845D01*
X011910D01*
X011897Y005832D01*
Y005778D01*
X011910Y005765D01*
X011937D01*
X011950Y005778D01*
Y005832D01*
X011870Y005752D02*
X011817D01*
X011790Y005765D02*
X011763D01*
X011777D01*
Y005845D01*
X011790Y005832D01*
X012145Y005742D02*
X012225D01*
Y005782D01*
X012212Y005796D01*
X012185D01*
X012172Y005782D01*
Y005742D01*
Y005769D02*
X012145Y005796D01*
X012225Y005876D02*
Y005822D01*
X012185D01*
X012198Y005849D01*
Y005862D01*
X012185Y005876D01*
X012158D01*
X012145Y005862D01*
Y005836D01*
X012158Y005822D01*
Y005902D02*
X012145Y005916D01*
Y005942D01*
X012158Y005956D01*
X012212D01*
X012225Y005942D01*
Y005916D01*
X012212Y005902D01*
X012198D01*
X012185Y005916D01*
Y005956D01*
X012132Y005982D02*
Y006036D01*
X012145Y006062D02*
Y006089D01*
Y006076D01*
X012225D01*
X012212Y006062D01*
X012057Y005942D02*
X012070Y005955D01*
X012097D01*
X012110Y005942D01*
Y005888D01*
X012097Y005875D01*
X012070D01*
X012057Y005888D01*
X011990Y005875D02*
Y005955D01*
X012030Y005915D01*
X011977D01*
X011897Y005875D02*
X011950D01*
X011897Y005928D01*
Y005942D01*
X011910Y005955D01*
X011937D01*
X011950Y005942D01*
X011870Y005862D02*
X011817D01*
X011790Y005875D02*
X011763D01*
X011777D01*
Y005955D01*
X011790Y005942D01*
X005515Y006125D02*
X005595D01*
Y006165D01*
X005582Y006178D01*
X005555D01*
X005542Y006165D01*
Y006125D01*
Y006152D02*
X005515Y006178D01*
Y006245D02*
X005595D01*
X005555Y006205D01*
Y006258D01*
X005515Y006285D02*
Y006312D01*
Y006298D01*
X005595D01*
X005582Y006285D01*
X005502Y006352D02*
Y006405D01*
X005515Y006485D02*
Y006432D01*
X005568Y006485D01*
X005582D01*
X005595Y006472D01*
Y006445D01*
X005582Y006432D01*
X005335Y005739D02*
X005415D01*
Y005779D01*
X005402Y005792D01*
X005375D01*
X005362Y005779D01*
Y005739D01*
Y005765D02*
X005335Y005792D01*
Y005859D02*
X005415D01*
X005375Y005819D01*
Y005872D01*
X005402Y005899D02*
X005415Y005912D01*
Y005939D01*
X005402Y005952D01*
X005348D01*
X005335Y005939D01*
Y005912D01*
X005348Y005899D01*
X005402D01*
X005322Y005979D02*
Y006032D01*
X005335Y006112D02*
Y006059D01*
X005388Y006112D01*
X005402D01*
X005415Y006099D01*
Y006072D01*
X005402Y006059D01*
X005098Y005739D02*
X005178D01*
Y005779D01*
X005165Y005792D01*
X005138D01*
X005125Y005779D01*
Y005739D01*
Y005765D02*
X005098Y005792D01*
X005165Y005819D02*
X005178Y005832D01*
Y005859D01*
X005165Y005872D01*
X005152D01*
X005138Y005859D01*
Y005845D01*
Y005859D01*
X005125Y005872D01*
X005112D01*
X005098Y005859D01*
Y005832D01*
X005112Y005819D01*
Y005899D02*
X005098Y005912D01*
Y005939D01*
X005112Y005952D01*
X005165D01*
X005178Y005939D01*
Y005912D01*
X005165Y005899D01*
X005152D01*
X005138Y005912D01*
Y005952D01*
X005085Y005979D02*
Y006032D01*
X005098Y006112D02*
Y006059D01*
X005152Y006112D01*
X005165D01*
X005178Y006099D01*
Y006072D01*
X005165Y006059D01*
X005135Y006245D02*
X005215D01*
Y006285D01*
X005202Y006298D01*
X005175D01*
X005162Y006285D01*
Y006245D01*
Y006272D02*
X005135Y006298D01*
X005202Y006325D02*
X005215Y006338D01*
Y006365D01*
X005202Y006378D01*
X005188D01*
X005175Y006365D01*
Y006352D01*
Y006365D01*
X005162Y006378D01*
X005148D01*
X005135Y006365D01*
Y006338D01*
X005148Y006325D01*
X005215Y006458D02*
X005202Y006432D01*
X005175Y006405D01*
X005148D01*
X005135Y006418D01*
Y006445D01*
X005148Y006458D01*
X005162D01*
X005175Y006445D01*
Y006405D01*
X005122Y006485D02*
Y006538D01*
X005135Y006618D02*
Y006565D01*
X005188Y006618D01*
X005202D01*
X005215Y006605D01*
Y006578D01*
X005202Y006565D01*
X005545Y004895D02*
Y004975D01*
X005505D01*
X005492Y004962D01*
Y004935D01*
X005505Y004922D01*
X005545D01*
X005518D02*
X005492Y004895D01*
X005465Y004962D02*
X005452Y004975D01*
X005425D01*
X005412Y004962D01*
Y004948D01*
X005425Y004935D01*
X005438D01*
X005425D01*
X005412Y004922D01*
Y004908D01*
X005425Y004895D01*
X005452D01*
X005465Y004908D01*
X005385Y004962D02*
X005372Y004975D01*
X005345D01*
X005332Y004962D01*
Y004948D01*
X005345Y004935D01*
X005358D01*
X005345D01*
X005332Y004922D01*
Y004908D01*
X005345Y004895D01*
X005372D01*
X005385Y004908D01*
X005305Y004882D02*
X005252D01*
X005172Y004895D02*
X005225D01*
X005172Y004948D01*
Y004962D01*
X005185Y004975D01*
X005212D01*
X005225Y004962D01*
X005605Y005355D02*
X005685D01*
Y005395D01*
X005672Y005408D01*
X005645D01*
X005632Y005395D01*
Y005355D01*
Y005382D02*
X005605Y005408D01*
X005672Y005435D02*
X005685Y005448D01*
Y005475D01*
X005672Y005488D01*
X005658D01*
X005645Y005475D01*
Y005462D01*
Y005475D01*
X005632Y005488D01*
X005618D01*
X005605Y005475D01*
Y005448D01*
X005618Y005435D01*
X005605Y005515D02*
Y005542D01*
Y005528D01*
X005685D01*
X005672Y005515D01*
X005592Y005582D02*
Y005635D01*
X005605Y005715D02*
Y005662D01*
X005658Y005715D01*
X005672D01*
X005685Y005702D01*
Y005675D01*
X005672Y005662D01*
X006625Y005085D02*
X006705D01*
Y005125D01*
X006692Y005138D01*
X006665D01*
X006652Y005125D01*
Y005085D01*
Y005112D02*
X006625Y005138D01*
Y005218D02*
Y005165D01*
X006678Y005218D01*
X006692D01*
X006705Y005205D01*
Y005178D01*
X006692Y005165D01*
Y005245D02*
X006705Y005258D01*
Y005285D01*
X006692Y005298D01*
X006678D01*
X006665Y005285D01*
X006652Y005298D01*
X006638D01*
X006625Y005285D01*
Y005258D01*
X006638Y005245D01*
X006652D01*
X006665Y005258D01*
X006678Y005245D01*
X006692D01*
X006665Y005258D02*
Y005285D01*
X006612Y005325D02*
Y005378D01*
X006625Y005458D02*
Y005405D01*
X006678Y005458D01*
X006692D01*
X006705Y005445D01*
Y005418D01*
X006692Y005405D01*
X006385Y005345D02*
X006465D01*
Y005385D01*
X006452Y005398D01*
X006425D01*
X006412Y005385D01*
Y005345D01*
Y005372D02*
X006385Y005398D01*
Y005478D02*
Y005425D01*
X006438Y005478D01*
X006452D01*
X006465Y005465D01*
Y005438D01*
X006452Y005425D01*
X006465Y005505D02*
Y005558D01*
X006452D01*
X006398Y005505D01*
X006385D01*
X006372Y005585D02*
Y005638D01*
X006385Y005718D02*
Y005665D01*
X006438Y005718D01*
X006452D01*
X006465Y005705D01*
Y005678D01*
X006452Y005665D01*
X006095Y005875D02*
Y005955D01*
X006055D01*
X006042Y005942D01*
Y005915D01*
X006055Y005902D01*
X006095D01*
X006068D02*
X006042Y005875D01*
X005962D02*
X006015D01*
X005962Y005928D01*
Y005942D01*
X005975Y005955D01*
X006002D01*
X006015Y005942D01*
X005935D02*
X005922Y005955D01*
X005895D01*
X005882Y005942D01*
Y005928D01*
X005895Y005915D01*
X005908D01*
X005895D01*
X005882Y005902D01*
Y005888D01*
X005895Y005875D01*
X005922D01*
X005935Y005888D01*
X005855Y005862D02*
X005802D01*
X005722Y005875D02*
X005775D01*
X005722Y005928D01*
Y005942D01*
X005735Y005955D01*
X005762D01*
X005775Y005942D01*
X006624Y005705D02*
X006704D01*
Y005745D01*
X006690Y005758D01*
X006664D01*
X006650Y005745D01*
Y005705D01*
Y005732D02*
X006624Y005758D01*
Y005838D02*
Y005785D01*
X006677Y005838D01*
X006690D01*
X006704Y005825D01*
Y005798D01*
X006690Y005785D01*
X006624Y005918D02*
Y005865D01*
X006677Y005918D01*
X006690D01*
X006704Y005905D01*
Y005878D01*
X006690Y005865D01*
X006610Y005945D02*
Y005998D01*
X006624Y006078D02*
Y006025D01*
X006677Y006078D01*
X006690D01*
X006704Y006065D01*
Y006038D01*
X006690Y006025D01*
X006385Y005965D02*
X006465D01*
Y006005D01*
X006452Y006018D01*
X006425D01*
X006412Y006005D01*
Y005965D01*
Y005992D02*
X006385Y006018D01*
Y006098D02*
Y006045D01*
X006438Y006098D01*
X006452D01*
X006465Y006085D01*
Y006058D01*
X006452Y006045D01*
X006385Y006125D02*
Y006152D01*
Y006138D01*
X006465D01*
X006452Y006125D01*
X006372Y006192D02*
Y006245D01*
X006385Y006325D02*
Y006272D01*
X006438Y006325D01*
X006452D01*
X006465Y006312D01*
Y006285D01*
X006452Y006272D01*
X005242Y005532D02*
X005255Y005545D01*
X005282D01*
X005295Y005532D01*
Y005478D01*
X005282Y005465D01*
X005255D01*
X005242Y005478D01*
X005162Y005465D02*
X005215D01*
X005162Y005518D01*
Y005532D01*
X005175Y005545D01*
X005202D01*
X005215Y005532D01*
X005135Y005478D02*
X005122Y005465D01*
X005095D01*
X005082Y005478D01*
Y005532D01*
X005095Y005545D01*
X005122D01*
X005135Y005532D01*
Y005518D01*
X005122Y005505D01*
X005082D01*
X005055Y005452D02*
X005002D01*
X004922Y005465D02*
X004975D01*
X004922Y005518D01*
Y005532D01*
X004935Y005545D01*
X004962D01*
X004975Y005532D01*
X005672Y004958D02*
X005685Y004945D01*
Y004918D01*
X005672Y004905D01*
X005618D01*
X005605Y004918D01*
Y004945D01*
X005618Y004958D01*
X005605Y005038D02*
Y004985D01*
X005658Y005038D01*
X005672D01*
X005685Y005025D01*
Y004998D01*
X005672Y004985D01*
Y005065D02*
X005685Y005078D01*
Y005105D01*
X005672Y005118D01*
X005658D01*
X005645Y005105D01*
X005632Y005118D01*
X005618D01*
X005605Y005105D01*
Y005078D01*
X005618Y005065D01*
X005632D01*
X005645Y005078D01*
X005658Y005065D01*
X005672D01*
X005645Y005078D02*
Y005105D01*
X005592Y005145D02*
Y005198D01*
X005605Y005278D02*
Y005225D01*
X005658Y005278D01*
X005672D01*
X005685Y005265D01*
Y005238D01*
X005672Y005225D01*
X006300Y005212D02*
X006313Y005225D01*
X006340D01*
X006353Y005212D01*
Y005158D01*
X006340Y005145D01*
X006313D01*
X006300Y005158D01*
X006220Y005145D02*
X006273D01*
X006220Y005198D01*
Y005212D01*
X006233Y005225D01*
X006260D01*
X006273Y005212D01*
X006140Y005225D02*
X006166Y005212D01*
X006193Y005185D01*
Y005158D01*
X006180Y005145D01*
X006153D01*
X006140Y005158D01*
Y005172D01*
X006153Y005185D01*
X006193D01*
X006113Y005132D02*
X006060D01*
X005980Y005145D02*
X006033D01*
X005980Y005198D01*
Y005212D01*
X005993Y005225D01*
X006020D01*
X006033Y005212D01*
X006042Y005322D02*
X006055Y005335D01*
X006082D01*
X006095Y005322D01*
Y005268D01*
X006082Y005255D01*
X006055D01*
X006042Y005268D01*
X005962Y005255D02*
X006015D01*
X005962Y005308D01*
Y005322D01*
X005975Y005335D01*
X006002D01*
X006015Y005322D01*
X005882Y005335D02*
X005935D01*
Y005295D01*
X005908Y005308D01*
X005895D01*
X005882Y005295D01*
Y005268D01*
X005895Y005255D01*
X005922D01*
X005935Y005268D01*
X005855Y005242D02*
X005802D01*
X005722Y005255D02*
X005775D01*
X005722Y005308D01*
Y005322D01*
X005735Y005335D01*
X005762D01*
X005775Y005322D01*
X006295Y005832D02*
X006308Y005845D01*
X006335D01*
X006348Y005832D01*
Y005778D01*
X006335Y005765D01*
X006308D01*
X006295Y005778D01*
X006215Y005765D02*
X006268D01*
X006215Y005818D01*
Y005832D01*
X006228Y005845D01*
X006255D01*
X006268Y005832D01*
X006148Y005765D02*
Y005845D01*
X006188Y005805D01*
X006135D01*
X006108Y005752D02*
X006055D01*
X005975Y005765D02*
X006028D01*
X005975Y005818D01*
Y005832D01*
X005988Y005845D01*
X006015D01*
X006028Y005832D01*
X006052Y006062D02*
X006065Y006075D01*
X006092D01*
X006105Y006062D01*
Y006008D01*
X006092Y005995D01*
X006065D01*
X006052Y006008D01*
X005972Y005995D02*
X006025D01*
X005972Y006048D01*
Y006062D01*
X005985Y006075D01*
X006012D01*
X006025Y006062D01*
X005945D02*
X005932Y006075D01*
X005905D01*
X005892Y006062D01*
Y006048D01*
X005905Y006035D01*
X005918D01*
X005905D01*
X005892Y006022D01*
Y006008D01*
X005905Y005995D01*
X005932D01*
X005945Y006008D01*
X005865Y005982D02*
X005812D01*
X005732Y005995D02*
X005785D01*
X005732Y006048D01*
Y006062D01*
X005745Y006075D01*
X005772D01*
X005785Y006062D01*
X006295Y006292D02*
X006308Y006305D01*
X006335D01*
X006348Y006292D01*
Y006238D01*
X006335Y006225D01*
X006308D01*
X006295Y006238D01*
X006215Y006225D02*
X006268D01*
X006215Y006278D01*
Y006292D01*
X006228Y006305D01*
X006255D01*
X006268Y006292D01*
X006135Y006225D02*
X006188D01*
X006135Y006278D01*
Y006292D01*
X006148Y006305D01*
X006175D01*
X006188Y006292D01*
X006108Y006212D02*
X006055D01*
X005975Y006225D02*
X006028D01*
X005975Y006278D01*
Y006292D01*
X005988Y006305D01*
X006015D01*
X006028Y006292D01*
X006300Y005436D02*
X006313Y005449D01*
X006340D01*
X006353Y005436D01*
Y005382D01*
X006340Y005369D01*
X006313D01*
X006300Y005382D01*
X006220Y005369D02*
X006273D01*
X006220Y005422D01*
Y005436D01*
X006233Y005449D01*
X006260D01*
X006273Y005436D01*
X006193Y005369D02*
X006166D01*
X006180D01*
Y005449D01*
X006193Y005436D01*
X006126Y005356D02*
X006073D01*
X005993Y005369D02*
X006046D01*
X005993Y005422D01*
Y005436D01*
X006006Y005449D01*
X006033D01*
X006046Y005436D01*
X006825Y010599D02*
X006772D01*
X006745Y010625D01*
X006772Y010652D01*
X006825D01*
X006812Y010679D02*
X006825Y010692D01*
Y010719D01*
X006812Y010732D01*
X006798D01*
X006785Y010719D01*
Y010705D01*
Y010719D01*
X006772Y010732D01*
X006758D01*
X006745Y010719D01*
Y010692D01*
X006758Y010679D01*
X006732Y010759D02*
Y010812D01*
X006745Y010879D02*
X006825D01*
X006785Y010839D01*
Y010892D01*
X006835Y008855D02*
X006782D01*
X006755Y008882D01*
X006782Y008908D01*
X006835D01*
X006822Y008935D02*
X006835Y008948D01*
Y008975D01*
X006822Y008988D01*
X006808D01*
X006795Y008975D01*
Y008962D01*
Y008975D01*
X006782Y008988D01*
X006768D01*
X006755Y008975D01*
Y008948D01*
X006768Y008935D01*
X006742Y009015D02*
Y009068D01*
X006822Y009095D02*
X006835Y009108D01*
Y009135D01*
X006822Y009148D01*
X006808D01*
X006795Y009135D01*
Y009122D01*
Y009135D01*
X006782Y009148D01*
X006768D01*
X006755Y009135D01*
Y009108D01*
X006768Y009095D01*
X006825Y007134D02*
X006772D01*
X006745Y007160D01*
X006772Y007187D01*
X006825D01*
X006812Y007214D02*
X006825Y007227D01*
Y007254D01*
X006812Y007267D01*
X006798D01*
X006785Y007254D01*
Y007240D01*
Y007254D01*
X006772Y007267D01*
X006758D01*
X006745Y007254D01*
Y007227D01*
X006758Y007214D01*
X006732Y007294D02*
Y007347D01*
X006745Y007427D02*
Y007374D01*
X006798Y007427D01*
X006812D01*
X006825Y007414D01*
Y007387D01*
X006812Y007374D01*
X007310Y011225D02*
Y011158D01*
X007297Y011145D01*
X007270D01*
X007257Y011158D01*
Y011225D01*
X007177Y011145D02*
X007230D01*
X007177Y011198D01*
Y011212D01*
X007190Y011225D01*
X007217D01*
X007230Y011212D01*
X007097Y011145D02*
X007150D01*
X007097Y011198D01*
Y011212D01*
X007110Y011225D01*
X007137D01*
X007150Y011212D01*
X007070Y011132D02*
X007017D01*
X006950Y011145D02*
Y011225D01*
X006990Y011185D01*
X006937D01*
X007348Y009505D02*
Y009438D01*
X007334Y009425D01*
X007308D01*
X007294Y009438D01*
Y009505D01*
X007214Y009425D02*
X007268D01*
X007214Y009478D01*
Y009492D01*
X007228Y009505D01*
X007254D01*
X007268Y009492D01*
X007134Y009425D02*
X007188D01*
X007134Y009478D01*
Y009492D01*
X007148Y009505D01*
X007174D01*
X007188Y009492D01*
X007108Y009412D02*
X007054D01*
X007028Y009492D02*
X007014Y009505D01*
X006988D01*
X006974Y009492D01*
Y009478D01*
X006988Y009465D01*
X007001D01*
X006988D01*
X006974Y009452D01*
Y009438D01*
X006988Y009425D01*
X007014D01*
X007028Y009438D01*
X007315Y007775D02*
Y007708D01*
X007302Y007695D01*
X007275D01*
X007262Y007708D01*
Y007775D01*
X007182Y007695D02*
X007235D01*
X007182Y007748D01*
Y007762D01*
X007195Y007775D01*
X007222D01*
X007235Y007762D01*
X007102Y007695D02*
X007155D01*
X007102Y007748D01*
Y007762D01*
X007115Y007775D01*
X007142D01*
X007155Y007762D01*
X007075Y007682D02*
X007022D01*
X006942Y007695D02*
X006995D01*
X006942Y007748D01*
Y007762D01*
X006955Y007775D01*
X006982D01*
X006995Y007762D01*
X008205Y012085D02*
Y012018D01*
X008192Y012005D01*
X008165D01*
X008152Y012018D01*
Y012085D01*
X008125Y012005D02*
X008098D01*
X008112D01*
Y012085D01*
X008125Y012072D01*
X008058Y012018D02*
X008045Y012005D01*
X008018D01*
X008005Y012018D01*
Y012072D01*
X008018Y012085D01*
X008045D01*
X008058Y012072D01*
Y012058D01*
X008045Y012045D01*
X008005D01*
X007978Y011992D02*
X007925D01*
X007858Y012005D02*
Y012085D01*
X007898Y012045D01*
X007845D01*
X008215Y010345D02*
Y010278D01*
X008202Y010265D01*
X008175D01*
X008162Y010278D01*
Y010345D01*
X008135Y010265D02*
X008108D01*
X008122D01*
Y010345D01*
X008135Y010332D01*
X008068Y010278D02*
X008055Y010265D01*
X008028D01*
X008015Y010278D01*
Y010332D01*
X008028Y010345D01*
X008055D01*
X008068Y010332D01*
Y010318D01*
X008055Y010305D01*
X008015D01*
X007988Y010252D02*
X007935D01*
X007908Y010332D02*
X007895Y010345D01*
X007868D01*
X007855Y010332D01*
Y010318D01*
X007868Y010305D01*
X007882D01*
X007868D01*
X007855Y010292D01*
Y010278D01*
X007868Y010265D01*
X007895D01*
X007908Y010278D01*
X008205Y008625D02*
Y008558D01*
X008192Y008545D01*
X008165D01*
X008152Y008558D01*
Y008625D01*
X008125Y008545D02*
X008098D01*
X008112D01*
Y008625D01*
X008125Y008612D01*
X008058Y008558D02*
X008045Y008545D01*
X008018D01*
X008005Y008558D01*
Y008612D01*
X008018Y008625D01*
X008045D01*
X008058Y008612D01*
Y008598D01*
X008045Y008585D01*
X008005D01*
X007978Y008532D02*
X007925D01*
X007845Y008545D02*
X007898D01*
X007845Y008598D01*
Y008612D01*
X007858Y008625D01*
X007885D01*
X007898Y008612D01*
X008315Y010975D02*
Y010908D01*
X008302Y010895D01*
X008275D01*
X008262Y010908D01*
Y010975D01*
X008235Y010895D02*
X008208D01*
X008222D01*
Y010975D01*
X008235Y010962D01*
X008168Y010975D02*
X008115D01*
Y010962D01*
X008168Y010908D01*
Y010895D01*
X008088Y010882D02*
X008035D01*
X007968Y010895D02*
Y010975D01*
X008008Y010935D01*
X007955D01*
X008315Y009255D02*
Y009188D01*
X008302Y009175D01*
X008275D01*
X008262Y009188D01*
Y009255D01*
X008235Y009175D02*
X008208D01*
X008222D01*
Y009255D01*
X008235Y009242D01*
X008168Y009255D02*
X008115D01*
Y009242D01*
X008168Y009188D01*
Y009175D01*
X008088Y009162D02*
X008035D01*
X008008Y009242D02*
X007995Y009255D01*
X007968D01*
X007955Y009242D01*
Y009228D01*
X007968Y009215D01*
X007982D01*
X007968D01*
X007955Y009202D01*
Y009188D01*
X007968Y009175D01*
X007995D01*
X008008Y009188D01*
X008305Y007515D02*
Y007448D01*
X008292Y007435D01*
X008265D01*
X008252Y007448D01*
Y007515D01*
X008225Y007435D02*
X008198D01*
X008212D01*
Y007515D01*
X008225Y007502D01*
X008158Y007515D02*
X008105D01*
Y007502D01*
X008158Y007448D01*
Y007435D01*
X008078Y007422D02*
X008025D01*
X007945Y007435D02*
X007998D01*
X007945Y007488D01*
Y007502D01*
X007958Y007515D01*
X007985D01*
X007998Y007502D01*
X009095Y010545D02*
X009175D01*
Y010585D01*
X009162Y010598D01*
X009135D01*
X009122Y010585D01*
Y010545D01*
Y010572D02*
X009095Y010598D01*
X009175Y010625D02*
Y010678D01*
X009162D01*
X009108Y010625D01*
X009095D01*
Y010705D02*
Y010732D01*
Y010718D01*
X009175D01*
X009162Y010705D01*
X009082Y010772D02*
Y010825D01*
X009095Y010892D02*
X009175D01*
X009135Y010852D01*
Y010905D01*
X009065Y008845D02*
X009145D01*
Y008885D01*
X009132Y008898D01*
X009105D01*
X009092Y008885D01*
Y008845D01*
Y008872D02*
X009065Y008898D01*
X009145Y008925D02*
Y008978D01*
X009132D01*
X009078Y008925D01*
X009065D01*
Y009005D02*
Y009032D01*
Y009018D01*
X009145D01*
X009132Y009005D01*
X009052Y009072D02*
Y009125D01*
X009132Y009152D02*
X009145Y009165D01*
Y009192D01*
X009132Y009205D01*
X009118D01*
X009105Y009192D01*
Y009178D01*
Y009192D01*
X009092Y009205D01*
X009078D01*
X009065Y009192D01*
Y009165D01*
X009078Y009152D01*
X009440Y007365D02*
Y007445D01*
X009400D01*
X009387Y007432D01*
Y007405D01*
X009400Y007392D01*
X009440D01*
X009414D02*
X009387Y007365D01*
X009360Y007445D02*
X009307D01*
Y007432D01*
X009360Y007378D01*
Y007365D01*
X009280D02*
X009254D01*
X009267D01*
Y007445D01*
X009280Y007432D01*
X009214Y007352D02*
X009160D01*
X009080Y007365D02*
X009134D01*
X009080Y007418D01*
Y007432D01*
X009094Y007445D01*
X009120D01*
X009134Y007432D01*
X009235Y010435D02*
X009315D01*
Y010475D01*
X009302Y010488D01*
X009275D01*
X009262Y010475D01*
Y010435D01*
Y010462D02*
X009235Y010488D01*
X009315Y010568D02*
X009302Y010542D01*
X009275Y010515D01*
X009248D01*
X009235Y010528D01*
Y010555D01*
X009248Y010568D01*
X009262D01*
X009275Y010555D01*
Y010515D01*
X009248Y010595D02*
X009235Y010608D01*
Y010635D01*
X009248Y010648D01*
X009302D01*
X009315Y010635D01*
Y010608D01*
X009302Y010595D01*
X009288D01*
X009275Y010608D01*
Y010648D01*
X009222Y010675D02*
Y010728D01*
X009235Y010795D02*
X009315D01*
X009275Y010755D01*
Y010808D01*
X009435Y008725D02*
Y008805D01*
X009395D01*
X009382Y008792D01*
Y008765D01*
X009395Y008752D01*
X009435D01*
X009408D02*
X009382Y008725D01*
X009302Y008805D02*
X009328Y008792D01*
X009355Y008765D01*
Y008738D01*
X009342Y008725D01*
X009315D01*
X009302Y008738D01*
Y008752D01*
X009315Y008765D01*
X009355D01*
X009275Y008738D02*
X009262Y008725D01*
X009235D01*
X009222Y008738D01*
Y008792D01*
X009235Y008805D01*
X009262D01*
X009275Y008792D01*
Y008778D01*
X009262Y008765D01*
X009222D01*
X009195Y008712D02*
X009142D01*
X009115Y008792D02*
X009102Y008805D01*
X009075D01*
X009062Y008792D01*
Y008778D01*
X009075Y008765D01*
X009088D01*
X009075D01*
X009062Y008752D01*
Y008738D01*
X009075Y008725D01*
X009102D01*
X009115Y008738D01*
X009425Y006995D02*
Y007075D01*
X009385D01*
X009372Y007062D01*
Y007035D01*
X009385Y007022D01*
X009425D01*
X009398D02*
X009372Y006995D01*
X009292Y007075D02*
X009318Y007062D01*
X009345Y007035D01*
Y007008D01*
X009332Y006995D01*
X009305D01*
X009292Y007008D01*
Y007022D01*
X009305Y007035D01*
X009345D01*
X009265Y007008D02*
X009252Y006995D01*
X009225D01*
X009212Y007008D01*
Y007062D01*
X009225Y007075D01*
X009252D01*
X009265Y007062D01*
Y007048D01*
X009252Y007035D01*
X009212D01*
X009185Y006982D02*
X009132D01*
X009052Y006995D02*
X009105D01*
X009052Y007048D01*
Y007062D01*
X009065Y007075D01*
X009092D01*
X009105Y007062D01*
X007455Y010493D02*
Y010573D01*
X007415D01*
X007402Y010559D01*
Y010533D01*
X007415Y010519D01*
X007455D01*
X007428D02*
X007402Y010493D01*
X007322Y010573D02*
X007348Y010559D01*
X007375Y010533D01*
Y010506D01*
X007362Y010493D01*
X007335D01*
X007322Y010506D01*
Y010519D01*
X007335Y010533D01*
X007375D01*
X007295Y010559D02*
X007282Y010573D01*
X007255D01*
X007242Y010559D01*
Y010546D01*
X007255Y010533D01*
X007242Y010519D01*
Y010506D01*
X007255Y010493D01*
X007282D01*
X007295Y010506D01*
Y010519D01*
X007282Y010533D01*
X007295Y010546D01*
Y010559D01*
X007282Y010533D02*
X007255D01*
X007215Y010479D02*
X007162D01*
X007095Y010493D02*
Y010573D01*
X007135Y010533D01*
X007082D01*
X007455Y008763D02*
Y008843D01*
X007415D01*
X007402Y008829D01*
Y008803D01*
X007415Y008789D01*
X007455D01*
X007428D02*
X007402Y008763D01*
X007322Y008843D02*
X007348Y008829D01*
X007375Y008803D01*
Y008776D01*
X007362Y008763D01*
X007335D01*
X007322Y008776D01*
Y008789D01*
X007335Y008803D01*
X007375D01*
X007295Y008829D02*
X007282Y008843D01*
X007255D01*
X007242Y008829D01*
Y008816D01*
X007255Y008803D01*
X007242Y008789D01*
Y008776D01*
X007255Y008763D01*
X007282D01*
X007295Y008776D01*
Y008789D01*
X007282Y008803D01*
X007295Y008816D01*
Y008829D01*
X007282Y008803D02*
X007255D01*
X007215Y008749D02*
X007162D01*
X007135Y008829D02*
X007122Y008843D01*
X007095D01*
X007082Y008829D01*
Y008816D01*
X007095Y008803D01*
X007108D01*
X007095D01*
X007082Y008789D01*
Y008776D01*
X007095Y008763D01*
X007122D01*
X007135Y008776D01*
X007245Y007075D02*
X007325D01*
Y007115D01*
X007312Y007128D01*
X007285D01*
X007272Y007115D01*
Y007075D01*
Y007102D02*
X007245Y007128D01*
X007325Y007208D02*
X007312Y007182D01*
X007285Y007155D01*
X007258D01*
X007245Y007168D01*
Y007195D01*
X007258Y007208D01*
X007272D01*
X007285Y007195D01*
Y007155D01*
X007312Y007235D02*
X007325Y007248D01*
Y007275D01*
X007312Y007288D01*
X007298D01*
X007285Y007275D01*
X007272Y007288D01*
X007258D01*
X007245Y007275D01*
Y007248D01*
X007258Y007235D01*
X007272D01*
X007285Y007248D01*
X007298Y007235D01*
X007312D01*
X007285Y007248D02*
Y007275D01*
X007232Y007315D02*
Y007368D01*
X007245Y007448D02*
Y007395D01*
X007298Y007448D01*
X007312D01*
X007325Y007435D01*
Y007408D01*
X007312Y007395D01*
X007122Y012228D02*
X007135Y012215D01*
Y012188D01*
X007122Y012175D01*
X007068D01*
X007055Y012188D01*
Y012215D01*
X007068Y012228D01*
X007135Y012308D02*
Y012255D01*
X007095D01*
X007108Y012282D01*
Y012295D01*
X007095Y012308D01*
X007068D01*
X007055Y012295D01*
Y012268D01*
X007068Y012255D01*
X007135Y012335D02*
Y012388D01*
X007122D01*
X007068Y012335D01*
X007055D01*
X007042Y012415D02*
Y012468D01*
X007055Y012535D02*
X007135D01*
X007095Y012495D01*
Y012548D01*
X006992Y010156D02*
X007005Y010142D01*
Y010116D01*
X006992Y010102D01*
X006938D01*
X006925Y010116D01*
Y010142D01*
X006938Y010156D01*
X007005Y010236D02*
Y010182D01*
X006965D01*
X006978Y010209D01*
Y010222D01*
X006965Y010236D01*
X006938D01*
X006925Y010222D01*
Y010196D01*
X006938Y010182D01*
X007005Y010262D02*
Y010316D01*
X006992D01*
X006938Y010262D01*
X006925D01*
X006912Y010342D02*
Y010396D01*
X006992Y010422D02*
X007005Y010436D01*
Y010462D01*
X006992Y010476D01*
X006978D01*
X006965Y010462D01*
Y010449D01*
Y010462D01*
X006952Y010476D01*
X006938D01*
X006925Y010462D01*
Y010436D01*
X006938Y010422D01*
X006992Y008398D02*
X007005Y008385D01*
Y008358D01*
X006992Y008345D01*
X006938D01*
X006925Y008358D01*
Y008385D01*
X006938Y008398D01*
X007005Y008478D02*
Y008425D01*
X006965D01*
X006978Y008452D01*
Y008465D01*
X006965Y008478D01*
X006938D01*
X006925Y008465D01*
Y008438D01*
X006938Y008425D01*
X007005Y008505D02*
Y008558D01*
X006992D01*
X006938Y008505D01*
X006925D01*
X006912Y008585D02*
Y008638D01*
X006925Y008718D02*
Y008665D01*
X006978Y008718D01*
X006992D01*
X007005Y008705D01*
Y008678D01*
X006992Y008665D01*
X008832Y011478D02*
X008845Y011465D01*
Y011438D01*
X008832Y011425D01*
X008778D01*
X008765Y011438D01*
Y011465D01*
X008778Y011478D01*
X008845Y011558D02*
Y011505D01*
X008805D01*
X008818Y011532D01*
Y011545D01*
X008805Y011558D01*
X008778D01*
X008765Y011545D01*
Y011518D01*
X008778Y011505D01*
X008845Y011638D02*
X008832Y011612D01*
X008805Y011585D01*
X008778D01*
X008765Y011598D01*
Y011625D01*
X008778Y011638D01*
X008792D01*
X008805Y011625D01*
Y011585D01*
X008752Y011665D02*
Y011718D01*
X008765Y011785D02*
X008845D01*
X008805Y011745D01*
Y011798D01*
X008822Y009738D02*
X008835Y009725D01*
Y009698D01*
X008822Y009685D01*
X008768D01*
X008755Y009698D01*
Y009725D01*
X008768Y009738D01*
X008835Y009818D02*
Y009765D01*
X008795D01*
X008808Y009792D01*
Y009805D01*
X008795Y009818D01*
X008768D01*
X008755Y009805D01*
Y009778D01*
X008768Y009765D01*
X008835Y009898D02*
X008822Y009872D01*
X008795Y009845D01*
X008768D01*
X008755Y009858D01*
Y009885D01*
X008768Y009898D01*
X008782D01*
X008795Y009885D01*
Y009845D01*
X008742Y009925D02*
Y009978D01*
X008822Y010005D02*
X008835Y010018D01*
Y010045D01*
X008822Y010058D01*
X008808D01*
X008795Y010045D01*
Y010032D01*
Y010045D01*
X008782Y010058D01*
X008768D01*
X008755Y010045D01*
Y010018D01*
X008768Y010005D01*
X008832Y008003D02*
X008845Y007989D01*
Y007963D01*
X008832Y007950D01*
X008778D01*
X008765Y007963D01*
Y007989D01*
X008778Y008003D01*
X008845Y008083D02*
Y008029D01*
X008805D01*
X008818Y008056D01*
Y008069D01*
X008805Y008083D01*
X008778D01*
X008765Y008069D01*
Y008043D01*
X008778Y008029D01*
X008845Y008163D02*
X008832Y008136D01*
X008805Y008109D01*
X008778D01*
X008765Y008123D01*
Y008149D01*
X008778Y008163D01*
X008792D01*
X008805Y008149D01*
Y008109D01*
X008752Y008189D02*
Y008243D01*
X008765Y008323D02*
Y008269D01*
X008818Y008323D01*
X008832D01*
X008845Y008309D01*
Y008283D01*
X008832Y008269D01*
X007482Y012228D02*
X007495Y012215D01*
Y012188D01*
X007482Y012175D01*
X007428D01*
X007415Y012188D01*
Y012215D01*
X007428Y012228D01*
X007495Y012308D02*
Y012255D01*
X007455D01*
X007468Y012282D01*
Y012295D01*
X007455Y012308D01*
X007428D01*
X007415Y012295D01*
Y012268D01*
X007428Y012255D01*
X007495Y012388D02*
Y012335D01*
X007455D01*
X007468Y012362D01*
Y012375D01*
X007455Y012388D01*
X007428D01*
X007415Y012375D01*
Y012348D01*
X007428Y012335D01*
X007402Y012415D02*
Y012468D01*
X007415Y012535D02*
X007495D01*
X007455Y012495D01*
Y012548D01*
X007352Y010137D02*
X007365Y010124D01*
Y010097D01*
X007352Y010084D01*
X007298D01*
X007285Y010097D01*
Y010124D01*
X007298Y010137D01*
X007365Y010217D02*
Y010164D01*
X007325D01*
X007338Y010190D01*
Y010204D01*
X007325Y010217D01*
X007298D01*
X007285Y010204D01*
Y010177D01*
X007298Y010164D01*
X007365Y010297D02*
Y010244D01*
X007325D01*
X007338Y010270D01*
Y010283D01*
X007325Y010297D01*
X007298D01*
X007285Y010283D01*
Y010257D01*
X007298Y010244D01*
X007272Y010323D02*
Y010377D01*
X007352Y010403D02*
X007365Y010417D01*
Y010443D01*
X007352Y010457D01*
X007338D01*
X007325Y010443D01*
Y010430D01*
Y010443D01*
X007312Y010457D01*
X007298D01*
X007285Y010443D01*
Y010417D01*
X007298Y010403D01*
X007352Y008398D02*
X007365Y008385D01*
Y008358D01*
X007352Y008345D01*
X007298D01*
X007285Y008358D01*
Y008385D01*
X007298Y008398D01*
X007365Y008478D02*
Y008425D01*
X007325D01*
X007338Y008452D01*
Y008465D01*
X007325Y008478D01*
X007298D01*
X007285Y008465D01*
Y008438D01*
X007298Y008425D01*
X007365Y008558D02*
Y008505D01*
X007325D01*
X007338Y008532D01*
Y008545D01*
X007325Y008558D01*
X007298D01*
X007285Y008545D01*
Y008518D01*
X007298Y008505D01*
X007272Y008585D02*
Y008638D01*
X007285Y008718D02*
Y008665D01*
X007338Y008718D01*
X007352D01*
X007365Y008705D01*
Y008678D01*
X007352Y008665D01*
X007112Y011042D02*
X007125Y011055D01*
X007152D01*
X007165Y011042D01*
Y010988D01*
X007152Y010975D01*
X007125D01*
X007112Y010988D01*
X007032Y011055D02*
X007085D01*
Y011015D01*
X007058Y011028D01*
X007045D01*
X007032Y011015D01*
Y010988D01*
X007045Y010975D01*
X007072D01*
X007085Y010988D01*
X007005Y010975D02*
X006978D01*
X006992D01*
Y011055D01*
X007005Y011042D01*
X006938Y010962D02*
X006885D01*
X006818Y010975D02*
Y011055D01*
X006858Y011015D01*
X006805D01*
X007122Y009302D02*
X007135Y009315D01*
X007162D01*
X007175Y009302D01*
Y009248D01*
X007162Y009235D01*
X007135D01*
X007122Y009248D01*
X007042Y009315D02*
X007095D01*
Y009275D01*
X007068Y009288D01*
X007055D01*
X007042Y009275D01*
Y009248D01*
X007055Y009235D01*
X007082D01*
X007095Y009248D01*
X007015Y009235D02*
X006988D01*
X007002D01*
Y009315D01*
X007015Y009302D01*
X006948Y009222D02*
X006895D01*
X006868Y009302D02*
X006855Y009315D01*
X006828D01*
X006815Y009302D01*
Y009288D01*
X006828Y009275D01*
X006842D01*
X006828D01*
X006815Y009262D01*
Y009248D01*
X006828Y009235D01*
X006855D01*
X006868Y009248D01*
X007124Y007554D02*
X007138Y007567D01*
X007164D01*
X007178Y007554D01*
Y007500D01*
X007164Y007487D01*
X007138D01*
X007124Y007500D01*
X007044Y007567D02*
X007098D01*
Y007527D01*
X007071Y007540D01*
X007058D01*
X007044Y007527D01*
Y007500D01*
X007058Y007487D01*
X007084D01*
X007098Y007500D01*
X007018Y007487D02*
X006991D01*
X007004D01*
Y007567D01*
X007018Y007554D01*
X006951Y007474D02*
X006898D01*
X006818Y007487D02*
X006871D01*
X006818Y007540D01*
Y007554D01*
X006831Y007567D01*
X006858D01*
X006871Y007554D01*
X009361Y011020D02*
X009375Y011034D01*
X009401D01*
X009415Y011020D01*
Y010967D01*
X009401Y010954D01*
X009375D01*
X009361Y010967D01*
X009282Y011034D02*
X009335D01*
Y010994D01*
X009308Y011007D01*
X009295D01*
X009282Y010994D01*
Y010967D01*
X009295Y010954D01*
X009321D01*
X009335Y010967D01*
X009255Y011020D02*
X009242Y011034D01*
X009215D01*
X009202Y011020D01*
Y010967D01*
X009215Y010954D01*
X009242D01*
X009255Y010967D01*
Y011020D01*
X009175Y010940D02*
X009122D01*
X009055Y010954D02*
Y011034D01*
X009095Y010994D01*
X009042D01*
X009131Y009295D02*
X009145Y009281D01*
Y009255D01*
X009131Y009241D01*
X009078D01*
X009065Y009255D01*
Y009281D01*
X009078Y009295D01*
X009145Y009375D02*
Y009321D01*
X009105D01*
X009118Y009348D01*
Y009361D01*
X009105Y009375D01*
X009078D01*
X009065Y009361D01*
Y009335D01*
X009078Y009321D01*
X009131Y009401D02*
X009145Y009415D01*
Y009441D01*
X009131Y009454D01*
X009078D01*
X009065Y009441D01*
Y009415D01*
X009078Y009401D01*
X009131D01*
X009051Y009481D02*
Y009534D01*
X009131Y009561D02*
X009145Y009574D01*
Y009601D01*
X009131Y009614D01*
X009118D01*
X009105Y009601D01*
Y009588D01*
Y009601D01*
X009091Y009614D01*
X009078D01*
X009065Y009601D01*
Y009574D01*
X009078Y009561D01*
X009391Y007563D02*
X009405Y007576D01*
X009431D01*
X009445Y007563D01*
Y007510D01*
X009431Y007496D01*
X009405D01*
X009391Y007510D01*
X009311Y007576D02*
X009365D01*
Y007536D01*
X009338Y007550D01*
X009325D01*
X009311Y007536D01*
Y007510D01*
X009325Y007496D01*
X009351D01*
X009365Y007510D01*
X009285Y007563D02*
X009271Y007576D01*
X009245D01*
X009231Y007563D01*
Y007510D01*
X009245Y007496D01*
X009271D01*
X009285Y007510D01*
Y007563D01*
X009205Y007483D02*
X009151D01*
X009071Y007496D02*
X009125D01*
X009071Y007550D01*
Y007563D01*
X009085Y007576D01*
X009111D01*
X009125Y007563D01*
X006835Y005405D02*
X006782D01*
X006755Y005432D01*
X006782Y005458D01*
X006835D01*
X006822Y005485D02*
X006835Y005498D01*
Y005525D01*
X006822Y005538D01*
X006808D01*
X006795Y005525D01*
Y005512D01*
Y005525D01*
X006782Y005538D01*
X006768D01*
X006755Y005525D01*
Y005498D01*
X006768Y005485D01*
X006742Y005565D02*
Y005618D01*
X006755Y005645D02*
Y005672D01*
Y005658D01*
X006835D01*
X006822Y005645D01*
X008305Y005785D02*
Y005718D01*
X008292Y005705D01*
X008265D01*
X008252Y005718D01*
Y005785D01*
X008172Y005705D02*
X008225D01*
X008172Y005758D01*
Y005772D01*
X008185Y005785D01*
X008212D01*
X008225Y005772D01*
X008092Y005705D02*
X008145D01*
X008092Y005758D01*
Y005772D01*
X008105Y005785D01*
X008132D01*
X008145Y005772D01*
X008065Y005692D02*
X008012D01*
X007985Y005705D02*
X007958D01*
X007972D01*
Y005785D01*
X007985Y005772D01*
X008175Y006895D02*
Y006828D01*
X008162Y006815D01*
X008135D01*
X008122Y006828D01*
Y006895D01*
X008095Y006815D02*
X008068D01*
X008082D01*
Y006895D01*
X008095Y006882D01*
X008028Y006828D02*
X008015Y006815D01*
X007988D01*
X007975Y006828D01*
Y006882D01*
X007988Y006895D01*
X008015D01*
X008028Y006882D01*
Y006868D01*
X008015Y006855D01*
X007975D01*
X007948Y006802D02*
X007895D01*
X007868Y006815D02*
X007842D01*
X007855D01*
Y006895D01*
X007868Y006882D01*
X007315Y006030D02*
Y005963D01*
X007302Y005950D01*
X007275D01*
X007262Y005963D01*
Y006030D01*
X007235Y005950D02*
X007208D01*
X007222D01*
Y006030D01*
X007235Y006016D01*
X007168Y006030D02*
X007115D01*
Y006016D01*
X007168Y005963D01*
Y005950D01*
X007088Y005936D02*
X007035D01*
X007008Y005950D02*
X006982D01*
X006995D01*
Y006030D01*
X007008Y006016D01*
X009405Y005505D02*
Y005585D01*
X009365D01*
X009352Y005572D01*
Y005545D01*
X009365Y005532D01*
X009405D01*
X009378D02*
X009352Y005505D01*
X009325Y005585D02*
X009272D01*
Y005572D01*
X009325Y005518D01*
Y005505D01*
X009245D02*
X009218D01*
X009232D01*
Y005585D01*
X009245Y005572D01*
X009178Y005492D02*
X009125D01*
X009098Y005505D02*
X009072D01*
X009085D01*
Y005585D01*
X009098Y005572D01*
X009405Y005258D02*
Y005337D01*
X009365D01*
X009351Y005324D01*
Y005297D01*
X009365Y005284D01*
X009405D01*
X009378D02*
X009351Y005258D01*
X009271Y005337D02*
X009298Y005324D01*
X009325Y005297D01*
Y005271D01*
X009311Y005258D01*
X009285D01*
X009271Y005271D01*
Y005284D01*
X009285Y005297D01*
X009325D01*
X009245Y005271D02*
X009231Y005258D01*
X009205D01*
X009191Y005271D01*
Y005324D01*
X009205Y005337D01*
X009231D01*
X009245Y005324D01*
Y005311D01*
X009231Y005297D01*
X009191D01*
X009165Y005244D02*
X009111D01*
X009085Y005258D02*
X009058D01*
X009071D01*
Y005337D01*
X009085Y005324D01*
X007365Y005055D02*
X007445D01*
Y005095D01*
X007432Y005108D01*
X007405D01*
X007392Y005095D01*
Y005055D01*
Y005082D02*
X007365Y005108D01*
X007445Y005188D02*
X007432Y005162D01*
X007405Y005135D01*
X007378D01*
X007365Y005148D01*
Y005175D01*
X007378Y005188D01*
X007392D01*
X007405Y005175D01*
Y005135D01*
X007432Y005215D02*
X007445Y005228D01*
Y005255D01*
X007432Y005268D01*
X007418D01*
X007405Y005255D01*
X007392Y005268D01*
X007378D01*
X007365Y005255D01*
Y005228D01*
X007378Y005215D01*
X007392D01*
X007405Y005228D01*
X007418Y005215D01*
X007432D01*
X007405Y005228D02*
Y005255D01*
X007352Y005295D02*
Y005348D01*
X007365Y005375D02*
Y005402D01*
Y005388D01*
X007445D01*
X007432Y005375D01*
X007002Y006708D02*
X007015Y006695D01*
Y006668D01*
X007002Y006655D01*
X006948D01*
X006935Y006668D01*
Y006695D01*
X006948Y006708D01*
X007015Y006788D02*
Y006735D01*
X006975D01*
X006988Y006762D01*
Y006775D01*
X006975Y006788D01*
X006948D01*
X006935Y006775D01*
Y006748D01*
X006948Y006735D01*
X007015Y006815D02*
Y006868D01*
X007002D01*
X006948Y006815D01*
X006935D01*
X006922Y006895D02*
Y006948D01*
X006935Y006975D02*
Y007002D01*
Y006988D01*
X007015D01*
X007002Y006975D01*
X008832Y006298D02*
X008845Y006285D01*
Y006258D01*
X008832Y006245D01*
X008778D01*
X008765Y006258D01*
Y006285D01*
X008778Y006298D01*
X008845Y006378D02*
Y006325D01*
X008805D01*
X008818Y006352D01*
Y006365D01*
X008805Y006378D01*
X008778D01*
X008765Y006365D01*
Y006338D01*
X008778Y006325D01*
X008845Y006458D02*
X008832Y006432D01*
X008805Y006405D01*
X008778D01*
X008765Y006418D01*
Y006445D01*
X008778Y006458D01*
X008792D01*
X008805Y006445D01*
Y006405D01*
X008752Y006485D02*
Y006538D01*
X008765Y006565D02*
Y006592D01*
Y006578D01*
X008845D01*
X008832Y006565D01*
X007349Y006708D02*
X007363Y006695D01*
Y006668D01*
X007349Y006655D01*
X007296D01*
X007283Y006668D01*
Y006695D01*
X007296Y006708D01*
X007363Y006788D02*
Y006735D01*
X007323D01*
X007336Y006762D01*
Y006775D01*
X007323Y006788D01*
X007296D01*
X007283Y006775D01*
Y006748D01*
X007296Y006735D01*
X007363Y006868D02*
Y006815D01*
X007323D01*
X007336Y006842D01*
Y006855D01*
X007323Y006868D01*
X007296D01*
X007283Y006855D01*
Y006828D01*
X007296Y006815D01*
X007269Y006895D02*
Y006948D01*
X007283Y006975D02*
Y007002D01*
Y006988D01*
X007363D01*
X007349Y006975D01*
X007124Y005832D02*
X007138Y005845D01*
X007164D01*
X007178Y005832D01*
Y005778D01*
X007164Y005765D01*
X007138D01*
X007124Y005778D01*
X007044Y005845D02*
X007098D01*
Y005805D01*
X007071Y005818D01*
X007058D01*
X007044Y005805D01*
Y005778D01*
X007058Y005765D01*
X007084D01*
X007098Y005778D01*
X007018Y005765D02*
X006991D01*
X007004D01*
Y005845D01*
X007018Y005832D01*
X006951Y005752D02*
X006898D01*
X006871Y005765D02*
X006844D01*
X006858D01*
Y005845D01*
X006871Y005832D01*
X009351Y005825D02*
X009365Y005839D01*
X009391D01*
X009405Y005825D01*
Y005772D01*
X009391Y005759D01*
X009365D01*
X009351Y005772D01*
X009271Y005839D02*
X009325D01*
Y005799D01*
X009298Y005812D01*
X009285D01*
X009271Y005799D01*
Y005772D01*
X009285Y005759D01*
X009311D01*
X009325Y005772D01*
X009245Y005825D02*
X009231Y005839D01*
X009205D01*
X009191Y005825D01*
Y005772D01*
X009205Y005759D01*
X009231D01*
X009245Y005772D01*
Y005825D01*
X009165Y005745D02*
X009111D01*
X009085Y005759D02*
X009058D01*
X009071D01*
Y005839D01*
X009085Y005825D01*
X011192Y006225D02*
X011126D01*
X011112Y006238D01*
Y006265D01*
X011126Y006278D01*
X011192D01*
X011112Y006305D02*
Y006332D01*
Y006318D01*
X011192D01*
X011179Y006305D01*
X011112Y006372D02*
Y006398D01*
Y006385D01*
X011192D01*
X011179Y006372D01*
X009405Y006465D02*
X009338D01*
X009325Y006478D01*
Y006505D01*
X009338Y006518D01*
X009405D01*
X009325Y006545D02*
Y006572D01*
Y006558D01*
X009405D01*
X009392Y006545D01*
Y006612D02*
X009405Y006625D01*
Y006652D01*
X009392Y006665D01*
X009338D01*
X009325Y006652D01*
Y006625D01*
X009338Y006612D01*
X009392D01*
X012400Y007265D02*
Y007198D01*
X012387Y007185D01*
X012360D01*
X012347Y007198D01*
Y007265D01*
X012267Y007185D02*
X012320D01*
X012267Y007238D01*
Y007252D01*
X012280Y007265D01*
X012307D01*
X012320Y007252D01*
X012898Y005825D02*
Y005905D01*
X012858D01*
X012845Y005892D01*
Y005865D01*
X012858Y005852D01*
X012898D01*
X012872D02*
X012845Y005825D01*
X012765Y005905D02*
X012792Y005892D01*
X012818Y005865D01*
Y005838D01*
X012805Y005825D01*
X012778D01*
X012765Y005838D01*
Y005852D01*
X012778Y005865D01*
X012818D01*
X012685Y005825D02*
X012738D01*
X012685Y005878D01*
Y005892D01*
X012698Y005905D01*
X012725D01*
X012738Y005892D01*
X012658Y005812D02*
X012605D01*
X012578Y005825D02*
X012552D01*
X012565D01*
Y005905D01*
X012578Y005892D01*
X011815Y004625D02*
X011895D01*
Y004665D01*
X011882Y004678D01*
X011855D01*
X011842Y004665D01*
Y004625D01*
Y004652D02*
X011815Y004678D01*
X011895Y004758D02*
Y004705D01*
X011855D01*
X011868Y004732D01*
Y004745D01*
X011855Y004758D01*
X011828D01*
X011815Y004745D01*
Y004718D01*
X011828Y004705D01*
X011895Y004785D02*
Y004838D01*
X011882D01*
X011828Y004785D01*
X011815D01*
X011802Y004865D02*
Y004918D01*
X011815Y004945D02*
Y004972D01*
Y004958D01*
X011895D01*
X011882Y004945D01*
X011210Y005274D02*
Y005354D01*
X011170D01*
X011157Y005340D01*
Y005314D01*
X011170Y005300D01*
X011210D01*
X011183D02*
X011157Y005274D01*
X011077Y005354D02*
X011130D01*
Y005314D01*
X011103Y005327D01*
X011090D01*
X011077Y005314D01*
Y005287D01*
X011090Y005274D01*
X011117D01*
X011130Y005287D01*
X010997Y005354D02*
X011023Y005340D01*
X011050Y005314D01*
Y005287D01*
X011037Y005274D01*
X011010D01*
X010997Y005287D01*
Y005300D01*
X011010Y005314D01*
X011050D01*
X010970Y005260D02*
X010917D01*
X010890Y005274D02*
X010863D01*
X010877D01*
Y005354D01*
X010890Y005340D01*
X011640Y005742D02*
X011720D01*
Y005782D01*
X011707Y005796D01*
X011680D01*
X011667Y005782D01*
Y005742D01*
Y005769D02*
X011640Y005796D01*
X011720Y005876D02*
Y005822D01*
X011680D01*
X011693Y005849D01*
Y005862D01*
X011680Y005876D01*
X011653D01*
X011640Y005862D01*
Y005836D01*
X011653Y005822D01*
X011720Y005956D02*
Y005902D01*
X011680D01*
X011693Y005929D01*
Y005942D01*
X011680Y005956D01*
X011653D01*
X011640Y005942D01*
Y005916D01*
X011653Y005902D01*
X011627Y005982D02*
Y006036D01*
X011640Y006062D02*
Y006089D01*
Y006076D01*
X011720D01*
X011707Y006062D01*
X011210Y005145D02*
Y005225D01*
X011170D01*
X011157Y005212D01*
Y005185D01*
X011170Y005172D01*
X011210D01*
X011183D02*
X011157Y005145D01*
X011077Y005225D02*
X011130D01*
Y005185D01*
X011103Y005198D01*
X011090D01*
X011077Y005185D01*
Y005158D01*
X011090Y005145D01*
X011117D01*
X011130Y005158D01*
X011050Y005212D02*
X011037Y005225D01*
X011010D01*
X010997Y005212D01*
Y005198D01*
X011010Y005185D01*
X011023D01*
X011010D01*
X010997Y005172D01*
Y005158D01*
X011010Y005145D01*
X011037D01*
X011050Y005158D01*
X010970Y005132D02*
X010917D01*
X010890Y005145D02*
X010863D01*
X010877D01*
Y005225D01*
X010890Y005212D01*
X010585Y005635D02*
X010665D01*
Y005675D01*
X010652Y005688D01*
X010625D01*
X010612Y005675D01*
Y005635D01*
Y005662D02*
X010585Y005688D01*
X010665Y005768D02*
Y005715D01*
X010625D01*
X010638Y005742D01*
Y005755D01*
X010625Y005768D01*
X010598D01*
X010585Y005755D01*
Y005728D01*
X010598Y005715D01*
X010585Y005848D02*
Y005795D01*
X010638Y005848D01*
X010652D01*
X010665Y005835D01*
Y005808D01*
X010652Y005795D01*
X012845Y011515D02*
X012925D01*
Y011555D01*
X012912Y011568D01*
X012885D01*
X012872Y011555D01*
Y011515D01*
Y011542D02*
X012845Y011568D01*
Y011595D02*
Y011622D01*
Y011608D01*
X012925D01*
X012912Y011595D01*
X012858Y011662D02*
X012845Y011675D01*
Y011702D01*
X012858Y011715D01*
X012912D01*
X012925Y011702D01*
Y011675D01*
X012912Y011662D01*
X012898D01*
X012885Y011675D01*
Y011715D01*
X010228Y010675D02*
X010307D01*
Y010715D01*
X010294Y010728D01*
X010267D01*
X010254Y010715D01*
Y010675D01*
Y010702D02*
X010228Y010728D01*
Y010755D02*
Y010782D01*
Y010768D01*
X010307D01*
X010294Y010755D01*
X010307Y010875D02*
Y010822D01*
X010267D01*
X010281Y010848D01*
Y010862D01*
X010267Y010875D01*
X010241D01*
X010228Y010862D01*
Y010835D01*
X010241Y010822D01*
X011435Y009370D02*
X011515D01*
Y009410D01*
X011502Y009423D01*
X011475D01*
X011462Y009410D01*
Y009370D01*
Y009397D02*
X011435Y009423D01*
Y009450D02*
Y009477D01*
Y009463D01*
X011515D01*
X011502Y009450D01*
X011435Y009557D02*
X011515D01*
X011475Y009517D01*
Y009570D01*
X011256Y009365D02*
X011335D01*
Y009405D01*
X011322Y009418D01*
X011295D01*
X011282Y009405D01*
Y009365D01*
Y009392D02*
X011256Y009418D01*
Y009445D02*
Y009472D01*
Y009458D01*
X011335D01*
X011322Y009445D01*
Y009512D02*
X011335Y009525D01*
Y009552D01*
X011322Y009565D01*
X011309D01*
X011295Y009552D01*
Y009538D01*
Y009552D01*
X011282Y009565D01*
X011269D01*
X011256Y009552D01*
Y009525D01*
X011269Y009512D01*
X011128Y010585D02*
X011207D01*
Y010625D01*
X011194Y010638D01*
X011167D01*
X011154Y010625D01*
Y010585D01*
Y010612D02*
X011128Y010638D01*
Y010665D02*
Y010692D01*
Y010678D01*
X011207D01*
X011194Y010665D01*
X011128Y010785D02*
Y010732D01*
X011181Y010785D01*
X011194D01*
X011207Y010772D01*
Y010745D01*
X011194Y010732D01*
X011285Y010585D02*
X011365D01*
Y010625D01*
X011352Y010638D01*
X011325D01*
X011312Y010625D01*
Y010585D01*
Y010612D02*
X011285Y010638D01*
Y010665D02*
Y010692D01*
Y010678D01*
X011365D01*
X011352Y010665D01*
X011285Y010732D02*
Y010758D01*
Y010745D01*
X011365D01*
X011352Y010732D01*
X011394Y010425D02*
Y010505D01*
X011354D01*
X011340Y010492D01*
Y010465D01*
X011354Y010452D01*
X011394D01*
X011367D02*
X011340Y010425D01*
X011314D02*
X011287D01*
X011300D01*
Y010505D01*
X011314Y010492D01*
X011247D02*
X011234Y010505D01*
X011207D01*
X011194Y010492D01*
Y010438D01*
X011207Y010425D01*
X011234D01*
X011247Y010438D01*
Y010492D01*
X011395Y010255D02*
Y010335D01*
X011355D01*
X011342Y010322D01*
Y010295D01*
X011355Y010282D01*
X011395D01*
X011368D02*
X011342Y010255D01*
X011315Y010268D02*
X011302Y010255D01*
X011275D01*
X011262Y010268D01*
Y010322D01*
X011275Y010335D01*
X011302D01*
X011315Y010322D01*
Y010308D01*
X011302Y010295D01*
X011262D01*
X010725Y012111D02*
Y012191D01*
X010685D01*
X010672Y012178D01*
Y012151D01*
X010685Y012138D01*
X010725D01*
X010698D02*
X010672Y012111D01*
X010645Y012178D02*
X010632Y012191D01*
X010605D01*
X010592Y012178D01*
Y012165D01*
X010605Y012151D01*
X010592Y012138D01*
Y012125D01*
X010605Y012111D01*
X010632D01*
X010645Y012125D01*
Y012138D01*
X010632Y012151D01*
X010645Y012165D01*
Y012178D01*
X010632Y012151D02*
X010605D01*
X010165Y010885D02*
Y010965D01*
X010125D01*
X010112Y010952D01*
Y010925D01*
X010125Y010912D01*
X010165D01*
X010138D02*
X010112Y010885D01*
X010085Y010965D02*
X010032D01*
Y010952D01*
X010085Y010898D01*
Y010885D01*
X010345Y010678D02*
X010425D01*
Y010718D01*
X010412Y010732D01*
X010385D01*
X010372Y010718D01*
Y010678D01*
Y010705D02*
X010345Y010732D01*
X010425Y010812D02*
X010412Y010785D01*
X010385Y010758D01*
X010358D01*
X010345Y010772D01*
Y010798D01*
X010358Y010812D01*
X010372D01*
X010385Y010798D01*
Y010758D01*
X010465Y010678D02*
X010545D01*
Y010718D01*
X010532Y010732D01*
X010505D01*
X010492Y010718D01*
Y010678D01*
Y010705D02*
X010465Y010732D01*
X010545Y010812D02*
Y010758D01*
X010505D01*
X010518Y010785D01*
Y010798D01*
X010505Y010812D01*
X010478D01*
X010465Y010798D01*
Y010772D01*
X010478Y010758D01*
X009695Y009855D02*
Y009935D01*
X009655D01*
X009642Y009922D01*
Y009895D01*
X009655Y009882D01*
X009695D01*
X009668D02*
X009642Y009855D01*
X009575D02*
Y009935D01*
X009615Y009895D01*
X009562D01*
X009924Y009645D02*
Y009565D01*
X009871D01*
X009791D02*
X009844D01*
X009791Y009618D01*
Y009632D01*
X009804Y009645D01*
X009831D01*
X009844Y009632D01*
X009905Y009125D02*
Y009045D01*
X009852D01*
X009825D02*
X009798D01*
X009812D01*
Y009125D01*
X009825Y009112D01*
X010412Y010572D02*
X010425Y010585D01*
X010452D01*
X010465Y010572D01*
Y010518D01*
X010452Y010505D01*
X010425D01*
X010412Y010518D01*
Y010545D01*
X010438D01*
X010385Y010585D02*
Y010505D01*
Y010532D01*
X010332Y010585D01*
X010372Y010545D01*
X010332Y010505D01*
X010305D02*
X010278D01*
X010292D01*
Y010585D01*
X010305Y010572D01*
X012902Y011161D02*
X012915Y011147D01*
Y011121D01*
X012902Y011107D01*
X012848D01*
X012835Y011121D01*
Y011147D01*
X012848Y011161D01*
X012835Y011227D02*
X012915D01*
X012875Y011187D01*
Y011241D01*
X012902Y011267D02*
X012915Y011281D01*
Y011307D01*
X012902Y011321D01*
X012888D01*
X012875Y011307D01*
X012862Y011321D01*
X012848D01*
X012835Y011307D01*
Y011281D01*
X012848Y011267D01*
X012862D01*
X012875Y011281D01*
X012888Y011267D01*
X012902D01*
X012875Y011281D02*
Y011307D01*
X012892Y010618D02*
X012905Y010605D01*
Y010578D01*
X012892Y010565D01*
X012838D01*
X012825Y010578D01*
Y010605D01*
X012838Y010618D01*
X012825Y010685D02*
X012905D01*
X012865Y010645D01*
Y010698D01*
X012905Y010725D02*
Y010778D01*
X012892D01*
X012838Y010725D01*
X012825D01*
X012884Y010068D02*
X012897Y010055D01*
Y010028D01*
X012884Y010015D01*
X012831D01*
X012818Y010028D01*
Y010055D01*
X012831Y010068D01*
X012818Y010135D02*
X012897D01*
X012857Y010095D01*
Y010148D01*
X012897Y010228D02*
X012884Y010202D01*
X012857Y010175D01*
X012831D01*
X012818Y010188D01*
Y010215D01*
X012831Y010228D01*
X012844D01*
X012857Y010215D01*
Y010175D01*
X012884Y009518D02*
X012897Y009505D01*
Y009478D01*
X012884Y009465D01*
X012831D01*
X012818Y009478D01*
Y009505D01*
X012831Y009518D01*
X012818Y009585D02*
X012897D01*
X012857Y009545D01*
Y009598D01*
X012897Y009678D02*
Y009625D01*
X012857D01*
X012871Y009652D01*
Y009665D01*
X012857Y009678D01*
X012831D01*
X012818Y009665D01*
Y009638D01*
X012831Y009625D01*
X012207Y004782D02*
X012220Y004795D01*
X012247D01*
X012260Y004782D01*
Y004728D01*
X012247Y004715D01*
X012220D01*
X012207Y004728D01*
X012140Y004715D02*
Y004795D01*
X012180Y004755D01*
X012127D01*
X012100Y004715D02*
X012073D01*
X012087D01*
Y004795D01*
X012100Y004782D01*
X012033Y004702D02*
X011980D01*
X011953Y004715D02*
X011927D01*
X011940D01*
Y004795D01*
X011953Y004782D01*
X011157Y005502D02*
X011170Y005515D01*
X011197D01*
X011210Y005502D01*
Y005448D01*
X011197Y005435D01*
X011170D01*
X011157Y005448D01*
X011090Y005435D02*
Y005515D01*
X011130Y005475D01*
X011077D01*
X011050Y005502D02*
X011037Y005515D01*
X011010D01*
X010997Y005502D01*
Y005448D01*
X011010Y005435D01*
X011037D01*
X011050Y005448D01*
Y005502D01*
X010970Y005422D02*
X010917D01*
X010890Y005435D02*
X010863D01*
X010877D01*
Y005515D01*
X010890Y005502D01*
X011702Y004782D02*
X011715Y004795D01*
X011742D01*
X011755Y004782D01*
Y004728D01*
X011742Y004715D01*
X011715D01*
X011702Y004728D01*
X011675Y004782D02*
X011662Y004795D01*
X011635D01*
X011622Y004782D01*
Y004768D01*
X011635Y004755D01*
X011648D01*
X011635D01*
X011622Y004742D01*
Y004728D01*
X011635Y004715D01*
X011662D01*
X011675Y004728D01*
X011595D02*
X011582Y004715D01*
X011555D01*
X011542Y004728D01*
Y004782D01*
X011555Y004795D01*
X011582D01*
X011595Y004782D01*
Y004768D01*
X011582Y004755D01*
X011542D01*
X011515Y004702D02*
X011462D01*
X011435Y004715D02*
X011408D01*
X011422D01*
Y004795D01*
X011435Y004782D01*
X011142Y004922D02*
X011155Y004935D01*
X011182D01*
X011195Y004922D01*
Y004868D01*
X011182Y004855D01*
X011155D01*
X011142Y004868D01*
X011115Y004922D02*
X011102Y004935D01*
X011075D01*
X011062Y004922D01*
Y004908D01*
X011075Y004895D01*
X011088D01*
X011075D01*
X011062Y004882D01*
Y004868D01*
X011075Y004855D01*
X011102D01*
X011115Y004868D01*
X011035Y004922D02*
X011022Y004935D01*
X010995D01*
X010982Y004922D01*
Y004908D01*
X010995Y004895D01*
X010982Y004882D01*
Y004868D01*
X010995Y004855D01*
X011022D01*
X011035Y004868D01*
Y004882D01*
X011022Y004895D01*
X011035Y004908D01*
Y004922D01*
X011022Y004895D02*
X010995D01*
X010955Y004842D02*
X010902D01*
X010875Y004855D02*
X010848D01*
X010862D01*
Y004935D01*
X010875Y004922D01*
X011222Y005708D02*
X011235Y005695D01*
Y005668D01*
X011222Y005655D01*
X011168D01*
X011155Y005668D01*
Y005695D01*
X011168Y005708D01*
X011222Y005735D02*
X011235Y005748D01*
Y005775D01*
X011222Y005788D01*
X011208D01*
X011195Y005775D01*
Y005762D01*
Y005775D01*
X011182Y005788D01*
X011168D01*
X011155Y005775D01*
Y005748D01*
X011168Y005735D01*
X011235Y005815D02*
Y005868D01*
X011222D01*
X011168Y005815D01*
X011155D01*
X009732Y005927D02*
X009745Y005940D01*
X009772D01*
X009785Y005927D01*
Y005873D01*
X009772Y005860D01*
X009745D01*
X009732Y005873D01*
X009705Y005927D02*
X009692Y005940D01*
X009665D01*
X009652Y005927D01*
Y005913D01*
X009665Y005900D01*
X009678D01*
X009665D01*
X009652Y005887D01*
Y005873D01*
X009665Y005860D01*
X009692D01*
X009705Y005873D01*
X009572Y005940D02*
X009625D01*
Y005900D01*
X009598Y005913D01*
X009585D01*
X009572Y005900D01*
Y005873D01*
X009585Y005860D01*
X009612D01*
X009625Y005873D01*
X009722Y005632D02*
X009735Y005645D01*
X009762D01*
X009775Y005632D01*
Y005578D01*
X009762Y005565D01*
X009735D01*
X009722Y005578D01*
X009695Y005632D02*
X009682Y005645D01*
X009655D01*
X009642Y005632D01*
Y005618D01*
X009655Y005605D01*
X009668D01*
X009655D01*
X009642Y005592D01*
Y005578D01*
X009655Y005565D01*
X009682D01*
X009695Y005578D01*
X009575Y005565D02*
Y005645D01*
X009615Y005605D01*
X009562D01*
X010442Y005612D02*
X010455Y005625D01*
X010482D01*
X010495Y005612D01*
Y005558D01*
X010482Y005545D01*
X010455D01*
X010442Y005558D01*
X010415Y005612D02*
X010402Y005625D01*
X010375D01*
X010362Y005612D01*
Y005598D01*
X010375Y005585D01*
X010388D01*
X010375D01*
X010362Y005572D01*
Y005558D01*
X010375Y005545D01*
X010402D01*
X010415Y005558D01*
X010335Y005545D02*
X010308D01*
X010322D01*
Y005625D01*
X010335Y005612D01*
X011362Y006464D02*
X011375Y006451D01*
Y006424D01*
X011362Y006411D01*
X011308D01*
X011295Y006424D01*
Y006451D01*
X011308Y006464D01*
X011295Y006544D02*
Y006491D01*
X011348Y006544D01*
X011362D01*
X011375Y006531D01*
Y006504D01*
X011362Y006491D01*
Y006571D02*
X011375Y006584D01*
Y006611D01*
X011362Y006624D01*
X011308D01*
X011295Y006611D01*
Y006584D01*
X011308Y006571D01*
X011362D01*
X012899Y006468D02*
X012912Y006455D01*
Y006428D01*
X012899Y006415D01*
X012846D01*
X012832Y006428D01*
Y006455D01*
X012846Y006468D01*
X012832Y006495D02*
Y006522D01*
Y006508D01*
X012912D01*
X012899Y006495D01*
X012846Y006562D02*
X012832Y006575D01*
Y006602D01*
X012846Y006615D01*
X012899D01*
X012912Y006602D01*
Y006575D01*
X012899Y006562D01*
X012886D01*
X012872Y006575D01*
Y006615D01*
X010482Y010952D02*
X010495Y010965D01*
X010522D01*
X010535Y010952D01*
Y010898D01*
X010522Y010885D01*
X010495D01*
X010482Y010898D01*
X010455Y010885D02*
X010428D01*
X010442D01*
Y010965D01*
X010455Y010952D01*
X010335Y010965D02*
X010362Y010952D01*
X010388Y010925D01*
Y010898D01*
X010375Y010885D01*
X010348D01*
X010335Y010898D01*
Y010912D01*
X010348Y010925D01*
X010388D01*
X010972Y010952D02*
X010985Y010965D01*
X011012D01*
X011025Y010952D01*
Y010898D01*
X011012Y010885D01*
X010985D01*
X010972Y010898D01*
X010945Y010885D02*
X010918D01*
X010932D01*
Y010965D01*
X010945Y010952D01*
X010825Y010965D02*
X010878D01*
Y010925D01*
X010852Y010938D01*
X010838D01*
X010825Y010925D01*
Y010898D01*
X010838Y010885D01*
X010865D01*
X010878Y010898D01*
X009722Y010058D02*
X009735Y010045D01*
Y010018D01*
X009722Y010005D01*
X009668D01*
X009655Y010018D01*
Y010045D01*
X009668Y010058D01*
X009655Y010085D02*
Y010112D01*
Y010098D01*
X009735D01*
X009722Y010085D01*
X009655Y010192D02*
X009735D01*
X009695Y010152D01*
Y010205D01*
X010962Y009092D02*
X010975Y009105D01*
X011002D01*
X011015Y009092D01*
Y009038D01*
X011002Y009025D01*
X010975D01*
X010962Y009038D01*
X010935Y009025D02*
X010908D01*
X010922D01*
Y009105D01*
X010935Y009092D01*
X010868D02*
X010855Y009105D01*
X010828D01*
X010815Y009092D01*
Y009078D01*
X010828Y009065D01*
X010842D01*
X010828D01*
X010815Y009052D01*
Y009038D01*
X010828Y009025D01*
X010855D01*
X010868Y009038D01*
X011692Y009092D02*
X011705Y009105D01*
X011732D01*
X011745Y009092D01*
Y009038D01*
X011732Y009025D01*
X011705D01*
X011692Y009038D01*
X011665Y009025D02*
X011638D01*
X011652D01*
Y009105D01*
X011665Y009092D01*
X011545Y009025D02*
X011598D01*
X011545Y009078D01*
Y009092D01*
X011558Y009105D01*
X011585D01*
X011598Y009092D01*
X011692Y009812D02*
X011705Y009825D01*
X011732D01*
X011745Y009812D01*
Y009758D01*
X011732Y009745D01*
X011705D01*
X011692Y009758D01*
X011665Y009745D02*
X011638D01*
X011652D01*
Y009825D01*
X011665Y009812D01*
X011598Y009745D02*
X011572D01*
X011585D01*
Y009825D01*
X011598Y009812D01*
X011542Y010028D02*
X011555Y010015D01*
Y009988D01*
X011542Y009975D01*
X011488D01*
X011475Y009988D01*
Y010015D01*
X011488Y010028D01*
X011475Y010055D02*
Y010082D01*
Y010068D01*
X011555D01*
X011542Y010055D01*
Y010122D02*
X011555Y010135D01*
Y010162D01*
X011542Y010175D01*
X011488D01*
X011475Y010162D01*
Y010135D01*
X011488Y010122D01*
X011542D01*
X011582Y011142D02*
X011595Y011155D01*
X011622D01*
X011635Y011142D01*
Y011088D01*
X011622Y011075D01*
X011595D01*
X011582Y011088D01*
X011555D02*
X011542Y011075D01*
X011515D01*
X011502Y011088D01*
Y011142D01*
X011515Y011155D01*
X011542D01*
X011555Y011142D01*
Y011128D01*
X011542Y011115D01*
X011502D01*
X009602Y009118D02*
X009615Y009105D01*
Y009078D01*
X009602Y009065D01*
X009548D01*
X009535Y009078D01*
Y009105D01*
X009548Y009118D01*
X009602Y009145D02*
X009615Y009158D01*
Y009185D01*
X009602Y009198D01*
X009588D01*
X009575Y009185D01*
X009562Y009198D01*
X009548D01*
X009535Y009185D01*
Y009158D01*
X009548Y009145D01*
X009562D01*
X009575Y009158D01*
X009588Y009145D01*
X009602D01*
X009575Y009158D02*
Y009185D01*
X010332Y009528D02*
X010345Y009515D01*
Y009488D01*
X010332Y009475D01*
X010278D01*
X010265Y009488D01*
Y009515D01*
X010278Y009528D01*
X010345Y009555D02*
Y009608D01*
X010332D01*
X010278Y009555D01*
X010265D01*
X010164Y009528D02*
X010177Y009515D01*
Y009488D01*
X010164Y009475D01*
X010111D01*
X010097Y009488D01*
Y009515D01*
X010111Y009528D01*
X010177Y009608D02*
X010164Y009582D01*
X010137Y009555D01*
X010111D01*
X010097Y009568D01*
Y009595D01*
X010111Y009608D01*
X010124D01*
X010137Y009595D01*
Y009555D01*
X011182Y012292D02*
X011195Y012305D01*
X011222D01*
X011235Y012292D01*
Y012238D01*
X011222Y012225D01*
X011195D01*
X011182Y012238D01*
X011102Y012305D02*
X011155D01*
Y012265D01*
X011128Y012278D01*
X011115D01*
X011102Y012265D01*
Y012238D01*
X011115Y012225D01*
X011142D01*
X011155Y012238D01*
X010729Y010112D02*
X010743Y010125D01*
X010769D01*
X010782Y010112D01*
Y010058D01*
X010769Y010045D01*
X010743D01*
X010729Y010058D01*
X010663Y010045D02*
Y010125D01*
X010703Y010085D01*
X010649D01*
X010105Y012292D02*
X010119Y012305D01*
X010145D01*
X010159Y012292D01*
Y012238D01*
X010145Y012225D01*
X010119D01*
X010105Y012238D01*
X010079Y012292D02*
X010065Y012305D01*
X010039D01*
X010026Y012292D01*
Y012278D01*
X010039Y012265D01*
X010052D01*
X010039D01*
X010026Y012252D01*
Y012238D01*
X010039Y012225D01*
X010065D01*
X010079Y012238D01*
X011338Y008852D02*
X011351Y008865D01*
X011378D01*
X011391Y008852D01*
Y008798D01*
X011378Y008785D01*
X011351D01*
X011338Y008798D01*
X011258Y008785D02*
X011311D01*
X011258Y008838D01*
Y008852D01*
X011271Y008865D01*
X011298D01*
X011311Y008852D01*
X011582Y011024D02*
X011595Y011038D01*
X011622D01*
X011635Y011024D01*
Y010971D01*
X011622Y010958D01*
X011595D01*
X011582Y010971D01*
X011555Y010958D02*
X011528D01*
X011542D01*
Y011038D01*
X011555Y011024D01*
D23*
X004988Y012381D02*
X005067D01*
Y012421D01*
X005054Y012434D01*
X005028D01*
X005014Y012421D01*
Y012381D01*
Y012408D02*
X004988Y012434D01*
Y012461D02*
X005067D01*
Y012501D01*
X005054Y012514D01*
X005028D01*
X005014Y012501D01*
Y012461D01*
X005067Y012594D02*
X005054Y012567D01*
X005028Y012541D01*
X005001D01*
X004988Y012554D01*
Y012581D01*
X005001Y012594D01*
X005014D01*
X005028Y012581D01*
Y012541D01*
X011602Y004030D02*
Y004110D01*
X011562D01*
X011548Y004097D01*
Y004070D01*
X011562Y004057D01*
X011602D01*
X011575D02*
X011548Y004030D01*
X011522D02*
Y004110D01*
X011482D01*
X011468Y004097D01*
Y004070D01*
X011482Y004057D01*
X011522D01*
X011388Y004110D02*
X011442D01*
Y004070D01*
X011415Y004083D01*
X011402D01*
X011388Y004070D01*
Y004043D01*
X011402Y004030D01*
X011428D01*
X011442Y004043D01*
X006610Y004046D02*
X006690D01*
Y004086D01*
X006677Y004099D01*
X006650D01*
X006637Y004086D01*
Y004046D01*
Y004073D02*
X006610Y004099D01*
Y004126D02*
X006690D01*
Y004166D01*
X006677Y004179D01*
X006650D01*
X006637Y004166D01*
Y004126D01*
X006610Y004246D02*
X006690D01*
X006650Y004206D01*
Y004259D01*
X007103Y011764D02*
Y011844D01*
X007063D01*
X007049Y011830D01*
Y011804D01*
X007063Y011790D01*
X007103D01*
X007076D02*
X007049Y011764D01*
X007023Y011830D02*
X007009Y011844D01*
X006983D01*
X006969Y011830D01*
Y011817D01*
X006983Y011804D01*
X006969Y011790D01*
Y011777D01*
X006983Y011764D01*
X007009D01*
X007023Y011777D01*
Y011790D01*
X007009Y011804D01*
X007023Y011817D01*
Y011830D01*
X007009Y011804D02*
X006983D01*
X006943Y011830D02*
X006929Y011844D01*
X006903D01*
X006889Y011830D01*
Y011777D01*
X006903Y011764D01*
X006929D01*
X006943Y011777D01*
Y011830D01*
X006863Y011750D02*
X006809D01*
X006743Y011764D02*
Y011844D01*
X006783Y011804D01*
X006729D01*
X007115Y010041D02*
Y010121D01*
X007075D01*
X007062Y010108D01*
Y010081D01*
X007075Y010068D01*
X007115D01*
X007088D02*
X007062Y010041D01*
X007035Y010108D02*
X007022Y010121D01*
X006995D01*
X006982Y010108D01*
Y010094D01*
X006995Y010081D01*
X006982Y010068D01*
Y010054D01*
X006995Y010041D01*
X007022D01*
X007035Y010054D01*
Y010068D01*
X007022Y010081D01*
X007035Y010094D01*
Y010108D01*
X007022Y010081D02*
X006995D01*
X006955Y010108D02*
X006942Y010121D01*
X006915D01*
X006902Y010108D01*
Y010054D01*
X006915Y010041D01*
X006942D01*
X006955Y010054D01*
Y010108D01*
X006875Y010028D02*
X006822D01*
X006795Y010108D02*
X006782Y010121D01*
X006755D01*
X006742Y010108D01*
Y010094D01*
X006755Y010081D01*
X006768D01*
X006755D01*
X006742Y010068D01*
Y010054D01*
X006755Y010041D01*
X006782D01*
X006795Y010054D01*
X007101Y008305D02*
Y008385D01*
X007061D01*
X007047Y008371D01*
Y008345D01*
X007061Y008331D01*
X007101D01*
X007074D02*
X007047Y008305D01*
X007021Y008371D02*
X007007Y008385D01*
X006981D01*
X006967Y008371D01*
Y008358D01*
X006981Y008345D01*
X006967Y008331D01*
Y008318D01*
X006981Y008305D01*
X007007D01*
X007021Y008318D01*
Y008331D01*
X007007Y008345D01*
X007021Y008358D01*
Y008371D01*
X007007Y008345D02*
X006981D01*
X006941Y008371D02*
X006927Y008385D01*
X006901D01*
X006887Y008371D01*
Y008318D01*
X006901Y008305D01*
X006927D01*
X006941Y008318D01*
Y008371D01*
X006861Y008291D02*
X006807D01*
X006727Y008305D02*
X006781D01*
X006727Y008358D01*
Y008371D01*
X006741Y008385D01*
X006767D01*
X006781Y008371D01*
X007077Y006573D02*
Y006653D01*
X007037D01*
X007024Y006640D01*
Y006613D01*
X007037Y006600D01*
X007077D01*
X007051D02*
X007024Y006573D01*
X006997Y006640D02*
X006984Y006653D01*
X006957D01*
X006944Y006640D01*
Y006626D01*
X006957Y006613D01*
X006944Y006600D01*
Y006586D01*
X006957Y006573D01*
X006984D01*
X006997Y006586D01*
Y006600D01*
X006984Y006613D01*
X006997Y006626D01*
Y006640D01*
X006984Y006613D02*
X006957D01*
X006917Y006640D02*
X006904Y006653D01*
X006877D01*
X006864Y006640D01*
Y006586D01*
X006877Y006573D01*
X006904D01*
X006917Y006586D01*
Y006640D01*
X006837Y006560D02*
X006784D01*
X006757Y006573D02*
X006731D01*
X006744D01*
Y006653D01*
X006757Y006640D01*
X007102Y012060D02*
Y012140D01*
X007062D01*
X007048Y012126D01*
Y012100D01*
X007062Y012086D01*
X007102D01*
X007075D02*
X007048Y012060D01*
X006969D02*
X007022D01*
X006969Y012113D01*
Y012126D01*
X006982Y012140D01*
X007008D01*
X007022Y012126D01*
X006942D02*
X006929Y012140D01*
X006902D01*
X006889Y012126D01*
Y012073D01*
X006902Y012060D01*
X006929D01*
X006942Y012073D01*
Y012126D01*
X006862Y012046D02*
X006809D01*
X006742Y012060D02*
Y012140D01*
X006782Y012100D01*
X006729D01*
X007112Y010336D02*
Y010416D01*
X007072D01*
X007059Y010403D01*
Y010376D01*
X007072Y010363D01*
X007112D01*
X007086D02*
X007059Y010336D01*
X006979D02*
X007032D01*
X006979Y010390D01*
Y010403D01*
X006992Y010416D01*
X007019D01*
X007032Y010403D01*
X006952D02*
X006939Y010416D01*
X006912D01*
X006899Y010403D01*
Y010350D01*
X006912Y010336D01*
X006939D01*
X006952Y010350D01*
Y010403D01*
X006872Y010323D02*
X006819D01*
X006792Y010403D02*
X006779Y010416D01*
X006752D01*
X006739Y010403D01*
Y010390D01*
X006752Y010376D01*
X006766D01*
X006752D01*
X006739Y010363D01*
Y010350D01*
X006752Y010336D01*
X006779D01*
X006792Y010350D01*
X007105Y008600D02*
Y008680D01*
X007065D01*
X007051Y008666D01*
Y008640D01*
X007065Y008626D01*
X007105D01*
X007078D02*
X007051Y008600D01*
X006971D02*
X007025D01*
X006971Y008653D01*
Y008666D01*
X006985Y008680D01*
X007011D01*
X007025Y008666D01*
X006945D02*
X006931Y008680D01*
X006905D01*
X006891Y008666D01*
Y008613D01*
X006905Y008600D01*
X006931D01*
X006945Y008613D01*
Y008666D01*
X006865Y008586D02*
X006811D01*
X006731Y008600D02*
X006785D01*
X006731Y008653D01*
Y008666D01*
X006745Y008680D01*
X006771D01*
X006785Y008666D01*
X007074Y006871D02*
Y006951D01*
X007034D01*
X007021Y006937D01*
Y006911D01*
X007034Y006897D01*
X007074D01*
X007048D02*
X007021Y006871D01*
X006941D02*
X006994D01*
X006941Y006924D01*
Y006937D01*
X006954Y006951D01*
X006981D01*
X006994Y006937D01*
X006914D02*
X006901Y006951D01*
X006874D01*
X006861Y006937D01*
Y006884D01*
X006874Y006871D01*
X006901D01*
X006914Y006884D01*
Y006937D01*
X006834Y006857D02*
X006781D01*
X006754Y006871D02*
X006728D01*
X006741D01*
Y006951D01*
X006754Y006937D01*
M02*
