G04*
G04 #@! TF.GenerationSoftware,Altium Limited,Altium Designer,20.1.11 (218)*
G04*
G04 Layer_Color=16711935*
%FSAX42Y42*%
%MOMM*%
G71*
G04*
G04 #@! TF.SameCoordinates,F3C0A85A-D470-4F3B-B7C9-65F3AFEF91C2*
G04*
G04*
G04 #@! TF.FilePolarity,Negative*
G04*
G01*
G75*
%ADD27C,3.00*%
%ADD29R,1.47X1.09*%
G04:AMPARAMS|DCode=33|XSize=0.9mm|YSize=0.7mm|CornerRadius=0.23mm|HoleSize=0mm|Usage=FLASHONLY|Rotation=90.000|XOffset=0mm|YOffset=0mm|HoleType=Round|Shape=RoundedRectangle|*
%AMROUNDEDRECTD33*
21,1,0.90,0.25,0,0,90.0*
21,1,0.45,0.70,0,0,90.0*
1,1,0.45,0.13,0.23*
1,1,0.45,0.13,-0.23*
1,1,0.45,-0.13,-0.23*
1,1,0.45,-0.13,0.23*
%
%ADD33ROUNDEDRECTD33*%
%ADD34R,0.70X0.90*%
%ADD37R,1.22X1.01*%
%ADD38R,1.01X1.22*%
%ADD48R,2.74X2.23*%
G04:AMPARAMS|DCode=49|XSize=0.5mm|YSize=1.65mm|CornerRadius=0.18mm|HoleSize=0mm|Usage=FLASHONLY|Rotation=0.000|XOffset=0mm|YOffset=0mm|HoleType=Round|Shape=RoundedRectangle|*
%AMROUNDEDRECTD49*
21,1,0.50,1.30,0,0,0.0*
21,1,0.15,1.65,0,0,0.0*
1,1,0.35,0.08,-0.65*
1,1,0.35,-0.08,-0.65*
1,1,0.35,-0.08,0.65*
1,1,0.35,0.08,0.65*
%
%ADD49ROUNDEDRECTD49*%
%ADD50R,0.50X1.65*%
G04:AMPARAMS|DCode=52|XSize=1.1mm|YSize=1.15mm|CornerRadius=0.33mm|HoleSize=0mm|Usage=FLASHONLY|Rotation=90.000|XOffset=0mm|YOffset=0mm|HoleType=Round|Shape=RoundedRectangle|*
%AMROUNDEDRECTD52*
21,1,1.10,0.50,0,0,90.0*
21,1,0.45,1.15,0,0,90.0*
1,1,0.65,0.25,0.23*
1,1,0.65,0.25,-0.23*
1,1,0.65,-0.25,-0.23*
1,1,0.65,-0.25,0.23*
%
%ADD52ROUNDEDRECTD52*%
%ADD53R,1.15X1.10*%
%ADD54R,1.15X1.10*%
%ADD60R,2.15X0.80*%
%ADD61O,2.15X0.80*%
%ADD62O,2.50X0.80*%
%ADD76O,1.50X1.70*%
%ADD77C,2.10*%
G04:AMPARAMS|DCode=78|XSize=1.72mm|YSize=1.72mm|CornerRadius=0.48mm|HoleSize=0mm|Usage=FLASHONLY|Rotation=90.000|XOffset=0mm|YOffset=0mm|HoleType=Round|Shape=RoundedRectangle|*
%AMROUNDEDRECTD78*
21,1,1.72,0.76,0,0,90.0*
21,1,0.76,1.72,0,0,90.0*
1,1,0.96,0.38,0.38*
1,1,0.96,0.38,-0.38*
1,1,0.96,-0.38,-0.38*
1,1,0.96,-0.38,0.38*
%
%ADD78ROUNDEDRECTD78*%
%ADD79C,1.72*%
%ADD80C,1.40*%
%ADD81C,0.70*%
%ADD82R,1.70X1.70*%
%ADD83C,1.70*%
%ADD84R,1.70X1.70*%
%ADD85C,0.60*%
%ADD86C,1.00*%
%ADD87R,1.40X1.40*%
%ADD88C,6.55*%
%ADD89C,0.80*%
%ADD90C,0.90*%
%ADD91C,1.20*%
%ADD92C,1.50*%
%ADD93C,1.30*%
%ADD94C,4.70*%
%ADD192R,0.90X0.70*%
G04:AMPARAMS|DCode=193|XSize=0.9mm|YSize=0.7mm|CornerRadius=0.23mm|HoleSize=0mm|Usage=FLASHONLY|Rotation=180.000|XOffset=0mm|YOffset=0mm|HoleType=Round|Shape=RoundedRectangle|*
%AMROUNDEDRECTD193*
21,1,0.90,0.25,0,0,180.0*
21,1,0.45,0.70,0,0,180.0*
1,1,0.45,-0.23,0.13*
1,1,0.45,0.23,0.13*
1,1,0.45,0.23,-0.13*
1,1,0.45,-0.23,-0.13*
%
%ADD193ROUNDEDRECTD193*%
%ADD194O,0.80X2.50*%
%ADD195R,0.80X1.98*%
%ADD196O,0.84X1.98*%
%ADD197R,1.09X1.47*%
%ADD198R,2.20X2.20*%
G04:AMPARAMS|DCode=199|XSize=2.2mm|YSize=2.2mm|CornerRadius=0.6mm|HoleSize=0mm|Usage=FLASHONLY|Rotation=180.000|XOffset=0mm|YOffset=0mm|HoleType=Round|Shape=RoundedRectangle|*
%AMROUNDEDRECTD199*
21,1,2.20,1.00,0,0,180.0*
21,1,1.00,2.20,0,0,180.0*
1,1,1.20,-0.50,0.50*
1,1,1.20,0.50,0.50*
1,1,1.20,0.50,-0.50*
1,1,1.20,-0.50,-0.50*
%
%ADD199ROUNDEDRECTD199*%
%ADD200O,0.45X1.47*%
%ADD201R,0.45X1.47*%
D27*
X011203Y003960D02*
D03*
X004810Y012490D02*
D03*
X006432Y004162D02*
D03*
D29*
X011575Y011955D02*
D03*
Y011755D02*
D03*
X012862Y006325D02*
D03*
Y006125D02*
D03*
X011325Y006325D02*
D03*
Y006125D02*
D03*
X011055Y012635D02*
D03*
Y012435D02*
D03*
D33*
X011655Y012235D02*
D03*
X011488D02*
D03*
D34*
X011655Y012455D02*
D03*
X011488D02*
D03*
D37*
X006789Y009909D02*
D03*
Y009757D02*
D03*
X006785Y010205D02*
D03*
Y010053D02*
D03*
X006775Y008175D02*
D03*
Y008023D02*
D03*
X006778Y008470D02*
D03*
Y008318D02*
D03*
X006775Y006740D02*
D03*
Y006588D02*
D03*
X006778Y006442D02*
D03*
Y006290D02*
D03*
X006775Y011632D02*
D03*
Y011480D02*
D03*
Y011930D02*
D03*
Y011778D02*
D03*
X012855Y011015D02*
D03*
Y010863D02*
D03*
Y010475D02*
D03*
Y010323D02*
D03*
Y009925D02*
D03*
Y009773D02*
D03*
Y009375D02*
D03*
Y009223D02*
D03*
X012765Y011315D02*
D03*
Y011467D02*
D03*
X010753Y005685D02*
D03*
Y005837D02*
D03*
X011675Y005479D02*
D03*
Y005326D02*
D03*
X012175Y005477D02*
D03*
Y005325D02*
D03*
Y008227D02*
D03*
Y008075D02*
D03*
X011675Y008229D02*
D03*
Y008076D02*
D03*
X011345Y007927D02*
D03*
Y007775D02*
D03*
X005766Y008066D02*
D03*
Y008219D02*
D03*
X005487Y008892D02*
D03*
Y009044D02*
D03*
X005265Y008892D02*
D03*
Y009044D02*
D03*
X005298Y009281D02*
D03*
Y009433D02*
D03*
X005678Y009281D02*
D03*
Y009433D02*
D03*
X006543Y009156D02*
D03*
Y009004D02*
D03*
Y008896D02*
D03*
Y008744D02*
D03*
X005768Y008401D02*
D03*
Y008553D02*
D03*
X006543Y008539D02*
D03*
Y008386D02*
D03*
Y008269D02*
D03*
Y008116D02*
D03*
X005766Y011066D02*
D03*
Y011219D02*
D03*
X005487Y011892D02*
D03*
Y012044D02*
D03*
X005265Y011892D02*
D03*
Y012044D02*
D03*
X005298Y012281D02*
D03*
Y012433D02*
D03*
X005678Y012281D02*
D03*
Y012433D02*
D03*
X006543Y012156D02*
D03*
Y012004D02*
D03*
Y011896D02*
D03*
Y011744D02*
D03*
X005768Y011401D02*
D03*
Y011553D02*
D03*
X006543Y011539D02*
D03*
Y011386D02*
D03*
Y011269D02*
D03*
Y011116D02*
D03*
X005678Y010781D02*
D03*
Y010933D02*
D03*
X006543Y010656D02*
D03*
Y010504D02*
D03*
X005768Y009901D02*
D03*
Y010053D02*
D03*
X005766Y006719D02*
D03*
Y006566D02*
D03*
X006543Y007504D02*
D03*
Y007656D02*
D03*
Y007244D02*
D03*
Y007396D02*
D03*
Y006886D02*
D03*
Y007039D02*
D03*
Y006616D02*
D03*
Y006769D02*
D03*
X005768Y007053D02*
D03*
Y006901D02*
D03*
X005298Y007933D02*
D03*
Y007781D02*
D03*
X005265Y007544D02*
D03*
Y007392D02*
D03*
X005487Y007544D02*
D03*
Y007392D02*
D03*
X005678Y007933D02*
D03*
Y007781D02*
D03*
X005766Y009719D02*
D03*
Y009566D02*
D03*
X005487Y010544D02*
D03*
Y010392D02*
D03*
X005265Y010544D02*
D03*
Y010392D02*
D03*
X005298Y010933D02*
D03*
Y010781D02*
D03*
X006543Y010244D02*
D03*
Y010396D02*
D03*
Y009886D02*
D03*
Y010039D02*
D03*
Y009616D02*
D03*
Y009769D02*
D03*
X005298Y006433D02*
D03*
Y006281D02*
D03*
X005487Y006044D02*
D03*
Y005892D02*
D03*
X005265Y006044D02*
D03*
Y005892D02*
D03*
X007405Y010663D02*
D03*
Y010815D02*
D03*
X007405Y008933D02*
D03*
Y009085D02*
D03*
Y007203D02*
D03*
Y007355D02*
D03*
Y005625D02*
D03*
Y005473D02*
D03*
X009819Y010865D02*
D03*
Y010713D02*
D03*
X011175Y011015D02*
D03*
Y010863D02*
D03*
X011335Y011015D02*
D03*
Y010863D02*
D03*
X011465Y009135D02*
D03*
Y009287D02*
D03*
X011290Y009135D02*
D03*
Y009287D02*
D03*
X010139Y010865D02*
D03*
Y010713D02*
D03*
X009979Y010865D02*
D03*
Y010713D02*
D03*
X010635Y012007D02*
D03*
Y011855D02*
D03*
X010235Y012007D02*
D03*
Y011855D02*
D03*
X009835Y012007D02*
D03*
Y011855D02*
D03*
X010703Y009975D02*
D03*
Y009823D02*
D03*
X009575Y009267D02*
D03*
Y009419D02*
D03*
X010310Y009255D02*
D03*
Y009407D02*
D03*
X010137Y009255D02*
D03*
Y009407D02*
D03*
X009575Y010025D02*
D03*
Y010177D02*
D03*
X011652Y009670D02*
D03*
Y009518D02*
D03*
X011645Y010151D02*
D03*
Y009999D02*
D03*
X011007Y005837D02*
D03*
Y005685D02*
D03*
X011845Y007785D02*
D03*
Y007937D02*
D03*
Y005187D02*
D03*
Y005035D02*
D03*
X011345Y005177D02*
D03*
Y005025D02*
D03*
X005678Y006281D02*
D03*
Y006433D02*
D03*
X005768Y005401D02*
D03*
Y005553D02*
D03*
X005766Y005066D02*
D03*
Y005219D02*
D03*
X006543Y006004D02*
D03*
Y006156D02*
D03*
Y005896D02*
D03*
Y005744D02*
D03*
Y005539D02*
D03*
Y005386D02*
D03*
Y005269D02*
D03*
Y005116D02*
D03*
X007453Y012087D02*
D03*
Y011935D02*
D03*
X008805Y012087D02*
D03*
Y011935D02*
D03*
X007096Y011948D02*
D03*
Y012100D02*
D03*
X008863Y010665D02*
D03*
Y010817D02*
D03*
X007453Y010357D02*
D03*
Y010205D02*
D03*
X008805Y010357D02*
D03*
Y010205D02*
D03*
X007096Y010218D02*
D03*
Y010370D02*
D03*
X008863Y008935D02*
D03*
Y009087D02*
D03*
X007453Y008627D02*
D03*
Y008475D02*
D03*
X008805Y008627D02*
D03*
Y008475D02*
D03*
X007096Y008488D02*
D03*
Y008640D02*
D03*
X008863Y007205D02*
D03*
Y007357D02*
D03*
X007453Y006745D02*
D03*
Y006897D02*
D03*
X008805Y006745D02*
D03*
Y006897D02*
D03*
X007096Y006910D02*
D03*
Y006758D02*
D03*
X008863Y005627D02*
D03*
Y005475D02*
D03*
D38*
X010460Y007905D02*
D03*
X010308D02*
D03*
X009990Y008094D02*
D03*
X009838D02*
D03*
X010460D02*
D03*
X010308D02*
D03*
X010460Y007717D02*
D03*
X010308D02*
D03*
X010460Y007528D02*
D03*
X010308D02*
D03*
X009990D02*
D03*
X009838D02*
D03*
X009990Y007717D02*
D03*
X009838D02*
D03*
X009990Y007905D02*
D03*
X009838D02*
D03*
X010590Y012265D02*
D03*
X010742D02*
D03*
X011027D02*
D03*
X010875D02*
D03*
X005900Y005066D02*
D03*
X006053D02*
D03*
X010328Y005735D02*
D03*
X010480D02*
D03*
X009610D02*
D03*
X009762D02*
D03*
X011495Y005475D02*
D03*
X011343D02*
D03*
X011995D02*
D03*
X011843D02*
D03*
X012807Y005166D02*
D03*
X012655D02*
D03*
X012807Y005015D02*
D03*
X012655D02*
D03*
X012653Y008076D02*
D03*
X012805D02*
D03*
X012653Y008231D02*
D03*
X012805D02*
D03*
X012807Y007765D02*
D03*
X012655D02*
D03*
X012807Y007916D02*
D03*
X012655D02*
D03*
X011615Y007645D02*
D03*
X011767D02*
D03*
X011497D02*
D03*
X011345D02*
D03*
X011995Y008225D02*
D03*
X011843D02*
D03*
X012028Y007645D02*
D03*
X012180D02*
D03*
X011495Y008225D02*
D03*
X011343D02*
D03*
X011495Y008058D02*
D03*
X011343D02*
D03*
X006253Y009146D02*
D03*
X006405D02*
D03*
X006053D02*
D03*
X005900D02*
D03*
X006250Y008686D02*
D03*
X006403D02*
D03*
X005261Y008631D02*
D03*
X005108D02*
D03*
X006253Y008529D02*
D03*
X006405D02*
D03*
X006053Y008528D02*
D03*
X005900D02*
D03*
X006240Y008066D02*
D03*
X006393D02*
D03*
X006053Y008686D02*
D03*
X005900D02*
D03*
X006053Y008066D02*
D03*
X005900D02*
D03*
X005523D02*
D03*
X005370D02*
D03*
X006253Y012146D02*
D03*
X006405D02*
D03*
X006053D02*
D03*
X005900D02*
D03*
X006250Y011686D02*
D03*
X006403D02*
D03*
X005261Y011631D02*
D03*
X005108D02*
D03*
X006253Y011529D02*
D03*
X006405D02*
D03*
X006053Y011528D02*
D03*
X005900D02*
D03*
X006240Y011066D02*
D03*
X006393D02*
D03*
X006053Y011686D02*
D03*
X005900D02*
D03*
X006053Y011066D02*
D03*
X005900D02*
D03*
X005523D02*
D03*
X005370D02*
D03*
X006053Y010028D02*
D03*
X005900D02*
D03*
X006053Y010186D02*
D03*
X005900D02*
D03*
X005523Y009566D02*
D03*
X005370D02*
D03*
X006405Y007029D02*
D03*
X006253D02*
D03*
X006405Y007646D02*
D03*
X006253D02*
D03*
X005900D02*
D03*
X006053D02*
D03*
X006403Y007186D02*
D03*
X006250D02*
D03*
X005900Y007028D02*
D03*
X006053D02*
D03*
X006393Y006566D02*
D03*
X006240D02*
D03*
X005108Y007131D02*
D03*
X005261D02*
D03*
X005900Y007186D02*
D03*
X006053D02*
D03*
X005900Y006566D02*
D03*
X006053D02*
D03*
X005370D02*
D03*
X005523D02*
D03*
X006405Y010646D02*
D03*
X006253D02*
D03*
X005900D02*
D03*
X006053D02*
D03*
X006403Y010186D02*
D03*
X006250D02*
D03*
X005108Y010131D02*
D03*
X005261D02*
D03*
X006405Y010029D02*
D03*
X006253D02*
D03*
X006393Y009566D02*
D03*
X006240D02*
D03*
X005900D02*
D03*
X006053D02*
D03*
X010455Y012265D02*
D03*
X010303D02*
D03*
X011652Y010463D02*
D03*
X011500D02*
D03*
X011652Y010295D02*
D03*
X011500D02*
D03*
X010040Y011050D02*
D03*
X010192D02*
D03*
X011397Y008943D02*
D03*
X011245D02*
D03*
X011652Y010702D02*
D03*
X011500D02*
D03*
X009715Y009775D02*
D03*
X009563D02*
D03*
X009877Y008955D02*
D03*
X009725D02*
D03*
X010515Y008943D02*
D03*
X010363D02*
D03*
Y011050D02*
D03*
X010515D02*
D03*
X010855Y011055D02*
D03*
X011007D02*
D03*
X010987Y008945D02*
D03*
X010835D02*
D03*
X011535Y008943D02*
D03*
X011687D02*
D03*
X011652Y010870D02*
D03*
X011500D02*
D03*
X011763Y011755D02*
D03*
X011915D02*
D03*
X011763Y011955D02*
D03*
X011915D02*
D03*
X009755Y006038D02*
D03*
X009603D02*
D03*
X012653Y007615D02*
D03*
X012805D02*
D03*
X011845Y008055D02*
D03*
X011997D02*
D03*
X012805Y008385D02*
D03*
X012653D02*
D03*
Y005635D02*
D03*
X012805D02*
D03*
X012653Y005326D02*
D03*
X012805D02*
D03*
X012653Y005481D02*
D03*
X012805D02*
D03*
Y004865D02*
D03*
X012653D02*
D03*
X012028Y004895D02*
D03*
X012180D02*
D03*
X011997Y005305D02*
D03*
X011845D02*
D03*
X011495Y005308D02*
D03*
X011343D02*
D03*
X011497Y004895D02*
D03*
X011345D02*
D03*
X011615D02*
D03*
X011767D02*
D03*
X006253Y005529D02*
D03*
X006405D02*
D03*
X006253Y006146D02*
D03*
X006405D02*
D03*
X006053D02*
D03*
X005900D02*
D03*
X006250Y005686D02*
D03*
X006403D02*
D03*
X006053Y005528D02*
D03*
X005900D02*
D03*
X006240Y005066D02*
D03*
X006393D02*
D03*
X005261Y005631D02*
D03*
X005108D02*
D03*
X006053Y005686D02*
D03*
X005900D02*
D03*
X005523Y005066D02*
D03*
X005370D02*
D03*
X008823Y010997D02*
D03*
X008975D02*
D03*
X007405Y010995D02*
D03*
X007253D02*
D03*
X008983Y010495D02*
D03*
X008830D02*
D03*
X008823Y009265D02*
D03*
X008975D02*
D03*
X007405D02*
D03*
X007253D02*
D03*
X008983Y008765D02*
D03*
X008830D02*
D03*
X008822Y007530D02*
D03*
X008975D02*
D03*
X007405Y007535D02*
D03*
X007253D02*
D03*
X008983Y007035D02*
D03*
X008830D02*
D03*
X008975Y005803D02*
D03*
X008822D02*
D03*
X007253Y005805D02*
D03*
X007405D02*
D03*
X008830Y005297D02*
D03*
X008982D02*
D03*
D48*
X011295Y011577D02*
D03*
Y011945D02*
D03*
D49*
X012315Y008095D02*
D03*
X012315Y005345D02*
D03*
D50*
X012365Y008095D02*
D03*
X012415D02*
D03*
X012465D02*
D03*
X012515D02*
D03*
X012315Y007655D02*
D03*
X012365D02*
D03*
X012415D02*
D03*
X012465D02*
D03*
X012515D02*
D03*
X012515Y004905D02*
D03*
X012465D02*
D03*
X012415D02*
D03*
X012365D02*
D03*
X012315D02*
D03*
X012515Y005345D02*
D03*
X012465D02*
D03*
X012415D02*
D03*
X012365D02*
D03*
D52*
X007265Y010835D02*
D03*
X007265Y009105D02*
D03*
Y007375D02*
D03*
Y005645D02*
D03*
D53*
Y010645D02*
D03*
X007265Y008915D02*
D03*
Y007185D02*
D03*
Y005455D02*
D03*
D54*
X007015Y010740D02*
D03*
X007015Y009010D02*
D03*
Y007280D02*
D03*
Y005550D02*
D03*
D60*
X007600Y010546D02*
D03*
Y010674D02*
D03*
Y010800D02*
D03*
Y010928D02*
D03*
X008650Y010546D02*
D03*
Y010674D02*
D03*
Y010800D02*
D03*
X007600Y008817D02*
D03*
Y008943D02*
D03*
Y009071D02*
D03*
Y009197D02*
D03*
X008650Y008817D02*
D03*
Y008943D02*
D03*
Y009071D02*
D03*
X007600Y007086D02*
D03*
Y007214D02*
D03*
Y007340D02*
D03*
Y007468D02*
D03*
X008650Y007086D02*
D03*
Y007214D02*
D03*
Y007340D02*
D03*
X007600Y005356D02*
D03*
Y005483D02*
D03*
Y005610D02*
D03*
Y005738D02*
D03*
X008650Y005356D02*
D03*
Y005483D02*
D03*
Y005610D02*
D03*
D61*
X008650Y010928D02*
D03*
X008650Y009197D02*
D03*
Y007468D02*
D03*
Y005738D02*
D03*
D62*
X012555Y007056D02*
D03*
Y006929D02*
D03*
Y006802D02*
D03*
Y006675D02*
D03*
Y006548D02*
D03*
Y006421D02*
D03*
Y006294D02*
D03*
Y006167D02*
D03*
X011640Y007056D02*
D03*
Y006929D02*
D03*
Y006802D02*
D03*
Y006675D02*
D03*
Y006548D02*
D03*
Y006421D02*
D03*
Y006294D02*
D03*
Y006167D02*
D03*
X008575Y012044D02*
D03*
Y011918D02*
D03*
Y011790D02*
D03*
Y011664D02*
D03*
Y011536D02*
D03*
Y011410D02*
D03*
Y011282D02*
D03*
Y011156D02*
D03*
X007660Y012044D02*
D03*
Y011918D02*
D03*
Y011790D02*
D03*
Y011664D02*
D03*
Y011536D02*
D03*
Y011410D02*
D03*
Y011282D02*
D03*
Y011156D02*
D03*
X008575Y010314D02*
D03*
Y010188D02*
D03*
Y010061D02*
D03*
Y009933D02*
D03*
Y009807D02*
D03*
Y009679D02*
D03*
Y009553D02*
D03*
Y009425D02*
D03*
X007660Y010314D02*
D03*
Y010188D02*
D03*
Y010061D02*
D03*
Y009933D02*
D03*
Y009807D02*
D03*
Y009679D02*
D03*
Y009553D02*
D03*
Y009425D02*
D03*
X008575Y008585D02*
D03*
Y008457D02*
D03*
Y008331D02*
D03*
Y008204D02*
D03*
Y008076D02*
D03*
Y007950D02*
D03*
Y007822D02*
D03*
Y007696D02*
D03*
X007660Y008585D02*
D03*
Y008457D02*
D03*
Y008331D02*
D03*
Y008204D02*
D03*
Y008076D02*
D03*
Y007950D02*
D03*
Y007822D02*
D03*
Y007696D02*
D03*
X008575Y006854D02*
D03*
Y006728D02*
D03*
Y006600D02*
D03*
Y006474D02*
D03*
Y006347D02*
D03*
Y006219D02*
D03*
Y006092D02*
D03*
Y005965D02*
D03*
X007660Y006854D02*
D03*
Y006728D02*
D03*
Y006600D02*
D03*
Y006474D02*
D03*
Y006347D02*
D03*
Y006219D02*
D03*
Y006092D02*
D03*
Y005965D02*
D03*
D76*
X011820Y012222D02*
D03*
X011330Y012220D02*
D03*
D77*
X011847Y012515D02*
D03*
X011303D02*
D03*
D78*
X010825Y011800D02*
D03*
X010425D02*
D03*
X010025D02*
D03*
D79*
X010825Y012054D02*
D03*
X010425D02*
D03*
X010025D02*
D03*
D80*
X011512Y007846D02*
D03*
X012012Y007845D02*
D03*
X011512Y005096D02*
D03*
X012012Y005095D02*
D03*
X006153Y007428D02*
D03*
Y006808D02*
D03*
Y011308D02*
D03*
Y011928D02*
D03*
Y008928D02*
D03*
Y008308D02*
D03*
Y005928D02*
D03*
Y005308D02*
D03*
Y010428D02*
D03*
Y009808D02*
D03*
X009435Y004665D02*
D03*
Y004465D02*
D03*
X009235D02*
D03*
X009035D02*
D03*
X008835D02*
D03*
X008635D02*
D03*
X008435D02*
D03*
X008235D02*
D03*
X008035D02*
D03*
X007835D02*
D03*
X007635D02*
D03*
X007435D02*
D03*
X007235D02*
D03*
X007035D02*
D03*
X006835D02*
D03*
X006635D02*
D03*
X006435D02*
D03*
X006235D02*
D03*
X006035D02*
D03*
X005835D02*
D03*
X009235Y004665D02*
D03*
X009035D02*
D03*
X008835D02*
D03*
X008635D02*
D03*
X008435D02*
D03*
X008235D02*
D03*
X008035D02*
D03*
X007835D02*
D03*
X007635D02*
D03*
X007435D02*
D03*
X007235D02*
D03*
X007035D02*
D03*
X006835D02*
D03*
X006635D02*
D03*
X006435D02*
D03*
X006235D02*
D03*
X006035D02*
D03*
X005835D02*
D03*
X005635D02*
D03*
X004455Y012535D02*
D03*
D81*
X011462Y007946D02*
D03*
X011563D02*
D03*
Y007746D02*
D03*
X011462D02*
D03*
X011962Y007945D02*
D03*
X012063D02*
D03*
Y007745D02*
D03*
X011962D02*
D03*
X011462Y005196D02*
D03*
X011563D02*
D03*
Y004996D02*
D03*
X011462D02*
D03*
X011962Y005195D02*
D03*
X012063D02*
D03*
Y004995D02*
D03*
X011962D02*
D03*
X006204Y007328D02*
D03*
X006102D02*
D03*
Y007528D02*
D03*
X006204D02*
D03*
Y006708D02*
D03*
X006102D02*
D03*
Y006908D02*
D03*
X006204D02*
D03*
Y011208D02*
D03*
X006102D02*
D03*
Y011408D02*
D03*
X006204D02*
D03*
Y012028D02*
D03*
X006102D02*
D03*
Y011828D02*
D03*
X006204D02*
D03*
Y008828D02*
D03*
X006102D02*
D03*
Y009028D02*
D03*
X006204D02*
D03*
Y008408D02*
D03*
X006102D02*
D03*
Y008208D02*
D03*
X006204D02*
D03*
Y005828D02*
D03*
X006102D02*
D03*
Y006028D02*
D03*
X006204D02*
D03*
Y005208D02*
D03*
X006102D02*
D03*
Y005408D02*
D03*
X006204D02*
D03*
Y010328D02*
D03*
X006102D02*
D03*
Y010528D02*
D03*
X006204D02*
D03*
Y009908D02*
D03*
X006102D02*
D03*
Y009708D02*
D03*
X006204D02*
D03*
X011728Y004600D02*
D03*
X011443Y004455D02*
D03*
X005479Y006808D02*
D03*
X005644D02*
D03*
Y005308D02*
D03*
X005479D02*
D03*
Y009808D02*
D03*
X005644D02*
D03*
X005479Y008308D02*
D03*
X005644D02*
D03*
Y011308D02*
D03*
X005479D02*
D03*
D82*
X004720Y005134D02*
D03*
X004212Y005135D02*
D03*
D83*
X004466Y005134D02*
D03*
X004720Y005388D02*
D03*
X004466D02*
D03*
X004720Y005642D02*
D03*
X004466D02*
D03*
X004720Y005896D02*
D03*
X004466D02*
D03*
X004720Y006150D02*
D03*
X004466D02*
D03*
X004720Y006404D02*
D03*
X004466D02*
D03*
X004720Y006658D02*
D03*
X004466D02*
D03*
X004720Y006912D02*
D03*
X004466D02*
D03*
X004720Y007166D02*
D03*
X004466D02*
D03*
X004720Y007420D02*
D03*
X004466D02*
D03*
X004720Y007674D02*
D03*
X004466D02*
D03*
X004720Y007928D02*
D03*
X004466D02*
D03*
X004720Y008182D02*
D03*
X004466D02*
D03*
X004720Y008436D02*
D03*
X004466D02*
D03*
X004720Y008690D02*
D03*
X004466D02*
D03*
X004720Y008944D02*
D03*
X004466D02*
D03*
X004720Y009198D02*
D03*
X004466D02*
D03*
X004720Y009452D02*
D03*
X004466D02*
D03*
X004720Y009706D02*
D03*
X004466D02*
D03*
X004720Y009960D02*
D03*
X004466D02*
D03*
X004720Y010214D02*
D03*
X004466D02*
D03*
X004720Y010468D02*
D03*
X004466D02*
D03*
X004720Y010722D02*
D03*
X004466D02*
D03*
X004720Y010976D02*
D03*
X004466D02*
D03*
X004720Y011230D02*
D03*
X004466D02*
D03*
X004720Y011484D02*
D03*
X004466D02*
D03*
X003958Y011485D02*
D03*
X004212D02*
D03*
X003958Y011231D02*
D03*
X004212D02*
D03*
X003958Y010977D02*
D03*
X004212D02*
D03*
X003958Y010723D02*
D03*
X004212D02*
D03*
X003958Y010469D02*
D03*
X004212D02*
D03*
X003958Y010215D02*
D03*
X004212D02*
D03*
X003958Y009961D02*
D03*
X004212D02*
D03*
X003958Y009707D02*
D03*
X004212D02*
D03*
X003958Y009453D02*
D03*
X004212D02*
D03*
X003958Y009199D02*
D03*
X004212D02*
D03*
X003958Y008945D02*
D03*
X004212D02*
D03*
X003958Y008691D02*
D03*
X004212D02*
D03*
X003958Y008437D02*
D03*
X004212D02*
D03*
X003958Y008183D02*
D03*
X004212D02*
D03*
X003958Y007929D02*
D03*
X004212D02*
D03*
X003958Y007675D02*
D03*
X004212D02*
D03*
X003958Y007421D02*
D03*
X004212D02*
D03*
X003958Y007167D02*
D03*
X004212D02*
D03*
X003958Y006913D02*
D03*
X004212D02*
D03*
X003958Y006659D02*
D03*
X004212D02*
D03*
X003958Y006405D02*
D03*
X004212D02*
D03*
X003958Y006151D02*
D03*
X004212D02*
D03*
X003958Y005897D02*
D03*
X004212D02*
D03*
X003958Y005643D02*
D03*
X004212D02*
D03*
X003958Y005389D02*
D03*
X004212D02*
D03*
X003958Y005135D02*
D03*
X009829Y012465D02*
D03*
X010083D02*
D03*
X010337D02*
D03*
X010591D02*
D03*
X010845D02*
D03*
X012560Y009220D02*
D03*
Y009770D02*
D03*
Y010317D02*
D03*
Y010861D02*
D03*
D84*
X009575Y012465D02*
D03*
D85*
X012565Y011485D02*
D03*
Y011305D02*
D03*
D86*
X012660Y009090D02*
D03*
X012460D02*
D03*
Y009350D02*
D03*
X012660D02*
D03*
Y009640D02*
D03*
X012460D02*
D03*
Y009900D02*
D03*
X012660D02*
D03*
Y010187D02*
D03*
X012460D02*
D03*
Y010447D02*
D03*
X012660D02*
D03*
Y010731D02*
D03*
X012460D02*
D03*
Y010991D02*
D03*
X012660D02*
D03*
D87*
X005635Y004465D02*
D03*
D88*
X003958Y004621D02*
D03*
Y011986D02*
D03*
X012531Y012240D02*
D03*
Y004240D02*
D03*
D89*
X008803Y011832D02*
D03*
Y010103D02*
D03*
X008797Y008368D02*
D03*
X008805Y006647D02*
D03*
X007425Y006645D02*
D03*
Y011835D02*
D03*
X007430Y010107D02*
D03*
X007435Y008378D02*
D03*
X012205Y012810D02*
D03*
X012103D02*
D03*
X012003D02*
D03*
X012307D02*
D03*
X004647Y012815D02*
D03*
X004545D02*
D03*
X004445D02*
D03*
X004750D02*
D03*
X012200Y003670D02*
D03*
X012097D02*
D03*
X011997D02*
D03*
X012302D02*
D03*
X004872D02*
D03*
X004567D02*
D03*
X004667D02*
D03*
X004770D02*
D03*
X009025Y010600D02*
D03*
X008972Y010657D02*
D03*
X008965Y008932D02*
D03*
X009012Y008868D02*
D03*
X008993Y007293D02*
D03*
X009007Y007135D02*
D03*
X008970Y007203D02*
D03*
X008983Y005395D02*
D03*
X008993Y005472D02*
D03*
X008993Y005675D02*
D03*
X010455Y007165D02*
D03*
X009840Y007285D02*
D03*
X010582Y004445D02*
D03*
X012915Y011654D02*
D03*
Y011794D02*
D03*
Y011933D02*
D03*
X012224Y012625D02*
D03*
X012084D02*
D03*
X012915Y004826D02*
D03*
Y004686D02*
D03*
Y004547D02*
D03*
X012209Y003947D02*
D03*
X012069D02*
D03*
X011930D02*
D03*
X003627Y011672D02*
D03*
Y011475D02*
D03*
Y011279D02*
D03*
Y011082D02*
D03*
X004469Y012318D02*
D03*
X004272D02*
D03*
Y004289D02*
D03*
X004469D02*
D03*
X004666D02*
D03*
X004862D02*
D03*
X003627Y005525D02*
D03*
Y005328D02*
D03*
Y005132D02*
D03*
Y004935D02*
D03*
X012735Y007059D02*
D03*
X012128Y011605D02*
D03*
X011355Y008416D02*
D03*
X010595Y007285D02*
D03*
X009535D02*
D03*
X006885Y008285D02*
D03*
X009515Y004875D02*
D03*
X009655D02*
D03*
X009585D02*
D03*
X009655Y004255D02*
D03*
X009585D02*
D03*
X009515D02*
D03*
X009445D02*
D03*
Y004875D02*
D03*
X010685Y005265D02*
D03*
X009385Y005269D02*
D03*
X009485D02*
D03*
X010135Y005269D02*
D03*
X010035Y005265D02*
D03*
X009935D02*
D03*
X009575Y005269D02*
D03*
X010795Y005265D02*
D03*
X009720Y007285D02*
D03*
X009410D02*
D03*
X010622Y005735D02*
D03*
X009440Y005725D02*
D03*
X009920Y005740D02*
D03*
X010190Y005725D02*
D03*
X010720Y007285D02*
D03*
X010495D02*
D03*
X010368D02*
D03*
X011985Y006415D02*
D03*
Y006550D02*
D03*
Y006675D02*
D03*
Y006800D02*
D03*
X012735Y006325D02*
D03*
Y006125D02*
D03*
X011455Y006325D02*
D03*
Y006125D02*
D03*
X011365Y006675D02*
D03*
X011455Y006929D02*
D03*
Y007053D02*
D03*
Y006675D02*
D03*
Y006548D02*
D03*
X012735Y006805D02*
D03*
Y006929D02*
D03*
X011985Y007055D02*
D03*
Y006929D02*
D03*
X012255Y005666D02*
D03*
X012345D02*
D03*
X012175D02*
D03*
X011325Y005665D02*
D03*
X011515D02*
D03*
X011997Y005385D02*
D03*
X011705Y005665D02*
D03*
X011905D02*
D03*
X012015D02*
D03*
X012345Y008416D02*
D03*
X012260Y008415D02*
D03*
X012175Y008416D02*
D03*
X012015Y008415D02*
D03*
X011905D02*
D03*
X011997Y008135D02*
D03*
X011705Y008415D02*
D03*
X011515D02*
D03*
X004985Y011255D02*
D03*
X004935Y007184D02*
D03*
X006658Y012461D02*
D03*
Y012381D02*
D03*
Y012301D02*
D03*
X006403Y011786D02*
D03*
X006393Y011866D02*
D03*
X006658Y012131D02*
D03*
Y012221D02*
D03*
Y009461D02*
D03*
Y009381D02*
D03*
Y009301D02*
D03*
X006403Y008786D02*
D03*
X006393Y008866D02*
D03*
X006658Y009131D02*
D03*
Y009221D02*
D03*
Y010961D02*
D03*
Y010881D02*
D03*
Y010801D02*
D03*
X006403Y010286D02*
D03*
X006393Y010366D02*
D03*
X006658Y010631D02*
D03*
Y010721D02*
D03*
Y007961D02*
D03*
Y007881D02*
D03*
Y007801D02*
D03*
X006403Y007286D02*
D03*
X006393Y007366D02*
D03*
X006658Y007631D02*
D03*
Y007721D02*
D03*
X008745Y005274D02*
D03*
X007145Y005285D02*
D03*
X007493Y005265D02*
D03*
X006658Y006221D02*
D03*
Y006301D02*
D03*
Y006381D02*
D03*
Y006461D02*
D03*
Y006131D02*
D03*
X006393Y005866D02*
D03*
X006403Y005786D02*
D03*
X008985Y005915D02*
D03*
X007143Y005735D02*
D03*
X006885Y005865D02*
D03*
Y006535D02*
D03*
X006985Y006875D02*
D03*
X008993Y005550D02*
D03*
X008650Y005274D02*
D03*
X007595Y005265D02*
D03*
X008650Y005825D02*
D03*
X007600D02*
D03*
X006885Y005957D02*
D03*
Y006037D02*
D03*
Y006115D02*
D03*
Y006195D02*
D03*
X008993Y006416D02*
D03*
Y006497D02*
D03*
Y006577D02*
D03*
Y006657D02*
D03*
X008745Y005967D02*
D03*
X008825Y005915D02*
D03*
X008755Y006094D02*
D03*
X008993Y006035D02*
D03*
Y006115D02*
D03*
Y006195D02*
D03*
Y006275D02*
D03*
X007523Y005967D02*
D03*
X007835Y006219D02*
D03*
X007355Y006285D02*
D03*
X006885Y005625D02*
D03*
Y005705D02*
D03*
X006885Y005785D02*
D03*
X007525Y006047D02*
D03*
X007443Y005895D02*
D03*
X007363Y006895D02*
D03*
X007393Y006355D02*
D03*
X006966Y006795D02*
D03*
X007325Y006585D02*
D03*
X007333Y006725D02*
D03*
X006983Y006625D02*
D03*
X006953Y006385D02*
D03*
X007395Y006465D02*
D03*
X006930Y006288D02*
D03*
X006885Y005355D02*
D03*
Y005275D02*
D03*
X006885Y005445D02*
D03*
X006885Y005525D02*
D03*
X007095Y005550D02*
D03*
X008985Y011105D02*
D03*
X007143Y010925D02*
D03*
X007145Y010475D02*
D03*
X006885Y011055D02*
D03*
Y011725D02*
D03*
X006985Y012065D02*
D03*
X008993Y010740D02*
D03*
X008650Y010464D02*
D03*
X007595Y010455D02*
D03*
X008993Y010865D02*
D03*
X008650Y011015D02*
D03*
X007600D02*
D03*
X006885Y011147D02*
D03*
Y011227D02*
D03*
Y011305D02*
D03*
Y011385D02*
D03*
X008993Y011606D02*
D03*
Y011687D02*
D03*
Y011767D02*
D03*
Y011847D02*
D03*
X008745Y011157D02*
D03*
X008825Y011105D02*
D03*
X008755Y011284D02*
D03*
X008745Y010464D02*
D03*
X008993Y011225D02*
D03*
Y011305D02*
D03*
Y011385D02*
D03*
Y011465D02*
D03*
X007523Y011157D02*
D03*
X007835Y011410D02*
D03*
X007355Y011475D02*
D03*
X006885Y010815D02*
D03*
Y010895D02*
D03*
X006885Y010975D02*
D03*
X007525Y011237D02*
D03*
X007493Y010455D02*
D03*
X007443Y011085D02*
D03*
X007363Y012085D02*
D03*
X007393Y011545D02*
D03*
X006966Y011985D02*
D03*
X007325Y011775D02*
D03*
X007333Y011915D02*
D03*
X006983Y011815D02*
D03*
X006953Y011575D02*
D03*
X007395Y011655D02*
D03*
X006930Y011478D02*
D03*
X006885Y010545D02*
D03*
Y010465D02*
D03*
X006885Y010635D02*
D03*
X006885Y010715D02*
D03*
X007095Y010740D02*
D03*
X008985Y007645D02*
D03*
X007143Y007465D02*
D03*
X007145Y007015D02*
D03*
X006885Y007595D02*
D03*
X006985Y008605D02*
D03*
X008650Y007004D02*
D03*
X007595Y006995D02*
D03*
X008993Y007405D02*
D03*
X008650Y007555D02*
D03*
X007600D02*
D03*
X006885Y007687D02*
D03*
Y007767D02*
D03*
Y007845D02*
D03*
Y007925D02*
D03*
X008993Y008146D02*
D03*
Y008227D02*
D03*
Y008307D02*
D03*
Y008387D02*
D03*
X008745Y007697D02*
D03*
X008825Y007645D02*
D03*
X008755Y007824D02*
D03*
X008745Y007004D02*
D03*
X008993Y007765D02*
D03*
Y007845D02*
D03*
Y007925D02*
D03*
Y008005D02*
D03*
X007523Y007697D02*
D03*
X007835Y007950D02*
D03*
X007355Y008015D02*
D03*
X006885Y007355D02*
D03*
Y007435D02*
D03*
X006885Y007515D02*
D03*
X007525Y007777D02*
D03*
X007493Y006995D02*
D03*
X007443Y007625D02*
D03*
X007363Y008625D02*
D03*
X007393Y008085D02*
D03*
X006966Y008525D02*
D03*
X007325Y008315D02*
D03*
X007333Y008455D02*
D03*
X006983Y008355D02*
D03*
X006953Y008115D02*
D03*
X007395Y008195D02*
D03*
X006930Y008018D02*
D03*
X006885Y007085D02*
D03*
Y007005D02*
D03*
X006885Y007175D02*
D03*
X006885Y007255D02*
D03*
X007095Y007280D02*
D03*
X006966Y010255D02*
D03*
X006985Y010335D02*
D03*
X008985Y009375D02*
D03*
X007143Y009195D02*
D03*
X007145Y008745D02*
D03*
X006885Y009325D02*
D03*
Y009995D02*
D03*
X008993Y009010D02*
D03*
X008650Y008734D02*
D03*
X007595Y008725D02*
D03*
X008993Y009135D02*
D03*
X008650Y009285D02*
D03*
X007600D02*
D03*
X006885Y009417D02*
D03*
Y009497D02*
D03*
Y009575D02*
D03*
Y009655D02*
D03*
X008993Y009876D02*
D03*
Y009957D02*
D03*
Y010037D02*
D03*
Y010117D02*
D03*
X008745Y009427D02*
D03*
X008825Y009375D02*
D03*
X008755Y009554D02*
D03*
X008745Y008734D02*
D03*
X008993Y009495D02*
D03*
Y009575D02*
D03*
Y009655D02*
D03*
Y009735D02*
D03*
X007523Y009427D02*
D03*
X007835Y009679D02*
D03*
X007355Y009745D02*
D03*
X006885Y009085D02*
D03*
Y009165D02*
D03*
X006885Y009245D02*
D03*
X007525Y009507D02*
D03*
X007493Y008725D02*
D03*
X007363Y010355D02*
D03*
X007443Y009355D02*
D03*
X007393Y009815D02*
D03*
X007325Y010045D02*
D03*
X007333Y010185D02*
D03*
X006983Y010085D02*
D03*
X006953Y009845D02*
D03*
X007395Y009925D02*
D03*
X006930Y009748D02*
D03*
X006885Y008815D02*
D03*
Y008735D02*
D03*
X006885Y008905D02*
D03*
X006885Y008985D02*
D03*
X007095Y009010D02*
D03*
D90*
X010560Y009822D02*
D03*
X010635Y011665D02*
D03*
X009975Y010515D02*
D03*
X004685Y012222D02*
D03*
X004905D02*
D03*
X004585Y012154D02*
D03*
X004785D02*
D03*
X006665Y006705D02*
D03*
X006885Y006715D02*
D03*
X006655Y011245D02*
D03*
X006665Y009765D02*
D03*
X006655Y008125D02*
D03*
X008965Y006895D02*
D03*
X007025Y005285D02*
D03*
X008965Y012085D02*
D03*
X006885Y011905D02*
D03*
X007025Y010475D02*
D03*
X008965Y008625D02*
D03*
X006885Y008445D02*
D03*
X007025Y007015D02*
D03*
X006885Y010175D02*
D03*
X008965Y010355D02*
D03*
X007025Y008745D02*
D03*
D91*
X011345Y004235D02*
D03*
X010818Y003843D02*
D03*
D92*
X010785Y007808D02*
D03*
X006771Y005065D02*
D03*
X012405Y008749D02*
D03*
X011498Y007275D02*
D03*
D93*
X005561Y006808D02*
D03*
Y005308D02*
D03*
Y009808D02*
D03*
Y008308D02*
D03*
Y011308D02*
D03*
D94*
X009935Y004565D02*
D03*
X005135D02*
D03*
D192*
X011575Y011585D02*
D03*
D193*
X011795D02*
D03*
D194*
X010118Y006975D02*
D03*
X010245D02*
D03*
X010372D02*
D03*
X010499D02*
D03*
X010626D02*
D03*
X010753D02*
D03*
X010880D02*
D03*
X011007D02*
D03*
X010118Y006060D02*
D03*
X010245D02*
D03*
X010372D02*
D03*
X010499D02*
D03*
X010626D02*
D03*
X010753D02*
D03*
X010880D02*
D03*
X011007D02*
D03*
D195*
X009872Y006355D02*
D03*
D196*
X009491Y006990D02*
D03*
X009618D02*
D03*
X009745D02*
D03*
X009872D02*
D03*
X009491Y006355D02*
D03*
X009618D02*
D03*
X009745D02*
D03*
D197*
X009760Y009455D02*
D03*
X009960D02*
D03*
Y009227D02*
D03*
X009760D02*
D03*
D198*
X009975Y009825D02*
D03*
X010375D02*
D03*
X009975Y010333D02*
D03*
D199*
X010375D02*
D03*
D200*
X007047Y011333D02*
D03*
X007098D02*
D03*
X007251Y011815D02*
D03*
Y011333D02*
D03*
X007200D02*
D03*
X007149D02*
D03*
X007200Y011815D02*
D03*
X007149D02*
D03*
X007098D02*
D03*
X007047Y009603D02*
D03*
X007098D02*
D03*
X007251Y010086D02*
D03*
Y009603D02*
D03*
X007200D02*
D03*
X007149D02*
D03*
X007200Y010086D02*
D03*
X007149D02*
D03*
X007098D02*
D03*
X007047Y007873D02*
D03*
X007098D02*
D03*
X007251Y008355D02*
D03*
Y007873D02*
D03*
X007200D02*
D03*
X007149D02*
D03*
X007200Y008355D02*
D03*
X007149D02*
D03*
X007098D02*
D03*
X007047Y006143D02*
D03*
X007098D02*
D03*
X007251Y006625D02*
D03*
Y006143D02*
D03*
X007200D02*
D03*
X007149D02*
D03*
X007200Y006625D02*
D03*
X007149D02*
D03*
X007098D02*
D03*
D201*
X007047Y011815D02*
D03*
X007047Y010086D02*
D03*
Y008355D02*
D03*
Y006625D02*
D03*
M02*
